<svg width="360" height="360" xmlns="http://www.w3.org/2000/svg"><defs><animate id="aa" begin="0s"/><circle id="l0" r="18" fill="#310055"></circle><circle id="d0" r="18" fill="#d283ff"></circle></defs><rect width="100%" height="100%" fill="#dc97ff" /><g transform="translate(40,40)"><use href="#b0" /><circle r="18" fill="#8b2fc9"><animate attributeType="XML" attributeName="fill" values="#8b2fc9;#310055;#8b2fc9;#8b2fc9" dur="3s" begin="aa.begin +1s" repeatCount="indefinite"/></circle></g><g transform="translate(40,80)"><use href="#b0" /><circle r="18" fill="#8b2fc9"><animate attributeType="XML" attributeName="fill" values="#8b2fc9;#310055;#8b2fc9;#8b2fc9" dur="3s" begin="aa.begin +1.5s" repeatCount="indefinite"/></circle></g><use href="#d0" x="40" y="120" /><use href="#d0" x="40" y="160" /><use href="#d0" x="40" y="200" /><use href="#d0" x="40" y="240" /><use href="#d0" x="40" y="280" /><g transform="translate(40,320)"><use href="#b0" /><circle r="18" fill="#8b2fc9"><animate attributeType="XML" attributeName="fill" values="#8b2fc9;#310055;#8b2fc9;#8b2fc9" dur="3s" begin="aa.begin +2s" repeatCount="indefinite"/></circle></g><g transform="translate(80,40)"><use href="#p0" /><circle r="18" fill="#bd68ee"><animate attributeType="XML" attributeName="fill" values="#bd68ee;#d283ff;#bd68ee;#bd68ee" dur="3s" begin="aa.begin +s" repeatCount="indefinite"/></circle></g><g transform="translate(80,80)"><use href="#p0" /><circle r="18" fill="#bd68ee"><animate attributeType="XML" attributeName="fill" values="#bd68ee;#d283ff;#bd68ee;#bd68ee" dur="3s" begin="aa.begin +2.5s" repeatCount="indefinite"/></circle></g><g transform="translate(80,120)"><use href="#b0" /><circle r="18" fill="#8b2fc9"><animate attributeType="XML" attributeName="fill" values="#8b2fc9;#310055;#8b2fc9;#8b2fc9" dur="3s" begin="aa.begin +3s" repeatCount="indefinite"/></circle></g><use href="#d0" x="80" y="160" /><use href="#d0" x="80" y="200" /><use href="#d0" x="80" y="240" /><g transform="translate(80,280)"><use href="#b0" /><circle r="18" fill="#8b2fc9"><animate attributeType="XML" attributeName="fill" values="#8b2fc9;#310055;#8b2fc9;#8b2fc9" dur="3s" begin="aa.begin +3.5s" repeatCount="indefinite"/></circle></g><g transform="translate(80,320)"><use href="#p0" /><circle r="18" fill="#bd68ee"><animate attributeType="XML" attributeName="fill" values="#bd68ee;#d283ff;#bd68ee;#bd68ee" dur="3s" begin="aa.begin +4s" repeatCount="indefinite"/></circle></g><use href="#d0" x="120" y="40" /><use href="#l0" x="120" y="80" /><use href="#l0" x="120" y="120" /><use href="#d0" x="120" y="160" /><use href="#d0" x="120" y="200" /><use href="#d0" x="120" y="240" /><g transform="translate(120,280)"><use href="#p0" /><circle r="18" fill="#bd68ee"><animate attributeType="XML" attributeName="fill" values="#bd68ee;#d283ff;#bd68ee;#bd68ee" dur="3s" begin="aa.begin +4.5s" repeatCount="indefinite"/></circle></g><use href="#d0" x="120" y="320" /><use href="#d0" x="160" y="40" /><use href="#d0" x="160" y="80" /><use href="#d0" x="160" y="120" /><use href="#d0" x="160" y="160" /><use href="#d0" x="160" y="200" /><use href="#d0" x="160" y="240" /><use href="#d0" x="160" y="280" /><use href="#d0" x="160" y="320" /><use href="#d0" x="200" y="40" /><use href="#d0" x="200" y="80" /><use href="#d0" x="200" y="120" /><use href="#d0" x="200" y="160" /><use href="#d0" x="200" y="200" /><use href="#d0" x="200" y="240" /><use href="#d0" x="200" y="280" /><use href="#d0" x="200" y="320" /><use href="#d0" x="240" y="40" /><use href="#d0" x="240" y="80" /><use href="#d0" x="240" y="120" /><use href="#d0" x="240" y="160" /><use href="#d0" x="240" y="200" /><use href="#d0" x="240" y="240" /><use href="#d0" x="240" y="280" /><use href="#d0" x="240" y="320" /><use href="#d0" x="280" y="40" /><use href="#d0" x="280" y="80" /><use href="#d0" x="280" y="120" /><use href="#d0" x="280" y="160" /><use href="#d0" x="280" y="200" /><use href="#d0" x="280" y="240" /><use href="#d0" x="280" y="280" /><use href="#d0" x="280" y="320" /><g transform="translate(320,40)"><use href="#b0" /><circle r="18" fill="#8b2fc9"><animate attributeType="XML" attributeName="fill" values="#8b2fc9;#310055;#8b2fc9;#8b2fc9" dur="3s" begin="aa.begin +5s" repeatCount="indefinite"/></circle></g><g transform="translate(320,80)"><use href="#b0" /><circle r="18" fill="#8b2fc9"><animate attributeType="XML" attributeName="fill" values="#8b2fc9;#310055;#8b2fc9;#8b2fc9" dur="3s" begin="aa.begin +5.5s" repeatCount="indefinite"/></circle></g><use href="#d0" x="320" y="120" /><use href="#d0" x="320" y="160" /><use href="#d0" x="320" y="200" /><use href="#d0" x="320" y="240" /><use href="#d0" x="320" y="280" /><g transform="translate(320,320)"><use href="#b0" /><circle r="18" fill="#8b2fc9"><animate attributeType="XML" attributeName="fill" values="#8b2fc9;#310055;#8b2fc9;#8b2fc9" dur="3s" begin="aa.begin +6s" repeatCount="indefinite"/></circle></g></svg>