<svg width="360" height="360" xmlns="http://www.w3.org/2000/svg"><defs><animate id="aa" begin="0s"/><rect id="d0" width="36" height="36" fill="#fdc500"></rect><circle id="l0" r="18" fill="#3d0066"></circle></defs><rect width="100%" height="100%" fill="#ffee32" /><use href="#l0" x="40" y="40" /><use href="#d0" x="22" y="62" /><use href="#d0" x="22" y="102" /><use href="#d0" x="22" y="142" /><use href="#l0" x="40" y="200" /><g transform="translate(40,240)"><use href="#b0" /><circle r="18" fill="#5c0099"><animate attributeType="XML" attributeName="fill" values="#5c0099;#3d0066;#5c0099;#5c0099" dur="1.0s" repeatCount="indefinite"/></circle></g><use href="#d0" x="22" y="262" /><use href="#l0" x="40" y="320" /><use href="#d0" x="62" y="22" /><use href="#d0" x="62" y="62" /><use href="#l0" x="80" y="120" /><use href="#d0" x="62" y="142" /><use href="#d0" x="62" y="182" /><g transform="translate(62,222)"><use href="#p0" /><polygon points="0,0 0,36 36,36 36,0" fill="#ffd500"><animate attributeType="XML" attributeName="fill" values="#ffd500;#fdc500;#ffd500;#ffd500" dur="1.5s" repeatCount="indefinite"/></polygon></g><use href="#d0" x="62" y="262" /><g transform="translate(62,302)"><use href="#p0" /><polygon points="0,0 0,36 36,36 36,0" fill="#ffd500"><animate attributeType="XML" attributeName="fill" values="#ffd500;#fdc500;#ffd500;#ffd500" dur="1.7s" repeatCount="indefinite"/></polygon></g><use href="#l0" x="120" y="40" /><use href="#l0" x="120" y="80" /><use href="#l0" x="120" y="120" /><g transform="translate(102,142)"><use href="#p0" /><polygon points="0,0 0,36 36,36 36,0" fill="#ffd500"><animate attributeType="XML" attributeName="fill" values="#ffd500;#fdc500;#ffd500;#ffd500" dur="1.6s" repeatCount="indefinite"/></polygon></g><use href="#l0" x="120" y="200" /><g transform="translate(102,222)"><use href="#p0" /><polygon points="0,0 0,36 36,36 36,0" fill="#ffd500"><animate attributeType="XML" attributeName="fill" values="#ffd500;#fdc500;#ffd500;#ffd500" dur="1.0s" repeatCount="indefinite"/></polygon></g><use href="#l0" x="120" y="280" /><use href="#l0" x="120" y="320" /><use href="#d0" x="142" y="22" /><use href="#d0" x="142" y="62" /><use href="#d0" x="142" y="102" /><use href="#d0" x="142" y="142" /><use href="#l0" x="160" y="200" /><use href="#d0" x="142" y="222" /><g transform="translate(142,262)"><use href="#p0" /><polygon points="0,0 0,36 36,36 36,0" fill="#ffd500"><animate attributeType="XML" attributeName="fill" values="#ffd500;#fdc500;#ffd500;#ffd500" dur="1.8s" repeatCount="indefinite"/></polygon></g><use href="#d0" x="142" y="302" /><use href="#d0" x="182" y="22" /><g transform="translate(182,62)"><use href="#p0" /><polygon points="0,0 0,36 36,36 36,0" fill="#ffd500"><animate attributeType="XML" attributeName="fill" values="#ffd500;#fdc500;#ffd500;#ffd500" dur="1.4s" repeatCount="indefinite"/></polygon></g><g transform="translate(182,102)"><use href="#p0" /><polygon points="0,0 0,36 36,36 36,0" fill="#ffd500"><animate attributeType="XML" attributeName="fill" values="#ffd500;#fdc500;#ffd500;#ffd500" dur="1.8s" repeatCount="indefinite"/></polygon></g><use href="#l0" x="200" y="160" /><use href="#l0" x="200" y="200" /><g transform="translate(200,240)"><use href="#b0" /><circle r="18" fill="#5c0099"><animate attributeType="XML" attributeName="fill" values="#5c0099;#3d0066;#5c0099;#5c0099" dur="1.0s" repeatCount="indefinite"/></circle></g><use href="#l0" x="200" y="280" /><g transform="translate(182,302)"><use href="#p0" /><polygon points="0,0 0,36 36,36 36,0" fill="#ffd500"><animate attributeType="XML" attributeName="fill" values="#ffd500;#fdc500;#ffd500;#ffd500" dur="1.8s" repeatCount="indefinite"/></polygon></g><g transform="translate(240,40)"><use href="#b0" /><circle r="18" fill="#5c0099"><animate attributeType="XML" attributeName="fill" values="#5c0099;#3d0066;#5c0099;#5c0099" dur="1.0s" repeatCount="indefinite"/></circle></g><use href="#d0" x="222" y="62" /><g transform="translate(240,120)"><use href="#b0" /><circle r="18" fill="#5c0099"><animate attributeType="XML" attributeName="fill" values="#5c0099;#3d0066;#5c0099;#5c0099" dur="1.0s" repeatCount="indefinite"/></circle></g><use href="#d0" x="222" y="142" /><g transform="translate(240,200)"><use href="#b0" /><circle r="18" fill="#5c0099"><animate attributeType="XML" attributeName="fill" values="#5c0099;#3d0066;#5c0099;#5c0099" dur="1.0s" repeatCount="indefinite"/></circle></g><use href="#d0" x="222" y="222" /><use href="#d0" x="222" y="262" /><use href="#d0" x="222" y="302" /><use href="#l0" x="280" y="40" /><g transform="translate(262,62)"><use href="#p0" /><polygon points="0,0 0,36 36,36 36,0" fill="#ffd500"><animate attributeType="XML" attributeName="fill" values="#ffd500;#fdc500;#ffd500;#ffd500" dur="1.6s" repeatCount="indefinite"/></polygon></g><g transform="translate(262,102)"><use href="#p0" /><polygon points="0,0 0,36 36,36 36,0" fill="#ffd500"><animate attributeType="XML" attributeName="fill" values="#ffd500;#fdc500;#ffd500;#ffd500" dur="1.2s" repeatCount="indefinite"/></polygon></g><use href="#d0" x="262" y="142" /><use href="#d0" x="262" y="182" /><g transform="translate(280,240)"><use href="#b0" /><circle r="18" fill="#5c0099"><animate attributeType="XML" attributeName="fill" values="#5c0099;#3d0066;#5c0099;#5c0099" dur="1.0s" repeatCount="indefinite"/></circle></g><use href="#l0" x="280" y="280" /><use href="#l0" x="280" y="320" /><use href="#d0" x="302" y="22" /><use href="#d0" x="302" y="62" /><use href="#d0" x="302" y="102" /><use href="#d0" x="302" y="142" /><use href="#d0" x="302" y="182" /><g transform="translate(302,222)"><use href="#p0" /><polygon points="0,0 0,36 36,36 36,0" fill="#ffd500"><animate attributeType="XML" attributeName="fill" values="#ffd500;#fdc500;#ffd500;#ffd500" dur="1.5s" repeatCount="indefinite"/></polygon></g><use href="#d0" x="302" y="262" /><use href="#d0" x="302" y="302" /></svg>