<svg width="360" height="360" xmlns="http://www.w3.org/2000/svg"><defs><animate id="aa" begin="0s"/><rect id="l0" width="36" height="36" fill="#ED254E"></rect><rect id="d0" width="36" height="36" fill="#ef4043"></rect></defs><rect width="100%" height="100%" fill="#FF3C38" /><g transform="translate(22,22)"><use href="#p0" /><polygon points="0,0 0,36 36,36 36,0" fill="#FF1053"><animate attributeType="XML" attributeName="fill" values="#FF1053;#ef4043;#FF1053;#FF1053" dur="2.0s" repeatCount="indefinite"/></polygon></g><g transform="translate(22,62)"><use href="#b0" /><polygon points="0,0 0,36 36,36 36,0" fill="#ff0059"><animate attributeType="XML" attributeName="fill" values="#ff0059;#ED254E;#ff0059;#ff0059" dur="2.0s" repeatCount="indefinite"/></polygon></g><use href="#d0" x="22" y="102" /><use href="#l0" x="22" y="142" /><use href="#d0" x="22" y="182" /><use href="#l0" x="22" y="222" /><use href="#d0" x="22" y="262" /><use href="#l0" x="22" y="302" /><g transform="translate(62,22)"><use href="#b0" /><polygon points="0,0 0,36 36,36 36,0" fill="#ff0059"><animate attributeType="XML" attributeName="fill" values="#ff0059;#ED254E;#ff0059;#ff0059" dur="2.0s" repeatCount="indefinite"/></polygon></g><use href="#l0" x="62" y="62" /><use href="#d0" x="62" y="102" /><use href="#l0" x="62" y="142" /><use href="#d0" x="62" y="182" /><use href="#l0" x="62" y="222" /><use href="#d0" x="62" y="262" /><g transform="translate(62,302)"><use href="#b0" /><polygon points="0,0 0,36 36,36 36,0" fill="#ff0059"><animate attributeType="XML" attributeName="fill" values="#ff0059;#ED254E;#ff0059;#ff0059" dur="2.7s" repeatCount="indefinite"/></polygon></g><use href="#d0" x="102" y="22" /><g transform="translate(102,62)"><use href="#b0" /><polygon points="0,0 0,36 36,36 36,0" fill="#ff0059"><animate attributeType="XML" attributeName="fill" values="#ff0059;#ED254E;#ff0059;#ff0059" dur="2.2s" repeatCount="indefinite"/></polygon></g><use href="#d0" x="102" y="102" /><use href="#l0" x="102" y="142" /><use href="#d0" x="102" y="182" /><use href="#l0" x="102" y="222" /><g transform="translate(102,262)"><use href="#p0" /><polygon points="0,0 0,36 36,36 36,0" fill="#FF1053"><animate attributeType="XML" attributeName="fill" values="#FF1053;#ef4043;#FF1053;#FF1053" dur="2.2s" repeatCount="indefinite"/></polygon></g><g transform="translate(102,302)"><use href="#b0" /><polygon points="0,0 0,36 36,36 36,0" fill="#ff0059"><animate attributeType="XML" attributeName="fill" values="#ff0059;#ED254E;#ff0059;#ff0059" dur="2.4s" repeatCount="indefinite"/></polygon></g><g transform="translate(142,22)"><use href="#p0" /><polygon points="0,0 0,36 36,36 36,0" fill="#FF1053"><animate attributeType="XML" attributeName="fill" values="#FF1053;#ef4043;#FF1053;#FF1053" dur="2.0s" repeatCount="indefinite"/></polygon></g><g transform="translate(142,62)"><use href="#b0" /><polygon points="0,0 0,36 36,36 36,0" fill="#ff0059"><animate attributeType="XML" attributeName="fill" values="#ff0059;#ED254E;#ff0059;#ff0059" dur="2.3s" repeatCount="indefinite"/></polygon></g><use href="#d0" x="142" y="102" /><use href="#l0" x="142" y="142" /><use href="#d0" x="142" y="182" /><use href="#l0" x="142" y="222" /><use href="#d0" x="142" y="262" /><use href="#d0" x="142" y="302" /><g transform="translate(182,22)"><use href="#p0" /><polygon points="0,0 0,36 36,36 36,0" fill="#FF1053"><animate attributeType="XML" attributeName="fill" values="#FF1053;#ef4043;#FF1053;#FF1053" dur="2.0s" repeatCount="indefinite"/></polygon></g><use href="#l0" x="182" y="62" /><use href="#d0" x="182" y="102" /><use href="#l0" x="182" y="142" /><use href="#d0" x="182" y="182" /><g transform="translate(182,222)"><use href="#b0" /><polygon points="0,0 0,36 36,36 36,0" fill="#ff0059"><animate attributeType="XML" attributeName="fill" values="#ff0059;#ED254E;#ff0059;#ff0059" dur="2.0s" repeatCount="indefinite"/></polygon></g><g transform="translate(182,262)"><use href="#p0" /><polygon points="0,0 0,36 36,36 36,0" fill="#FF1053"><animate attributeType="XML" attributeName="fill" values="#FF1053;#ef4043;#FF1053;#FF1053" dur="2.4s" repeatCount="indefinite"/></polygon></g><g transform="translate(182,302)"><use href="#p0" /><polygon points="0,0 0,36 36,36 36,0" fill="#FF1053"><animate attributeType="XML" attributeName="fill" values="#FF1053;#ef4043;#FF1053;#FF1053" dur="2.8s" repeatCount="indefinite"/></polygon></g><g transform="translate(222,22)"><use href="#p0" /><polygon points="0,0 0,36 36,36 36,0" fill="#FF1053"><animate attributeType="XML" attributeName="fill" values="#FF1053;#ef4043;#FF1053;#FF1053" dur="2.0s" repeatCount="indefinite"/></polygon></g><use href="#d0" x="222" y="62" /><use href="#d0" x="222" y="102" /><use href="#l0" x="222" y="142" /><use href="#d0" x="222" y="182" /><use href="#l0" x="222" y="222" /><g transform="translate(222,262)"><use href="#b0" /><polygon points="0,0 0,36 36,36 36,0" fill="#ff0059"><animate attributeType="XML" attributeName="fill" values="#ff0059;#ED254E;#ff0059;#ff0059" dur="2.0s" repeatCount="indefinite"/></polygon></g><use href="#d0" x="222" y="302" /><g transform="translate(262,22)"><use href="#b0" /><polygon points="0,0 0,36 36,36 36,0" fill="#ff0059"><animate attributeType="XML" attributeName="fill" values="#ff0059;#ED254E;#ff0059;#ff0059" dur="2.0s" repeatCount="indefinite"/></polygon></g><use href="#d0" x="262" y="62" /><g transform="translate(262,102)"><use href="#p0" /><polygon points="0,0 0,36 36,36 36,0" fill="#FF1053"><animate attributeType="XML" attributeName="fill" values="#FF1053;#ef4043;#FF1053;#FF1053" dur="2.2s" repeatCount="indefinite"/></polygon></g><use href="#l0" x="262" y="142" /><use href="#d0" x="262" y="182" /><use href="#l0" x="262" y="222" /><use href="#d0" x="262" y="262" /><use href="#d0" x="262" y="302" /><g transform="translate(302,22)"><use href="#p0" /><polygon points="0,0 0,36 36,36 36,0" fill="#FF1053"><animate attributeType="XML" attributeName="fill" values="#FF1053;#ef4043;#FF1053;#FF1053" dur="2.0s" repeatCount="indefinite"/></polygon></g><use href="#l0" x="302" y="62" /><use href="#d0" x="302" y="102" /><use href="#l0" x="302" y="142" /><use href="#d0" x="302" y="182" /><use href="#l0" x="302" y="222" /><use href="#d0" x="302" y="262" /><use href="#l0" x="302" y="302" /></svg>