<svg width="360" height="360" xmlns="http://www.w3.org/2000/svg"><defs><animate id="aa" begin="0s"/><rect id="l0" width="36" height="36" fill="#FF1053"></rect><circle id="d0" r="18" fill="#251101"></circle></defs><rect width="100%" height="100%" fill="#071E22" /><use href="#d0" x="40" y="40" /><use href="#d0" x="40" y="80" /><use href="#l0" x="22" y="102" /><use href="#d0" x="40" y="160" /><use href="#l0" x="22" y="182" /><use href="#d0" x="40" y="240" /><use href="#l0" x="22" y="262" /><use href="#d0" x="40" y="320" /><g transform="translate(80,40)"><use href="#p0" /><circle r="18" fill="#3D3522"><animate attributeType="XML" attributeName="fill" values="#3D3522;#251101;#3D3522;#3D3522" dur="2.0s" repeatCount="indefinite"/></circle></g><g transform="translate(62,62)"><use href="#b0" /><polygon points="0,0 0,36 36,36 36,0" fill="#5BC0EB"><animate attributeType="XML" attributeName="fill" values="#5BC0EB;#FF1053;#5BC0EB;#5BC0EB" dur="2.1s" repeatCount="indefinite"/></polygon></g><use href="#l0" x="62" y="102" /><use href="#d0" x="80" y="160" /><use href="#l0" x="62" y="182" /><use href="#d0" x="80" y="240" /><g transform="translate(80,280)"><use href="#p0" /><circle r="18" fill="#3D3522"><animate attributeType="XML" attributeName="fill" values="#3D3522;#251101;#3D3522;#3D3522" dur="2.6s" repeatCount="indefinite"/></circle></g><use href="#d0" x="80" y="320" /><use href="#d0" x="120" y="40" /><use href="#d0" x="120" y="80" /><g transform="translate(120,120)"><use href="#p0" /><circle r="18" fill="#3D3522"><animate attributeType="XML" attributeName="fill" values="#3D3522;#251101;#3D3522;#3D3522" dur="2.4s" repeatCount="indefinite"/></circle></g><use href="#d0" x="120" y="160" /><use href="#l0" x="102" y="182" /><use href="#d0" x="120" y="240" /><g transform="translate(102,262)"><use href="#b0" /><polygon points="0,0 0,36 36,36 36,0" fill="#5BC0EB"><animate attributeType="XML" attributeName="fill" values="#5BC0EB;#FF1053;#5BC0EB;#5BC0EB" dur="2.2s" repeatCount="indefinite"/></polygon></g><use href="#d0" x="120" y="320" /><g transform="translate(160,40)"><use href="#p0" /><circle r="18" fill="#3D3522"><animate attributeType="XML" attributeName="fill" values="#3D3522;#251101;#3D3522;#3D3522" dur="2.0s" repeatCount="indefinite"/></circle></g><g transform="translate(160,80)"><use href="#p0" /><circle r="18" fill="#3D3522"><animate attributeType="XML" attributeName="fill" values="#3D3522;#251101;#3D3522;#3D3522" dur="2.3s" repeatCount="indefinite"/></circle></g><g transform="translate(142,102)"><use href="#b0" /><polygon points="0,0 0,36 36,36 36,0" fill="#5BC0EB"><animate attributeType="XML" attributeName="fill" values="#5BC0EB;#FF1053;#5BC0EB;#5BC0EB" dur="2.6s" repeatCount="indefinite"/></polygon></g><use href="#l0" x="142" y="142" /><use href="#d0" x="160" y="200" /><g transform="translate(160,240)"><use href="#p0" /><circle r="18" fill="#3D3522"><animate attributeType="XML" attributeName="fill" values="#3D3522;#251101;#3D3522;#3D3522" dur="2.5s" repeatCount="indefinite"/></circle></g><g transform="translate(160,280)"><use href="#p0" /><circle r="18" fill="#3D3522"><animate attributeType="XML" attributeName="fill" values="#3D3522;#251101;#3D3522;#3D3522" dur="2.8s" repeatCount="indefinite"/></circle></g><use href="#l0" x="142" y="302" /><use href="#d0" x="200" y="40" /><use href="#l0" x="182" y="62" /><use href="#d0" x="200" y="120" /><use href="#l0" x="182" y="142" /><use href="#d0" x="200" y="200" /><g transform="translate(200,240)"><use href="#p0" /><circle r="18" fill="#3D3522"><animate attributeType="XML" attributeName="fill" values="#3D3522;#251101;#3D3522;#3D3522" dur="2.0s" repeatCount="indefinite"/></circle></g><use href="#d0" x="200" y="280" /><use href="#l0" x="182" y="302" /><g transform="translate(240,40)"><use href="#p0" /><circle r="18" fill="#3D3522"><animate attributeType="XML" attributeName="fill" values="#3D3522;#251101;#3D3522;#3D3522" dur="2.0s" repeatCount="indefinite"/></circle></g><use href="#d0" x="240" y="80" /><use href="#d0" x="240" y="120" /><use href="#l0" x="222" y="142" /><use href="#d0" x="240" y="200" /><g transform="translate(240,240)"><use href="#p0" /><circle r="18" fill="#3D3522"><animate attributeType="XML" attributeName="fill" values="#3D3522;#251101;#3D3522;#3D3522" dur="2.5s" repeatCount="indefinite"/></circle></g><g transform="translate(222,262)"><use href="#b0" /><polygon points="0,0 0,36 36,36 36,0" fill="#5BC0EB"><animate attributeType="XML" attributeName="fill" values="#5BC0EB;#FF1053;#5BC0EB;#5BC0EB" dur="2.0s" repeatCount="indefinite"/></polygon></g><use href="#l0" x="222" y="302" /><use href="#d0" x="280" y="40" /><use href="#l0" x="262" y="62" /><use href="#d0" x="280" y="120" /><use href="#l0" x="262" y="142" /><use href="#d0" x="280" y="200" /><use href="#l0" x="262" y="222" /><use href="#d0" x="280" y="280" /><use href="#d0" x="280" y="320" /><use href="#l0" x="302" y="22" /><use href="#l0" x="302" y="62" /><use href="#d0" x="320" y="120" /><use href="#l0" x="302" y="142" /><use href="#d0" x="320" y="200" /><use href="#l0" x="302" y="222" /><use href="#d0" x="320" y="280" /><use href="#l0" x="302" y="302" /></svg>