<svg width="360" height="360" xmlns="http://www.w3.org/2000/svg"><defs><animate id="aa" begin="0s"/><rect id="d0" width="36" height="36" fill="#2B9348"></rect><circle id="l0" r="18" fill="#FFFF3F"></circle></defs><rect width="100%" height="100%" fill="#80B918" /><use href="#d0" x="22" y="22" /><g transform="translate(22,62)"><use href="#p0" /><polygon points="0,0 0,36 36,36 36,0" fill="#55A630"><animate attributeType="XML" attributeName="fill" values="#55A630;#2B9348;#55A630;#55A630" dur="1.0s" repeatCount="indefinite"/></polygon></g><g transform="translate(40,120)"><use href="#b0" /><circle r="18" fill="#EEEF20"><animate attributeType="XML" attributeName="fill" values="#EEEF20;#FFFF3F;#EEEF20;#EEEF20" dur="1.0s" repeatCount="indefinite"/></circle></g><use href="#l0" x="40" y="160" /><use href="#d0" x="22" y="182" /><g transform="translate(40,240)"><use href="#b0" /><circle r="18" fill="#EEEF20"><animate attributeType="XML" attributeName="fill" values="#EEEF20;#FFFF3F;#EEEF20;#EEEF20" dur="1.0s" repeatCount="indefinite"/></circle></g><use href="#d0" x="22" y="262" /><use href="#l0" x="40" y="320" /><g transform="translate(80,40)"><use href="#b0" /><circle r="18" fill="#EEEF20"><animate attributeType="XML" attributeName="fill" values="#EEEF20;#FFFF3F;#EEEF20;#EEEF20" dur="1.0s" repeatCount="indefinite"/></circle></g><use href="#d0" x="62" y="62" /><use href="#d0" x="62" y="102" /><g transform="translate(62,142)"><use href="#p0" /><polygon points="0,0 0,36 36,36 36,0" fill="#55A630"><animate attributeType="XML" attributeName="fill" values="#55A630;#2B9348;#55A630;#55A630" dur="1.3s" repeatCount="indefinite"/></polygon></g><use href="#d0" x="62" y="182" /><g transform="translate(80,240)"><use href="#b0" /><circle r="18" fill="#EEEF20"><animate attributeType="XML" attributeName="fill" values="#EEEF20;#FFFF3F;#EEEF20;#EEEF20" dur="1.5s" repeatCount="indefinite"/></circle></g><g transform="translate(62,262)"><use href="#p0" /><polygon points="0,0 0,36 36,36 36,0" fill="#55A630"><animate attributeType="XML" attributeName="fill" values="#55A630;#2B9348;#55A630;#55A630" dur="1.6s" repeatCount="indefinite"/></polygon></g><use href="#l0" x="80" y="320" /><use href="#d0" x="102" y="22" /><use href="#d0" x="102" y="62" /><use href="#d0" x="102" y="102" /><g transform="translate(102,142)"><use href="#p0" /><polygon points="0,0 0,36 36,36 36,0" fill="#55A630"><animate attributeType="XML" attributeName="fill" values="#55A630;#2B9348;#55A630;#55A630" dur="1.6s" repeatCount="indefinite"/></polygon></g><use href="#l0" x="120" y="200" /><g transform="translate(120,240)"><use href="#b0" /><circle r="18" fill="#EEEF20"><animate attributeType="XML" attributeName="fill" values="#EEEF20;#FFFF3F;#EEEF20;#EEEF20" dur="1.0s" repeatCount="indefinite"/></circle></g><use href="#d0" x="102" y="262" /><use href="#l0" x="120" y="320" /><use href="#d0" x="142" y="22" /><use href="#l0" x="160" y="80" /><use href="#d0" x="142" y="102" /><use href="#d0" x="142" y="142" /><use href="#d0" x="142" y="182" /><g transform="translate(142,222)"><use href="#p0" /><polygon points="0,0 0,36 36,36 36,0" fill="#55A630"><animate attributeType="XML" attributeName="fill" values="#55A630;#2B9348;#55A630;#55A630" dur="1.5s" repeatCount="indefinite"/></polygon></g><use href="#d0" x="142" y="262" /><use href="#l0" x="160" y="320" /><use href="#d0" x="182" y="22" /><use href="#l0" x="200" y="80" /><use href="#l0" x="200" y="120" /><use href="#l0" x="200" y="160" /><use href="#l0" x="200" y="200" /><g transform="translate(182,222)"><use href="#p0" /><polygon points="0,0 0,36 36,36 36,0" fill="#55A630"><animate attributeType="XML" attributeName="fill" values="#55A630;#2B9348;#55A630;#55A630" dur="1.0s" repeatCount="indefinite"/></polygon></g><g transform="translate(200,280)"><use href="#b0" /><circle r="18" fill="#EEEF20"><animate attributeType="XML" attributeName="fill" values="#EEEF20;#FFFF3F;#EEEF20;#EEEF20" dur="1.4s" repeatCount="indefinite"/></circle></g><use href="#l0" x="200" y="320" /><g transform="translate(240,40)"><use href="#b0" /><circle r="18" fill="#EEEF20"><animate attributeType="XML" attributeName="fill" values="#EEEF20;#FFFF3F;#EEEF20;#EEEF20" dur="1.0s" repeatCount="indefinite"/></circle></g><use href="#d0" x="222" y="62" /><use href="#d0" x="222" y="102" /><use href="#d0" x="222" y="142" /><use href="#d0" x="222" y="182" /><use href="#d0" x="222" y="222" /><use href="#d0" x="222" y="262" /><g transform="translate(222,302)"><use href="#p0" /><polygon points="0,0 0,36 36,36 36,0" fill="#55A630"><animate attributeType="XML" attributeName="fill" values="#55A630;#2B9348;#55A630;#55A630" dur="1.5s" repeatCount="indefinite"/></polygon></g><g transform="translate(280,40)"><use href="#b0" /><circle r="18" fill="#EEEF20"><animate attributeType="XML" attributeName="fill" values="#EEEF20;#FFFF3F;#EEEF20;#EEEF20" dur="1.0s" repeatCount="indefinite"/></circle></g><use href="#d0" x="262" y="62" /><use href="#l0" x="280" y="120" /><use href="#l0" x="280" y="160" /><use href="#l0" x="280" y="200" /><use href="#d0" x="262" y="222" /><use href="#l0" x="280" y="280" /><use href="#d0" x="262" y="302" /><use href="#d0" x="302" y="22" /><use href="#l0" x="320" y="80" /><use href="#d0" x="302" y="102" /><use href="#d0" x="302" y="142" /><g transform="translate(302,182)"><use href="#p0" /><polygon points="0,0 0,36 36,36 36,0" fill="#55A630"><animate attributeType="XML" attributeName="fill" values="#55A630;#2B9348;#55A630;#55A630" dur="1.8s" repeatCount="indefinite"/></polygon></g><use href="#l0" x="320" y="240" /><use href="#d0" x="302" y="262" /><use href="#l0" x="320" y="320" /></svg>