<svg width="360" height="360" xmlns="http://www.w3.org/2000/svg"><defs><animate id="aa" begin="0s"/><rect id="l0" width="36" height="36" fill="#fbff12"></rect><rect id="d0" width="36" height="36" fill="#41ead4"></rect></defs><rect width="100%" height="100%" fill="#ff206e" /><use href="#d0" x="22" y="22" /><use href="#d0" x="22" y="62" /><g transform="translate(22,102)"><use href="#b0" /><polygon points="0,0 0,36 36,36 36,0" fill="#9EF573"><animate attributeType="XML" attributeName="fill" values="#9EF573;#fbff12;#9EF573;#9EF573" dur="1.0s" repeatCount="indefinite"/></polygon></g><g transform="translate(22,142)"><use href="#p0" /><polygon points="0,0 0,36 36,36 36,0" fill="#FD9040"><animate attributeType="XML" attributeName="fill" values="#FD9040;#41ead4;#FD9040;#FD9040" dur="1.0s" repeatCount="indefinite"/></polygon></g><use href="#l0" x="22" y="182" /><g transform="translate(22,222)"><use href="#b0" /><polygon points="0,0 0,36 36,36 36,0" fill="#9EF573"><animate attributeType="XML" attributeName="fill" values="#9EF573;#fbff12;#9EF573;#9EF573" dur="1.0s" repeatCount="indefinite"/></polygon></g><g transform="translate(22,262)"><use href="#b0" /><polygon points="0,0 0,36 36,36 36,0" fill="#9EF573"><animate attributeType="XML" attributeName="fill" values="#9EF573;#fbff12;#9EF573;#9EF573" dur="1.0s" repeatCount="indefinite"/></polygon></g><g transform="translate(22,302)"><use href="#b0" /><polygon points="0,0 0,36 36,36 36,0" fill="#9EF573"><animate attributeType="XML" attributeName="fill" values="#9EF573;#fbff12;#9EF573;#9EF573" dur="1.0s" repeatCount="indefinite"/></polygon></g><use href="#l0" x="62" y="22" /><use href="#d0" x="62" y="62" /><use href="#l0" x="62" y="102" /><use href="#d0" x="62" y="142" /><use href="#d0" x="62" y="182" /><use href="#d0" x="62" y="222" /><use href="#d0" x="62" y="262" /><g transform="translate(62,302)"><use href="#p0" /><polygon points="0,0 0,36 36,36 36,0" fill="#FD9040"><animate attributeType="XML" attributeName="fill" values="#FD9040;#41ead4;#FD9040;#FD9040" dur="1.7s" repeatCount="indefinite"/></polygon></g><use href="#d0" x="102" y="22" /><use href="#d0" x="102" y="62" /><g transform="translate(102,102)"><use href="#p0" /><polygon points="0,0 0,36 36,36 36,0" fill="#FD9040"><animate attributeType="XML" attributeName="fill" values="#FD9040;#41ead4;#FD9040;#FD9040" dur="1.4s" repeatCount="indefinite"/></polygon></g><use href="#d0" x="102" y="142" /><use href="#d0" x="102" y="182" /><g transform="translate(102,222)"><use href="#b0" /><polygon points="0,0 0,36 36,36 36,0" fill="#9EF573"><animate attributeType="XML" attributeName="fill" values="#9EF573;#fbff12;#9EF573;#9EF573" dur="1.0s" repeatCount="indefinite"/></polygon></g><use href="#l0" x="102" y="262" /><g transform="translate(102,302)"><use href="#b0" /><polygon points="0,0 0,36 36,36 36,0" fill="#9EF573"><animate attributeType="XML" attributeName="fill" values="#9EF573;#fbff12;#9EF573;#9EF573" dur="1.4s" repeatCount="indefinite"/></polygon></g><use href="#d0" x="142" y="22" /><use href="#l0" x="142" y="62" /><use href="#l0" x="142" y="102" /><use href="#l0" x="142" y="142" /><use href="#l0" x="142" y="182" /><use href="#d0" x="142" y="222" /><g transform="translate(142,262)"><use href="#p0" /><polygon points="0,0 0,36 36,36 36,0" fill="#FD9040"><animate attributeType="XML" attributeName="fill" values="#FD9040;#41ead4;#FD9040;#FD9040" dur="1.8s" repeatCount="indefinite"/></polygon></g><use href="#d0" x="142" y="302" /><g transform="translate(182,22)"><use href="#p0" /><polygon points="0,0 0,36 36,36 36,0" fill="#FD9040"><animate attributeType="XML" attributeName="fill" values="#FD9040;#41ead4;#FD9040;#FD9040" dur="1.0s" repeatCount="indefinite"/></polygon></g><use href="#d0" x="182" y="62" /><use href="#d0" x="182" y="102" /><use href="#d0" x="182" y="142" /><use href="#d0" x="182" y="182" /><use href="#l0" x="182" y="222" /><use href="#d0" x="182" y="262" /><g transform="translate(182,302)"><use href="#p0" /><polygon points="0,0 0,36 36,36 36,0" fill="#FD9040"><animate attributeType="XML" attributeName="fill" values="#FD9040;#41ead4;#FD9040;#FD9040" dur="1.8s" repeatCount="indefinite"/></polygon></g><use href="#d0" x="222" y="22" /><g transform="translate(222,62)"><use href="#p0" /><polygon points="0,0 0,36 36,36 36,0" fill="#FD9040"><animate attributeType="XML" attributeName="fill" values="#FD9040;#41ead4;#FD9040;#FD9040" dur="1.5s" repeatCount="indefinite"/></polygon></g><g transform="translate(222,102)"><use href="#p0" /><polygon points="0,0 0,36 36,36 36,0" fill="#FD9040"><animate attributeType="XML" attributeName="fill" values="#FD9040;#41ead4;#FD9040;#FD9040" dur="1.0s" repeatCount="indefinite"/></polygon></g><g transform="translate(222,142)"><use href="#p0" /><polygon points="0,0 0,36 36,36 36,0" fill="#FD9040"><animate attributeType="XML" attributeName="fill" values="#FD9040;#41ead4;#FD9040;#FD9040" dur="1.5s" repeatCount="indefinite"/></polygon></g><use href="#l0" x="222" y="182" /><use href="#l0" x="222" y="222" /><use href="#d0" x="222" y="262" /><g transform="translate(222,302)"><use href="#p0" /><polygon points="0,0 0,36 36,36 36,0" fill="#FD9040"><animate attributeType="XML" attributeName="fill" values="#FD9040;#41ead4;#FD9040;#FD9040" dur="1.5s" repeatCount="indefinite"/></polygon></g><use href="#d0" x="262" y="22" /><use href="#d0" x="262" y="62" /><use href="#d0" x="262" y="102" /><g transform="translate(262,142)"><use href="#b0" /><polygon points="0,0 0,36 36,36 36,0" fill="#9EF573"><animate attributeType="XML" attributeName="fill" values="#9EF573;#fbff12;#9EF573;#9EF573" dur="1.8s" repeatCount="indefinite"/></polygon></g><use href="#d0" x="262" y="182" /><use href="#d0" x="262" y="222" /><use href="#l0" x="262" y="262" /><use href="#d0" x="262" y="302" /><use href="#d0" x="302" y="22" /><use href="#d0" x="302" y="62" /><g transform="translate(302,102)"><use href="#b0" /><polygon points="0,0 0,36 36,36 36,0" fill="#9EF573"><animate attributeType="XML" attributeName="fill" values="#9EF573;#fbff12;#9EF573;#9EF573" dur="1.4s" repeatCount="indefinite"/></polygon></g><g transform="translate(302,142)"><use href="#p0" /><polygon points="0,0 0,36 36,36 36,0" fill="#FD9040"><animate attributeType="XML" attributeName="fill" values="#FD9040;#41ead4;#FD9040;#FD9040" dur="1.1s" repeatCount="indefinite"/></polygon></g><g transform="translate(302,182)"><use href="#p0" /><polygon points="0,0 0,36 36,36 36,0" fill="#FD9040"><animate attributeType="XML" attributeName="fill" values="#FD9040;#41ead4;#FD9040;#FD9040" dur="1.8s" repeatCount="indefinite"/></polygon></g><g transform="translate(302,222)"><use href="#p0" /><polygon points="0,0 0,36 36,36 36,0" fill="#FD9040"><animate attributeType="XML" attributeName="fill" values="#FD9040;#41ead4;#FD9040;#FD9040" dur="1.5s" repeatCount="indefinite"/></polygon></g><use href="#d0" x="302" y="262" /><g transform="translate(302,302)"><use href="#b0" /><polygon points="0,0 0,36 36,36 36,0" fill="#9EF573"><animate attributeType="XML" attributeName="fill" values="#9EF573;#fbff12;#9EF573;#9EF573" dur="1.9s" repeatCount="indefinite"/></polygon></g></svg>