<svg width="360" height="360" xmlns="http://www.w3.org/2000/svg"><defs><animate id="aa" begin="0s"/><rect id="d0" width="36" height="36" fill="#FFC6FF"></rect><circle id="l0" r="18" fill="#FDFFB6"></circle></defs><rect width="100%" height="100%" fill="#CAFFBF" /><g transform="translate(40,40)"><use href="#b0" /><circle r="18" fill="#CAFFBF"><animate attributeType="XML" attributeName="fill" values="#CAFFBF;#FDFFB6;#CAFFBF;#CAFFBF" dur="1s" begin="aa.begin +1s" repeatCount="indefinite"/></circle></g><g transform="translate(40,80)"><use href="#b0" /><circle r="18" fill="#CAFFBF"><animate attributeType="XML" attributeName="fill" values="#CAFFBF;#FDFFB6;#CAFFBF;#CAFFBF" dur="1s" begin="aa.begin +1.5s" repeatCount="indefinite"/></circle></g><g transform="translate(22,102)"><use href="#p0" /><polygon points="0,0 0,36 36,36 36,0" fill="#BDB2FF"><animate attributeType="XML" attributeName="fill" values="#BDB2FF;#FFC6FF;#BDB2FF;#BDB2FF" dur="1s" begin="aa.begin +2s" repeatCount="indefinite"/></polygon></g><use href="#l0" x="40" y="160" /><g transform="translate(22,182)"><use href="#p0" /><polygon points="0,0 0,36 36,36 36,0" fill="#BDB2FF"><animate attributeType="XML" attributeName="fill" values="#BDB2FF;#FFC6FF;#BDB2FF;#BDB2FF" dur="1s" begin="aa.begin +s" repeatCount="indefinite"/></polygon></g><use href="#l0" x="40" y="240" /><g transform="translate(22,262)"><use href="#p0" /><polygon points="0,0 0,36 36,36 36,0" fill="#BDB2FF"><animate attributeType="XML" attributeName="fill" values="#BDB2FF;#FFC6FF;#BDB2FF;#BDB2FF" dur="1s" begin="aa.begin +2.5s" repeatCount="indefinite"/></polygon></g><use href="#l0" x="40" y="320" /><g transform="translate(80,40)"><use href="#b0" /><circle r="18" fill="#CAFFBF"><animate attributeType="XML" attributeName="fill" values="#CAFFBF;#FDFFB6;#CAFFBF;#CAFFBF" dur="1s" begin="aa.begin +3s" repeatCount="indefinite"/></circle></g><g transform="translate(80,80)"><use href="#b0" /><circle r="18" fill="#CAFFBF"><animate attributeType="XML" attributeName="fill" values="#CAFFBF;#FDFFB6;#CAFFBF;#CAFFBF" dur="1s" begin="aa.begin +3.5s" repeatCount="indefinite"/></circle></g><use href="#d0" x="62" y="102" /><g transform="translate(62,142)"><use href="#p0" /><polygon points="0,0 0,36 36,36 36,0" fill="#BDB2FF"><animate attributeType="XML" attributeName="fill" values="#BDB2FF;#FFC6FF;#BDB2FF;#BDB2FF" dur="1s" begin="aa.begin +4s" repeatCount="indefinite"/></polygon></g><g transform="translate(80,200)"><use href="#b0" /><circle r="18" fill="#CAFFBF"><animate attributeType="XML" attributeName="fill" values="#CAFFBF;#FDFFB6;#CAFFBF;#CAFFBF" dur="1s" begin="aa.begin +4.5s" repeatCount="indefinite"/></circle></g><use href="#l0" x="80" y="240" /><g transform="translate(80,280)"><use href="#b0" /><circle r="18" fill="#CAFFBF"><animate attributeType="XML" attributeName="fill" values="#CAFFBF;#FDFFB6;#CAFFBF;#CAFFBF" dur="1s" begin="aa.begin +5s" repeatCount="indefinite"/></circle></g><use href="#d0" x="62" y="302" /><use href="#d0" x="102" y="22" /><use href="#d0" x="102" y="62" /><use href="#d0" x="102" y="102" /><g transform="translate(120,160)"><use href="#b0" /><circle r="18" fill="#CAFFBF"><animate attributeType="XML" attributeName="fill" values="#CAFFBF;#FDFFB6;#CAFFBF;#CAFFBF" dur="1s" begin="aa.begin +5.5s" repeatCount="indefinite"/></circle></g><use href="#d0" x="102" y="182" /><use href="#d0" x="102" y="222" /><use href="#d0" x="102" y="262" /><use href="#d0" x="102" y="302" /><g transform="translate(142,22)"><use href="#p0" /><polygon points="0,0 0,36 36,36 36,0" fill="#BDB2FF"><animate attributeType="XML" attributeName="fill" values="#BDB2FF;#FFC6FF;#BDB2FF;#BDB2FF" dur="1s" begin="aa.begin +6s" repeatCount="indefinite"/></polygon></g><use href="#d0" x="142" y="62" /><use href="#l0" x="160" y="120" /><use href="#d0" x="142" y="142" /><use href="#l0" x="160" y="200" /><use href="#l0" x="160" y="240" /><g transform="translate(160,280)"><use href="#b0" /><circle r="18" fill="#CAFFBF"><animate attributeType="XML" attributeName="fill" values="#CAFFBF;#FDFFB6;#CAFFBF;#CAFFBF" dur="1s" begin="aa.begin +6.5s" repeatCount="indefinite"/></circle></g><g transform="translate(142,302)"><use href="#p0" /><polygon points="0,0 0,36 36,36 36,0" fill="#BDB2FF"><animate attributeType="XML" attributeName="fill" values="#BDB2FF;#FFC6FF;#BDB2FF;#BDB2FF" dur="1s" begin="aa.begin +7s" repeatCount="indefinite"/></polygon></g><use href="#d0" x="182" y="22" /><use href="#d0" x="182" y="62" /><g transform="translate(182,102)"><use href="#p0" /><polygon points="0,0 0,36 36,36 36,0" fill="#BDB2FF"><animate attributeType="XML" attributeName="fill" values="#BDB2FF;#FFC6FF;#BDB2FF;#BDB2FF" dur="1s" begin="aa.begin +7.5s" repeatCount="indefinite"/></polygon></g><use href="#d0" x="182" y="142" /><use href="#d0" x="182" y="182" /><g transform="translate(182,222)"><use href="#p0" /><polygon points="0,0 0,36 36,36 36,0" fill="#BDB2FF"><animate attributeType="XML" attributeName="fill" values="#BDB2FF;#FFC6FF;#BDB2FF;#BDB2FF" dur="1s" begin="aa.begin +8s" repeatCount="indefinite"/></polygon></g><use href="#d0" x="182" y="262" /><g transform="translate(200,320)"><use href="#b0" /><circle r="18" fill="#CAFFBF"><animate attributeType="XML" attributeName="fill" values="#CAFFBF;#FDFFB6;#CAFFBF;#CAFFBF" dur="1s" begin="aa.begin +8.5s" repeatCount="indefinite"/></circle></g><use href="#d0" x="222" y="22" /><use href="#l0" x="240" y="80" /><use href="#l0" x="240" y="120" /><use href="#l0" x="240" y="160" /><g transform="translate(240,200)"><use href="#b0" /><circle r="18" fill="#CAFFBF"><animate attributeType="XML" attributeName="fill" values="#CAFFBF;#FDFFB6;#CAFFBF;#CAFFBF" dur="1s" begin="aa.begin +9s" repeatCount="indefinite"/></circle></g><use href="#l0" x="240" y="240" /><use href="#l0" x="240" y="280" /><use href="#l0" x="240" y="320" /><use href="#d0" x="262" y="22" /><use href="#l0" x="280" y="80" /><use href="#d0" x="262" y="102" /><use href="#d0" x="262" y="142" /><use href="#l0" x="280" y="200" /><use href="#d0" x="262" y="222" /><use href="#d0" x="262" y="262" /><g transform="translate(280,320)"><use href="#b0" /><circle r="18" fill="#CAFFBF"><animate attributeType="XML" attributeName="fill" values="#CAFFBF;#FDFFB6;#CAFFBF;#CAFFBF" dur="1s" begin="aa.begin +9.5s" repeatCount="indefinite"/></circle></g><use href="#d0" x="302" y="22" /><use href="#l0" x="320" y="80" /><use href="#d0" x="302" y="102" /><use href="#d0" x="302" y="142" /><g transform="translate(320,200)"><use href="#b0" /><circle r="18" fill="#CAFFBF"><animate attributeType="XML" attributeName="fill" values="#CAFFBF;#FDFFB6;#CAFFBF;#CAFFBF" dur="1s" begin="aa.begin +10s" repeatCount="indefinite"/></circle></g><g transform="translate(320,240)"><use href="#b0" /><circle r="18" fill="#CAFFBF"><animate attributeType="XML" attributeName="fill" values="#CAFFBF;#FDFFB6;#CAFFBF;#CAFFBF" dur="1s" begin="aa.begin +10.5s" repeatCount="indefinite"/></circle></g><use href="#d0" x="302" y="262" /><use href="#l0" x="320" y="320" /></svg>