<svg width="360" height="360" xmlns="http://www.w3.org/2000/svg"><defs><animate id="aa" begin="0s"/><rect id="d0" width="36" height="36" fill="#B9D6F2"></rect><circle id="l0" r="18" fill="#003559"></circle></defs><rect width="100%" height="100%" fill="#061A40" /><use href="#d0" x="22" y="22" /><use href="#d0" x="22" y="62" /><use href="#d0" x="22" y="102" /><g transform="translate(22,142)"><use href="#p0" /><polygon points="0,0 0,36 36,36 36,0" fill="#003559"><animate attributeType="XML" attributeName="fill" values="#003559;#B9D6F2;#003559;#003559" dur="1s" begin="aa.begin +1s" repeatCount="indefinite"/></polygon></g><use href="#d0" x="22" y="182" /><use href="#l0" x="40" y="240" /><use href="#d0" x="22" y="262" /><g transform="translate(22,302)"><use href="#p0" /><polygon points="0,0 0,36 36,36 36,0" fill="#003559"><animate attributeType="XML" attributeName="fill" values="#003559;#B9D6F2;#003559;#003559" dur="1s" begin="aa.begin +1.5s" repeatCount="indefinite"/></polygon></g><use href="#l0" x="80" y="40" /><use href="#d0" x="62" y="62" /><use href="#l0" x="80" y="120" /><use href="#l0" x="80" y="160" /><use href="#d0" x="62" y="182" /><use href="#l0" x="80" y="240" /><use href="#d0" x="62" y="262" /><use href="#l0" x="80" y="320" /><use href="#d0" x="102" y="22" /><use href="#d0" x="102" y="62" /><use href="#d0" x="102" y="102" /><use href="#l0" x="120" y="160" /><use href="#d0" x="102" y="182" /><use href="#l0" x="120" y="240" /><use href="#d0" x="102" y="262" /><use href="#l0" x="120" y="320" /><use href="#d0" x="142" y="22" /><use href="#d0" x="142" y="62" /><g transform="translate(160,120)"><use href="#b0" /><circle r="18" fill="#006DAA"><animate attributeType="XML" attributeName="fill" values="#006DAA;#003559;#006DAA;#006DAA" dur="1s" begin="aa.begin +2s" repeatCount="indefinite"/></circle></g><use href="#l0" x="160" y="160" /><use href="#d0" x="142" y="182" /><use href="#l0" x="160" y="240" /><use href="#d0" x="142" y="262" /><use href="#l0" x="160" y="320" /><g transform="translate(182,22)"><use href="#p0" /><polygon points="0,0 0,36 36,36 36,0" fill="#003559"><animate attributeType="XML" attributeName="fill" values="#003559;#B9D6F2;#003559;#003559" dur="1s" begin="aa.begin +s" repeatCount="indefinite"/></polygon></g><g transform="translate(200,80)"><use href="#b0" /><circle r="18" fill="#006DAA"><animate attributeType="XML" attributeName="fill" values="#006DAA;#003559;#006DAA;#006DAA" dur="1s" begin="aa.begin +2.5s" repeatCount="indefinite"/></circle></g><use href="#d0" x="182" y="102" /><use href="#l0" x="200" y="160" /><use href="#d0" x="182" y="182" /><use href="#l0" x="200" y="240" /><use href="#d0" x="182" y="262" /><use href="#l0" x="200" y="320" /><g transform="translate(222,22)"><use href="#p0" /><polygon points="0,0 0,36 36,36 36,0" fill="#003559"><animate attributeType="XML" attributeName="fill" values="#003559;#B9D6F2;#003559;#003559" dur="1s" begin="aa.begin +3s" repeatCount="indefinite"/></polygon></g><g transform="translate(222,62)"><use href="#p0" /><polygon points="0,0 0,36 36,36 36,0" fill="#003559"><animate attributeType="XML" attributeName="fill" values="#003559;#B9D6F2;#003559;#003559" dur="1s" begin="aa.begin +3.5s" repeatCount="indefinite"/></polygon></g><use href="#d0" x="222" y="102" /><use href="#l0" x="240" y="160" /><use href="#d0" x="222" y="182" /><use href="#l0" x="240" y="240" /><use href="#d0" x="222" y="262" /><use href="#l0" x="240" y="320" /><use href="#d0" x="262" y="22" /><use href="#d0" x="262" y="62" /><use href="#d0" x="262" y="102" /><use href="#l0" x="280" y="160" /><use href="#d0" x="262" y="182" /><use href="#l0" x="280" y="240" /><use href="#d0" x="262" y="262" /><use href="#l0" x="280" y="320" /><use href="#l0" x="320" y="40" /><use href="#d0" x="302" y="62" /><use href="#l0" x="320" y="120" /><use href="#l0" x="320" y="160" /><use href="#d0" x="302" y="182" /><use href="#l0" x="320" y="240" /><use href="#d0" x="302" y="262" /><use href="#l0" x="320" y="320" /></svg>