<svg width="360" height="360" xmlns="http://www.w3.org/2000/svg"><defs><animate id="aa" begin="0s"/><rect id="l0" width="36" height="36" fill="#003559"></rect><circle id="d0" r="18" fill="#B9D6F2"></circle></defs><rect width="100%" height="100%" fill="#061A40" /><use href="#l0" x="22" y="22" /><use href="#d0" x="40" y="80" /><use href="#l0" x="22" y="102" /><use href="#d0" x="40" y="160" /><g transform="translate(22,182)"><use href="#b0" /><polygon points="0,0 0,36 36,36 36,0" fill="#006DAA"><animate attributeType="XML" attributeName="fill" values="#006DAA;#003559;#006DAA;#006DAA" dur="2.0s" repeatCount="indefinite"/></polygon></g><use href="#d0" x="40" y="240" /><use href="#l0" x="22" y="262" /><use href="#d0" x="40" y="320" /><use href="#l0" x="62" y="22" /><use href="#d0" x="80" y="80" /><use href="#l0" x="62" y="102" /><g transform="translate(80,160)"><use href="#p0" /><circle r="18" fill="#BFD7EA"><animate attributeType="XML" attributeName="fill" values="#BFD7EA;#B9D6F2;#BFD7EA;#BFD7EA" dur="2.3s" repeatCount="indefinite"/></circle></g><g transform="translate(80,200)"><use href="#p0" /><circle r="18" fill="#BFD7EA"><animate attributeType="XML" attributeName="fill" values="#BFD7EA;#B9D6F2;#BFD7EA;#BFD7EA" dur="2.4s" repeatCount="indefinite"/></circle></g><use href="#d0" x="80" y="240" /><use href="#l0" x="62" y="262" /><use href="#d0" x="80" y="320" /><use href="#l0" x="102" y="22" /><use href="#d0" x="120" y="80" /><use href="#l0" x="102" y="102" /><g transform="translate(102,142)"><use href="#b0" /><polygon points="0,0 0,36 36,36 36,0" fill="#006DAA"><animate attributeType="XML" attributeName="fill" values="#006DAA;#003559;#006DAA;#006DAA" dur="2.6s" repeatCount="indefinite"/></polygon></g><use href="#d0" x="120" y="200" /><g transform="translate(102,222)"><use href="#b0" /><polygon points="0,0 0,36 36,36 36,0" fill="#006DAA"><animate attributeType="XML" attributeName="fill" values="#006DAA;#003559;#006DAA;#006DAA" dur="2.0s" repeatCount="indefinite"/></polygon></g><use href="#l0" x="102" y="262" /><use href="#d0" x="120" y="320" /><use href="#l0" x="142" y="22" /><use href="#d0" x="160" y="80" /><use href="#l0" x="142" y="102" /><use href="#d0" x="160" y="160" /><g transform="translate(142,182)"><use href="#b0" /><polygon points="0,0 0,36 36,36 36,0" fill="#006DAA"><animate attributeType="XML" attributeName="fill" values="#006DAA;#003559;#006DAA;#006DAA" dur="2.2s" repeatCount="indefinite"/></polygon></g><use href="#d0" x="160" y="240" /><g transform="translate(160,280)"><use href="#p0" /><circle r="18" fill="#BFD7EA"><animate attributeType="XML" attributeName="fill" values="#BFD7EA;#B9D6F2;#BFD7EA;#BFD7EA" dur="2.8s" repeatCount="indefinite"/></circle></g><use href="#d0" x="160" y="320" /><use href="#l0" x="182" y="22" /><use href="#d0" x="200" y="80" /><use href="#l0" x="182" y="102" /><use href="#d0" x="200" y="160" /><g transform="translate(182,182)"><use href="#b0" /><polygon points="0,0 0,36 36,36 36,0" fill="#006DAA"><animate attributeType="XML" attributeName="fill" values="#006DAA;#003559;#006DAA;#006DAA" dur="2.6s" repeatCount="indefinite"/></polygon></g><g transform="translate(200,240)"><use href="#p0" /><circle r="18" fill="#BFD7EA"><animate attributeType="XML" attributeName="fill" values="#BFD7EA;#B9D6F2;#BFD7EA;#BFD7EA" dur="2.0s" repeatCount="indefinite"/></circle></g><g transform="translate(200,280)"><use href="#p0" /><circle r="18" fill="#BFD7EA"><animate attributeType="XML" attributeName="fill" values="#BFD7EA;#B9D6F2;#BFD7EA;#BFD7EA" dur="2.4s" repeatCount="indefinite"/></circle></g><use href="#d0" x="200" y="320" /><use href="#l0" x="222" y="22" /><use href="#d0" x="240" y="80" /><use href="#l0" x="222" y="102" /><use href="#d0" x="240" y="160" /><use href="#l0" x="222" y="182" /><use href="#d0" x="240" y="240" /><g transform="translate(240,280)"><use href="#p0" /><circle r="18" fill="#BFD7EA"><animate attributeType="XML" attributeName="fill" values="#BFD7EA;#B9D6F2;#BFD7EA;#BFD7EA" dur="2.0s" repeatCount="indefinite"/></circle></g><g transform="translate(222,302)"><use href="#b0" /><polygon points="0,0 0,36 36,36 36,0" fill="#006DAA"><animate attributeType="XML" attributeName="fill" values="#006DAA;#003559;#006DAA;#006DAA" dur="2.5s" repeatCount="indefinite"/></polygon></g><use href="#l0" x="262" y="22" /><use href="#d0" x="280" y="80" /><use href="#l0" x="262" y="102" /><use href="#d0" x="280" y="160" /><use href="#l0" x="262" y="182" /><use href="#d0" x="280" y="240" /><g transform="translate(262,262)"><use href="#b0" /><polygon points="0,0 0,36 36,36 36,0" fill="#006DAA"><animate attributeType="XML" attributeName="fill" values="#006DAA;#003559;#006DAA;#006DAA" dur="2.6s" repeatCount="indefinite"/></polygon></g><use href="#d0" x="280" y="320" /><use href="#l0" x="302" y="22" /><use href="#d0" x="320" y="80" /><use href="#l0" x="302" y="102" /><use href="#d0" x="320" y="160" /><g transform="translate(302,182)"><use href="#b0" /><polygon points="0,0 0,36 36,36 36,0" fill="#006DAA"><animate attributeType="XML" attributeName="fill" values="#006DAA;#003559;#006DAA;#006DAA" dur="2.8s" repeatCount="indefinite"/></polygon></g><g transform="translate(320,240)"><use href="#p0" /><circle r="18" fill="#BFD7EA"><animate attributeType="XML" attributeName="fill" values="#BFD7EA;#B9D6F2;#BFD7EA;#BFD7EA" dur="2.5s" repeatCount="indefinite"/></circle></g><use href="#l0" x="302" y="262" /><use href="#d0" x="320" y="320" /></svg>