<svg width="360" height="360" xmlns="http://www.w3.org/2000/svg"><defs><animate id="aa" begin="0s"/><rect id="d0" width="36" height="36" fill="#FFF275"></rect><circle id="l0" r="18" fill="#A23E48"></circle></defs><rect width="100%" height="100%" fill="#6699CC" /><use href="#l0" x="40" y="40" /><use href="#l0" x="40" y="80" /><use href="#l0" x="40" y="120" /><use href="#d0" x="22" y="142" /><use href="#d0" x="22" y="182" /><use href="#l0" x="40" y="240" /><g transform="translate(22,262)"><use href="#p0" /><polygon points="0,0 0,36 36,36 36,0" fill="#6699CC"><animate attributeType="XML" attributeName="fill" values="#6699CC;#FFF275;#6699CC;#6699CC" dur="1s" begin="aa.begin +1s" repeatCount="indefinite"/></polygon></g><use href="#l0" x="40" y="320" /><use href="#d0" x="62" y="22" /><use href="#d0" x="62" y="62" /><use href="#l0" x="80" y="120" /><use href="#d0" x="62" y="142" /><use href="#l0" x="80" y="200" /><g transform="translate(80,240)"><use href="#b0" /><circle r="18" fill="#FF8C42"><animate attributeType="XML" attributeName="fill" values="#FF8C42;#A23E48;#FF8C42;#FF8C42" dur="1s" begin="aa.begin +1.5s" repeatCount="indefinite"/></circle></g><g transform="translate(80,280)"><use href="#b0" /><circle r="18" fill="#FF8C42"><animate attributeType="XML" attributeName="fill" values="#FF8C42;#A23E48;#FF8C42;#FF8C42" dur="1s" begin="aa.begin +2s" repeatCount="indefinite"/></circle></g><use href="#d0" x="62" y="302" /><use href="#l0" x="120" y="40" /><use href="#d0" x="102" y="62" /><use href="#d0" x="102" y="102" /><use href="#d0" x="102" y="142" /><g transform="translate(102,182)"><use href="#p0" /><polygon points="0,0 0,36 36,36 36,0" fill="#6699CC"><animate attributeType="XML" attributeName="fill" values="#6699CC;#FFF275;#6699CC;#6699CC" dur="1s" begin="aa.begin +s" repeatCount="indefinite"/></polygon></g><use href="#d0" x="102" y="222" /><g transform="translate(120,280)"><use href="#b0" /><circle r="18" fill="#FF8C42"><animate attributeType="XML" attributeName="fill" values="#FF8C42;#A23E48;#FF8C42;#FF8C42" dur="1s" begin="aa.begin +2.5s" repeatCount="indefinite"/></circle></g><use href="#d0" x="102" y="302" /><use href="#l0" x="160" y="40" /><use href="#l0" x="160" y="80" /><use href="#l0" x="160" y="120" /><use href="#l0" x="160" y="160" /><g transform="translate(142,182)"><use href="#p0" /><polygon points="0,0 0,36 36,36 36,0" fill="#6699CC"><animate attributeType="XML" attributeName="fill" values="#6699CC;#FFF275;#6699CC;#6699CC" dur="1s" begin="aa.begin +3s" repeatCount="indefinite"/></polygon></g><g transform="translate(160,240)"><use href="#b0" /><circle r="18" fill="#FF8C42"><animate attributeType="XML" attributeName="fill" values="#FF8C42;#A23E48;#FF8C42;#FF8C42" dur="1s" begin="aa.begin +3.5s" repeatCount="indefinite"/></circle></g><use href="#l0" x="160" y="280" /><use href="#d0" x="142" y="302" /><use href="#d0" x="182" y="22" /><use href="#d0" x="182" y="62" /><use href="#d0" x="182" y="102" /><use href="#d0" x="182" y="142" /><use href="#d0" x="182" y="182" /><use href="#d0" x="182" y="222" /><g transform="translate(182,262)"><use href="#p0" /><polygon points="0,0 0,36 36,36 36,0" fill="#6699CC"><animate attributeType="XML" attributeName="fill" values="#6699CC;#FFF275;#6699CC;#6699CC" dur="1s" begin="aa.begin +4s" repeatCount="indefinite"/></polygon></g><g transform="translate(200,320)"><use href="#b0" /><circle r="18" fill="#FF8C42"><animate attributeType="XML" attributeName="fill" values="#FF8C42;#A23E48;#FF8C42;#FF8C42" dur="1s" begin="aa.begin +4.5s" repeatCount="indefinite"/></circle></g><use href="#d0" x="222" y="22" /><g transform="translate(222,62)"><use href="#p0" /><polygon points="0,0 0,36 36,36 36,0" fill="#6699CC"><animate attributeType="XML" attributeName="fill" values="#6699CC;#FFF275;#6699CC;#6699CC" dur="1s" begin="aa.begin +5s" repeatCount="indefinite"/></polygon></g><g transform="translate(240,120)"><use href="#b0" /><circle r="18" fill="#FF8C42"><animate attributeType="XML" attributeName="fill" values="#FF8C42;#A23E48;#FF8C42;#FF8C42" dur="1s" begin="aa.begin +5.5s" repeatCount="indefinite"/></circle></g><use href="#l0" x="240" y="160" /><use href="#l0" x="240" y="200" /><g transform="translate(222,222)"><use href="#p0" /><polygon points="0,0 0,36 36,36 36,0" fill="#6699CC"><animate attributeType="XML" attributeName="fill" values="#6699CC;#FFF275;#6699CC;#6699CC" dur="1s" begin="aa.begin +6s" repeatCount="indefinite"/></polygon></g><use href="#d0" x="222" y="262" /><g transform="translate(222,302)"><use href="#p0" /><polygon points="0,0 0,36 36,36 36,0" fill="#6699CC"><animate attributeType="XML" attributeName="fill" values="#6699CC;#FFF275;#6699CC;#6699CC" dur="1s" begin="aa.begin +6.5s" repeatCount="indefinite"/></polygon></g><use href="#d0" x="262" y="22" /><g transform="translate(262,62)"><use href="#p0" /><polygon points="0,0 0,36 36,36 36,0" fill="#6699CC"><animate attributeType="XML" attributeName="fill" values="#6699CC;#FFF275;#6699CC;#6699CC" dur="1s" begin="aa.begin +7s" repeatCount="indefinite"/></polygon></g><use href="#d0" x="262" y="102" /><g transform="translate(262,142)"><use href="#p0" /><polygon points="0,0 0,36 36,36 36,0" fill="#6699CC"><animate attributeType="XML" attributeName="fill" values="#6699CC;#FFF275;#6699CC;#6699CC" dur="1s" begin="aa.begin +7.5s" repeatCount="indefinite"/></polygon></g><use href="#d0" x="262" y="182" /><use href="#d0" x="262" y="222" /><use href="#d0" x="262" y="262" /><use href="#d0" x="262" y="302" /><use href="#d0" x="302" y="22" /><g transform="translate(320,80)"><use href="#b0" /><circle r="18" fill="#FF8C42"><animate attributeType="XML" attributeName="fill" values="#FF8C42;#A23E48;#FF8C42;#FF8C42" dur="1s" begin="aa.begin +8s" repeatCount="indefinite"/></circle></g><use href="#d0" x="302" y="102" /><g transform="translate(302,142)"><use href="#p0" /><polygon points="0,0 0,36 36,36 36,0" fill="#6699CC"><animate attributeType="XML" attributeName="fill" values="#6699CC;#FFF275;#6699CC;#6699CC" dur="1s" begin="aa.begin +8.5s" repeatCount="indefinite"/></polygon></g><use href="#d0" x="302" y="182" /><g transform="translate(302,222)"><use href="#p0" /><polygon points="0,0 0,36 36,36 36,0" fill="#6699CC"><animate attributeType="XML" attributeName="fill" values="#6699CC;#FFF275;#6699CC;#6699CC" dur="1s" begin="aa.begin +9s" repeatCount="indefinite"/></polygon></g><g transform="translate(320,280)"><use href="#b0" /><circle r="18" fill="#FF8C42"><animate attributeType="XML" attributeName="fill" values="#FF8C42;#A23E48;#FF8C42;#FF8C42" dur="1s" begin="aa.begin +9.5s" repeatCount="indefinite"/></circle></g><use href="#l0" x="320" y="320" /></svg>