<svg width="360" height="360" xmlns="http://www.w3.org/2000/svg"><defs><animate id="aa" begin="0s"/><rect id="l0" width="36" height="36" fill="#EE9B00"></rect><circle id="d0" r="18" fill="#001219"></circle></defs><rect width="100%" height="100%" fill="#005F73" /><g transform="translate(22,22)"><use href="#b0" /><polygon points="0,0 0,36 36,36 36,0" fill="#94D2BD"><animate attributeType="XML" attributeName="fill" values="#94D2BD;#EE9B00;#94D2BD;#94D2BD" dur="2.0s" repeatCount="indefinite"/></polygon></g><use href="#d0" x="40" y="80" /><use href="#d0" x="40" y="120" /><g transform="translate(22,142)"><use href="#b0" /><polygon points="0,0 0,36 36,36 36,0" fill="#94D2BD"><animate attributeType="XML" attributeName="fill" values="#94D2BD;#EE9B00;#94D2BD;#94D2BD" dur="2.0s" repeatCount="indefinite"/></polygon></g><use href="#l0" x="22" y="182" /><use href="#d0" x="40" y="240" /><use href="#l0" x="22" y="262" /><g transform="translate(40,320)"><use href="#p0" /><circle r="18" fill="#9B2226"><animate attributeType="XML" attributeName="fill" values="#9B2226;#001219;#9B2226;#9B2226" dur="2.0s" repeatCount="indefinite"/></circle></g><g transform="translate(80,40)"><use href="#p0" /><circle r="18" fill="#9B2226"><animate attributeType="XML" attributeName="fill" values="#9B2226;#001219;#9B2226;#9B2226" dur="2.0s" repeatCount="indefinite"/></circle></g><use href="#d0" x="80" y="80" /><use href="#d0" x="80" y="120" /><g transform="translate(80,160)"><use href="#p0" /><circle r="18" fill="#9B2226"><animate attributeType="XML" attributeName="fill" values="#9B2226;#001219;#9B2226;#9B2226" dur="2.3s" repeatCount="indefinite"/></circle></g><use href="#l0" x="62" y="182" /><use href="#d0" x="80" y="240" /><use href="#d0" x="80" y="280" /><use href="#d0" x="80" y="320" /><use href="#l0" x="102" y="22" /><use href="#l0" x="102" y="62" /><g transform="translate(120,120)"><use href="#p0" /><circle r="18" fill="#9B2226"><animate attributeType="XML" attributeName="fill" values="#9B2226;#001219;#9B2226;#9B2226" dur="2.4s" repeatCount="indefinite"/></circle></g><use href="#d0" x="120" y="160" /><g transform="translate(120,200)"><use href="#p0" /><circle r="18" fill="#9B2226"><animate attributeType="XML" attributeName="fill" values="#9B2226;#001219;#9B2226;#9B2226" dur="2.8s" repeatCount="indefinite"/></circle></g><use href="#d0" x="120" y="240" /><use href="#d0" x="120" y="280" /><g transform="translate(120,320)"><use href="#p0" /><circle r="18" fill="#9B2226"><animate attributeType="XML" attributeName="fill" values="#9B2226;#001219;#9B2226;#9B2226" dur="2.4s" repeatCount="indefinite"/></circle></g><use href="#d0" x="160" y="40" /><use href="#d0" x="160" y="80" /><use href="#d0" x="160" y="120" /><g transform="translate(142,142)"><use href="#b0" /><polygon points="0,0 0,36 36,36 36,0" fill="#94D2BD"><animate attributeType="XML" attributeName="fill" values="#94D2BD;#EE9B00;#94D2BD;#94D2BD" dur="2.9s" repeatCount="indefinite"/></polygon></g><use href="#d0" x="160" y="200" /><g transform="translate(142,222)"><use href="#b0" /><polygon points="0,0 0,36 36,36 36,0" fill="#94D2BD"><animate attributeType="XML" attributeName="fill" values="#94D2BD;#EE9B00;#94D2BD;#94D2BD" dur="2.5s" repeatCount="indefinite"/></polygon></g><use href="#d0" x="160" y="280" /><use href="#d0" x="160" y="320" /><use href="#l0" x="182" y="22" /><use href="#l0" x="182" y="62" /><use href="#l0" x="182" y="102" /><use href="#l0" x="182" y="142" /><g transform="translate(200,200)"><use href="#p0" /><circle r="18" fill="#9B2226"><animate attributeType="XML" attributeName="fill" values="#9B2226;#001219;#9B2226;#9B2226" dur="2.6s" repeatCount="indefinite"/></circle></g><use href="#l0" x="182" y="222" /><use href="#l0" x="182" y="262" /><use href="#l0" x="182" y="302" /><g transform="translate(222,22)"><use href="#b0" /><polygon points="0,0 0,36 36,36 36,0" fill="#94D2BD"><animate attributeType="XML" attributeName="fill" values="#94D2BD;#EE9B00;#94D2BD;#94D2BD" dur="2.0s" repeatCount="indefinite"/></polygon></g><use href="#d0" x="240" y="80" /><g transform="translate(222,102)"><use href="#b0" /><polygon points="0,0 0,36 36,36 36,0" fill="#94D2BD"><animate attributeType="XML" attributeName="fill" values="#94D2BD;#EE9B00;#94D2BD;#94D2BD" dur="2.0s" repeatCount="indefinite"/></polygon></g><g transform="translate(222,142)"><use href="#b0" /><polygon points="0,0 0,36 36,36 36,0" fill="#94D2BD"><animate attributeType="XML" attributeName="fill" values="#94D2BD;#EE9B00;#94D2BD;#94D2BD" dur="2.5s" repeatCount="indefinite"/></polygon></g><g transform="translate(222,182)"><use href="#b0" /><polygon points="0,0 0,36 36,36 36,0" fill="#94D2BD"><animate attributeType="XML" attributeName="fill" values="#94D2BD;#EE9B00;#94D2BD;#94D2BD" dur="2.0s" repeatCount="indefinite"/></polygon></g><g transform="translate(222,222)"><use href="#b0" /><polygon points="0,0 0,36 36,36 36,0" fill="#94D2BD"><animate attributeType="XML" attributeName="fill" values="#94D2BD;#EE9B00;#94D2BD;#94D2BD" dur="2.5s" repeatCount="indefinite"/></polygon></g><use href="#d0" x="240" y="280" /><use href="#d0" x="240" y="320" /><use href="#d0" x="280" y="40" /><use href="#d0" x="280" y="80" /><use href="#d0" x="280" y="120" /><g transform="translate(262,142)"><use href="#b0" /><polygon points="0,0 0,36 36,36 36,0" fill="#94D2BD"><animate attributeType="XML" attributeName="fill" values="#94D2BD;#EE9B00;#94D2BD;#94D2BD" dur="2.8s" repeatCount="indefinite"/></polygon></g><use href="#d0" x="280" y="200" /><g transform="translate(262,222)"><use href="#b0" /><polygon points="0,0 0,36 36,36 36,0" fill="#94D2BD"><animate attributeType="XML" attributeName="fill" values="#94D2BD;#EE9B00;#94D2BD;#94D2BD" dur="2.0s" repeatCount="indefinite"/></polygon></g><use href="#d0" x="280" y="280" /><g transform="translate(262,302)"><use href="#b0" /><polygon points="0,0 0,36 36,36 36,0" fill="#94D2BD"><animate attributeType="XML" attributeName="fill" values="#94D2BD;#EE9B00;#94D2BD;#94D2BD" dur="2.2s" repeatCount="indefinite"/></polygon></g><g transform="translate(302,22)"><use href="#b0" /><polygon points="0,0 0,36 36,36 36,0" fill="#94D2BD"><animate attributeType="XML" attributeName="fill" values="#94D2BD;#EE9B00;#94D2BD;#94D2BD" dur="2.0s" repeatCount="indefinite"/></polygon></g><use href="#d0" x="320" y="80" /><use href="#d0" x="320" y="120" /><g transform="translate(302,142)"><use href="#b0" /><polygon points="0,0 0,36 36,36 36,0" fill="#94D2BD"><animate attributeType="XML" attributeName="fill" values="#94D2BD;#EE9B00;#94D2BD;#94D2BD" dur="2.1s" repeatCount="indefinite"/></polygon></g><use href="#d0" x="320" y="200" /><use href="#d0" x="320" y="240" /><g transform="translate(320,280)"><use href="#p0" /><circle r="18" fill="#9B2226"><animate attributeType="XML" attributeName="fill" values="#9B2226;#001219;#9B2226;#9B2226" dur="2.2s" repeatCount="indefinite"/></circle></g><g transform="translate(320,320)"><use href="#p0" /><circle r="18" fill="#9B2226"><animate attributeType="XML" attributeName="fill" values="#9B2226;#001219;#9B2226;#9B2226" dur="2.9s" repeatCount="indefinite"/></circle></g></svg>