<svg width="360" height="360" xmlns="http://www.w3.org/2000/svg"><defs><animate id="aa" begin="0s"/><rect id="l0" width="36" height="36" fill="#f78154"></rect><rect id="d0" width="36" height="36" fill="#201335"></rect></defs><rect width="100%" height="100%" fill="#201335" /><use href="#d0" x="22" y="22" /><use href="#d0" x="22" y="62" /><use href="#d0" x="22" y="102" /><use href="#l0" x="22" y="142" /><use href="#d0" x="22" y="182" /><use href="#l0" x="22" y="222" /><use href="#d0" x="22" y="262" /><g transform="translate(22,302)"><use href="#b0" /><polygon points="0,0 0,36 36,36 36,0" fill="#4d9078"><animate attributeType="XML" attributeName="fill" values="#4d9078;#f78154;#4d9078;#4d9078" dur="3s" begin="aa.begin +1s" repeatCount="indefinite"/></polygon></g><use href="#l0" x="62" y="22" /><use href="#l0" x="62" y="62" /><g transform="translate(62,102)"><use href="#p0" /><polygon points="0,0 0,36 36,36 36,0" fill="#b4436c"><animate attributeType="XML" attributeName="fill" values="#b4436c;#201335;#b4436c;#b4436c" dur="3s" begin="aa.begin +1.5s" repeatCount="indefinite"/></polygon></g><use href="#l0" x="62" y="142" /><use href="#d0" x="62" y="182" /><use href="#l0" x="62" y="222" /><use href="#d0" x="62" y="262" /><g transform="translate(62,302)"><use href="#b0" /><polygon points="0,0 0,36 36,36 36,0" fill="#4d9078"><animate attributeType="XML" attributeName="fill" values="#4d9078;#f78154;#4d9078;#4d9078" dur="3s" begin="aa.begin +2s" repeatCount="indefinite"/></polygon></g><use href="#d0" x="102" y="22" /><use href="#l0" x="102" y="62" /><use href="#d0" x="102" y="102" /><use href="#l0" x="102" y="142" /><use href="#d0" x="102" y="182" /><g transform="translate(102,222)"><use href="#p0" /><polygon points="0,0 0,36 36,36 36,0" fill="#b4436c"><animate attributeType="XML" attributeName="fill" values="#b4436c;#201335;#b4436c;#b4436c" dur="3s" begin="aa.begin +s" repeatCount="indefinite"/></polygon></g><g transform="translate(102,262)"><use href="#p0" /><polygon points="0,0 0,36 36,36 36,0" fill="#b4436c"><animate attributeType="XML" attributeName="fill" values="#b4436c;#201335;#b4436c;#b4436c" dur="3s" begin="aa.begin +2.5s" repeatCount="indefinite"/></polygon></g><g transform="translate(102,302)"><use href="#b0" /><polygon points="0,0 0,36 36,36 36,0" fill="#4d9078"><animate attributeType="XML" attributeName="fill" values="#4d9078;#f78154;#4d9078;#4d9078" dur="3s" begin="aa.begin +3s" repeatCount="indefinite"/></polygon></g><use href="#d0" x="142" y="22" /><use href="#d0" x="142" y="62" /><use href="#d0" x="142" y="102" /><use href="#d0" x="142" y="142" /><use href="#l0" x="142" y="182" /><g transform="translate(142,222)"><use href="#p0" /><polygon points="0,0 0,36 36,36 36,0" fill="#b4436c"><animate attributeType="XML" attributeName="fill" values="#b4436c;#201335;#b4436c;#b4436c" dur="3s" begin="aa.begin +3.5s" repeatCount="indefinite"/></polygon></g><use href="#l0" x="142" y="262" /><g transform="translate(142,302)"><use href="#b0" /><polygon points="0,0 0,36 36,36 36,0" fill="#4d9078"><animate attributeType="XML" attributeName="fill" values="#4d9078;#f78154;#4d9078;#4d9078" dur="3s" begin="aa.begin +4s" repeatCount="indefinite"/></polygon></g><use href="#d0" x="182" y="22" /><use href="#d0" x="182" y="62" /><use href="#d0" x="182" y="102" /><use href="#d0" x="182" y="142" /><g transform="translate(182,182)"><use href="#b0" /><polygon points="0,0 0,36 36,36 36,0" fill="#4d9078"><animate attributeType="XML" attributeName="fill" values="#4d9078;#f78154;#4d9078;#4d9078" dur="3s" begin="aa.begin +4.5s" repeatCount="indefinite"/></polygon></g><g transform="translate(182,222)"><use href="#p0" /><polygon points="0,0 0,36 36,36 36,0" fill="#b4436c"><animate attributeType="XML" attributeName="fill" values="#b4436c;#201335;#b4436c;#b4436c" dur="3s" begin="aa.begin +5s" repeatCount="indefinite"/></polygon></g><g transform="translate(182,262)"><use href="#p0" /><polygon points="0,0 0,36 36,36 36,0" fill="#b4436c"><animate attributeType="XML" attributeName="fill" values="#b4436c;#201335;#b4436c;#b4436c" dur="3s" begin="aa.begin +5.5s" repeatCount="indefinite"/></polygon></g><g transform="translate(182,302)"><use href="#b0" /><polygon points="0,0 0,36 36,36 36,0" fill="#4d9078"><animate attributeType="XML" attributeName="fill" values="#4d9078;#f78154;#4d9078;#4d9078" dur="3s" begin="aa.begin +6s" repeatCount="indefinite"/></polygon></g><g transform="translate(222,22)"><use href="#b0" /><polygon points="0,0 0,36 36,36 36,0" fill="#4d9078"><animate attributeType="XML" attributeName="fill" values="#4d9078;#f78154;#4d9078;#4d9078" dur="3s" begin="aa.begin +6.5s" repeatCount="indefinite"/></polygon></g><use href="#d0" x="222" y="62" /><use href="#d0" x="222" y="102" /><use href="#d0" x="222" y="142" /><g transform="translate(222,182)"><use href="#b0" /><polygon points="0,0 0,36 36,36 36,0" fill="#4d9078"><animate attributeType="XML" attributeName="fill" values="#4d9078;#f78154;#4d9078;#4d9078" dur="3s" begin="aa.begin +7s" repeatCount="indefinite"/></polygon></g><use href="#l0" x="222" y="222" /><use href="#d0" x="222" y="262" /><use href="#l0" x="222" y="302" /><use href="#d0" x="262" y="22" /><use href="#d0" x="262" y="62" /><use href="#d0" x="262" y="102" /><use href="#d0" x="262" y="142" /><use href="#d0" x="262" y="182" /><use href="#l0" x="262" y="222" /><use href="#d0" x="262" y="262" /><g transform="translate(262,302)"><use href="#p0" /><polygon points="0,0 0,36 36,36 36,0" fill="#b4436c"><animate attributeType="XML" attributeName="fill" values="#b4436c;#201335;#b4436c;#b4436c" dur="3s" begin="aa.begin +7.5s" repeatCount="indefinite"/></polygon></g><use href="#l0" x="302" y="22" /><use href="#d0" x="302" y="62" /><use href="#d0" x="302" y="102" /><use href="#d0" x="302" y="142" /><use href="#d0" x="302" y="182" /><use href="#l0" x="302" y="222" /><use href="#d0" x="302" y="262" /><use href="#l0" x="302" y="302" /></svg>