<svg width="360" height="360" xmlns="http://www.w3.org/2000/svg"><defs><animate id="aa" begin="0s"/><rect id="l0" width="36" height="36" fill="#f78154"></rect><rect id="d0" width="36" height="36" fill="#201335"></rect></defs><rect width="100%" height="100%" fill="#201335" /><use href="#l0" x="22" y="22" /><use href="#d0" x="22" y="62" /><use href="#d0" x="22" y="102" /><use href="#l0" x="22" y="142" /><use href="#d0" x="22" y="182" /><use href="#d0" x="22" y="222" /><use href="#d0" x="22" y="262" /><use href="#d0" x="22" y="302" /><use href="#l0" x="62" y="22" /><use href="#l0" x="62" y="62" /><use href="#l0" x="62" y="102" /><use href="#l0" x="62" y="142" /><use href="#d0" x="62" y="182" /><use href="#l0" x="62" y="222" /><use href="#l0" x="62" y="262" /><use href="#l0" x="62" y="302" /><use href="#d0" x="102" y="22" /><use href="#d0" x="102" y="62" /><use href="#d0" x="102" y="102" /><use href="#d0" x="102" y="142" /><use href="#l0" x="102" y="182" /><use href="#d0" x="102" y="222" /><use href="#d0" x="102" y="262" /><use href="#d0" x="102" y="302" /><use href="#l0" x="142" y="22" /><use href="#l0" x="142" y="62" /><use href="#l0" x="142" y="102" /><use href="#d0" x="142" y="142" /><use href="#d0" x="142" y="182" /><use href="#d0" x="142" y="222" /><use href="#l0" x="142" y="262" /><use href="#l0" x="142" y="302" /><g transform="translate(182,22)"><use href="#b0" /><polygon points="0,0 0,36 36,36 36,0" fill="#5fad56"><animate attributeType="XML" attributeName="fill" values="#5fad56;#f78154;#5fad56;#5fad56" dur="1s" begin="aa.begin +1s" repeatCount="indefinite"/></polygon></g><use href="#d0" x="182" y="62" /><use href="#d0" x="182" y="102" /><use href="#l0" x="182" y="142" /><g transform="translate(182,182)"><use href="#p0" /><polygon points="0,0 0,36 36,36 36,0" fill="#b4436c"><animate attributeType="XML" attributeName="fill" values="#b4436c;#201335;#b4436c;#b4436c" dur="1s" begin="aa.begin +1.5s" repeatCount="indefinite"/></polygon></g><use href="#l0" x="182" y="222" /><use href="#d0" x="182" y="262" /><use href="#d0" x="182" y="302" /><use href="#d0" x="222" y="22" /><use href="#d0" x="222" y="62" /><use href="#d0" x="222" y="102" /><g transform="translate(222,142)"><use href="#p0" /><polygon points="0,0 0,36 36,36 36,0" fill="#b4436c"><animate attributeType="XML" attributeName="fill" values="#b4436c;#201335;#b4436c;#b4436c" dur="1s" begin="aa.begin +2s" repeatCount="indefinite"/></polygon></g><g transform="translate(222,182)"><use href="#b0" /><polygon points="0,0 0,36 36,36 36,0" fill="#5fad56"><animate attributeType="XML" attributeName="fill" values="#5fad56;#f78154;#5fad56;#5fad56" dur="1s" begin="aa.begin +s" repeatCount="indefinite"/></polygon></g><use href="#l0" x="222" y="222" /><use href="#l0" x="222" y="262" /><use href="#d0" x="222" y="302" /><use href="#d0" x="262" y="22" /><use href="#d0" x="262" y="62" /><use href="#d0" x="262" y="102" /><use href="#d0" x="262" y="142" /><use href="#d0" x="262" y="182" /><use href="#d0" x="262" y="222" /><g transform="translate(262,262)"><use href="#b0" /><polygon points="0,0 0,36 36,36 36,0" fill="#5fad56"><animate attributeType="XML" attributeName="fill" values="#5fad56;#f78154;#5fad56;#5fad56" dur="1s" begin="aa.begin +2.5s" repeatCount="indefinite"/></polygon></g><use href="#d0" x="262" y="302" /><use href="#d0" x="302" y="22" /><use href="#d0" x="302" y="62" /><use href="#d0" x="302" y="102" /><use href="#d0" x="302" y="142" /><use href="#l0" x="302" y="182" /><use href="#l0" x="302" y="222" /><use href="#d0" x="302" y="262" /><use href="#d0" x="302" y="302" /></svg>