<svg width="360" height="360" xmlns="http://www.w3.org/2000/svg"><defs><animate id="aa" begin="0s"/><rect id="d0" width="36" height="36" fill="#ff0059"></rect><circle id="l0" r="18" fill="#9500ff"></circle></defs><rect width="100%" height="100%" fill="#0fffdb" /><use href="#l0" x="40" y="40" /><use href="#d0" x="22" y="62" /><use href="#d0" x="22" y="102" /><use href="#d0" x="22" y="142" /><use href="#d0" x="22" y="182" /><use href="#d0" x="22" y="222" /><use href="#d0" x="22" y="262" /><use href="#l0" x="40" y="320" /><use href="#d0" x="62" y="22" /><use href="#l0" x="80" y="80" /><use href="#l0" x="80" y="120" /><use href="#l0" x="80" y="160" /><use href="#l0" x="80" y="200" /><use href="#l0" x="80" y="240" /><use href="#l0" x="80" y="280" /><use href="#d0" x="62" y="302" /><use href="#l0" x="120" y="40" /><use href="#d0" x="102" y="62" /><use href="#d0" x="102" y="102" /><g transform="translate(102,142)"><use href="#p0" /><polygon points="0,0 0,36 36,36 36,0" fill="#ff8c00"><animate attributeType="XML" attributeName="fill" values="#ff8c00;#ff0059;#ff8c00;#ff8c00" dur="0.6s" repeatCount="indefinite"/></polygon></g><use href="#d0" x="102" y="182" /><use href="#d0" x="102" y="222" /><use href="#d0" x="102" y="262" /><use href="#l0" x="120" y="320" /><use href="#d0" x="142" y="22" /><use href="#d0" x="142" y="62" /><g transform="translate(142,102)"><use href="#p0" /><polygon points="0,0 0,36 36,36 36,0" fill="#ff8c00"><animate attributeType="XML" attributeName="fill" values="#ff8c00;#ff0059;#ff8c00;#ff8c00" dur="0.6s" repeatCount="indefinite"/></polygon></g><use href="#d0" x="142" y="142" /><g transform="translate(142,182)"><use href="#p0" /><polygon points="0,0 0,36 36,36 36,0" fill="#ff8c00"><animate attributeType="XML" attributeName="fill" values="#ff8c00;#ff0059;#ff8c00;#ff8c00" dur="0.2s" repeatCount="indefinite"/></polygon></g><g transform="translate(142,222)"><use href="#p0" /><polygon points="0,0 0,36 36,36 36,0" fill="#ff8c00"><animate attributeType="XML" attributeName="fill" values="#ff8c00;#ff0059;#ff8c00;#ff8c00" dur="0.5s" repeatCount="indefinite"/></polygon></g><use href="#l0" x="160" y="280" /><use href="#d0" x="142" y="302" /><g transform="translate(182,22)"><use href="#p0" /><polygon points="0,0 0,36 36,36 36,0" fill="#ff8c00"><animate attributeType="XML" attributeName="fill" values="#ff8c00;#ff0059;#ff8c00;#ff8c00" dur="0.0s" repeatCount="indefinite"/></polygon></g><use href="#d0" x="182" y="62" /><g transform="translate(182,102)"><use href="#p0" /><polygon points="0,0 0,36 36,36 36,0" fill="#ff8c00"><animate attributeType="XML" attributeName="fill" values="#ff8c00;#ff0059;#ff8c00;#ff8c00" dur="0.8s" repeatCount="indefinite"/></polygon></g><use href="#d0" x="182" y="142" /><use href="#d0" x="182" y="182" /><use href="#d0" x="182" y="222" /><g transform="translate(200,280)"><use href="#b0" /><circle r="18" fill="#2962ff"><animate attributeType="XML" attributeName="fill" values="#2962ff;#9500ff;#2962ff;#2962ff" dur="0.4s" repeatCount="indefinite"/></circle></g><use href="#l0" x="200" y="320" /><use href="#d0" x="222" y="22" /><use href="#d0" x="222" y="62" /><use href="#d0" x="222" y="102" /><use href="#d0" x="222" y="142" /><use href="#d0" x="222" y="182" /><use href="#d0" x="222" y="222" /><use href="#l0" x="240" y="280" /><use href="#d0" x="222" y="302" /><use href="#l0" x="280" y="40" /><use href="#l0" x="280" y="80" /><use href="#d0" x="262" y="102" /><use href="#l0" x="280" y="160" /><use href="#d0" x="262" y="182" /><use href="#d0" x="262" y="222" /><use href="#d0" x="262" y="262" /><use href="#l0" x="280" y="320" /><use href="#d0" x="302" y="22" /><use href="#d0" x="302" y="62" /><use href="#l0" x="320" y="120" /><use href="#l0" x="320" y="160" /><use href="#l0" x="320" y="200" /><use href="#l0" x="320" y="240" /><use href="#l0" x="320" y="280" /><use href="#d0" x="302" y="302" /></svg>