<svg width="360" height="360" xmlns="http://www.w3.org/2000/svg"><defs><animate id="aa" begin="0s"/><rect id="l0" width="36" height="36" fill="#3d0066"></rect><circle id="d0" r="18" fill="#fdc500"></circle></defs><rect width="100%" height="100%" fill="#ffee32" /><use href="#l0" x="22" y="22" /><use href="#d0" x="40" y="80" /><use href="#d0" x="40" y="120" /><g transform="translate(40,160)"><use href="#p0" /><circle r="18" fill="#ffd500"><animate attributeType="XML" attributeName="fill" values="#ffd500;#fdc500;#ffd500;#ffd500" dur="1.0s" repeatCount="indefinite"/></circle></g><use href="#l0" x="22" y="182" /><use href="#d0" x="40" y="240" /><use href="#l0" x="22" y="262" /><use href="#d0" x="40" y="320" /><use href="#d0" x="80" y="40" /><use href="#l0" x="62" y="62" /><g transform="translate(62,102)"><use href="#b0" /><polygon points="0,0 0,36 36,36 36,0" fill="#5c0099"><animate attributeType="XML" attributeName="fill" values="#5c0099;#3d0066;#5c0099;#5c0099" dur="1.2s" repeatCount="indefinite"/></polygon></g><use href="#l0" x="62" y="142" /><use href="#d0" x="80" y="200" /><use href="#l0" x="62" y="222" /><use href="#d0" x="80" y="280" /><use href="#l0" x="62" y="302" /><use href="#d0" x="120" y="40" /><use href="#l0" x="102" y="62" /><use href="#d0" x="120" y="120" /><g transform="translate(102,142)"><use href="#b0" /><polygon points="0,0 0,36 36,36 36,0" fill="#5c0099"><animate attributeType="XML" attributeName="fill" values="#5c0099;#3d0066;#5c0099;#5c0099" dur="1.6s" repeatCount="indefinite"/></polygon></g><use href="#d0" x="120" y="200" /><use href="#l0" x="102" y="222" /><use href="#d0" x="120" y="280" /><g transform="translate(120,320)"><use href="#p0" /><circle r="18" fill="#ffd500"><animate attributeType="XML" attributeName="fill" values="#ffd500;#fdc500;#ffd500;#ffd500" dur="1.4s" repeatCount="indefinite"/></circle></g><g transform="translate(142,22)"><use href="#b0" /><polygon points="0,0 0,36 36,36 36,0" fill="#5c0099"><animate attributeType="XML" attributeName="fill" values="#5c0099;#3d0066;#5c0099;#5c0099" dur="1.0s" repeatCount="indefinite"/></polygon></g><g transform="translate(160,80)"><use href="#p0" /><circle r="18" fill="#ffd500"><animate attributeType="XML" attributeName="fill" values="#ffd500;#fdc500;#ffd500;#ffd500" dur="1.3s" repeatCount="indefinite"/></circle></g><use href="#d0" x="160" y="120" /><use href="#d0" x="160" y="160" /><g transform="translate(160,200)"><use href="#p0" /><circle r="18" fill="#ffd500"><animate attributeType="XML" attributeName="fill" values="#ffd500;#fdc500;#ffd500;#ffd500" dur="1.2s" repeatCount="indefinite"/></circle></g><g transform="translate(142,222)"><use href="#b0" /><polygon points="0,0 0,36 36,36 36,0" fill="#5c0099"><animate attributeType="XML" attributeName="fill" values="#5c0099;#3d0066;#5c0099;#5c0099" dur="1.5s" repeatCount="indefinite"/></polygon></g><use href="#d0" x="160" y="280" /><use href="#d0" x="160" y="320" /><use href="#d0" x="200" y="40" /><use href="#l0" x="182" y="62" /><use href="#l0" x="182" y="102" /><g transform="translate(200,160)"><use href="#p0" /><circle r="18" fill="#ffd500"><animate attributeType="XML" attributeName="fill" values="#ffd500;#fdc500;#ffd500;#ffd500" dur="1.2s" repeatCount="indefinite"/></circle></g><use href="#d0" x="200" y="200" /><use href="#l0" x="182" y="222" /><use href="#l0" x="182" y="262" /><use href="#d0" x="200" y="320" /><use href="#l0" x="222" y="22" /><use href="#d0" x="240" y="80" /><use href="#d0" x="240" y="120" /><g transform="translate(222,142)"><use href="#b0" /><polygon points="0,0 0,36 36,36 36,0" fill="#5c0099"><animate attributeType="XML" attributeName="fill" values="#5c0099;#3d0066;#5c0099;#5c0099" dur="1.5s" repeatCount="indefinite"/></polygon></g><g transform="translate(222,182)"><use href="#b0" /><polygon points="0,0 0,36 36,36 36,0" fill="#5c0099"><animate attributeType="XML" attributeName="fill" values="#5c0099;#3d0066;#5c0099;#5c0099" dur="1.0s" repeatCount="indefinite"/></polygon></g><use href="#d0" x="240" y="240" /><use href="#d0" x="240" y="280" /><g transform="translate(240,320)"><use href="#p0" /><circle r="18" fill="#ffd500"><animate attributeType="XML" attributeName="fill" values="#ffd500;#fdc500;#ffd500;#ffd500" dur="1.5s" repeatCount="indefinite"/></circle></g><use href="#l0" x="262" y="22" /><use href="#d0" x="280" y="80" /><use href="#l0" x="262" y="102" /><g transform="translate(280,160)"><use href="#p0" /><circle r="18" fill="#ffd500"><animate attributeType="XML" attributeName="fill" values="#ffd500;#fdc500;#ffd500;#ffd500" dur="1.8s" repeatCount="indefinite"/></circle></g><g transform="translate(262,182)"><use href="#b0" /><polygon points="0,0 0,36 36,36 36,0" fill="#5c0099"><animate attributeType="XML" attributeName="fill" values="#5c0099;#3d0066;#5c0099;#5c0099" dur="1.4s" repeatCount="indefinite"/></polygon></g><use href="#d0" x="280" y="240" /><g transform="translate(280,280)"><use href="#p0" /><circle r="18" fill="#ffd500"><animate attributeType="XML" attributeName="fill" values="#ffd500;#fdc500;#ffd500;#ffd500" dur="1.6s" repeatCount="indefinite"/></circle></g><use href="#d0" x="280" y="320" /><use href="#l0" x="302" y="22" /><use href="#d0" x="320" y="80" /><g transform="translate(320,120)"><use href="#p0" /><circle r="18" fill="#ffd500"><animate attributeType="XML" attributeName="fill" values="#ffd500;#fdc500;#ffd500;#ffd500" dur="1.4s" repeatCount="indefinite"/></circle></g><use href="#d0" x="320" y="160" /><use href="#l0" x="302" y="182" /><use href="#d0" x="320" y="240" /><g transform="translate(320,280)"><use href="#p0" /><circle r="18" fill="#ffd500"><animate attributeType="XML" attributeName="fill" values="#ffd500;#fdc500;#ffd500;#ffd500" dur="1.2s" repeatCount="indefinite"/></circle></g><use href="#d0" x="320" y="320" /></svg>