<svg width="360" height="360" xmlns="http://www.w3.org/2000/svg"><defs><animate id="aa" begin="0s"/><circle id="l0" r="18" fill="#FF1053"></circle><circle id="d0" r="18" fill="#251101"></circle></defs><rect width="100%" height="100%" fill="#071E22" /><use href="#l0" x="40" y="40" /><use href="#d0" x="40" y="80" /><g transform="translate(40,120)"><use href="#p0" /><circle r="18" fill="#3D3522"><animate attributeType="XML" attributeName="fill" values="#3D3522;#251101;#3D3522;#3D3522" dur="0.0s" repeatCount="indefinite"/></circle></g><use href="#d0" x="40" y="160" /><use href="#l0" x="40" y="200" /><use href="#d0" x="40" y="240" /><g transform="translate(40,280)"><use href="#p0" /><circle r="18" fill="#3D3522"><animate attributeType="XML" attributeName="fill" values="#3D3522;#251101;#3D3522;#3D3522" dur="0.0s" repeatCount="indefinite"/></circle></g><use href="#d0" x="40" y="320" /><g transform="translate(80,40)"><use href="#p0" /><circle r="18" fill="#3D3522"><animate attributeType="XML" attributeName="fill" values="#3D3522;#251101;#3D3522;#3D3522" dur="0.0s" repeatCount="indefinite"/></circle></g><use href="#d0" x="80" y="80" /><use href="#d0" x="80" y="120" /><g transform="translate(80,160)"><use href="#b0" /><circle r="18" fill="#D2F898"><animate attributeType="XML" attributeName="fill" values="#D2F898;#FF1053;#D2F898;#D2F898" dur="0.3s" repeatCount="indefinite"/></circle></g><use href="#l0" x="80" y="200" /><g transform="translate(80,240)"><use href="#b0" /><circle r="18" fill="#D2F898"><animate attributeType="XML" attributeName="fill" values="#D2F898;#FF1053;#D2F898;#D2F898" dur="0.5s" repeatCount="indefinite"/></circle></g><use href="#d0" x="80" y="280" /><use href="#d0" x="80" y="320" /><use href="#d0" x="120" y="40" /><use href="#d0" x="120" y="80" /><use href="#d0" x="120" y="120" /><use href="#d0" x="120" y="160" /><g transform="translate(120,200)"><use href="#p0" /><circle r="18" fill="#3D3522"><animate attributeType="XML" attributeName="fill" values="#3D3522;#251101;#3D3522;#3D3522" dur="0.8s" repeatCount="indefinite"/></circle></g><use href="#d0" x="120" y="240" /><g transform="translate(120,280)"><use href="#b0" /><circle r="18" fill="#D2F898"><animate attributeType="XML" attributeName="fill" values="#D2F898;#FF1053;#D2F898;#D2F898" dur="0.2s" repeatCount="indefinite"/></circle></g><g transform="translate(120,320)"><use href="#b0" /><circle r="18" fill="#D2F898"><animate attributeType="XML" attributeName="fill" values="#D2F898;#FF1053;#D2F898;#D2F898" dur="0.4s" repeatCount="indefinite"/></circle></g><use href="#l0" x="160" y="40" /><g transform="translate(160,80)"><use href="#b0" /><circle r="18" fill="#D2F898"><animate attributeType="XML" attributeName="fill" values="#D2F898;#FF1053;#D2F898;#D2F898" dur="0.3s" repeatCount="indefinite"/></circle></g><use href="#l0" x="160" y="120" /><use href="#d0" x="160" y="160" /><use href="#l0" x="160" y="200" /><use href="#l0" x="160" y="240" /><g transform="translate(160,280)"><use href="#p0" /><circle r="18" fill="#3D3522"><animate attributeType="XML" attributeName="fill" values="#3D3522;#251101;#3D3522;#3D3522" dur="0.8s" repeatCount="indefinite"/></circle></g><use href="#d0" x="160" y="320" /><use href="#d0" x="200" y="40" /><use href="#d0" x="200" y="80" /><g transform="translate(200,120)"><use href="#p0" /><circle r="18" fill="#3D3522"><animate attributeType="XML" attributeName="fill" values="#3D3522;#251101;#3D3522;#3D3522" dur="0.8s" repeatCount="indefinite"/></circle></g><g transform="translate(200,160)"><use href="#p0" /><circle r="18" fill="#3D3522"><animate attributeType="XML" attributeName="fill" values="#3D3522;#251101;#3D3522;#3D3522" dur="0.2s" repeatCount="indefinite"/></circle></g><use href="#d0" x="200" y="200" /><use href="#d0" x="200" y="240" /><use href="#d0" x="200" y="280" /><use href="#l0" x="200" y="320" /><use href="#l0" x="240" y="40" /><use href="#d0" x="240" y="80" /><g transform="translate(240,120)"><use href="#p0" /><circle r="18" fill="#3D3522"><animate attributeType="XML" attributeName="fill" values="#3D3522;#251101;#3D3522;#3D3522" dur="0.0s" repeatCount="indefinite"/></circle></g><g transform="translate(240,160)"><use href="#b0" /><circle r="18" fill="#D2F898"><animate attributeType="XML" attributeName="fill" values="#D2F898;#FF1053;#D2F898;#D2F898" dur="0.5s" repeatCount="indefinite"/></circle></g><use href="#l0" x="240" y="200" /><g transform="translate(240,240)"><use href="#p0" /><circle r="18" fill="#3D3522"><animate attributeType="XML" attributeName="fill" values="#3D3522;#251101;#3D3522;#3D3522" dur="0.5s" repeatCount="indefinite"/></circle></g><use href="#l0" x="240" y="280" /><use href="#d0" x="240" y="320" /><use href="#l0" x="280" y="40" /><use href="#d0" x="280" y="80" /><use href="#l0" x="280" y="120" /><use href="#d0" x="280" y="160" /><use href="#l0" x="280" y="200" /><use href="#d0" x="280" y="240" /><use href="#l0" x="280" y="280" /><use href="#d0" x="280" y="320" /><use href="#l0" x="320" y="40" /><use href="#d0" x="320" y="80" /><g transform="translate(320,120)"><use href="#p0" /><circle r="18" fill="#3D3522"><animate attributeType="XML" attributeName="fill" values="#3D3522;#251101;#3D3522;#3D3522" dur="0.4s" repeatCount="indefinite"/></circle></g><use href="#d0" x="320" y="160" /><use href="#l0" x="320" y="200" /><use href="#d0" x="320" y="240" /><g transform="translate(320,280)"><use href="#p0" /><circle r="18" fill="#3D3522"><animate attributeType="XML" attributeName="fill" values="#3D3522;#251101;#3D3522;#3D3522" dur="0.2s" repeatCount="indefinite"/></circle></g><use href="#d0" x="320" y="320" /></svg>