<svg width="360" height="360" xmlns="http://www.w3.org/2000/svg"><defs><animate id="aa" begin="0s"/><rect id="d0" width="36" height="36" fill="#159F91"></rect><circle id="l0" r="18" fill="#F72585"></circle></defs><rect width="100%" height="100%" fill="#92F2E8" /><use href="#d0" x="22" y="22" /><use href="#d0" x="22" y="62" /><use href="#l0" x="40" y="120" /><g transform="translate(40,160)"><use href="#b0" /><circle r="18" fill="#7209B7"><animate attributeType="XML" attributeName="fill" values="#7209B7;#F72585;#7209B7;#7209B7" dur="1.0s" repeatCount="indefinite"/></circle></g><use href="#d0" x="22" y="182" /><use href="#d0" x="22" y="222" /><g transform="translate(40,280)"><use href="#b0" /><circle r="18" fill="#7209B7"><animate attributeType="XML" attributeName="fill" values="#7209B7;#F72585;#7209B7;#7209B7" dur="1.0s" repeatCount="indefinite"/></circle></g><g transform="translate(40,320)"><use href="#b0" /><circle r="18" fill="#7209B7"><animate attributeType="XML" attributeName="fill" values="#7209B7;#F72585;#7209B7;#7209B7" dur="1.0s" repeatCount="indefinite"/></circle></g><use href="#d0" x="62" y="22" /><use href="#d0" x="62" y="62" /><g transform="translate(62,102)"><use href="#p0" /><polygon points="0,0 0,36 36,36 36,0" fill="#1EE3CF"><animate attributeType="XML" attributeName="fill" values="#1EE3CF;#159F91;#1EE3CF;#1EE3CF" dur="1.2s" repeatCount="indefinite"/></polygon></g><use href="#d0" x="62" y="142" /><g transform="translate(80,200)"><use href="#b0" /><circle r="18" fill="#7209B7"><animate attributeType="XML" attributeName="fill" values="#7209B7;#F72585;#7209B7;#7209B7" dur="1.4s" repeatCount="indefinite"/></circle></g><use href="#d0" x="62" y="222" /><g transform="translate(80,280)"><use href="#b0" /><circle r="18" fill="#7209B7"><animate attributeType="XML" attributeName="fill" values="#7209B7;#F72585;#7209B7;#7209B7" dur="1.6s" repeatCount="indefinite"/></circle></g><g transform="translate(80,320)"><use href="#b0" /><circle r="18" fill="#7209B7"><animate attributeType="XML" attributeName="fill" values="#7209B7;#F72585;#7209B7;#7209B7" dur="1.7s" repeatCount="indefinite"/></circle></g><g transform="translate(120,40)"><use href="#b0" /><circle r="18" fill="#7209B7"><animate attributeType="XML" attributeName="fill" values="#7209B7;#F72585;#7209B7;#7209B7" dur="1.0s" repeatCount="indefinite"/></circle></g><use href="#l0" x="120" y="80" /><g transform="translate(102,102)"><use href="#p0" /><polygon points="0,0 0,36 36,36 36,0" fill="#1EE3CF"><animate attributeType="XML" attributeName="fill" values="#1EE3CF;#159F91;#1EE3CF;#1EE3CF" dur="1.4s" repeatCount="indefinite"/></polygon></g><g transform="translate(120,160)"><use href="#b0" /><circle r="18" fill="#7209B7"><animate attributeType="XML" attributeName="fill" values="#7209B7;#F72585;#7209B7;#7209B7" dur="1.6s" repeatCount="indefinite"/></circle></g><g transform="translate(102,182)"><use href="#p0" /><polygon points="0,0 0,36 36,36 36,0" fill="#1EE3CF"><animate attributeType="XML" attributeName="fill" values="#1EE3CF;#159F91;#1EE3CF;#1EE3CF" dur="1.8s" repeatCount="indefinite"/></polygon></g><g transform="translate(102,222)"><use href="#p0" /><polygon points="0,0 0,36 36,36 36,0" fill="#1EE3CF"><animate attributeType="XML" attributeName="fill" values="#1EE3CF;#159F91;#1EE3CF;#1EE3CF" dur="1.0s" repeatCount="indefinite"/></polygon></g><g transform="translate(120,280)"><use href="#b0" /><circle r="18" fill="#7209B7"><animate attributeType="XML" attributeName="fill" values="#7209B7;#F72585;#7209B7;#7209B7" dur="1.2s" repeatCount="indefinite"/></circle></g><use href="#d0" x="102" y="302" /><use href="#l0" x="160" y="40" /><use href="#d0" x="142" y="62" /><use href="#d0" x="142" y="102" /><g transform="translate(160,160)"><use href="#b0" /><circle r="18" fill="#7209B7"><animate attributeType="XML" attributeName="fill" values="#7209B7;#F72585;#7209B7;#7209B7" dur="1.9s" repeatCount="indefinite"/></circle></g><use href="#l0" x="160" y="200" /><use href="#d0" x="142" y="222" /><use href="#l0" x="160" y="280" /><use href="#d0" x="142" y="302" /><use href="#l0" x="200" y="40" /><use href="#d0" x="182" y="62" /><g transform="translate(200,120)"><use href="#b0" /><circle r="18" fill="#7209B7"><animate attributeType="XML" attributeName="fill" values="#7209B7;#F72585;#7209B7;#7209B7" dur="1.8s" repeatCount="indefinite"/></circle></g><use href="#d0" x="182" y="142" /><use href="#l0" x="200" y="200" /><use href="#d0" x="182" y="222" /><use href="#l0" x="200" y="280" /><use href="#d0" x="182" y="302" /><g transform="translate(240,40)"><use href="#b0" /><circle r="18" fill="#7209B7"><animate attributeType="XML" attributeName="fill" values="#7209B7;#F72585;#7209B7;#7209B7" dur="1.0s" repeatCount="indefinite"/></circle></g><g transform="translate(222,62)"><use href="#p0" /><polygon points="0,0 0,36 36,36 36,0" fill="#1EE3CF"><animate attributeType="XML" attributeName="fill" values="#1EE3CF;#159F91;#1EE3CF;#1EE3CF" dur="1.5s" repeatCount="indefinite"/></polygon></g><use href="#l0" x="240" y="120" /><use href="#d0" x="222" y="142" /><use href="#l0" x="240" y="200" /><use href="#d0" x="222" y="222" /><use href="#l0" x="240" y="280" /><use href="#d0" x="222" y="302" /><use href="#d0" x="262" y="22" /><use href="#d0" x="262" y="62" /><use href="#l0" x="280" y="120" /><use href="#d0" x="262" y="142" /><use href="#l0" x="280" y="200" /><use href="#d0" x="262" y="222" /><g transform="translate(262,262)"><use href="#p0" /><polygon points="0,0 0,36 36,36 36,0" fill="#1EE3CF"><animate attributeType="XML" attributeName="fill" values="#1EE3CF;#159F91;#1EE3CF;#1EE3CF" dur="1.6s" repeatCount="indefinite"/></polygon></g><g transform="translate(262,302)"><use href="#p0" /><polygon points="0,0 0,36 36,36 36,0" fill="#1EE3CF"><animate attributeType="XML" attributeName="fill" values="#1EE3CF;#159F91;#1EE3CF;#1EE3CF" dur="1.2s" repeatCount="indefinite"/></polygon></g><g transform="translate(320,40)"><use href="#b0" /><circle r="18" fill="#7209B7"><animate attributeType="XML" attributeName="fill" values="#7209B7;#F72585;#7209B7;#7209B7" dur="1.0s" repeatCount="indefinite"/></circle></g><g transform="translate(302,62)"><use href="#p0" /><polygon points="0,0 0,36 36,36 36,0" fill="#1EE3CF"><animate attributeType="XML" attributeName="fill" values="#1EE3CF;#159F91;#1EE3CF;#1EE3CF" dur="1.7s" repeatCount="indefinite"/></polygon></g><use href="#l0" x="320" y="120" /><use href="#d0" x="302" y="142" /><g transform="translate(320,200)"><use href="#b0" /><circle r="18" fill="#7209B7"><animate attributeType="XML" attributeName="fill" values="#7209B7;#F72585;#7209B7;#7209B7" dur="1.8s" repeatCount="indefinite"/></circle></g><g transform="translate(302,222)"><use href="#p0" /><polygon points="0,0 0,36 36,36 36,0" fill="#1EE3CF"><animate attributeType="XML" attributeName="fill" values="#1EE3CF;#159F91;#1EE3CF;#1EE3CF" dur="1.5s" repeatCount="indefinite"/></polygon></g><use href="#l0" x="320" y="280" /><g transform="translate(302,302)"><use href="#p0" /><polygon points="0,0 0,36 36,36 36,0" fill="#1EE3CF"><animate attributeType="XML" attributeName="fill" values="#1EE3CF;#159F91;#1EE3CF;#1EE3CF" dur="1.9s" repeatCount="indefinite"/></polygon></g></svg>