<svg width="360" height="360" xmlns="http://www.w3.org/2000/svg"><defs><animate id="aa" begin="0s"/><rect id="l0" width="36" height="36" fill="#fad643"></rect><circle id="d0" r="18" fill="#ffe169"></circle></defs><rect width="100%" height="100%" fill="#76520e" /><use href="#d0" x="40" y="40" /><g transform="translate(40,80)"><use href="#p0" /><circle r="18" fill="#dbb42c"><animate attributeType="XML" attributeName="fill" values="#dbb42c;#ffe169;#dbb42c;#dbb42c" dur="1s" begin="aa.begin +1s" repeatCount="indefinite"/></circle></g><use href="#l0" x="22" y="102" /><g transform="translate(22,142)"><use href="#b0" /><polygon points="0,0 0,36 36,36 36,0" fill="#a47e1b"><animate attributeType="XML" attributeName="fill" values="#a47e1b;#fad643;#a47e1b;#a47e1b" dur="1s" begin="aa.begin +1.5s" repeatCount="indefinite"/></polygon></g><use href="#d0" x="40" y="200" /><use href="#d0" x="40" y="240" /><use href="#l0" x="22" y="262" /><use href="#d0" x="40" y="320" /><g transform="translate(62,22)"><use href="#b0" /><polygon points="0,0 0,36 36,36 36,0" fill="#a47e1b"><animate attributeType="XML" attributeName="fill" values="#a47e1b;#fad643;#a47e1b;#a47e1b" dur="1s" begin="aa.begin +2s" repeatCount="indefinite"/></polygon></g><g transform="translate(80,80)"><use href="#p0" /><circle r="18" fill="#dbb42c"><animate attributeType="XML" attributeName="fill" values="#dbb42c;#ffe169;#dbb42c;#dbb42c" dur="1s" begin="aa.begin +s" repeatCount="indefinite"/></circle></g><use href="#d0" x="80" y="120" /><g transform="translate(62,142)"><use href="#b0" /><polygon points="0,0 0,36 36,36 36,0" fill="#a47e1b"><animate attributeType="XML" attributeName="fill" values="#a47e1b;#fad643;#a47e1b;#a47e1b" dur="1s" begin="aa.begin +2.5s" repeatCount="indefinite"/></polygon></g><use href="#d0" x="80" y="200" /><use href="#d0" x="80" y="240" /><use href="#l0" x="62" y="262" /><use href="#d0" x="80" y="320" /><use href="#d0" x="120" y="40" /><use href="#l0" x="102" y="62" /><g transform="translate(120,120)"><use href="#p0" /><circle r="18" fill="#dbb42c"><animate attributeType="XML" attributeName="fill" values="#dbb42c;#ffe169;#dbb42c;#dbb42c" dur="1s" begin="aa.begin +3s" repeatCount="indefinite"/></circle></g><g transform="translate(102,142)"><use href="#b0" /><polygon points="0,0 0,36 36,36 36,0" fill="#a47e1b"><animate attributeType="XML" attributeName="fill" values="#a47e1b;#fad643;#a47e1b;#a47e1b" dur="1s" begin="aa.begin +3.5s" repeatCount="indefinite"/></polygon></g><use href="#d0" x="120" y="200" /><use href="#d0" x="120" y="240" /><use href="#d0" x="120" y="280" /><use href="#l0" x="102" y="302" /><use href="#d0" x="160" y="40" /><use href="#d0" x="160" y="80" /><g transform="translate(160,120)"><use href="#p0" /><circle r="18" fill="#dbb42c"><animate attributeType="XML" attributeName="fill" values="#dbb42c;#ffe169;#dbb42c;#dbb42c" dur="1s" begin="aa.begin +4s" repeatCount="indefinite"/></circle></g><use href="#l0" x="142" y="142" /><use href="#d0" x="160" y="200" /><use href="#l0" x="142" y="222" /><use href="#d0" x="160" y="280" /><use href="#l0" x="142" y="302" /><use href="#l0" x="182" y="22" /><use href="#d0" x="200" y="80" /><use href="#l0" x="182" y="102" /><use href="#d0" x="200" y="160" /><use href="#l0" x="182" y="182" /><g transform="translate(182,222)"><use href="#b0" /><polygon points="0,0 0,36 36,36 36,0" fill="#a47e1b"><animate attributeType="XML" attributeName="fill" values="#a47e1b;#fad643;#a47e1b;#a47e1b" dur="1s" begin="aa.begin +4.5s" repeatCount="indefinite"/></polygon></g><use href="#l0" x="182" y="262" /><use href="#d0" x="200" y="320" /><use href="#l0" x="222" y="22" /><use href="#d0" x="240" y="80" /><use href="#l0" x="222" y="102" /><use href="#d0" x="240" y="160" /><use href="#d0" x="240" y="200" /><g transform="translate(222,222)"><use href="#b0" /><polygon points="0,0 0,36 36,36 36,0" fill="#a47e1b"><animate attributeType="XML" attributeName="fill" values="#a47e1b;#fad643;#a47e1b;#a47e1b" dur="1s" begin="aa.begin +5s" repeatCount="indefinite"/></polygon></g><g transform="translate(222,262)"><use href="#b0" /><polygon points="0,0 0,36 36,36 36,0" fill="#a47e1b"><animate attributeType="XML" attributeName="fill" values="#a47e1b;#fad643;#a47e1b;#a47e1b" dur="1s" begin="aa.begin +5.5s" repeatCount="indefinite"/></polygon></g><use href="#d0" x="240" y="320" /><use href="#l0" x="262" y="22" /><use href="#d0" x="280" y="80" /><use href="#l0" x="262" y="102" /><use href="#d0" x="280" y="160" /><use href="#d0" x="280" y="200" /><use href="#d0" x="280" y="240" /><g transform="translate(262,262)"><use href="#b0" /><polygon points="0,0 0,36 36,36 36,0" fill="#a47e1b"><animate attributeType="XML" attributeName="fill" values="#a47e1b;#fad643;#a47e1b;#a47e1b" dur="1s" begin="aa.begin +6s" repeatCount="indefinite"/></polygon></g><use href="#d0" x="280" y="320" /><use href="#l0" x="302" y="22" /><use href="#d0" x="320" y="80" /><g transform="translate(320,120)"><use href="#p0" /><circle r="18" fill="#dbb42c"><animate attributeType="XML" attributeName="fill" values="#dbb42c;#ffe169;#dbb42c;#dbb42c" dur="1s" begin="aa.begin +6.5s" repeatCount="indefinite"/></circle></g><use href="#l0" x="302" y="142" /><use href="#d0" x="320" y="200" /><use href="#d0" x="320" y="240" /><g transform="translate(302,262)"><use href="#b0" /><polygon points="0,0 0,36 36,36 36,0" fill="#a47e1b"><animate attributeType="XML" attributeName="fill" values="#a47e1b;#fad643;#a47e1b;#a47e1b" dur="1s" begin="aa.begin +7s" repeatCount="indefinite"/></polygon></g><g transform="translate(320,320)"><use href="#p0" /><circle r="18" fill="#dbb42c"><animate attributeType="XML" attributeName="fill" values="#dbb42c;#ffe169;#dbb42c;#dbb42c" dur="1s" begin="aa.begin +7.5s" repeatCount="indefinite"/></circle></g></svg>