<svg width="360" height="360" xmlns="http://www.w3.org/2000/svg"><defs><animate id="aa" begin="0s"/><rect id="d0" width="36" height="36" fill="#ffe169"></rect><circle id="l0" r="18" fill="#fad643"></circle></defs><rect width="100%" height="100%" fill="#76520e" /><use href="#d0" x="22" y="22" /><use href="#d0" x="22" y="62" /><use href="#l0" x="40" y="120" /><use href="#d0" x="22" y="142" /><use href="#l0" x="40" y="200" /><use href="#d0" x="22" y="222" /><g transform="translate(22,262)"><use href="#p0" /><polygon points="0,0 0,36 36,36 36,0" fill="#dbb42c"><animate attributeType="XML" attributeName="fill" values="#dbb42c;#ffe169;#dbb42c;#dbb42c" dur="1.0s" repeatCount="indefinite"/></polygon></g><g transform="translate(40,320)"><use href="#b0" /><circle r="18" fill="#a47e1b"><animate attributeType="XML" attributeName="fill" values="#a47e1b;#fad643;#a47e1b;#a47e1b" dur="1.0s" repeatCount="indefinite"/></circle></g><use href="#l0" x="80" y="40" /><g transform="translate(62,62)"><use href="#p0" /><polygon points="0,0 0,36 36,36 36,0" fill="#dbb42c"><animate attributeType="XML" attributeName="fill" values="#dbb42c;#ffe169;#dbb42c;#dbb42c" dur="1.1s" repeatCount="indefinite"/></polygon></g><use href="#l0" x="80" y="120" /><use href="#d0" x="62" y="142" /><use href="#l0" x="80" y="200" /><g transform="translate(80,240)"><use href="#b0" /><circle r="18" fill="#a47e1b"><animate attributeType="XML" attributeName="fill" values="#a47e1b;#fad643;#a47e1b;#a47e1b" dur="1.5s" repeatCount="indefinite"/></circle></g><g transform="translate(80,280)"><use href="#b0" /><circle r="18" fill="#a47e1b"><animate attributeType="XML" attributeName="fill" values="#a47e1b;#fad643;#a47e1b;#a47e1b" dur="1.6s" repeatCount="indefinite"/></circle></g><use href="#d0" x="62" y="302" /><use href="#d0" x="102" y="22" /><use href="#d0" x="102" y="62" /><g transform="translate(102,102)"><use href="#p0" /><polygon points="0,0 0,36 36,36 36,0" fill="#dbb42c"><animate attributeType="XML" attributeName="fill" values="#dbb42c;#ffe169;#dbb42c;#dbb42c" dur="1.4s" repeatCount="indefinite"/></polygon></g><use href="#d0" x="102" y="142" /><g transform="translate(102,182)"><use href="#p0" /><polygon points="0,0 0,36 36,36 36,0" fill="#dbb42c"><animate attributeType="XML" attributeName="fill" values="#dbb42c;#ffe169;#dbb42c;#dbb42c" dur="1.8s" repeatCount="indefinite"/></polygon></g><use href="#d0" x="102" y="222" /><use href="#d0" x="102" y="262" /><g transform="translate(102,302)"><use href="#p0" /><polygon points="0,0 0,36 36,36 36,0" fill="#dbb42c"><animate attributeType="XML" attributeName="fill" values="#dbb42c;#ffe169;#dbb42c;#dbb42c" dur="1.4s" repeatCount="indefinite"/></polygon></g><use href="#l0" x="160" y="40" /><use href="#d0" x="142" y="62" /><use href="#d0" x="142" y="102" /><use href="#d0" x="142" y="142" /><use href="#l0" x="160" y="200" /><use href="#l0" x="160" y="240" /><use href="#d0" x="142" y="262" /><g transform="translate(142,302)"><use href="#p0" /><polygon points="0,0 0,36 36,36 36,0" fill="#dbb42c"><animate attributeType="XML" attributeName="fill" values="#dbb42c;#ffe169;#dbb42c;#dbb42c" dur="1.1s" repeatCount="indefinite"/></polygon></g><use href="#d0" x="182" y="22" /><use href="#l0" x="200" y="80" /><use href="#d0" x="182" y="102" /><use href="#d0" x="182" y="142" /><use href="#l0" x="200" y="200" /><use href="#d0" x="182" y="222" /><use href="#d0" x="182" y="262" /><use href="#d0" x="182" y="302" /><use href="#l0" x="240" y="40" /><use href="#l0" x="240" y="80" /><use href="#d0" x="222" y="102" /><use href="#d0" x="222" y="142" /><g transform="translate(240,200)"><use href="#b0" /><circle r="18" fill="#a47e1b"><animate attributeType="XML" attributeName="fill" values="#a47e1b;#fad643;#a47e1b;#a47e1b" dur="1.0s" repeatCount="indefinite"/></circle></g><use href="#l0" x="240" y="240" /><g transform="translate(240,280)"><use href="#b0" /><circle r="18" fill="#a47e1b"><animate attributeType="XML" attributeName="fill" values="#a47e1b;#fad643;#a47e1b;#a47e1b" dur="1.0s" repeatCount="indefinite"/></circle></g><g transform="translate(240,320)"><use href="#b0" /><circle r="18" fill="#a47e1b"><animate attributeType="XML" attributeName="fill" values="#a47e1b;#fad643;#a47e1b;#a47e1b" dur="1.5s" repeatCount="indefinite"/></circle></g><use href="#d0" x="262" y="22" /><use href="#d0" x="262" y="62" /><use href="#d0" x="262" y="102" /><use href="#d0" x="262" y="142" /><use href="#d0" x="262" y="182" /><g transform="translate(262,222)"><use href="#p0" /><polygon points="0,0 0,36 36,36 36,0" fill="#dbb42c"><animate attributeType="XML" attributeName="fill" values="#dbb42c;#ffe169;#dbb42c;#dbb42c" dur="1.0s" repeatCount="indefinite"/></polygon></g><use href="#d0" x="262" y="262" /><g transform="translate(262,302)"><use href="#p0" /><polygon points="0,0 0,36 36,36 36,0" fill="#dbb42c"><animate attributeType="XML" attributeName="fill" values="#dbb42c;#ffe169;#dbb42c;#dbb42c" dur="1.2s" repeatCount="indefinite"/></polygon></g><use href="#l0" x="320" y="40" /><use href="#l0" x="320" y="80" /><use href="#d0" x="302" y="102" /><g transform="translate(320,160)"><use href="#b0" /><circle r="18" fill="#a47e1b"><animate attributeType="XML" attributeName="fill" values="#a47e1b;#fad643;#a47e1b;#a47e1b" dur="1.1s" repeatCount="indefinite"/></circle></g><use href="#l0" x="320" y="200" /><g transform="translate(320,240)"><use href="#b0" /><circle r="18" fill="#a47e1b"><animate attributeType="XML" attributeName="fill" values="#a47e1b;#fad643;#a47e1b;#a47e1b" dur="1.5s" repeatCount="indefinite"/></circle></g><use href="#l0" x="320" y="280" /><g transform="translate(320,320)"><use href="#b0" /><circle r="18" fill="#a47e1b"><animate attributeType="XML" attributeName="fill" values="#a47e1b;#fad643;#a47e1b;#a47e1b" dur="1.9s" repeatCount="indefinite"/></circle></g></svg>