<svg width="360" height="360" xmlns="http://www.w3.org/2000/svg"><defs><animate id="aa" begin="0s"/><circle id="l0" r="18" fill="#0f3375"></circle><circle id="d0" r="18" fill="#cce4fd"></circle></defs><rect width="100%" height="100%" fill="#e8f3fe" /><use href="#l0" x="40" y="40" /><use href="#d0" x="40" y="80" /><g transform="translate(40,120)"><use href="#b0" /><circle r="18" fill="#1557c0"><animate attributeType="XML" attributeName="fill" values="#1557c0;#0f3375;#1557c0;#1557c0" dur="4s" begin="aa.begin +1s" repeatCount="indefinite"/></circle></g><use href="#l0" x="40" y="160" /><use href="#d0" x="40" y="200" /><use href="#l0" x="40" y="240" /><use href="#d0" x="40" y="280" /><use href="#d0" x="40" y="320" /><use href="#l0" x="80" y="40" /><use href="#d0" x="80" y="80" /><use href="#l0" x="80" y="120" /><use href="#d0" x="80" y="160" /><use href="#l0" x="80" y="200" /><use href="#d0" x="80" y="240" /><use href="#l0" x="80" y="280" /><use href="#d0" x="80" y="320" /><use href="#l0" x="120" y="40" /><use href="#d0" x="120" y="80" /><use href="#d0" x="120" y="120" /><use href="#d0" x="120" y="160" /><use href="#l0" x="120" y="200" /><use href="#d0" x="120" y="240" /><use href="#l0" x="120" y="280" /><use href="#d0" x="120" y="320" /><use href="#l0" x="160" y="40" /><use href="#d0" x="160" y="80" /><g transform="translate(160,120)"><use href="#b0" /><circle r="18" fill="#1557c0"><animate attributeType="XML" attributeName="fill" values="#1557c0;#0f3375;#1557c0;#1557c0" dur="4s" begin="aa.begin +1.5s" repeatCount="indefinite"/></circle></g><use href="#d0" x="160" y="160" /><use href="#l0" x="160" y="200" /><use href="#d0" x="160" y="240" /><use href="#l0" x="160" y="280" /><use href="#d0" x="160" y="320" /><use href="#l0" x="200" y="40" /><g transform="translate(200,80)"><use href="#p0" /><circle r="18" fill="#a4cefc"><animate attributeType="XML" attributeName="fill" values="#a4cefc;#cce4fd;#a4cefc;#a4cefc" dur="4s" begin="aa.begin +2s" repeatCount="indefinite"/></circle></g><use href="#l0" x="200" y="120" /><use href="#l0" x="200" y="160" /><use href="#d0" x="200" y="200" /><use href="#l0" x="200" y="240" /><use href="#d0" x="200" y="280" /><use href="#d0" x="200" y="320" /><use href="#d0" x="240" y="40" /><g transform="translate(240,80)"><use href="#b0" /><circle r="18" fill="#1557c0"><animate attributeType="XML" attributeName="fill" values="#1557c0;#0f3375;#1557c0;#1557c0" dur="4s" begin="aa.begin +s" repeatCount="indefinite"/></circle></g><use href="#d0" x="240" y="120" /><use href="#d0" x="240" y="160" /><use href="#d0" x="240" y="200" /><use href="#l0" x="240" y="240" /><use href="#d0" x="240" y="280" /><use href="#l0" x="240" y="320" /><use href="#d0" x="280" y="40" /><use href="#l0" x="280" y="80" /><g transform="translate(280,120)"><use href="#b0" /><circle r="18" fill="#1557c0"><animate attributeType="XML" attributeName="fill" values="#1557c0;#0f3375;#1557c0;#1557c0" dur="4s" begin="aa.begin +2.5s" repeatCount="indefinite"/></circle></g><use href="#d0" x="280" y="160" /><g transform="translate(280,200)"><use href="#b0" /><circle r="18" fill="#1557c0"><animate attributeType="XML" attributeName="fill" values="#1557c0;#0f3375;#1557c0;#1557c0" dur="4s" begin="aa.begin +3s" repeatCount="indefinite"/></circle></g><use href="#l0" x="280" y="240" /><use href="#d0" x="280" y="280" /><use href="#l0" x="280" y="320" /><use href="#d0" x="320" y="40" /><g transform="translate(320,80)"><use href="#p0" /><circle r="18" fill="#a4cefc"><animate attributeType="XML" attributeName="fill" values="#a4cefc;#cce4fd;#a4cefc;#a4cefc" dur="4s" begin="aa.begin +3.5s" repeatCount="indefinite"/></circle></g><use href="#d0" x="320" y="120" /><use href="#d0" x="320" y="160" /><use href="#d0" x="320" y="200" /><use href="#l0" x="320" y="240" /><use href="#d0" x="320" y="280" /><use href="#l0" x="320" y="320" /></svg>