<svg width="360" height="360" xmlns="http://www.w3.org/2000/svg"><defs><animate id="aa" begin="0s"/><rect id="l0" width="36" height="36" fill="#ED254E"></rect><circle id="d0" r="18" fill="#ef4043"></circle></defs><rect width="100%" height="100%" fill="#FF3C38" /><use href="#l0" x="22" y="22" /><use href="#d0" x="40" y="80" /><use href="#l0" x="22" y="102" /><use href="#d0" x="40" y="160" /><g transform="translate(22,182)"><use href="#b0" /><polygon points="0,0 0,36 36,36 36,0" fill="#ff0059"><animate attributeType="XML" attributeName="fill" values="#ff0059;#ED254E;#ff0059;#ff0059" dur="2.0s" repeatCount="indefinite"/></polygon></g><g transform="translate(22,222)"><use href="#b0" /><polygon points="0,0 0,36 36,36 36,0" fill="#ff0059"><animate attributeType="XML" attributeName="fill" values="#ff0059;#ED254E;#ff0059;#ff0059" dur="2.0s" repeatCount="indefinite"/></polygon></g><g transform="translate(22,262)"><use href="#b0" /><polygon points="0,0 0,36 36,36 36,0" fill="#ff0059"><animate attributeType="XML" attributeName="fill" values="#ff0059;#ED254E;#ff0059;#ff0059" dur="2.0s" repeatCount="indefinite"/></polygon></g><g transform="translate(22,302)"><use href="#b0" /><polygon points="0,0 0,36 36,36 36,0" fill="#ff0059"><animate attributeType="XML" attributeName="fill" values="#ff0059;#ED254E;#ff0059;#ff0059" dur="2.0s" repeatCount="indefinite"/></polygon></g><use href="#d0" x="80" y="40" /><use href="#l0" x="62" y="62" /><use href="#d0" x="80" y="120" /><g transform="translate(80,160)"><use href="#p0" /><circle r="18" fill="#FF1053"><animate attributeType="XML" attributeName="fill" values="#FF1053;#ef4043;#FF1053;#FF1053" dur="2.3s" repeatCount="indefinite"/></circle></g><g transform="translate(80,200)"><use href="#p0" /><circle r="18" fill="#FF1053"><animate attributeType="XML" attributeName="fill" values="#FF1053;#ef4043;#FF1053;#FF1053" dur="2.4s" repeatCount="indefinite"/></circle></g><g transform="translate(80,240)"><use href="#p0" /><circle r="18" fill="#FF1053"><animate attributeType="XML" attributeName="fill" values="#FF1053;#ef4043;#FF1053;#FF1053" dur="2.5s" repeatCount="indefinite"/></circle></g><use href="#d0" x="80" y="280" /><g transform="translate(80,320)"><use href="#p0" /><circle r="18" fill="#FF1053"><animate attributeType="XML" attributeName="fill" values="#FF1053;#ef4043;#FF1053;#FF1053" dur="2.7s" repeatCount="indefinite"/></circle></g><use href="#d0" x="120" y="40" /><use href="#l0" x="102" y="62" /><use href="#d0" x="120" y="120" /><use href="#l0" x="102" y="142" /><use href="#d0" x="120" y="200" /><use href="#d0" x="120" y="240" /><use href="#l0" x="102" y="262" /><use href="#l0" x="102" y="302" /><use href="#d0" x="160" y="40" /><use href="#l0" x="142" y="62" /><use href="#d0" x="160" y="120" /><use href="#l0" x="142" y="142" /><use href="#l0" x="142" y="182" /><g transform="translate(160,240)"><use href="#p0" /><circle r="18" fill="#FF1053"><animate attributeType="XML" attributeName="fill" values="#FF1053;#ef4043;#FF1053;#FF1053" dur="2.5s" repeatCount="indefinite"/></circle></g><g transform="translate(160,280)"><use href="#p0" /><circle r="18" fill="#FF1053"><animate attributeType="XML" attributeName="fill" values="#FF1053;#ef4043;#FF1053;#FF1053" dur="2.8s" repeatCount="indefinite"/></circle></g><use href="#d0" x="160" y="320" /><g transform="translate(200,40)"><use href="#p0" /><circle r="18" fill="#FF1053"><animate attributeType="XML" attributeName="fill" values="#FF1053;#ef4043;#FF1053;#FF1053" dur="2.0s" repeatCount="indefinite"/></circle></g><use href="#l0" x="182" y="62" /><use href="#d0" x="200" y="120" /><use href="#d0" x="200" y="160" /><use href="#d0" x="200" y="200" /><use href="#d0" x="200" y="240" /><use href="#l0" x="182" y="262" /><use href="#l0" x="182" y="302" /><use href="#l0" x="222" y="22" /><use href="#d0" x="240" y="80" /><use href="#l0" x="222" y="102" /><use href="#l0" x="222" y="142" /><use href="#l0" x="222" y="182" /><use href="#l0" x="222" y="222" /><use href="#l0" x="222" y="262" /><use href="#d0" x="240" y="320" /><use href="#d0" x="280" y="40" /><use href="#d0" x="280" y="80" /><use href="#l0" x="262" y="102" /><use href="#d0" x="280" y="160" /><g transform="translate(262,182)"><use href="#b0" /><polygon points="0,0 0,36 36,36 36,0" fill="#ff0059"><animate attributeType="XML" attributeName="fill" values="#ff0059;#ED254E;#ff0059;#ff0059" dur="2.4s" repeatCount="indefinite"/></polygon></g><use href="#d0" x="280" y="240" /><use href="#d0" x="280" y="280" /><use href="#d0" x="280" y="320" /><use href="#d0" x="320" y="40" /><use href="#d0" x="320" y="80" /><use href="#l0" x="302" y="102" /><use href="#d0" x="320" y="160" /><g transform="translate(302,182)"><use href="#b0" /><polygon points="0,0 0,36 36,36 36,0" fill="#ff0059"><animate attributeType="XML" attributeName="fill" values="#ff0059;#ED254E;#ff0059;#ff0059" dur="2.8s" repeatCount="indefinite"/></polygon></g><use href="#d0" x="320" y="240" /><g transform="translate(302,262)"><use href="#b0" /><polygon points="0,0 0,36 36,36 36,0" fill="#ff0059"><animate attributeType="XML" attributeName="fill" values="#ff0059;#ED254E;#ff0059;#ff0059" dur="2.2s" repeatCount="indefinite"/></polygon></g><use href="#d0" x="320" y="320" /></svg>