<svg width="360" height="360" xmlns="http://www.w3.org/2000/svg"><defs><animate id="aa" begin="0s"/><rect id="d0" width="36" height="36" fill="#fdc500"></rect><circle id="l0" r="18" fill="#3d0066"></circle></defs><rect width="100%" height="100%" fill="#ffee32" /><use href="#d0" x="22" y="22" /><use href="#d0" x="22" y="62" /><use href="#d0" x="22" y="102" /><use href="#l0" x="40" y="160" /><use href="#l0" x="40" y="200" /><use href="#d0" x="22" y="222" /><use href="#d0" x="22" y="262" /><use href="#d0" x="22" y="302" /><use href="#d0" x="62" y="22" /><use href="#d0" x="62" y="62" /><use href="#l0" x="80" y="120" /><use href="#d0" x="62" y="142" /><use href="#d0" x="62" y="182" /><use href="#d0" x="62" y="222" /><use href="#l0" x="80" y="280" /><use href="#l0" x="80" y="320" /><use href="#d0" x="102" y="22" /><use href="#d0" x="102" y="62" /><use href="#l0" x="120" y="120" /><use href="#l0" x="120" y="160" /><use href="#l0" x="120" y="200" /><use href="#l0" x="120" y="240" /><use href="#d0" x="102" y="262" /><use href="#l0" x="120" y="320" /><use href="#l0" x="160" y="40" /><use href="#d0" x="142" y="62" /><use href="#d0" x="142" y="102" /><use href="#d0" x="142" y="142" /><use href="#d0" x="142" y="182" /><use href="#d0" x="142" y="222" /><use href="#d0" x="142" y="262" /><use href="#d0" x="142" y="302" /><use href="#d0" x="182" y="22" /><use href="#l0" x="200" y="80" /><use href="#l0" x="200" y="120" /><use href="#l0" x="200" y="160" /><use href="#l0" x="200" y="200" /><use href="#l0" x="200" y="240" /><use href="#d0" x="182" y="262" /><use href="#d0" x="182" y="302" /><use href="#l0" x="240" y="40" /><use href="#d0" x="222" y="62" /><use href="#d0" x="222" y="102" /><use href="#d0" x="222" y="142" /><use href="#l0" x="240" y="200" /><use href="#d0" x="222" y="222" /><use href="#l0" x="240" y="280" /><use href="#d0" x="222" y="302" /><use href="#d0" x="262" y="22" /><use href="#l0" x="280" y="80" /><use href="#d0" x="262" y="102" /><use href="#d0" x="262" y="142" /><use href="#d0" x="262" y="182" /><use href="#d0" x="262" y="222" /><use href="#l0" x="280" y="280" /><use href="#d0" x="262" y="302" /><use href="#d0" x="302" y="22" /><use href="#d0" x="302" y="62" /><use href="#d0" x="302" y="102" /><use href="#l0" x="320" y="160" /><use href="#l0" x="320" y="200" /><use href="#l0" x="320" y="240" /><use href="#d0" x="302" y="262" /><use href="#d0" x="302" y="302" /></svg>