<svg width="360" height="360" xmlns="http://www.w3.org/2000/svg"><defs><animate id="aa" begin="0s"/><rect id="l0" width="36" height="36" fill="#9500ff"></rect><rect id="d0" width="36" height="36" fill="#ff0059"></rect></defs><rect width="100%" height="100%" fill="#0fffdb" /><use href="#l0" x="22" y="22" /><use href="#l0" x="22" y="62" /><use href="#d0" x="22" y="102" /><use href="#l0" x="22" y="142" /><use href="#l0" x="22" y="182" /><use href="#d0" x="22" y="222" /><use href="#l0" x="22" y="262" /><use href="#d0" x="22" y="302" /><use href="#l0" x="62" y="22" /><use href="#d0" x="62" y="62" /><use href="#d0" x="62" y="102" /><use href="#d0" x="62" y="142" /><use href="#l0" x="62" y="182" /><use href="#d0" x="62" y="222" /><use href="#l0" x="62" y="262" /><use href="#d0" x="62" y="302" /><use href="#l0" x="102" y="22" /><use href="#d0" x="102" y="62" /><use href="#d0" x="102" y="102" /><use href="#d0" x="102" y="142" /><use href="#l0" x="102" y="182" /><use href="#d0" x="102" y="222" /><use href="#l0" x="102" y="262" /><use href="#d0" x="102" y="302" /><g transform="translate(142,22)"><use href="#b0" /><polygon points="0,0 0,36 36,36 36,0" fill="#9500ff"><animate attributeType="XML" attributeName="fill" values="#9500ff;#9500ff;#9500ff;#9500ff" dur="0.0s" repeatCount="indefinite"/></polygon></g><g transform="translate(142,62)"><use href="#p0" /><polygon points="0,0 0,36 36,36 36,0" fill="#ff8c00"><animate attributeType="XML" attributeName="fill" values="#ff8c00;#ff0059;#ff8c00;#ff8c00" dur="0.3s" repeatCount="indefinite"/></polygon></g><g transform="translate(142,102)"><use href="#p0" /><polygon points="0,0 0,36 36,36 36,0" fill="#ff8c00"><animate attributeType="XML" attributeName="fill" values="#ff8c00;#ff0059;#ff8c00;#ff8c00" dur="0.6s" repeatCount="indefinite"/></polygon></g><use href="#d0" x="142" y="142" /><use href="#l0" x="142" y="182" /><use href="#d0" x="142" y="222" /><use href="#l0" x="142" y="262" /><use href="#d0" x="142" y="302" /><g transform="translate(182,22)"><use href="#b0" /><polygon points="0,0 0,36 36,36 36,0" fill="#9500ff"><animate attributeType="XML" attributeName="fill" values="#9500ff;#9500ff;#9500ff;#9500ff" dur="0.0s" repeatCount="indefinite"/></polygon></g><use href="#d0" x="182" y="62" /><g transform="translate(182,102)"><use href="#p0" /><polygon points="0,0 0,36 36,36 36,0" fill="#ff8c00"><animate attributeType="XML" attributeName="fill" values="#ff8c00;#ff0059;#ff8c00;#ff8c00" dur="0.8s" repeatCount="indefinite"/></polygon></g><use href="#d0" x="182" y="142" /><use href="#l0" x="182" y="182" /><use href="#d0" x="182" y="222" /><use href="#l0" x="182" y="262" /><g transform="translate(182,302)"><use href="#p0" /><polygon points="0,0 0,36 36,36 36,0" fill="#ff8c00"><animate attributeType="XML" attributeName="fill" values="#ff8c00;#ff0059;#ff8c00;#ff8c00" dur="0.8s" repeatCount="indefinite"/></polygon></g><use href="#l0" x="222" y="22" /><use href="#d0" x="222" y="62" /><g transform="translate(222,102)"><use href="#p0" /><polygon points="0,0 0,36 36,36 36,0" fill="#ff8c00"><animate attributeType="XML" attributeName="fill" values="#ff8c00;#ff0059;#ff8c00;#ff8c00" dur="0.0s" repeatCount="indefinite"/></polygon></g><g transform="translate(222,142)"><use href="#b0" /><polygon points="0,0 0,36 36,36 36,0" fill="#9500ff"><animate attributeType="XML" attributeName="fill" values="#9500ff;#9500ff;#9500ff;#9500ff" dur="0.5s" repeatCount="indefinite"/></polygon></g><use href="#l0" x="222" y="182" /><use href="#d0" x="222" y="222" /><use href="#d0" x="222" y="262" /><use href="#d0" x="222" y="302" /><use href="#l0" x="262" y="22" /><g transform="translate(262,62)"><use href="#b0" /><polygon points="0,0 0,36 36,36 36,0" fill="#9500ff"><animate attributeType="XML" attributeName="fill" values="#9500ff;#9500ff;#9500ff;#9500ff" dur="0.6s" repeatCount="indefinite"/></polygon></g><use href="#d0" x="262" y="102" /><use href="#d0" x="262" y="142" /><use href="#l0" x="262" y="182" /><use href="#d0" x="262" y="222" /><g transform="translate(262,262)"><use href="#p0" /><polygon points="0,0 0,36 36,36 36,0" fill="#ff8c00"><animate attributeType="XML" attributeName="fill" values="#ff8c00;#ff0059;#ff8c00;#ff8c00" dur="0.6s" repeatCount="indefinite"/></polygon></g><use href="#d0" x="262" y="302" /><g transform="translate(302,22)"><use href="#p0" /><polygon points="0,0 0,36 36,36 36,0" fill="#ff8c00"><animate attributeType="XML" attributeName="fill" values="#ff8c00;#ff0059;#ff8c00;#ff8c00" dur="0.0s" repeatCount="indefinite"/></polygon></g><use href="#d0" x="302" y="62" /><g transform="translate(302,102)"><use href="#b0" /><polygon points="0,0 0,36 36,36 36,0" fill="#9500ff"><animate attributeType="XML" attributeName="fill" values="#9500ff;#9500ff;#9500ff;#9500ff" dur="0.4s" repeatCount="indefinite"/></polygon></g><use href="#d0" x="302" y="142" /><use href="#l0" x="302" y="182" /><use href="#d0" x="302" y="222" /><g transform="translate(302,262)"><use href="#p0" /><polygon points="0,0 0,36 36,36 36,0" fill="#ff8c00"><animate attributeType="XML" attributeName="fill" values="#ff8c00;#ff0059;#ff8c00;#ff8c00" dur="0.2s" repeatCount="indefinite"/></polygon></g><g transform="translate(302,302)"><use href="#b0" /><polygon points="0,0 0,36 36,36 36,0" fill="#9500ff"><animate attributeType="XML" attributeName="fill" values="#9500ff;#9500ff;#9500ff;#9500ff" dur="0.9s" repeatCount="indefinite"/></polygon></g></svg>