<svg width="360" height="360" xmlns="http://www.w3.org/2000/svg"><defs><animate id="aa" begin="0s"/><rect id="d0" width="36" height="36" fill="#cce4fd"></rect><circle id="l0" r="18" fill="#0f3375"></circle></defs><rect width="100%" height="100%" fill="#e8f3fe" /><use href="#d0" x="22" y="22" /><use href="#d0" x="22" y="62" /><use href="#l0" x="40" y="120" /><use href="#d0" x="22" y="142" /><use href="#l0" x="40" y="200" /><use href="#l0" x="40" y="240" /><use href="#d0" x="22" y="262" /><use href="#l0" x="40" y="320" /><use href="#d0" x="62" y="22" /><use href="#l0" x="80" y="80" /><use href="#d0" x="62" y="102" /><use href="#l0" x="80" y="160" /><use href="#d0" x="62" y="182" /><use href="#l0" x="80" y="240" /><use href="#d0" x="62" y="262" /><use href="#l0" x="80" y="320" /><use href="#d0" x="102" y="22" /><use href="#l0" x="120" y="80" /><use href="#d0" x="102" y="102" /><use href="#l0" x="120" y="160" /><use href="#d0" x="102" y="182" /><use href="#d0" x="102" y="222" /><use href="#d0" x="102" y="262" /><use href="#l0" x="120" y="320" /><use href="#d0" x="142" y="22" /><use href="#l0" x="160" y="80" /><use href="#d0" x="142" y="102" /><use href="#l0" x="160" y="160" /><use href="#l0" x="160" y="200" /><use href="#d0" x="142" y="222" /><use href="#d0" x="142" y="262" /><use href="#l0" x="160" y="320" /><use href="#d0" x="182" y="22" /><use href="#l0" x="200" y="80" /><use href="#d0" x="182" y="102" /><g transform="translate(182,142)"><use href="#p0" /><polygon points="0,0 0,36 36,36 36,0" fill="#a4cefc"><animate attributeType="XML" attributeName="fill" values="#a4cefc;#cce4fd;#a4cefc;#a4cefc" dur="0.2s" repeatCount="indefinite"/></polygon></g><use href="#d0" x="182" y="182" /><use href="#d0" x="182" y="222" /><use href="#l0" x="200" y="280" /><use href="#l0" x="200" y="320" /><use href="#d0" x="222" y="22" /><use href="#l0" x="240" y="80" /><use href="#d0" x="222" y="102" /><use href="#l0" x="240" y="160" /><g transform="translate(222,182)"><use href="#p0" /><polygon points="0,0 0,36 36,36 36,0" fill="#a4cefc"><animate attributeType="XML" attributeName="fill" values="#a4cefc;#cce4fd;#a4cefc;#a4cefc" dur="0.0s" repeatCount="indefinite"/></polygon></g><g transform="translate(240,240)"><use href="#b0" /><circle r="18" fill="#1557c0"><animate attributeType="XML" attributeName="fill" values="#1557c0;#0f3375;#1557c0;#1557c0" dur="0.5s" repeatCount="indefinite"/></circle></g><g transform="translate(222,262)"><use href="#p0" /><polygon points="0,0 0,36 36,36 36,0" fill="#a4cefc"><animate attributeType="XML" attributeName="fill" values="#a4cefc;#cce4fd;#a4cefc;#a4cefc" dur="0.0s" repeatCount="indefinite"/></polygon></g><use href="#d0" x="222" y="302" /><use href="#l0" x="280" y="40" /><use href="#d0" x="262" y="62" /><use href="#l0" x="280" y="120" /><g transform="translate(280,160)"><use href="#b0" /><circle r="18" fill="#1557c0"><animate attributeType="XML" attributeName="fill" values="#1557c0;#0f3375;#1557c0;#1557c0" dur="0.8s" repeatCount="indefinite"/></circle></g><g transform="translate(280,200)"><use href="#b0" /><circle r="18" fill="#1557c0"><animate attributeType="XML" attributeName="fill" values="#1557c0;#0f3375;#1557c0;#1557c0" dur="0.4s" repeatCount="indefinite"/></circle></g><use href="#d0" x="262" y="222" /><use href="#l0" x="280" y="280" /><use href="#d0" x="262" y="302" /><use href="#l0" x="320" y="40" /><use href="#d0" x="302" y="62" /><use href="#l0" x="320" y="120" /><use href="#d0" x="302" y="142" /><use href="#d0" x="302" y="182" /><use href="#d0" x="302" y="222" /><use href="#l0" x="320" y="280" /><use href="#d0" x="302" y="302" /></svg>