<svg width="360" height="360" xmlns="http://www.w3.org/2000/svg"><defs><animate id="aa" begin="0s"/><rect id="l0" width="36" height="36" fill="#310055"></rect><circle id="d0" r="18" fill="#d283ff"></circle></defs><rect width="100%" height="100%" fill="#dc97ff" /><use href="#l0" x="22" y="22" /><use href="#l0" x="22" y="62" /><use href="#l0" x="22" y="102" /><use href="#l0" x="22" y="142" /><g transform="translate(40,200)"><use href="#p0" /><circle r="18" fill="#d283ff"><animate attributeType="XML" attributeName="fill" values="#d283ff;#d283ff;#d283ff;#d283ff" dur="0.0s" repeatCount="indefinite"/></circle></g><use href="#d0" x="40" y="240" /><use href="#l0" x="22" y="262" /><use href="#d0" x="40" y="320" /><use href="#d0" x="80" y="40" /><use href="#d0" x="80" y="80" /><use href="#d0" x="80" y="120" /><use href="#d0" x="80" y="160" /><use href="#d0" x="80" y="200" /><g transform="translate(62,222)"><use href="#b0" /><polygon points="0,0 0,36 36,36 36,0" fill="#8b2fc9"><animate attributeType="XML" attributeName="fill" values="#8b2fc9;#310055;#8b2fc9;#8b2fc9" dur="0.5s" repeatCount="indefinite"/></polygon></g><use href="#d0" x="80" y="280" /><use href="#l0" x="62" y="302" /><use href="#l0" x="102" y="22" /><use href="#l0" x="102" y="62" /><use href="#l0" x="102" y="102" /><use href="#l0" x="102" y="142" /><use href="#l0" x="102" y="182" /><use href="#l0" x="102" y="222" /><use href="#d0" x="120" y="280" /><use href="#d0" x="120" y="320" /><use href="#l0" x="142" y="22" /><use href="#d0" x="160" y="80" /><use href="#d0" x="160" y="120" /><use href="#d0" x="160" y="160" /><g transform="translate(142,182)"><use href="#b0" /><polygon points="0,0 0,36 36,36 36,0" fill="#8b2fc9"><animate attributeType="XML" attributeName="fill" values="#8b2fc9;#310055;#8b2fc9;#8b2fc9" dur="0.2s" repeatCount="indefinite"/></polygon></g><use href="#d0" x="160" y="240" /><use href="#l0" x="142" y="262" /><use href="#d0" x="160" y="320" /><g transform="translate(200,40)"><use href="#p0" /><circle r="18" fill="#d283ff"><animate attributeType="XML" attributeName="fill" values="#d283ff;#d283ff;#d283ff;#d283ff" dur="0.0s" repeatCount="indefinite"/></circle></g><g transform="translate(182,62)"><use href="#b0" /><polygon points="0,0 0,36 36,36 36,0" fill="#8b2fc9"><animate attributeType="XML" attributeName="fill" values="#8b2fc9;#310055;#8b2fc9;#8b2fc9" dur="0.4s" repeatCount="indefinite"/></polygon></g><use href="#l0" x="182" y="102" /><g transform="translate(182,142)"><use href="#b0" /><polygon points="0,0 0,36 36,36 36,0" fill="#8b2fc9"><animate attributeType="XML" attributeName="fill" values="#8b2fc9;#310055;#8b2fc9;#8b2fc9" dur="0.2s" repeatCount="indefinite"/></polygon></g><g transform="translate(182,182)"><use href="#b0" /><polygon points="0,0 0,36 36,36 36,0" fill="#8b2fc9"><animate attributeType="XML" attributeName="fill" values="#8b2fc9;#310055;#8b2fc9;#8b2fc9" dur="0.6s" repeatCount="indefinite"/></polygon></g><use href="#d0" x="200" y="240" /><use href="#l0" x="182" y="262" /><use href="#d0" x="200" y="320" /><g transform="translate(222,22)"><use href="#b0" /><polygon points="0,0 0,36 36,36 36,0" fill="#8b2fc9"><animate attributeType="XML" attributeName="fill" values="#8b2fc9;#310055;#8b2fc9;#8b2fc9" dur="0.0s" repeatCount="indefinite"/></polygon></g><use href="#d0" x="240" y="80" /><g transform="translate(240,120)"><use href="#p0" /><circle r="18" fill="#d283ff"><animate attributeType="XML" attributeName="fill" values="#d283ff;#d283ff;#d283ff;#d283ff" dur="0.0s" repeatCount="indefinite"/></circle></g><use href="#d0" x="240" y="160" /><g transform="translate(222,182)"><use href="#b0" /><polygon points="0,0 0,36 36,36 36,0" fill="#8b2fc9"><animate attributeType="XML" attributeName="fill" values="#8b2fc9;#310055;#8b2fc9;#8b2fc9" dur="0.0s" repeatCount="indefinite"/></polygon></g><g transform="translate(240,240)"><use href="#p0" /><circle r="18" fill="#d283ff"><animate attributeType="XML" attributeName="fill" values="#d283ff;#d283ff;#d283ff;#d283ff" dur="0.5s" repeatCount="indefinite"/></circle></g><use href="#l0" x="222" y="262" /><use href="#d0" x="240" y="320" /><g transform="translate(262,22)"><use href="#b0" /><polygon points="0,0 0,36 36,36 36,0" fill="#8b2fc9"><animate attributeType="XML" attributeName="fill" values="#8b2fc9;#310055;#8b2fc9;#8b2fc9" dur="0.0s" repeatCount="indefinite"/></polygon></g><use href="#l0" x="262" y="62" /><g transform="translate(280,120)"><use href="#p0" /><circle r="18" fill="#d283ff"><animate attributeType="XML" attributeName="fill" values="#d283ff;#d283ff;#d283ff;#d283ff" dur="0.2s" repeatCount="indefinite"/></circle></g><use href="#d0" x="280" y="160" /><use href="#d0" x="280" y="200" /><use href="#d0" x="280" y="240" /><use href="#l0" x="262" y="262" /><g transform="translate(280,320)"><use href="#p0" /><circle r="18" fill="#d283ff"><animate attributeType="XML" attributeName="fill" values="#d283ff;#d283ff;#d283ff;#d283ff" dur="0.2s" repeatCount="indefinite"/></circle></g><use href="#d0" x="320" y="40" /><use href="#d0" x="320" y="80" /><use href="#d0" x="320" y="120" /><use href="#d0" x="320" y="160" /><use href="#d0" x="320" y="200" /><g transform="translate(302,222)"><use href="#b0" /><polygon points="0,0 0,36 36,36 36,0" fill="#8b2fc9"><animate attributeType="XML" attributeName="fill" values="#8b2fc9;#310055;#8b2fc9;#8b2fc9" dur="0.5s" repeatCount="indefinite"/></polygon></g><use href="#l0" x="302" y="262" /><use href="#d0" x="320" y="320" /></svg>