<svg width="360" height="360" xmlns="http://www.w3.org/2000/svg"><defs><animate id="aa" begin="0s"/><rect id="d0" width="36" height="36" fill="#6f6269"></rect><circle id="l0" r="18" fill="#000000"></circle></defs><rect width="100%" height="100%" fill="#0c226e" /><use href="#l0" x="40" y="40" /><use href="#d0" x="22" y="62" /><use href="#l0" x="40" y="120" /><use href="#d0" x="22" y="142" /><use href="#l0" x="40" y="200" /><use href="#d0" x="22" y="222" /><use href="#d0" x="22" y="262" /><g transform="translate(40,320)"><use href="#b0" /><circle r="18" fill="#ccc0c4"><animate attributeType="XML" attributeName="fill" values="#ccc0c4;#000000;#ccc0c4;#ccc0c4" dur="1s" begin="aa.begin +1s" repeatCount="indefinite"/></circle></g><use href="#l0" x="80" y="40" /><use href="#d0" x="62" y="62" /><use href="#l0" x="80" y="120" /><use href="#d0" x="62" y="142" /><use href="#l0" x="80" y="200" /><g transform="translate(80,240)"><use href="#b0" /><circle r="18" fill="#ccc0c4"><animate attributeType="XML" attributeName="fill" values="#ccc0c4;#000000;#ccc0c4;#ccc0c4" dur="1s" begin="aa.begin +1.5s" repeatCount="indefinite"/></circle></g><use href="#d0" x="62" y="262" /><use href="#d0" x="62" y="302" /><use href="#l0" x="120" y="40" /><use href="#d0" x="102" y="62" /><use href="#l0" x="120" y="120" /><use href="#d0" x="102" y="142" /><use href="#l0" x="120" y="200" /><use href="#d0" x="102" y="222" /><use href="#d0" x="102" y="262" /><g transform="translate(120,320)"><use href="#b0" /><circle r="18" fill="#ccc0c4"><animate attributeType="XML" attributeName="fill" values="#ccc0c4;#000000;#ccc0c4;#ccc0c4" dur="1s" begin="aa.begin +2s" repeatCount="indefinite"/></circle></g><g transform="translate(142,22)"><use href="#p0" /><polygon points="0,0 0,36 36,36 36,0" fill="#3b63ba"><animate attributeType="XML" attributeName="fill" values="#3b63ba;#6f6269;#3b63ba;#3b63ba" dur="1s" begin="aa.begin +s" repeatCount="indefinite"/></polygon></g><use href="#d0" x="142" y="62" /><use href="#l0" x="160" y="120" /><use href="#d0" x="142" y="142" /><use href="#l0" x="160" y="200" /><g transform="translate(160,240)"><use href="#b0" /><circle r="18" fill="#ccc0c4"><animate attributeType="XML" attributeName="fill" values="#ccc0c4;#000000;#ccc0c4;#ccc0c4" dur="1s" begin="aa.begin +2.5s" repeatCount="indefinite"/></circle></g><g transform="translate(160,280)"><use href="#b0" /><circle r="18" fill="#ccc0c4"><animate attributeType="XML" attributeName="fill" values="#ccc0c4;#000000;#ccc0c4;#ccc0c4" dur="1s" begin="aa.begin +3s" repeatCount="indefinite"/></circle></g><use href="#d0" x="142" y="302" /><use href="#l0" x="200" y="40" /><use href="#d0" x="182" y="62" /><use href="#l0" x="200" y="120" /><use href="#d0" x="182" y="142" /><g transform="translate(182,182)"><use href="#p0" /><polygon points="0,0 0,36 36,36 36,0" fill="#3b63ba"><animate attributeType="XML" attributeName="fill" values="#3b63ba;#6f6269;#3b63ba;#3b63ba" dur="1s" begin="aa.begin +3.5s" repeatCount="indefinite"/></polygon></g><use href="#d0" x="182" y="222" /><use href="#d0" x="182" y="262" /><use href="#l0" x="200" y="320" /><g transform="translate(222,22)"><use href="#p0" /><polygon points="0,0 0,36 36,36 36,0" fill="#3b63ba"><animate attributeType="XML" attributeName="fill" values="#3b63ba;#6f6269;#3b63ba;#3b63ba" dur="1s" begin="aa.begin +4s" repeatCount="indefinite"/></polygon></g><use href="#d0" x="222" y="62" /><use href="#l0" x="240" y="120" /><use href="#d0" x="222" y="142" /><use href="#l0" x="240" y="200" /><use href="#l0" x="240" y="240" /><g transform="translate(240,280)"><use href="#b0" /><circle r="18" fill="#ccc0c4"><animate attributeType="XML" attributeName="fill" values="#ccc0c4;#000000;#ccc0c4;#ccc0c4" dur="1s" begin="aa.begin +4.5s" repeatCount="indefinite"/></circle></g><use href="#d0" x="222" y="302" /><use href="#l0" x="280" y="40" /><use href="#d0" x="262" y="62" /><use href="#l0" x="280" y="120" /><use href="#d0" x="262" y="142" /><g transform="translate(262,182)"><use href="#p0" /><polygon points="0,0 0,36 36,36 36,0" fill="#3b63ba"><animate attributeType="XML" attributeName="fill" values="#3b63ba;#6f6269;#3b63ba;#3b63ba" dur="1s" begin="aa.begin +5s" repeatCount="indefinite"/></polygon></g><use href="#d0" x="262" y="222" /><use href="#d0" x="262" y="262" /><use href="#l0" x="280" y="320" /><g transform="translate(302,22)"><use href="#p0" /><polygon points="0,0 0,36 36,36 36,0" fill="#3b63ba"><animate attributeType="XML" attributeName="fill" values="#3b63ba;#6f6269;#3b63ba;#3b63ba" dur="1s" begin="aa.begin +5.5s" repeatCount="indefinite"/></polygon></g><use href="#d0" x="302" y="62" /><use href="#l0" x="320" y="120" /><use href="#d0" x="302" y="142" /><use href="#l0" x="320" y="200" /><use href="#l0" x="320" y="240" /><g transform="translate(320,280)"><use href="#b0" /><circle r="18" fill="#ccc0c4"><animate attributeType="XML" attributeName="fill" values="#ccc0c4;#000000;#ccc0c4;#ccc0c4" dur="1s" begin="aa.begin +6s" repeatCount="indefinite"/></circle></g><use href="#d0" x="302" y="302" /></svg>