<svg width="360" height="360" xmlns="http://www.w3.org/2000/svg"><defs><animate id="aa" begin="0s"/><rect id="l0" width="36" height="36" fill="#A80874"></rect><rect id="d0" width="36" height="36" fill="#E3D8F1"></rect></defs><rect width="100%" height="100%" fill="#1C7C54" /><g transform="translate(22,22)"><use href="#p0" /><polygon points="36,0 36,36 0,0" fill="#F0F66E"><animate attributeType="XML" attributeName="fill" values="#F0F66E;#E3D8F1;#F0F66E;#F0F66E" dur="2.0s" repeatCount="indefinite"/></polygon></g><use href="#d0" x="22" y="62" /><use href="#d0" x="22" y="102" /><use href="#l0" x="22" y="142" /><use href="#l0" x="22" y="182" /><use href="#l0" x="22" y="222" /><use href="#l0" x="22" y="262" /><use href="#l0" x="22" y="302" /><use href="#l0" x="62" y="22" /><use href="#l0" x="62" y="62" /><use href="#l0" x="62" y="102" /><use href="#d0" x="62" y="142" /><use href="#d0" x="62" y="182" /><use href="#d0" x="62" y="222" /><use href="#d0" x="62" y="262" /><g transform="translate(62,302)"><use href="#b0" /><polygon points="36,0 36,36 0,0" fill="#33658A"><animate attributeType="XML" attributeName="fill" values="#33658A;#A80874;#33658A;#33658A" dur="2.7s" repeatCount="indefinite"/></polygon></g><use href="#d0" x="102" y="22" /><g transform="translate(102,62)"><use href="#p0" /><polygon points="36,0 36,36 0,0" fill="#F0F66E"><animate attributeType="XML" attributeName="fill" values="#F0F66E;#E3D8F1;#F0F66E;#F0F66E" dur="2.2s" repeatCount="indefinite"/></polygon></g><g transform="translate(102,102)"><use href="#b0" /><polygon points="36,0 36,36 0,0" fill="#33658A"><animate attributeType="XML" attributeName="fill" values="#33658A;#A80874;#33658A;#33658A" dur="2.4s" repeatCount="indefinite"/></polygon></g><use href="#d0" x="102" y="142" /><use href="#l0" x="102" y="182" /><use href="#l0" x="102" y="222" /><use href="#d0" x="102" y="262" /><use href="#d0" x="102" y="302" /><g transform="translate(142,22)"><use href="#b0" /><polygon points="36,0 36,36 0,0" fill="#33658A"><animate attributeType="XML" attributeName="fill" values="#33658A;#A80874;#33658A;#33658A" dur="2.0s" repeatCount="indefinite"/></polygon></g><use href="#d0" x="142" y="62" /><use href="#l0" x="142" y="102" /><use href="#d0" x="142" y="142" /><g transform="translate(142,182)"><use href="#p0" /><polygon points="36,0 36,36 0,0" fill="#F0F66E"><animate attributeType="XML" attributeName="fill" values="#F0F66E;#E3D8F1;#F0F66E;#F0F66E" dur="2.2s" repeatCount="indefinite"/></polygon></g><use href="#d0" x="142" y="222" /><use href="#l0" x="142" y="262" /><g transform="translate(142,302)"><use href="#p0" /><polygon points="36,0 36,36 0,0" fill="#F0F66E"><animate attributeType="XML" attributeName="fill" values="#F0F66E;#E3D8F1;#F0F66E;#F0F66E" dur="2.1s" repeatCount="indefinite"/></polygon></g><use href="#l0" x="182" y="22" /><g transform="translate(182,62)"><use href="#p0" /><polygon points="36,0 36,36 0,0" fill="#F0F66E"><animate attributeType="XML" attributeName="fill" values="#F0F66E;#E3D8F1;#F0F66E;#F0F66E" dur="2.4s" repeatCount="indefinite"/></polygon></g><g transform="translate(182,102)"><use href="#b0" /><polygon points="36,0 36,36 0,0" fill="#33658A"><animate attributeType="XML" attributeName="fill" values="#33658A;#A80874;#33658A;#33658A" dur="2.8s" repeatCount="indefinite"/></polygon></g><use href="#l0" x="182" y="142" /><g transform="translate(182,182)"><use href="#p0" /><polygon points="36,0 36,36 0,0" fill="#F0F66E"><animate attributeType="XML" attributeName="fill" values="#F0F66E;#E3D8F1;#F0F66E;#F0F66E" dur="2.6s" repeatCount="indefinite"/></polygon></g><g transform="translate(182,222)"><use href="#b0" /><polygon points="36,0 36,36 0,0" fill="#33658A"><animate attributeType="XML" attributeName="fill" values="#33658A;#A80874;#33658A;#33658A" dur="2.0s" repeatCount="indefinite"/></polygon></g><use href="#l0" x="182" y="262" /><use href="#d0" x="182" y="302" /><use href="#d0" x="222" y="22" /><g transform="translate(222,62)"><use href="#p0" /><polygon points="36,0 36,36 0,0" fill="#F0F66E"><animate attributeType="XML" attributeName="fill" values="#F0F66E;#E3D8F1;#F0F66E;#F0F66E" dur="2.5s" repeatCount="indefinite"/></polygon></g><use href="#d0" x="222" y="102" /><use href="#d0" x="222" y="142" /><g transform="translate(222,182)"><use href="#b0" /><polygon points="36,0 36,36 0,0" fill="#33658A"><animate attributeType="XML" attributeName="fill" values="#33658A;#A80874;#33658A;#33658A" dur="2.0s" repeatCount="indefinite"/></polygon></g><use href="#d0" x="222" y="222" /><g transform="translate(222,262)"><use href="#p0" /><polygon points="36,0 36,36 0,0" fill="#F0F66E"><animate attributeType="XML" attributeName="fill" values="#F0F66E;#E3D8F1;#F0F66E;#F0F66E" dur="2.0s" repeatCount="indefinite"/></polygon></g><use href="#d0" x="222" y="302" /><use href="#l0" x="262" y="22" /><g transform="translate(262,62)"><use href="#b0" /><polygon points="36,0 36,36 0,0" fill="#33658A"><animate attributeType="XML" attributeName="fill" values="#33658A;#A80874;#33658A;#33658A" dur="2.6s" repeatCount="indefinite"/></polygon></g><use href="#l0" x="262" y="102" /><use href="#l0" x="262" y="142" /><use href="#d0" x="262" y="182" /><use href="#d0" x="262" y="222" /><g transform="translate(262,262)"><use href="#p0" /><polygon points="36,0 36,36 0,0" fill="#F0F66E"><animate attributeType="XML" attributeName="fill" values="#F0F66E;#E3D8F1;#F0F66E;#F0F66E" dur="2.6s" repeatCount="indefinite"/></polygon></g><g transform="translate(262,302)"><use href="#p0" /><polygon points="36,0 36,36 0,0" fill="#F0F66E"><animate attributeType="XML" attributeName="fill" values="#F0F66E;#E3D8F1;#F0F66E;#F0F66E" dur="2.2s" repeatCount="indefinite"/></polygon></g><use href="#d0" x="302" y="22" /><use href="#l0" x="302" y="62" /><use href="#d0" x="302" y="102" /><use href="#d0" x="302" y="142" /><use href="#d0" x="302" y="182" /><g transform="translate(302,222)"><use href="#b0" /><polygon points="36,0 36,36 0,0" fill="#33658A"><animate attributeType="XML" attributeName="fill" values="#33658A;#A80874;#33658A;#33658A" dur="2.5s" repeatCount="indefinite"/></polygon></g><use href="#d0" x="302" y="262" /><g transform="translate(302,302)"><use href="#b0" /><polygon points="36,0 36,36 0,0" fill="#33658A"><animate attributeType="XML" attributeName="fill" values="#33658A;#A80874;#33658A;#33658A" dur="2.9s" repeatCount="indefinite"/></polygon></g></svg>