<svg width="360" height="360" xmlns="http://www.w3.org/2000/svg"><defs><animate id="aa" begin="0s"/><rect id="d0" width="36" height="36" fill="#423E37"></rect><circle id="l0" r="18" fill="#E3B23C"></circle></defs><rect width="100%" height="100%" fill="#EDEBD7" /><g transform="translate(22,22)"><use href="#p0" /><polygon points="0,0 0,36 36,36 36,0" fill="#7D5BA6"><animate attributeType="XML" attributeName="fill" values="#7D5BA6;#423E37;#7D5BA6;#7D5BA6" dur="2.0s" repeatCount="indefinite"/></polygon></g><g transform="translate(40,80)"><use href="#b0" /><circle r="18" fill="#74A57F"><animate attributeType="XML" attributeName="fill" values="#74A57F;#E3B23C;#74A57F;#74A57F" dur="2.0s" repeatCount="indefinite"/></circle></g><g transform="translate(22,102)"><use href="#p0" /><polygon points="0,0 0,36 36,36 36,0" fill="#7D5BA6"><animate attributeType="XML" attributeName="fill" values="#7D5BA6;#423E37;#7D5BA6;#7D5BA6" dur="2.0s" repeatCount="indefinite"/></polygon></g><use href="#d0" x="22" y="142" /><use href="#d0" x="22" y="182" /><g transform="translate(22,222)"><use href="#p0" /><polygon points="0,0 0,36 36,36 36,0" fill="#7D5BA6"><animate attributeType="XML" attributeName="fill" values="#7D5BA6;#423E37;#7D5BA6;#7D5BA6" dur="2.0s" repeatCount="indefinite"/></polygon></g><use href="#d0" x="22" y="262" /><g transform="translate(40,320)"><use href="#b0" /><circle r="18" fill="#74A57F"><animate attributeType="XML" attributeName="fill" values="#74A57F;#E3B23C;#74A57F;#74A57F" dur="2.0s" repeatCount="indefinite"/></circle></g><use href="#d0" x="62" y="22" /><g transform="translate(80,80)"><use href="#b0" /><circle r="18" fill="#74A57F"><animate attributeType="XML" attributeName="fill" values="#74A57F;#E3B23C;#74A57F;#74A57F" dur="2.1s" repeatCount="indefinite"/></circle></g><use href="#l0" x="80" y="120" /><use href="#l0" x="80" y="160" /><g transform="translate(62,182)"><use href="#p0" /><polygon points="0,0 0,36 36,36 36,0" fill="#7D5BA6"><animate attributeType="XML" attributeName="fill" values="#7D5BA6;#423E37;#7D5BA6;#7D5BA6" dur="2.4s" repeatCount="indefinite"/></polygon></g><use href="#d0" x="62" y="222" /><use href="#l0" x="80" y="280" /><use href="#d0" x="62" y="302" /><use href="#l0" x="120" y="40" /><use href="#d0" x="102" y="62" /><use href="#d0" x="102" y="102" /><use href="#d0" x="102" y="142" /><use href="#d0" x="102" y="182" /><use href="#d0" x="102" y="222" /><use href="#l0" x="120" y="280" /><use href="#l0" x="120" y="320" /><use href="#d0" x="142" y="22" /><use href="#l0" x="160" y="80" /><use href="#l0" x="160" y="120" /><use href="#l0" x="160" y="160" /><use href="#l0" x="160" y="200" /><use href="#l0" x="160" y="240" /><use href="#d0" x="142" y="262" /><use href="#d0" x="142" y="302" /><use href="#d0" x="182" y="22" /><use href="#d0" x="182" y="62" /><use href="#d0" x="182" y="102" /><use href="#d0" x="182" y="142" /><use href="#d0" x="182" y="182" /><use href="#d0" x="182" y="222" /><use href="#l0" x="200" y="280" /><use href="#l0" x="200" y="320" /><use href="#l0" x="240" y="40" /><g transform="translate(222,62)"><use href="#p0" /><polygon points="0,0 0,36 36,36 36,0" fill="#7D5BA6"><animate attributeType="XML" attributeName="fill" values="#7D5BA6;#423E37;#7D5BA6;#7D5BA6" dur="2.5s" repeatCount="indefinite"/></polygon></g><use href="#l0" x="240" y="120" /><g transform="translate(222,142)"><use href="#p0" /><polygon points="0,0 0,36 36,36 36,0" fill="#7D5BA6"><animate attributeType="XML" attributeName="fill" values="#7D5BA6;#423E37;#7D5BA6;#7D5BA6" dur="2.5s" repeatCount="indefinite"/></polygon></g><use href="#l0" x="240" y="200" /><g transform="translate(222,222)"><use href="#p0" /><polygon points="0,0 0,36 36,36 36,0" fill="#7D5BA6"><animate attributeType="XML" attributeName="fill" values="#7D5BA6;#423E37;#7D5BA6;#7D5BA6" dur="2.5s" repeatCount="indefinite"/></polygon></g><g transform="translate(240,280)"><use href="#b0" /><circle r="18" fill="#74A57F"><animate attributeType="XML" attributeName="fill" values="#74A57F;#E3B23C;#74A57F;#74A57F" dur="2.0s" repeatCount="indefinite"/></circle></g><use href="#d0" x="222" y="302" /><use href="#l0" x="280" y="40" /><use href="#d0" x="262" y="62" /><use href="#l0" x="280" y="120" /><use href="#d0" x="262" y="142" /><use href="#l0" x="280" y="200" /><use href="#d0" x="262" y="222" /><use href="#l0" x="280" y="280" /><use href="#d0" x="262" y="302" /><use href="#l0" x="320" y="40" /><use href="#d0" x="302" y="62" /><g transform="translate(320,120)"><use href="#b0" /><circle r="18" fill="#74A57F"><animate attributeType="XML" attributeName="fill" values="#74A57F;#E3B23C;#74A57F;#74A57F" dur="2.4s" repeatCount="indefinite"/></circle></g><g transform="translate(302,142)"><use href="#p0" /><polygon points="0,0 0,36 36,36 36,0" fill="#7D5BA6"><animate attributeType="XML" attributeName="fill" values="#7D5BA6;#423E37;#7D5BA6;#7D5BA6" dur="2.1s" repeatCount="indefinite"/></polygon></g><g transform="translate(302,182)"><use href="#p0" /><polygon points="0,0 0,36 36,36 36,0" fill="#7D5BA6"><animate attributeType="XML" attributeName="fill" values="#7D5BA6;#423E37;#7D5BA6;#7D5BA6" dur="2.8s" repeatCount="indefinite"/></polygon></g><g transform="translate(320,240)"><use href="#b0" /><circle r="18" fill="#74A57F"><animate attributeType="XML" attributeName="fill" values="#74A57F;#E3B23C;#74A57F;#74A57F" dur="2.5s" repeatCount="indefinite"/></circle></g><use href="#l0" x="320" y="280" /><use href="#d0" x="302" y="302" /></svg>