<svg width="360" height="360" xmlns="http://www.w3.org/2000/svg"><defs><animate id="aa" begin="0s"/><rect id="l0" width="36" height="36" fill="#ffd6a5"></rect><circle id="d0" r="18" fill="#fdffb6"></circle></defs><rect width="100%" height="100%" fill="#ffadad" /><use href="#d0" x="40" y="40" /><use href="#d0" x="40" y="80" /><g transform="translate(40,120)"><use href="#p0" /><circle r="18" fill="#bdb2ff"><animate attributeType="XML" attributeName="fill" values="#bdb2ff;#fdffb6;#bdb2ff;#bdb2ff" dur="2.0s" repeatCount="indefinite"/></circle></g><use href="#d0" x="40" y="160" /><g transform="translate(40,200)"><use href="#p0" /><circle r="18" fill="#bdb2ff"><animate attributeType="XML" attributeName="fill" values="#bdb2ff;#fdffb6;#bdb2ff;#bdb2ff" dur="2.0s" repeatCount="indefinite"/></circle></g><g transform="translate(22,222)"><use href="#b0" /><polygon points="0,0 0,36 36,36 36,0" fill="#9bf6ff"><animate attributeType="XML" attributeName="fill" values="#9bf6ff;#ffd6a5;#9bf6ff;#9bf6ff" dur="2.0s" repeatCount="indefinite"/></polygon></g><use href="#d0" x="40" y="280" /><g transform="translate(22,302)"><use href="#b0" /><polygon points="0,0 0,36 36,36 36,0" fill="#9bf6ff"><animate attributeType="XML" attributeName="fill" values="#9bf6ff;#ffd6a5;#9bf6ff;#9bf6ff" dur="2.0s" repeatCount="indefinite"/></polygon></g><g transform="translate(80,40)"><use href="#p0" /><circle r="18" fill="#bdb2ff"><animate attributeType="XML" attributeName="fill" values="#bdb2ff;#fdffb6;#bdb2ff;#bdb2ff" dur="2.0s" repeatCount="indefinite"/></circle></g><g transform="translate(80,80)"><use href="#p0" /><circle r="18" fill="#bdb2ff"><animate attributeType="XML" attributeName="fill" values="#bdb2ff;#fdffb6;#bdb2ff;#bdb2ff" dur="2.1s" repeatCount="indefinite"/></circle></g><use href="#d0" x="80" y="120" /><g transform="translate(80,160)"><use href="#p0" /><circle r="18" fill="#bdb2ff"><animate attributeType="XML" attributeName="fill" values="#bdb2ff;#fdffb6;#bdb2ff;#bdb2ff" dur="2.3s" repeatCount="indefinite"/></circle></g><use href="#l0" x="62" y="182" /><use href="#d0" x="80" y="240" /><g transform="translate(80,280)"><use href="#p0" /><circle r="18" fill="#bdb2ff"><animate attributeType="XML" attributeName="fill" values="#bdb2ff;#fdffb6;#bdb2ff;#bdb2ff" dur="2.6s" repeatCount="indefinite"/></circle></g><use href="#l0" x="62" y="302" /><use href="#d0" x="120" y="40" /><use href="#l0" x="102" y="62" /><g transform="translate(102,102)"><use href="#b0" /><polygon points="0,0 0,36 36,36 36,0" fill="#9bf6ff"><animate attributeType="XML" attributeName="fill" values="#9bf6ff;#ffd6a5;#9bf6ff;#9bf6ff" dur="2.4s" repeatCount="indefinite"/></polygon></g><g transform="translate(102,142)"><use href="#b0" /><polygon points="0,0 0,36 36,36 36,0" fill="#9bf6ff"><animate attributeType="XML" attributeName="fill" values="#9bf6ff;#ffd6a5;#9bf6ff;#9bf6ff" dur="2.6s" repeatCount="indefinite"/></polygon></g><use href="#d0" x="120" y="200" /><use href="#l0" x="102" y="222" /><use href="#d0" x="120" y="280" /><g transform="translate(120,320)"><use href="#p0" /><circle r="18" fill="#bdb2ff"><animate attributeType="XML" attributeName="fill" values="#bdb2ff;#fdffb6;#bdb2ff;#bdb2ff" dur="2.4s" repeatCount="indefinite"/></circle></g><g transform="translate(142,22)"><use href="#b0" /><polygon points="0,0 0,36 36,36 36,0" fill="#9bf6ff"><animate attributeType="XML" attributeName="fill" values="#9bf6ff;#ffd6a5;#9bf6ff;#9bf6ff" dur="2.0s" repeatCount="indefinite"/></polygon></g><g transform="translate(160,80)"><use href="#p0" /><circle r="18" fill="#bdb2ff"><animate attributeType="XML" attributeName="fill" values="#bdb2ff;#fdffb6;#bdb2ff;#bdb2ff" dur="2.3s" repeatCount="indefinite"/></circle></g><g transform="translate(160,120)"><use href="#p0" /><circle r="18" fill="#bdb2ff"><animate attributeType="XML" attributeName="fill" values="#bdb2ff;#fdffb6;#bdb2ff;#bdb2ff" dur="2.6s" repeatCount="indefinite"/></circle></g><g transform="translate(142,142)"><use href="#b0" /><polygon points="0,0 0,36 36,36 36,0" fill="#9bf6ff"><animate attributeType="XML" attributeName="fill" values="#9bf6ff;#ffd6a5;#9bf6ff;#9bf6ff" dur="2.9s" repeatCount="indefinite"/></polygon></g><use href="#d0" x="160" y="200" /><use href="#l0" x="142" y="222" /><g transform="translate(142,262)"><use href="#b0" /><polygon points="0,0 0,36 36,36 36,0" fill="#9bf6ff"><animate attributeType="XML" attributeName="fill" values="#9bf6ff;#ffd6a5;#9bf6ff;#9bf6ff" dur="2.8s" repeatCount="indefinite"/></polygon></g><use href="#d0" x="160" y="320" /><g transform="translate(182,22)"><use href="#b0" /><polygon points="0,0 0,36 36,36 36,0" fill="#9bf6ff"><animate attributeType="XML" attributeName="fill" values="#9bf6ff;#ffd6a5;#9bf6ff;#9bf6ff" dur="2.0s" repeatCount="indefinite"/></polygon></g><use href="#l0" x="182" y="62" /><g transform="translate(182,102)"><use href="#b0" /><polygon points="0,0 0,36 36,36 36,0" fill="#9bf6ff"><animate attributeType="XML" attributeName="fill" values="#9bf6ff;#ffd6a5;#9bf6ff;#9bf6ff" dur="2.8s" repeatCount="indefinite"/></polygon></g><g transform="translate(182,142)"><use href="#b0" /><polygon points="0,0 0,36 36,36 36,0" fill="#9bf6ff"><animate attributeType="XML" attributeName="fill" values="#9bf6ff;#ffd6a5;#9bf6ff;#9bf6ff" dur="2.2s" repeatCount="indefinite"/></polygon></g><g transform="translate(200,200)"><use href="#p0" /><circle r="18" fill="#bdb2ff"><animate attributeType="XML" attributeName="fill" values="#bdb2ff;#fdffb6;#bdb2ff;#bdb2ff" dur="2.6s" repeatCount="indefinite"/></circle></g><use href="#l0" x="182" y="222" /><use href="#d0" x="200" y="280" /><g transform="translate(182,302)"><use href="#b0" /><polygon points="0,0 0,36 36,36 36,0" fill="#9bf6ff"><animate attributeType="XML" attributeName="fill" values="#9bf6ff;#ffd6a5;#9bf6ff;#9bf6ff" dur="2.8s" repeatCount="indefinite"/></polygon></g><use href="#d0" x="240" y="40" /><g transform="translate(240,80)"><use href="#p0" /><circle r="18" fill="#bdb2ff"><animate attributeType="XML" attributeName="fill" values="#bdb2ff;#fdffb6;#bdb2ff;#bdb2ff" dur="2.5s" repeatCount="indefinite"/></circle></g><use href="#d0" x="240" y="120" /><use href="#d0" x="240" y="160" /><use href="#d0" x="240" y="200" /><use href="#l0" x="222" y="222" /><use href="#d0" x="240" y="280" /><g transform="translate(222,302)"><use href="#b0" /><polygon points="0,0 0,36 36,36 36,0" fill="#9bf6ff"><animate attributeType="XML" attributeName="fill" values="#9bf6ff;#ffd6a5;#9bf6ff;#9bf6ff" dur="2.5s" repeatCount="indefinite"/></polygon></g><use href="#d0" x="280" y="40" /><g transform="translate(280,80)"><use href="#p0" /><circle r="18" fill="#bdb2ff"><animate attributeType="XML" attributeName="fill" values="#bdb2ff;#fdffb6;#bdb2ff;#bdb2ff" dur="2.6s" repeatCount="indefinite"/></circle></g><use href="#d0" x="280" y="120" /><use href="#d0" x="280" y="160" /><use href="#d0" x="280" y="200" /><use href="#l0" x="262" y="222" /><use href="#d0" x="280" y="280" /><g transform="translate(280,320)"><use href="#p0" /><circle r="18" fill="#bdb2ff"><animate attributeType="XML" attributeName="fill" values="#bdb2ff;#fdffb6;#bdb2ff;#bdb2ff" dur="2.2s" repeatCount="indefinite"/></circle></g><use href="#d0" x="320" y="40" /><g transform="translate(320,80)"><use href="#p0" /><circle r="18" fill="#bdb2ff"><animate attributeType="XML" attributeName="fill" values="#bdb2ff;#fdffb6;#bdb2ff;#bdb2ff" dur="2.7s" repeatCount="indefinite"/></circle></g><use href="#d0" x="320" y="120" /><g transform="translate(320,160)"><use href="#p0" /><circle r="18" fill="#bdb2ff"><animate attributeType="XML" attributeName="fill" values="#bdb2ff;#fdffb6;#bdb2ff;#bdb2ff" dur="2.1s" repeatCount="indefinite"/></circle></g><g transform="translate(302,182)"><use href="#b0" /><polygon points="0,0 0,36 36,36 36,0" fill="#9bf6ff"><animate attributeType="XML" attributeName="fill" values="#9bf6ff;#ffd6a5;#9bf6ff;#9bf6ff" dur="2.8s" repeatCount="indefinite"/></polygon></g><use href="#l0" x="302" y="222" /><use href="#d0" x="320" y="280" /><use href="#d0" x="320" y="320" /></svg>