<svg width="360" height="360" xmlns="http://www.w3.org/2000/svg"><defs><animate id="aa" begin="0s"/><circle id="l0" r="18" fill="#A80874"></circle><circle id="d0" r="18" fill="#E3D8F1"></circle></defs><rect width="100%" height="100%" fill="#1C7C54" /><use href="#l0" x="40" y="40" /><use href="#l0" x="40" y="80" /><use href="#l0" x="40" y="120" /><use href="#l0" x="40" y="160" /><use href="#l0" x="40" y="200" /><use href="#l0" x="40" y="240" /><g transform="translate(40,280)"><use href="#b0" /><circle r="18" fill="#86BBD8"><animate attributeType="XML" attributeName="fill" values="#86BBD8;#A80874;#86BBD8;#86BBD8" dur="2.0s" repeatCount="indefinite"/></circle></g><use href="#d0" x="40" y="320" /><use href="#d0" x="80" y="40" /><use href="#d0" x="80" y="80" /><use href="#d0" x="80" y="120" /><use href="#d0" x="80" y="160" /><g transform="translate(80,200)"><use href="#b0" /><circle r="18" fill="#86BBD8"><animate attributeType="XML" attributeName="fill" values="#86BBD8;#A80874;#86BBD8;#86BBD8" dur="2.4s" repeatCount="indefinite"/></circle></g><use href="#d0" x="80" y="240" /><use href="#d0" x="80" y="280" /><g transform="translate(80,320)"><use href="#p0" /><circle r="18" fill="#F0F66E"><animate attributeType="XML" attributeName="fill" values="#F0F66E;#E3D8F1;#F0F66E;#F0F66E" dur="2.7s" repeatCount="indefinite"/></circle></g><use href="#l0" x="120" y="40" /><use href="#l0" x="120" y="80" /><use href="#l0" x="120" y="120" /><use href="#d0" x="120" y="160" /><g transform="translate(120,200)"><use href="#b0" /><circle r="18" fill="#86BBD8"><animate attributeType="XML" attributeName="fill" values="#86BBD8;#A80874;#86BBD8;#86BBD8" dur="2.8s" repeatCount="indefinite"/></circle></g><use href="#d0" x="120" y="240" /><g transform="translate(120,280)"><use href="#p0" /><circle r="18" fill="#F0F66E"><animate attributeType="XML" attributeName="fill" values="#F0F66E;#E3D8F1;#F0F66E;#F0F66E" dur="2.2s" repeatCount="indefinite"/></circle></g><g transform="translate(120,320)"><use href="#p0" /><circle r="18" fill="#F0F66E"><animate attributeType="XML" attributeName="fill" values="#F0F66E;#E3D8F1;#F0F66E;#F0F66E" dur="2.4s" repeatCount="indefinite"/></circle></g><use href="#d0" x="160" y="40" /><use href="#d0" x="160" y="80" /><g transform="translate(160,120)"><use href="#p0" /><circle r="18" fill="#F0F66E"><animate attributeType="XML" attributeName="fill" values="#F0F66E;#E3D8F1;#F0F66E;#F0F66E" dur="2.6s" repeatCount="indefinite"/></circle></g><g transform="translate(160,160)"><use href="#p0" /><circle r="18" fill="#F0F66E"><animate attributeType="XML" attributeName="fill" values="#F0F66E;#E3D8F1;#F0F66E;#F0F66E" dur="2.9s" repeatCount="indefinite"/></circle></g><use href="#l0" x="160" y="200" /><use href="#d0" x="160" y="240" /><use href="#d0" x="160" y="280" /><use href="#d0" x="160" y="320" /><use href="#l0" x="200" y="40" /><use href="#l0" x="200" y="80" /><use href="#d0" x="200" y="120" /><use href="#d0" x="200" y="160" /><use href="#l0" x="200" y="200" /><use href="#d0" x="200" y="240" /><use href="#l0" x="200" y="280" /><use href="#l0" x="200" y="320" /><use href="#d0" x="240" y="40" /><use href="#d0" x="240" y="80" /><use href="#l0" x="240" y="120" /><use href="#d0" x="240" y="160" /><use href="#l0" x="240" y="200" /><use href="#d0" x="240" y="240" /><use href="#l0" x="240" y="280" /><use href="#d0" x="240" y="320" /><use href="#d0" x="280" y="40" /><use href="#l0" x="280" y="80" /><use href="#l0" x="280" y="120" /><use href="#d0" x="280" y="160" /><use href="#l0" x="280" y="200" /><use href="#d0" x="280" y="240" /><use href="#d0" x="280" y="280" /><use href="#d0" x="280" y="320" /><use href="#l0" x="320" y="40" /><use href="#d0" x="320" y="80" /><use href="#d0" x="320" y="120" /><use href="#d0" x="320" y="160" /><use href="#d0" x="320" y="200" /><g transform="translate(320,240)"><use href="#p0" /><circle r="18" fill="#F0F66E"><animate attributeType="XML" attributeName="fill" values="#F0F66E;#E3D8F1;#F0F66E;#F0F66E" dur="2.5s" repeatCount="indefinite"/></circle></g><use href="#d0" x="320" y="280" /><g transform="translate(320,320)"><use href="#b0" /><circle r="18" fill="#86BBD8"><animate attributeType="XML" attributeName="fill" values="#86BBD8;#A80874;#86BBD8;#86BBD8" dur="2.9s" repeatCount="indefinite"/></circle></g></svg>