<svg width="360" height="360" xmlns="http://www.w3.org/2000/svg"><defs><animate id="aa" begin="0s"/><circle id="l0" r="18" fill="#01263d"></circle><circle id="d0" r="18" fill="#c43240"></circle></defs><rect width="100%" height="100%" fill="#ef4043" /><use href="#d0" x="40" y="40" /><use href="#d0" x="40" y="80" /><use href="#d0" x="40" y="120" /><use href="#d0" x="40" y="160" /><use href="#d0" x="40" y="200" /><use href="#d0" x="40" y="240" /><use href="#d0" x="40" y="280" /><use href="#d0" x="40" y="320" /><use href="#d0" x="80" y="40" /><use href="#d0" x="80" y="80" /><use href="#d0" x="80" y="120" /><use href="#d0" x="80" y="160" /><use href="#d0" x="80" y="200" /><use href="#d0" x="80" y="240" /><use href="#d0" x="80" y="280" /><use href="#d0" x="80" y="320" /><use href="#d0" x="120" y="40" /><use href="#d0" x="120" y="80" /><use href="#d0" x="120" y="120" /><use href="#d0" x="120" y="160" /><use href="#d0" x="120" y="200" /><use href="#d0" x="120" y="240" /><use href="#d0" x="120" y="280" /><use href="#d0" x="120" y="320" /><g transform="translate(160,40)"><use href="#b0" /><circle r="18" fill="#72bad5"><animate attributeType="XML" attributeName="fill" values="#72bad5;#01263d;#72bad5;#72bad5" dur="0.0s" repeatCount="indefinite"/></circle></g><g transform="translate(160,80)"><use href="#b0" /><circle r="18" fill="#72bad5"><animate attributeType="XML" attributeName="fill" values="#72bad5;#01263d;#72bad5;#72bad5" dur="0.3s" repeatCount="indefinite"/></circle></g><use href="#d0" x="160" y="120" /><use href="#d0" x="160" y="160" /><use href="#d0" x="160" y="200" /><use href="#d0" x="160" y="240" /><use href="#d0" x="160" y="280" /><g transform="translate(160,320)"><use href="#b0" /><circle r="18" fill="#72bad5"><animate attributeType="XML" attributeName="fill" values="#72bad5;#01263d;#72bad5;#72bad5" dur="0.1s" repeatCount="indefinite"/></circle></g><g transform="translate(200,40)"><use href="#p0" /><circle r="18" fill="#ef4043"><animate attributeType="XML" attributeName="fill" values="#ef4043;#c43240;#ef4043;#ef4043" dur="0.0s" repeatCount="indefinite"/></circle></g><use href="#l0" x="200" y="80" /><g transform="translate(200,120)"><use href="#b0" /><circle r="18" fill="#72bad5"><animate attributeType="XML" attributeName="fill" values="#72bad5;#01263d;#72bad5;#72bad5" dur="0.8s" repeatCount="indefinite"/></circle></g><use href="#d0" x="200" y="160" /><use href="#d0" x="200" y="200" /><use href="#d0" x="200" y="240" /><g transform="translate(200,280)"><use href="#b0" /><circle r="18" fill="#72bad5"><animate attributeType="XML" attributeName="fill" values="#72bad5;#01263d;#72bad5;#72bad5" dur="0.4s" repeatCount="indefinite"/></circle></g><g transform="translate(200,320)"><use href="#p0" /><circle r="18" fill="#ef4043"><animate attributeType="XML" attributeName="fill" values="#ef4043;#c43240;#ef4043;#ef4043" dur="0.8s" repeatCount="indefinite"/></circle></g><use href="#d0" x="240" y="40" /><use href="#d0" x="240" y="80" /><g transform="translate(240,120)"><use href="#p0" /><circle r="18" fill="#ef4043"><animate attributeType="XML" attributeName="fill" values="#ef4043;#c43240;#ef4043;#ef4043" dur="0.0s" repeatCount="indefinite"/></circle></g><use href="#d0" x="240" y="160" /><use href="#d0" x="240" y="200" /><use href="#d0" x="240" y="240" /><g transform="translate(240,280)"><use href="#p0" /><circle r="18" fill="#ef4043"><animate attributeType="XML" attributeName="fill" values="#ef4043;#c43240;#ef4043;#ef4043" dur="0.0s" repeatCount="indefinite"/></circle></g><use href="#d0" x="240" y="320" /><use href="#d0" x="280" y="40" /><g transform="translate(280,80)"><use href="#p0" /><circle r="18" fill="#ef4043"><animate attributeType="XML" attributeName="fill" values="#ef4043;#c43240;#ef4043;#ef4043" dur="0.6s" repeatCount="indefinite"/></circle></g><g transform="translate(280,120)"><use href="#p0" /><circle r="18" fill="#ef4043"><animate attributeType="XML" attributeName="fill" values="#ef4043;#c43240;#ef4043;#ef4043" dur="0.2s" repeatCount="indefinite"/></circle></g><use href="#d0" x="280" y="160" /><use href="#d0" x="280" y="200" /><use href="#d0" x="280" y="240" /><use href="#d0" x="280" y="280" /><use href="#d0" x="280" y="320" /><use href="#d0" x="320" y="40" /><use href="#d0" x="320" y="80" /><use href="#d0" x="320" y="120" /><use href="#d0" x="320" y="160" /><use href="#d0" x="320" y="200" /><use href="#d0" x="320" y="240" /><use href="#d0" x="320" y="280" /><use href="#d0" x="320" y="320" /></svg>