<svg width="360" height="360" xmlns="http://www.w3.org/2000/svg"><defs><animate id="aa" begin="0s"/><rect id="d0" width="36" height="36" fill="#ffe169"></rect><circle id="l0" r="18" fill="#fad643"></circle></defs><rect width="100%" height="100%" fill="#76520e" /><g transform="translate(40,40)"><use href="#b0" /><circle r="18" fill="#a47e1b"><animate attributeType="XML" attributeName="fill" values="#a47e1b;#fad643;#a47e1b;#a47e1b" dur="0.0s" repeatCount="indefinite"/></circle></g><use href="#d0" x="22" y="62" /><use href="#d0" x="22" y="102" /><use href="#d0" x="22" y="142" /><use href="#l0" x="40" y="200" /><use href="#l0" x="40" y="240" /><use href="#d0" x="22" y="262" /><g transform="translate(22,302)"><use href="#p0" /><polygon points="0,0 0,36 36,36 36,0" fill="#dbb42c"><animate attributeType="XML" attributeName="fill" values="#dbb42c;#ffe169;#dbb42c;#dbb42c" dur="0.0s" repeatCount="indefinite"/></polygon></g><use href="#d0" x="62" y="22" /><use href="#d0" x="62" y="62" /><use href="#d0" x="62" y="102" /><use href="#d0" x="62" y="142" /><use href="#d0" x="62" y="182" /><g transform="translate(80,240)"><use href="#b0" /><circle r="18" fill="#a47e1b"><animate attributeType="XML" attributeName="fill" values="#a47e1b;#fad643;#a47e1b;#a47e1b" dur="0.5s" repeatCount="indefinite"/></circle></g><g transform="translate(62,262)"><use href="#p0" /><polygon points="0,0 0,36 36,36 36,0" fill="#dbb42c"><animate attributeType="XML" attributeName="fill" values="#dbb42c;#ffe169;#dbb42c;#dbb42c" dur="0.6s" repeatCount="indefinite"/></polygon></g><use href="#l0" x="80" y="320" /><use href="#d0" x="102" y="22" /><use href="#l0" x="120" y="80" /><g transform="translate(120,120)"><use href="#b0" /><circle r="18" fill="#a47e1b"><animate attributeType="XML" attributeName="fill" values="#a47e1b;#fad643;#a47e1b;#a47e1b" dur="0.4s" repeatCount="indefinite"/></circle></g><use href="#d0" x="102" y="142" /><use href="#d0" x="102" y="182" /><use href="#d0" x="102" y="222" /><use href="#d0" x="102" y="262" /><g transform="translate(102,302)"><use href="#p0" /><polygon points="0,0 0,36 36,36 36,0" fill="#dbb42c"><animate attributeType="XML" attributeName="fill" values="#dbb42c;#ffe169;#dbb42c;#dbb42c" dur="0.4s" repeatCount="indefinite"/></polygon></g><g transform="translate(160,40)"><use href="#b0" /><circle r="18" fill="#a47e1b"><animate attributeType="XML" attributeName="fill" values="#a47e1b;#fad643;#a47e1b;#a47e1b" dur="0.0s" repeatCount="indefinite"/></circle></g><g transform="translate(142,62)"><use href="#p0" /><polygon points="0,0 0,36 36,36 36,0" fill="#dbb42c"><animate attributeType="XML" attributeName="fill" values="#dbb42c;#ffe169;#dbb42c;#dbb42c" dur="0.3s" repeatCount="indefinite"/></polygon></g><use href="#l0" x="160" y="120" /><g transform="translate(160,160)"><use href="#b0" /><circle r="18" fill="#a47e1b"><animate attributeType="XML" attributeName="fill" values="#a47e1b;#fad643;#a47e1b;#a47e1b" dur="0.9s" repeatCount="indefinite"/></circle></g><use href="#d0" x="142" y="182" /><use href="#l0" x="160" y="240" /><use href="#d0" x="142" y="262" /><g transform="translate(160,320)"><use href="#b0" /><circle r="18" fill="#a47e1b"><animate attributeType="XML" attributeName="fill" values="#a47e1b;#fad643;#a47e1b;#a47e1b" dur="0.1s" repeatCount="indefinite"/></circle></g><g transform="translate(200,40)"><use href="#b0" /><circle r="18" fill="#a47e1b"><animate attributeType="XML" attributeName="fill" values="#a47e1b;#fad643;#a47e1b;#a47e1b" dur="0.0s" repeatCount="indefinite"/></circle></g><use href="#d0" x="182" y="62" /><use href="#d0" x="182" y="102" /><g transform="translate(182,142)"><use href="#p0" /><polygon points="0,0 0,36 36,36 36,0" fill="#dbb42c"><animate attributeType="XML" attributeName="fill" values="#dbb42c;#ffe169;#dbb42c;#dbb42c" dur="0.2s" repeatCount="indefinite"/></polygon></g><use href="#d0" x="182" y="182" /><use href="#l0" x="200" y="240" /><g transform="translate(182,262)"><use href="#p0" /><polygon points="0,0 0,36 36,36 36,0" fill="#dbb42c"><animate attributeType="XML" attributeName="fill" values="#dbb42c;#ffe169;#dbb42c;#dbb42c" dur="0.4s" repeatCount="indefinite"/></polygon></g><use href="#l0" x="200" y="320" /><use href="#d0" x="222" y="22" /><g transform="translate(240,80)"><use href="#b0" /><circle r="18" fill="#a47e1b"><animate attributeType="XML" attributeName="fill" values="#a47e1b;#fad643;#a47e1b;#a47e1b" dur="0.5s" repeatCount="indefinite"/></circle></g><use href="#l0" x="240" y="120" /><use href="#l0" x="240" y="160" /><use href="#d0" x="222" y="182" /><use href="#l0" x="240" y="240" /><use href="#d0" x="222" y="262" /><use href="#d0" x="222" y="302" /><use href="#l0" x="280" y="40" /><g transform="translate(280,80)"><use href="#b0" /><circle r="18" fill="#a47e1b"><animate attributeType="XML" attributeName="fill" values="#a47e1b;#fad643;#a47e1b;#a47e1b" dur="0.6s" repeatCount="indefinite"/></circle></g><use href="#d0" x="262" y="102" /><use href="#l0" x="280" y="160" /><use href="#d0" x="262" y="182" /><use href="#l0" x="280" y="240" /><use href="#d0" x="262" y="262" /><use href="#l0" x="280" y="320" /><use href="#d0" x="302" y="22" /><g transform="translate(320,80)"><use href="#b0" /><circle r="18" fill="#a47e1b"><animate attributeType="XML" attributeName="fill" values="#a47e1b;#fad643;#a47e1b;#a47e1b" dur="0.7s" repeatCount="indefinite"/></circle></g><use href="#d0" x="302" y="102" /><use href="#l0" x="320" y="160" /><use href="#d0" x="302" y="182" /><use href="#l0" x="320" y="240" /><use href="#d0" x="302" y="262" /><use href="#l0" x="320" y="320" /></svg>