<svg width="360" height="360" xmlns="http://www.w3.org/2000/svg"><defs><animate id="aa" begin="0s"/><circle id="l0" r="18" fill="#003559"></circle><circle id="d0" r="18" fill="#B9D6F2"></circle></defs><rect width="100%" height="100%" fill="#061A40" /><use href="#d0" x="40" y="40" /><use href="#d0" x="40" y="80" /><use href="#d0" x="40" y="120" /><use href="#l0" x="40" y="160" /><g transform="translate(40,200)"><use href="#b0" /><circle r="18" fill="#006DAA"><animate attributeType="XML" attributeName="fill" values="#006DAA;#003559;#006DAA;#006DAA" dur="1.0s" repeatCount="indefinite"/></circle></g><g transform="translate(40,240)"><use href="#p0" /><circle r="18" fill="#BFD7EA"><animate attributeType="XML" attributeName="fill" values="#BFD7EA;#B9D6F2;#BFD7EA;#BFD7EA" dur="1.0s" repeatCount="indefinite"/></circle></g><g transform="translate(40,280)"><use href="#b0" /><circle r="18" fill="#006DAA"><animate attributeType="XML" attributeName="fill" values="#006DAA;#003559;#006DAA;#006DAA" dur="1.0s" repeatCount="indefinite"/></circle></g><g transform="translate(40,320)"><use href="#p0" /><circle r="18" fill="#BFD7EA"><animate attributeType="XML" attributeName="fill" values="#BFD7EA;#B9D6F2;#BFD7EA;#BFD7EA" dur="1.0s" repeatCount="indefinite"/></circle></g><use href="#l0" x="80" y="40" /><use href="#l0" x="80" y="80" /><use href="#l0" x="80" y="120" /><use href="#d0" x="80" y="160" /><use href="#d0" x="80" y="200" /><use href="#d0" x="80" y="240" /><g transform="translate(80,280)"><use href="#b0" /><circle r="18" fill="#006DAA"><animate attributeType="XML" attributeName="fill" values="#006DAA;#003559;#006DAA;#006DAA" dur="1.6s" repeatCount="indefinite"/></circle></g><use href="#l0" x="80" y="320" /><use href="#d0" x="120" y="40" /><use href="#d0" x="120" y="80" /><use href="#d0" x="120" y="120" /><use href="#d0" x="120" y="160" /><use href="#l0" x="120" y="200" /><use href="#l0" x="120" y="240" /><use href="#d0" x="120" y="280" /><use href="#d0" x="120" y="320" /><use href="#l0" x="160" y="40" /><use href="#l0" x="160" y="80" /><use href="#l0" x="160" y="120" /><use href="#l0" x="160" y="160" /><use href="#d0" x="160" y="200" /><use href="#l0" x="160" y="240" /><use href="#d0" x="160" y="280" /><use href="#l0" x="160" y="320" /><use href="#d0" x="200" y="40" /><g transform="translate(200,80)"><use href="#b0" /><circle r="18" fill="#006DAA"><animate attributeType="XML" attributeName="fill" values="#006DAA;#003559;#006DAA;#006DAA" dur="1.4s" repeatCount="indefinite"/></circle></g><use href="#d0" x="200" y="120" /><g transform="translate(200,160)"><use href="#b0" /><circle r="18" fill="#006DAA"><animate attributeType="XML" attributeName="fill" values="#006DAA;#003559;#006DAA;#006DAA" dur="1.2s" repeatCount="indefinite"/></circle></g><use href="#d0" x="200" y="200" /><use href="#l0" x="200" y="240" /><use href="#d0" x="200" y="280" /><use href="#l0" x="200" y="320" /><use href="#d0" x="240" y="40" /><g transform="translate(240,80)"><use href="#b0" /><circle r="18" fill="#006DAA"><animate attributeType="XML" attributeName="fill" values="#006DAA;#003559;#006DAA;#006DAA" dur="1.5s" repeatCount="indefinite"/></circle></g><use href="#d0" x="240" y="120" /><g transform="translate(240,160)"><use href="#b0" /><circle r="18" fill="#006DAA"><animate attributeType="XML" attributeName="fill" values="#006DAA;#003559;#006DAA;#006DAA" dur="1.5s" repeatCount="indefinite"/></circle></g><g transform="translate(240,200)"><use href="#p0" /><circle r="18" fill="#BFD7EA"><animate attributeType="XML" attributeName="fill" values="#BFD7EA;#B9D6F2;#BFD7EA;#BFD7EA" dur="1.0s" repeatCount="indefinite"/></circle></g><g transform="translate(240,240)"><use href="#p0" /><circle r="18" fill="#BFD7EA"><animate attributeType="XML" attributeName="fill" values="#BFD7EA;#B9D6F2;#BFD7EA;#BFD7EA" dur="1.5s" repeatCount="indefinite"/></circle></g><use href="#d0" x="240" y="280" /><use href="#l0" x="240" y="320" /><use href="#d0" x="280" y="40" /><use href="#l0" x="280" y="80" /><g transform="translate(280,120)"><use href="#p0" /><circle r="18" fill="#BFD7EA"><animate attributeType="XML" attributeName="fill" values="#BFD7EA;#B9D6F2;#BFD7EA;#BFD7EA" dur="1.2s" repeatCount="indefinite"/></circle></g><use href="#d0" x="280" y="160" /><use href="#d0" x="280" y="200" /><use href="#d0" x="280" y="240" /><g transform="translate(280,280)"><use href="#b0" /><circle r="18" fill="#006DAA"><animate attributeType="XML" attributeName="fill" values="#006DAA;#003559;#006DAA;#006DAA" dur="1.6s" repeatCount="indefinite"/></circle></g><use href="#l0" x="280" y="320" /><use href="#d0" x="320" y="40" /><g transform="translate(320,80)"><use href="#p0" /><circle r="18" fill="#BFD7EA"><animate attributeType="XML" attributeName="fill" values="#BFD7EA;#B9D6F2;#BFD7EA;#BFD7EA" dur="1.7s" repeatCount="indefinite"/></circle></g><g transform="translate(320,120)"><use href="#b0" /><circle r="18" fill="#006DAA"><animate attributeType="XML" attributeName="fill" values="#006DAA;#003559;#006DAA;#006DAA" dur="1.4s" repeatCount="indefinite"/></circle></g><use href="#l0" x="320" y="160" /><g transform="translate(320,200)"><use href="#b0" /><circle r="18" fill="#006DAA"><animate attributeType="XML" attributeName="fill" values="#006DAA;#003559;#006DAA;#006DAA" dur="1.8s" repeatCount="indefinite"/></circle></g><use href="#d0" x="320" y="240" /><use href="#d0" x="320" y="280" /><use href="#l0" x="320" y="320" /></svg>