<svg width="360" height="360" xmlns="http://www.w3.org/2000/svg"><defs><animate id="aa" begin="0s"/><rect id="l0" width="36" height="36" fill="#1E62AB"></rect><circle id="d0" r="18" fill="#423E37"></circle></defs><rect width="100%" height="100%" fill="#34287E" /><use href="#d0" x="40" y="40" /><use href="#l0" x="22" y="62" /><use href="#d0" x="40" y="120" /><use href="#l0" x="22" y="142" /><use href="#d0" x="40" y="200" /><use href="#d0" x="40" y="240" /><use href="#d0" x="40" y="280" /><use href="#l0" x="22" y="302" /><use href="#d0" x="80" y="40" /><use href="#l0" x="62" y="62" /><use href="#d0" x="80" y="120" /><use href="#l0" x="62" y="142" /><use href="#d0" x="80" y="200" /><g transform="translate(80,240)"><use href="#p0" /><circle r="18" fill="#FAED24"><animate attributeType="XML" attributeName="fill" values="#FAED24;#423E37;#FAED24;#FAED24" dur="1s" begin="aa.begin +1s" repeatCount="indefinite"/></circle></g><g transform="translate(80,280)"><use href="#p0" /><circle r="18" fill="#FAED24"><animate attributeType="XML" attributeName="fill" values="#FAED24;#423E37;#FAED24;#FAED24" dur="1s" begin="aa.begin +1.5s" repeatCount="indefinite"/></circle></g><use href="#d0" x="80" y="320" /><g transform="translate(120,40)"><use href="#p0" /><circle r="18" fill="#FAED24"><animate attributeType="XML" attributeName="fill" values="#FAED24;#423E37;#FAED24;#FAED24" dur="1s" begin="aa.begin +2s" repeatCount="indefinite"/></circle></g><use href="#l0" x="102" y="62" /><use href="#d0" x="120" y="120" /><use href="#l0" x="102" y="142" /><g transform="translate(102,182)"><use href="#b0" /><polygon points="0,0 0,36 36,36 36,0" fill="#92B83C"><animate attributeType="XML" attributeName="fill" values="#92B83C;#1E62AB;#92B83C;#92B83C" dur="1s" begin="aa.begin +s" repeatCount="indefinite"/></polygon></g><use href="#d0" x="120" y="240" /><use href="#d0" x="120" y="280" /><use href="#d0" x="120" y="320" /><use href="#l0" x="142" y="22" /><g transform="translate(142,62)"><use href="#b0" /><polygon points="0,0 0,36 36,36 36,0" fill="#92B83C"><animate attributeType="XML" attributeName="fill" values="#92B83C;#1E62AB;#92B83C;#92B83C" dur="1s" begin="aa.begin +2.5s" repeatCount="indefinite"/></polygon></g><use href="#l0" x="142" y="102" /><use href="#d0" x="160" y="160" /><use href="#l0" x="142" y="182" /><use href="#d0" x="160" y="240" /><use href="#d0" x="160" y="280" /><use href="#l0" x="142" y="302" /><use href="#d0" x="200" y="40" /><use href="#d0" x="200" y="80" /><use href="#d0" x="200" y="120" /><use href="#d0" x="200" y="160" /><use href="#l0" x="182" y="182" /><use href="#d0" x="200" y="240" /><use href="#l0" x="182" y="262" /><use href="#d0" x="200" y="320" /><use href="#l0" x="222" y="22" /><g transform="translate(240,80)"><use href="#p0" /><circle r="18" fill="#FAED24"><animate attributeType="XML" attributeName="fill" values="#FAED24;#423E37;#FAED24;#FAED24" dur="1s" begin="aa.begin +3s" repeatCount="indefinite"/></circle></g><use href="#l0" x="222" y="102" /><g transform="translate(240,160)"><use href="#p0" /><circle r="18" fill="#FAED24"><animate attributeType="XML" attributeName="fill" values="#FAED24;#423E37;#FAED24;#FAED24" dur="1s" begin="aa.begin +3.5s" repeatCount="indefinite"/></circle></g><use href="#d0" x="240" y="200" /><use href="#l0" x="222" y="222" /><use href="#d0" x="240" y="280" /><use href="#l0" x="222" y="302" /><use href="#l0" x="262" y="22" /><use href="#d0" x="280" y="80" /><use href="#l0" x="262" y="102" /><use href="#l0" x="262" y="142" /><use href="#d0" x="280" y="200" /><use href="#l0" x="262" y="222" /><use href="#d0" x="280" y="280" /><use href="#d0" x="280" y="320" /><use href="#l0" x="302" y="22" /><use href="#d0" x="320" y="80" /><use href="#d0" x="320" y="120" /><use href="#l0" x="302" y="142" /><use href="#d0" x="320" y="200" /><use href="#l0" x="302" y="222" /><use href="#l0" x="302" y="262" /><use href="#d0" x="320" y="320" /></svg>