<svg width="360" height="360" xmlns="http://www.w3.org/2000/svg"><defs><animate id="aa" begin="0s"/><rect id="d0" width="36" height="36" fill="#D8F3DC"></rect><circle id="l0" r="18" fill="#081C15"></circle></defs><rect width="100%" height="100%" fill="#52B788" /><g transform="translate(40,40)"><use href="#b0" /><circle r="18" fill="#40916C"><animate attributeType="XML" attributeName="fill" values="#40916C;#081C15;#40916C;#40916C" dur="1.0s" repeatCount="indefinite"/></circle></g><g transform="translate(40,80)"><use href="#b0" /><circle r="18" fill="#40916C"><animate attributeType="XML" attributeName="fill" values="#40916C;#081C15;#40916C;#40916C" dur="1.0s" repeatCount="indefinite"/></circle></g><g transform="translate(22,102)"><use href="#p0" /><polygon points="0,0 0,36 36,36 36,0" fill="#2D6A4F"><animate attributeType="XML" attributeName="fill" values="#2D6A4F;#D8F3DC;#2D6A4F;#2D6A4F" dur="1.0s" repeatCount="indefinite"/></polygon></g><g transform="translate(22,142)"><use href="#p0" /><polygon points="0,0 0,36 36,36 36,0" fill="#2D6A4F"><animate attributeType="XML" attributeName="fill" values="#2D6A4F;#D8F3DC;#2D6A4F;#2D6A4F" dur="1.0s" repeatCount="indefinite"/></polygon></g><g transform="translate(40,200)"><use href="#b0" /><circle r="18" fill="#40916C"><animate attributeType="XML" attributeName="fill" values="#40916C;#081C15;#40916C;#40916C" dur="1.0s" repeatCount="indefinite"/></circle></g><use href="#l0" x="40" y="240" /><use href="#d0" x="22" y="262" /><use href="#l0" x="40" y="320" /><use href="#d0" x="62" y="22" /><use href="#l0" x="80" y="80" /><use href="#d0" x="62" y="102" /><g transform="translate(62,142)"><use href="#p0" /><polygon points="0,0 0,36 36,36 36,0" fill="#2D6A4F"><animate attributeType="XML" attributeName="fill" values="#2D6A4F;#D8F3DC;#2D6A4F;#2D6A4F" dur="1.3s" repeatCount="indefinite"/></polygon></g><use href="#d0" x="62" y="182" /><use href="#l0" x="80" y="240" /><use href="#d0" x="62" y="262" /><use href="#l0" x="80" y="320" /><use href="#d0" x="102" y="22" /><use href="#l0" x="120" y="80" /><g transform="translate(120,120)"><use href="#b0" /><circle r="18" fill="#40916C"><animate attributeType="XML" attributeName="fill" values="#40916C;#081C15;#40916C;#40916C" dur="1.4s" repeatCount="indefinite"/></circle></g><use href="#d0" x="102" y="142" /><g transform="translate(120,200)"><use href="#b0" /><circle r="18" fill="#40916C"><animate attributeType="XML" attributeName="fill" values="#40916C;#081C15;#40916C;#40916C" dur="1.8s" repeatCount="indefinite"/></circle></g><use href="#l0" x="120" y="240" /><use href="#d0" x="102" y="262" /><use href="#l0" x="120" y="320" /><use href="#d0" x="142" y="22" /><use href="#l0" x="160" y="80" /><use href="#d0" x="142" y="102" /><use href="#d0" x="142" y="142" /><use href="#d0" x="142" y="182" /><use href="#l0" x="160" y="240" /><use href="#d0" x="142" y="262" /><use href="#l0" x="160" y="320" /><use href="#d0" x="182" y="22" /><g transform="translate(182,62)"><use href="#p0" /><polygon points="0,0 0,36 36,36 36,0" fill="#2D6A4F"><animate attributeType="XML" attributeName="fill" values="#2D6A4F;#D8F3DC;#2D6A4F;#2D6A4F" dur="1.4s" repeatCount="indefinite"/></polygon></g><use href="#d0" x="182" y="102" /><use href="#d0" x="182" y="142" /><g transform="translate(200,200)"><use href="#b0" /><circle r="18" fill="#40916C"><animate attributeType="XML" attributeName="fill" values="#40916C;#081C15;#40916C;#40916C" dur="1.6s" repeatCount="indefinite"/></circle></g><use href="#l0" x="200" y="240" /><use href="#d0" x="182" y="262" /><g transform="translate(182,302)"><use href="#p0" /><polygon points="0,0 0,36 36,36 36,0" fill="#2D6A4F"><animate attributeType="XML" attributeName="fill" values="#2D6A4F;#D8F3DC;#2D6A4F;#2D6A4F" dur="1.8s" repeatCount="indefinite"/></polygon></g><g transform="translate(240,40)"><use href="#b0" /><circle r="18" fill="#40916C"><animate attributeType="XML" attributeName="fill" values="#40916C;#081C15;#40916C;#40916C" dur="1.0s" repeatCount="indefinite"/></circle></g><use href="#d0" x="222" y="62" /><use href="#d0" x="222" y="102" /><g transform="translate(240,160)"><use href="#b0" /><circle r="18" fill="#40916C"><animate attributeType="XML" attributeName="fill" values="#40916C;#081C15;#40916C;#40916C" dur="1.5s" repeatCount="indefinite"/></circle></g><use href="#d0" x="222" y="182" /><g transform="translate(222,222)"><use href="#p0" /><polygon points="0,0 0,36 36,36 36,0" fill="#2D6A4F"><animate attributeType="XML" attributeName="fill" values="#2D6A4F;#D8F3DC;#2D6A4F;#2D6A4F" dur="1.5s" repeatCount="indefinite"/></polygon></g><use href="#d0" x="222" y="262" /><use href="#d0" x="222" y="302" /><use href="#l0" x="280" y="40" /><use href="#l0" x="280" y="80" /><use href="#l0" x="280" y="120" /><g transform="translate(280,160)"><use href="#b0" /><circle r="18" fill="#40916C"><animate attributeType="XML" attributeName="fill" values="#40916C;#081C15;#40916C;#40916C" dur="1.8s" repeatCount="indefinite"/></circle></g><use href="#l0" x="280" y="200" /><use href="#l0" x="280" y="240" /><use href="#l0" x="280" y="280" /><use href="#l0" x="280" y="320" /><use href="#d0" x="302" y="22" /><use href="#d0" x="302" y="62" /><use href="#d0" x="302" y="102" /><use href="#d0" x="302" y="142" /><use href="#d0" x="302" y="182" /><use href="#d0" x="302" y="222" /><use href="#d0" x="302" y="262" /><use href="#d0" x="302" y="302" /></svg>