<svg width="360" height="360" xmlns="http://www.w3.org/2000/svg"><defs><animate id="aa" begin="0s"/><rect id="l0" width="36" height="36" fill="#fbff12"></rect><circle id="d0" r="18" fill="#41ead4"></circle></defs><rect width="100%" height="100%" fill="#ff206e" /><use href="#d0" x="40" y="40" /><use href="#d0" x="40" y="80" /><use href="#d0" x="40" y="120" /><use href="#d0" x="40" y="160" /><use href="#d0" x="40" y="200" /><g transform="translate(40,240)"><use href="#p0" /><circle r="18" fill="#FD9040"><animate attributeType="XML" attributeName="fill" values="#FD9040;#41ead4;#FD9040;#FD9040" dur="1.0s" repeatCount="indefinite"/></circle></g><use href="#d0" x="40" y="280" /><use href="#d0" x="40" y="320" /><use href="#d0" x="80" y="40" /><use href="#d0" x="80" y="80" /><use href="#d0" x="80" y="120" /><use href="#d0" x="80" y="160" /><use href="#l0" x="62" y="182" /><use href="#l0" x="62" y="222" /><g transform="translate(62,262)"><use href="#b0" /><polygon points="0,0 0,36 36,36 36,0" fill="#9EF573"><animate attributeType="XML" attributeName="fill" values="#9EF573;#fbff12;#9EF573;#9EF573" dur="1.6s" repeatCount="indefinite"/></polygon></g><use href="#d0" x="80" y="320" /><use href="#l0" x="102" y="22" /><g transform="translate(102,62)"><use href="#b0" /><polygon points="0,0 0,36 36,36 36,0" fill="#9EF573"><animate attributeType="XML" attributeName="fill" values="#9EF573;#fbff12;#9EF573;#9EF573" dur="1.2s" repeatCount="indefinite"/></polygon></g><use href="#d0" x="120" y="120" /><g transform="translate(120,160)"><use href="#p0" /><circle r="18" fill="#FD9040"><animate attributeType="XML" attributeName="fill" values="#FD9040;#41ead4;#FD9040;#FD9040" dur="1.6s" repeatCount="indefinite"/></circle></g><use href="#d0" x="120" y="200" /><use href="#d0" x="120" y="240" /><g transform="translate(120,280)"><use href="#p0" /><circle r="18" fill="#FD9040"><animate attributeType="XML" attributeName="fill" values="#FD9040;#41ead4;#FD9040;#FD9040" dur="1.2s" repeatCount="indefinite"/></circle></g><use href="#l0" x="102" y="302" /><use href="#d0" x="160" y="40" /><g transform="translate(160,80)"><use href="#p0" /><circle r="18" fill="#FD9040"><animate attributeType="XML" attributeName="fill" values="#FD9040;#41ead4;#FD9040;#FD9040" dur="1.3s" repeatCount="indefinite"/></circle></g><use href="#l0" x="142" y="102" /><use href="#l0" x="142" y="142" /><use href="#l0" x="142" y="182" /><use href="#l0" x="142" y="222" /><g transform="translate(142,262)"><use href="#b0" /><polygon points="0,0 0,36 36,36 36,0" fill="#9EF573"><animate attributeType="XML" attributeName="fill" values="#9EF573;#fbff12;#9EF573;#9EF573" dur="1.8s" repeatCount="indefinite"/></polygon></g><use href="#d0" x="160" y="320" /><g transform="translate(200,40)"><use href="#p0" /><circle r="18" fill="#FD9040"><animate attributeType="XML" attributeName="fill" values="#FD9040;#41ead4;#FD9040;#FD9040" dur="1.0s" repeatCount="indefinite"/></circle></g><use href="#d0" x="200" y="80" /><g transform="translate(182,102)"><use href="#b0" /><polygon points="0,0 0,36 36,36 36,0" fill="#9EF573"><animate attributeType="XML" attributeName="fill" values="#9EF573;#fbff12;#9EF573;#9EF573" dur="1.8s" repeatCount="indefinite"/></polygon></g><use href="#d0" x="200" y="160" /><use href="#d0" x="200" y="200" /><use href="#d0" x="200" y="240" /><use href="#l0" x="182" y="262" /><use href="#d0" x="200" y="320" /><g transform="translate(240,40)"><use href="#p0" /><circle r="18" fill="#FD9040"><animate attributeType="XML" attributeName="fill" values="#FD9040;#41ead4;#FD9040;#FD9040" dur="1.0s" repeatCount="indefinite"/></circle></g><use href="#d0" x="240" y="80" /><use href="#d0" x="240" y="120" /><use href="#l0" x="222" y="142" /><use href="#l0" x="222" y="182" /><use href="#d0" x="240" y="240" /><g transform="translate(240,280)"><use href="#p0" /><circle r="18" fill="#FD9040"><animate attributeType="XML" attributeName="fill" values="#FD9040;#41ead4;#FD9040;#FD9040" dur="1.0s" repeatCount="indefinite"/></circle></g><use href="#d0" x="240" y="320" /><g transform="translate(280,40)"><use href="#p0" /><circle r="18" fill="#FD9040"><animate attributeType="XML" attributeName="fill" values="#FD9040;#41ead4;#FD9040;#FD9040" dur="1.0s" repeatCount="indefinite"/></circle></g><use href="#d0" x="280" y="80" /><use href="#d0" x="280" y="120" /><use href="#d0" x="280" y="160" /><g transform="translate(280,200)"><use href="#p0" /><circle r="18" fill="#FD9040"><animate attributeType="XML" attributeName="fill" values="#FD9040;#41ead4;#FD9040;#FD9040" dur="1.4s" repeatCount="indefinite"/></circle></g><g transform="translate(262,222)"><use href="#b0" /><polygon points="0,0 0,36 36,36 36,0" fill="#9EF573"><animate attributeType="XML" attributeName="fill" values="#9EF573;#fbff12;#9EF573;#9EF573" dur="1.0s" repeatCount="indefinite"/></polygon></g><use href="#d0" x="280" y="280" /><use href="#d0" x="280" y="320" /><use href="#d0" x="320" y="40" /><use href="#d0" x="320" y="80" /><use href="#d0" x="320" y="120" /><use href="#d0" x="320" y="160" /><use href="#l0" x="302" y="182" /><use href="#l0" x="302" y="222" /><use href="#d0" x="320" y="280" /><use href="#d0" x="320" y="320" /></svg>