<svg width="360" height="360" xmlns="http://www.w3.org/2000/svg"><defs><animate id="aa" begin="0s"/><rect id="d0" width="36" height="36" fill="#c43240"></rect><circle id="l0" r="18" fill="#01263d"></circle></defs><rect width="100%" height="100%" fill="#ef4043" /><use href="#d0" x="22" y="22" /><use href="#d0" x="22" y="62" /><use href="#l0" x="40" y="120" /><use href="#d0" x="22" y="142" /><use href="#d0" x="22" y="182" /><use href="#l0" x="40" y="240" /><use href="#d0" x="22" y="262" /><use href="#d0" x="22" y="302" /><use href="#l0" x="80" y="40" /><use href="#l0" x="80" y="80" /><use href="#l0" x="80" y="120" /><use href="#l0" x="80" y="160" /><use href="#d0" x="62" y="182" /><use href="#l0" x="80" y="240" /><use href="#d0" x="62" y="262" /><use href="#l0" x="80" y="320" /><use href="#d0" x="102" y="22" /><use href="#d0" x="102" y="62" /><use href="#d0" x="102" y="102" /><use href="#d0" x="102" y="142" /><use href="#d0" x="102" y="182" /><use href="#l0" x="120" y="240" /><use href="#d0" x="102" y="262" /><g transform="translate(102,302)"><use href="#p0" /><polygon points="0,0 0,36 36,36 36,0" fill="#ef4043"><animate attributeType="XML" attributeName="fill" values="#ef4043;#c43240;#ef4043;#ef4043" dur="0.4s" repeatCount="indefinite"/></polygon></g><g transform="translate(142,22)"><use href="#p0" /><polygon points="0,0 0,36 36,36 36,0" fill="#ef4043"><animate attributeType="XML" attributeName="fill" values="#ef4043;#c43240;#ef4043;#ef4043" dur="0.0s" repeatCount="indefinite"/></polygon></g><use href="#d0" x="142" y="62" /><g transform="translate(142,102)"><use href="#p0" /><polygon points="0,0 0,36 36,36 36,0" fill="#ef4043"><animate attributeType="XML" attributeName="fill" values="#ef4043;#c43240;#ef4043;#ef4043" dur="0.6s" repeatCount="indefinite"/></polygon></g><g transform="translate(142,142)"><use href="#p0" /><polygon points="0,0 0,36 36,36 36,0" fill="#ef4043"><animate attributeType="XML" attributeName="fill" values="#ef4043;#c43240;#ef4043;#ef4043" dur="0.9s" repeatCount="indefinite"/></polygon></g><g transform="translate(160,200)"><use href="#b0" /><circle r="18" fill="#72bad5"><animate attributeType="XML" attributeName="fill" values="#72bad5;#01263d;#72bad5;#72bad5" dur="0.2s" repeatCount="indefinite"/></circle></g><use href="#l0" x="160" y="240" /><use href="#d0" x="142" y="262" /><g transform="translate(142,302)"><use href="#p0" /><polygon points="0,0 0,36 36,36 36,0" fill="#ef4043"><animate attributeType="XML" attributeName="fill" values="#ef4043;#c43240;#ef4043;#ef4043" dur="0.1s" repeatCount="indefinite"/></polygon></g><use href="#d0" x="182" y="22" /><use href="#d0" x="182" y="62" /><use href="#d0" x="182" y="102" /><use href="#d0" x="182" y="142" /><use href="#d0" x="182" y="182" /><g transform="translate(182,222)"><use href="#p0" /><polygon points="0,0 0,36 36,36 36,0" fill="#ef4043"><animate attributeType="XML" attributeName="fill" values="#ef4043;#c43240;#ef4043;#ef4043" dur="0.0s" repeatCount="indefinite"/></polygon></g><use href="#d0" x="182" y="262" /><use href="#d0" x="182" y="302" /><use href="#d0" x="222" y="22" /><use href="#d0" x="222" y="62" /><use href="#d0" x="222" y="102" /><use href="#d0" x="222" y="142" /><g transform="translate(222,182)"><use href="#p0" /><polygon points="0,0 0,36 36,36 36,0" fill="#ef4043"><animate attributeType="XML" attributeName="fill" values="#ef4043;#c43240;#ef4043;#ef4043" dur="0.0s" repeatCount="indefinite"/></polygon></g><g transform="translate(222,222)"><use href="#p0" /><polygon points="0,0 0,36 36,36 36,0" fill="#ef4043"><animate attributeType="XML" attributeName="fill" values="#ef4043;#c43240;#ef4043;#ef4043" dur="0.5s" repeatCount="indefinite"/></polygon></g><use href="#d0" x="222" y="262" /><use href="#d0" x="222" y="302" /><g transform="translate(280,40)"><use href="#b0" /><circle r="18" fill="#72bad5"><animate attributeType="XML" attributeName="fill" values="#72bad5;#01263d;#72bad5;#72bad5" dur="0.0s" repeatCount="indefinite"/></circle></g><use href="#d0" x="262" y="62" /><use href="#d0" x="262" y="102" /><use href="#d0" x="262" y="142" /><use href="#d0" x="262" y="182" /><g transform="translate(280,240)"><use href="#b0" /><circle r="18" fill="#72bad5"><animate attributeType="XML" attributeName="fill" values="#72bad5;#01263d;#72bad5;#72bad5" dur="0.0s" repeatCount="indefinite"/></circle></g><g transform="translate(262,262)"><use href="#p0" /><polygon points="0,0 0,36 36,36 36,0" fill="#ef4043"><animate attributeType="XML" attributeName="fill" values="#ef4043;#c43240;#ef4043;#ef4043" dur="0.6s" repeatCount="indefinite"/></polygon></g><use href="#l0" x="280" y="320" /><use href="#l0" x="320" y="40" /><g transform="translate(320,80)"><use href="#b0" /><circle r="18" fill="#72bad5"><animate attributeType="XML" attributeName="fill" values="#72bad5;#01263d;#72bad5;#72bad5" dur="0.7s" repeatCount="indefinite"/></circle></g><use href="#d0" x="302" y="102" /><use href="#d0" x="302" y="142" /><use href="#l0" x="320" y="200" /><use href="#l0" x="320" y="240" /><use href="#d0" x="302" y="262" /><use href="#l0" x="320" y="320" /></svg>