<svg width="360" height="360" xmlns="http://www.w3.org/2000/svg"><defs><animate id="aa" begin="0s"/><rect id="l0" width="36" height="36" fill="#003559"></rect><rect id="d0" width="36" height="36" fill="#B9D6F2"></rect></defs><rect width="100%" height="100%" fill="#061A40" /><use href="#l0" x="22" y="22" /><use href="#d0" x="22" y="62" /><use href="#d0" x="22" y="102" /><g transform="translate(22,142)"><use href="#p0" /><polygon points="0,0 0,36 36,36 36,0" fill="#BFD7EA"><animate attributeType="XML" attributeName="fill" values="#BFD7EA;#B9D6F2;#BFD7EA;#BFD7EA" dur="2.0s" repeatCount="indefinite"/></polygon></g><use href="#d0" x="22" y="182" /><g transform="translate(22,222)"><use href="#b0" /><polygon points="0,0 0,36 36,36 36,0" fill="#006DAA"><animate attributeType="XML" attributeName="fill" values="#006DAA;#003559;#006DAA;#006DAA" dur="2.0s" repeatCount="indefinite"/></polygon></g><g transform="translate(22,262)"><use href="#b0" /><polygon points="0,0 0,36 36,36 36,0" fill="#006DAA"><animate attributeType="XML" attributeName="fill" values="#006DAA;#003559;#006DAA;#006DAA" dur="2.0s" repeatCount="indefinite"/></polygon></g><g transform="translate(22,302)"><use href="#p0" /><polygon points="0,0 0,36 36,36 36,0" fill="#BFD7EA"><animate attributeType="XML" attributeName="fill" values="#BFD7EA;#B9D6F2;#BFD7EA;#BFD7EA" dur="2.0s" repeatCount="indefinite"/></polygon></g><use href="#d0" x="62" y="22" /><use href="#l0" x="62" y="62" /><g transform="translate(62,102)"><use href="#b0" /><polygon points="0,0 0,36 36,36 36,0" fill="#006DAA"><animate attributeType="XML" attributeName="fill" values="#006DAA;#003559;#006DAA;#006DAA" dur="2.2s" repeatCount="indefinite"/></polygon></g><use href="#l0" x="62" y="142" /><use href="#l0" x="62" y="182" /><g transform="translate(62,222)"><use href="#b0" /><polygon points="0,0 0,36 36,36 36,0" fill="#006DAA"><animate attributeType="XML" attributeName="fill" values="#006DAA;#003559;#006DAA;#006DAA" dur="2.5s" repeatCount="indefinite"/></polygon></g><g transform="translate(62,262)"><use href="#b0" /><polygon points="0,0 0,36 36,36 36,0" fill="#006DAA"><animate attributeType="XML" attributeName="fill" values="#006DAA;#003559;#006DAA;#006DAA" dur="2.6s" repeatCount="indefinite"/></polygon></g><use href="#d0" x="62" y="302" /><use href="#l0" x="102" y="22" /><g transform="translate(102,62)"><use href="#p0" /><polygon points="0,0 0,36 36,36 36,0" fill="#BFD7EA"><animate attributeType="XML" attributeName="fill" values="#BFD7EA;#B9D6F2;#BFD7EA;#BFD7EA" dur="2.2s" repeatCount="indefinite"/></polygon></g><use href="#d0" x="102" y="102" /><use href="#d0" x="102" y="142" /><use href="#d0" x="102" y="182" /><use href="#d0" x="102" y="222" /><use href="#d0" x="102" y="262" /><use href="#d0" x="102" y="302" /><g transform="translate(142,22)"><use href="#b0" /><polygon points="0,0 0,36 36,36 36,0" fill="#006DAA"><animate attributeType="XML" attributeName="fill" values="#006DAA;#003559;#006DAA;#006DAA" dur="2.0s" repeatCount="indefinite"/></polygon></g><use href="#d0" x="142" y="62" /><use href="#l0" x="142" y="102" /><use href="#l0" x="142" y="142" /><use href="#l0" x="142" y="182" /><use href="#d0" x="142" y="222" /><use href="#d0" x="142" y="262" /><g transform="translate(142,302)"><use href="#b0" /><polygon points="0,0 0,36 36,36 36,0" fill="#006DAA"><animate attributeType="XML" attributeName="fill" values="#006DAA;#003559;#006DAA;#006DAA" dur="2.1s" repeatCount="indefinite"/></polygon></g><g transform="translate(182,22)"><use href="#p0" /><polygon points="0,0 0,36 36,36 36,0" fill="#BFD7EA"><animate attributeType="XML" attributeName="fill" values="#BFD7EA;#B9D6F2;#BFD7EA;#BFD7EA" dur="2.0s" repeatCount="indefinite"/></polygon></g><g transform="translate(182,62)"><use href="#p0" /><polygon points="0,0 0,36 36,36 36,0" fill="#BFD7EA"><animate attributeType="XML" attributeName="fill" values="#BFD7EA;#B9D6F2;#BFD7EA;#BFD7EA" dur="2.4s" repeatCount="indefinite"/></polygon></g><g transform="translate(182,102)"><use href="#b0" /><polygon points="0,0 0,36 36,36 36,0" fill="#006DAA"><animate attributeType="XML" attributeName="fill" values="#006DAA;#003559;#006DAA;#006DAA" dur="2.8s" repeatCount="indefinite"/></polygon></g><use href="#d0" x="182" y="142" /><use href="#d0" x="182" y="182" /><use href="#l0" x="182" y="222" /><use href="#d0" x="182" y="262" /><g transform="translate(182,302)"><use href="#b0" /><polygon points="0,0 0,36 36,36 36,0" fill="#006DAA"><animate attributeType="XML" attributeName="fill" values="#006DAA;#003559;#006DAA;#006DAA" dur="2.8s" repeatCount="indefinite"/></polygon></g><use href="#l0" x="222" y="22" /><use href="#d0" x="222" y="62" /><use href="#l0" x="222" y="102" /><use href="#d0" x="222" y="142" /><use href="#l0" x="222" y="182" /><use href="#d0" x="222" y="222" /><use href="#d0" x="222" y="262" /><use href="#d0" x="222" y="302" /><use href="#l0" x="262" y="22" /><use href="#d0" x="262" y="62" /><use href="#l0" x="262" y="102" /><use href="#d0" x="262" y="142" /><use href="#d0" x="262" y="182" /><g transform="translate(262,222)"><use href="#p0" /><polygon points="0,0 0,36 36,36 36,0" fill="#BFD7EA"><animate attributeType="XML" attributeName="fill" values="#BFD7EA;#B9D6F2;#BFD7EA;#BFD7EA" dur="2.0s" repeatCount="indefinite"/></polygon></g><g transform="translate(262,262)"><use href="#p0" /><polygon points="0,0 0,36 36,36 36,0" fill="#BFD7EA"><animate attributeType="XML" attributeName="fill" values="#BFD7EA;#B9D6F2;#BFD7EA;#BFD7EA" dur="2.6s" repeatCount="indefinite"/></polygon></g><use href="#d0" x="262" y="302" /><use href="#l0" x="302" y="22" /><use href="#d0" x="302" y="62" /><use href="#l0" x="302" y="102" /><use href="#l0" x="302" y="142" /><use href="#l0" x="302" y="182" /><use href="#d0" x="302" y="222" /><use href="#l0" x="302" y="262" /><use href="#d0" x="302" y="302" /></svg>