<svg width="360" height="360" xmlns="http://www.w3.org/2000/svg"><defs><animate id="aa" begin="0s"/><rect id="l0" width="36" height="36" fill="#000000"></rect><circle id="d0" r="18" fill="#6f6269"></circle></defs><rect width="100%" height="100%" fill="#0c226e" /><use href="#d0" x="40" y="40" /><use href="#d0" x="40" y="80" /><use href="#l0" x="22" y="102" /><use href="#l0" x="22" y="142" /><use href="#l0" x="22" y="182" /><use href="#d0" x="40" y="240" /><use href="#d0" x="40" y="280" /><g transform="translate(40,320)"><use href="#p0" /><circle r="18" fill="#3b63ba"><animate attributeType="XML" attributeName="fill" values="#3b63ba;#6f6269;#3b63ba;#3b63ba" dur="1.0s" repeatCount="indefinite"/></circle></g><use href="#l0" x="62" y="22" /><use href="#l0" x="62" y="62" /><use href="#d0" x="80" y="120" /><use href="#d0" x="80" y="160" /><use href="#d0" x="80" y="200" /><use href="#l0" x="62" y="222" /><use href="#l0" x="62" y="262" /><use href="#l0" x="62" y="302" /><use href="#d0" x="120" y="40" /><use href="#d0" x="120" y="80" /><use href="#l0" x="102" y="102" /><use href="#d0" x="120" y="160" /><use href="#d0" x="120" y="200" /><use href="#l0" x="102" y="222" /><use href="#d0" x="120" y="280" /><use href="#d0" x="120" y="320" /><use href="#l0" x="142" y="22" /><use href="#l0" x="142" y="62" /><use href="#d0" x="160" y="120" /><use href="#d0" x="160" y="160" /><use href="#d0" x="160" y="200" /><use href="#d0" x="160" y="240" /><use href="#l0" x="142" y="262" /><use href="#l0" x="142" y="302" /><use href="#d0" x="200" y="40" /><use href="#d0" x="200" y="80" /><use href="#l0" x="182" y="102" /><use href="#l0" x="182" y="142" /><use href="#l0" x="182" y="182" /><use href="#l0" x="182" y="222" /><use href="#d0" x="200" y="280" /><use href="#d0" x="200" y="320" /><use href="#l0" x="222" y="22" /><use href="#l0" x="222" y="62" /><use href="#d0" x="240" y="120" /><use href="#d0" x="240" y="160" /><use href="#d0" x="240" y="200" /><use href="#d0" x="240" y="240" /><use href="#l0" x="222" y="262" /><use href="#l0" x="222" y="302" /><use href="#d0" x="280" y="40" /><use href="#l0" x="262" y="62" /><g transform="translate(262,102)"><use href="#b0" /><polygon points="0,0 0,36 36,36 36,0" fill="#fafeff"><animate attributeType="XML" attributeName="fill" values="#fafeff;#000000;#fafeff;#fafeff" dur="1.2s" repeatCount="indefinite"/></polygon></g><use href="#d0" x="280" y="160" /><g transform="translate(280,200)"><use href="#p0" /><circle r="18" fill="#3b63ba"><animate attributeType="XML" attributeName="fill" values="#3b63ba;#6f6269;#3b63ba;#3b63ba" dur="1.4s" repeatCount="indefinite"/></circle></g><g transform="translate(262,222)"><use href="#b0" /><polygon points="0,0 0,36 36,36 36,0" fill="#fafeff"><animate attributeType="XML" attributeName="fill" values="#fafeff;#000000;#fafeff;#fafeff" dur="1.0s" repeatCount="indefinite"/></polygon></g><use href="#d0" x="280" y="280" /><use href="#d0" x="280" y="320" /><g transform="translate(302,22)"><use href="#b0" /><polygon points="0,0 0,36 36,36 36,0" fill="#fafeff"><animate attributeType="XML" attributeName="fill" values="#fafeff;#000000;#fafeff;#fafeff" dur="1.0s" repeatCount="indefinite"/></polygon></g><g transform="translate(320,80)"><use href="#p0" /><circle r="18" fill="#3b63ba"><animate attributeType="XML" attributeName="fill" values="#3b63ba;#6f6269;#3b63ba;#3b63ba" dur="1.7s" repeatCount="indefinite"/></circle></g><use href="#d0" x="320" y="120" /><use href="#d0" x="320" y="160" /><use href="#d0" x="320" y="200" /><use href="#l0" x="302" y="222" /><use href="#l0" x="302" y="262" /><use href="#l0" x="302" y="302" /></svg>