<svg width="360" height="360" xmlns="http://www.w3.org/2000/svg"><defs><animate id="aa" begin="0s"/><rect id="l0" width="36" height="36" fill="#A80874"></rect><circle id="d0" r="18" fill="#E3D8F1"></circle></defs><rect width="100%" height="100%" fill="#1C7C54" /><use href="#l0" x="22" y="22" /><g transform="translate(40,80)"><use href="#p0" /><circle r="18" fill="#F0F66E"><animate attributeType="XML" attributeName="fill" values="#F0F66E;#E3D8F1;#F0F66E;#F0F66E" dur="0.0s" repeatCount="indefinite"/></circle></g><use href="#d0" x="40" y="120" /><g transform="translate(40,160)"><use href="#p0" /><circle r="18" fill="#F0F66E"><animate attributeType="XML" attributeName="fill" values="#F0F66E;#E3D8F1;#F0F66E;#F0F66E" dur="0.0s" repeatCount="indefinite"/></circle></g><use href="#d0" x="40" y="200" /><g transform="translate(40,240)"><use href="#p0" /><circle r="18" fill="#F0F66E"><animate attributeType="XML" attributeName="fill" values="#F0F66E;#E3D8F1;#F0F66E;#F0F66E" dur="0.0s" repeatCount="indefinite"/></circle></g><use href="#d0" x="40" y="280" /><use href="#d0" x="40" y="320" /><g transform="translate(62,22)"><use href="#b0" /><polygon points="0,0 0,36 36,36 36,0" fill="#33658A"><animate attributeType="XML" attributeName="fill" values="#33658A;#A80874;#33658A;#33658A" dur="0.0s" repeatCount="indefinite"/></polygon></g><use href="#d0" x="80" y="80" /><use href="#l0" x="62" y="102" /><use href="#l0" x="62" y="142" /><g transform="translate(62,182)"><use href="#b0" /><polygon points="0,0 0,36 36,36 36,0" fill="#33658A"><animate attributeType="XML" attributeName="fill" values="#33658A;#A80874;#33658A;#33658A" dur="0.4s" repeatCount="indefinite"/></polygon></g><use href="#l0" x="62" y="222" /><g transform="translate(62,262)"><use href="#b0" /><polygon points="0,0 0,36 36,36 36,0" fill="#33658A"><animate attributeType="XML" attributeName="fill" values="#33658A;#A80874;#33658A;#33658A" dur="0.6s" repeatCount="indefinite"/></polygon></g><g transform="translate(80,320)"><use href="#p0" /><circle r="18" fill="#F0F66E"><animate attributeType="XML" attributeName="fill" values="#F0F66E;#E3D8F1;#F0F66E;#F0F66E" dur="0.7s" repeatCount="indefinite"/></circle></g><use href="#d0" x="120" y="40" /><use href="#d0" x="120" y="80" /><use href="#l0" x="102" y="102" /><use href="#d0" x="120" y="160" /><g transform="translate(120,200)"><use href="#p0" /><circle r="18" fill="#F0F66E"><animate attributeType="XML" attributeName="fill" values="#F0F66E;#E3D8F1;#F0F66E;#F0F66E" dur="0.8s" repeatCount="indefinite"/></circle></g><use href="#d0" x="120" y="240" /><use href="#d0" x="120" y="280" /><use href="#l0" x="102" y="302" /><use href="#d0" x="160" y="40" /><use href="#l0" x="142" y="62" /><use href="#d0" x="160" y="120" /><g transform="translate(142,142)"><use href="#b0" /><polygon points="0,0 0,36 36,36 36,0" fill="#33658A"><animate attributeType="XML" attributeName="fill" values="#33658A;#A80874;#33658A;#33658A" dur="0.9s" repeatCount="indefinite"/></polygon></g><use href="#d0" x="160" y="200" /><use href="#l0" x="142" y="222" /><use href="#d0" x="160" y="280" /><use href="#l0" x="142" y="302" /><use href="#d0" x="200" y="40" /><use href="#l0" x="182" y="62" /><use href="#d0" x="200" y="120" /><use href="#l0" x="182" y="142" /><g transform="translate(200,200)"><use href="#p0" /><circle r="18" fill="#F0F66E"><animate attributeType="XML" attributeName="fill" values="#F0F66E;#E3D8F1;#F0F66E;#F0F66E" dur="0.6s" repeatCount="indefinite"/></circle></g><g transform="translate(200,240)"><use href="#p0" /><circle r="18" fill="#F0F66E"><animate attributeType="XML" attributeName="fill" values="#F0F66E;#E3D8F1;#F0F66E;#F0F66E" dur="0.0s" repeatCount="indefinite"/></circle></g><use href="#d0" x="200" y="280" /><use href="#l0" x="182" y="302" /><use href="#d0" x="240" y="40" /><use href="#d0" x="240" y="80" /><use href="#l0" x="222" y="102" /><g transform="translate(222,142)"><use href="#b0" /><polygon points="0,0 0,36 36,36 36,0" fill="#33658A"><animate attributeType="XML" attributeName="fill" values="#33658A;#A80874;#33658A;#33658A" dur="0.5s" repeatCount="indefinite"/></polygon></g><use href="#d0" x="240" y="200" /><use href="#d0" x="240" y="240" /><use href="#d0" x="240" y="280" /><use href="#l0" x="222" y="302" /><use href="#l0" x="262" y="22" /><use href="#d0" x="280" y="80" /><g transform="translate(280,120)"><use href="#p0" /><circle r="18" fill="#F0F66E"><animate attributeType="XML" attributeName="fill" values="#F0F66E;#E3D8F1;#F0F66E;#F0F66E" dur="0.2s" repeatCount="indefinite"/></circle></g><use href="#d0" x="280" y="160" /><use href="#d0" x="280" y="200" /><g transform="translate(262,222)"><use href="#b0" /><polygon points="0,0 0,36 36,36 36,0" fill="#33658A"><animate attributeType="XML" attributeName="fill" values="#33658A;#A80874;#33658A;#33658A" dur="0.0s" repeatCount="indefinite"/></polygon></g><use href="#d0" x="280" y="280" /><use href="#d0" x="280" y="320" /><use href="#l0" x="302" y="22" /><use href="#d0" x="320" y="80" /><g transform="translate(320,120)"><use href="#p0" /><circle r="18" fill="#F0F66E"><animate attributeType="XML" attributeName="fill" values="#F0F66E;#E3D8F1;#F0F66E;#F0F66E" dur="0.4s" repeatCount="indefinite"/></circle></g><g transform="translate(320,160)"><use href="#p0" /><circle r="18" fill="#F0F66E"><animate attributeType="XML" attributeName="fill" values="#F0F66E;#E3D8F1;#F0F66E;#F0F66E" dur="0.1s" repeatCount="indefinite"/></circle></g><use href="#l0" x="302" y="182" /><use href="#l0" x="302" y="222" /><use href="#l0" x="302" y="262" /><use href="#d0" x="320" y="320" /></svg>