<svg width="360" height="360" xmlns="http://www.w3.org/2000/svg"><defs><animate id="aa" begin="0s"/><rect id="l0" width="36" height="36" fill="#081C15"></rect><circle id="d0" r="18" fill="#D8F3DC"></circle></defs><rect width="100%" height="100%" fill="#52B788" /><use href="#d0" x="40" y="40" /><use href="#l0" x="22" y="62" /><g transform="translate(22,102)"><use href="#b0" /><polygon points="0,0 0,36 36,36 36,0" fill="#40916C"><animate attributeType="XML" attributeName="fill" values="#40916C;#081C15;#40916C;#40916C" dur="4s" begin="aa.begin +1s" repeatCount="indefinite"/></polygon></g><g transform="translate(22,142)"><use href="#b0" /><polygon points="0,0 0,36 36,36 36,0" fill="#40916C"><animate attributeType="XML" attributeName="fill" values="#40916C;#081C15;#40916C;#40916C" dur="4s" begin="aa.begin +1.5s" repeatCount="indefinite"/></polygon></g><use href="#d0" x="40" y="200" /><use href="#l0" x="22" y="222" /><g transform="translate(22,262)"><use href="#b0" /><polygon points="0,0 0,36 36,36 36,0" fill="#40916C"><animate attributeType="XML" attributeName="fill" values="#40916C;#081C15;#40916C;#40916C" dur="4s" begin="aa.begin +2s" repeatCount="indefinite"/></polygon></g><use href="#d0" x="40" y="320" /><use href="#d0" x="80" y="40" /><use href="#d0" x="80" y="80" /><g transform="translate(80,120)"><use href="#p0" /><circle r="18" fill="#2D6A4F"><animate attributeType="XML" attributeName="fill" values="#2D6A4F;#D8F3DC;#2D6A4F;#2D6A4F" dur="4s" begin="aa.begin +s" repeatCount="indefinite"/></circle></g><g transform="translate(62,142)"><use href="#b0" /><polygon points="0,0 0,36 36,36 36,0" fill="#40916C"><animate attributeType="XML" attributeName="fill" values="#40916C;#081C15;#40916C;#40916C" dur="4s" begin="aa.begin +2.5s" repeatCount="indefinite"/></polygon></g><g transform="translate(80,200)"><use href="#p0" /><circle r="18" fill="#2D6A4F"><animate attributeType="XML" attributeName="fill" values="#2D6A4F;#D8F3DC;#2D6A4F;#2D6A4F" dur="4s" begin="aa.begin +3s" repeatCount="indefinite"/></circle></g><use href="#l0" x="62" y="222" /><use href="#d0" x="80" y="280" /><g transform="translate(62,302)"><use href="#b0" /><polygon points="0,0 0,36 36,36 36,0" fill="#40916C"><animate attributeType="XML" attributeName="fill" values="#40916C;#081C15;#40916C;#40916C" dur="4s" begin="aa.begin +3.5s" repeatCount="indefinite"/></polygon></g><g transform="translate(120,40)"><use href="#p0" /><circle r="18" fill="#2D6A4F"><animate attributeType="XML" attributeName="fill" values="#2D6A4F;#D8F3DC;#2D6A4F;#2D6A4F" dur="4s" begin="aa.begin +4s" repeatCount="indefinite"/></circle></g><g transform="translate(120,80)"><use href="#p0" /><circle r="18" fill="#2D6A4F"><animate attributeType="XML" attributeName="fill" values="#2D6A4F;#D8F3DC;#2D6A4F;#2D6A4F" dur="4s" begin="aa.begin +4.5s" repeatCount="indefinite"/></circle></g><use href="#d0" x="120" y="120" /><use href="#d0" x="120" y="160" /><use href="#d0" x="120" y="200" /><use href="#l0" x="102" y="222" /><use href="#d0" x="120" y="280" /><use href="#l0" x="102" y="302" /><use href="#d0" x="160" y="40" /><use href="#d0" x="160" y="80" /><use href="#d0" x="160" y="120" /><use href="#d0" x="160" y="160" /><g transform="translate(160,200)"><use href="#p0" /><circle r="18" fill="#2D6A4F"><animate attributeType="XML" attributeName="fill" values="#2D6A4F;#D8F3DC;#2D6A4F;#2D6A4F" dur="4s" begin="aa.begin +5s" repeatCount="indefinite"/></circle></g><use href="#l0" x="142" y="222" /><use href="#d0" x="160" y="280" /><use href="#l0" x="142" y="302" /><use href="#l0" x="182" y="22" /><use href="#d0" x="200" y="80" /><use href="#d0" x="200" y="120" /><g transform="translate(200,160)"><use href="#p0" /><circle r="18" fill="#2D6A4F"><animate attributeType="XML" attributeName="fill" values="#2D6A4F;#D8F3DC;#2D6A4F;#2D6A4F" dur="4s" begin="aa.begin +5.5s" repeatCount="indefinite"/></circle></g><use href="#d0" x="200" y="200" /><use href="#l0" x="182" y="222" /><use href="#d0" x="200" y="280" /><use href="#l0" x="182" y="302" /><use href="#d0" x="240" y="40" /><use href="#d0" x="240" y="80" /><g transform="translate(222,102)"><use href="#b0" /><polygon points="0,0 0,36 36,36 36,0" fill="#40916C"><animate attributeType="XML" attributeName="fill" values="#40916C;#081C15;#40916C;#40916C" dur="4s" begin="aa.begin +6s" repeatCount="indefinite"/></polygon></g><use href="#l0" x="222" y="142" /><use href="#d0" x="240" y="200" /><use href="#l0" x="222" y="222" /><use href="#d0" x="240" y="280" /><use href="#l0" x="222" y="302" /><g transform="translate(262,22)"><use href="#b0" /><polygon points="0,0 0,36 36,36 36,0" fill="#40916C"><animate attributeType="XML" attributeName="fill" values="#40916C;#081C15;#40916C;#40916C" dur="4s" begin="aa.begin +6.5s" repeatCount="indefinite"/></polygon></g><use href="#d0" x="280" y="80" /><g transform="translate(280,120)"><use href="#p0" /><circle r="18" fill="#2D6A4F"><animate attributeType="XML" attributeName="fill" values="#2D6A4F;#D8F3DC;#2D6A4F;#2D6A4F" dur="4s" begin="aa.begin +7s" repeatCount="indefinite"/></circle></g><use href="#l0" x="262" y="142" /><use href="#d0" x="280" y="200" /><use href="#l0" x="262" y="222" /><use href="#d0" x="280" y="280" /><use href="#l0" x="262" y="302" /><use href="#d0" x="320" y="40" /><use href="#l0" x="302" y="62" /><use href="#d0" x="320" y="120" /><g transform="translate(302,142)"><use href="#b0" /><polygon points="0,0 0,36 36,36 36,0" fill="#40916C"><animate attributeType="XML" attributeName="fill" values="#40916C;#081C15;#40916C;#40916C" dur="4s" begin="aa.begin +7.5s" repeatCount="indefinite"/></polygon></g><use href="#d0" x="320" y="200" /><use href="#l0" x="302" y="222" /><use href="#d0" x="320" y="280" /><g transform="translate(302,302)"><use href="#b0" /><polygon points="0,0 0,36 36,36 36,0" fill="#40916C"><animate attributeType="XML" attributeName="fill" values="#40916C;#081C15;#40916C;#40916C" dur="4s" begin="aa.begin +8s" repeatCount="indefinite"/></polygon></g></svg>