<svg width="360" height="360" xmlns="http://www.w3.org/2000/svg"><defs><animate id="aa" begin="0s"/><rect id="d0" width="36" height="36" fill="#C04CFD"></rect><circle id="l0" r="18" fill="#87FF65"></circle></defs><rect width="100%" height="100%" fill="#E6FDFF" /><use href="#d0" x="22" y="22" /><g transform="translate(40,80)"><use href="#b0" /><circle r="18" fill="#5E2BFF"><animate attributeType="XML" attributeName="fill" values="#5E2BFF;#87FF65;#5E2BFF;#5E2BFF" dur="3s" begin="aa.begin +1s" repeatCount="indefinite"/></circle></g><use href="#d0" x="22" y="102" /><use href="#d0" x="22" y="142" /><use href="#d0" x="22" y="182" /><use href="#d0" x="22" y="222" /><use href="#l0" x="40" y="280" /><use href="#d0" x="22" y="302" /><g transform="translate(80,40)"><use href="#b0" /><circle r="18" fill="#5E2BFF"><animate attributeType="XML" attributeName="fill" values="#5E2BFF;#87FF65;#5E2BFF;#5E2BFF" dur="3s" begin="aa.begin +1.5s" repeatCount="indefinite"/></circle></g><use href="#d0" x="62" y="62" /><use href="#d0" x="62" y="102" /><use href="#l0" x="80" y="160" /><use href="#l0" x="80" y="200" /><use href="#d0" x="62" y="222" /><use href="#l0" x="80" y="280" /><use href="#d0" x="62" y="302" /><g transform="translate(120,40)"><use href="#b0" /><circle r="18" fill="#5E2BFF"><animate attributeType="XML" attributeName="fill" values="#5E2BFF;#87FF65;#5E2BFF;#5E2BFF" dur="3s" begin="aa.begin +2s" repeatCount="indefinite"/></circle></g><g transform="translate(102,62)"><use href="#p0" /><polygon points="0,0 0,36 36,36 36,0" fill="#EADEDA"><animate attributeType="XML" attributeName="fill" values="#EADEDA;#C04CFD;#EADEDA;#EADEDA" dur="3s" begin="aa.begin +s" repeatCount="indefinite"/></polygon></g><use href="#l0" x="120" y="120" /><use href="#d0" x="102" y="142" /><use href="#l0" x="120" y="200" /><use href="#d0" x="102" y="222" /><use href="#l0" x="120" y="280" /><g transform="translate(102,302)"><use href="#p0" /><polygon points="0,0 0,36 36,36 36,0" fill="#EADEDA"><animate attributeType="XML" attributeName="fill" values="#EADEDA;#C04CFD;#EADEDA;#EADEDA" dur="3s" begin="aa.begin +2.5s" repeatCount="indefinite"/></polygon></g><use href="#d0" x="142" y="22" /><use href="#d0" x="142" y="62" /><use href="#l0" x="160" y="120" /><use href="#d0" x="142" y="142" /><use href="#l0" x="160" y="200" /><use href="#d0" x="142" y="222" /><use href="#d0" x="142" y="262" /><use href="#d0" x="142" y="302" /><use href="#d0" x="182" y="22" /><g transform="translate(182,62)"><use href="#p0" /><polygon points="0,0 0,36 36,36 36,0" fill="#EADEDA"><animate attributeType="XML" attributeName="fill" values="#EADEDA;#C04CFD;#EADEDA;#EADEDA" dur="3s" begin="aa.begin +3s" repeatCount="indefinite"/></polygon></g><use href="#l0" x="200" y="120" /><use href="#d0" x="182" y="142" /><g transform="translate(182,182)"><use href="#p0" /><polygon points="0,0 0,36 36,36 36,0" fill="#EADEDA"><animate attributeType="XML" attributeName="fill" values="#EADEDA;#C04CFD;#EADEDA;#EADEDA" dur="3s" begin="aa.begin +3.5s" repeatCount="indefinite"/></polygon></g><use href="#d0" x="182" y="222" /><use href="#d0" x="182" y="262" /><use href="#d0" x="182" y="302" /><use href="#l0" x="240" y="40" /><use href="#d0" x="222" y="62" /><g transform="translate(222,102)"><use href="#p0" /><polygon points="0,0 0,36 36,36 36,0" fill="#EADEDA"><animate attributeType="XML" attributeName="fill" values="#EADEDA;#C04CFD;#EADEDA;#EADEDA" dur="3s" begin="aa.begin +4s" repeatCount="indefinite"/></polygon></g><use href="#d0" x="222" y="142" /><use href="#d0" x="222" y="182" /><use href="#d0" x="222" y="222" /><use href="#d0" x="222" y="262" /><use href="#d0" x="222" y="302" /><g transform="translate(262,22)"><use href="#p0" /><polygon points="0,0 0,36 36,36 36,0" fill="#EADEDA"><animate attributeType="XML" attributeName="fill" values="#EADEDA;#C04CFD;#EADEDA;#EADEDA" dur="3s" begin="aa.begin +4.5s" repeatCount="indefinite"/></polygon></g><use href="#d0" x="262" y="62" /><g transform="translate(280,120)"><use href="#b0" /><circle r="18" fill="#5E2BFF"><animate attributeType="XML" attributeName="fill" values="#5E2BFF;#87FF65;#5E2BFF;#5E2BFF" dur="3s" begin="aa.begin +5s" repeatCount="indefinite"/></circle></g><use href="#d0" x="262" y="142" /><use href="#l0" x="280" y="200" /><use href="#d0" x="262" y="222" /><use href="#l0" x="280" y="280" /><g transform="translate(262,302)"><use href="#p0" /><polygon points="0,0 0,36 36,36 36,0" fill="#EADEDA"><animate attributeType="XML" attributeName="fill" values="#EADEDA;#C04CFD;#EADEDA;#EADEDA" dur="3s" begin="aa.begin +5.5s" repeatCount="indefinite"/></polygon></g><use href="#l0" x="320" y="40" /><g transform="translate(302,62)"><use href="#p0" /><polygon points="0,0 0,36 36,36 36,0" fill="#EADEDA"><animate attributeType="XML" attributeName="fill" values="#EADEDA;#C04CFD;#EADEDA;#EADEDA" dur="3s" begin="aa.begin +6s" repeatCount="indefinite"/></polygon></g><use href="#l0" x="320" y="120" /><g transform="translate(302,142)"><use href="#p0" /><polygon points="0,0 0,36 36,36 36,0" fill="#EADEDA"><animate attributeType="XML" attributeName="fill" values="#EADEDA;#C04CFD;#EADEDA;#EADEDA" dur="3s" begin="aa.begin +6.5s" repeatCount="indefinite"/></polygon></g><g transform="translate(302,182)"><use href="#p0" /><polygon points="0,0 0,36 36,36 36,0" fill="#EADEDA"><animate attributeType="XML" attributeName="fill" values="#EADEDA;#C04CFD;#EADEDA;#EADEDA" dur="3s" begin="aa.begin +7s" repeatCount="indefinite"/></polygon></g><use href="#d0" x="302" y="222" /><use href="#l0" x="320" y="280" /><use href="#d0" x="302" y="302" /></svg>