<svg width="360" height="360" xmlns="http://www.w3.org/2000/svg"><defs><animate id="aa" begin="0s"/><rect id="d0" width="36" height="36" fill="#c43240"></rect><circle id="l0" r="18" fill="#01263d"></circle></defs><rect width="100%" height="100%" fill="#ef4043" /><g transform="translate(40,40)"><use href="#b0" /><circle r="18" fill="#0e4c6d"><animate attributeType="XML" attributeName="fill" values="#0e4c6d;#01263d;#0e4c6d;#0e4c6d" dur="1s" begin="aa.begin +1s" repeatCount="indefinite"/></circle></g><g transform="translate(40,80)"><use href="#b0" /><circle r="18" fill="#0e4c6d"><animate attributeType="XML" attributeName="fill" values="#0e4c6d;#01263d;#0e4c6d;#0e4c6d" dur="1s" begin="aa.begin +1.5s" repeatCount="indefinite"/></circle></g><use href="#d0" x="22" y="102" /><g transform="translate(40,160)"><use href="#b0" /><circle r="18" fill="#0e4c6d"><animate attributeType="XML" attributeName="fill" values="#0e4c6d;#01263d;#0e4c6d;#0e4c6d" dur="1s" begin="aa.begin +2s" repeatCount="indefinite"/></circle></g><g transform="translate(22,182)"><use href="#p0" /><polygon points="0,0 0,36 36,36 36,0" fill="#ef4043"><animate attributeType="XML" attributeName="fill" values="#ef4043;#c43240;#ef4043;#ef4043" dur="1s" begin="aa.begin +s" repeatCount="indefinite"/></polygon></g><use href="#d0" x="22" y="222" /><use href="#d0" x="22" y="262" /><use href="#d0" x="22" y="302" /><g transform="translate(62,22)"><use href="#p0" /><polygon points="0,0 0,36 36,36 36,0" fill="#ef4043"><animate attributeType="XML" attributeName="fill" values="#ef4043;#c43240;#ef4043;#ef4043" dur="1s" begin="aa.begin +2.5s" repeatCount="indefinite"/></polygon></g><use href="#d0" x="62" y="62" /><use href="#d0" x="62" y="102" /><use href="#l0" x="80" y="160" /><use href="#d0" x="62" y="182" /><use href="#l0" x="80" y="240" /><g transform="translate(62,262)"><use href="#p0" /><polygon points="0,0 0,36 36,36 36,0" fill="#ef4043"><animate attributeType="XML" attributeName="fill" values="#ef4043;#c43240;#ef4043;#ef4043" dur="1s" begin="aa.begin +3s" repeatCount="indefinite"/></polygon></g><use href="#l0" x="80" y="320" /><use href="#d0" x="102" y="22" /><use href="#d0" x="102" y="62" /><use href="#d0" x="102" y="102" /><use href="#l0" x="120" y="160" /><use href="#d0" x="102" y="182" /><use href="#l0" x="120" y="240" /><use href="#d0" x="102" y="262" /><g transform="translate(102,302)"><use href="#p0" /><polygon points="0,0 0,36 36,36 36,0" fill="#ef4043"><animate attributeType="XML" attributeName="fill" values="#ef4043;#c43240;#ef4043;#ef4043" dur="1s" begin="aa.begin +3.5s" repeatCount="indefinite"/></polygon></g><use href="#d0" x="142" y="22" /><g transform="translate(160,80)"><use href="#b0" /><circle r="18" fill="#0e4c6d"><animate attributeType="XML" attributeName="fill" values="#0e4c6d;#01263d;#0e4c6d;#0e4c6d" dur="1s" begin="aa.begin +4s" repeatCount="indefinite"/></circle></g><g transform="translate(142,102)"><use href="#p0" /><polygon points="0,0 0,36 36,36 36,0" fill="#ef4043"><animate attributeType="XML" attributeName="fill" values="#ef4043;#c43240;#ef4043;#ef4043" dur="1s" begin="aa.begin +4.5s" repeatCount="indefinite"/></polygon></g><use href="#l0" x="160" y="160" /><use href="#d0" x="142" y="182" /><use href="#l0" x="160" y="240" /><g transform="translate(160,280)"><use href="#b0" /><circle r="18" fill="#0e4c6d"><animate attributeType="XML" attributeName="fill" values="#0e4c6d;#01263d;#0e4c6d;#0e4c6d" dur="1s" begin="aa.begin +5s" repeatCount="indefinite"/></circle></g><g transform="translate(160,320)"><use href="#b0" /><circle r="18" fill="#0e4c6d"><animate attributeType="XML" attributeName="fill" values="#0e4c6d;#01263d;#0e4c6d;#0e4c6d" dur="1s" begin="aa.begin +5.5s" repeatCount="indefinite"/></circle></g><use href="#l0" x="200" y="40" /><use href="#d0" x="182" y="62" /><use href="#l0" x="200" y="120" /><use href="#d0" x="182" y="142" /><use href="#l0" x="200" y="200" /><use href="#d0" x="182" y="222" /><g transform="translate(182,262)"><use href="#p0" /><polygon points="0,0 0,36 36,36 36,0" fill="#ef4043"><animate attributeType="XML" attributeName="fill" values="#ef4043;#c43240;#ef4043;#ef4043" dur="1s" begin="aa.begin +6s" repeatCount="indefinite"/></polygon></g><use href="#d0" x="182" y="302" /><use href="#l0" x="240" y="40" /><use href="#d0" x="222" y="62" /><use href="#l0" x="240" y="120" /><use href="#d0" x="222" y="142" /><use href="#l0" x="240" y="200" /><use href="#d0" x="222" y="222" /><g transform="translate(222,262)"><use href="#p0" /><polygon points="0,0 0,36 36,36 36,0" fill="#ef4043"><animate attributeType="XML" attributeName="fill" values="#ef4043;#c43240;#ef4043;#ef4043" dur="1s" begin="aa.begin +6.5s" repeatCount="indefinite"/></polygon></g><use href="#d0" x="222" y="302" /><use href="#l0" x="280" y="40" /><use href="#d0" x="262" y="62" /><g transform="translate(262,102)"><use href="#p0" /><polygon points="0,0 0,36 36,36 36,0" fill="#ef4043"><animate attributeType="XML" attributeName="fill" values="#ef4043;#c43240;#ef4043;#ef4043" dur="1s" begin="aa.begin +7s" repeatCount="indefinite"/></polygon></g><use href="#d0" x="262" y="142" /><use href="#l0" x="280" y="200" /><use href="#d0" x="262" y="222" /><g transform="translate(262,262)"><use href="#p0" /><polygon points="0,0 0,36 36,36 36,0" fill="#ef4043"><animate attributeType="XML" attributeName="fill" values="#ef4043;#c43240;#ef4043;#ef4043" dur="1s" begin="aa.begin +7.5s" repeatCount="indefinite"/></polygon></g><use href="#d0" x="262" y="302" /><use href="#l0" x="320" y="40" /><use href="#d0" x="302" y="62" /><use href="#d0" x="302" y="102" /><g transform="translate(320,160)"><use href="#b0" /><circle r="18" fill="#0e4c6d"><animate attributeType="XML" attributeName="fill" values="#0e4c6d;#01263d;#0e4c6d;#0e4c6d" dur="1s" begin="aa.begin +8s" repeatCount="indefinite"/></circle></g><use href="#l0" x="320" y="200" /><g transform="translate(320,240)"><use href="#b0" /><circle r="18" fill="#0e4c6d"><animate attributeType="XML" attributeName="fill" values="#0e4c6d;#01263d;#0e4c6d;#0e4c6d" dur="1s" begin="aa.begin +8.5s" repeatCount="indefinite"/></circle></g><g transform="translate(302,262)"><use href="#p0" /><polygon points="0,0 0,36 36,36 36,0" fill="#ef4043"><animate attributeType="XML" attributeName="fill" values="#ef4043;#c43240;#ef4043;#ef4043" dur="1s" begin="aa.begin +9s" repeatCount="indefinite"/></polygon></g><g transform="translate(320,320)"><use href="#b0" /><circle r="18" fill="#0e4c6d"><animate attributeType="XML" attributeName="fill" values="#0e4c6d;#01263d;#0e4c6d;#0e4c6d" dur="1s" begin="aa.begin +9.5s" repeatCount="indefinite"/></circle></g></svg>