<svg width="360" height="360" xmlns="http://www.w3.org/2000/svg"><defs><animate id="aa" begin="0s"/><rect id="l0" width="36" height="36" fill="#FDFFB6"></rect><circle id="d0" r="18" fill="#FFC6FF"></circle></defs><rect width="100%" height="100%" fill="#CAFFBF" /><use href="#d0" x="40" y="40" /><use href="#d0" x="40" y="80" /><g transform="translate(22,102)"><use href="#b0" /><polygon points="0,0 0,36 36,36 36,0" fill="#CAFFBF"><animate attributeType="XML" attributeName="fill" values="#CAFFBF;#FDFFB6;#CAFFBF;#CAFFBF" dur="1.0s" repeatCount="indefinite"/></polygon></g><g transform="translate(22,142)"><use href="#b0" /><polygon points="0,0 0,36 36,36 36,0" fill="#CAFFBF"><animate attributeType="XML" attributeName="fill" values="#CAFFBF;#FDFFB6;#CAFFBF;#CAFFBF" dur="1.0s" repeatCount="indefinite"/></polygon></g><g transform="translate(40,200)"><use href="#p0" /><circle r="18" fill="#A0C4FF"><animate attributeType="XML" attributeName="fill" values="#A0C4FF;#FFC6FF;#A0C4FF;#A0C4FF" dur="1.0s" repeatCount="indefinite"/></circle></g><g transform="translate(40,240)"><use href="#p0" /><circle r="18" fill="#A0C4FF"><animate attributeType="XML" attributeName="fill" values="#A0C4FF;#FFC6FF;#A0C4FF;#A0C4FF" dur="1.0s" repeatCount="indefinite"/></circle></g><g transform="translate(22,262)"><use href="#b0" /><polygon points="0,0 0,36 36,36 36,0" fill="#CAFFBF"><animate attributeType="XML" attributeName="fill" values="#CAFFBF;#FDFFB6;#CAFFBF;#CAFFBF" dur="1.0s" repeatCount="indefinite"/></polygon></g><g transform="translate(22,302)"><use href="#b0" /><polygon points="0,0 0,36 36,36 36,0" fill="#CAFFBF"><animate attributeType="XML" attributeName="fill" values="#CAFFBF;#FDFFB6;#CAFFBF;#CAFFBF" dur="1.0s" repeatCount="indefinite"/></polygon></g><use href="#d0" x="80" y="40" /><use href="#d0" x="80" y="80" /><use href="#d0" x="80" y="120" /><g transform="translate(62,142)"><use href="#b0" /><polygon points="0,0 0,36 36,36 36,0" fill="#CAFFBF"><animate attributeType="XML" attributeName="fill" values="#CAFFBF;#FDFFB6;#CAFFBF;#CAFFBF" dur="1.3s" repeatCount="indefinite"/></polygon></g><g transform="translate(80,200)"><use href="#p0" /><circle r="18" fill="#A0C4FF"><animate attributeType="XML" attributeName="fill" values="#A0C4FF;#FFC6FF;#A0C4FF;#A0C4FF" dur="1.4s" repeatCount="indefinite"/></circle></g><g transform="translate(62,222)"><use href="#b0" /><polygon points="0,0 0,36 36,36 36,0" fill="#CAFFBF"><animate attributeType="XML" attributeName="fill" values="#CAFFBF;#FDFFB6;#CAFFBF;#CAFFBF" dur="1.5s" repeatCount="indefinite"/></polygon></g><g transform="translate(62,262)"><use href="#b0" /><polygon points="0,0 0,36 36,36 36,0" fill="#CAFFBF"><animate attributeType="XML" attributeName="fill" values="#CAFFBF;#FDFFB6;#CAFFBF;#CAFFBF" dur="1.6s" repeatCount="indefinite"/></polygon></g><g transform="translate(80,320)"><use href="#p0" /><circle r="18" fill="#A0C4FF"><animate attributeType="XML" attributeName="fill" values="#A0C4FF;#FFC6FF;#A0C4FF;#A0C4FF" dur="1.7s" repeatCount="indefinite"/></circle></g><g transform="translate(102,22)"><use href="#b0" /><polygon points="0,0 0,36 36,36 36,0" fill="#CAFFBF"><animate attributeType="XML" attributeName="fill" values="#CAFFBF;#FDFFB6;#CAFFBF;#CAFFBF" dur="1.0s" repeatCount="indefinite"/></polygon></g><g transform="translate(102,62)"><use href="#b0" /><polygon points="0,0 0,36 36,36 36,0" fill="#CAFFBF"><animate attributeType="XML" attributeName="fill" values="#CAFFBF;#FDFFB6;#CAFFBF;#CAFFBF" dur="1.2s" repeatCount="indefinite"/></polygon></g><use href="#d0" x="120" y="120" /><use href="#d0" x="120" y="160" /><use href="#d0" x="120" y="200" /><use href="#d0" x="120" y="240" /><use href="#l0" x="102" y="262" /><use href="#l0" x="102" y="302" /><use href="#d0" x="160" y="40" /><use href="#d0" x="160" y="80" /><use href="#d0" x="160" y="120" /><g transform="translate(142,142)"><use href="#b0" /><polygon points="0,0 0,36 36,36 36,0" fill="#CAFFBF"><animate attributeType="XML" attributeName="fill" values="#CAFFBF;#FDFFB6;#CAFFBF;#CAFFBF" dur="1.9s" repeatCount="indefinite"/></polygon></g><g transform="translate(142,182)"><use href="#b0" /><polygon points="0,0 0,36 36,36 36,0" fill="#CAFFBF"><animate attributeType="XML" attributeName="fill" values="#CAFFBF;#FDFFB6;#CAFFBF;#CAFFBF" dur="1.2s" repeatCount="indefinite"/></polygon></g><g transform="translate(142,222)"><use href="#b0" /><polygon points="0,0 0,36 36,36 36,0" fill="#CAFFBF"><animate attributeType="XML" attributeName="fill" values="#CAFFBF;#FDFFB6;#CAFFBF;#CAFFBF" dur="1.5s" repeatCount="indefinite"/></polygon></g><g transform="translate(142,262)"><use href="#b0" /><polygon points="0,0 0,36 36,36 36,0" fill="#CAFFBF"><animate attributeType="XML" attributeName="fill" values="#CAFFBF;#FDFFB6;#CAFFBF;#CAFFBF" dur="1.8s" repeatCount="indefinite"/></polygon></g><g transform="translate(142,302)"><use href="#b0" /><polygon points="0,0 0,36 36,36 36,0" fill="#CAFFBF"><animate attributeType="XML" attributeName="fill" values="#CAFFBF;#FDFFB6;#CAFFBF;#CAFFBF" dur="1.1s" repeatCount="indefinite"/></polygon></g><use href="#d0" x="200" y="40" /><use href="#d0" x="200" y="80" /><use href="#d0" x="200" y="120" /><use href="#d0" x="200" y="160" /><g transform="translate(182,182)"><use href="#b0" /><polygon points="0,0 0,36 36,36 36,0" fill="#CAFFBF"><animate attributeType="XML" attributeName="fill" values="#CAFFBF;#FDFFB6;#CAFFBF;#CAFFBF" dur="1.6s" repeatCount="indefinite"/></polygon></g><g transform="translate(182,222)"><use href="#b0" /><polygon points="0,0 0,36 36,36 36,0" fill="#CAFFBF"><animate attributeType="XML" attributeName="fill" values="#CAFFBF;#FDFFB6;#CAFFBF;#CAFFBF" dur="1.0s" repeatCount="indefinite"/></polygon></g><use href="#d0" x="200" y="280" /><g transform="translate(182,302)"><use href="#b0" /><polygon points="0,0 0,36 36,36 36,0" fill="#CAFFBF"><animate attributeType="XML" attributeName="fill" values="#CAFFBF;#FDFFB6;#CAFFBF;#CAFFBF" dur="1.8s" repeatCount="indefinite"/></polygon></g><use href="#d0" x="240" y="40" /><g transform="translate(222,62)"><use href="#b0" /><polygon points="0,0 0,36 36,36 36,0" fill="#CAFFBF"><animate attributeType="XML" attributeName="fill" values="#CAFFBF;#FDFFB6;#CAFFBF;#CAFFBF" dur="1.5s" repeatCount="indefinite"/></polygon></g><use href="#d0" x="240" y="120" /><use href="#d0" x="240" y="160" /><use href="#d0" x="240" y="200" /><g transform="translate(222,222)"><use href="#b0" /><polygon points="0,0 0,36 36,36 36,0" fill="#CAFFBF"><animate attributeType="XML" attributeName="fill" values="#CAFFBF;#FDFFB6;#CAFFBF;#CAFFBF" dur="1.5s" repeatCount="indefinite"/></polygon></g><use href="#d0" x="240" y="280" /><g transform="translate(222,302)"><use href="#b0" /><polygon points="0,0 0,36 36,36 36,0" fill="#CAFFBF"><animate attributeType="XML" attributeName="fill" values="#CAFFBF;#FDFFB6;#CAFFBF;#CAFFBF" dur="1.5s" repeatCount="indefinite"/></polygon></g><g transform="translate(262,22)"><use href="#b0" /><polygon points="0,0 0,36 36,36 36,0" fill="#CAFFBF"><animate attributeType="XML" attributeName="fill" values="#CAFFBF;#FDFFB6;#CAFFBF;#CAFFBF" dur="1.0s" repeatCount="indefinite"/></polygon></g><g transform="translate(262,62)"><use href="#b0" /><polygon points="0,0 0,36 36,36 36,0" fill="#CAFFBF"><animate attributeType="XML" attributeName="fill" values="#CAFFBF;#FDFFB6;#CAFFBF;#CAFFBF" dur="1.6s" repeatCount="indefinite"/></polygon></g><g transform="translate(262,102)"><use href="#b0" /><polygon points="0,0 0,36 36,36 36,0" fill="#CAFFBF"><animate attributeType="XML" attributeName="fill" values="#CAFFBF;#FDFFB6;#CAFFBF;#CAFFBF" dur="1.2s" repeatCount="indefinite"/></polygon></g><g transform="translate(262,142)"><use href="#b0" /><polygon points="0,0 0,36 36,36 36,0" fill="#CAFFBF"><animate attributeType="XML" attributeName="fill" values="#CAFFBF;#FDFFB6;#CAFFBF;#CAFFBF" dur="1.8s" repeatCount="indefinite"/></polygon></g><g transform="translate(262,182)"><use href="#b0" /><polygon points="0,0 0,36 36,36 36,0" fill="#CAFFBF"><animate attributeType="XML" attributeName="fill" values="#CAFFBF;#FDFFB6;#CAFFBF;#CAFFBF" dur="1.4s" repeatCount="indefinite"/></polygon></g><g transform="translate(262,222)"><use href="#b0" /><polygon points="0,0 0,36 36,36 36,0" fill="#CAFFBF"><animate attributeType="XML" attributeName="fill" values="#CAFFBF;#FDFFB6;#CAFFBF;#CAFFBF" dur="1.0s" repeatCount="indefinite"/></polygon></g><use href="#d0" x="280" y="280" /><g transform="translate(262,302)"><use href="#b0" /><polygon points="0,0 0,36 36,36 36,0" fill="#CAFFBF"><animate attributeType="XML" attributeName="fill" values="#CAFFBF;#FDFFB6;#CAFFBF;#CAFFBF" dur="1.2s" repeatCount="indefinite"/></polygon></g><g transform="translate(302,22)"><use href="#b0" /><polygon points="0,0 0,36 36,36 36,0" fill="#CAFFBF"><animate attributeType="XML" attributeName="fill" values="#CAFFBF;#FDFFB6;#CAFFBF;#CAFFBF" dur="1.0s" repeatCount="indefinite"/></polygon></g><g transform="translate(302,62)"><use href="#b0" /><polygon points="0,0 0,36 36,36 36,0" fill="#CAFFBF"><animate attributeType="XML" attributeName="fill" values="#CAFFBF;#FDFFB6;#CAFFBF;#CAFFBF" dur="1.7s" repeatCount="indefinite"/></polygon></g><g transform="translate(302,102)"><use href="#b0" /><polygon points="0,0 0,36 36,36 36,0" fill="#CAFFBF"><animate attributeType="XML" attributeName="fill" values="#CAFFBF;#FDFFB6;#CAFFBF;#CAFFBF" dur="1.4s" repeatCount="indefinite"/></polygon></g><g transform="translate(302,142)"><use href="#b0" /><polygon points="0,0 0,36 36,36 36,0" fill="#CAFFBF"><animate attributeType="XML" attributeName="fill" values="#CAFFBF;#FDFFB6;#CAFFBF;#CAFFBF" dur="1.1s" repeatCount="indefinite"/></polygon></g><use href="#d0" x="320" y="200" /><g transform="translate(302,222)"><use href="#b0" /><polygon points="0,0 0,36 36,36 36,0" fill="#CAFFBF"><animate attributeType="XML" attributeName="fill" values="#CAFFBF;#FDFFB6;#CAFFBF;#CAFFBF" dur="1.5s" repeatCount="indefinite"/></polygon></g><g transform="translate(302,262)"><use href="#b0" /><polygon points="0,0 0,36 36,36 36,0" fill="#CAFFBF"><animate attributeType="XML" attributeName="fill" values="#CAFFBF;#FDFFB6;#CAFFBF;#CAFFBF" dur="1.2s" repeatCount="indefinite"/></polygon></g><use href="#d0" x="320" y="320" /></svg>