<svg width="360" height="360" xmlns="http://www.w3.org/2000/svg"><defs><animate id="aa" begin="0s"/><circle id="l0" r="18" fill="#1E62AB"></circle><circle id="d0" r="18" fill="#423E37"></circle></defs><rect width="100%" height="100%" fill="#34287E" /><g transform="translate(40,40)"><use href="#p0" /><circle r="18" fill="#C7381D"><animate attributeType="XML" attributeName="fill" values="#C7381D;#423E37;#C7381D;#C7381D" dur="2.0s" repeatCount="indefinite"/></circle></g><use href="#l0" x="40" y="80" /><use href="#d0" x="40" y="120" /><use href="#d0" x="40" y="160" /><use href="#l0" x="40" y="200" /><g transform="translate(40,240)"><use href="#b0" /><circle r="18" fill="#469D45"><animate attributeType="XML" attributeName="fill" values="#469D45;#1E62AB;#469D45;#469D45" dur="2.0s" repeatCount="indefinite"/></circle></g><use href="#d0" x="40" y="280" /><use href="#l0" x="40" y="320" /><use href="#d0" x="80" y="40" /><g transform="translate(80,80)"><use href="#b0" /><circle r="18" fill="#469D45"><animate attributeType="XML" attributeName="fill" values="#469D45;#1E62AB;#469D45;#469D45" dur="2.1s" repeatCount="indefinite"/></circle></g><use href="#l0" x="80" y="120" /><use href="#d0" x="80" y="160" /><use href="#l0" x="80" y="200" /><use href="#d0" x="80" y="240" /><use href="#d0" x="80" y="280" /><use href="#l0" x="80" y="320" /><g transform="translate(120,40)"><use href="#p0" /><circle r="18" fill="#C7381D"><animate attributeType="XML" attributeName="fill" values="#C7381D;#423E37;#C7381D;#C7381D" dur="2.0s" repeatCount="indefinite"/></circle></g><use href="#d0" x="120" y="80" /><use href="#d0" x="120" y="120" /><use href="#d0" x="120" y="160" /><use href="#l0" x="120" y="200" /><use href="#d0" x="120" y="240" /><use href="#l0" x="120" y="280" /><use href="#d0" x="120" y="320" /><g transform="translate(160,40)"><use href="#p0" /><circle r="18" fill="#C7381D"><animate attributeType="XML" attributeName="fill" values="#C7381D;#423E37;#C7381D;#C7381D" dur="2.0s" repeatCount="indefinite"/></circle></g><use href="#l0" x="160" y="80" /><use href="#d0" x="160" y="120" /><use href="#l0" x="160" y="160" /><use href="#d0" x="160" y="200" /><g transform="translate(160,240)"><use href="#p0" /><circle r="18" fill="#C7381D"><animate attributeType="XML" attributeName="fill" values="#C7381D;#423E37;#C7381D;#C7381D" dur="2.5s" repeatCount="indefinite"/></circle></g><use href="#l0" x="160" y="280" /><use href="#d0" x="160" y="320" /><g transform="translate(200,40)"><use href="#p0" /><circle r="18" fill="#C7381D"><animate attributeType="XML" attributeName="fill" values="#C7381D;#423E37;#C7381D;#C7381D" dur="2.0s" repeatCount="indefinite"/></circle></g><use href="#l0" x="200" y="80" /><use href="#d0" x="200" y="120" /><use href="#l0" x="200" y="160" /><use href="#d0" x="200" y="200" /><g transform="translate(200,240)"><use href="#p0" /><circle r="18" fill="#C7381D"><animate attributeType="XML" attributeName="fill" values="#C7381D;#423E37;#C7381D;#C7381D" dur="2.0s" repeatCount="indefinite"/></circle></g><use href="#d0" x="200" y="280" /><use href="#l0" x="200" y="320" /><use href="#l0" x="240" y="40" /><use href="#l0" x="240" y="80" /><use href="#d0" x="240" y="120" /><g transform="translate(240,160)"><use href="#b0" /><circle r="18" fill="#469D45"><animate attributeType="XML" attributeName="fill" values="#469D45;#1E62AB;#469D45;#469D45" dur="2.5s" repeatCount="indefinite"/></circle></g><g transform="translate(240,200)"><use href="#p0" /><circle r="18" fill="#C7381D"><animate attributeType="XML" attributeName="fill" values="#C7381D;#423E37;#C7381D;#C7381D" dur="2.0s" repeatCount="indefinite"/></circle></g><g transform="translate(240,240)"><use href="#p0" /><circle r="18" fill="#C7381D"><animate attributeType="XML" attributeName="fill" values="#C7381D;#423E37;#C7381D;#C7381D" dur="2.5s" repeatCount="indefinite"/></circle></g><g transform="translate(240,280)"><use href="#p0" /><circle r="18" fill="#C7381D"><animate attributeType="XML" attributeName="fill" values="#C7381D;#423E37;#C7381D;#C7381D" dur="2.0s" repeatCount="indefinite"/></circle></g><use href="#d0" x="240" y="320" /><use href="#d0" x="280" y="40" /><use href="#d0" x="280" y="80" /><use href="#d0" x="280" y="120" /><use href="#l0" x="280" y="160" /><use href="#d0" x="280" y="200" /><use href="#d0" x="280" y="240" /><use href="#d0" x="280" y="280" /><g transform="translate(280,320)"><use href="#b0" /><circle r="18" fill="#469D45"><animate attributeType="XML" attributeName="fill" values="#469D45;#1E62AB;#469D45;#469D45" dur="2.2s" repeatCount="indefinite"/></circle></g><g transform="translate(320,40)"><use href="#p0" /><circle r="18" fill="#C7381D"><animate attributeType="XML" attributeName="fill" values="#C7381D;#423E37;#C7381D;#C7381D" dur="2.0s" repeatCount="indefinite"/></circle></g><g transform="translate(320,80)"><use href="#p0" /><circle r="18" fill="#C7381D"><animate attributeType="XML" attributeName="fill" values="#C7381D;#423E37;#C7381D;#C7381D" dur="2.7s" repeatCount="indefinite"/></circle></g><g transform="translate(320,120)"><use href="#b0" /><circle r="18" fill="#469D45"><animate attributeType="XML" attributeName="fill" values="#469D45;#1E62AB;#469D45;#469D45" dur="2.4s" repeatCount="indefinite"/></circle></g><g transform="translate(320,160)"><use href="#p0" /><circle r="18" fill="#C7381D"><animate attributeType="XML" attributeName="fill" values="#C7381D;#423E37;#C7381D;#C7381D" dur="2.1s" repeatCount="indefinite"/></circle></g><use href="#l0" x="320" y="200" /><g transform="translate(320,240)"><use href="#b0" /><circle r="18" fill="#469D45"><animate attributeType="XML" attributeName="fill" values="#469D45;#1E62AB;#469D45;#469D45" dur="2.5s" repeatCount="indefinite"/></circle></g><use href="#d0" x="320" y="280" /><use href="#l0" x="320" y="320" /></svg>