<svg width="360" height="360" xmlns="http://www.w3.org/2000/svg"><defs><animate id="aa" begin="0s"/><rect id="l0" width="36" height="36" fill="#F72585"></rect><circle id="d0" r="18" fill="#159F91"></circle></defs><rect width="100%" height="100%" fill="#92F2E8" /><g transform="translate(22,22)"><use href="#b0" /><polygon points="0,0 0,36 36,36 36,0" fill="#7209B7"><animate attributeType="XML" attributeName="fill" values="#7209B7;#F72585;#7209B7;#7209B7" dur="3s" begin="aa.begin +1s" repeatCount="indefinite"/></polygon></g><g transform="translate(40,80)"><use href="#p0" /><circle r="18" fill="#1BCCBA"><animate attributeType="XML" attributeName="fill" values="#1BCCBA;#159F91;#1BCCBA;#1BCCBA" dur="3s" begin="aa.begin +1.5s" repeatCount="indefinite"/></circle></g><g transform="translate(22,102)"><use href="#b0" /><polygon points="0,0 0,36 36,36 36,0" fill="#7209B7"><animate attributeType="XML" attributeName="fill" values="#7209B7;#F72585;#7209B7;#7209B7" dur="3s" begin="aa.begin +2s" repeatCount="indefinite"/></polygon></g><use href="#l0" x="22" y="142" /><use href="#d0" x="40" y="200" /><use href="#d0" x="40" y="240" /><use href="#d0" x="40" y="280" /><use href="#d0" x="40" y="320" /><use href="#d0" x="80" y="40" /><use href="#d0" x="80" y="80" /><use href="#l0" x="62" y="102" /><use href="#d0" x="80" y="160" /><use href="#l0" x="62" y="182" /><g transform="translate(62,222)"><use href="#b0" /><polygon points="0,0 0,36 36,36 36,0" fill="#7209B7"><animate attributeType="XML" attributeName="fill" values="#7209B7;#F72585;#7209B7;#7209B7" dur="3s" begin="aa.begin +s" repeatCount="indefinite"/></polygon></g><use href="#d0" x="80" y="280" /><use href="#d0" x="80" y="320" /><use href="#d0" x="120" y="40" /><use href="#d0" x="120" y="80" /><use href="#l0" x="102" y="102" /><use href="#d0" x="120" y="160" /><use href="#l0" x="102" y="182" /><use href="#l0" x="102" y="222" /><g transform="translate(102,262)"><use href="#b0" /><polygon points="0,0 0,36 36,36 36,0" fill="#7209B7"><animate attributeType="XML" attributeName="fill" values="#7209B7;#F72585;#7209B7;#7209B7" dur="3s" begin="aa.begin +2.5s" repeatCount="indefinite"/></polygon></g><g transform="translate(102,302)"><use href="#b0" /><polygon points="0,0 0,36 36,36 36,0" fill="#7209B7"><animate attributeType="XML" attributeName="fill" values="#7209B7;#F72585;#7209B7;#7209B7" dur="3s" begin="aa.begin +3s" repeatCount="indefinite"/></polygon></g><use href="#l0" x="142" y="22" /><use href="#d0" x="160" y="80" /><use href="#l0" x="142" y="102" /><use href="#d0" x="160" y="160" /><g transform="translate(142,182)"><use href="#b0" /><polygon points="0,0 0,36 36,36 36,0" fill="#7209B7"><animate attributeType="XML" attributeName="fill" values="#7209B7;#F72585;#7209B7;#7209B7" dur="3s" begin="aa.begin +3.5s" repeatCount="indefinite"/></polygon></g><use href="#d0" x="160" y="240" /><use href="#d0" x="160" y="280" /><g transform="translate(160,320)"><use href="#p0" /><circle r="18" fill="#1BCCBA"><animate attributeType="XML" attributeName="fill" values="#1BCCBA;#159F91;#1BCCBA;#1BCCBA" dur="3s" begin="aa.begin +4s" repeatCount="indefinite"/></circle></g><g transform="translate(182,22)"><use href="#b0" /><polygon points="0,0 0,36 36,36 36,0" fill="#7209B7"><animate attributeType="XML" attributeName="fill" values="#7209B7;#F72585;#7209B7;#7209B7" dur="3s" begin="aa.begin +4.5s" repeatCount="indefinite"/></polygon></g><use href="#d0" x="200" y="80" /><g transform="translate(200,120)"><use href="#p0" /><circle r="18" fill="#1BCCBA"><animate attributeType="XML" attributeName="fill" values="#1BCCBA;#159F91;#1BCCBA;#1BCCBA" dur="3s" begin="aa.begin +5s" repeatCount="indefinite"/></circle></g><use href="#l0" x="182" y="142" /><g transform="translate(182,182)"><use href="#b0" /><polygon points="0,0 0,36 36,36 36,0" fill="#7209B7"><animate attributeType="XML" attributeName="fill" values="#7209B7;#F72585;#7209B7;#7209B7" dur="3s" begin="aa.begin +5.5s" repeatCount="indefinite"/></polygon></g><use href="#d0" x="200" y="240" /><use href="#d0" x="200" y="280" /><use href="#l0" x="182" y="302" /><use href="#d0" x="240" y="40" /><use href="#l0" x="222" y="62" /><use href="#d0" x="240" y="120" /><use href="#l0" x="222" y="142" /><g transform="translate(222,182)"><use href="#b0" /><polygon points="0,0 0,36 36,36 36,0" fill="#7209B7"><animate attributeType="XML" attributeName="fill" values="#7209B7;#F72585;#7209B7;#7209B7" dur="3s" begin="aa.begin +6s" repeatCount="indefinite"/></polygon></g><use href="#d0" x="240" y="240" /><use href="#d0" x="240" y="280" /><use href="#d0" x="240" y="320" /><use href="#d0" x="280" y="40" /><use href="#l0" x="262" y="62" /><use href="#d0" x="280" y="120" /><use href="#d0" x="280" y="160" /><use href="#d0" x="280" y="200" /><use href="#d0" x="280" y="240" /><use href="#d0" x="280" y="280" /><use href="#d0" x="280" y="320" /><use href="#l0" x="302" y="22" /><g transform="translate(320,80)"><use href="#p0" /><circle r="18" fill="#1BCCBA"><animate attributeType="XML" attributeName="fill" values="#1BCCBA;#159F91;#1BCCBA;#1BCCBA" dur="3s" begin="aa.begin +6.5s" repeatCount="indefinite"/></circle></g><g transform="translate(302,102)"><use href="#b0" /><polygon points="0,0 0,36 36,36 36,0" fill="#7209B7"><animate attributeType="XML" attributeName="fill" values="#7209B7;#F72585;#7209B7;#7209B7" dur="3s" begin="aa.begin +7s" repeatCount="indefinite"/></polygon></g><g transform="translate(302,142)"><use href="#b0" /><polygon points="0,0 0,36 36,36 36,0" fill="#7209B7"><animate attributeType="XML" attributeName="fill" values="#7209B7;#F72585;#7209B7;#7209B7" dur="3s" begin="aa.begin +7.5s" repeatCount="indefinite"/></polygon></g><use href="#d0" x="320" y="200" /><use href="#d0" x="320" y="240" /><use href="#d0" x="320" y="280" /><use href="#d0" x="320" y="320" /></svg>