<svg width="360" height="360" xmlns="http://www.w3.org/2000/svg"><defs><animate id="aa" begin="0s"/><circle id="l0" r="18" fill="#FF1053"></circle><circle id="d0" r="18" fill="#251101"></circle></defs><rect width="100%" height="100%" fill="#071E22" /><use href="#d0" x="40" y="40" /><g transform="translate(40,80)"><use href="#b0" /><circle r="18" fill="#5BC0EB"><animate attributeType="XML" attributeName="fill" values="#5BC0EB;#FF1053;#5BC0EB;#5BC0EB" dur="1.0s" repeatCount="indefinite"/></circle></g><g transform="translate(40,120)"><use href="#p0" /><circle r="18" fill="#3D3522"><animate attributeType="XML" attributeName="fill" values="#3D3522;#251101;#3D3522;#3D3522" dur="1.0s" repeatCount="indefinite"/></circle></g><g transform="translate(40,160)"><use href="#p0" /><circle r="18" fill="#3D3522"><animate attributeType="XML" attributeName="fill" values="#3D3522;#251101;#3D3522;#3D3522" dur="1.0s" repeatCount="indefinite"/></circle></g><use href="#d0" x="40" y="200" /><use href="#d0" x="40" y="240" /><use href="#d0" x="40" y="280" /><use href="#d0" x="40" y="320" /><g transform="translate(80,40)"><use href="#b0" /><circle r="18" fill="#5BC0EB"><animate attributeType="XML" attributeName="fill" values="#5BC0EB;#FF1053;#5BC0EB;#5BC0EB" dur="1.0s" repeatCount="indefinite"/></circle></g><use href="#d0" x="80" y="80" /><use href="#l0" x="80" y="120" /><g transform="translate(80,160)"><use href="#p0" /><circle r="18" fill="#3D3522"><animate attributeType="XML" attributeName="fill" values="#3D3522;#251101;#3D3522;#3D3522" dur="1.3s" repeatCount="indefinite"/></circle></g><g transform="translate(80,200)"><use href="#p0" /><circle r="18" fill="#3D3522"><animate attributeType="XML" attributeName="fill" values="#3D3522;#251101;#3D3522;#3D3522" dur="1.4s" repeatCount="indefinite"/></circle></g><use href="#d0" x="80" y="240" /><use href="#d0" x="80" y="280" /><g transform="translate(80,320)"><use href="#b0" /><circle r="18" fill="#5BC0EB"><animate attributeType="XML" attributeName="fill" values="#5BC0EB;#FF1053;#5BC0EB;#5BC0EB" dur="1.7s" repeatCount="indefinite"/></circle></g><g transform="translate(120,40)"><use href="#p0" /><circle r="18" fill="#3D3522"><animate attributeType="XML" attributeName="fill" values="#3D3522;#251101;#3D3522;#3D3522" dur="1.0s" repeatCount="indefinite"/></circle></g><use href="#d0" x="120" y="80" /><use href="#l0" x="120" y="120" /><use href="#d0" x="120" y="160" /><g transform="translate(120,200)"><use href="#p0" /><circle r="18" fill="#3D3522"><animate attributeType="XML" attributeName="fill" values="#3D3522;#251101;#3D3522;#3D3522" dur="1.8s" repeatCount="indefinite"/></circle></g><use href="#d0" x="120" y="240" /><g transform="translate(120,280)"><use href="#b0" /><circle r="18" fill="#5BC0EB"><animate attributeType="XML" attributeName="fill" values="#5BC0EB;#FF1053;#5BC0EB;#5BC0EB" dur="1.2s" repeatCount="indefinite"/></circle></g><g transform="translate(120,320)"><use href="#p0" /><circle r="18" fill="#3D3522"><animate attributeType="XML" attributeName="fill" values="#3D3522;#251101;#3D3522;#3D3522" dur="1.4s" repeatCount="indefinite"/></circle></g><use href="#d0" x="160" y="40" /><use href="#l0" x="160" y="80" /><use href="#d0" x="160" y="120" /><use href="#l0" x="160" y="160" /><use href="#d0" x="160" y="200" /><use href="#d0" x="160" y="240" /><use href="#l0" x="160" y="280" /><g transform="translate(160,320)"><use href="#b0" /><circle r="18" fill="#5BC0EB"><animate attributeType="XML" attributeName="fill" values="#5BC0EB;#FF1053;#5BC0EB;#5BC0EB" dur="1.1s" repeatCount="indefinite"/></circle></g><use href="#d0" x="200" y="40" /><g transform="translate(200,80)"><use href="#p0" /><circle r="18" fill="#3D3522"><animate attributeType="XML" attributeName="fill" values="#3D3522;#251101;#3D3522;#3D3522" dur="1.4s" repeatCount="indefinite"/></circle></g><use href="#d0" x="200" y="120" /><use href="#d0" x="200" y="160" /><g transform="translate(200,200)"><use href="#p0" /><circle r="18" fill="#3D3522"><animate attributeType="XML" attributeName="fill" values="#3D3522;#251101;#3D3522;#3D3522" dur="1.6s" repeatCount="indefinite"/></circle></g><use href="#d0" x="200" y="240" /><g transform="translate(200,280)"><use href="#p0" /><circle r="18" fill="#3D3522"><animate attributeType="XML" attributeName="fill" values="#3D3522;#251101;#3D3522;#3D3522" dur="1.4s" repeatCount="indefinite"/></circle></g><use href="#d0" x="200" y="320" /><use href="#l0" x="240" y="40" /><use href="#l0" x="240" y="80" /><use href="#l0" x="240" y="120" /><use href="#l0" x="240" y="160" /><use href="#l0" x="240" y="200" /><use href="#l0" x="240" y="240" /><g transform="translate(240,280)"><use href="#p0" /><circle r="18" fill="#3D3522"><animate attributeType="XML" attributeName="fill" values="#3D3522;#251101;#3D3522;#3D3522" dur="1.0s" repeatCount="indefinite"/></circle></g><use href="#l0" x="240" y="320" /><use href="#d0" x="280" y="40" /><use href="#d0" x="280" y="80" /><use href="#d0" x="280" y="120" /><use href="#d0" x="280" y="160" /><use href="#d0" x="280" y="200" /><use href="#l0" x="280" y="240" /><use href="#d0" x="280" y="280" /><use href="#l0" x="280" y="320" /><use href="#d0" x="320" y="40" /><use href="#d0" x="320" y="80" /><use href="#l0" x="320" y="120" /><use href="#l0" x="320" y="160" /><use href="#l0" x="320" y="200" /><use href="#d0" x="320" y="240" /><use href="#d0" x="320" y="280" /><use href="#d0" x="320" y="320" /></svg>