<svg width="360" height="360" xmlns="http://www.w3.org/2000/svg"><defs><animate id="aa" begin="0s"/><rect id="d0" width="36" height="36" fill="#FFF275"></rect><circle id="l0" r="18" fill="#A23E48"></circle></defs><rect width="100%" height="100%" fill="#6699CC" /><use href="#d0" x="22" y="22" /><g transform="translate(40,80)"><use href="#b0" /><circle r="18" fill="#FF3C38"><animate attributeType="XML" attributeName="fill" values="#FF3C38;#A23E48;#FF3C38;#FF3C38" dur="0.0s" repeatCount="indefinite"/></circle></g><use href="#l0" x="40" y="120" /><use href="#d0" x="22" y="142" /><g transform="translate(22,182)"><use href="#p0" /><polygon points="0,0 0,36 36,36 36,0" fill="#6699CC"><animate attributeType="XML" attributeName="fill" values="#6699CC;#FFF275;#6699CC;#6699CC" dur="0.0s" repeatCount="indefinite"/></polygon></g><use href="#d0" x="22" y="222" /><use href="#d0" x="22" y="262" /><use href="#d0" x="22" y="302" /><use href="#d0" x="62" y="22" /><use href="#d0" x="62" y="62" /><g transform="translate(62,102)"><use href="#p0" /><polygon points="0,0 0,36 36,36 36,0" fill="#6699CC"><animate attributeType="XML" attributeName="fill" values="#6699CC;#FFF275;#6699CC;#6699CC" dur="0.2s" repeatCount="indefinite"/></polygon></g><use href="#d0" x="62" y="142" /><g transform="translate(80,200)"><use href="#b0" /><circle r="18" fill="#FF3C38"><animate attributeType="XML" attributeName="fill" values="#FF3C38;#A23E48;#FF3C38;#FF3C38" dur="0.4s" repeatCount="indefinite"/></circle></g><g transform="translate(80,240)"><use href="#b0" /><circle r="18" fill="#FF3C38"><animate attributeType="XML" attributeName="fill" values="#FF3C38;#A23E48;#FF3C38;#FF3C38" dur="0.5s" repeatCount="indefinite"/></circle></g><use href="#d0" x="62" y="262" /><use href="#d0" x="62" y="302" /><use href="#d0" x="102" y="22" /><use href="#l0" x="120" y="80" /><use href="#l0" x="120" y="120" /><g transform="translate(102,142)"><use href="#p0" /><polygon points="0,0 0,36 36,36 36,0" fill="#6699CC"><animate attributeType="XML" attributeName="fill" values="#6699CC;#FFF275;#6699CC;#6699CC" dur="0.6s" repeatCount="indefinite"/></polygon></g><g transform="translate(102,182)"><use href="#p0" /><polygon points="0,0 0,36 36,36 36,0" fill="#6699CC"><animate attributeType="XML" attributeName="fill" values="#6699CC;#FFF275;#6699CC;#6699CC" dur="0.8s" repeatCount="indefinite"/></polygon></g><g transform="translate(102,222)"><use href="#p0" /><polygon points="0,0 0,36 36,36 36,0" fill="#6699CC"><animate attributeType="XML" attributeName="fill" values="#6699CC;#FFF275;#6699CC;#6699CC" dur="0.0s" repeatCount="indefinite"/></polygon></g><use href="#d0" x="102" y="262" /><use href="#d0" x="102" y="302" /><use href="#l0" x="160" y="40" /><use href="#d0" x="142" y="62" /><use href="#l0" x="160" y="120" /><use href="#d0" x="142" y="142" /><use href="#l0" x="160" y="200" /><use href="#l0" x="160" y="240" /><use href="#d0" x="142" y="262" /><use href="#d0" x="142" y="302" /><use href="#l0" x="200" y="40" /><use href="#d0" x="182" y="62" /><use href="#d0" x="182" y="102" /><use href="#d0" x="182" y="142" /><use href="#l0" x="200" y="200" /><use href="#d0" x="182" y="222" /><use href="#d0" x="182" y="262" /><use href="#d0" x="182" y="302" /><use href="#l0" x="240" y="40" /><use href="#d0" x="222" y="62" /><use href="#d0" x="222" y="102" /><use href="#d0" x="222" y="142" /><use href="#l0" x="240" y="200" /><use href="#d0" x="222" y="222" /><g transform="translate(222,262)"><use href="#p0" /><polygon points="0,0 0,36 36,36 36,0" fill="#6699CC"><animate attributeType="XML" attributeName="fill" values="#6699CC;#FFF275;#6699CC;#6699CC" dur="0.0s" repeatCount="indefinite"/></polygon></g><use href="#d0" x="222" y="302" /><g transform="translate(262,22)"><use href="#p0" /><polygon points="0,0 0,36 36,36 36,0" fill="#6699CC"><animate attributeType="XML" attributeName="fill" values="#6699CC;#FFF275;#6699CC;#6699CC" dur="0.0s" repeatCount="indefinite"/></polygon></g><g transform="translate(280,80)"><use href="#b0" /><circle r="18" fill="#FF3C38"><animate attributeType="XML" attributeName="fill" values="#FF3C38;#A23E48;#FF3C38;#FF3C38" dur="0.6s" repeatCount="indefinite"/></circle></g><use href="#l0" x="280" y="120" /><use href="#d0" x="262" y="142" /><use href="#l0" x="280" y="200" /><use href="#d0" x="262" y="222" /><g transform="translate(262,262)"><use href="#p0" /><polygon points="0,0 0,36 36,36 36,0" fill="#6699CC"><animate attributeType="XML" attributeName="fill" values="#6699CC;#FFF275;#6699CC;#6699CC" dur="0.6s" repeatCount="indefinite"/></polygon></g><use href="#d0" x="262" y="302" /><use href="#d0" x="302" y="22" /><use href="#d0" x="302" y="62" /><g transform="translate(302,102)"><use href="#p0" /><polygon points="0,0 0,36 36,36 36,0" fill="#6699CC"><animate attributeType="XML" attributeName="fill" values="#6699CC;#FFF275;#6699CC;#6699CC" dur="0.4s" repeatCount="indefinite"/></polygon></g><use href="#d0" x="302" y="142" /><g transform="translate(302,182)"><use href="#p0" /><polygon points="0,0 0,36 36,36 36,0" fill="#6699CC"><animate attributeType="XML" attributeName="fill" values="#6699CC;#FFF275;#6699CC;#6699CC" dur="0.8s" repeatCount="indefinite"/></polygon></g><use href="#d0" x="302" y="222" /><use href="#d0" x="302" y="262" /><use href="#d0" x="302" y="302" /></svg>