<svg width="360" height="360" xmlns="http://www.w3.org/2000/svg"><defs><animate id="aa" begin="0s"/><rect id="l0" width="36" height="36" fill="#1E62AB"></rect><circle id="d0" r="18" fill="#423E37"></circle></defs><rect width="100%" height="100%" fill="#34287E" /><use href="#d0" x="40" y="40" /><use href="#d0" x="40" y="80" /><use href="#d0" x="40" y="120" /><use href="#l0" x="22" y="142" /><use href="#l0" x="22" y="182" /><g transform="translate(40,240)"><use href="#p0" /><circle r="18" fill="#C7381D"><animate attributeType="XML" attributeName="fill" values="#C7381D;#423E37;#C7381D;#C7381D" dur="0.0s" repeatCount="indefinite"/></circle></g><g transform="translate(22,262)"><use href="#b0" /><polygon points="0,0 0,36 36,36 36,0" fill="#92B83C"><animate attributeType="XML" attributeName="fill" values="#92B83C;#1E62AB;#92B83C;#92B83C" dur="0.0s" repeatCount="indefinite"/></polygon></g><g transform="translate(40,320)"><use href="#p0" /><circle r="18" fill="#C7381D"><animate attributeType="XML" attributeName="fill" values="#C7381D;#423E37;#C7381D;#C7381D" dur="0.0s" repeatCount="indefinite"/></circle></g><use href="#l0" x="62" y="22" /><use href="#l0" x="62" y="62" /><use href="#l0" x="62" y="102" /><use href="#d0" x="80" y="160" /><use href="#d0" x="80" y="200" /><use href="#d0" x="80" y="240" /><use href="#d0" x="80" y="280" /><use href="#l0" x="62" y="302" /><use href="#d0" x="120" y="40" /><use href="#d0" x="120" y="80" /><use href="#l0" x="102" y="102" /><g transform="translate(102,142)"><use href="#b0" /><polygon points="0,0 0,36 36,36 36,0" fill="#92B83C"><animate attributeType="XML" attributeName="fill" values="#92B83C;#1E62AB;#92B83C;#92B83C" dur="0.6s" repeatCount="indefinite"/></polygon></g><use href="#d0" x="120" y="200" /><use href="#d0" x="120" y="240" /><use href="#d0" x="120" y="280" /><use href="#d0" x="120" y="320" /><use href="#d0" x="160" y="40" /><g transform="translate(142,62)"><use href="#b0" /><polygon points="0,0 0,36 36,36 36,0" fill="#92B83C"><animate attributeType="XML" attributeName="fill" values="#92B83C;#1E62AB;#92B83C;#92B83C" dur="0.3s" repeatCount="indefinite"/></polygon></g><g transform="translate(160,120)"><use href="#p0" /><circle r="18" fill="#C7381D"><animate attributeType="XML" attributeName="fill" values="#C7381D;#423E37;#C7381D;#C7381D" dur="0.6s" repeatCount="indefinite"/></circle></g><use href="#d0" x="160" y="160" /><g transform="translate(142,182)"><use href="#b0" /><polygon points="0,0 0,36 36,36 36,0" fill="#92B83C"><animate attributeType="XML" attributeName="fill" values="#92B83C;#1E62AB;#92B83C;#92B83C" dur="0.2s" repeatCount="indefinite"/></polygon></g><use href="#l0" x="142" y="222" /><g transform="translate(160,280)"><use href="#p0" /><circle r="18" fill="#C7381D"><animate attributeType="XML" attributeName="fill" values="#C7381D;#423E37;#C7381D;#C7381D" dur="0.8s" repeatCount="indefinite"/></circle></g><use href="#l0" x="142" y="302" /><use href="#d0" x="200" y="40" /><g transform="translate(182,62)"><use href="#b0" /><polygon points="0,0 0,36 36,36 36,0" fill="#92B83C"><animate attributeType="XML" attributeName="fill" values="#92B83C;#1E62AB;#92B83C;#92B83C" dur="0.4s" repeatCount="indefinite"/></polygon></g><use href="#l0" x="182" y="102" /><use href="#l0" x="182" y="142" /><use href="#d0" x="200" y="200" /><use href="#d0" x="200" y="240" /><use href="#l0" x="182" y="262" /><use href="#l0" x="182" y="302" /><g transform="translate(240,40)"><use href="#p0" /><circle r="18" fill="#C7381D"><animate attributeType="XML" attributeName="fill" values="#C7381D;#423E37;#C7381D;#C7381D" dur="0.0s" repeatCount="indefinite"/></circle></g><use href="#d0" x="240" y="80" /><use href="#d0" x="240" y="120" /><use href="#d0" x="240" y="160" /><g transform="translate(240,200)"><use href="#p0" /><circle r="18" fill="#C7381D"><animate attributeType="XML" attributeName="fill" values="#C7381D;#423E37;#C7381D;#C7381D" dur="0.0s" repeatCount="indefinite"/></circle></g><use href="#d0" x="240" y="240" /><use href="#d0" x="240" y="280" /><use href="#d0" x="240" y="320" /><use href="#d0" x="280" y="40" /><use href="#l0" x="262" y="62" /><use href="#l0" x="262" y="102" /><use href="#l0" x="262" y="142" /><use href="#l0" x="262" y="182" /><use href="#l0" x="262" y="222" /><use href="#l0" x="262" y="262" /><use href="#l0" x="262" y="302" /><use href="#d0" x="320" y="40" /><use href="#l0" x="302" y="62" /><use href="#d0" x="320" y="120" /><use href="#d0" x="320" y="160" /><use href="#d0" x="320" y="200" /><use href="#d0" x="320" y="240" /><use href="#d0" x="320" y="280" /><use href="#l0" x="302" y="302" /></svg>