<svg width="360" height="360" xmlns="http://www.w3.org/2000/svg"><defs><animate id="aa" begin="0s"/><rect id="l0" width="36" height="36" fill="#E3B23C"></rect><circle id="d0" r="18" fill="#423E37"></circle></defs><rect width="100%" height="100%" fill="#EDEBD7" /><g transform="translate(22,22)"><use href="#b0" /><polygon points="0,0 0,36 36,36 36,0" fill="#74A57F"><animate attributeType="XML" attributeName="fill" values="#74A57F;#E3B23C;#74A57F;#74A57F" dur="1s" begin="aa.begin +1s" repeatCount="indefinite"/></polygon></g><g transform="translate(22,62)"><use href="#b0" /><polygon points="0,0 0,36 36,36 36,0" fill="#74A57F"><animate attributeType="XML" attributeName="fill" values="#74A57F;#E3B23C;#74A57F;#74A57F" dur="1s" begin="aa.begin +1.5s" repeatCount="indefinite"/></polygon></g><g transform="translate(22,102)"><use href="#b0" /><polygon points="0,0 0,36 36,36 36,0" fill="#74A57F"><animate attributeType="XML" attributeName="fill" values="#74A57F;#E3B23C;#74A57F;#74A57F" dur="1s" begin="aa.begin +2s" repeatCount="indefinite"/></polygon></g><use href="#d0" x="40" y="160" /><use href="#d0" x="40" y="200" /><use href="#d0" x="40" y="240" /><g transform="translate(40,280)"><use href="#p0" /><circle r="18" fill="#7D5BA6"><animate attributeType="XML" attributeName="fill" values="#7D5BA6;#423E37;#7D5BA6;#7D5BA6" dur="1s" begin="aa.begin +s" repeatCount="indefinite"/></circle></g><use href="#l0" x="22" y="302" /><g transform="translate(80,40)"><use href="#p0" /><circle r="18" fill="#7D5BA6"><animate attributeType="XML" attributeName="fill" values="#7D5BA6;#423E37;#7D5BA6;#7D5BA6" dur="1s" begin="aa.begin +2.5s" repeatCount="indefinite"/></circle></g><use href="#d0" x="80" y="80" /><use href="#d0" x="80" y="120" /><use href="#d0" x="80" y="160" /><use href="#d0" x="80" y="200" /><use href="#d0" x="80" y="240" /><use href="#d0" x="80" y="280" /><g transform="translate(62,302)"><use href="#b0" /><polygon points="0,0 0,36 36,36 36,0" fill="#74A57F"><animate attributeType="XML" attributeName="fill" values="#74A57F;#E3B23C;#74A57F;#74A57F" dur="1s" begin="aa.begin +3s" repeatCount="indefinite"/></polygon></g><use href="#d0" x="120" y="40" /><g transform="translate(120,80)"><use href="#p0" /><circle r="18" fill="#7D5BA6"><animate attributeType="XML" attributeName="fill" values="#7D5BA6;#423E37;#7D5BA6;#7D5BA6" dur="1s" begin="aa.begin +3.5s" repeatCount="indefinite"/></circle></g><g transform="translate(120,120)"><use href="#p0" /><circle r="18" fill="#7D5BA6"><animate attributeType="XML" attributeName="fill" values="#7D5BA6;#423E37;#7D5BA6;#7D5BA6" dur="1s" begin="aa.begin +4s" repeatCount="indefinite"/></circle></g><use href="#d0" x="120" y="160" /><use href="#d0" x="120" y="200" /><use href="#d0" x="120" y="240" /><g transform="translate(102,262)"><use href="#b0" /><polygon points="0,0 0,36 36,36 36,0" fill="#74A57F"><animate attributeType="XML" attributeName="fill" values="#74A57F;#E3B23C;#74A57F;#74A57F" dur="1s" begin="aa.begin +4.5s" repeatCount="indefinite"/></polygon></g><use href="#l0" x="102" y="302" /><use href="#d0" x="160" y="40" /><g transform="translate(142,62)"><use href="#b0" /><polygon points="0,0 0,36 36,36 36,0" fill="#74A57F"><animate attributeType="XML" attributeName="fill" values="#74A57F;#E3B23C;#74A57F;#74A57F" dur="1s" begin="aa.begin +5s" repeatCount="indefinite"/></polygon></g><use href="#d0" x="160" y="120" /><use href="#l0" x="142" y="142" /><use href="#d0" x="160" y="200" /><use href="#d0" x="160" y="240" /><use href="#d0" x="160" y="280" /><g transform="translate(160,320)"><use href="#p0" /><circle r="18" fill="#7D5BA6"><animate attributeType="XML" attributeName="fill" values="#7D5BA6;#423E37;#7D5BA6;#7D5BA6" dur="1s" begin="aa.begin +5.5s" repeatCount="indefinite"/></circle></g><use href="#l0" x="182" y="22" /><use href="#l0" x="182" y="62" /><g transform="translate(200,120)"><use href="#p0" /><circle r="18" fill="#7D5BA6"><animate attributeType="XML" attributeName="fill" values="#7D5BA6;#423E37;#7D5BA6;#7D5BA6" dur="1s" begin="aa.begin +6s" repeatCount="indefinite"/></circle></g><g transform="translate(200,160)"><use href="#p0" /><circle r="18" fill="#7D5BA6"><animate attributeType="XML" attributeName="fill" values="#7D5BA6;#423E37;#7D5BA6;#7D5BA6" dur="1s" begin="aa.begin +6.5s" repeatCount="indefinite"/></circle></g><use href="#d0" x="200" y="200" /><use href="#d0" x="200" y="240" /><g transform="translate(200,280)"><use href="#p0" /><circle r="18" fill="#7D5BA6"><animate attributeType="XML" attributeName="fill" values="#7D5BA6;#423E37;#7D5BA6;#7D5BA6" dur="1s" begin="aa.begin +7s" repeatCount="indefinite"/></circle></g><g transform="translate(200,320)"><use href="#p0" /><circle r="18" fill="#7D5BA6"><animate attributeType="XML" attributeName="fill" values="#7D5BA6;#423E37;#7D5BA6;#7D5BA6" dur="1s" begin="aa.begin +7.5s" repeatCount="indefinite"/></circle></g><use href="#d0" x="240" y="40" /><use href="#d0" x="240" y="80" /><use href="#d0" x="240" y="120" /><g transform="translate(222,142)"><use href="#b0" /><polygon points="0,0 0,36 36,36 36,0" fill="#74A57F"><animate attributeType="XML" attributeName="fill" values="#74A57F;#E3B23C;#74A57F;#74A57F" dur="1s" begin="aa.begin +8s" repeatCount="indefinite"/></polygon></g><use href="#d0" x="240" y="200" /><g transform="translate(222,222)"><use href="#b0" /><polygon points="0,0 0,36 36,36 36,0" fill="#74A57F"><animate attributeType="XML" attributeName="fill" values="#74A57F;#E3B23C;#74A57F;#74A57F" dur="1s" begin="aa.begin +8.5s" repeatCount="indefinite"/></polygon></g><use href="#d0" x="240" y="280" /><g transform="translate(222,302)"><use href="#b0" /><polygon points="0,0 0,36 36,36 36,0" fill="#74A57F"><animate attributeType="XML" attributeName="fill" values="#74A57F;#E3B23C;#74A57F;#74A57F" dur="1s" begin="aa.begin +9s" repeatCount="indefinite"/></polygon></g><use href="#d0" x="280" y="40" /><use href="#l0" x="262" y="62" /><g transform="translate(280,120)"><use href="#p0" /><circle r="18" fill="#7D5BA6"><animate attributeType="XML" attributeName="fill" values="#7D5BA6;#423E37;#7D5BA6;#7D5BA6" dur="1s" begin="aa.begin +9.5s" repeatCount="indefinite"/></circle></g><use href="#l0" x="262" y="142" /><g transform="translate(280,200)"><use href="#p0" /><circle r="18" fill="#7D5BA6"><animate attributeType="XML" attributeName="fill" values="#7D5BA6;#423E37;#7D5BA6;#7D5BA6" dur="1s" begin="aa.begin +10s" repeatCount="indefinite"/></circle></g><use href="#l0" x="262" y="222" /><g transform="translate(280,280)"><use href="#p0" /><circle r="18" fill="#7D5BA6"><animate attributeType="XML" attributeName="fill" values="#7D5BA6;#423E37;#7D5BA6;#7D5BA6" dur="1s" begin="aa.begin +10.5s" repeatCount="indefinite"/></circle></g><g transform="translate(280,320)"><use href="#p0" /><circle r="18" fill="#7D5BA6"><animate attributeType="XML" attributeName="fill" values="#7D5BA6;#423E37;#7D5BA6;#7D5BA6" dur="1s" begin="aa.begin +11s" repeatCount="indefinite"/></circle></g><use href="#d0" x="320" y="40" /><g transform="translate(320,80)"><use href="#p0" /><circle r="18" fill="#7D5BA6"><animate attributeType="XML" attributeName="fill" values="#7D5BA6;#423E37;#7D5BA6;#7D5BA6" dur="1s" begin="aa.begin +s" repeatCount="indefinite"/></circle></g><use href="#d0" x="320" y="120" /><use href="#l0" x="302" y="142" /><g transform="translate(302,182)"><use href="#b0" /><polygon points="0,0 0,36 36,36 36,0" fill="#74A57F"><animate attributeType="XML" attributeName="fill" values="#74A57F;#E3B23C;#74A57F;#74A57F" dur="1s" begin="aa.begin +s" repeatCount="indefinite"/></polygon></g><use href="#d0" x="320" y="240" /><use href="#d0" x="320" y="280" /><use href="#d0" x="320" y="320" /></svg>