<svg width="360" height="360" xmlns="http://www.w3.org/2000/svg"><defs><animate id="aa" begin="0s"/><rect id="l0" width="36" height="36" fill="#87FF65"></rect><circle id="d0" r="18" fill="#C04CFD"></circle></defs><rect width="100%" height="100%" fill="#E6FDFF" /><use href="#d0" x="40" y="40" /><g transform="translate(40,80)"><use href="#p0" /><circle r="18" fill="#EADEDA"><animate attributeType="XML" attributeName="fill" values="#EADEDA;#C04CFD;#EADEDA;#EADEDA" dur="0.0s" repeatCount="indefinite"/></circle></g><use href="#d0" x="40" y="120" /><g transform="translate(22,142)"><use href="#b0" /><polygon points="0,0 0,36 36,36 36,0" fill="#5E2BFF"><animate attributeType="XML" attributeName="fill" values="#5E2BFF;#87FF65;#5E2BFF;#5E2BFF" dur="0.0s" repeatCount="indefinite"/></polygon></g><use href="#l0" x="22" y="182" /><use href="#d0" x="40" y="240" /><g transform="translate(40,280)"><use href="#p0" /><circle r="18" fill="#EADEDA"><animate attributeType="XML" attributeName="fill" values="#EADEDA;#C04CFD;#EADEDA;#EADEDA" dur="0.0s" repeatCount="indefinite"/></circle></g><use href="#d0" x="40" y="320" /><g transform="translate(80,40)"><use href="#p0" /><circle r="18" fill="#EADEDA"><animate attributeType="XML" attributeName="fill" values="#EADEDA;#C04CFD;#EADEDA;#EADEDA" dur="0.0s" repeatCount="indefinite"/></circle></g><g transform="translate(80,80)"><use href="#p0" /><circle r="18" fill="#EADEDA"><animate attributeType="XML" attributeName="fill" values="#EADEDA;#C04CFD;#EADEDA;#EADEDA" dur="0.1s" repeatCount="indefinite"/></circle></g><g transform="translate(80,120)"><use href="#p0" /><circle r="18" fill="#EADEDA"><animate attributeType="XML" attributeName="fill" values="#EADEDA;#C04CFD;#EADEDA;#EADEDA" dur="0.2s" repeatCount="indefinite"/></circle></g><g transform="translate(62,142)"><use href="#b0" /><polygon points="0,0 0,36 36,36 36,0" fill="#5E2BFF"><animate attributeType="XML" attributeName="fill" values="#5E2BFF;#87FF65;#5E2BFF;#5E2BFF" dur="0.3s" repeatCount="indefinite"/></polygon></g><g transform="translate(80,200)"><use href="#p0" /><circle r="18" fill="#EADEDA"><animate attributeType="XML" attributeName="fill" values="#EADEDA;#C04CFD;#EADEDA;#EADEDA" dur="0.4s" repeatCount="indefinite"/></circle></g><use href="#l0" x="62" y="222" /><g transform="translate(80,280)"><use href="#p0" /><circle r="18" fill="#EADEDA"><animate attributeType="XML" attributeName="fill" values="#EADEDA;#C04CFD;#EADEDA;#EADEDA" dur="0.6s" repeatCount="indefinite"/></circle></g><use href="#d0" x="80" y="320" /><use href="#d0" x="120" y="40" /><use href="#d0" x="120" y="80" /><use href="#d0" x="120" y="120" /><use href="#d0" x="120" y="160" /><use href="#d0" x="120" y="200" /><use href="#d0" x="120" y="240" /><use href="#d0" x="120" y="280" /><use href="#d0" x="120" y="320" /><use href="#d0" x="160" y="40" /><use href="#d0" x="160" y="80" /><use href="#d0" x="160" y="120" /><use href="#d0" x="160" y="160" /><use href="#d0" x="160" y="200" /><use href="#d0" x="160" y="240" /><use href="#d0" x="160" y="280" /><use href="#d0" x="160" y="320" /><use href="#d0" x="200" y="40" /><use href="#d0" x="200" y="80" /><use href="#d0" x="200" y="120" /><use href="#d0" x="200" y="160" /><use href="#d0" x="200" y="200" /><use href="#l0" x="182" y="222" /><use href="#l0" x="182" y="262" /><g transform="translate(182,302)"><use href="#b0" /><polygon points="0,0 0,36 36,36 36,0" fill="#5E2BFF"><animate attributeType="XML" attributeName="fill" values="#5E2BFF;#87FF65;#5E2BFF;#5E2BFF" dur="0.8s" repeatCount="indefinite"/></polygon></g><use href="#d0" x="240" y="40" /><use href="#d0" x="240" y="80" /><use href="#d0" x="240" y="120" /><use href="#d0" x="240" y="160" /><use href="#l0" x="222" y="182" /><use href="#d0" x="240" y="240" /><g transform="translate(240,280)"><use href="#p0" /><circle r="18" fill="#EADEDA"><animate attributeType="XML" attributeName="fill" values="#EADEDA;#C04CFD;#EADEDA;#EADEDA" dur="0.0s" repeatCount="indefinite"/></circle></g><use href="#l0" x="222" y="302" /><g transform="translate(262,22)"><use href="#b0" /><polygon points="0,0 0,36 36,36 36,0" fill="#5E2BFF"><animate attributeType="XML" attributeName="fill" values="#5E2BFF;#87FF65;#5E2BFF;#5E2BFF" dur="0.0s" repeatCount="indefinite"/></polygon></g><use href="#d0" x="280" y="80" /><use href="#d0" x="280" y="120" /><use href="#d0" x="280" y="160" /><use href="#d0" x="280" y="200" /><use href="#l0" x="262" y="222" /><use href="#d0" x="280" y="280" /><use href="#d0" x="280" y="320" /><use href="#l0" x="302" y="22" /><use href="#d0" x="320" y="80" /><use href="#d0" x="320" y="120" /><use href="#d0" x="320" y="160" /><g transform="translate(302,182)"><use href="#b0" /><polygon points="0,0 0,36 36,36 36,0" fill="#5E2BFF"><animate attributeType="XML" attributeName="fill" values="#5E2BFF;#87FF65;#5E2BFF;#5E2BFF" dur="0.8s" repeatCount="indefinite"/></polygon></g><use href="#d0" x="320" y="240" /><use href="#l0" x="302" y="262" /><use href="#l0" x="302" y="302" /></svg>