<svg width="360" height="360" xmlns="http://www.w3.org/2000/svg"><defs><animate id="aa" begin="0s"/><rect id="d0" width="36" height="36" fill="#2B9348"></rect><circle id="l0" r="18" fill="#FFFF3F"></circle></defs><rect width="100%" height="100%" fill="#80B918" /><g transform="translate(40,40)"><use href="#b0" /><circle r="18" fill="#DDDF00"><animate attributeType="XML" attributeName="fill" values="#DDDF00;#FFFF3F;#DDDF00;#DDDF00" dur="0.0s" repeatCount="indefinite"/></circle></g><use href="#l0" x="40" y="80" /><use href="#d0" x="22" y="102" /><g transform="translate(40,160)"><use href="#b0" /><circle r="18" fill="#DDDF00"><animate attributeType="XML" attributeName="fill" values="#DDDF00;#FFFF3F;#DDDF00;#DDDF00" dur="0.0s" repeatCount="indefinite"/></circle></g><use href="#l0" x="40" y="200" /><use href="#l0" x="40" y="240" /><use href="#l0" x="40" y="280" /><use href="#l0" x="40" y="320" /><use href="#d0" x="62" y="22" /><use href="#l0" x="80" y="80" /><use href="#d0" x="62" y="102" /><use href="#l0" x="80" y="160" /><use href="#d0" x="62" y="182" /><use href="#d0" x="62" y="222" /><use href="#d0" x="62" y="262" /><use href="#d0" x="62" y="302" /><use href="#l0" x="120" y="40" /><use href="#d0" x="102" y="62" /><use href="#d0" x="102" y="102" /><use href="#l0" x="120" y="160" /><use href="#d0" x="102" y="182" /><use href="#l0" x="120" y="240" /><use href="#l0" x="120" y="280" /><use href="#d0" x="102" y="302" /><use href="#l0" x="160" y="40" /><use href="#d0" x="142" y="62" /><use href="#l0" x="160" y="120" /><use href="#d0" x="142" y="142" /><use href="#l0" x="160" y="200" /><use href="#d0" x="142" y="222" /><use href="#l0" x="160" y="280" /><use href="#d0" x="142" y="302" /><use href="#l0" x="200" y="40" /><use href="#d0" x="182" y="62" /><use href="#l0" x="200" y="120" /><use href="#d0" x="182" y="142" /><use href="#d0" x="182" y="182" /><use href="#d0" x="182" y="222" /><use href="#d0" x="182" y="262" /><use href="#d0" x="182" y="302" /><use href="#l0" x="240" y="40" /><use href="#d0" x="222" y="62" /><use href="#l0" x="240" y="120" /><g transform="translate(222,142)"><use href="#p0" /><polygon points="0,0 0,36 36,36 36,0" fill="#007F5F"><animate attributeType="XML" attributeName="fill" values="#007F5F;#2B9348;#007F5F;#007F5F" dur="0.5s" repeatCount="indefinite"/></polygon></g><use href="#d0" x="222" y="182" /><use href="#d0" x="222" y="222" /><use href="#d0" x="222" y="262" /><use href="#d0" x="222" y="302" /><use href="#l0" x="280" y="40" /><use href="#d0" x="262" y="62" /><use href="#l0" x="280" y="120" /><use href="#d0" x="262" y="142" /><g transform="translate(262,182)"><use href="#p0" /><polygon points="0,0 0,36 36,36 36,0" fill="#007F5F"><animate attributeType="XML" attributeName="fill" values="#007F5F;#2B9348;#007F5F;#007F5F" dur="0.4s" repeatCount="indefinite"/></polygon></g><g transform="translate(262,222)"><use href="#p0" /><polygon points="0,0 0,36 36,36 36,0" fill="#007F5F"><animate attributeType="XML" attributeName="fill" values="#007F5F;#2B9348;#007F5F;#007F5F" dur="0.0s" repeatCount="indefinite"/></polygon></g><use href="#d0" x="262" y="262" /><use href="#l0" x="280" y="320" /><use href="#d0" x="302" y="22" /><use href="#d0" x="302" y="62" /><use href="#l0" x="320" y="120" /><use href="#d0" x="302" y="142" /><g transform="translate(320,200)"><use href="#b0" /><circle r="18" fill="#DDDF00"><animate attributeType="XML" attributeName="fill" values="#DDDF00;#FFFF3F;#DDDF00;#DDDF00" dur="0.8s" repeatCount="indefinite"/></circle></g><use href="#d0" x="302" y="222" /><use href="#d0" x="302" y="262" /><use href="#d0" x="302" y="302" /></svg>