<svg width="360" height="360" xmlns="http://www.w3.org/2000/svg"><defs><animate id="aa" begin="0s"/><rect id="d0" width="36" height="36" fill="#ef4043"></rect><circle id="l0" r="18" fill="#ED254E"></circle></defs><rect width="100%" height="100%" fill="#FF3C38" /><g transform="translate(40,40)"><use href="#b0" /><circle r="18" fill="#ff0059"><animate attributeType="XML" attributeName="fill" values="#ff0059;#ED254E;#ff0059;#ff0059" dur="0.0s" repeatCount="indefinite"/></circle></g><g transform="translate(22,62)"><use href="#p0" /><polygon points="0,0 0,36 36,36 36,0" fill="#C7381D"><animate attributeType="XML" attributeName="fill" values="#C7381D;#ef4043;#C7381D;#C7381D" dur="0.0s" repeatCount="indefinite"/></polygon></g><g transform="translate(40,120)"><use href="#b0" /><circle r="18" fill="#ff0059"><animate attributeType="XML" attributeName="fill" values="#ff0059;#ED254E;#ff0059;#ff0059" dur="0.0s" repeatCount="indefinite"/></circle></g><use href="#l0" x="40" y="160" /><use href="#d0" x="22" y="182" /><use href="#l0" x="40" y="240" /><use href="#d0" x="22" y="262" /><use href="#l0" x="40" y="320" /><g transform="translate(80,40)"><use href="#b0" /><circle r="18" fill="#ff0059"><animate attributeType="XML" attributeName="fill" values="#ff0059;#ED254E;#ff0059;#ff0059" dur="0.0s" repeatCount="indefinite"/></circle></g><use href="#d0" x="62" y="62" /><use href="#d0" x="62" y="102" /><use href="#l0" x="80" y="160" /><use href="#d0" x="62" y="182" /><use href="#l0" x="80" y="240" /><use href="#d0" x="62" y="262" /><use href="#l0" x="80" y="320" /><g transform="translate(120,40)"><use href="#b0" /><circle r="18" fill="#ff0059"><animate attributeType="XML" attributeName="fill" values="#ff0059;#ED254E;#ff0059;#ff0059" dur="0.0s" repeatCount="indefinite"/></circle></g><use href="#d0" x="102" y="62" /><use href="#l0" x="120" y="120" /><use href="#d0" x="102" y="142" /><use href="#d0" x="102" y="182" /><use href="#l0" x="120" y="240" /><use href="#d0" x="102" y="262" /><use href="#d0" x="102" y="302" /><g transform="translate(142,22)"><use href="#p0" /><polygon points="0,0 0,36 36,36 36,0" fill="#C7381D"><animate attributeType="XML" attributeName="fill" values="#C7381D;#ef4043;#C7381D;#C7381D" dur="0.0s" repeatCount="indefinite"/></polygon></g><use href="#d0" x="142" y="62" /><use href="#l0" x="160" y="120" /><use href="#l0" x="160" y="160" /><use href="#l0" x="160" y="200" /><use href="#l0" x="160" y="240" /><use href="#d0" x="142" y="262" /><use href="#d0" x="142" y="302" /><use href="#l0" x="200" y="40" /><use href="#l0" x="200" y="80" /><use href="#d0" x="182" y="102" /><use href="#d0" x="182" y="142" /><use href="#d0" x="182" y="182" /><use href="#d0" x="182" y="222" /><use href="#l0" x="200" y="280" /><use href="#l0" x="200" y="320" /><use href="#d0" x="222" y="22" /><use href="#d0" x="222" y="62" /><use href="#d0" x="222" y="102" /><use href="#l0" x="240" y="160" /><use href="#l0" x="240" y="200" /><use href="#l0" x="240" y="240" /><use href="#d0" x="222" y="262" /><use href="#d0" x="222" y="302" /><g transform="translate(262,22)"><use href="#p0" /><polygon points="0,0 0,36 36,36 36,0" fill="#C7381D"><animate attributeType="XML" attributeName="fill" values="#C7381D;#ef4043;#C7381D;#C7381D" dur="0.0s" repeatCount="indefinite"/></polygon></g><g transform="translate(262,62)"><use href="#p0" /><polygon points="0,0 0,36 36,36 36,0" fill="#C7381D"><animate attributeType="XML" attributeName="fill" values="#C7381D;#ef4043;#C7381D;#C7381D" dur="0.6s" repeatCount="indefinite"/></polygon></g><use href="#l0" x="280" y="120" /><use href="#d0" x="262" y="142" /><use href="#d0" x="262" y="182" /><use href="#l0" x="280" y="240" /><g transform="translate(280,280)"><use href="#b0" /><circle r="18" fill="#ff0059"><animate attributeType="XML" attributeName="fill" values="#ff0059;#ED254E;#ff0059;#ff0059" dur="0.6s" repeatCount="indefinite"/></circle></g><use href="#d0" x="262" y="302" /><use href="#d0" x="302" y="22" /><g transform="translate(320,80)"><use href="#b0" /><circle r="18" fill="#ff0059"><animate attributeType="XML" attributeName="fill" values="#ff0059;#ED254E;#ff0059;#ff0059" dur="0.7s" repeatCount="indefinite"/></circle></g><use href="#d0" x="302" y="102" /><use href="#l0" x="320" y="160" /><use href="#d0" x="302" y="182" /><use href="#l0" x="320" y="240" /><use href="#d0" x="302" y="262" /><g transform="translate(320,320)"><use href="#b0" /><circle r="18" fill="#ff0059"><animate attributeType="XML" attributeName="fill" values="#ff0059;#ED254E;#ff0059;#ff0059" dur="0.9s" repeatCount="indefinite"/></circle></g></svg>