<svg width="360" height="360" xmlns="http://www.w3.org/2000/svg"><defs><animate id="aa" begin="0s"/><rect id="l0" width="36" height="36" fill="#000000"></rect><circle id="d0" r="18" fill="#6f6269"></circle></defs><rect width="100%" height="100%" fill="#0c226e" /><use href="#l0" x="22" y="22" /><use href="#l0" x="22" y="62" /><use href="#l0" x="22" y="102" /><use href="#l0" x="22" y="142" /><use href="#l0" x="22" y="182" /><use href="#l0" x="22" y="222" /><use href="#l0" x="22" y="262" /><use href="#l0" x="22" y="302" /><use href="#d0" x="80" y="40" /><use href="#d0" x="80" y="80" /><use href="#d0" x="80" y="120" /><g transform="translate(62,142)"><use href="#b0" /><polygon points="0,0 0,36 36,36 36,0" fill="#ccc0c4"><animate attributeType="XML" attributeName="fill" values="#ccc0c4;#000000;#ccc0c4;#ccc0c4" dur="1.3s" repeatCount="indefinite"/></polygon></g><use href="#d0" x="80" y="200" /><g transform="translate(62,222)"><use href="#b0" /><polygon points="0,0 0,36 36,36 36,0" fill="#ccc0c4"><animate attributeType="XML" attributeName="fill" values="#ccc0c4;#000000;#ccc0c4;#ccc0c4" dur="1.5s" repeatCount="indefinite"/></polygon></g><use href="#d0" x="80" y="280" /><use href="#d0" x="80" y="320" /><g transform="translate(120,40)"><use href="#p0" /><circle r="18" fill="#7c9ace"><animate attributeType="XML" attributeName="fill" values="#7c9ace;#6f6269;#7c9ace;#7c9ace" dur="1.0s" repeatCount="indefinite"/></circle></g><g transform="translate(120,80)"><use href="#p0" /><circle r="18" fill="#7c9ace"><animate attributeType="XML" attributeName="fill" values="#7c9ace;#6f6269;#7c9ace;#7c9ace" dur="1.2s" repeatCount="indefinite"/></circle></g><g transform="translate(102,102)"><use href="#b0" /><polygon points="0,0 0,36 36,36 36,0" fill="#ccc0c4"><animate attributeType="XML" attributeName="fill" values="#ccc0c4;#000000;#ccc0c4;#ccc0c4" dur="1.4s" repeatCount="indefinite"/></polygon></g><use href="#d0" x="120" y="160" /><use href="#d0" x="120" y="200" /><g transform="translate(102,222)"><use href="#b0" /><polygon points="0,0 0,36 36,36 36,0" fill="#ccc0c4"><animate attributeType="XML" attributeName="fill" values="#ccc0c4;#000000;#ccc0c4;#ccc0c4" dur="1.0s" repeatCount="indefinite"/></polygon></g><use href="#d0" x="120" y="280" /><use href="#l0" x="102" y="302" /><use href="#d0" x="160" y="40" /><use href="#l0" x="142" y="62" /><use href="#d0" x="160" y="120" /><g transform="translate(160,160)"><use href="#p0" /><circle r="18" fill="#7c9ace"><animate attributeType="XML" attributeName="fill" values="#7c9ace;#6f6269;#7c9ace;#7c9ace" dur="1.9s" repeatCount="indefinite"/></circle></g><use href="#l0" x="142" y="182" /><use href="#d0" x="160" y="240" /><g transform="translate(160,280)"><use href="#p0" /><circle r="18" fill="#7c9ace"><animate attributeType="XML" attributeName="fill" values="#7c9ace;#6f6269;#7c9ace;#7c9ace" dur="1.8s" repeatCount="indefinite"/></circle></g><use href="#l0" x="142" y="302" /><use href="#l0" x="182" y="22" /><g transform="translate(182,62)"><use href="#b0" /><polygon points="0,0 0,36 36,36 36,0" fill="#ccc0c4"><animate attributeType="XML" attributeName="fill" values="#ccc0c4;#000000;#ccc0c4;#ccc0c4" dur="1.4s" repeatCount="indefinite"/></polygon></g><use href="#l0" x="182" y="102" /><use href="#l0" x="182" y="142" /><use href="#d0" x="200" y="200" /><use href="#l0" x="182" y="222" /><use href="#d0" x="200" y="280" /><g transform="translate(182,302)"><use href="#b0" /><polygon points="0,0 0,36 36,36 36,0" fill="#ccc0c4"><animate attributeType="XML" attributeName="fill" values="#ccc0c4;#000000;#ccc0c4;#ccc0c4" dur="1.8s" repeatCount="indefinite"/></polygon></g><use href="#d0" x="240" y="40" /><use href="#d0" x="240" y="80" /><use href="#d0" x="240" y="120" /><g transform="translate(222,142)"><use href="#b0" /><polygon points="0,0 0,36 36,36 36,0" fill="#ccc0c4"><animate attributeType="XML" attributeName="fill" values="#ccc0c4;#000000;#ccc0c4;#ccc0c4" dur="1.5s" repeatCount="indefinite"/></polygon></g><use href="#d0" x="240" y="200" /><use href="#l0" x="222" y="222" /><use href="#d0" x="240" y="280" /><g transform="translate(240,320)"><use href="#p0" /><circle r="18" fill="#7c9ace"><animate attributeType="XML" attributeName="fill" values="#7c9ace;#6f6269;#7c9ace;#7c9ace" dur="1.5s" repeatCount="indefinite"/></circle></g><use href="#l0" x="262" y="22" /><g transform="translate(280,80)"><use href="#p0" /><circle r="18" fill="#7c9ace"><animate attributeType="XML" attributeName="fill" values="#7c9ace;#6f6269;#7c9ace;#7c9ace" dur="1.6s" repeatCount="indefinite"/></circle></g><use href="#d0" x="280" y="120" /><use href="#d0" x="280" y="160" /><use href="#l0" x="262" y="182" /><use href="#l0" x="262" y="222" /><g transform="translate(262,262)"><use href="#b0" /><polygon points="0,0 0,36 36,36 36,0" fill="#ccc0c4"><animate attributeType="XML" attributeName="fill" values="#ccc0c4;#000000;#ccc0c4;#ccc0c4" dur="1.6s" repeatCount="indefinite"/></polygon></g><use href="#l0" x="262" y="302" /><use href="#d0" x="320" y="40" /><use href="#d0" x="320" y="80" /><g transform="translate(302,102)"><use href="#b0" /><polygon points="0,0 0,36 36,36 36,0" fill="#ccc0c4"><animate attributeType="XML" attributeName="fill" values="#ccc0c4;#000000;#ccc0c4;#ccc0c4" dur="1.4s" repeatCount="indefinite"/></polygon></g><use href="#d0" x="320" y="160" /><use href="#d0" x="320" y="200" /><use href="#d0" x="320" y="240" /><use href="#d0" x="320" y="280" /><use href="#d0" x="320" y="320" /></svg>