<svg width="360" height="360" xmlns="http://www.w3.org/2000/svg"><defs><animate id="aa" begin="0s"/><rect id="d0" width="36" height="36" fill="#fdc500"></rect><circle id="l0" r="18" fill="#3d0066"></circle></defs><rect width="100%" height="100%" fill="#ffee32" /><use href="#l0" x="40" y="40" /><use href="#d0" x="22" y="62" /><g transform="translate(22,102)"><use href="#p0" /><polygon points="0,0 0,36 36,36 36,0" fill="#ffd500"><animate attributeType="XML" attributeName="fill" values="#ffd500;#fdc500;#ffd500;#ffd500" dur="0.0s" repeatCount="indefinite"/></polygon></g><use href="#l0" x="40" y="160" /><use href="#l0" x="40" y="200" /><use href="#d0" x="22" y="222" /><use href="#l0" x="40" y="280" /><use href="#d0" x="22" y="302" /><use href="#d0" x="62" y="22" /><use href="#l0" x="80" y="80" /><use href="#d0" x="62" y="102" /><use href="#l0" x="80" y="160" /><use href="#d0" x="62" y="182" /><use href="#l0" x="80" y="240" /><use href="#d0" x="62" y="262" /><use href="#l0" x="80" y="320" /><use href="#d0" x="102" y="22" /><use href="#l0" x="120" y="80" /><use href="#d0" x="102" y="102" /><use href="#d0" x="102" y="142" /><g transform="translate(102,182)"><use href="#p0" /><polygon points="0,0 0,36 36,36 36,0" fill="#ffd500"><animate attributeType="XML" attributeName="fill" values="#ffd500;#fdc500;#ffd500;#ffd500" dur="0.8s" repeatCount="indefinite"/></polygon></g><g transform="translate(120,240)"><use href="#b0" /><circle r="18" fill="#5c0099"><animate attributeType="XML" attributeName="fill" values="#5c0099;#3d0066;#5c0099;#5c0099" dur="0.0s" repeatCount="indefinite"/></circle></g><use href="#d0" x="102" y="262" /><use href="#l0" x="120" y="320" /><use href="#d0" x="142" y="22" /><use href="#l0" x="160" y="80" /><use href="#d0" x="142" y="102" /><g transform="translate(142,142)"><use href="#p0" /><polygon points="0,0 0,36 36,36 36,0" fill="#ffd500"><animate attributeType="XML" attributeName="fill" values="#ffd500;#fdc500;#ffd500;#ffd500" dur="0.9s" repeatCount="indefinite"/></polygon></g><use href="#l0" x="160" y="200" /><use href="#d0" x="142" y="222" /><g transform="translate(142,262)"><use href="#p0" /><polygon points="0,0 0,36 36,36 36,0" fill="#ffd500"><animate attributeType="XML" attributeName="fill" values="#ffd500;#fdc500;#ffd500;#ffd500" dur="0.8s" repeatCount="indefinite"/></polygon></g><g transform="translate(142,302)"><use href="#p0" /><polygon points="0,0 0,36 36,36 36,0" fill="#ffd500"><animate attributeType="XML" attributeName="fill" values="#ffd500;#fdc500;#ffd500;#ffd500" dur="0.1s" repeatCount="indefinite"/></polygon></g><use href="#d0" x="182" y="22" /><use href="#l0" x="200" y="80" /><g transform="translate(200,120)"><use href="#b0" /><circle r="18" fill="#5c0099"><animate attributeType="XML" attributeName="fill" values="#5c0099;#3d0066;#5c0099;#5c0099" dur="0.8s" repeatCount="indefinite"/></circle></g><g transform="translate(200,160)"><use href="#b0" /><circle r="18" fill="#5c0099"><animate attributeType="XML" attributeName="fill" values="#5c0099;#3d0066;#5c0099;#5c0099" dur="0.2s" repeatCount="indefinite"/></circle></g><use href="#d0" x="182" y="182" /><use href="#l0" x="200" y="240" /><g transform="translate(200,280)"><use href="#b0" /><circle r="18" fill="#5c0099"><animate attributeType="XML" attributeName="fill" values="#5c0099;#3d0066;#5c0099;#5c0099" dur="0.4s" repeatCount="indefinite"/></circle></g><use href="#d0" x="182" y="302" /><use href="#l0" x="240" y="40" /><g transform="translate(222,62)"><use href="#p0" /><polygon points="0,0 0,36 36,36 36,0" fill="#ffd500"><animate attributeType="XML" attributeName="fill" values="#ffd500;#fdc500;#ffd500;#ffd500" dur="0.5s" repeatCount="indefinite"/></polygon></g><use href="#d0" x="222" y="102" /><use href="#d0" x="222" y="142" /><g transform="translate(222,182)"><use href="#p0" /><polygon points="0,0 0,36 36,36 36,0" fill="#ffd500"><animate attributeType="XML" attributeName="fill" values="#ffd500;#fdc500;#ffd500;#ffd500" dur="0.0s" repeatCount="indefinite"/></polygon></g><use href="#d0" x="222" y="222" /><g transform="translate(222,262)"><use href="#p0" /><polygon points="0,0 0,36 36,36 36,0" fill="#ffd500"><animate attributeType="XML" attributeName="fill" values="#ffd500;#fdc500;#ffd500;#ffd500" dur="0.0s" repeatCount="indefinite"/></polygon></g><use href="#l0" x="240" y="320" /><g transform="translate(280,40)"><use href="#b0" /><circle r="18" fill="#5c0099"><animate attributeType="XML" attributeName="fill" values="#5c0099;#3d0066;#5c0099;#5c0099" dur="0.0s" repeatCount="indefinite"/></circle></g><use href="#d0" x="262" y="62" /><use href="#l0" x="280" y="120" /><use href="#l0" x="280" y="160" /><g transform="translate(262,182)"><use href="#p0" /><polygon points="0,0 0,36 36,36 36,0" fill="#ffd500"><animate attributeType="XML" attributeName="fill" values="#ffd500;#fdc500;#ffd500;#ffd500" dur="0.4s" repeatCount="indefinite"/></polygon></g><use href="#d0" x="262" y="222" /><use href="#l0" x="280" y="280" /><use href="#d0" x="262" y="302" /><g transform="translate(320,40)"><use href="#b0" /><circle r="18" fill="#5c0099"><animate attributeType="XML" attributeName="fill" values="#5c0099;#3d0066;#5c0099;#5c0099" dur="0.0s" repeatCount="indefinite"/></circle></g><g transform="translate(302,62)"><use href="#p0" /><polygon points="0,0 0,36 36,36 36,0" fill="#ffd500"><animate attributeType="XML" attributeName="fill" values="#ffd500;#fdc500;#ffd500;#ffd500" dur="0.7s" repeatCount="indefinite"/></polygon></g><g transform="translate(320,120)"><use href="#b0" /><circle r="18" fill="#5c0099"><animate attributeType="XML" attributeName="fill" values="#5c0099;#3d0066;#5c0099;#5c0099" dur="0.4s" repeatCount="indefinite"/></circle></g><use href="#d0" x="302" y="142" /><g transform="translate(320,200)"><use href="#b0" /><circle r="18" fill="#5c0099"><animate attributeType="XML" attributeName="fill" values="#5c0099;#3d0066;#5c0099;#5c0099" dur="0.8s" repeatCount="indefinite"/></circle></g><use href="#d0" x="302" y="222" /><use href="#l0" x="320" y="280" /><use href="#d0" x="302" y="302" /></svg>