<svg width="360" height="360" xmlns="http://www.w3.org/2000/svg"><defs><animate id="aa" begin="0s"/><rect id="l0" width="36" height="36" fill="#310055"></rect><circle id="d0" r="18" fill="#d283ff"></circle></defs><rect width="100%" height="100%" fill="#dc97ff" /><use href="#d0" x="40" y="40" /><use href="#l0" x="22" y="62" /><use href="#d0" x="40" y="120" /><use href="#d0" x="40" y="160" /><use href="#l0" x="22" y="182" /><use href="#d0" x="40" y="240" /><use href="#d0" x="40" y="280" /><use href="#l0" x="22" y="302" /><use href="#d0" x="80" y="40" /><use href="#d0" x="80" y="80" /><use href="#l0" x="62" y="102" /><use href="#l0" x="62" y="142" /><use href="#d0" x="80" y="200" /><use href="#l0" x="62" y="222" /><use href="#d0" x="80" y="280" /><use href="#l0" x="62" y="302" /><use href="#l0" x="102" y="22" /><use href="#d0" x="120" y="80" /><use href="#l0" x="102" y="102" /><use href="#d0" x="120" y="160" /><use href="#d0" x="120" y="200" /><use href="#l0" x="102" y="222" /><use href="#d0" x="120" y="280" /><use href="#d0" x="120" y="320" /><g transform="translate(142,22)"><use href="#b0" /><polygon points="0,0 0,36 36,36 36,0" fill="#ab51e3"><animate attributeType="XML" attributeName="fill" values="#ab51e3;#310055;#ab51e3;#ab51e3" dur="1s" begin="aa.begin +1s" repeatCount="indefinite"/></polygon></g><use href="#d0" x="160" y="80" /><use href="#l0" x="142" y="102" /><use href="#d0" x="160" y="160" /><use href="#l0" x="142" y="182" /><use href="#d0" x="160" y="240" /><use href="#l0" x="142" y="262" /><g transform="translate(160,320)"><use href="#p0" /><circle r="18" fill="#bd68ee"><animate attributeType="XML" attributeName="fill" values="#bd68ee;#d283ff;#bd68ee;#bd68ee" dur="1s" begin="aa.begin +1.5s" repeatCount="indefinite"/></circle></g><g transform="translate(200,40)"><use href="#p0" /><circle r="18" fill="#bd68ee"><animate attributeType="XML" attributeName="fill" values="#bd68ee;#d283ff;#bd68ee;#bd68ee" dur="1s" begin="aa.begin +2s" repeatCount="indefinite"/></circle></g><use href="#d0" x="200" y="80" /><use href="#l0" x="182" y="102" /><use href="#d0" x="200" y="160" /><use href="#l0" x="182" y="182" /><use href="#d0" x="200" y="240" /><use href="#d0" x="200" y="280" /><g transform="translate(182,302)"><use href="#b0" /><polygon points="0,0 0,36 36,36 36,0" fill="#ab51e3"><animate attributeType="XML" attributeName="fill" values="#ab51e3;#310055;#ab51e3;#ab51e3" dur="1s" begin="aa.begin +s" repeatCount="indefinite"/></polygon></g><use href="#d0" x="240" y="40" /><g transform="translate(222,62)"><use href="#b0" /><polygon points="0,0 0,36 36,36 36,0" fill="#ab51e3"><animate attributeType="XML" attributeName="fill" values="#ab51e3;#310055;#ab51e3;#ab51e3" dur="1s" begin="aa.begin +2.5s" repeatCount="indefinite"/></polygon></g><use href="#l0" x="222" y="102" /><use href="#d0" x="240" y="160" /><use href="#l0" x="222" y="182" /><use href="#d0" x="240" y="240" /><use href="#l0" x="222" y="262" /><g transform="translate(222,302)"><use href="#b0" /><polygon points="0,0 0,36 36,36 36,0" fill="#ab51e3"><animate attributeType="XML" attributeName="fill" values="#ab51e3;#310055;#ab51e3;#ab51e3" dur="1s" begin="aa.begin +3s" repeatCount="indefinite"/></polygon></g><g transform="translate(262,22)"><use href="#b0" /><polygon points="0,0 0,36 36,36 36,0" fill="#ab51e3"><animate attributeType="XML" attributeName="fill" values="#ab51e3;#310055;#ab51e3;#ab51e3" dur="1s" begin="aa.begin +3.5s" repeatCount="indefinite"/></polygon></g><use href="#d0" x="280" y="80" /><use href="#l0" x="262" y="102" /><use href="#d0" x="280" y="160" /><use href="#l0" x="262" y="182" /><use href="#d0" x="280" y="240" /><use href="#l0" x="262" y="262" /><use href="#d0" x="280" y="320" /><use href="#l0" x="302" y="22" /><use href="#d0" x="320" y="80" /><use href="#l0" x="302" y="102" /><use href="#d0" x="320" y="160" /><use href="#l0" x="302" y="182" /><use href="#d0" x="320" y="240" /><use href="#l0" x="302" y="262" /><use href="#d0" x="320" y="320" /></svg>