<svg width="360" height="360" xmlns="http://www.w3.org/2000/svg"><defs><animate id="aa" begin="0s"/><rect id="d0" width="36" height="36" fill="#ef4043"></rect><circle id="l0" r="18" fill="#ED254E"></circle></defs><rect width="100%" height="100%" fill="#FF3C38" /><g transform="translate(40,40)"><use href="#b0" /><circle r="18" fill="#ff0059"><animate attributeType="XML" attributeName="fill" values="#ff0059;#ED254E;#ff0059;#ff0059" dur="3s" begin="aa.begin +1s" repeatCount="indefinite"/></circle></g><use href="#d0" x="22" y="62" /><use href="#d0" x="22" y="102" /><use href="#d0" x="22" y="142" /><use href="#d0" x="22" y="182" /><use href="#d0" x="22" y="222" /><g transform="translate(40,280)"><use href="#b0" /><circle r="18" fill="#ff0059"><animate attributeType="XML" attributeName="fill" values="#ff0059;#ED254E;#ff0059;#ff0059" dur="3s" begin="aa.begin +1.5s" repeatCount="indefinite"/></circle></g><g transform="translate(22,302)"><use href="#p0" /><polygon points="0,0 0,36 36,36 36,0" fill="#FF1053"><animate attributeType="XML" attributeName="fill" values="#FF1053;#ef4043;#FF1053;#FF1053" dur="3s" begin="aa.begin +2s" repeatCount="indefinite"/></polygon></g><use href="#d0" x="62" y="22" /><g transform="translate(80,80)"><use href="#b0" /><circle r="18" fill="#ff0059"><animate attributeType="XML" attributeName="fill" values="#ff0059;#ED254E;#ff0059;#ff0059" dur="3s" begin="aa.begin +s" repeatCount="indefinite"/></circle></g><use href="#d0" x="62" y="102" /><g transform="translate(80,160)"><use href="#b0" /><circle r="18" fill="#ff0059"><animate attributeType="XML" attributeName="fill" values="#ff0059;#ED254E;#ff0059;#ff0059" dur="3s" begin="aa.begin +2.5s" repeatCount="indefinite"/></circle></g><use href="#d0" x="62" y="182" /><g transform="translate(80,240)"><use href="#b0" /><circle r="18" fill="#ff0059"><animate attributeType="XML" attributeName="fill" values="#ff0059;#ED254E;#ff0059;#ff0059" dur="3s" begin="aa.begin +3s" repeatCount="indefinite"/></circle></g><use href="#d0" x="62" y="262" /><use href="#l0" x="80" y="320" /><use href="#d0" x="102" y="22" /><use href="#l0" x="120" y="80" /><g transform="translate(102,102)"><use href="#p0" /><polygon points="0,0 0,36 36,36 36,0" fill="#FF1053"><animate attributeType="XML" attributeName="fill" values="#FF1053;#ef4043;#FF1053;#FF1053" dur="3s" begin="aa.begin +3.5s" repeatCount="indefinite"/></polygon></g><use href="#l0" x="120" y="160" /><g transform="translate(102,182)"><use href="#p0" /><polygon points="0,0 0,36 36,36 36,0" fill="#FF1053"><animate attributeType="XML" attributeName="fill" values="#FF1053;#ef4043;#FF1053;#FF1053" dur="3s" begin="aa.begin +4s" repeatCount="indefinite"/></polygon></g><use href="#l0" x="120" y="240" /><use href="#d0" x="102" y="262" /><g transform="translate(102,302)"><use href="#p0" /><polygon points="0,0 0,36 36,36 36,0" fill="#FF1053"><animate attributeType="XML" attributeName="fill" values="#FF1053;#ef4043;#FF1053;#FF1053" dur="3s" begin="aa.begin +4.5s" repeatCount="indefinite"/></polygon></g><use href="#d0" x="142" y="22" /><use href="#d0" x="142" y="62" /><use href="#d0" x="142" y="102" /><use href="#d0" x="142" y="142" /><use href="#d0" x="142" y="182" /><use href="#l0" x="160" y="240" /><use href="#d0" x="142" y="262" /><use href="#d0" x="142" y="302" /><use href="#l0" x="200" y="40" /><use href="#l0" x="200" y="80" /><use href="#l0" x="200" y="120" /><use href="#l0" x="200" y="160" /><use href="#l0" x="200" y="200" /><use href="#l0" x="200" y="240" /><use href="#d0" x="182" y="262" /><use href="#l0" x="200" y="320" /><use href="#d0" x="222" y="22" /><use href="#d0" x="222" y="62" /><g transform="translate(240,120)"><use href="#b0" /><circle r="18" fill="#ff0059"><animate attributeType="XML" attributeName="fill" values="#ff0059;#ED254E;#ff0059;#ff0059" dur="3s" begin="aa.begin +5s" repeatCount="indefinite"/></circle></g><use href="#d0" x="222" y="142" /><g transform="translate(240,200)"><use href="#b0" /><circle r="18" fill="#ff0059"><animate attributeType="XML" attributeName="fill" values="#ff0059;#ED254E;#ff0059;#ff0059" dur="3s" begin="aa.begin +5.5s" repeatCount="indefinite"/></circle></g><use href="#d0" x="222" y="222" /><use href="#d0" x="222" y="262" /><g transform="translate(222,302)"><use href="#p0" /><polygon points="0,0 0,36 36,36 36,0" fill="#FF1053"><animate attributeType="XML" attributeName="fill" values="#FF1053;#ef4043;#FF1053;#FF1053" dur="3s" begin="aa.begin +6s" repeatCount="indefinite"/></polygon></g><g transform="translate(262,22)"><use href="#p0" /><polygon points="0,0 0,36 36,36 36,0" fill="#FF1053"><animate attributeType="XML" attributeName="fill" values="#FF1053;#ef4043;#FF1053;#FF1053" dur="3s" begin="aa.begin +6.5s" repeatCount="indefinite"/></polygon></g><use href="#d0" x="262" y="62" /><use href="#d0" x="262" y="102" /><use href="#d0" x="262" y="142" /><use href="#d0" x="262" y="182" /><g transform="translate(280,240)"><use href="#b0" /><circle r="18" fill="#ff0059"><animate attributeType="XML" attributeName="fill" values="#ff0059;#ED254E;#ff0059;#ff0059" dur="3s" begin="aa.begin +7s" repeatCount="indefinite"/></circle></g><use href="#l0" x="280" y="280" /><g transform="translate(280,320)"><use href="#b0" /><circle r="18" fill="#ff0059"><animate attributeType="XML" attributeName="fill" values="#ff0059;#ED254E;#ff0059;#ff0059" dur="3s" begin="aa.begin +7.5s" repeatCount="indefinite"/></circle></g><use href="#l0" x="320" y="40" /><use href="#d0" x="302" y="62" /><use href="#d0" x="302" y="102" /><use href="#d0" x="302" y="142" /><use href="#d0" x="302" y="182" /><use href="#d0" x="302" y="222" /><g transform="translate(302,262)"><use href="#p0" /><polygon points="0,0 0,36 36,36 36,0" fill="#FF1053"><animate attributeType="XML" attributeName="fill" values="#FF1053;#ef4043;#FF1053;#FF1053" dur="3s" begin="aa.begin +8s" repeatCount="indefinite"/></polygon></g><use href="#d0" x="302" y="302" /></svg>