<svg width="360" height="360" xmlns="http://www.w3.org/2000/svg"><defs><animate id="aa" begin="0s"/><rect id="d0" width="36" height="36" fill="#d283ff"></rect><circle id="l0" r="18" fill="#310055"></circle></defs><rect width="100%" height="100%" fill="#dc97ff" /><g transform="translate(40,40)"><use href="#b0" /><circle r="18" fill="#8b2fc9"><animate attributeType="XML" attributeName="fill" values="#8b2fc9;#310055;#8b2fc9;#8b2fc9" dur="0.0s" repeatCount="indefinite"/></circle></g><use href="#d0" x="22" y="62" /><g transform="translate(40,120)"><use href="#b0" /><circle r="18" fill="#8b2fc9"><animate attributeType="XML" attributeName="fill" values="#8b2fc9;#310055;#8b2fc9;#8b2fc9" dur="0.0s" repeatCount="indefinite"/></circle></g><g transform="translate(22,142)"><use href="#p0" /><polygon points="0,0 0,36 36,36 36,0" fill="#d283ff"><animate attributeType="XML" attributeName="fill" values="#d283ff;#d283ff;#d283ff;#d283ff" dur="0.0s" repeatCount="indefinite"/></polygon></g><g transform="translate(22,182)"><use href="#p0" /><polygon points="0,0 0,36 36,36 36,0" fill="#d283ff"><animate attributeType="XML" attributeName="fill" values="#d283ff;#d283ff;#d283ff;#d283ff" dur="0.0s" repeatCount="indefinite"/></polygon></g><use href="#d0" x="22" y="222" /><use href="#d0" x="22" y="262" /><use href="#d0" x="22" y="302" /><g transform="translate(80,40)"><use href="#b0" /><circle r="18" fill="#8b2fc9"><animate attributeType="XML" attributeName="fill" values="#8b2fc9;#310055;#8b2fc9;#8b2fc9" dur="0.0s" repeatCount="indefinite"/></circle></g><use href="#d0" x="62" y="62" /><g transform="translate(80,120)"><use href="#b0" /><circle r="18" fill="#8b2fc9"><animate attributeType="XML" attributeName="fill" values="#8b2fc9;#310055;#8b2fc9;#8b2fc9" dur="0.2s" repeatCount="indefinite"/></circle></g><use href="#l0" x="80" y="160" /><use href="#d0" x="62" y="182" /><g transform="translate(62,222)"><use href="#p0" /><polygon points="0,0 0,36 36,36 36,0" fill="#d283ff"><animate attributeType="XML" attributeName="fill" values="#d283ff;#d283ff;#d283ff;#d283ff" dur="0.5s" repeatCount="indefinite"/></polygon></g><g transform="translate(62,262)"><use href="#p0" /><polygon points="0,0 0,36 36,36 36,0" fill="#d283ff"><animate attributeType="XML" attributeName="fill" values="#d283ff;#d283ff;#d283ff;#d283ff" dur="0.6s" repeatCount="indefinite"/></polygon></g><use href="#l0" x="80" y="320" /><use href="#d0" x="102" y="22" /><use href="#l0" x="120" y="80" /><use href="#d0" x="102" y="102" /><use href="#d0" x="102" y="142" /><use href="#d0" x="102" y="182" /><g transform="translate(120,240)"><use href="#b0" /><circle r="18" fill="#8b2fc9"><animate attributeType="XML" attributeName="fill" values="#8b2fc9;#310055;#8b2fc9;#8b2fc9" dur="0.0s" repeatCount="indefinite"/></circle></g><use href="#d0" x="102" y="262" /><use href="#d0" x="102" y="302" /><use href="#d0" x="142" y="22" /><use href="#d0" x="142" y="62" /><g transform="translate(160,120)"><use href="#b0" /><circle r="18" fill="#8b2fc9"><animate attributeType="XML" attributeName="fill" values="#8b2fc9;#310055;#8b2fc9;#8b2fc9" dur="0.6s" repeatCount="indefinite"/></circle></g><use href="#l0" x="160" y="160" /><g transform="translate(142,182)"><use href="#p0" /><polygon points="0,0 0,36 36,36 36,0" fill="#d283ff"><animate attributeType="XML" attributeName="fill" values="#d283ff;#d283ff;#d283ff;#d283ff" dur="0.2s" repeatCount="indefinite"/></polygon></g><g transform="translate(142,222)"><use href="#p0" /><polygon points="0,0 0,36 36,36 36,0" fill="#d283ff"><animate attributeType="XML" attributeName="fill" values="#d283ff;#d283ff;#d283ff;#d283ff" dur="0.5s" repeatCount="indefinite"/></polygon></g><g transform="translate(142,262)"><use href="#p0" /><polygon points="0,0 0,36 36,36 36,0" fill="#d283ff"><animate attributeType="XML" attributeName="fill" values="#d283ff;#d283ff;#d283ff;#d283ff" dur="0.8s" repeatCount="indefinite"/></polygon></g><g transform="translate(142,302)"><use href="#p0" /><polygon points="0,0 0,36 36,36 36,0" fill="#d283ff"><animate attributeType="XML" attributeName="fill" values="#d283ff;#d283ff;#d283ff;#d283ff" dur="0.1s" repeatCount="indefinite"/></polygon></g><g transform="translate(200,40)"><use href="#b0" /><circle r="18" fill="#8b2fc9"><animate attributeType="XML" attributeName="fill" values="#8b2fc9;#310055;#8b2fc9;#8b2fc9" dur="0.0s" repeatCount="indefinite"/></circle></g><use href="#d0" x="182" y="62" /><use href="#d0" x="182" y="102" /><g transform="translate(182,142)"><use href="#p0" /><polygon points="0,0 0,36 36,36 36,0" fill="#d283ff"><animate attributeType="XML" attributeName="fill" values="#d283ff;#d283ff;#d283ff;#d283ff" dur="0.2s" repeatCount="indefinite"/></polygon></g><g transform="translate(200,200)"><use href="#b0" /><circle r="18" fill="#8b2fc9"><animate attributeType="XML" attributeName="fill" values="#8b2fc9;#310055;#8b2fc9;#8b2fc9" dur="0.6s" repeatCount="indefinite"/></circle></g><use href="#l0" x="200" y="240" /><use href="#l0" x="200" y="280" /><use href="#d0" x="182" y="302" /><use href="#l0" x="240" y="40" /><use href="#l0" x="240" y="80" /><g transform="translate(222,102)"><use href="#p0" /><polygon points="0,0 0,36 36,36 36,0" fill="#d283ff"><animate attributeType="XML" attributeName="fill" values="#d283ff;#d283ff;#d283ff;#d283ff" dur="0.0s" repeatCount="indefinite"/></polygon></g><use href="#d0" x="222" y="142" /><use href="#l0" x="240" y="200" /><use href="#d0" x="222" y="222" /><use href="#d0" x="222" y="262" /><use href="#l0" x="240" y="320" /><use href="#d0" x="262" y="22" /><g transform="translate(280,80)"><use href="#b0" /><circle r="18" fill="#8b2fc9"><animate attributeType="XML" attributeName="fill" values="#8b2fc9;#310055;#8b2fc9;#8b2fc9" dur="0.6s" repeatCount="indefinite"/></circle></g><g transform="translate(280,120)"><use href="#b0" /><circle r="18" fill="#8b2fc9"><animate attributeType="XML" attributeName="fill" values="#8b2fc9;#310055;#8b2fc9;#8b2fc9" dur="0.2s" repeatCount="indefinite"/></circle></g><use href="#d0" x="262" y="142" /><use href="#d0" x="262" y="182" /><g transform="translate(262,222)"><use href="#p0" /><polygon points="0,0 0,36 36,36 36,0" fill="#d283ff"><animate attributeType="XML" attributeName="fill" values="#d283ff;#d283ff;#d283ff;#d283ff" dur="0.0s" repeatCount="indefinite"/></polygon></g><use href="#d0" x="262" y="262" /><use href="#d0" x="262" y="302" /><use href="#l0" x="320" y="40" /><use href="#d0" x="302" y="62" /><use href="#d0" x="302" y="102" /><use href="#l0" x="320" y="160" /><use href="#l0" x="320" y="200" /><use href="#l0" x="320" y="240" /><use href="#l0" x="320" y="280" /><use href="#l0" x="320" y="320" /></svg>