<svg width="360" height="360" xmlns="http://www.w3.org/2000/svg"><defs><animate id="aa" begin="0s"/><rect id="d0" width="36" height="36" fill="#6f6269"></rect><circle id="l0" r="18" fill="#000000"></circle></defs><rect width="100%" height="100%" fill="#0c226e" /><use href="#d0" x="22" y="22" /><use href="#d0" x="22" y="62" /><use href="#d0" x="22" y="102" /><use href="#d0" x="22" y="142" /><use href="#l0" x="40" y="200" /><use href="#l0" x="40" y="240" /><use href="#d0" x="22" y="262" /><use href="#d0" x="22" y="302" /><use href="#d0" x="62" y="22" /><use href="#d0" x="62" y="62" /><use href="#d0" x="62" y="102" /><g transform="translate(80,160)"><use href="#b0" /><circle r="18" fill="#ccc0c4"><animate attributeType="XML" attributeName="fill" values="#ccc0c4;#000000;#ccc0c4;#ccc0c4" dur="2.3s" repeatCount="indefinite"/></circle></g><use href="#d0" x="62" y="182" /><use href="#d0" x="62" y="222" /><use href="#d0" x="62" y="262" /><use href="#d0" x="62" y="302" /><use href="#d0" x="102" y="22" /><use href="#l0" x="120" y="80" /><use href="#l0" x="120" y="120" /><use href="#d0" x="102" y="142" /><use href="#l0" x="120" y="200" /><use href="#l0" x="120" y="240" /><use href="#l0" x="120" y="280" /><g transform="translate(102,302)"><use href="#p0" /><polygon points="0,0 0,36 36,36 36,0" fill="#3b63ba"><animate attributeType="XML" attributeName="fill" values="#3b63ba;#6f6269;#3b63ba;#3b63ba" dur="2.4s" repeatCount="indefinite"/></polygon></g><g transform="translate(160,40)"><use href="#b0" /><circle r="18" fill="#ccc0c4"><animate attributeType="XML" attributeName="fill" values="#ccc0c4;#000000;#ccc0c4;#ccc0c4" dur="2.0s" repeatCount="indefinite"/></circle></g><use href="#d0" x="142" y="62" /><use href="#l0" x="160" y="120" /><use href="#d0" x="142" y="142" /><g transform="translate(160,200)"><use href="#b0" /><circle r="18" fill="#ccc0c4"><animate attributeType="XML" attributeName="fill" values="#ccc0c4;#000000;#ccc0c4;#ccc0c4" dur="2.2s" repeatCount="indefinite"/></circle></g><use href="#d0" x="142" y="222" /><use href="#d0" x="142" y="262" /><g transform="translate(160,320)"><use href="#b0" /><circle r="18" fill="#ccc0c4"><animate attributeType="XML" attributeName="fill" values="#ccc0c4;#000000;#ccc0c4;#ccc0c4" dur="2.1s" repeatCount="indefinite"/></circle></g><g transform="translate(182,22)"><use href="#p0" /><polygon points="0,0 0,36 36,36 36,0" fill="#3b63ba"><animate attributeType="XML" attributeName="fill" values="#3b63ba;#6f6269;#3b63ba;#3b63ba" dur="2.0s" repeatCount="indefinite"/></polygon></g><use href="#l0" x="200" y="80" /><use href="#d0" x="182" y="102" /><use href="#d0" x="182" y="142" /><use href="#l0" x="200" y="200" /><g transform="translate(200,240)"><use href="#b0" /><circle r="18" fill="#ccc0c4"><animate attributeType="XML" attributeName="fill" values="#ccc0c4;#000000;#ccc0c4;#ccc0c4" dur="2.0s" repeatCount="indefinite"/></circle></g><use href="#d0" x="182" y="262" /><use href="#d0" x="182" y="302" /><g transform="translate(240,40)"><use href="#b0" /><circle r="18" fill="#ccc0c4"><animate attributeType="XML" attributeName="fill" values="#ccc0c4;#000000;#ccc0c4;#ccc0c4" dur="2.0s" repeatCount="indefinite"/></circle></g><use href="#l0" x="240" y="80" /><g transform="translate(240,120)"><use href="#b0" /><circle r="18" fill="#ccc0c4"><animate attributeType="XML" attributeName="fill" values="#ccc0c4;#000000;#ccc0c4;#ccc0c4" dur="2.0s" repeatCount="indefinite"/></circle></g><g transform="translate(222,142)"><use href="#p0" /><polygon points="0,0 0,36 36,36 36,0" fill="#3b63ba"><animate attributeType="XML" attributeName="fill" values="#3b63ba;#6f6269;#3b63ba;#3b63ba" dur="2.5s" repeatCount="indefinite"/></polygon></g><use href="#l0" x="240" y="200" /><use href="#d0" x="222" y="222" /><use href="#d0" x="222" y="262" /><use href="#d0" x="222" y="302" /><use href="#l0" x="280" y="40" /><use href="#d0" x="262" y="62" /><g transform="translate(280,120)"><use href="#b0" /><circle r="18" fill="#ccc0c4"><animate attributeType="XML" attributeName="fill" values="#ccc0c4;#000000;#ccc0c4;#ccc0c4" dur="2.2s" repeatCount="indefinite"/></circle></g><use href="#d0" x="262" y="142" /><use href="#l0" x="280" y="200" /><g transform="translate(280,240)"><use href="#b0" /><circle r="18" fill="#ccc0c4"><animate attributeType="XML" attributeName="fill" values="#ccc0c4;#000000;#ccc0c4;#ccc0c4" dur="2.0s" repeatCount="indefinite"/></circle></g><use href="#d0" x="262" y="262" /><use href="#d0" x="262" y="302" /><use href="#d0" x="302" y="22" /><use href="#d0" x="302" y="62" /><use href="#d0" x="302" y="102" /><use href="#l0" x="320" y="160" /><use href="#d0" x="302" y="182" /><g transform="translate(302,222)"><use href="#p0" /><polygon points="0,0 0,36 36,36 36,0" fill="#3b63ba"><animate attributeType="XML" attributeName="fill" values="#3b63ba;#6f6269;#3b63ba;#3b63ba" dur="2.5s" repeatCount="indefinite"/></polygon></g><use href="#d0" x="302" y="262" /><use href="#d0" x="302" y="302" /></svg>