<svg width="360" height="360" xmlns="http://www.w3.org/2000/svg"><defs><animate id="aa" begin="0s"/><circle id="l0" r="18" fill="#f8f9fa"></circle><circle id="d0" r="18" fill="#343a40"></circle></defs><rect width="100%" height="100%" fill="#212529" /><g transform="translate(40,40)"><use href="#b0" /><circle r="18" fill="#dee2e6"><animate attributeType="XML" attributeName="fill" values="#dee2e6;#f8f9fa;#dee2e6;#dee2e6" dur="1.0s" repeatCount="indefinite"/></circle></g><use href="#l0" x="40" y="80" /><use href="#d0" x="40" y="120" /><use href="#l0" x="40" y="160" /><use href="#d0" x="40" y="200" /><use href="#l0" x="40" y="240" /><use href="#d0" x="40" y="280" /><use href="#d0" x="40" y="320" /><use href="#d0" x="80" y="40" /><g transform="translate(80,80)"><use href="#p0" /><circle r="18" fill="#495057"><animate attributeType="XML" attributeName="fill" values="#495057;#343a40;#495057;#495057" dur="1.1s" repeatCount="indefinite"/></circle></g><use href="#d0" x="80" y="120" /><use href="#l0" x="80" y="160" /><use href="#d0" x="80" y="200" /><use href="#l0" x="80" y="240" /><use href="#d0" x="80" y="280" /><use href="#l0" x="80" y="320" /><use href="#l0" x="120" y="40" /><g transform="translate(120,80)"><use href="#p0" /><circle r="18" fill="#495057"><animate attributeType="XML" attributeName="fill" values="#495057;#343a40;#495057;#495057" dur="1.2s" repeatCount="indefinite"/></circle></g><g transform="translate(120,120)"><use href="#b0" /><circle r="18" fill="#dee2e6"><animate attributeType="XML" attributeName="fill" values="#dee2e6;#f8f9fa;#dee2e6;#dee2e6" dur="1.4s" repeatCount="indefinite"/></circle></g><use href="#l0" x="120" y="160" /><use href="#d0" x="120" y="200" /><use href="#l0" x="120" y="240" /><use href="#d0" x="120" y="280" /><use href="#l0" x="120" y="320" /><use href="#d0" x="160" y="40" /><use href="#d0" x="160" y="80" /><use href="#d0" x="160" y="120" /><use href="#l0" x="160" y="160" /><use href="#d0" x="160" y="200" /><use href="#l0" x="160" y="240" /><use href="#d0" x="160" y="280" /><use href="#d0" x="160" y="320" /><use href="#l0" x="200" y="40" /><use href="#l0" x="200" y="80" /><use href="#d0" x="200" y="120" /><use href="#l0" x="200" y="160" /><use href="#d0" x="200" y="200" /><use href="#l0" x="200" y="240" /><use href="#l0" x="200" y="280" /><g transform="translate(200,320)"><use href="#b0" /><circle r="18" fill="#dee2e6"><animate attributeType="XML" attributeName="fill" values="#dee2e6;#f8f9fa;#dee2e6;#dee2e6" dur="1.8s" repeatCount="indefinite"/></circle></g><g transform="translate(240,40)"><use href="#p0" /><circle r="18" fill="#495057"><animate attributeType="XML" attributeName="fill" values="#495057;#343a40;#495057;#495057" dur="1.0s" repeatCount="indefinite"/></circle></g><use href="#l0" x="240" y="80" /><use href="#d0" x="240" y="120" /><use href="#l0" x="240" y="160" /><use href="#d0" x="240" y="200" /><use href="#d0" x="240" y="240" /><use href="#d0" x="240" y="280" /><use href="#d0" x="240" y="320" /><use href="#d0" x="280" y="40" /><use href="#d0" x="280" y="80" /><g transform="translate(280,120)"><use href="#p0" /><circle r="18" fill="#495057"><animate attributeType="XML" attributeName="fill" values="#495057;#343a40;#495057;#495057" dur="1.2s" repeatCount="indefinite"/></circle></g><use href="#l0" x="280" y="160" /><use href="#d0" x="280" y="200" /><use href="#l0" x="280" y="240" /><use href="#l0" x="280" y="280" /><use href="#d0" x="280" y="320" /><use href="#d0" x="320" y="40" /><use href="#d0" x="320" y="80" /><use href="#d0" x="320" y="120" /><use href="#l0" x="320" y="160" /><use href="#d0" x="320" y="200" /><use href="#l0" x="320" y="240" /><use href="#d0" x="320" y="280" /><use href="#d0" x="320" y="320" /></svg>