<svg width="360" height="360" xmlns="http://www.w3.org/2000/svg"><defs><animate id="aa" begin="0s"/><rect id="l0" width="36" height="36" fill="#3d0066"></rect><circle id="d0" r="18" fill="#fdc500"></circle></defs><rect width="100%" height="100%" fill="#ffee32" /><g transform="translate(40,40)"><use href="#p0" /><circle r="18" fill="#ffd500"><animate attributeType="XML" attributeName="fill" values="#ffd500;#fdc500;#ffd500;#ffd500" dur="0.0s" repeatCount="indefinite"/></circle></g><use href="#d0" x="40" y="80" /><use href="#l0" x="22" y="102" /><use href="#l0" x="22" y="142" /><use href="#d0" x="40" y="200" /><use href="#d0" x="40" y="240" /><use href="#d0" x="40" y="280" /><use href="#d0" x="40" y="320" /><use href="#d0" x="80" y="40" /><use href="#d0" x="80" y="80" /><g transform="translate(62,102)"><use href="#b0" /><polygon points="0,0 0,36 36,36 36,0" fill="#5c0099"><animate attributeType="XML" attributeName="fill" values="#5c0099;#3d0066;#5c0099;#5c0099" dur="0.2s" repeatCount="indefinite"/></polygon></g><use href="#d0" x="80" y="160" /><use href="#l0" x="62" y="182" /><use href="#d0" x="80" y="240" /><use href="#d0" x="80" y="280" /><use href="#d0" x="80" y="320" /><g transform="translate(102,22)"><use href="#b0" /><polygon points="0,0 0,36 36,36 36,0" fill="#5c0099"><animate attributeType="XML" attributeName="fill" values="#5c0099;#3d0066;#5c0099;#5c0099" dur="0.0s" repeatCount="indefinite"/></polygon></g><use href="#d0" x="120" y="80" /><use href="#d0" x="120" y="120" /><g transform="translate(120,160)"><use href="#p0" /><circle r="18" fill="#ffd500"><animate attributeType="XML" attributeName="fill" values="#ffd500;#fdc500;#ffd500;#ffd500" dur="0.6s" repeatCount="indefinite"/></circle></g><use href="#l0" x="102" y="182" /><use href="#d0" x="120" y="240" /><g transform="translate(102,262)"><use href="#b0" /><polygon points="0,0 0,36 36,36 36,0" fill="#5c0099"><animate attributeType="XML" attributeName="fill" values="#5c0099;#3d0066;#5c0099;#5c0099" dur="0.2s" repeatCount="indefinite"/></polygon></g><use href="#d0" x="120" y="320" /><use href="#l0" x="142" y="22" /><use href="#l0" x="142" y="62" /><use href="#l0" x="142" y="102" /><use href="#l0" x="142" y="142" /><use href="#d0" x="160" y="200" /><g transform="translate(160,240)"><use href="#p0" /><circle r="18" fill="#ffd500"><animate attributeType="XML" attributeName="fill" values="#ffd500;#fdc500;#ffd500;#ffd500" dur="0.5s" repeatCount="indefinite"/></circle></g><use href="#l0" x="142" y="262" /><g transform="translate(160,320)"><use href="#p0" /><circle r="18" fill="#ffd500"><animate attributeType="XML" attributeName="fill" values="#ffd500;#fdc500;#ffd500;#ffd500" dur="0.1s" repeatCount="indefinite"/></circle></g><use href="#d0" x="200" y="40" /><use href="#d0" x="200" y="80" /><use href="#d0" x="200" y="120" /><use href="#d0" x="200" y="160" /><g transform="translate(182,182)"><use href="#b0" /><polygon points="0,0 0,36 36,36 36,0" fill="#5c0099"><animate attributeType="XML" attributeName="fill" values="#5c0099;#3d0066;#5c0099;#5c0099" dur="0.6s" repeatCount="indefinite"/></polygon></g><use href="#l0" x="182" y="222" /><use href="#d0" x="200" y="280" /><g transform="translate(182,302)"><use href="#b0" /><polygon points="0,0 0,36 36,36 36,0" fill="#5c0099"><animate attributeType="XML" attributeName="fill" values="#5c0099;#3d0066;#5c0099;#5c0099" dur="0.8s" repeatCount="indefinite"/></polygon></g><g transform="translate(222,22)"><use href="#b0" /><polygon points="0,0 0,36 36,36 36,0" fill="#5c0099"><animate attributeType="XML" attributeName="fill" values="#5c0099;#3d0066;#5c0099;#5c0099" dur="0.0s" repeatCount="indefinite"/></polygon></g><use href="#l0" x="222" y="62" /><g transform="translate(222,102)"><use href="#b0" /><polygon points="0,0 0,36 36,36 36,0" fill="#5c0099"><animate attributeType="XML" attributeName="fill" values="#5c0099;#3d0066;#5c0099;#5c0099" dur="0.0s" repeatCount="indefinite"/></polygon></g><use href="#d0" x="240" y="160" /><use href="#d0" x="240" y="200" /><use href="#l0" x="222" y="222" /><use href="#d0" x="240" y="280" /><use href="#l0" x="222" y="302" /><use href="#d0" x="280" y="40" /><use href="#d0" x="280" y="80" /><g transform="translate(280,120)"><use href="#p0" /><circle r="18" fill="#ffd500"><animate attributeType="XML" attributeName="fill" values="#ffd500;#fdc500;#ffd500;#ffd500" dur="0.2s" repeatCount="indefinite"/></circle></g><g transform="translate(280,160)"><use href="#p0" /><circle r="18" fill="#ffd500"><animate attributeType="XML" attributeName="fill" values="#ffd500;#fdc500;#ffd500;#ffd500" dur="0.8s" repeatCount="indefinite"/></circle></g><use href="#d0" x="280" y="200" /><g transform="translate(280,240)"><use href="#p0" /><circle r="18" fill="#ffd500"><animate attributeType="XML" attributeName="fill" values="#ffd500;#fdc500;#ffd500;#ffd500" dur="0.0s" repeatCount="indefinite"/></circle></g><use href="#d0" x="280" y="280" /><use href="#d0" x="280" y="320" /><use href="#d0" x="320" y="40" /><g transform="translate(320,80)"><use href="#p0" /><circle r="18" fill="#ffd500"><animate attributeType="XML" attributeName="fill" values="#ffd500;#fdc500;#ffd500;#ffd500" dur="0.7s" repeatCount="indefinite"/></circle></g><use href="#d0" x="320" y="120" /><use href="#d0" x="320" y="160" /><use href="#d0" x="320" y="200" /><use href="#d0" x="320" y="240" /><use href="#d0" x="320" y="280" /><use href="#d0" x="320" y="320" /></svg>