<svg width="360" height="360" xmlns="http://www.w3.org/2000/svg"><defs><animate id="aa" begin="0s"/><rect id="d0" width="36" height="36" fill="#343a40"></rect><circle id="l0" r="18" fill="#f8f9fa"></circle></defs><rect width="100%" height="100%" fill="#212529" /><use href="#l0" x="40" y="40" /><use href="#d0" x="22" y="62" /><use href="#l0" x="40" y="120" /><use href="#d0" x="22" y="142" /><use href="#l0" x="40" y="200" /><use href="#l0" x="40" y="240" /><use href="#d0" x="22" y="262" /><use href="#l0" x="40" y="320" /><use href="#l0" x="80" y="40" /><use href="#d0" x="62" y="62" /><use href="#l0" x="80" y="120" /><use href="#d0" x="62" y="142" /><use href="#l0" x="80" y="200" /><g transform="translate(80,240)"><use href="#b0" /><circle r="18" fill="#dee2e6"><animate attributeType="XML" attributeName="fill" values="#dee2e6;#f8f9fa;#dee2e6;#dee2e6" dur="1.5s" repeatCount="indefinite"/></circle></g><g transform="translate(80,280)"><use href="#b0" /><circle r="18" fill="#dee2e6"><animate attributeType="XML" attributeName="fill" values="#dee2e6;#f8f9fa;#dee2e6;#dee2e6" dur="1.6s" repeatCount="indefinite"/></circle></g><use href="#d0" x="62" y="302" /><use href="#l0" x="120" y="40" /><use href="#d0" x="102" y="62" /><use href="#l0" x="120" y="120" /><use href="#d0" x="102" y="142" /><use href="#d0" x="102" y="182" /><use href="#d0" x="102" y="222" /><use href="#d0" x="102" y="262" /><use href="#d0" x="102" y="302" /><use href="#l0" x="160" y="40" /><use href="#d0" x="142" y="62" /><use href="#l0" x="160" y="120" /><use href="#l0" x="160" y="160" /><use href="#d0" x="142" y="182" /><use href="#l0" x="160" y="240" /><use href="#l0" x="160" y="280" /><use href="#d0" x="142" y="302" /><use href="#l0" x="200" y="40" /><use href="#d0" x="182" y="62" /><use href="#d0" x="182" y="102" /><use href="#d0" x="182" y="142" /><g transform="translate(200,200)"><use href="#b0" /><circle r="18" fill="#dee2e6"><animate attributeType="XML" attributeName="fill" values="#dee2e6;#f8f9fa;#dee2e6;#dee2e6" dur="1.6s" repeatCount="indefinite"/></circle></g><use href="#d0" x="182" y="222" /><use href="#l0" x="200" y="280" /><use href="#d0" x="182" y="302" /><use href="#l0" x="240" y="40" /><use href="#d0" x="222" y="62" /><use href="#l0" x="240" y="120" /><g transform="translate(222,142)"><use href="#p0" /><polygon points="0,0 0,36 36,36 36,0" fill="#495057"><animate attributeType="XML" attributeName="fill" values="#495057;#343a40;#495057;#495057" dur="1.5s" repeatCount="indefinite"/></polygon></g><use href="#d0" x="222" y="182" /><use href="#d0" x="222" y="222" /><g transform="translate(222,262)"><use href="#p0" /><polygon points="0,0 0,36 36,36 36,0" fill="#495057"><animate attributeType="XML" attributeName="fill" values="#495057;#343a40;#495057;#495057" dur="1.0s" repeatCount="indefinite"/></polygon></g><use href="#d0" x="222" y="302" /><use href="#l0" x="280" y="40" /><use href="#d0" x="262" y="62" /><use href="#l0" x="280" y="120" /><use href="#d0" x="262" y="142" /><g transform="translate(262,182)"><use href="#p0" /><polygon points="0,0 0,36 36,36 36,0" fill="#495057"><animate attributeType="XML" attributeName="fill" values="#495057;#343a40;#495057;#495057" dur="1.4s" repeatCount="indefinite"/></polygon></g><use href="#d0" x="262" y="222" /><use href="#d0" x="262" y="262" /><g transform="translate(280,320)"><use href="#b0" /><circle r="18" fill="#dee2e6"><animate attributeType="XML" attributeName="fill" values="#dee2e6;#f8f9fa;#dee2e6;#dee2e6" dur="1.2s" repeatCount="indefinite"/></circle></g><g transform="translate(302,22)"><use href="#p0" /><polygon points="0,0 0,36 36,36 36,0" fill="#495057"><animate attributeType="XML" attributeName="fill" values="#495057;#343a40;#495057;#495057" dur="1.0s" repeatCount="indefinite"/></polygon></g><use href="#d0" x="302" y="62" /><use href="#l0" x="320" y="120" /><use href="#d0" x="302" y="142" /><use href="#l0" x="320" y="200" /><g transform="translate(320,240)"><use href="#b0" /><circle r="18" fill="#dee2e6"><animate attributeType="XML" attributeName="fill" values="#dee2e6;#f8f9fa;#dee2e6;#dee2e6" dur="1.5s" repeatCount="indefinite"/></circle></g><use href="#d0" x="302" y="262" /><use href="#d0" x="302" y="302" /></svg>