<svg width="360" height="360" xmlns="http://www.w3.org/2000/svg"><defs><animate id="aa" begin="0s"/><rect id="d0" width="36" height="36" fill="#B9D6F2"></rect><circle id="l0" r="18" fill="#003559"></circle></defs><rect width="100%" height="100%" fill="#061A40" /><use href="#l0" x="40" y="40" /><use href="#l0" x="40" y="80" /><g transform="translate(22,102)"><use href="#p0" /><polygon points="0,0 0,36 36,36 36,0" fill="#BFD7EA"><animate attributeType="XML" attributeName="fill" values="#BFD7EA;#B9D6F2;#BFD7EA;#BFD7EA" dur="0.0s" repeatCount="indefinite"/></polygon></g><use href="#d0" x="22" y="142" /><g transform="translate(40,200)"><use href="#b0" /><circle r="18" fill="#006DAA"><animate attributeType="XML" attributeName="fill" values="#006DAA;#003559;#006DAA;#006DAA" dur="0.0s" repeatCount="indefinite"/></circle></g><use href="#d0" x="22" y="222" /><use href="#d0" x="22" y="262" /><use href="#l0" x="40" y="320" /><use href="#d0" x="62" y="22" /><use href="#d0" x="62" y="62" /><g transform="translate(80,120)"><use href="#b0" /><circle r="18" fill="#006DAA"><animate attributeType="XML" attributeName="fill" values="#006DAA;#003559;#006DAA;#006DAA" dur="0.2s" repeatCount="indefinite"/></circle></g><use href="#d0" x="62" y="142" /><g transform="translate(80,200)"><use href="#b0" /><circle r="18" fill="#006DAA"><animate attributeType="XML" attributeName="fill" values="#006DAA;#003559;#006DAA;#006DAA" dur="0.4s" repeatCount="indefinite"/></circle></g><g transform="translate(62,222)"><use href="#p0" /><polygon points="0,0 0,36 36,36 36,0" fill="#BFD7EA"><animate attributeType="XML" attributeName="fill" values="#BFD7EA;#B9D6F2;#BFD7EA;#BFD7EA" dur="0.5s" repeatCount="indefinite"/></polygon></g><use href="#l0" x="80" y="280" /><use href="#d0" x="62" y="302" /><use href="#d0" x="102" y="22" /><use href="#l0" x="120" y="80" /><use href="#l0" x="120" y="120" /><use href="#d0" x="102" y="142" /><use href="#l0" x="120" y="200" /><use href="#d0" x="102" y="222" /><use href="#l0" x="120" y="280" /><use href="#d0" x="102" y="302" /><g transform="translate(160,40)"><use href="#b0" /><circle r="18" fill="#006DAA"><animate attributeType="XML" attributeName="fill" values="#006DAA;#003559;#006DAA;#006DAA" dur="0.0s" repeatCount="indefinite"/></circle></g><use href="#d0" x="142" y="62" /><use href="#l0" x="160" y="120" /><use href="#d0" x="142" y="142" /><use href="#l0" x="160" y="200" /><use href="#d0" x="142" y="222" /><use href="#l0" x="160" y="280" /><g transform="translate(142,302)"><use href="#p0" /><polygon points="0,0 0,36 36,36 36,0" fill="#BFD7EA"><animate attributeType="XML" attributeName="fill" values="#BFD7EA;#B9D6F2;#BFD7EA;#BFD7EA" dur="0.1s" repeatCount="indefinite"/></polygon></g><use href="#l0" x="200" y="40" /><use href="#d0" x="182" y="62" /><use href="#l0" x="200" y="120" /><use href="#d0" x="182" y="142" /><use href="#l0" x="200" y="200" /><use href="#d0" x="182" y="222" /><g transform="translate(200,280)"><use href="#b0" /><circle r="18" fill="#006DAA"><animate attributeType="XML" attributeName="fill" values="#006DAA;#003559;#006DAA;#006DAA" dur="0.4s" repeatCount="indefinite"/></circle></g><use href="#d0" x="182" y="302" /><use href="#d0" x="222" y="22" /><g transform="translate(222,62)"><use href="#p0" /><polygon points="0,0 0,36 36,36 36,0" fill="#BFD7EA"><animate attributeType="XML" attributeName="fill" values="#BFD7EA;#B9D6F2;#BFD7EA;#BFD7EA" dur="0.5s" repeatCount="indefinite"/></polygon></g><use href="#l0" x="240" y="120" /><use href="#d0" x="222" y="142" /><use href="#l0" x="240" y="200" /><use href="#d0" x="222" y="222" /><use href="#l0" x="240" y="280" /><g transform="translate(222,302)"><use href="#p0" /><polygon points="0,0 0,36 36,36 36,0" fill="#BFD7EA"><animate attributeType="XML" attributeName="fill" values="#BFD7EA;#B9D6F2;#BFD7EA;#BFD7EA" dur="0.5s" repeatCount="indefinite"/></polygon></g><g transform="translate(280,40)"><use href="#b0" /><circle r="18" fill="#006DAA"><animate attributeType="XML" attributeName="fill" values="#006DAA;#003559;#006DAA;#006DAA" dur="0.0s" repeatCount="indefinite"/></circle></g><use href="#l0" x="280" y="80" /><use href="#l0" x="280" y="120" /><use href="#d0" x="262" y="142" /><use href="#l0" x="280" y="200" /><use href="#d0" x="262" y="222" /><use href="#d0" x="262" y="262" /><use href="#l0" x="280" y="320" /><use href="#d0" x="302" y="22" /><use href="#d0" x="302" y="62" /><g transform="translate(320,120)"><use href="#b0" /><circle r="18" fill="#006DAA"><animate attributeType="XML" attributeName="fill" values="#006DAA;#003559;#006DAA;#006DAA" dur="0.4s" repeatCount="indefinite"/></circle></g><use href="#d0" x="302" y="142" /><use href="#l0" x="320" y="200" /><use href="#l0" x="320" y="240" /><use href="#d0" x="302" y="262" /><g transform="translate(302,302)"><use href="#p0" /><polygon points="0,0 0,36 36,36 36,0" fill="#BFD7EA"><animate attributeType="XML" attributeName="fill" values="#BFD7EA;#B9D6F2;#BFD7EA;#BFD7EA" dur="0.9s" repeatCount="indefinite"/></polygon></g></svg>