<svg width="360" height="360" xmlns="http://www.w3.org/2000/svg"><defs><animate id="aa" begin="0s"/><rect id="d0" width="36" height="36" fill="#6f6269"></rect><circle id="l0" r="18" fill="#000000"></circle></defs><rect width="100%" height="100%" fill="#0c226e" /><use href="#d0" x="22" y="22" /><g transform="translate(22,62)"><use href="#p0" /><polygon points="0,0 0,36 36,36 36,0" fill="#7c9ace"><animate attributeType="XML" attributeName="fill" values="#7c9ace;#6f6269;#7c9ace;#7c9ace" dur="0.0s" repeatCount="indefinite"/></polygon></g><use href="#d0" x="22" y="102" /><use href="#l0" x="40" y="160" /><use href="#d0" x="22" y="182" /><g transform="translate(40,240)"><use href="#b0" /><circle r="18" fill="#ccc0c4"><animate attributeType="XML" attributeName="fill" values="#ccc0c4;#000000;#ccc0c4;#ccc0c4" dur="0.0s" repeatCount="indefinite"/></circle></g><use href="#d0" x="22" y="262" /><use href="#l0" x="40" y="320" /><use href="#d0" x="62" y="22" /><use href="#d0" x="62" y="62" /><use href="#d0" x="62" y="102" /><use href="#l0" x="80" y="160" /><g transform="translate(62,182)"><use href="#p0" /><polygon points="0,0 0,36 36,36 36,0" fill="#7c9ace"><animate attributeType="XML" attributeName="fill" values="#7c9ace;#6f6269;#7c9ace;#7c9ace" dur="0.4s" repeatCount="indefinite"/></polygon></g><use href="#d0" x="62" y="222" /><use href="#l0" x="80" y="280" /><use href="#d0" x="62" y="302" /><use href="#l0" x="120" y="40" /><g transform="translate(102,62)"><use href="#p0" /><polygon points="0,0 0,36 36,36 36,0" fill="#7c9ace"><animate attributeType="XML" attributeName="fill" values="#7c9ace;#6f6269;#7c9ace;#7c9ace" dur="0.2s" repeatCount="indefinite"/></polygon></g><g transform="translate(120,120)"><use href="#b0" /><circle r="18" fill="#ccc0c4"><animate attributeType="XML" attributeName="fill" values="#ccc0c4;#000000;#ccc0c4;#ccc0c4" dur="0.4s" repeatCount="indefinite"/></circle></g><g transform="translate(102,142)"><use href="#p0" /><polygon points="0,0 0,36 36,36 36,0" fill="#7c9ace"><animate attributeType="XML" attributeName="fill" values="#7c9ace;#6f6269;#7c9ace;#7c9ace" dur="0.6s" repeatCount="indefinite"/></polygon></g><g transform="translate(120,200)"><use href="#b0" /><circle r="18" fill="#ccc0c4"><animate attributeType="XML" attributeName="fill" values="#ccc0c4;#000000;#ccc0c4;#ccc0c4" dur="0.8s" repeatCount="indefinite"/></circle></g><g transform="translate(120,240)"><use href="#b0" /><circle r="18" fill="#ccc0c4"><animate attributeType="XML" attributeName="fill" values="#ccc0c4;#000000;#ccc0c4;#ccc0c4" dur="0.0s" repeatCount="indefinite"/></circle></g><g transform="translate(120,280)"><use href="#b0" /><circle r="18" fill="#ccc0c4"><animate attributeType="XML" attributeName="fill" values="#ccc0c4;#000000;#ccc0c4;#ccc0c4" dur="0.2s" repeatCount="indefinite"/></circle></g><use href="#l0" x="120" y="320" /><g transform="translate(160,40)"><use href="#b0" /><circle r="18" fill="#ccc0c4"><animate attributeType="XML" attributeName="fill" values="#ccc0c4;#000000;#ccc0c4;#ccc0c4" dur="0.0s" repeatCount="indefinite"/></circle></g><use href="#d0" x="142" y="62" /><use href="#d0" x="142" y="102" /><g transform="translate(142,142)"><use href="#p0" /><polygon points="0,0 0,36 36,36 36,0" fill="#7c9ace"><animate attributeType="XML" attributeName="fill" values="#7c9ace;#6f6269;#7c9ace;#7c9ace" dur="0.9s" repeatCount="indefinite"/></polygon></g><g transform="translate(142,182)"><use href="#p0" /><polygon points="0,0 0,36 36,36 36,0" fill="#7c9ace"><animate attributeType="XML" attributeName="fill" values="#7c9ace;#6f6269;#7c9ace;#7c9ace" dur="0.2s" repeatCount="indefinite"/></polygon></g><use href="#d0" x="142" y="222" /><use href="#d0" x="142" y="262" /><use href="#d0" x="142" y="302" /><use href="#l0" x="200" y="40" /><use href="#d0" x="182" y="62" /><use href="#d0" x="182" y="102" /><use href="#d0" x="182" y="142" /><g transform="translate(182,182)"><use href="#p0" /><polygon points="0,0 0,36 36,36 36,0" fill="#7c9ace"><animate attributeType="XML" attributeName="fill" values="#7c9ace;#6f6269;#7c9ace;#7c9ace" dur="0.6s" repeatCount="indefinite"/></polygon></g><use href="#l0" x="200" y="240" /><use href="#l0" x="200" y="280" /><use href="#d0" x="182" y="302" /><use href="#l0" x="240" y="40" /><use href="#d0" x="222" y="62" /><g transform="translate(222,102)"><use href="#p0" /><polygon points="0,0 0,36 36,36 36,0" fill="#7c9ace"><animate attributeType="XML" attributeName="fill" values="#7c9ace;#6f6269;#7c9ace;#7c9ace" dur="0.0s" repeatCount="indefinite"/></polygon></g><use href="#d0" x="222" y="142" /><use href="#d0" x="222" y="182" /><use href="#d0" x="222" y="222" /><use href="#l0" x="240" y="280" /><use href="#d0" x="222" y="302" /><use href="#l0" x="280" y="40" /><g transform="translate(280,80)"><use href="#b0" /><circle r="18" fill="#ccc0c4"><animate attributeType="XML" attributeName="fill" values="#ccc0c4;#000000;#ccc0c4;#ccc0c4" dur="0.6s" repeatCount="indefinite"/></circle></g><g transform="translate(280,120)"><use href="#b0" /><circle r="18" fill="#ccc0c4"><animate attributeType="XML" attributeName="fill" values="#ccc0c4;#000000;#ccc0c4;#ccc0c4" dur="0.2s" repeatCount="indefinite"/></circle></g><g transform="translate(280,160)"><use href="#b0" /><circle r="18" fill="#ccc0c4"><animate attributeType="XML" attributeName="fill" values="#ccc0c4;#000000;#ccc0c4;#ccc0c4" dur="0.8s" repeatCount="indefinite"/></circle></g><use href="#l0" x="280" y="200" /><use href="#d0" x="262" y="222" /><use href="#l0" x="280" y="280" /><use href="#d0" x="262" y="302" /><use href="#d0" x="302" y="22" /><use href="#l0" x="320" y="80" /><use href="#d0" x="302" y="102" /><g transform="translate(302,142)"><use href="#p0" /><polygon points="0,0 0,36 36,36 36,0" fill="#7c9ace"><animate attributeType="XML" attributeName="fill" values="#7c9ace;#6f6269;#7c9ace;#7c9ace" dur="0.1s" repeatCount="indefinite"/></polygon></g><use href="#d0" x="302" y="182" /><use href="#l0" x="320" y="240" /><use href="#d0" x="302" y="262" /><use href="#l0" x="320" y="320" /></svg>