<svg width="360" height="360" xmlns="http://www.w3.org/2000/svg"><defs><animate id="aa" begin="0s"/><circle id="l0" r="18" fill="#E3B23C"></circle><circle id="d0" r="18" fill="#423E37"></circle></defs><rect width="100%" height="100%" fill="#EDEBD7" /><g transform="translate(40,40)"><use href="#p0" /><circle r="18" fill="#7D5BA6"><animate attributeType="XML" attributeName="fill" values="#7D5BA6;#423E37;#7D5BA6;#7D5BA6" dur="2.0s" repeatCount="indefinite"/></circle></g><use href="#d0" x="40" y="80" /><use href="#d0" x="40" y="120" /><g transform="translate(40,160)"><use href="#p0" /><circle r="18" fill="#7D5BA6"><animate attributeType="XML" attributeName="fill" values="#7D5BA6;#423E37;#7D5BA6;#7D5BA6" dur="2.0s" repeatCount="indefinite"/></circle></g><g transform="translate(40,200)"><use href="#p0" /><circle r="18" fill="#7D5BA6"><animate attributeType="XML" attributeName="fill" values="#7D5BA6;#423E37;#7D5BA6;#7D5BA6" dur="2.0s" repeatCount="indefinite"/></circle></g><g transform="translate(40,240)"><use href="#b0" /><circle r="18" fill="#17BEBB"><animate attributeType="XML" attributeName="fill" values="#17BEBB;#E3B23C;#17BEBB;#17BEBB" dur="2.0s" repeatCount="indefinite"/></circle></g><use href="#d0" x="40" y="280" /><use href="#d0" x="40" y="320" /><use href="#l0" x="80" y="40" /><use href="#l0" x="80" y="80" /><g transform="translate(80,120)"><use href="#p0" /><circle r="18" fill="#7D5BA6"><animate attributeType="XML" attributeName="fill" values="#7D5BA6;#423E37;#7D5BA6;#7D5BA6" dur="2.2s" repeatCount="indefinite"/></circle></g><use href="#d0" x="80" y="160" /><use href="#l0" x="80" y="200" /><use href="#l0" x="80" y="240" /><g transform="translate(80,280)"><use href="#b0" /><circle r="18" fill="#17BEBB"><animate attributeType="XML" attributeName="fill" values="#17BEBB;#E3B23C;#17BEBB;#17BEBB" dur="2.6s" repeatCount="indefinite"/></circle></g><use href="#l0" x="80" y="320" /><use href="#d0" x="120" y="40" /><use href="#d0" x="120" y="80" /><use href="#d0" x="120" y="120" /><use href="#d0" x="120" y="160" /><use href="#d0" x="120" y="200" /><use href="#d0" x="120" y="240" /><use href="#d0" x="120" y="280" /><use href="#d0" x="120" y="320" /><use href="#l0" x="160" y="40" /><use href="#l0" x="160" y="80" /><use href="#l0" x="160" y="120" /><use href="#l0" x="160" y="160" /><use href="#l0" x="160" y="200" /><use href="#l0" x="160" y="240" /><use href="#l0" x="160" y="280" /><use href="#l0" x="160" y="320" /><use href="#d0" x="200" y="40" /><use href="#d0" x="200" y="80" /><use href="#l0" x="200" y="120" /><use href="#d0" x="200" y="160" /><use href="#d0" x="200" y="200" /><use href="#d0" x="200" y="240" /><use href="#d0" x="200" y="280" /><use href="#d0" x="200" y="320" /><use href="#d0" x="240" y="40" /><use href="#d0" x="240" y="80" /><use href="#d0" x="240" y="120" /><use href="#d0" x="240" y="160" /><use href="#d0" x="240" y="200" /><use href="#l0" x="240" y="240" /><use href="#l0" x="240" y="280" /><use href="#l0" x="240" y="320" /><g transform="translate(280,40)"><use href="#p0" /><circle r="18" fill="#7D5BA6"><animate attributeType="XML" attributeName="fill" values="#7D5BA6;#423E37;#7D5BA6;#7D5BA6" dur="2.0s" repeatCount="indefinite"/></circle></g><use href="#d0" x="280" y="80" /><use href="#d0" x="280" y="120" /><use href="#d0" x="280" y="160" /><use href="#l0" x="280" y="200" /><use href="#d0" x="280" y="240" /><use href="#d0" x="280" y="280" /><use href="#d0" x="280" y="320" /><use href="#l0" x="320" y="40" /><g transform="translate(320,80)"><use href="#p0" /><circle r="18" fill="#7D5BA6"><animate attributeType="XML" attributeName="fill" values="#7D5BA6;#423E37;#7D5BA6;#7D5BA6" dur="2.7s" repeatCount="indefinite"/></circle></g><use href="#d0" x="320" y="120" /><g transform="translate(320,160)"><use href="#p0" /><circle r="18" fill="#7D5BA6"><animate attributeType="XML" attributeName="fill" values="#7D5BA6;#423E37;#7D5BA6;#7D5BA6" dur="2.1s" repeatCount="indefinite"/></circle></g><g transform="translate(320,200)"><use href="#b0" /><circle r="18" fill="#17BEBB"><animate attributeType="XML" attributeName="fill" values="#17BEBB;#E3B23C;#17BEBB;#17BEBB" dur="2.8s" repeatCount="indefinite"/></circle></g><use href="#l0" x="320" y="240" /><g transform="translate(320,280)"><use href="#b0" /><circle r="18" fill="#17BEBB"><animate attributeType="XML" attributeName="fill" values="#17BEBB;#E3B23C;#17BEBB;#17BEBB" dur="2.2s" repeatCount="indefinite"/></circle></g><use href="#l0" x="320" y="320" /></svg>