<svg width="360" height="360" xmlns="http://www.w3.org/2000/svg"><defs><animate id="aa" begin="0s"/><rect id="d0" width="36" height="36" fill="#201335"></rect><circle id="l0" r="18" fill="#f78154"></circle></defs><rect width="100%" height="100%" fill="#201335" /><use href="#l0" x="40" y="40" /><use href="#d0" x="22" y="62" /><use href="#l0" x="40" y="120" /><use href="#d0" x="22" y="142" /><use href="#d0" x="22" y="182" /><use href="#d0" x="22" y="222" /><use href="#d0" x="22" y="262" /><use href="#l0" x="40" y="320" /><use href="#d0" x="62" y="22" /><use href="#l0" x="80" y="80" /><use href="#d0" x="62" y="102" /><g transform="translate(62,142)"><use href="#p0" /><polygon points="0,0 0,36 36,36 36,0" fill="#b4436c"><animate attributeType="XML" attributeName="fill" values="#b4436c;#201335;#b4436c;#b4436c" dur="0.3s" repeatCount="indefinite"/></polygon></g><use href="#d0" x="62" y="182" /><use href="#d0" x="62" y="222" /><g transform="translate(80,280)"><use href="#b0" /><circle r="18" fill="#4d9078"><animate attributeType="XML" attributeName="fill" values="#4d9078;#f78154;#4d9078;#4d9078" dur="0.6s" repeatCount="indefinite"/></circle></g><use href="#d0" x="62" y="302" /><g transform="translate(120,40)"><use href="#b0" /><circle r="18" fill="#4d9078"><animate attributeType="XML" attributeName="fill" values="#4d9078;#f78154;#4d9078;#4d9078" dur="0.0s" repeatCount="indefinite"/></circle></g><use href="#l0" x="120" y="80" /><use href="#d0" x="102" y="102" /><use href="#d0" x="102" y="142" /><use href="#d0" x="102" y="182" /><g transform="translate(120,240)"><use href="#b0" /><circle r="18" fill="#4d9078"><animate attributeType="XML" attributeName="fill" values="#4d9078;#f78154;#4d9078;#4d9078" dur="0.0s" repeatCount="indefinite"/></circle></g><g transform="translate(102,262)"><use href="#p0" /><polygon points="0,0 0,36 36,36 36,0" fill="#b4436c"><animate attributeType="XML" attributeName="fill" values="#b4436c;#201335;#b4436c;#b4436c" dur="0.2s" repeatCount="indefinite"/></polygon></g><use href="#l0" x="120" y="320" /><g transform="translate(160,40)"><use href="#b0" /><circle r="18" fill="#4d9078"><animate attributeType="XML" attributeName="fill" values="#4d9078;#f78154;#4d9078;#4d9078" dur="0.0s" repeatCount="indefinite"/></circle></g><g transform="translate(160,80)"><use href="#b0" /><circle r="18" fill="#4d9078"><animate attributeType="XML" attributeName="fill" values="#4d9078;#f78154;#4d9078;#4d9078" dur="0.3s" repeatCount="indefinite"/></circle></g><use href="#d0" x="142" y="102" /><use href="#d0" x="142" y="142" /><use href="#d0" x="142" y="182" /><use href="#l0" x="160" y="240" /><use href="#d0" x="142" y="262" /><use href="#d0" x="142" y="302" /><g transform="translate(200,40)"><use href="#b0" /><circle r="18" fill="#4d9078"><animate attributeType="XML" attributeName="fill" values="#4d9078;#f78154;#4d9078;#4d9078" dur="0.0s" repeatCount="indefinite"/></circle></g><use href="#d0" x="182" y="62" /><use href="#d0" x="182" y="102" /><use href="#d0" x="182" y="142" /><use href="#d0" x="182" y="182" /><use href="#d0" x="182" y="222" /><g transform="translate(182,262)"><use href="#p0" /><polygon points="0,0 0,36 36,36 36,0" fill="#b4436c"><animate attributeType="XML" attributeName="fill" values="#b4436c;#201335;#b4436c;#b4436c" dur="0.4s" repeatCount="indefinite"/></polygon></g><g transform="translate(200,320)"><use href="#b0" /><circle r="18" fill="#4d9078"><animate attributeType="XML" attributeName="fill" values="#4d9078;#f78154;#4d9078;#4d9078" dur="0.8s" repeatCount="indefinite"/></circle></g><use href="#l0" x="240" y="40" /><use href="#d0" x="222" y="62" /><use href="#d0" x="222" y="102" /><use href="#d0" x="222" y="142" /><use href="#d0" x="222" y="182" /><use href="#d0" x="222" y="222" /><use href="#d0" x="222" y="262" /><use href="#d0" x="222" y="302" /><g transform="translate(280,40)"><use href="#b0" /><circle r="18" fill="#4d9078"><animate attributeType="XML" attributeName="fill" values="#4d9078;#f78154;#4d9078;#4d9078" dur="0.0s" repeatCount="indefinite"/></circle></g><g transform="translate(280,80)"><use href="#b0" /><circle r="18" fill="#4d9078"><animate attributeType="XML" attributeName="fill" values="#4d9078;#f78154;#4d9078;#4d9078" dur="0.6s" repeatCount="indefinite"/></circle></g><use href="#d0" x="262" y="102" /><use href="#d0" x="262" y="142" /><use href="#d0" x="262" y="182" /><use href="#d0" x="262" y="222" /><use href="#d0" x="262" y="262" /><use href="#l0" x="280" y="320" /><g transform="translate(302,22)"><use href="#p0" /><polygon points="0,0 0,36 36,36 36,0" fill="#b4436c"><animate attributeType="XML" attributeName="fill" values="#b4436c;#201335;#b4436c;#b4436c" dur="0.0s" repeatCount="indefinite"/></polygon></g><use href="#d0" x="302" y="62" /><use href="#d0" x="302" y="102" /><use href="#d0" x="302" y="142" /><use href="#d0" x="302" y="182" /><use href="#d0" x="302" y="222" /><use href="#d0" x="302" y="262" /><use href="#d0" x="302" y="302" /></svg>