<svg width="360" height="360" xmlns="http://www.w3.org/2000/svg"><defs><animate id="aa" begin="0s"/><rect id="l0" width="36" height="36" fill="#FDFFB6"></rect><rect id="d0" width="36" height="36" fill="#FFC6FF"></rect></defs><rect width="100%" height="100%" fill="#CAFFBF" /><use href="#d0" x="22" y="22" /><use href="#d0" x="22" y="62" /><use href="#l0" x="22" y="102" /><use href="#d0" x="22" y="142" /><use href="#l0" x="22" y="182" /><use href="#d0" x="22" y="222" /><use href="#l0" x="22" y="262" /><use href="#d0" x="22" y="302" /><use href="#l0" x="62" y="22" /><use href="#d0" x="62" y="62" /><use href="#l0" x="62" y="102" /><use href="#d0" x="62" y="142" /><use href="#l0" x="62" y="182" /><use href="#d0" x="62" y="222" /><g transform="translate(62,262)"><use href="#b0" /><polygon points="0,0 0,36 36,36 36,0" fill="#CAFFBF"><animate attributeType="XML" attributeName="fill" values="#CAFFBF;#FDFFB6;#CAFFBF;#CAFFBF" dur="0.6s" repeatCount="indefinite"/></polygon></g><g transform="translate(62,302)"><use href="#p0" /><polygon points="0,0 0,36 36,36 36,0" fill="#A0C4FF"><animate attributeType="XML" attributeName="fill" values="#A0C4FF;#FFC6FF;#A0C4FF;#A0C4FF" dur="0.7s" repeatCount="indefinite"/></polygon></g><use href="#d0" x="102" y="22" /><use href="#l0" x="102" y="62" /><use href="#l0" x="102" y="102" /><use href="#d0" x="102" y="142" /><use href="#l0" x="102" y="182" /><use href="#d0" x="102" y="222" /><use href="#l0" x="102" y="262" /><g transform="translate(102,302)"><use href="#b0" /><polygon points="0,0 0,36 36,36 36,0" fill="#CAFFBF"><animate attributeType="XML" attributeName="fill" values="#CAFFBF;#FDFFB6;#CAFFBF;#CAFFBF" dur="0.4s" repeatCount="indefinite"/></polygon></g><g transform="translate(142,22)"><use href="#b0" /><polygon points="0,0 0,36 36,36 36,0" fill="#CAFFBF"><animate attributeType="XML" attributeName="fill" values="#CAFFBF;#FDFFB6;#CAFFBF;#CAFFBF" dur="0.0s" repeatCount="indefinite"/></polygon></g><use href="#d0" x="142" y="62" /><use href="#d0" x="142" y="102" /><use href="#l0" x="142" y="142" /><use href="#d0" x="142" y="182" /><use href="#l0" x="142" y="222" /><use href="#d0" x="142" y="262" /><g transform="translate(142,302)"><use href="#b0" /><polygon points="0,0 0,36 36,36 36,0" fill="#CAFFBF"><animate attributeType="XML" attributeName="fill" values="#CAFFBF;#FDFFB6;#CAFFBF;#CAFFBF" dur="0.1s" repeatCount="indefinite"/></polygon></g><use href="#d0" x="182" y="22" /><use href="#l0" x="182" y="62" /><use href="#d0" x="182" y="102" /><use href="#l0" x="182" y="142" /><use href="#d0" x="182" y="182" /><use href="#l0" x="182" y="222" /><use href="#d0" x="182" y="262" /><use href="#d0" x="182" y="302" /><g transform="translate(222,22)"><use href="#p0" /><polygon points="0,0 0,36 36,36 36,0" fill="#A0C4FF"><animate attributeType="XML" attributeName="fill" values="#A0C4FF;#FFC6FF;#A0C4FF;#A0C4FF" dur="0.0s" repeatCount="indefinite"/></polygon></g><g transform="translate(222,62)"><use href="#p0" /><polygon points="0,0 0,36 36,36 36,0" fill="#A0C4FF"><animate attributeType="XML" attributeName="fill" values="#A0C4FF;#FFC6FF;#A0C4FF;#A0C4FF" dur="0.5s" repeatCount="indefinite"/></polygon></g><use href="#d0" x="222" y="102" /><use href="#l0" x="222" y="142" /><use href="#d0" x="222" y="182" /><use href="#l0" x="222" y="222" /><use href="#d0" x="222" y="262" /><g transform="translate(222,302)"><use href="#p0" /><polygon points="0,0 0,36 36,36 36,0" fill="#A0C4FF"><animate attributeType="XML" attributeName="fill" values="#A0C4FF;#FFC6FF;#A0C4FF;#A0C4FF" dur="0.5s" repeatCount="indefinite"/></polygon></g><use href="#d0" x="262" y="22" /><use href="#d0" x="262" y="62" /><use href="#d0" x="262" y="102" /><use href="#l0" x="262" y="142" /><use href="#d0" x="262" y="182" /><use href="#l0" x="262" y="222" /><use href="#d0" x="262" y="262" /><use href="#l0" x="262" y="302" /><use href="#l0" x="302" y="22" /><use href="#l0" x="302" y="62" /><use href="#d0" x="302" y="102" /><use href="#l0" x="302" y="142" /><use href="#d0" x="302" y="182" /><use href="#l0" x="302" y="222" /><use href="#d0" x="302" y="262" /><use href="#l0" x="302" y="302" /></svg>