<svg width="360" height="360" xmlns="http://www.w3.org/2000/svg"><defs><animate id="aa" begin="0s"/><rect id="l0" width="36" height="36" fill="#ffd6a5"></rect><rect id="d0" width="36" height="36" fill="#fdffb6"></rect></defs><rect width="100%" height="100%" fill="#ffadad" /><use href="#d0" x="22" y="22" /><use href="#d0" x="22" y="62" /><use href="#l0" x="22" y="102" /><g transform="translate(22,142)"><use href="#p0" /><polygon points="36,0 36,36 0,0" fill="#bdb2ff"><animate attributeType="XML" attributeName="fill" values="#bdb2ff;#fdffb6;#bdb2ff;#bdb2ff" dur="2.0s" repeatCount="indefinite"/></polygon></g><use href="#d0" x="22" y="182" /><use href="#d0" x="22" y="222" /><use href="#d0" x="22" y="262" /><use href="#l0" x="22" y="302" /><g transform="translate(62,22)"><use href="#b0" /><polygon points="36,0 36,36 0,0" fill="#9bf6ff"><animate attributeType="XML" attributeName="fill" values="#9bf6ff;#ffd6a5;#9bf6ff;#9bf6ff" dur="2.0s" repeatCount="indefinite"/></polygon></g><use href="#d0" x="62" y="62" /><use href="#d0" x="62" y="102" /><use href="#d0" x="62" y="142" /><g transform="translate(62,182)"><use href="#b0" /><polygon points="36,0 36,36 0,0" fill="#9bf6ff"><animate attributeType="XML" attributeName="fill" values="#9bf6ff;#ffd6a5;#9bf6ff;#9bf6ff" dur="2.4s" repeatCount="indefinite"/></polygon></g><use href="#l0" x="62" y="222" /><use href="#d0" x="62" y="262" /><use href="#l0" x="62" y="302" /><use href="#d0" x="102" y="22" /><use href="#d0" x="102" y="62" /><use href="#d0" x="102" y="102" /><g transform="translate(102,142)"><use href="#b0" /><polygon points="36,0 36,36 0,0" fill="#9bf6ff"><animate attributeType="XML" attributeName="fill" values="#9bf6ff;#ffd6a5;#9bf6ff;#9bf6ff" dur="2.6s" repeatCount="indefinite"/></polygon></g><g transform="translate(102,182)"><use href="#p0" /><polygon points="36,0 36,36 0,0" fill="#bdb2ff"><animate attributeType="XML" attributeName="fill" values="#bdb2ff;#fdffb6;#bdb2ff;#bdb2ff" dur="2.8s" repeatCount="indefinite"/></polygon></g><use href="#l0" x="102" y="222" /><use href="#d0" x="102" y="262" /><use href="#l0" x="102" y="302" /><use href="#d0" x="142" y="22" /><use href="#d0" x="142" y="62" /><g transform="translate(142,102)"><use href="#b0" /><polygon points="36,0 36,36 0,0" fill="#9bf6ff"><animate attributeType="XML" attributeName="fill" values="#9bf6ff;#ffd6a5;#9bf6ff;#9bf6ff" dur="2.6s" repeatCount="indefinite"/></polygon></g><use href="#d0" x="142" y="142" /><g transform="translate(142,182)"><use href="#p0" /><polygon points="36,0 36,36 0,0" fill="#bdb2ff"><animate attributeType="XML" attributeName="fill" values="#bdb2ff;#fdffb6;#bdb2ff;#bdb2ff" dur="2.2s" repeatCount="indefinite"/></polygon></g><use href="#d0" x="142" y="222" /><use href="#d0" x="142" y="262" /><use href="#l0" x="142" y="302" /><use href="#d0" x="182" y="22" /><g transform="translate(182,62)"><use href="#p0" /><polygon points="36,0 36,36 0,0" fill="#bdb2ff"><animate attributeType="XML" attributeName="fill" values="#bdb2ff;#fdffb6;#bdb2ff;#bdb2ff" dur="2.4s" repeatCount="indefinite"/></polygon></g><g transform="translate(182,102)"><use href="#b0" /><polygon points="36,0 36,36 0,0" fill="#9bf6ff"><animate attributeType="XML" attributeName="fill" values="#9bf6ff;#ffd6a5;#9bf6ff;#9bf6ff" dur="2.8s" repeatCount="indefinite"/></polygon></g><use href="#l0" x="182" y="142" /><use href="#d0" x="182" y="182" /><g transform="translate(182,222)"><use href="#p0" /><polygon points="36,0 36,36 0,0" fill="#bdb2ff"><animate attributeType="XML" attributeName="fill" values="#bdb2ff;#fdffb6;#bdb2ff;#bdb2ff" dur="2.0s" repeatCount="indefinite"/></polygon></g><use href="#d0" x="182" y="262" /><use href="#l0" x="182" y="302" /><use href="#d0" x="222" y="22" /><g transform="translate(222,62)"><use href="#b0" /><polygon points="36,0 36,36 0,0" fill="#9bf6ff"><animate attributeType="XML" attributeName="fill" values="#9bf6ff;#ffd6a5;#9bf6ff;#9bf6ff" dur="2.5s" repeatCount="indefinite"/></polygon></g><use href="#d0" x="222" y="102" /><g transform="translate(222,142)"><use href="#p0" /><polygon points="36,0 36,36 0,0" fill="#bdb2ff"><animate attributeType="XML" attributeName="fill" values="#bdb2ff;#fdffb6;#bdb2ff;#bdb2ff" dur="2.5s" repeatCount="indefinite"/></polygon></g><use href="#d0" x="222" y="182" /><g transform="translate(222,222)"><use href="#p0" /><polygon points="36,0 36,36 0,0" fill="#bdb2ff"><animate attributeType="XML" attributeName="fill" values="#bdb2ff;#fdffb6;#bdb2ff;#bdb2ff" dur="2.5s" repeatCount="indefinite"/></polygon></g><use href="#d0" x="222" y="262" /><use href="#l0" x="222" y="302" /><g transform="translate(262,22)"><use href="#p0" /><polygon points="36,0 36,36 0,0" fill="#bdb2ff"><animate attributeType="XML" attributeName="fill" values="#bdb2ff;#fdffb6;#bdb2ff;#bdb2ff" dur="2.0s" repeatCount="indefinite"/></polygon></g><g transform="translate(262,62)"><use href="#b0" /><polygon points="36,0 36,36 0,0" fill="#9bf6ff"><animate attributeType="XML" attributeName="fill" values="#9bf6ff;#ffd6a5;#9bf6ff;#9bf6ff" dur="2.6s" repeatCount="indefinite"/></polygon></g><g transform="translate(262,102)"><use href="#p0" /><polygon points="36,0 36,36 0,0" fill="#bdb2ff"><animate attributeType="XML" attributeName="fill" values="#bdb2ff;#fdffb6;#bdb2ff;#bdb2ff" dur="2.2s" repeatCount="indefinite"/></polygon></g><g transform="translate(262,142)"><use href="#p0" /><polygon points="36,0 36,36 0,0" fill="#bdb2ff"><animate attributeType="XML" attributeName="fill" values="#bdb2ff;#fdffb6;#bdb2ff;#bdb2ff" dur="2.8s" repeatCount="indefinite"/></polygon></g><use href="#d0" x="262" y="182" /><g transform="translate(262,222)"><use href="#p0" /><polygon points="36,0 36,36 0,0" fill="#bdb2ff"><animate attributeType="XML" attributeName="fill" values="#bdb2ff;#fdffb6;#bdb2ff;#bdb2ff" dur="2.0s" repeatCount="indefinite"/></polygon></g><g transform="translate(262,262)"><use href="#b0" /><polygon points="36,0 36,36 0,0" fill="#9bf6ff"><animate attributeType="XML" attributeName="fill" values="#9bf6ff;#ffd6a5;#9bf6ff;#9bf6ff" dur="2.6s" repeatCount="indefinite"/></polygon></g><use href="#l0" x="262" y="302" /><use href="#d0" x="302" y="22" /><use href="#l0" x="302" y="62" /><g transform="translate(302,102)"><use href="#b0" /><polygon points="36,0 36,36 0,0" fill="#9bf6ff"><animate attributeType="XML" attributeName="fill" values="#9bf6ff;#ffd6a5;#9bf6ff;#9bf6ff" dur="2.4s" repeatCount="indefinite"/></polygon></g><use href="#d0" x="302" y="142" /><use href="#d0" x="302" y="182" /><use href="#d0" x="302" y="222" /><use href="#d0" x="302" y="262" /><use href="#l0" x="302" y="302" /></svg>