<svg width="360" height="360" xmlns="http://www.w3.org/2000/svg"><defs><animate id="aa" begin="0s"/><rect id="l0" width="36" height="36" fill="#fad643"></rect><rect id="d0" width="36" height="36" fill="#ffe169"></rect></defs><rect width="100%" height="100%" fill="#76520e" /><use href="#d0" x="22" y="22" /><use href="#d0" x="22" y="62" /><g transform="translate(22,102)"><use href="#p0" /><polygon points="0,0 0,36 36,36 36,0" fill="#dbb42c"><animate attributeType="XML" attributeName="fill" values="#dbb42c;#ffe169;#dbb42c;#dbb42c" dur="1.0s" repeatCount="indefinite"/></polygon></g><g transform="translate(22,142)"><use href="#b0" /><polygon points="0,0 0,36 36,36 36,0" fill="#a47e1b"><animate attributeType="XML" attributeName="fill" values="#a47e1b;#fad643;#a47e1b;#a47e1b" dur="1.0s" repeatCount="indefinite"/></polygon></g><g transform="translate(22,182)"><use href="#b0" /><polygon points="0,0 0,36 36,36 36,0" fill="#a47e1b"><animate attributeType="XML" attributeName="fill" values="#a47e1b;#fad643;#a47e1b;#a47e1b" dur="1.0s" repeatCount="indefinite"/></polygon></g><use href="#l0" x="22" y="222" /><use href="#l0" x="22" y="262" /><use href="#l0" x="22" y="302" /><use href="#d0" x="62" y="22" /><use href="#l0" x="62" y="62" /><use href="#l0" x="62" y="102" /><use href="#d0" x="62" y="142" /><use href="#d0" x="62" y="182" /><use href="#d0" x="62" y="222" /><use href="#d0" x="62" y="262" /><g transform="translate(62,302)"><use href="#p0" /><polygon points="0,0 0,36 36,36 36,0" fill="#dbb42c"><animate attributeType="XML" attributeName="fill" values="#dbb42c;#ffe169;#dbb42c;#dbb42c" dur="1.7s" repeatCount="indefinite"/></polygon></g><use href="#l0" x="102" y="22" /><use href="#d0" x="102" y="62" /><use href="#l0" x="102" y="102" /><use href="#d0" x="102" y="142" /><use href="#l0" x="102" y="182" /><g transform="translate(102,222)"><use href="#p0" /><polygon points="0,0 0,36 36,36 36,0" fill="#dbb42c"><animate attributeType="XML" attributeName="fill" values="#dbb42c;#ffe169;#dbb42c;#dbb42c" dur="1.0s" repeatCount="indefinite"/></polygon></g><g transform="translate(102,262)"><use href="#p0" /><polygon points="0,0 0,36 36,36 36,0" fill="#dbb42c"><animate attributeType="XML" attributeName="fill" values="#dbb42c;#ffe169;#dbb42c;#dbb42c" dur="1.2s" repeatCount="indefinite"/></polygon></g><g transform="translate(102,302)"><use href="#b0" /><polygon points="0,0 0,36 36,36 36,0" fill="#a47e1b"><animate attributeType="XML" attributeName="fill" values="#a47e1b;#fad643;#a47e1b;#a47e1b" dur="1.4s" repeatCount="indefinite"/></polygon></g><use href="#l0" x="142" y="22" /><use href="#d0" x="142" y="62" /><g transform="translate(142,102)"><use href="#b0" /><polygon points="0,0 0,36 36,36 36,0" fill="#a47e1b"><animate attributeType="XML" attributeName="fill" values="#a47e1b;#fad643;#a47e1b;#a47e1b" dur="1.6s" repeatCount="indefinite"/></polygon></g><use href="#d0" x="142" y="142" /><use href="#l0" x="142" y="182" /><use href="#d0" x="142" y="222" /><g transform="translate(142,262)"><use href="#p0" /><polygon points="0,0 0,36 36,36 36,0" fill="#dbb42c"><animate attributeType="XML" attributeName="fill" values="#dbb42c;#ffe169;#dbb42c;#dbb42c" dur="1.8s" repeatCount="indefinite"/></polygon></g><g transform="translate(142,302)"><use href="#b0" /><polygon points="0,0 0,36 36,36 36,0" fill="#a47e1b"><animate attributeType="XML" attributeName="fill" values="#a47e1b;#fad643;#a47e1b;#a47e1b" dur="1.1s" repeatCount="indefinite"/></polygon></g><g transform="translate(182,22)"><use href="#b0" /><polygon points="0,0 0,36 36,36 36,0" fill="#a47e1b"><animate attributeType="XML" attributeName="fill" values="#a47e1b;#fad643;#a47e1b;#a47e1b" dur="1.0s" repeatCount="indefinite"/></polygon></g><g transform="translate(182,62)"><use href="#p0" /><polygon points="0,0 0,36 36,36 36,0" fill="#dbb42c"><animate attributeType="XML" attributeName="fill" values="#dbb42c;#ffe169;#dbb42c;#dbb42c" dur="1.4s" repeatCount="indefinite"/></polygon></g><use href="#l0" x="182" y="102" /><use href="#d0" x="182" y="142" /><use href="#l0" x="182" y="182" /><g transform="translate(182,222)"><use href="#b0" /><polygon points="0,0 0,36 36,36 36,0" fill="#a47e1b"><animate attributeType="XML" attributeName="fill" values="#a47e1b;#fad643;#a47e1b;#a47e1b" dur="1.0s" repeatCount="indefinite"/></polygon></g><use href="#d0" x="182" y="262" /><g transform="translate(182,302)"><use href="#b0" /><polygon points="0,0 0,36 36,36 36,0" fill="#a47e1b"><animate attributeType="XML" attributeName="fill" values="#a47e1b;#fad643;#a47e1b;#a47e1b" dur="1.8s" repeatCount="indefinite"/></polygon></g><use href="#d0" x="222" y="22" /><use href="#d0" x="222" y="62" /><use href="#l0" x="222" y="102" /><use href="#d0" x="222" y="142" /><g transform="translate(222,182)"><use href="#p0" /><polygon points="0,0 0,36 36,36 36,0" fill="#dbb42c"><animate attributeType="XML" attributeName="fill" values="#dbb42c;#ffe169;#dbb42c;#dbb42c" dur="1.0s" repeatCount="indefinite"/></polygon></g><use href="#d0" x="222" y="222" /><g transform="translate(222,262)"><use href="#b0" /><polygon points="0,0 0,36 36,36 36,0" fill="#a47e1b"><animate attributeType="XML" attributeName="fill" values="#a47e1b;#fad643;#a47e1b;#a47e1b" dur="1.0s" repeatCount="indefinite"/></polygon></g><g transform="translate(222,302)"><use href="#b0" /><polygon points="0,0 0,36 36,36 36,0" fill="#a47e1b"><animate attributeType="XML" attributeName="fill" values="#a47e1b;#fad643;#a47e1b;#a47e1b" dur="1.5s" repeatCount="indefinite"/></polygon></g><use href="#d0" x="262" y="22" /><use href="#d0" x="262" y="62" /><use href="#l0" x="262" y="102" /><use href="#d0" x="262" y="142" /><use href="#l0" x="262" y="182" /><use href="#l0" x="262" y="222" /><g transform="translate(262,262)"><use href="#b0" /><polygon points="0,0 0,36 36,36 36,0" fill="#a47e1b"><animate attributeType="XML" attributeName="fill" values="#a47e1b;#fad643;#a47e1b;#a47e1b" dur="1.6s" repeatCount="indefinite"/></polygon></g><g transform="translate(262,302)"><use href="#b0" /><polygon points="0,0 0,36 36,36 36,0" fill="#a47e1b"><animate attributeType="XML" attributeName="fill" values="#a47e1b;#fad643;#a47e1b;#a47e1b" dur="1.2s" repeatCount="indefinite"/></polygon></g><g transform="translate(302,22)"><use href="#b0" /><polygon points="0,0 0,36 36,36 36,0" fill="#a47e1b"><animate attributeType="XML" attributeName="fill" values="#a47e1b;#fad643;#a47e1b;#a47e1b" dur="1.0s" repeatCount="indefinite"/></polygon></g><use href="#l0" x="302" y="62" /><use href="#l0" x="302" y="102" /><use href="#d0" x="302" y="142" /><g transform="translate(302,182)"><use href="#p0" /><polygon points="0,0 0,36 36,36 36,0" fill="#dbb42c"><animate attributeType="XML" attributeName="fill" values="#dbb42c;#ffe169;#dbb42c;#dbb42c" dur="1.8s" repeatCount="indefinite"/></polygon></g><use href="#d0" x="302" y="222" /><use href="#d0" x="302" y="262" /><use href="#d0" x="302" y="302" /></svg>