<svg width="360" height="360" xmlns="http://www.w3.org/2000/svg"><defs><animate id="aa" begin="0s"/><rect id="l0" width="36" height="36" fill="#A23E48"></rect><rect id="d0" width="36" height="36" fill="#FFF275"></rect></defs><rect width="100%" height="100%" fill="#6699CC" /><use href="#d0" x="22" y="22" /><use href="#d0" x="22" y="62" /><use href="#d0" x="22" y="102" /><g transform="translate(22,142)"><use href="#p0" /><polygon points="36,0 36,36 0,0" fill="#6699CC"><animate attributeType="XML" attributeName="fill" values="#6699CC;#FFF275;#6699CC;#6699CC" dur="0.0s" repeatCount="indefinite"/></polygon></g><use href="#l0" x="22" y="182" /><use href="#l0" x="22" y="222" /><use href="#d0" x="22" y="262" /><use href="#d0" x="22" y="302" /><use href="#d0" x="62" y="22" /><use href="#l0" x="62" y="62" /><g transform="translate(62,102)"><use href="#b0" /><polygon points="36,0 36,36 0,0" fill="#FF8C42"><animate attributeType="XML" attributeName="fill" values="#FF8C42;#A23E48;#FF8C42;#FF8C42" dur="0.2s" repeatCount="indefinite"/></polygon></g><g transform="translate(62,142)"><use href="#b0" /><polygon points="36,0 36,36 0,0" fill="#FF8C42"><animate attributeType="XML" attributeName="fill" values="#FF8C42;#A23E48;#FF8C42;#FF8C42" dur="0.3s" repeatCount="indefinite"/></polygon></g><g transform="translate(62,182)"><use href="#b0" /><polygon points="36,0 36,36 0,0" fill="#FF8C42"><animate attributeType="XML" attributeName="fill" values="#FF8C42;#A23E48;#FF8C42;#FF8C42" dur="0.4s" repeatCount="indefinite"/></polygon></g><use href="#d0" x="62" y="222" /><use href="#l0" x="62" y="262" /><use href="#l0" x="62" y="302" /><g transform="translate(102,22)"><use href="#p0" /><polygon points="36,0 36,36 0,0" fill="#6699CC"><animate attributeType="XML" attributeName="fill" values="#6699CC;#FFF275;#6699CC;#6699CC" dur="0.0s" repeatCount="indefinite"/></polygon></g><g transform="translate(102,62)"><use href="#p0" /><polygon points="36,0 36,36 0,0" fill="#6699CC"><animate attributeType="XML" attributeName="fill" values="#6699CC;#FFF275;#6699CC;#6699CC" dur="0.2s" repeatCount="indefinite"/></polygon></g><g transform="translate(102,102)"><use href="#p0" /><polygon points="36,0 36,36 0,0" fill="#6699CC"><animate attributeType="XML" attributeName="fill" values="#6699CC;#FFF275;#6699CC;#6699CC" dur="0.4s" repeatCount="indefinite"/></polygon></g><use href="#d0" x="102" y="142" /><use href="#d0" x="102" y="182" /><use href="#d0" x="102" y="222" /><g transform="translate(102,262)"><use href="#p0" /><polygon points="36,0 36,36 0,0" fill="#6699CC"><animate attributeType="XML" attributeName="fill" values="#6699CC;#FFF275;#6699CC;#6699CC" dur="0.2s" repeatCount="indefinite"/></polygon></g><use href="#d0" x="102" y="302" /><use href="#l0" x="142" y="22" /><use href="#d0" x="142" y="62" /><use href="#d0" x="142" y="102" /><g transform="translate(142,142)"><use href="#p0" /><polygon points="36,0 36,36 0,0" fill="#6699CC"><animate attributeType="XML" attributeName="fill" values="#6699CC;#FFF275;#6699CC;#6699CC" dur="0.9s" repeatCount="indefinite"/></polygon></g><use href="#l0" x="142" y="182" /><use href="#l0" x="142" y="222" /><use href="#d0" x="142" y="262" /><use href="#l0" x="142" y="302" /><use href="#d0" x="182" y="22" /><g transform="translate(182,62)"><use href="#p0" /><polygon points="36,0 36,36 0,0" fill="#6699CC"><animate attributeType="XML" attributeName="fill" values="#6699CC;#FFF275;#6699CC;#6699CC" dur="0.4s" repeatCount="indefinite"/></polygon></g><use href="#d0" x="182" y="102" /><use href="#d0" x="182" y="142" /><use href="#d0" x="182" y="182" /><g transform="translate(182,222)"><use href="#p0" /><polygon points="36,0 36,36 0,0" fill="#6699CC"><animate attributeType="XML" attributeName="fill" values="#6699CC;#FFF275;#6699CC;#6699CC" dur="0.0s" repeatCount="indefinite"/></polygon></g><g transform="translate(182,262)"><use href="#p0" /><polygon points="36,0 36,36 0,0" fill="#6699CC"><animate attributeType="XML" attributeName="fill" values="#6699CC;#FFF275;#6699CC;#6699CC" dur="0.4s" repeatCount="indefinite"/></polygon></g><use href="#l0" x="182" y="302" /><g transform="translate(222,22)"><use href="#b0" /><polygon points="36,0 36,36 0,0" fill="#FF8C42"><animate attributeType="XML" attributeName="fill" values="#FF8C42;#A23E48;#FF8C42;#FF8C42" dur="0.0s" repeatCount="indefinite"/></polygon></g><use href="#d0" x="222" y="62" /><use href="#d0" x="222" y="102" /><use href="#l0" x="222" y="142" /><use href="#d0" x="222" y="182" /><g transform="translate(222,222)"><use href="#p0" /><polygon points="36,0 36,36 0,0" fill="#6699CC"><animate attributeType="XML" attributeName="fill" values="#6699CC;#FFF275;#6699CC;#6699CC" dur="0.5s" repeatCount="indefinite"/></polygon></g><use href="#d0" x="222" y="262" /><use href="#l0" x="222" y="302" /><use href="#l0" x="262" y="22" /><use href="#d0" x="262" y="62" /><use href="#d0" x="262" y="102" /><use href="#l0" x="262" y="142" /><use href="#l0" x="262" y="182" /><use href="#d0" x="262" y="222" /><use href="#d0" x="262" y="262" /><g transform="translate(262,302)"><use href="#b0" /><polygon points="36,0 36,36 0,0" fill="#FF8C42"><animate attributeType="XML" attributeName="fill" values="#FF8C42;#A23E48;#FF8C42;#FF8C42" dur="0.2s" repeatCount="indefinite"/></polygon></g><use href="#d0" x="302" y="22" /><use href="#d0" x="302" y="62" /><use href="#d0" x="302" y="102" /><g transform="translate(302,142)"><use href="#b0" /><polygon points="36,0 36,36 0,0" fill="#FF8C42"><animate attributeType="XML" attributeName="fill" values="#FF8C42;#A23E48;#FF8C42;#FF8C42" dur="0.1s" repeatCount="indefinite"/></polygon></g><use href="#d0" x="302" y="182" /><use href="#l0" x="302" y="222" /><g transform="translate(302,262)"><use href="#b0" /><polygon points="36,0 36,36 0,0" fill="#FF8C42"><animate attributeType="XML" attributeName="fill" values="#FF8C42;#A23E48;#FF8C42;#FF8C42" dur="0.2s" repeatCount="indefinite"/></polygon></g><g transform="translate(302,302)"><use href="#b0" /><polygon points="36,0 36,36 0,0" fill="#FF8C42"><animate attributeType="XML" attributeName="fill" values="#FF8C42;#A23E48;#FF8C42;#FF8C42" dur="0.9s" repeatCount="indefinite"/></polygon></g></svg>