<svg width="360" height="360" xmlns="http://www.w3.org/2000/svg"><defs><animate id="aa" begin="0s"/><rect id="d0" width="36" height="36" fill="#BFCBC2"></rect><circle id="l0" r="18" fill="#C2E812"></circle><rect id="p0" width="36" height="36" fill="#FF934F"></rect><circle id="b0" r="18" fill="#91F5AD"></circle></defs><rect width="100%" height="100%" fill="#FFFFFF" /><use href="#l0" x="40" y="40" /><use href="#l0" x="40" y="80" /><use href="#b0" x="40" y="120" /><use href="#p0" x="22" y="142" /><use href="#p0" x="22" y="182" /><use href="#d0" x="22" y="222" /><use href="#l0" x="40" y="280" /><use href="#d0" x="22" y="302" /><use href="#d0" x="62" y="22" /><use href="#d0" x="62" y="62" /><use href="#b0" x="80" y="120" /><use href="#d0" x="62" y="142" /><use href="#p0" x="62" y="182" /><use href="#d0" x="62" y="222" /><use href="#l0" x="80" y="280" /><use href="#d0" x="62" y="302" /><use href="#l0" x="120" y="40" /><use href="#l0" x="120" y="80" /><use href="#b0" x="120" y="120" /><use href="#d0" x="102" y="142" /><use href="#p0" x="102" y="182" /><use href="#d0" x="102" y="222" /><use href="#l0" x="120" y="280" /><use href="#d0" x="102" y="302" /><use href="#d0" x="142" y="22" /><use href="#p0" x="142" y="62" /><use href="#d0" x="142" y="102" /><use href="#b0" x="160" y="160" /><use href="#l0" x="160" y="200" /><use href="#d0" x="142" y="222" /><use href="#l0" x="160" y="280" /><use href="#d0" x="142" y="302" /><use href="#p0" x="182" y="22" /><use href="#d0" x="182" y="62" /><use href="#d0" x="182" y="102" /><use href="#d0" x="182" y="142" /><use href="#l0" x="200" y="200" /><use href="#d0" x="182" y="222" /><use href="#l0" x="200" y="280" /><use href="#d0" x="182" y="302" /><use href="#p0" x="222" y="22" /><use href="#d0" x="222" y="62" /><use href="#d0" x="222" y="102" /><use href="#l0" x="240" y="160" /><use href="#d0" x="222" y="182" /><use href="#d0" x="222" y="222" /><use href="#l0" x="240" y="280" /><use href="#d0" x="222" y="302" /><use href="#p0" x="262" y="22" /><use href="#d0" x="262" y="62" /><use href="#b0" x="280" y="120" /><use href="#p0" x="262" y="142" /><use href="#p0" x="262" y="182" /><use href="#b0" x="280" y="240" /><use href="#l0" x="280" y="280" /><use href="#d0" x="262" y="302" /><use href="#l0" x="320" y="40" /><use href="#d0" x="302" y="62" /><use href="#l0" x="320" y="120" /><use href="#b0" x="320" y="160" /><use href="#d0" x="302" y="182" /><use href="#d0" x="302" y="222" /><use href="#l0" x="320" y="280" /><use href="#d0" x="302" y="302" /></svg>