<svg width="360" height="360" xmlns="http://www.w3.org/2000/svg"><defs><animate id="aa" begin="0s"/><circle id="l0" r="18" fill="#1E62AB"></circle><circle id="d0" r="18" fill="#423E37"></circle></defs><rect width="100%" height="100%" fill="#34287E" /><use href="#d0" x="40" y="40" /><use href="#d0" x="40" y="80" /><use href="#d0" x="40" y="120" /><use href="#d0" x="40" y="160" /><use href="#d0" x="40" y="200" /><use href="#d0" x="40" y="240" /><use href="#d0" x="40" y="280" /><use href="#d0" x="40" y="320" /><use href="#d0" x="80" y="40" /><use href="#d0" x="80" y="80" /><use href="#d0" x="80" y="120" /><use href="#d0" x="80" y="160" /><use href="#d0" x="80" y="200" /><use href="#d0" x="80" y="240" /><use href="#d0" x="80" y="280" /><use href="#d0" x="80" y="320" /><use href="#l0" x="120" y="40" /><g transform="translate(120,80)"><use href="#b0" /><circle r="18" fill="#92B83C"><animate attributeType="XML" attributeName="fill" values="#92B83C;#1E62AB;#92B83C;#92B83C" dur="1s" begin="aa.begin +1s" repeatCount="indefinite"/></circle></g><g transform="translate(120,120)"><use href="#b0" /><circle r="18" fill="#92B83C"><animate attributeType="XML" attributeName="fill" values="#92B83C;#1E62AB;#92B83C;#92B83C" dur="1s" begin="aa.begin +1.5s" repeatCount="indefinite"/></circle></g><use href="#d0" x="120" y="160" /><use href="#d0" x="120" y="200" /><use href="#d0" x="120" y="240" /><use href="#d0" x="120" y="280" /><use href="#l0" x="120" y="320" /><use href="#d0" x="160" y="40" /><g transform="translate(160,80)"><use href="#p0" /><circle r="18" fill="#C7381D"><animate attributeType="XML" attributeName="fill" values="#C7381D;#423E37;#C7381D;#C7381D" dur="1s" begin="aa.begin +2s" repeatCount="indefinite"/></circle></g><g transform="translate(160,120)"><use href="#p0" /><circle r="18" fill="#C7381D"><animate attributeType="XML" attributeName="fill" values="#C7381D;#423E37;#C7381D;#C7381D" dur="1s" begin="aa.begin +s" repeatCount="indefinite"/></circle></g><g transform="translate(160,160)"><use href="#b0" /><circle r="18" fill="#92B83C"><animate attributeType="XML" attributeName="fill" values="#92B83C;#1E62AB;#92B83C;#92B83C" dur="1s" begin="aa.begin +2.5s" repeatCount="indefinite"/></circle></g><g transform="translate(160,200)"><use href="#b0" /><circle r="18" fill="#92B83C"><animate attributeType="XML" attributeName="fill" values="#92B83C;#1E62AB;#92B83C;#92B83C" dur="1s" begin="aa.begin +3s" repeatCount="indefinite"/></circle></g><use href="#d0" x="160" y="240" /><use href="#l0" x="160" y="280" /><use href="#d0" x="160" y="320" /><g transform="translate(200,40)"><use href="#b0" /><circle r="18" fill="#92B83C"><animate attributeType="XML" attributeName="fill" values="#92B83C;#1E62AB;#92B83C;#92B83C" dur="1s" begin="aa.begin +3.5s" repeatCount="indefinite"/></circle></g><use href="#l0" x="200" y="80" /><use href="#d0" x="200" y="120" /><g transform="translate(200,160)"><use href="#p0" /><circle r="18" fill="#C7381D"><animate attributeType="XML" attributeName="fill" values="#C7381D;#423E37;#C7381D;#C7381D" dur="1s" begin="aa.begin +4s" repeatCount="indefinite"/></circle></g><g transform="translate(200,200)"><use href="#p0" /><circle r="18" fill="#C7381D"><animate attributeType="XML" attributeName="fill" values="#C7381D;#423E37;#C7381D;#C7381D" dur="1s" begin="aa.begin +4.5s" repeatCount="indefinite"/></circle></g><use href="#d0" x="200" y="240" /><g transform="translate(200,280)"><use href="#p0" /><circle r="18" fill="#C7381D"><animate attributeType="XML" attributeName="fill" values="#C7381D;#423E37;#C7381D;#C7381D" dur="1s" begin="aa.begin +5s" repeatCount="indefinite"/></circle></g><use href="#l0" x="200" y="320" /><use href="#d0" x="240" y="40" /><g transform="translate(240,80)"><use href="#p0" /><circle r="18" fill="#C7381D"><animate attributeType="XML" attributeName="fill" values="#C7381D;#423E37;#C7381D;#C7381D" dur="1s" begin="aa.begin +5.5s" repeatCount="indefinite"/></circle></g><g transform="translate(240,120)"><use href="#p0" /><circle r="18" fill="#C7381D"><animate attributeType="XML" attributeName="fill" values="#C7381D;#423E37;#C7381D;#C7381D" dur="1s" begin="aa.begin +6s" repeatCount="indefinite"/></circle></g><use href="#d0" x="240" y="160" /><use href="#l0" x="240" y="200" /><g transform="translate(240,240)"><use href="#p0" /><circle r="18" fill="#C7381D"><animate attributeType="XML" attributeName="fill" values="#C7381D;#423E37;#C7381D;#C7381D" dur="1s" begin="aa.begin +6.5s" repeatCount="indefinite"/></circle></g><use href="#l0" x="240" y="280" /><use href="#d0" x="240" y="320" /><g transform="translate(280,40)"><use href="#p0" /><circle r="18" fill="#C7381D"><animate attributeType="XML" attributeName="fill" values="#C7381D;#423E37;#C7381D;#C7381D" dur="1s" begin="aa.begin +7s" repeatCount="indefinite"/></circle></g><use href="#d0" x="280" y="80" /><use href="#d0" x="280" y="120" /><use href="#d0" x="280" y="160" /><use href="#d0" x="280" y="200" /><use href="#l0" x="280" y="240" /><use href="#l0" x="280" y="280" /><use href="#d0" x="280" y="320" /><use href="#d0" x="320" y="40" /><use href="#d0" x="320" y="80" /><use href="#d0" x="320" y="120" /><use href="#d0" x="320" y="160" /><use href="#d0" x="320" y="200" /><use href="#d0" x="320" y="240" /><use href="#d0" x="320" y="280" /><use href="#d0" x="320" y="320" /></svg>