<svg width="360" height="360" xmlns="http://www.w3.org/2000/svg"><defs><animate id="aa" begin="0s"/><rect id="l0" width="36" height="36" fill="#fad643"></rect><rect id="d0" width="36" height="36" fill="#ffe169"></rect></defs><rect width="100%" height="100%" fill="#76520e" /><g transform="translate(22,22)"><use href="#p0" /><polygon points="36,0 36,36 0,0" fill="#dbb42c"><animate attributeType="XML" attributeName="fill" values="#dbb42c;#ffe169;#dbb42c;#dbb42c" dur="2.0s" repeatCount="indefinite"/></polygon></g><use href="#d0" x="22" y="62" /><use href="#l0" x="22" y="102" /><use href="#l0" x="22" y="142" /><g transform="translate(22,182)"><use href="#b0" /><polygon points="36,0 36,36 0,0" fill="#a47e1b"><animate attributeType="XML" attributeName="fill" values="#a47e1b;#fad643;#a47e1b;#a47e1b" dur="2.0s" repeatCount="indefinite"/></polygon></g><use href="#l0" x="22" y="222" /><use href="#d0" x="22" y="262" /><g transform="translate(22,302)"><use href="#p0" /><polygon points="36,0 36,36 0,0" fill="#dbb42c"><animate attributeType="XML" attributeName="fill" values="#dbb42c;#ffe169;#dbb42c;#dbb42c" dur="2.0s" repeatCount="indefinite"/></polygon></g><g transform="translate(62,22)"><use href="#p0" /><polygon points="36,0 36,36 0,0" fill="#dbb42c"><animate attributeType="XML" attributeName="fill" values="#dbb42c;#ffe169;#dbb42c;#dbb42c" dur="2.0s" repeatCount="indefinite"/></polygon></g><use href="#d0" x="62" y="62" /><g transform="translate(62,102)"><use href="#p0" /><polygon points="36,0 36,36 0,0" fill="#dbb42c"><animate attributeType="XML" attributeName="fill" values="#dbb42c;#ffe169;#dbb42c;#dbb42c" dur="2.2s" repeatCount="indefinite"/></polygon></g><use href="#d0" x="62" y="142" /><use href="#d0" x="62" y="182" /><g transform="translate(62,222)"><use href="#b0" /><polygon points="36,0 36,36 0,0" fill="#a47e1b"><animate attributeType="XML" attributeName="fill" values="#a47e1b;#fad643;#a47e1b;#a47e1b" dur="2.5s" repeatCount="indefinite"/></polygon></g><use href="#l0" x="62" y="262" /><use href="#d0" x="62" y="302" /><g transform="translate(102,22)"><use href="#p0" /><polygon points="36,0 36,36 0,0" fill="#dbb42c"><animate attributeType="XML" attributeName="fill" values="#dbb42c;#ffe169;#dbb42c;#dbb42c" dur="2.0s" repeatCount="indefinite"/></polygon></g><use href="#d0" x="102" y="62" /><g transform="translate(102,102)"><use href="#p0" /><polygon points="36,0 36,36 0,0" fill="#dbb42c"><animate attributeType="XML" attributeName="fill" values="#dbb42c;#ffe169;#dbb42c;#dbb42c" dur="2.4s" repeatCount="indefinite"/></polygon></g><g transform="translate(102,142)"><use href="#p0" /><polygon points="36,0 36,36 0,0" fill="#dbb42c"><animate attributeType="XML" attributeName="fill" values="#dbb42c;#ffe169;#dbb42c;#dbb42c" dur="2.6s" repeatCount="indefinite"/></polygon></g><use href="#d0" x="102" y="182" /><g transform="translate(102,222)"><use href="#b0" /><polygon points="36,0 36,36 0,0" fill="#a47e1b"><animate attributeType="XML" attributeName="fill" values="#a47e1b;#fad643;#a47e1b;#a47e1b" dur="2.0s" repeatCount="indefinite"/></polygon></g><g transform="translate(102,262)"><use href="#b0" /><polygon points="36,0 36,36 0,0" fill="#a47e1b"><animate attributeType="XML" attributeName="fill" values="#a47e1b;#fad643;#a47e1b;#a47e1b" dur="2.2s" repeatCount="indefinite"/></polygon></g><g transform="translate(102,302)"><use href="#b0" /><polygon points="36,0 36,36 0,0" fill="#a47e1b"><animate attributeType="XML" attributeName="fill" values="#a47e1b;#fad643;#a47e1b;#a47e1b" dur="2.4s" repeatCount="indefinite"/></polygon></g><use href="#l0" x="142" y="22" /><g transform="translate(142,62)"><use href="#b0" /><polygon points="36,0 36,36 0,0" fill="#a47e1b"><animate attributeType="XML" attributeName="fill" values="#a47e1b;#fad643;#a47e1b;#a47e1b" dur="2.3s" repeatCount="indefinite"/></polygon></g><use href="#d0" x="142" y="102" /><use href="#d0" x="142" y="142" /><use href="#l0" x="142" y="182" /><use href="#d0" x="142" y="222" /><g transform="translate(142,262)"><use href="#b0" /><polygon points="36,0 36,36 0,0" fill="#a47e1b"><animate attributeType="XML" attributeName="fill" values="#a47e1b;#fad643;#a47e1b;#a47e1b" dur="2.8s" repeatCount="indefinite"/></polygon></g><use href="#d0" x="142" y="302" /><g transform="translate(182,22)"><use href="#b0" /><polygon points="36,0 36,36 0,0" fill="#a47e1b"><animate attributeType="XML" attributeName="fill" values="#a47e1b;#fad643;#a47e1b;#a47e1b" dur="2.0s" repeatCount="indefinite"/></polygon></g><g transform="translate(182,62)"><use href="#p0" /><polygon points="36,0 36,36 0,0" fill="#dbb42c"><animate attributeType="XML" attributeName="fill" values="#dbb42c;#ffe169;#dbb42c;#dbb42c" dur="2.4s" repeatCount="indefinite"/></polygon></g><use href="#l0" x="182" y="102" /><g transform="translate(182,142)"><use href="#p0" /><polygon points="36,0 36,36 0,0" fill="#dbb42c"><animate attributeType="XML" attributeName="fill" values="#dbb42c;#ffe169;#dbb42c;#dbb42c" dur="2.2s" repeatCount="indefinite"/></polygon></g><g transform="translate(182,182)"><use href="#p0" /><polygon points="36,0 36,36 0,0" fill="#dbb42c"><animate attributeType="XML" attributeName="fill" values="#dbb42c;#ffe169;#dbb42c;#dbb42c" dur="2.6s" repeatCount="indefinite"/></polygon></g><use href="#d0" x="182" y="222" /><use href="#d0" x="182" y="262" /><g transform="translate(182,302)"><use href="#b0" /><polygon points="36,0 36,36 0,0" fill="#a47e1b"><animate attributeType="XML" attributeName="fill" values="#a47e1b;#fad643;#a47e1b;#a47e1b" dur="2.8s" repeatCount="indefinite"/></polygon></g><use href="#d0" x="222" y="22" /><use href="#d0" x="222" y="62" /><use href="#l0" x="222" y="102" /><g transform="translate(222,142)"><use href="#b0" /><polygon points="36,0 36,36 0,0" fill="#a47e1b"><animate attributeType="XML" attributeName="fill" values="#a47e1b;#fad643;#a47e1b;#a47e1b" dur="2.5s" repeatCount="indefinite"/></polygon></g><use href="#d0" x="222" y="182" /><use href="#d0" x="222" y="222" /><use href="#d0" x="222" y="262" /><use href="#d0" x="222" y="302" /><use href="#d0" x="262" y="22" /><g transform="translate(262,62)"><use href="#b0" /><polygon points="36,0 36,36 0,0" fill="#a47e1b"><animate attributeType="XML" attributeName="fill" values="#a47e1b;#fad643;#a47e1b;#a47e1b" dur="2.6s" repeatCount="indefinite"/></polygon></g><use href="#l0" x="262" y="102" /><use href="#d0" x="262" y="142" /><use href="#d0" x="262" y="182" /><use href="#d0" x="262" y="222" /><use href="#d0" x="262" y="262" /><use href="#d0" x="262" y="302" /><use href="#l0" x="302" y="22" /><use href="#d0" x="302" y="62" /><use href="#d0" x="302" y="102" /><use href="#d0" x="302" y="142" /><use href="#l0" x="302" y="182" /><g transform="translate(302,222)"><use href="#b0" /><polygon points="36,0 36,36 0,0" fill="#a47e1b"><animate attributeType="XML" attributeName="fill" values="#a47e1b;#fad643;#a47e1b;#a47e1b" dur="2.5s" repeatCount="indefinite"/></polygon></g><g transform="translate(302,262)"><use href="#b0" /><polygon points="36,0 36,36 0,0" fill="#a47e1b"><animate attributeType="XML" attributeName="fill" values="#a47e1b;#fad643;#a47e1b;#a47e1b" dur="2.2s" repeatCount="indefinite"/></polygon></g><use href="#l0" x="302" y="302" /></svg>