<svg width="360" height="360" xmlns="http://www.w3.org/2000/svg"><defs><animate id="aa" begin="0s"/><rect id="l0" width="36" height="36" fill="#f8f9fa"></rect><circle id="d0" r="18" fill="#343a40"></circle></defs><rect width="100%" height="100%" fill="#212529" /><g transform="translate(22,22)"><use href="#b0" /><polygon points="0,0 0,36 36,36 36,0" fill="#dee2e6"><animate attributeType="XML" attributeName="fill" values="#dee2e6;#f8f9fa;#dee2e6;#dee2e6" dur="0.0s" repeatCount="indefinite"/></polygon></g><use href="#l0" x="22" y="62" /><use href="#d0" x="40" y="120" /><g transform="translate(22,142)"><use href="#b0" /><polygon points="0,0 0,36 36,36 36,0" fill="#dee2e6"><animate attributeType="XML" attributeName="fill" values="#dee2e6;#f8f9fa;#dee2e6;#dee2e6" dur="0.0s" repeatCount="indefinite"/></polygon></g><use href="#l0" x="22" y="182" /><use href="#d0" x="40" y="240" /><use href="#d0" x="40" y="280" /><use href="#d0" x="40" y="320" /><g transform="translate(62,22)"><use href="#b0" /><polygon points="0,0 0,36 36,36 36,0" fill="#dee2e6"><animate attributeType="XML" attributeName="fill" values="#dee2e6;#f8f9fa;#dee2e6;#dee2e6" dur="0.0s" repeatCount="indefinite"/></polygon></g><use href="#d0" x="80" y="80" /><g transform="translate(80,120)"><use href="#p0" /><circle r="18" fill="#495057"><animate attributeType="XML" attributeName="fill" values="#495057;#343a40;#495057;#495057" dur="0.2s" repeatCount="indefinite"/></circle></g><use href="#d0" x="80" y="160" /><use href="#d0" x="80" y="200" /><use href="#d0" x="80" y="240" /><use href="#l0" x="62" y="262" /><use href="#d0" x="80" y="320" /><use href="#d0" x="120" y="40" /><use href="#d0" x="120" y="80" /><g transform="translate(120,120)"><use href="#p0" /><circle r="18" fill="#495057"><animate attributeType="XML" attributeName="fill" values="#495057;#343a40;#495057;#495057" dur="0.4s" repeatCount="indefinite"/></circle></g><g transform="translate(120,160)"><use href="#p0" /><circle r="18" fill="#495057"><animate attributeType="XML" attributeName="fill" values="#495057;#343a40;#495057;#495057" dur="0.6s" repeatCount="indefinite"/></circle></g><g transform="translate(120,200)"><use href="#p0" /><circle r="18" fill="#495057"><animate attributeType="XML" attributeName="fill" values="#495057;#343a40;#495057;#495057" dur="0.8s" repeatCount="indefinite"/></circle></g><use href="#l0" x="102" y="222" /><use href="#l0" x="102" y="262" /><use href="#l0" x="102" y="302" /><use href="#d0" x="160" y="40" /><g transform="translate(142,62)"><use href="#b0" /><polygon points="0,0 0,36 36,36 36,0" fill="#dee2e6"><animate attributeType="XML" attributeName="fill" values="#dee2e6;#f8f9fa;#dee2e6;#dee2e6" dur="0.3s" repeatCount="indefinite"/></polygon></g><g transform="translate(142,102)"><use href="#b0" /><polygon points="0,0 0,36 36,36 36,0" fill="#dee2e6"><animate attributeType="XML" attributeName="fill" values="#dee2e6;#f8f9fa;#dee2e6;#dee2e6" dur="0.6s" repeatCount="indefinite"/></polygon></g><use href="#d0" x="160" y="160" /><use href="#d0" x="160" y="200" /><g transform="translate(142,222)"><use href="#b0" /><polygon points="0,0 0,36 36,36 36,0" fill="#dee2e6"><animate attributeType="XML" attributeName="fill" values="#dee2e6;#f8f9fa;#dee2e6;#dee2e6" dur="0.5s" repeatCount="indefinite"/></polygon></g><use href="#d0" x="160" y="280" /><use href="#d0" x="160" y="320" /><use href="#l0" x="182" y="22" /><g transform="translate(200,80)"><use href="#p0" /><circle r="18" fill="#495057"><animate attributeType="XML" attributeName="fill" values="#495057;#343a40;#495057;#495057" dur="0.4s" repeatCount="indefinite"/></circle></g><use href="#l0" x="182" y="102" /><g transform="translate(182,142)"><use href="#b0" /><polygon points="0,0 0,36 36,36 36,0" fill="#dee2e6"><animate attributeType="XML" attributeName="fill" values="#dee2e6;#f8f9fa;#dee2e6;#dee2e6" dur="0.2s" repeatCount="indefinite"/></polygon></g><g transform="translate(182,182)"><use href="#b0" /><polygon points="0,0 0,36 36,36 36,0" fill="#dee2e6"><animate attributeType="XML" attributeName="fill" values="#dee2e6;#f8f9fa;#dee2e6;#dee2e6" dur="0.6s" repeatCount="indefinite"/></polygon></g><use href="#d0" x="200" y="240" /><use href="#l0" x="182" y="262" /><use href="#l0" x="182" y="302" /><use href="#d0" x="240" y="40" /><use href="#d0" x="240" y="80" /><use href="#d0" x="240" y="120" /><use href="#d0" x="240" y="160" /><use href="#l0" x="222" y="182" /><use href="#d0" x="240" y="240" /><g transform="translate(222,262)"><use href="#b0" /><polygon points="0,0 0,36 36,36 36,0" fill="#dee2e6"><animate attributeType="XML" attributeName="fill" values="#dee2e6;#f8f9fa;#dee2e6;#dee2e6" dur="0.0s" repeatCount="indefinite"/></polygon></g><use href="#d0" x="240" y="320" /><use href="#l0" x="262" y="22" /><use href="#l0" x="262" y="62" /><use href="#d0" x="280" y="120" /><use href="#l0" x="262" y="142" /><use href="#d0" x="280" y="200" /><use href="#d0" x="280" y="240" /><g transform="translate(280,280)"><use href="#p0" /><circle r="18" fill="#495057"><animate attributeType="XML" attributeName="fill" values="#495057;#343a40;#495057;#495057" dur="0.6s" repeatCount="indefinite"/></circle></g><use href="#d0" x="280" y="320" /><use href="#d0" x="320" y="40" /><g transform="translate(320,80)"><use href="#p0" /><circle r="18" fill="#495057"><animate attributeType="XML" attributeName="fill" values="#495057;#343a40;#495057;#495057" dur="0.7s" repeatCount="indefinite"/></circle></g><use href="#d0" x="320" y="120" /><use href="#l0" x="302" y="142" /><use href="#d0" x="320" y="200" /><use href="#l0" x="302" y="222" /><use href="#l0" x="302" y="262" /><use href="#l0" x="302" y="302" /></svg>