<svg width="360" height="360" xmlns="http://www.w3.org/2000/svg"><defs><animate id="aa" begin="0s"/><rect id="d0" width="36" height="36" fill="#FFC6FF"></rect><circle id="l0" r="18" fill="#FDFFB6"></circle></defs><rect width="100%" height="100%" fill="#CAFFBF" /><use href="#l0" x="40" y="40" /><use href="#d0" x="22" y="62" /><use href="#d0" x="22" y="102" /><use href="#d0" x="22" y="142" /><g transform="translate(22,182)"><use href="#p0" /><polygon points="0,0 0,36 36,36 36,0" fill="#BDB2FF"><animate attributeType="XML" attributeName="fill" values="#BDB2FF;#FFC6FF;#BDB2FF;#BDB2FF" dur="1.0s" repeatCount="indefinite"/></polygon></g><g transform="translate(40,240)"><use href="#b0" /><circle r="18" fill="#CAFFBF"><animate attributeType="XML" attributeName="fill" values="#CAFFBF;#FDFFB6;#CAFFBF;#CAFFBF" dur="1.0s" repeatCount="indefinite"/></circle></g><use href="#l0" x="40" y="280" /><use href="#d0" x="22" y="302" /><use href="#l0" x="80" y="40" /><use href="#d0" x="62" y="62" /><use href="#d0" x="62" y="102" /><g transform="translate(80,160)"><use href="#b0" /><circle r="18" fill="#CAFFBF"><animate attributeType="XML" attributeName="fill" values="#CAFFBF;#FDFFB6;#CAFFBF;#CAFFBF" dur="1.3s" repeatCount="indefinite"/></circle></g><use href="#l0" x="80" y="200" /><use href="#d0" x="62" y="222" /><use href="#l0" x="80" y="280" /><use href="#d0" x="62" y="302" /><use href="#l0" x="120" y="40" /><use href="#d0" x="102" y="62" /><use href="#l0" x="120" y="120" /><use href="#d0" x="102" y="142" /><use href="#l0" x="120" y="200" /><use href="#d0" x="102" y="222" /><use href="#l0" x="120" y="280" /><use href="#d0" x="102" y="302" /><use href="#l0" x="160" y="40" /><use href="#d0" x="142" y="62" /><g transform="translate(142,102)"><use href="#p0" /><polygon points="0,0 0,36 36,36 36,0" fill="#BDB2FF"><animate attributeType="XML" attributeName="fill" values="#BDB2FF;#FFC6FF;#BDB2FF;#BDB2FF" dur="1.6s" repeatCount="indefinite"/></polygon></g><use href="#d0" x="142" y="142" /><use href="#d0" x="142" y="182" /><g transform="translate(142,222)"><use href="#p0" /><polygon points="0,0 0,36 36,36 36,0" fill="#BDB2FF"><animate attributeType="XML" attributeName="fill" values="#BDB2FF;#FFC6FF;#BDB2FF;#BDB2FF" dur="1.5s" repeatCount="indefinite"/></polygon></g><use href="#l0" x="160" y="280" /><use href="#d0" x="142" y="302" /><use href="#l0" x="200" y="40" /><use href="#d0" x="182" y="62" /><use href="#d0" x="182" y="102" /><use href="#d0" x="182" y="142" /><use href="#d0" x="182" y="182" /><use href="#d0" x="182" y="222" /><g transform="translate(182,262)"><use href="#p0" /><polygon points="0,0 0,36 36,36 36,0" fill="#BDB2FF"><animate attributeType="XML" attributeName="fill" values="#BDB2FF;#FFC6FF;#BDB2FF;#BDB2FF" dur="1.4s" repeatCount="indefinite"/></polygon></g><use href="#d0" x="182" y="302" /><g transform="translate(222,22)"><use href="#p0" /><polygon points="0,0 0,36 36,36 36,0" fill="#BDB2FF"><animate attributeType="XML" attributeName="fill" values="#BDB2FF;#FFC6FF;#BDB2FF;#BDB2FF" dur="1.0s" repeatCount="indefinite"/></polygon></g><use href="#l0" x="240" y="80" /><use href="#d0" x="222" y="102" /><use href="#d0" x="222" y="142" /><use href="#d0" x="222" y="182" /><use href="#d0" x="222" y="222" /><use href="#d0" x="222" y="262" /><g transform="translate(240,320)"><use href="#b0" /><circle r="18" fill="#CAFFBF"><animate attributeType="XML" attributeName="fill" values="#CAFFBF;#FDFFB6;#CAFFBF;#CAFFBF" dur="1.5s" repeatCount="indefinite"/></circle></g><g transform="translate(262,22)"><use href="#p0" /><polygon points="0,0 0,36 36,36 36,0" fill="#BDB2FF"><animate attributeType="XML" attributeName="fill" values="#BDB2FF;#FFC6FF;#BDB2FF;#BDB2FF" dur="1.0s" repeatCount="indefinite"/></polygon></g><g transform="translate(280,80)"><use href="#b0" /><circle r="18" fill="#CAFFBF"><animate attributeType="XML" attributeName="fill" values="#CAFFBF;#FDFFB6;#CAFFBF;#CAFFBF" dur="1.6s" repeatCount="indefinite"/></circle></g><g transform="translate(280,120)"><use href="#b0" /><circle r="18" fill="#CAFFBF"><animate attributeType="XML" attributeName="fill" values="#CAFFBF;#FDFFB6;#CAFFBF;#CAFFBF" dur="1.2s" repeatCount="indefinite"/></circle></g><use href="#d0" x="262" y="142" /><use href="#d0" x="262" y="182" /><use href="#d0" x="262" y="222" /><use href="#d0" x="262" y="262" /><use href="#l0" x="280" y="320" /><g transform="translate(302,22)"><use href="#p0" /><polygon points="0,0 0,36 36,36 36,0" fill="#BDB2FF"><animate attributeType="XML" attributeName="fill" values="#BDB2FF;#FFC6FF;#BDB2FF;#BDB2FF" dur="1.0s" repeatCount="indefinite"/></polygon></g><use href="#l0" x="320" y="80" /><g transform="translate(320,120)"><use href="#b0" /><circle r="18" fill="#CAFFBF"><animate attributeType="XML" attributeName="fill" values="#CAFFBF;#FDFFB6;#CAFFBF;#CAFFBF" dur="1.4s" repeatCount="indefinite"/></circle></g><use href="#d0" x="302" y="142" /><use href="#d0" x="302" y="182" /><use href="#d0" x="302" y="222" /><g transform="translate(320,280)"><use href="#b0" /><circle r="18" fill="#CAFFBF"><animate attributeType="XML" attributeName="fill" values="#CAFFBF;#FDFFB6;#CAFFBF;#CAFFBF" dur="1.2s" repeatCount="indefinite"/></circle></g><use href="#d0" x="302" y="302" /></svg>