<svg width="360" height="360" xmlns="http://www.w3.org/2000/svg"><defs><animate id="aa" begin="0s"/><rect id="d0" width="36" height="36" fill="#D8F3DC"></rect><circle id="l0" r="18" fill="#081C15"></circle><rect id="p0" width="36" height="36" fill="#2D6A4F"></rect><circle id="b0" r="18" fill="#40916C"></circle></defs><rect width="100%" height="100%" fill="#52B788" /><use href="#b0" x="40" y="40" /><use href="#d0" x="22" y="62" /><use href="#d0" x="22" y="102" /><use href="#d0" x="22" y="142" /><use href="#d0" x="22" y="182" /><use href="#l0" x="40" y="240" /><use href="#d0" x="22" y="262" /><use href="#l0" x="40" y="320" /><use href="#d0" x="62" y="22" /><use href="#d0" x="62" y="62" /><use href="#l0" x="80" y="120" /><use href="#l0" x="80" y="160" /><use href="#d0" x="62" y="182" /><use href="#l0" x="80" y="240" /><use href="#d0" x="62" y="262" /><use href="#d0" x="62" y="302" /><use href="#b0" x="120" y="40" /><use href="#d0" x="102" y="62" /><use href="#d0" x="102" y="102" /><use href="#l0" x="120" y="160" /><use href="#d0" x="102" y="182" /><use href="#l0" x="120" y="240" /><use href="#d0" x="102" y="262" /><use href="#b0" x="120" y="320" /><use href="#p0" x="142" y="22" /><use href="#p0" x="142" y="62" /><use href="#b0" x="160" y="120" /><use href="#l0" x="160" y="160" /><use href="#d0" x="142" y="182" /><use href="#l0" x="160" y="240" /><use href="#d0" x="142" y="262" /><use href="#l0" x="160" y="320" /><use href="#b0" x="200" y="40" /><use href="#b0" x="200" y="80" /><use href="#d0" x="182" y="102" /><use href="#l0" x="200" y="160" /><use href="#d0" x="182" y="182" /><use href="#l0" x="200" y="240" /><use href="#d0" x="182" y="262" /><use href="#p0" x="182" y="302" /><use href="#p0" x="222" y="22" /><use href="#b0" x="240" y="80" /><use href="#d0" x="222" y="102" /><use href="#p0" x="222" y="142" /><use href="#b0" x="240" y="200" /><use href="#d0" x="222" y="222" /><use href="#l0" x="240" y="280" /><use href="#b0" x="240" y="320" /><use href="#d0" x="262" y="22" /><use href="#l0" x="280" y="80" /><use href="#d0" x="262" y="102" /><use href="#b0" x="280" y="160" /><use href="#d0" x="262" y="182" /><use href="#l0" x="280" y="240" /><use href="#d0" x="262" y="262" /><use href="#l0" x="280" y="320" /><use href="#d0" x="302" y="22" /><use href="#l0" x="320" y="80" /><use href="#p0" x="302" y="102" /><use href="#p0" x="302" y="142" /><use href="#d0" x="302" y="182" /><use href="#l0" x="320" y="240" /><use href="#d0" x="302" y="262" /><use href="#l0" x="320" y="320" /></svg>