<svg width="360" height="360" xmlns="http://www.w3.org/2000/svg"><defs><animate id="aa" begin="0s"/><circle id="l0" r="18" fill="#fbff12"></circle><circle id="d0" r="18" fill="#41ead4"></circle></defs><rect width="100%" height="100%" fill="#ff206e" /><g transform="translate(40,40)"><use href="#p0" /><circle r="18" fill="#FD9040"><animate attributeType="XML" attributeName="fill" values="#FD9040;#41ead4;#FD9040;#FD9040" dur="1s" begin="aa.begin +1s" repeatCount="indefinite"/></circle></g><g transform="translate(40,80)"><use href="#b0" /><circle r="18" fill="#9EF573"><animate attributeType="XML" attributeName="fill" values="#9EF573;#fbff12;#9EF573;#9EF573" dur="1s" begin="aa.begin +1.5s" repeatCount="indefinite"/></circle></g><use href="#d0" x="40" y="120" /><g transform="translate(40,160)"><use href="#p0" /><circle r="18" fill="#FD9040"><animate attributeType="XML" attributeName="fill" values="#FD9040;#41ead4;#FD9040;#FD9040" dur="1s" begin="aa.begin +2s" repeatCount="indefinite"/></circle></g><use href="#d0" x="40" y="200" /><use href="#d0" x="40" y="240" /><g transform="translate(40,280)"><use href="#p0" /><circle r="18" fill="#FD9040"><animate attributeType="XML" attributeName="fill" values="#FD9040;#41ead4;#FD9040;#FD9040" dur="1s" begin="aa.begin +s" repeatCount="indefinite"/></circle></g><use href="#d0" x="40" y="320" /><use href="#d0" x="80" y="40" /><use href="#d0" x="80" y="80" /><use href="#l0" x="80" y="120" /><use href="#d0" x="80" y="160" /><use href="#l0" x="80" y="200" /><use href="#d0" x="80" y="240" /><use href="#d0" x="80" y="280" /><use href="#d0" x="80" y="320" /><use href="#d0" x="120" y="40" /><use href="#d0" x="120" y="80" /><use href="#d0" x="120" y="120" /><use href="#l0" x="120" y="160" /><use href="#l0" x="120" y="200" /><use href="#d0" x="120" y="240" /><use href="#d0" x="120" y="280" /><use href="#d0" x="120" y="320" /><use href="#d0" x="160" y="40" /><use href="#d0" x="160" y="80" /><use href="#d0" x="160" y="120" /><use href="#d0" x="160" y="160" /><use href="#d0" x="160" y="200" /><use href="#d0" x="160" y="240" /><use href="#d0" x="160" y="280" /><use href="#d0" x="160" y="320" /><use href="#d0" x="200" y="40" /><use href="#d0" x="200" y="80" /><use href="#d0" x="200" y="120" /><use href="#d0" x="200" y="160" /><use href="#d0" x="200" y="200" /><use href="#d0" x="200" y="240" /><use href="#d0" x="200" y="280" /><use href="#d0" x="200" y="320" /><g transform="translate(240,40)"><use href="#p0" /><circle r="18" fill="#FD9040"><animate attributeType="XML" attributeName="fill" values="#FD9040;#41ead4;#FD9040;#FD9040" dur="1s" begin="aa.begin +2.5s" repeatCount="indefinite"/></circle></g><g transform="translate(240,80)"><use href="#b0" /><circle r="18" fill="#9EF573"><animate attributeType="XML" attributeName="fill" values="#9EF573;#fbff12;#9EF573;#9EF573" dur="1s" begin="aa.begin +3s" repeatCount="indefinite"/></circle></g><use href="#l0" x="240" y="120" /><g transform="translate(240,160)"><use href="#b0" /><circle r="18" fill="#9EF573"><animate attributeType="XML" attributeName="fill" values="#9EF573;#fbff12;#9EF573;#9EF573" dur="1s" begin="aa.begin +3.5s" repeatCount="indefinite"/></circle></g><g transform="translate(240,200)"><use href="#b0" /><circle r="18" fill="#9EF573"><animate attributeType="XML" attributeName="fill" values="#9EF573;#fbff12;#9EF573;#9EF573" dur="1s" begin="aa.begin +4s" repeatCount="indefinite"/></circle></g><g transform="translate(240,240)"><use href="#p0" /><circle r="18" fill="#FD9040"><animate attributeType="XML" attributeName="fill" values="#FD9040;#41ead4;#FD9040;#FD9040" dur="1s" begin="aa.begin +4.5s" repeatCount="indefinite"/></circle></g><g transform="translate(240,280)"><use href="#p0" /><circle r="18" fill="#FD9040"><animate attributeType="XML" attributeName="fill" values="#FD9040;#41ead4;#FD9040;#FD9040" dur="1s" begin="aa.begin +5s" repeatCount="indefinite"/></circle></g><use href="#d0" x="240" y="320" /><use href="#l0" x="280" y="40" /><use href="#d0" x="280" y="80" /><g transform="translate(280,120)"><use href="#p0" /><circle r="18" fill="#FD9040"><animate attributeType="XML" attributeName="fill" values="#FD9040;#41ead4;#FD9040;#FD9040" dur="1s" begin="aa.begin +5.5s" repeatCount="indefinite"/></circle></g><use href="#d0" x="280" y="160" /><use href="#l0" x="280" y="200" /><use href="#d0" x="280" y="240" /><g transform="translate(280,280)"><use href="#p0" /><circle r="18" fill="#FD9040"><animate attributeType="XML" attributeName="fill" values="#FD9040;#41ead4;#FD9040;#FD9040" dur="1s" begin="aa.begin +6s" repeatCount="indefinite"/></circle></g><use href="#d0" x="280" y="320" /><g transform="translate(320,40)"><use href="#b0" /><circle r="18" fill="#9EF573"><animate attributeType="XML" attributeName="fill" values="#9EF573;#fbff12;#9EF573;#9EF573" dur="1s" begin="aa.begin +6.5s" repeatCount="indefinite"/></circle></g><g transform="translate(320,80)"><use href="#p0" /><circle r="18" fill="#FD9040"><animate attributeType="XML" attributeName="fill" values="#FD9040;#41ead4;#FD9040;#FD9040" dur="1s" begin="aa.begin +7s" repeatCount="indefinite"/></circle></g><g transform="translate(320,120)"><use href="#p0" /><circle r="18" fill="#FD9040"><animate attributeType="XML" attributeName="fill" values="#FD9040;#41ead4;#FD9040;#FD9040" dur="1s" begin="aa.begin +7.5s" repeatCount="indefinite"/></circle></g><use href="#d0" x="320" y="160" /><g transform="translate(320,200)"><use href="#p0" /><circle r="18" fill="#FD9040"><animate attributeType="XML" attributeName="fill" values="#FD9040;#41ead4;#FD9040;#FD9040" dur="1s" begin="aa.begin +8s" repeatCount="indefinite"/></circle></g><use href="#d0" x="320" y="240" /><g transform="translate(320,280)"><use href="#p0" /><circle r="18" fill="#FD9040"><animate attributeType="XML" attributeName="fill" values="#FD9040;#41ead4;#FD9040;#FD9040" dur="1s" begin="aa.begin +8.5s" repeatCount="indefinite"/></circle></g><use href="#d0" x="320" y="320" /></svg>