<svg width="360" height="360" xmlns="http://www.w3.org/2000/svg"><defs><animate id="aa" begin="0s"/><rect id="l0" width="36" height="36" fill="#FFFF3F"></rect><rect id="d0" width="36" height="36" fill="#2B9348"></rect></defs><rect width="100%" height="100%" fill="#80B918" /><use href="#d0" x="22" y="22" /><use href="#l0" x="22" y="62" /><use href="#l0" x="22" y="102" /><use href="#d0" x="22" y="142" /><use href="#d0" x="22" y="182" /><use href="#d0" x="22" y="222" /><g transform="translate(22,262)"><use href="#p0" /><polygon points="0,0 0,36 36,36 36,0" fill="#007F5F"><animate attributeType="XML" attributeName="fill" values="#007F5F;#2B9348;#007F5F;#007F5F" dur="2.0s" repeatCount="indefinite"/></polygon></g><use href="#d0" x="22" y="302" /><use href="#d0" x="62" y="22" /><use href="#d0" x="62" y="62" /><use href="#d0" x="62" y="102" /><use href="#d0" x="62" y="142" /><use href="#d0" x="62" y="182" /><use href="#d0" x="62" y="222" /><use href="#d0" x="62" y="262" /><use href="#d0" x="62" y="302" /><use href="#d0" x="102" y="22" /><use href="#d0" x="102" y="62" /><use href="#d0" x="102" y="102" /><use href="#d0" x="102" y="142" /><use href="#d0" x="102" y="182" /><use href="#d0" x="102" y="222" /><use href="#d0" x="102" y="262" /><use href="#d0" x="102" y="302" /><use href="#d0" x="142" y="22" /><use href="#d0" x="142" y="62" /><use href="#d0" x="142" y="102" /><use href="#d0" x="142" y="142" /><use href="#d0" x="142" y="182" /><use href="#d0" x="142" y="222" /><use href="#d0" x="142" y="262" /><use href="#d0" x="142" y="302" /><use href="#d0" x="182" y="22" /><use href="#d0" x="182" y="62" /><use href="#d0" x="182" y="102" /><use href="#d0" x="182" y="142" /><use href="#d0" x="182" y="182" /><use href="#d0" x="182" y="222" /><use href="#d0" x="182" y="262" /><use href="#d0" x="182" y="302" /><g transform="translate(222,22)"><use href="#b0" /><polygon points="0,0 0,36 36,36 36,0" fill="#DDDF00"><animate attributeType="XML" attributeName="fill" values="#DDDF00;#FFFF3F;#DDDF00;#DDDF00" dur="2.0s" repeatCount="indefinite"/></polygon></g><g transform="translate(222,62)"><use href="#b0" /><polygon points="0,0 0,36 36,36 36,0" fill="#DDDF00"><animate attributeType="XML" attributeName="fill" values="#DDDF00;#FFFF3F;#DDDF00;#DDDF00" dur="2.5s" repeatCount="indefinite"/></polygon></g><use href="#d0" x="222" y="102" /><use href="#d0" x="222" y="142" /><use href="#d0" x="222" y="182" /><use href="#d0" x="222" y="222" /><use href="#d0" x="222" y="262" /><g transform="translate(222,302)"><use href="#b0" /><polygon points="0,0 0,36 36,36 36,0" fill="#DDDF00"><animate attributeType="XML" attributeName="fill" values="#DDDF00;#FFFF3F;#DDDF00;#DDDF00" dur="2.5s" repeatCount="indefinite"/></polygon></g><g transform="translate(262,22)"><use href="#p0" /><polygon points="0,0 0,36 36,36 36,0" fill="#007F5F"><animate attributeType="XML" attributeName="fill" values="#007F5F;#2B9348;#007F5F;#007F5F" dur="2.0s" repeatCount="indefinite"/></polygon></g><use href="#l0" x="262" y="62" /><g transform="translate(262,102)"><use href="#b0" /><polygon points="0,0 0,36 36,36 36,0" fill="#DDDF00"><animate attributeType="XML" attributeName="fill" values="#DDDF00;#FFFF3F;#DDDF00;#DDDF00" dur="2.2s" repeatCount="indefinite"/></polygon></g><use href="#d0" x="262" y="142" /><use href="#d0" x="262" y="182" /><use href="#d0" x="262" y="222" /><g transform="translate(262,262)"><use href="#b0" /><polygon points="0,0 0,36 36,36 36,0" fill="#DDDF00"><animate attributeType="XML" attributeName="fill" values="#DDDF00;#FFFF3F;#DDDF00;#DDDF00" dur="2.6s" repeatCount="indefinite"/></polygon></g><g transform="translate(262,302)"><use href="#p0" /><polygon points="0,0 0,36 36,36 36,0" fill="#007F5F"><animate attributeType="XML" attributeName="fill" values="#007F5F;#2B9348;#007F5F;#007F5F" dur="2.2s" repeatCount="indefinite"/></polygon></g><use href="#d0" x="302" y="22" /><use href="#d0" x="302" y="62" /><g transform="translate(302,102)"><use href="#p0" /><polygon points="0,0 0,36 36,36 36,0" fill="#007F5F"><animate attributeType="XML" attributeName="fill" values="#007F5F;#2B9348;#007F5F;#007F5F" dur="2.4s" repeatCount="indefinite"/></polygon></g><use href="#d0" x="302" y="142" /><use href="#d0" x="302" y="182" /><use href="#d0" x="302" y="222" /><g transform="translate(302,262)"><use href="#p0" /><polygon points="0,0 0,36 36,36 36,0" fill="#007F5F"><animate attributeType="XML" attributeName="fill" values="#007F5F;#2B9348;#007F5F;#007F5F" dur="2.2s" repeatCount="indefinite"/></polygon></g><use href="#d0" x="302" y="302" /></svg>