<svg width="360" height="360" xmlns="http://www.w3.org/2000/svg"><defs><animate id="aa" begin="0s"/><rect id="d0" width="36" height="36" fill="#423E37"></rect><circle id="l0" r="18" fill="#1E62AB"></circle></defs><rect width="100%" height="100%" fill="#34287E" /><use href="#l0" x="40" y="40" /><use href="#l0" x="40" y="80" /><use href="#l0" x="40" y="120" /><g transform="translate(40,160)"><use href="#b0" /><circle r="18" fill="#92B83C"><animate attributeType="XML" attributeName="fill" values="#92B83C;#1E62AB;#92B83C;#92B83C" dur="0.0s" repeatCount="indefinite"/></circle></g><use href="#d0" x="22" y="182" /><g transform="translate(22,222)"><use href="#p0" /><polygon points="0,0 0,36 36,36 36,0" fill="#FAED24"><animate attributeType="XML" attributeName="fill" values="#FAED24;#423E37;#FAED24;#FAED24" dur="0.0s" repeatCount="indefinite"/></polygon></g><use href="#d0" x="22" y="262" /><use href="#d0" x="22" y="302" /><use href="#d0" x="62" y="22" /><use href="#d0" x="62" y="62" /><use href="#d0" x="62" y="102" /><g transform="translate(62,142)"><use href="#p0" /><polygon points="0,0 0,36 36,36 36,0" fill="#FAED24"><animate attributeType="XML" attributeName="fill" values="#FAED24;#423E37;#FAED24;#FAED24" dur="0.3s" repeatCount="indefinite"/></polygon></g><g transform="translate(80,200)"><use href="#b0" /><circle r="18" fill="#92B83C"><animate attributeType="XML" attributeName="fill" values="#92B83C;#1E62AB;#92B83C;#92B83C" dur="0.4s" repeatCount="indefinite"/></circle></g><use href="#l0" x="80" y="240" /><use href="#l0" x="80" y="280" /><use href="#l0" x="80" y="320" /><use href="#l0" x="120" y="40" /><use href="#l0" x="120" y="80" /><use href="#l0" x="120" y="120" /><use href="#l0" x="120" y="160" /><use href="#d0" x="102" y="182" /><use href="#d0" x="102" y="222" /><use href="#d0" x="102" y="262" /><use href="#d0" x="102" y="302" /><use href="#d0" x="142" y="22" /><use href="#d0" x="142" y="62" /><use href="#d0" x="142" y="102" /><use href="#d0" x="142" y="142" /><use href="#l0" x="160" y="200" /><use href="#l0" x="160" y="240" /><use href="#l0" x="160" y="280" /><use href="#d0" x="142" y="302" /><use href="#l0" x="200" y="40" /><use href="#l0" x="200" y="80" /><use href="#l0" x="200" y="120" /><use href="#d0" x="182" y="142" /><use href="#d0" x="182" y="182" /><use href="#d0" x="182" y="222" /><use href="#d0" x="182" y="262" /><use href="#l0" x="200" y="320" /><use href="#d0" x="222" y="22" /><use href="#d0" x="222" y="62" /><use href="#d0" x="222" y="102" /><use href="#l0" x="240" y="160" /><use href="#l0" x="240" y="200" /><use href="#l0" x="240" y="240" /><use href="#d0" x="222" y="262" /><use href="#d0" x="222" y="302" /><use href="#l0" x="280" y="40" /><g transform="translate(262,62)"><use href="#p0" /><polygon points="0,0 0,36 36,36 36,0" fill="#FAED24"><animate attributeType="XML" attributeName="fill" values="#FAED24;#423E37;#FAED24;#FAED24" dur="0.6s" repeatCount="indefinite"/></polygon></g><use href="#d0" x="262" y="102" /><g transform="translate(280,160)"><use href="#b0" /><circle r="18" fill="#92B83C"><animate attributeType="XML" attributeName="fill" values="#92B83C;#1E62AB;#92B83C;#92B83C" dur="0.8s" repeatCount="indefinite"/></circle></g><use href="#d0" x="262" y="182" /><g transform="translate(262,222)"><use href="#p0" /><polygon points="0,0 0,36 36,36 36,0" fill="#FAED24"><animate attributeType="XML" attributeName="fill" values="#FAED24;#423E37;#FAED24;#FAED24" dur="0.0s" repeatCount="indefinite"/></polygon></g><use href="#d0" x="262" y="262" /><use href="#l0" x="280" y="320" /><use href="#d0" x="302" y="22" /><use href="#d0" x="302" y="62" /><use href="#d0" x="302" y="102" /><use href="#d0" x="302" y="142" /><use href="#l0" x="320" y="200" /><g transform="translate(302,222)"><use href="#p0" /><polygon points="0,0 0,36 36,36 36,0" fill="#FAED24"><animate attributeType="XML" attributeName="fill" values="#FAED24;#423E37;#FAED24;#FAED24" dur="0.5s" repeatCount="indefinite"/></polygon></g><use href="#d0" x="302" y="262" /><use href="#l0" x="320" y="320" /></svg>