<svg width="360" height="360" xmlns="http://www.w3.org/2000/svg"><defs><animate id="aa" begin="0s"/><rect id="d0" width="36" height="36" fill="#FFC6FF"></rect><circle id="l0" r="18" fill="#FDFFB6"></circle></defs><rect width="100%" height="100%" fill="#CAFFBF" /><use href="#d0" x="22" y="22" /><use href="#d0" x="22" y="62" /><use href="#d0" x="22" y="102" /><use href="#d0" x="22" y="142" /><g transform="translate(40,200)"><use href="#b0" /><circle r="18" fill="#CAFFBF"><animate attributeType="XML" attributeName="fill" values="#CAFFBF;#FDFFB6;#CAFFBF;#CAFFBF" dur="0.0s" repeatCount="indefinite"/></circle></g><use href="#l0" x="40" y="240" /><g transform="translate(40,280)"><use href="#b0" /><circle r="18" fill="#CAFFBF"><animate attributeType="XML" attributeName="fill" values="#CAFFBF;#FDFFB6;#CAFFBF;#CAFFBF" dur="0.0s" repeatCount="indefinite"/></circle></g><use href="#d0" x="22" y="302" /><use href="#d0" x="62" y="22" /><g transform="translate(80,80)"><use href="#b0" /><circle r="18" fill="#CAFFBF"><animate attributeType="XML" attributeName="fill" values="#CAFFBF;#FDFFB6;#CAFFBF;#CAFFBF" dur="0.1s" repeatCount="indefinite"/></circle></g><g transform="translate(80,120)"><use href="#b0" /><circle r="18" fill="#CAFFBF"><animate attributeType="XML" attributeName="fill" values="#CAFFBF;#FDFFB6;#CAFFBF;#CAFFBF" dur="0.2s" repeatCount="indefinite"/></circle></g><g transform="translate(80,160)"><use href="#b0" /><circle r="18" fill="#CAFFBF"><animate attributeType="XML" attributeName="fill" values="#CAFFBF;#FDFFB6;#CAFFBF;#CAFFBF" dur="0.3s" repeatCount="indefinite"/></circle></g><use href="#d0" x="62" y="182" /><g transform="translate(62,222)"><use href="#p0" /><polygon points="0,0 0,36 36,36 36,0" fill="#BDB2FF"><animate attributeType="XML" attributeName="fill" values="#BDB2FF;#FFC6FF;#BDB2FF;#BDB2FF" dur="0.5s" repeatCount="indefinite"/></polygon></g><g transform="translate(80,280)"><use href="#b0" /><circle r="18" fill="#CAFFBF"><animate attributeType="XML" attributeName="fill" values="#CAFFBF;#FDFFB6;#CAFFBF;#CAFFBF" dur="0.6s" repeatCount="indefinite"/></circle></g><g transform="translate(80,320)"><use href="#b0" /><circle r="18" fill="#CAFFBF"><animate attributeType="XML" attributeName="fill" values="#CAFFBF;#FDFFB6;#CAFFBF;#CAFFBF" dur="0.7s" repeatCount="indefinite"/></circle></g><g transform="translate(102,22)"><use href="#p0" /><polygon points="0,0 0,36 36,36 36,0" fill="#BDB2FF"><animate attributeType="XML" attributeName="fill" values="#BDB2FF;#FFC6FF;#BDB2FF;#BDB2FF" dur="0.0s" repeatCount="indefinite"/></polygon></g><use href="#l0" x="120" y="80" /><g transform="translate(102,102)"><use href="#p0" /><polygon points="0,0 0,36 36,36 36,0" fill="#BDB2FF"><animate attributeType="XML" attributeName="fill" values="#BDB2FF;#FFC6FF;#BDB2FF;#BDB2FF" dur="0.4s" repeatCount="indefinite"/></polygon></g><g transform="translate(120,160)"><use href="#b0" /><circle r="18" fill="#CAFFBF"><animate attributeType="XML" attributeName="fill" values="#CAFFBF;#FDFFB6;#CAFFBF;#CAFFBF" dur="0.6s" repeatCount="indefinite"/></circle></g><use href="#d0" x="102" y="182" /><use href="#l0" x="120" y="240" /><use href="#d0" x="102" y="262" /><g transform="translate(120,320)"><use href="#b0" /><circle r="18" fill="#CAFFBF"><animate attributeType="XML" attributeName="fill" values="#CAFFBF;#FDFFB6;#CAFFBF;#CAFFBF" dur="0.4s" repeatCount="indefinite"/></circle></g><use href="#d0" x="142" y="22" /><use href="#d0" x="142" y="62" /><use href="#d0" x="142" y="102" /><use href="#l0" x="160" y="160" /><use href="#d0" x="142" y="182" /><g transform="translate(142,222)"><use href="#p0" /><polygon points="0,0 0,36 36,36 36,0" fill="#BDB2FF"><animate attributeType="XML" attributeName="fill" values="#BDB2FF;#FFC6FF;#BDB2FF;#BDB2FF" dur="0.5s" repeatCount="indefinite"/></polygon></g><use href="#d0" x="142" y="262" /><use href="#l0" x="160" y="320" /><use href="#d0" x="182" y="22" /><g transform="translate(200,80)"><use href="#b0" /><circle r="18" fill="#CAFFBF"><animate attributeType="XML" attributeName="fill" values="#CAFFBF;#FDFFB6;#CAFFBF;#CAFFBF" dur="0.4s" repeatCount="indefinite"/></circle></g><g transform="translate(182,102)"><use href="#p0" /><polygon points="0,0 0,36 36,36 36,0" fill="#BDB2FF"><animate attributeType="XML" attributeName="fill" values="#BDB2FF;#FFC6FF;#BDB2FF;#BDB2FF" dur="0.8s" repeatCount="indefinite"/></polygon></g><use href="#l0" x="200" y="160" /><g transform="translate(200,200)"><use href="#b0" /><circle r="18" fill="#CAFFBF"><animate attributeType="XML" attributeName="fill" values="#CAFFBF;#FDFFB6;#CAFFBF;#CAFFBF" dur="0.6s" repeatCount="indefinite"/></circle></g><use href="#d0" x="182" y="222" /><g transform="translate(200,280)"><use href="#b0" /><circle r="18" fill="#CAFFBF"><animate attributeType="XML" attributeName="fill" values="#CAFFBF;#FDFFB6;#CAFFBF;#CAFFBF" dur="0.4s" repeatCount="indefinite"/></circle></g><g transform="translate(182,302)"><use href="#p0" /><polygon points="0,0 0,36 36,36 36,0" fill="#BDB2FF"><animate attributeType="XML" attributeName="fill" values="#BDB2FF;#FFC6FF;#BDB2FF;#BDB2FF" dur="0.8s" repeatCount="indefinite"/></polygon></g><use href="#l0" x="240" y="40" /><use href="#l0" x="240" y="80" /><use href="#d0" x="222" y="102" /><use href="#d0" x="222" y="142" /><g transform="translate(222,182)"><use href="#p0" /><polygon points="0,0 0,36 36,36 36,0" fill="#BDB2FF"><animate attributeType="XML" attributeName="fill" values="#BDB2FF;#FFC6FF;#BDB2FF;#BDB2FF" dur="0.0s" repeatCount="indefinite"/></polygon></g><use href="#d0" x="222" y="222" /><use href="#d0" x="222" y="262" /><use href="#l0" x="240" y="320" /><g transform="translate(280,40)"><use href="#b0" /><circle r="18" fill="#CAFFBF"><animate attributeType="XML" attributeName="fill" values="#CAFFBF;#FDFFB6;#CAFFBF;#CAFFBF" dur="0.0s" repeatCount="indefinite"/></circle></g><g transform="translate(280,80)"><use href="#b0" /><circle r="18" fill="#CAFFBF"><animate attributeType="XML" attributeName="fill" values="#CAFFBF;#FDFFB6;#CAFFBF;#CAFFBF" dur="0.6s" repeatCount="indefinite"/></circle></g><use href="#d0" x="262" y="102" /><use href="#l0" x="280" y="160" /><use href="#l0" x="280" y="200" /><use href="#l0" x="280" y="240" /><use href="#l0" x="280" y="280" /><use href="#d0" x="262" y="302" /><use href="#d0" x="302" y="22" /><use href="#d0" x="302" y="62" /><g transform="translate(320,120)"><use href="#b0" /><circle r="18" fill="#CAFFBF"><animate attributeType="XML" attributeName="fill" values="#CAFFBF;#FDFFB6;#CAFFBF;#CAFFBF" dur="0.4s" repeatCount="indefinite"/></circle></g><g transform="translate(302,142)"><use href="#p0" /><polygon points="0,0 0,36 36,36 36,0" fill="#BDB2FF"><animate attributeType="XML" attributeName="fill" values="#BDB2FF;#FFC6FF;#BDB2FF;#BDB2FF" dur="0.1s" repeatCount="indefinite"/></polygon></g><use href="#d0" x="302" y="182" /><use href="#d0" x="302" y="222" /><g transform="translate(302,262)"><use href="#p0" /><polygon points="0,0 0,36 36,36 36,0" fill="#BDB2FF"><animate attributeType="XML" attributeName="fill" values="#BDB2FF;#FFC6FF;#BDB2FF;#BDB2FF" dur="0.2s" repeatCount="indefinite"/></polygon></g><g transform="translate(320,320)"><use href="#b0" /><circle r="18" fill="#CAFFBF"><animate attributeType="XML" attributeName="fill" values="#CAFFBF;#FDFFB6;#CAFFBF;#CAFFBF" dur="0.9s" repeatCount="indefinite"/></circle></g></svg>