<svg width="360" height="360" xmlns="http://www.w3.org/2000/svg"><defs><animate id="aa" begin="0s"/><rect id="l0" width="36" height="36" fill="#fad643"></rect><circle id="d0" r="18" fill="#ffe169"></circle></defs><rect width="100%" height="100%" fill="#76520e" /><g transform="translate(22,22)"><use href="#b0" /><polygon points="0,0 0,36 36,36 36,0" fill="#a47e1b"><animate attributeType="XML" attributeName="fill" values="#a47e1b;#fad643;#a47e1b;#a47e1b" dur="1.0s" repeatCount="indefinite"/></polygon></g><g transform="translate(22,62)"><use href="#b0" /><polygon points="0,0 0,36 36,36 36,0" fill="#a47e1b"><animate attributeType="XML" attributeName="fill" values="#a47e1b;#fad643;#a47e1b;#a47e1b" dur="1.0s" repeatCount="indefinite"/></polygon></g><use href="#d0" x="40" y="120" /><use href="#d0" x="40" y="160" /><use href="#d0" x="40" y="200" /><use href="#d0" x="40" y="240" /><use href="#d0" x="40" y="280" /><g transform="translate(22,302)"><use href="#b0" /><polygon points="0,0 0,36 36,36 36,0" fill="#a47e1b"><animate attributeType="XML" attributeName="fill" values="#a47e1b;#fad643;#a47e1b;#a47e1b" dur="1.0s" repeatCount="indefinite"/></polygon></g><g transform="translate(80,40)"><use href="#p0" /><circle r="18" fill="#dbb42c"><animate attributeType="XML" attributeName="fill" values="#dbb42c;#ffe169;#dbb42c;#dbb42c" dur="1.0s" repeatCount="indefinite"/></circle></g><g transform="translate(80,80)"><use href="#p0" /><circle r="18" fill="#dbb42c"><animate attributeType="XML" attributeName="fill" values="#dbb42c;#ffe169;#dbb42c;#dbb42c" dur="1.1s" repeatCount="indefinite"/></circle></g><g transform="translate(62,102)"><use href="#b0" /><polygon points="0,0 0,36 36,36 36,0" fill="#a47e1b"><animate attributeType="XML" attributeName="fill" values="#a47e1b;#fad643;#a47e1b;#a47e1b" dur="1.2s" repeatCount="indefinite"/></polygon></g><use href="#d0" x="80" y="160" /><use href="#d0" x="80" y="200" /><use href="#d0" x="80" y="240" /><g transform="translate(62,262)"><use href="#b0" /><polygon points="0,0 0,36 36,36 36,0" fill="#a47e1b"><animate attributeType="XML" attributeName="fill" values="#a47e1b;#fad643;#a47e1b;#a47e1b" dur="1.6s" repeatCount="indefinite"/></polygon></g><g transform="translate(80,320)"><use href="#p0" /><circle r="18" fill="#dbb42c"><animate attributeType="XML" attributeName="fill" values="#dbb42c;#ffe169;#dbb42c;#dbb42c" dur="1.7s" repeatCount="indefinite"/></circle></g><use href="#d0" x="120" y="40" /><use href="#l0" x="102" y="62" /><use href="#l0" x="102" y="102" /><use href="#d0" x="120" y="160" /><use href="#d0" x="120" y="200" /><use href="#d0" x="120" y="240" /><g transform="translate(120,280)"><use href="#p0" /><circle r="18" fill="#dbb42c"><animate attributeType="XML" attributeName="fill" values="#dbb42c;#ffe169;#dbb42c;#dbb42c" dur="1.2s" repeatCount="indefinite"/></circle></g><use href="#d0" x="120" y="320" /><use href="#d0" x="160" y="40" /><use href="#d0" x="160" y="80" /><use href="#d0" x="160" y="120" /><use href="#d0" x="160" y="160" /><use href="#d0" x="160" y="200" /><use href="#d0" x="160" y="240" /><use href="#d0" x="160" y="280" /><use href="#d0" x="160" y="320" /><use href="#d0" x="200" y="40" /><use href="#d0" x="200" y="80" /><use href="#d0" x="200" y="120" /><use href="#d0" x="200" y="160" /><use href="#d0" x="200" y="200" /><use href="#d0" x="200" y="240" /><use href="#d0" x="200" y="280" /><use href="#d0" x="200" y="320" /><use href="#d0" x="240" y="40" /><use href="#d0" x="240" y="80" /><use href="#d0" x="240" y="120" /><use href="#d0" x="240" y="160" /><use href="#d0" x="240" y="200" /><use href="#d0" x="240" y="240" /><use href="#d0" x="240" y="280" /><use href="#d0" x="240" y="320" /><use href="#d0" x="280" y="40" /><use href="#d0" x="280" y="80" /><use href="#d0" x="280" y="120" /><use href="#d0" x="280" y="160" /><use href="#d0" x="280" y="200" /><use href="#d0" x="280" y="240" /><use href="#d0" x="280" y="280" /><use href="#d0" x="280" y="320" /><g transform="translate(302,22)"><use href="#b0" /><polygon points="0,0 0,36 36,36 36,0" fill="#a47e1b"><animate attributeType="XML" attributeName="fill" values="#a47e1b;#fad643;#a47e1b;#a47e1b" dur="1.0s" repeatCount="indefinite"/></polygon></g><g transform="translate(302,62)"><use href="#b0" /><polygon points="0,0 0,36 36,36 36,0" fill="#a47e1b"><animate attributeType="XML" attributeName="fill" values="#a47e1b;#fad643;#a47e1b;#a47e1b" dur="1.7s" repeatCount="indefinite"/></polygon></g><use href="#d0" x="320" y="120" /><use href="#d0" x="320" y="160" /><use href="#d0" x="320" y="200" /><use href="#d0" x="320" y="240" /><use href="#d0" x="320" y="280" /><g transform="translate(302,302)"><use href="#b0" /><polygon points="0,0 0,36 36,36 36,0" fill="#a47e1b"><animate attributeType="XML" attributeName="fill" values="#a47e1b;#fad643;#a47e1b;#a47e1b" dur="1.9s" repeatCount="indefinite"/></polygon></g></svg>