<svg width="360" height="360" xmlns="http://www.w3.org/2000/svg"><defs><animate id="aa" begin="0s"/><rect id="l0" width="36" height="36" fill="#FF1053"></rect><circle id="d0" r="18" fill="#251101"></circle></defs><rect width="100%" height="100%" fill="#071E22" /><g transform="translate(22,22)"><use href="#b0" /><polygon points="0,0 0,36 36,36 36,0" fill="#D2F898"><animate attributeType="XML" attributeName="fill" values="#D2F898;#FF1053;#D2F898;#D2F898" dur="1.0s" repeatCount="indefinite"/></polygon></g><g transform="translate(40,80)"><use href="#p0" /><circle r="18" fill="#3D3522"><animate attributeType="XML" attributeName="fill" values="#3D3522;#251101;#3D3522;#3D3522" dur="1.0s" repeatCount="indefinite"/></circle></g><use href="#d0" x="40" y="120" /><use href="#d0" x="40" y="160" /><g transform="translate(40,200)"><use href="#p0" /><circle r="18" fill="#3D3522"><animate attributeType="XML" attributeName="fill" values="#3D3522;#251101;#3D3522;#3D3522" dur="1.0s" repeatCount="indefinite"/></circle></g><use href="#d0" x="40" y="240" /><use href="#d0" x="40" y="280" /><use href="#d0" x="40" y="320" /><g transform="translate(62,22)"><use href="#b0" /><polygon points="0,0 0,36 36,36 36,0" fill="#D2F898"><animate attributeType="XML" attributeName="fill" values="#D2F898;#FF1053;#D2F898;#D2F898" dur="1.0s" repeatCount="indefinite"/></polygon></g><g transform="translate(80,80)"><use href="#p0" /><circle r="18" fill="#3D3522"><animate attributeType="XML" attributeName="fill" values="#3D3522;#251101;#3D3522;#3D3522" dur="1.1s" repeatCount="indefinite"/></circle></g><g transform="translate(80,120)"><use href="#p0" /><circle r="18" fill="#3D3522"><animate attributeType="XML" attributeName="fill" values="#3D3522;#251101;#3D3522;#3D3522" dur="1.2s" repeatCount="indefinite"/></circle></g><g transform="translate(80,160)"><use href="#p0" /><circle r="18" fill="#3D3522"><animate attributeType="XML" attributeName="fill" values="#3D3522;#251101;#3D3522;#3D3522" dur="1.3s" repeatCount="indefinite"/></circle></g><g transform="translate(80,200)"><use href="#p0" /><circle r="18" fill="#3D3522"><animate attributeType="XML" attributeName="fill" values="#3D3522;#251101;#3D3522;#3D3522" dur="1.4s" repeatCount="indefinite"/></circle></g><g transform="translate(80,240)"><use href="#p0" /><circle r="18" fill="#3D3522"><animate attributeType="XML" attributeName="fill" values="#3D3522;#251101;#3D3522;#3D3522" dur="1.5s" repeatCount="indefinite"/></circle></g><use href="#d0" x="80" y="280" /><use href="#d0" x="80" y="320" /><use href="#l0" x="102" y="22" /><use href="#d0" x="120" y="80" /><use href="#d0" x="120" y="120" /><use href="#d0" x="120" y="160" /><use href="#d0" x="120" y="200" /><g transform="translate(102,222)"><use href="#b0" /><polygon points="0,0 0,36 36,36 36,0" fill="#D2F898"><animate attributeType="XML" attributeName="fill" values="#D2F898;#FF1053;#D2F898;#D2F898" dur="1.0s" repeatCount="indefinite"/></polygon></g><use href="#l0" x="102" y="262" /><use href="#d0" x="120" y="320" /><use href="#l0" x="142" y="22" /><use href="#d0" x="160" y="80" /><g transform="translate(160,120)"><use href="#p0" /><circle r="18" fill="#3D3522"><animate attributeType="XML" attributeName="fill" values="#3D3522;#251101;#3D3522;#3D3522" dur="1.6s" repeatCount="indefinite"/></circle></g><g transform="translate(142,142)"><use href="#b0" /><polygon points="0,0 0,36 36,36 36,0" fill="#D2F898"><animate attributeType="XML" attributeName="fill" values="#D2F898;#FF1053;#D2F898;#D2F898" dur="1.9s" repeatCount="indefinite"/></polygon></g><g transform="translate(160,200)"><use href="#p0" /><circle r="18" fill="#3D3522"><animate attributeType="XML" attributeName="fill" values="#3D3522;#251101;#3D3522;#3D3522" dur="1.2s" repeatCount="indefinite"/></circle></g><use href="#d0" x="160" y="240" /><use href="#l0" x="142" y="262" /><use href="#d0" x="160" y="320" /><use href="#l0" x="182" y="22" /><use href="#d0" x="200" y="80" /><use href="#d0" x="200" y="120" /><g transform="translate(200,160)"><use href="#p0" /><circle r="18" fill="#3D3522"><animate attributeType="XML" attributeName="fill" values="#3D3522;#251101;#3D3522;#3D3522" dur="1.2s" repeatCount="indefinite"/></circle></g><use href="#l0" x="182" y="182" /><g transform="translate(182,222)"><use href="#b0" /><polygon points="0,0 0,36 36,36 36,0" fill="#D2F898"><animate attributeType="XML" attributeName="fill" values="#D2F898;#FF1053;#D2F898;#D2F898" dur="1.0s" repeatCount="indefinite"/></polygon></g><g transform="translate(182,262)"><use href="#b0" /><polygon points="0,0 0,36 36,36 36,0" fill="#D2F898"><animate attributeType="XML" attributeName="fill" values="#D2F898;#FF1053;#D2F898;#D2F898" dur="1.4s" repeatCount="indefinite"/></polygon></g><use href="#d0" x="200" y="320" /><use href="#d0" x="240" y="40" /><use href="#l0" x="222" y="62" /><use href="#l0" x="222" y="102" /><g transform="translate(240,160)"><use href="#p0" /><circle r="18" fill="#3D3522"><animate attributeType="XML" attributeName="fill" values="#3D3522;#251101;#3D3522;#3D3522" dur="1.5s" repeatCount="indefinite"/></circle></g><use href="#l0" x="222" y="182" /><use href="#d0" x="240" y="240" /><g transform="translate(222,262)"><use href="#b0" /><polygon points="0,0 0,36 36,36 36,0" fill="#D2F898"><animate attributeType="XML" attributeName="fill" values="#D2F898;#FF1053;#D2F898;#D2F898" dur="1.0s" repeatCount="indefinite"/></polygon></g><use href="#l0" x="222" y="302" /><use href="#d0" x="280" y="40" /><use href="#l0" x="262" y="62" /><use href="#d0" x="280" y="120" /><use href="#d0" x="280" y="160" /><g transform="translate(280,200)"><use href="#p0" /><circle r="18" fill="#3D3522"><animate attributeType="XML" attributeName="fill" values="#3D3522;#251101;#3D3522;#3D3522" dur="1.4s" repeatCount="indefinite"/></circle></g><use href="#d0" x="280" y="240" /><g transform="translate(262,262)"><use href="#b0" /><polygon points="0,0 0,36 36,36 36,0" fill="#D2F898"><animate attributeType="XML" attributeName="fill" values="#D2F898;#FF1053;#D2F898;#D2F898" dur="1.6s" repeatCount="indefinite"/></polygon></g><g transform="translate(262,302)"><use href="#b0" /><polygon points="0,0 0,36 36,36 36,0" fill="#D2F898"><animate attributeType="XML" attributeName="fill" values="#D2F898;#FF1053;#D2F898;#D2F898" dur="1.2s" repeatCount="indefinite"/></polygon></g><use href="#d0" x="320" y="40" /><use href="#l0" x="302" y="62" /><g transform="translate(302,102)"><use href="#b0" /><polygon points="0,0 0,36 36,36 36,0" fill="#D2F898"><animate attributeType="XML" attributeName="fill" values="#D2F898;#FF1053;#D2F898;#D2F898" dur="1.4s" repeatCount="indefinite"/></polygon></g><use href="#l0" x="302" y="142" /><use href="#l0" x="302" y="182" /><use href="#l0" x="302" y="222" /><g transform="translate(302,262)"><use href="#b0" /><polygon points="0,0 0,36 36,36 36,0" fill="#D2F898"><animate attributeType="XML" attributeName="fill" values="#D2F898;#FF1053;#D2F898;#D2F898" dur="1.2s" repeatCount="indefinite"/></polygon></g><use href="#d0" x="320" y="320" /></svg>