<svg width="360" height="360" xmlns="http://www.w3.org/2000/svg"><defs><animate id="aa" begin="0s"/><rect id="l0" width="36" height="36" fill="#0f3375"></rect><circle id="d0" r="18" fill="#cce4fd"></circle></defs><rect width="100%" height="100%" fill="#e8f3fe" /><use href="#d0" x="40" y="40" /><use href="#d0" x="40" y="80" /><use href="#d0" x="40" y="120" /><use href="#d0" x="40" y="160" /><use href="#d0" x="40" y="200" /><g transform="translate(22,222)"><use href="#b0" /><polygon points="0,0 0,36 36,36 36,0" fill="#196bde"><animate attributeType="XML" attributeName="fill" values="#196bde;#0f3375;#196bde;#196bde" dur="3s" begin="aa.begin +1s" repeatCount="indefinite"/></polygon></g><use href="#l0" x="22" y="262" /><use href="#d0" x="40" y="320" /><use href="#l0" x="62" y="22" /><use href="#d0" x="80" y="80" /><use href="#l0" x="62" y="102" /><use href="#d0" x="80" y="160" /><use href="#d0" x="80" y="200" /><use href="#d0" x="80" y="240" /><use href="#d0" x="80" y="280" /><use href="#d0" x="80" y="320" /><use href="#l0" x="102" y="22" /><use href="#d0" x="120" y="80" /><use href="#l0" x="102" y="102" /><use href="#l0" x="102" y="142" /><use href="#l0" x="102" y="182" /><use href="#l0" x="102" y="222" /><use href="#l0" x="102" y="262" /><use href="#l0" x="102" y="302" /><use href="#d0" x="160" y="40" /><use href="#d0" x="160" y="80" /><use href="#d0" x="160" y="120" /><use href="#d0" x="160" y="160" /><use href="#d0" x="160" y="200" /><use href="#d0" x="160" y="240" /><use href="#d0" x="160" y="280" /><use href="#d0" x="160" y="320" /><use href="#l0" x="182" y="22" /><use href="#l0" x="182" y="62" /><use href="#l0" x="182" y="102" /><use href="#l0" x="182" y="142" /><g transform="translate(200,200)"><use href="#p0" /><circle r="18" fill="#a4cefc"><animate attributeType="XML" attributeName="fill" values="#a4cefc;#cce4fd;#a4cefc;#a4cefc" dur="3s" begin="aa.begin +1.5s" repeatCount="indefinite"/></circle></g><use href="#d0" x="200" y="240" /><use href="#d0" x="200" y="280" /><g transform="translate(200,320)"><use href="#p0" /><circle r="18" fill="#a4cefc"><animate attributeType="XML" attributeName="fill" values="#a4cefc;#cce4fd;#a4cefc;#a4cefc" dur="3s" begin="aa.begin +2s" repeatCount="indefinite"/></circle></g><use href="#d0" x="240" y="40" /><g transform="translate(222,62)"><use href="#b0" /><polygon points="0,0 0,36 36,36 36,0" fill="#196bde"><animate attributeType="XML" attributeName="fill" values="#196bde;#0f3375;#196bde;#196bde" dur="3s" begin="aa.begin +s" repeatCount="indefinite"/></polygon></g><use href="#d0" x="240" y="120" /><g transform="translate(222,142)"><use href="#b0" /><polygon points="0,0 0,36 36,36 36,0" fill="#196bde"><animate attributeType="XML" attributeName="fill" values="#196bde;#0f3375;#196bde;#196bde" dur="3s" begin="aa.begin +2.5s" repeatCount="indefinite"/></polygon></g><use href="#d0" x="240" y="200" /><g transform="translate(222,222)"><use href="#b0" /><polygon points="0,0 0,36 36,36 36,0" fill="#196bde"><animate attributeType="XML" attributeName="fill" values="#196bde;#0f3375;#196bde;#196bde" dur="3s" begin="aa.begin +3s" repeatCount="indefinite"/></polygon></g><g transform="translate(222,262)"><use href="#b0" /><polygon points="0,0 0,36 36,36 36,0" fill="#196bde"><animate attributeType="XML" attributeName="fill" values="#196bde;#0f3375;#196bde;#196bde" dur="3s" begin="aa.begin +3.5s" repeatCount="indefinite"/></polygon></g><g transform="translate(222,302)"><use href="#b0" /><polygon points="0,0 0,36 36,36 36,0" fill="#196bde"><animate attributeType="XML" attributeName="fill" values="#196bde;#0f3375;#196bde;#196bde" dur="3s" begin="aa.begin +4s" repeatCount="indefinite"/></polygon></g><g transform="translate(262,22)"><use href="#b0" /><polygon points="0,0 0,36 36,36 36,0" fill="#196bde"><animate attributeType="XML" attributeName="fill" values="#196bde;#0f3375;#196bde;#196bde" dur="3s" begin="aa.begin +4.5s" repeatCount="indefinite"/></polygon></g><use href="#d0" x="280" y="80" /><use href="#d0" x="280" y="120" /><g transform="translate(262,142)"><use href="#b0" /><polygon points="0,0 0,36 36,36 36,0" fill="#196bde"><animate attributeType="XML" attributeName="fill" values="#196bde;#0f3375;#196bde;#196bde" dur="3s" begin="aa.begin +5s" repeatCount="indefinite"/></polygon></g><g transform="translate(280,200)"><use href="#p0" /><circle r="18" fill="#a4cefc"><animate attributeType="XML" attributeName="fill" values="#a4cefc;#cce4fd;#a4cefc;#a4cefc" dur="3s" begin="aa.begin +5.5s" repeatCount="indefinite"/></circle></g><g transform="translate(280,240)"><use href="#p0" /><circle r="18" fill="#a4cefc"><animate attributeType="XML" attributeName="fill" values="#a4cefc;#cce4fd;#a4cefc;#a4cefc" dur="3s" begin="aa.begin +6s" repeatCount="indefinite"/></circle></g><g transform="translate(280,280)"><use href="#p0" /><circle r="18" fill="#a4cefc"><animate attributeType="XML" attributeName="fill" values="#a4cefc;#cce4fd;#a4cefc;#a4cefc" dur="3s" begin="aa.begin +6.5s" repeatCount="indefinite"/></circle></g><use href="#d0" x="280" y="320" /><use href="#d0" x="320" y="40" /><use href="#d0" x="320" y="80" /><use href="#d0" x="320" y="120" /><use href="#d0" x="320" y="160" /><use href="#l0" x="302" y="182" /><use href="#d0" x="320" y="240" /><use href="#l0" x="302" y="262" /><use href="#l0" x="302" y="302" /></svg>