<svg width="360" height="360" xmlns="http://www.w3.org/2000/svg"><defs><animate id="aa" begin="0s"/><rect id="d0" width="36" height="36" fill="#c43240"></rect><circle id="l0" r="18" fill="#01263d"></circle></defs><rect width="100%" height="100%" fill="#ef4043" /><g transform="translate(40,40)"><use href="#b0" /><circle r="18" fill="#72bad5"><animate attributeType="XML" attributeName="fill" values="#72bad5;#01263d;#72bad5;#72bad5" dur="4s" begin="aa.begin +1s" repeatCount="indefinite"/></circle></g><use href="#d0" x="22" y="62" /><use href="#d0" x="22" y="102" /><use href="#d0" x="22" y="142" /><use href="#d0" x="22" y="182" /><use href="#d0" x="22" y="222" /><use href="#l0" x="40" y="280" /><g transform="translate(22,302)"><use href="#p0" /><polygon points="0,0 0,36 36,36 36,0" fill="#be1e2d"><animate attributeType="XML" attributeName="fill" values="#be1e2d;#c43240;#be1e2d;#be1e2d" dur="4s" begin="aa.begin +1.5s" repeatCount="indefinite"/></polygon></g><use href="#d0" x="62" y="22" /><use href="#d0" x="62" y="62" /><use href="#d0" x="62" y="102" /><use href="#l0" x="80" y="160" /><use href="#l0" x="80" y="200" /><use href="#d0" x="62" y="222" /><use href="#l0" x="80" y="280" /><use href="#d0" x="62" y="302" /><use href="#d0" x="102" y="22" /><use href="#d0" x="102" y="62" /><use href="#l0" x="120" y="120" /><use href="#d0" x="102" y="142" /><use href="#l0" x="120" y="200" /><use href="#d0" x="102" y="222" /><use href="#l0" x="120" y="280" /><use href="#l0" x="120" y="320" /><g transform="translate(160,40)"><use href="#b0" /><circle r="18" fill="#72bad5"><animate attributeType="XML" attributeName="fill" values="#72bad5;#01263d;#72bad5;#72bad5" dur="4s" begin="aa.begin +2s" repeatCount="indefinite"/></circle></g><use href="#d0" x="142" y="62" /><use href="#l0" x="160" y="120" /><use href="#d0" x="142" y="142" /><use href="#l0" x="160" y="200" /><use href="#d0" x="142" y="222" /><use href="#d0" x="142" y="262" /><use href="#d0" x="142" y="302" /><use href="#l0" x="200" y="40" /><use href="#d0" x="182" y="62" /><use href="#l0" x="200" y="120" /><use href="#d0" x="182" y="142" /><use href="#d0" x="182" y="182" /><use href="#l0" x="200" y="240" /><g transform="translate(200,280)"><use href="#b0" /><circle r="18" fill="#72bad5"><animate attributeType="XML" attributeName="fill" values="#72bad5;#01263d;#72bad5;#72bad5" dur="4s" begin="aa.begin +s" repeatCount="indefinite"/></circle></g><use href="#l0" x="200" y="320" /><use href="#d0" x="222" y="22" /><use href="#d0" x="222" y="62" /><use href="#l0" x="240" y="120" /><use href="#d0" x="222" y="142" /><use href="#l0" x="240" y="200" /><g transform="translate(222,222)"><use href="#p0" /><polygon points="0,0 0,36 36,36 36,0" fill="#be1e2d"><animate attributeType="XML" attributeName="fill" values="#be1e2d;#c43240;#be1e2d;#be1e2d" dur="4s" begin="aa.begin +2.5s" repeatCount="indefinite"/></polygon></g><use href="#d0" x="222" y="262" /><use href="#d0" x="222" y="302" /><use href="#l0" x="280" y="40" /><use href="#d0" x="262" y="62" /><g transform="translate(262,102)"><use href="#p0" /><polygon points="0,0 0,36 36,36 36,0" fill="#be1e2d"><animate attributeType="XML" attributeName="fill" values="#be1e2d;#c43240;#be1e2d;#be1e2d" dur="4s" begin="aa.begin +3s" repeatCount="indefinite"/></polygon></g><use href="#d0" x="262" y="142" /><use href="#d0" x="262" y="182" /><use href="#d0" x="262" y="222" /><use href="#l0" x="280" y="280" /><use href="#l0" x="280" y="320" /><g transform="translate(302,22)"><use href="#p0" /><polygon points="0,0 0,36 36,36 36,0" fill="#be1e2d"><animate attributeType="XML" attributeName="fill" values="#be1e2d;#c43240;#be1e2d;#be1e2d" dur="4s" begin="aa.begin +3.5s" repeatCount="indefinite"/></polygon></g><use href="#l0" x="320" y="80" /><use href="#l0" x="320" y="120" /><use href="#l0" x="320" y="160" /><use href="#l0" x="320" y="200" /><use href="#l0" x="320" y="240" /><use href="#d0" x="302" y="262" /><use href="#d0" x="302" y="302" /></svg>