<svg width="360" height="360" xmlns="http://www.w3.org/2000/svg"><defs><animate id="aa" begin="0s"/><rect id="l0" width="36" height="36" fill="#F72585"></rect><rect id="d0" width="36" height="36" fill="#159F91"></rect></defs><rect width="100%" height="100%" fill="#92F2E8" /><g transform="translate(22,22)"><use href="#b0" /><polygon points="0,0 0,36 36,36 36,0" fill="#7209B7"><animate attributeType="XML" attributeName="fill" values="#7209B7;#F72585;#7209B7;#7209B7" dur="1s" begin="aa.begin +1s" repeatCount="indefinite"/></polygon></g><use href="#d0" x="22" y="62" /><g transform="translate(22,102)"><use href="#p0" /><polygon points="0,0 0,36 36,36 36,0" fill="#1EE3CF"><animate attributeType="XML" attributeName="fill" values="#1EE3CF;#159F91;#1EE3CF;#1EE3CF" dur="1s" begin="aa.begin +1.5s" repeatCount="indefinite"/></polygon></g><g transform="translate(22,142)"><use href="#b0" /><polygon points="0,0 0,36 36,36 36,0" fill="#7209B7"><animate attributeType="XML" attributeName="fill" values="#7209B7;#F72585;#7209B7;#7209B7" dur="1s" begin="aa.begin +2s" repeatCount="indefinite"/></polygon></g><use href="#l0" x="22" y="182" /><use href="#d0" x="22" y="222" /><g transform="translate(22,262)"><use href="#p0" /><polygon points="0,0 0,36 36,36 36,0" fill="#1EE3CF"><animate attributeType="XML" attributeName="fill" values="#1EE3CF;#159F91;#1EE3CF;#1EE3CF" dur="1s" begin="aa.begin +s" repeatCount="indefinite"/></polygon></g><use href="#d0" x="22" y="302" /><use href="#d0" x="62" y="22" /><g transform="translate(62,62)"><use href="#p0" /><polygon points="0,0 0,36 36,36 36,0" fill="#1EE3CF"><animate attributeType="XML" attributeName="fill" values="#1EE3CF;#159F91;#1EE3CF;#1EE3CF" dur="1s" begin="aa.begin +2.5s" repeatCount="indefinite"/></polygon></g><use href="#l0" x="62" y="102" /><use href="#d0" x="62" y="142" /><g transform="translate(62,182)"><use href="#b0" /><polygon points="0,0 0,36 36,36 36,0" fill="#7209B7"><animate attributeType="XML" attributeName="fill" values="#7209B7;#F72585;#7209B7;#7209B7" dur="1s" begin="aa.begin +3s" repeatCount="indefinite"/></polygon></g><use href="#l0" x="62" y="222" /><use href="#l0" x="62" y="262" /><use href="#l0" x="62" y="302" /><use href="#l0" x="102" y="22" /><use href="#d0" x="102" y="62" /><use href="#l0" x="102" y="102" /><use href="#d0" x="102" y="142" /><g transform="translate(102,182)"><use href="#b0" /><polygon points="0,0 0,36 36,36 36,0" fill="#7209B7"><animate attributeType="XML" attributeName="fill" values="#7209B7;#F72585;#7209B7;#7209B7" dur="1s" begin="aa.begin +3.5s" repeatCount="indefinite"/></polygon></g><use href="#d0" x="102" y="222" /><use href="#d0" x="102" y="262" /><use href="#d0" x="102" y="302" /><g transform="translate(142,22)"><use href="#b0" /><polygon points="0,0 0,36 36,36 36,0" fill="#7209B7"><animate attributeType="XML" attributeName="fill" values="#7209B7;#F72585;#7209B7;#7209B7" dur="1s" begin="aa.begin +4s" repeatCount="indefinite"/></polygon></g><use href="#d0" x="142" y="62" /><use href="#l0" x="142" y="102" /><use href="#d0" x="142" y="142" /><g transform="translate(142,182)"><use href="#b0" /><polygon points="0,0 0,36 36,36 36,0" fill="#7209B7"><animate attributeType="XML" attributeName="fill" values="#7209B7;#F72585;#7209B7;#7209B7" dur="1s" begin="aa.begin +4.5s" repeatCount="indefinite"/></polygon></g><g transform="translate(142,222)"><use href="#p0" /><polygon points="0,0 0,36 36,36 36,0" fill="#1EE3CF"><animate attributeType="XML" attributeName="fill" values="#1EE3CF;#159F91;#1EE3CF;#1EE3CF" dur="1s" begin="aa.begin +5s" repeatCount="indefinite"/></polygon></g><use href="#l0" x="142" y="262" /><g transform="translate(142,302)"><use href="#p0" /><polygon points="0,0 0,36 36,36 36,0" fill="#1EE3CF"><animate attributeType="XML" attributeName="fill" values="#1EE3CF;#159F91;#1EE3CF;#1EE3CF" dur="1s" begin="aa.begin +5.5s" repeatCount="indefinite"/></polygon></g><use href="#l0" x="182" y="22" /><use href="#d0" x="182" y="62" /><g transform="translate(182,102)"><use href="#p0" /><polygon points="0,0 0,36 36,36 36,0" fill="#1EE3CF"><animate attributeType="XML" attributeName="fill" values="#1EE3CF;#159F91;#1EE3CF;#1EE3CF" dur="1s" begin="aa.begin +6s" repeatCount="indefinite"/></polygon></g><use href="#d0" x="182" y="142" /><use href="#d0" x="182" y="182" /><use href="#l0" x="182" y="222" /><g transform="translate(182,262)"><use href="#b0" /><polygon points="0,0 0,36 36,36 36,0" fill="#7209B7"><animate attributeType="XML" attributeName="fill" values="#7209B7;#F72585;#7209B7;#7209B7" dur="1s" begin="aa.begin +6.5s" repeatCount="indefinite"/></polygon></g><use href="#d0" x="182" y="302" /><use href="#l0" x="222" y="22" /><use href="#d0" x="222" y="62" /><use href="#d0" x="222" y="102" /><use href="#d0" x="222" y="142" /><use href="#d0" x="222" y="182" /><use href="#d0" x="222" y="222" /><use href="#d0" x="222" y="262" /><use href="#l0" x="222" y="302" /><g transform="translate(262,22)"><use href="#b0" /><polygon points="0,0 0,36 36,36 36,0" fill="#7209B7"><animate attributeType="XML" attributeName="fill" values="#7209B7;#F72585;#7209B7;#7209B7" dur="1s" begin="aa.begin +7s" repeatCount="indefinite"/></polygon></g><use href="#d0" x="262" y="62" /><g transform="translate(262,102)"><use href="#b0" /><polygon points="0,0 0,36 36,36 36,0" fill="#7209B7"><animate attributeType="XML" attributeName="fill" values="#7209B7;#F72585;#7209B7;#7209B7" dur="1s" begin="aa.begin +7.5s" repeatCount="indefinite"/></polygon></g><use href="#l0" x="262" y="142" /><use href="#l0" x="262" y="182" /><use href="#l0" x="262" y="222" /><g transform="translate(262,262)"><use href="#b0" /><polygon points="0,0 0,36 36,36 36,0" fill="#7209B7"><animate attributeType="XML" attributeName="fill" values="#7209B7;#F72585;#7209B7;#7209B7" dur="1s" begin="aa.begin +8s" repeatCount="indefinite"/></polygon></g><use href="#d0" x="262" y="302" /><g transform="translate(302,22)"><use href="#b0" /><polygon points="0,0 0,36 36,36 36,0" fill="#7209B7"><animate attributeType="XML" attributeName="fill" values="#7209B7;#F72585;#7209B7;#7209B7" dur="1s" begin="aa.begin +8.5s" repeatCount="indefinite"/></polygon></g><g transform="translate(302,62)"><use href="#p0" /><polygon points="0,0 0,36 36,36 36,0" fill="#1EE3CF"><animate attributeType="XML" attributeName="fill" values="#1EE3CF;#159F91;#1EE3CF;#1EE3CF" dur="1s" begin="aa.begin +9s" repeatCount="indefinite"/></polygon></g><use href="#l0" x="302" y="102" /><use href="#d0" x="302" y="142" /><use href="#d0" x="302" y="182" /><use href="#d0" x="302" y="222" /><use href="#l0" x="302" y="262" /><use href="#d0" x="302" y="302" /></svg>