<svg width="360" height="360" xmlns="http://www.w3.org/2000/svg"><defs><animate id="aa" begin="0s"/><circle id="l0" r="18" fill="#9500ff"></circle><circle id="d0" r="18" fill="#ff0059"></circle></defs><rect width="100%" height="100%" fill="#0fffdb" /><use href="#d0" x="40" y="40" /><g transform="translate(40,80)"><use href="#p0" /><circle r="18" fill="#ff8c00"><animate attributeType="XML" attributeName="fill" values="#ff8c00;#ff0059;#ff8c00;#ff8c00" dur="3s" begin="aa.begin +1s" repeatCount="indefinite"/></circle></g><g transform="translate(40,120)"><use href="#p0" /><circle r="18" fill="#ff8c00"><animate attributeType="XML" attributeName="fill" values="#ff8c00;#ff0059;#ff8c00;#ff8c00" dur="3s" begin="aa.begin +1.5s" repeatCount="indefinite"/></circle></g><use href="#d0" x="40" y="160" /><use href="#d0" x="40" y="200" /><use href="#d0" x="40" y="240" /><use href="#d0" x="40" y="280" /><use href="#d0" x="40" y="320" /><use href="#d0" x="80" y="40" /><use href="#d0" x="80" y="80" /><use href="#d0" x="80" y="120" /><use href="#d0" x="80" y="160" /><use href="#d0" x="80" y="200" /><use href="#d0" x="80" y="240" /><use href="#d0" x="80" y="280" /><use href="#d0" x="80" y="320" /><use href="#d0" x="120" y="40" /><use href="#d0" x="120" y="80" /><use href="#d0" x="120" y="120" /><use href="#d0" x="120" y="160" /><use href="#d0" x="120" y="200" /><use href="#d0" x="120" y="240" /><use href="#d0" x="120" y="280" /><use href="#d0" x="120" y="320" /><use href="#d0" x="160" y="40" /><use href="#d0" x="160" y="80" /><use href="#d0" x="160" y="120" /><use href="#d0" x="160" y="160" /><use href="#d0" x="160" y="200" /><use href="#d0" x="160" y="240" /><use href="#d0" x="160" y="280" /><use href="#d0" x="160" y="320" /><g transform="translate(200,40)"><use href="#b0" /><circle r="18" fill="#2962ff"><animate attributeType="XML" attributeName="fill" values="#2962ff;#9500ff;#2962ff;#2962ff" dur="3s" begin="aa.begin +2s" repeatCount="indefinite"/></circle></g><g transform="translate(200,80)"><use href="#b0" /><circle r="18" fill="#2962ff"><animate attributeType="XML" attributeName="fill" values="#2962ff;#9500ff;#2962ff;#2962ff" dur="3s" begin="aa.begin +s" repeatCount="indefinite"/></circle></g><use href="#d0" x="200" y="120" /><use href="#d0" x="200" y="160" /><use href="#d0" x="200" y="200" /><use href="#d0" x="200" y="240" /><use href="#d0" x="200" y="280" /><g transform="translate(200,320)"><use href="#b0" /><circle r="18" fill="#2962ff"><animate attributeType="XML" attributeName="fill" values="#2962ff;#9500ff;#2962ff;#2962ff" dur="3s" begin="aa.begin +2.5s" repeatCount="indefinite"/></circle></g><g transform="translate(240,40)"><use href="#p0" /><circle r="18" fill="#ff8c00"><animate attributeType="XML" attributeName="fill" values="#ff8c00;#ff0059;#ff8c00;#ff8c00" dur="3s" begin="aa.begin +3s" repeatCount="indefinite"/></circle></g><g transform="translate(240,80)"><use href="#p0" /><circle r="18" fill="#ff8c00"><animate attributeType="XML" attributeName="fill" values="#ff8c00;#ff0059;#ff8c00;#ff8c00" dur="3s" begin="aa.begin +3.5s" repeatCount="indefinite"/></circle></g><g transform="translate(240,120)"><use href="#b0" /><circle r="18" fill="#2962ff"><animate attributeType="XML" attributeName="fill" values="#2962ff;#9500ff;#2962ff;#2962ff" dur="3s" begin="aa.begin +4s" repeatCount="indefinite"/></circle></g><use href="#d0" x="240" y="160" /><use href="#d0" x="240" y="200" /><use href="#d0" x="240" y="240" /><g transform="translate(240,280)"><use href="#b0" /><circle r="18" fill="#2962ff"><animate attributeType="XML" attributeName="fill" values="#2962ff;#9500ff;#2962ff;#2962ff" dur="3s" begin="aa.begin +4.5s" repeatCount="indefinite"/></circle></g><g transform="translate(240,320)"><use href="#p0" /><circle r="18" fill="#ff8c00"><animate attributeType="XML" attributeName="fill" values="#ff8c00;#ff0059;#ff8c00;#ff8c00" dur="3s" begin="aa.begin +5s" repeatCount="indefinite"/></circle></g><use href="#d0" x="280" y="40" /><use href="#l0" x="280" y="80" /><use href="#l0" x="280" y="120" /><use href="#d0" x="280" y="160" /><use href="#d0" x="280" y="200" /><use href="#d0" x="280" y="240" /><g transform="translate(280,280)"><use href="#p0" /><circle r="18" fill="#ff8c00"><animate attributeType="XML" attributeName="fill" values="#ff8c00;#ff0059;#ff8c00;#ff8c00" dur="3s" begin="aa.begin +5.5s" repeatCount="indefinite"/></circle></g><use href="#d0" x="280" y="320" /><use href="#d0" x="320" y="40" /><use href="#d0" x="320" y="80" /><use href="#d0" x="320" y="120" /><use href="#d0" x="320" y="160" /><use href="#d0" x="320" y="200" /><use href="#d0" x="320" y="240" /><use href="#d0" x="320" y="280" /><use href="#d0" x="320" y="320" /></svg>