<svg width="360" height="360" xmlns="http://www.w3.org/2000/svg"><defs><animate id="aa" begin="0s"/><rect id="l0" width="36" height="36" fill="#310055"></rect><circle id="d0" r="18" fill="#d283ff"></circle></defs><rect width="100%" height="100%" fill="#dc97ff" /><use href="#d0" x="40" y="40" /><use href="#d0" x="40" y="80" /><g transform="translate(22,102)"><use href="#b0" /><polygon points="0,0 0,36 36,36 36,0" fill="#ab51e3"><animate attributeType="XML" attributeName="fill" values="#ab51e3;#310055;#ab51e3;#ab51e3" dur="1.0s" repeatCount="indefinite"/></polygon></g><use href="#d0" x="40" y="160" /><use href="#l0" x="22" y="182" /><use href="#d0" x="40" y="240" /><g transform="translate(40,280)"><use href="#p0" /><circle r="18" fill="#bd68ee"><animate attributeType="XML" attributeName="fill" values="#bd68ee;#d283ff;#bd68ee;#bd68ee" dur="1.0s" repeatCount="indefinite"/></circle></g><use href="#d0" x="40" y="320" /><use href="#l0" x="62" y="22" /><use href="#l0" x="62" y="62" /><use href="#d0" x="80" y="120" /><g transform="translate(62,142)"><use href="#b0" /><polygon points="0,0 0,36 36,36 36,0" fill="#ab51e3"><animate attributeType="XML" attributeName="fill" values="#ab51e3;#310055;#ab51e3;#ab51e3" dur="1.3s" repeatCount="indefinite"/></polygon></g><use href="#l0" x="62" y="182" /><use href="#d0" x="80" y="240" /><use href="#l0" x="62" y="262" /><use href="#l0" x="62" y="302" /><use href="#d0" x="120" y="40" /><g transform="translate(102,62)"><use href="#b0" /><polygon points="0,0 0,36 36,36 36,0" fill="#ab51e3"><animate attributeType="XML" attributeName="fill" values="#ab51e3;#310055;#ab51e3;#ab51e3" dur="1.2s" repeatCount="indefinite"/></polygon></g><use href="#d0" x="120" y="120" /><use href="#d0" x="120" y="160" /><use href="#d0" x="120" y="200" /><use href="#l0" x="102" y="222" /><use href="#d0" x="120" y="280" /><g transform="translate(102,302)"><use href="#b0" /><polygon points="0,0 0,36 36,36 36,0" fill="#ab51e3"><animate attributeType="XML" attributeName="fill" values="#ab51e3;#310055;#ab51e3;#ab51e3" dur="1.4s" repeatCount="indefinite"/></polygon></g><use href="#d0" x="160" y="40" /><use href="#l0" x="142" y="62" /><g transform="translate(142,102)"><use href="#b0" /><polygon points="0,0 0,36 36,36 36,0" fill="#ab51e3"><animate attributeType="XML" attributeName="fill" values="#ab51e3;#310055;#ab51e3;#ab51e3" dur="1.6s" repeatCount="indefinite"/></polygon></g><use href="#d0" x="160" y="160" /><use href="#d0" x="160" y="200" /><use href="#l0" x="142" y="222" /><use href="#d0" x="160" y="280" /><use href="#d0" x="160" y="320" /><use href="#d0" x="200" y="40" /><use href="#l0" x="182" y="62" /><use href="#d0" x="200" y="120" /><use href="#d0" x="200" y="160" /><use href="#l0" x="182" y="182" /><use href="#l0" x="182" y="222" /><use href="#d0" x="200" y="280" /><use href="#d0" x="200" y="320" /><use href="#d0" x="240" y="40" /><use href="#l0" x="222" y="62" /><use href="#d0" x="240" y="120" /><use href="#d0" x="240" y="160" /><use href="#d0" x="240" y="200" /><use href="#l0" x="222" y="222" /><use href="#d0" x="240" y="280" /><g transform="translate(240,320)"><use href="#p0" /><circle r="18" fill="#bd68ee"><animate attributeType="XML" attributeName="fill" values="#bd68ee;#d283ff;#bd68ee;#bd68ee" dur="1.5s" repeatCount="indefinite"/></circle></g><use href="#d0" x="280" y="40" /><use href="#l0" x="262" y="62" /><use href="#d0" x="280" y="120" /><g transform="translate(280,160)"><use href="#p0" /><circle r="18" fill="#bd68ee"><animate attributeType="XML" attributeName="fill" values="#bd68ee;#d283ff;#bd68ee;#bd68ee" dur="1.8s" repeatCount="indefinite"/></circle></g><use href="#d0" x="280" y="200" /><use href="#l0" x="262" y="222" /><use href="#d0" x="280" y="280" /><use href="#l0" x="262" y="302" /><g transform="translate(320,40)"><use href="#p0" /><circle r="18" fill="#bd68ee"><animate attributeType="XML" attributeName="fill" values="#bd68ee;#d283ff;#bd68ee;#bd68ee" dur="1.0s" repeatCount="indefinite"/></circle></g><use href="#l0" x="302" y="62" /><use href="#d0" x="320" y="120" /><use href="#l0" x="302" y="142" /><use href="#d0" x="320" y="200" /><use href="#l0" x="302" y="222" /><use href="#d0" x="320" y="280" /><g transform="translate(320,320)"><use href="#p0" /><circle r="18" fill="#bd68ee"><animate attributeType="XML" attributeName="fill" values="#bd68ee;#d283ff;#bd68ee;#bd68ee" dur="1.9s" repeatCount="indefinite"/></circle></g></svg>