<svg width="360" height="360" xmlns="http://www.w3.org/2000/svg"><defs><animate id="aa" begin="0s"/><rect id="d0" width="36" height="36" fill="#d283ff"></rect><circle id="l0" r="18" fill="#310055"></circle></defs><rect width="100%" height="100%" fill="#dc97ff" /><g transform="translate(22,22)"><use href="#p0" /><polygon points="0,0 0,36 36,36 36,0" fill="#d283ff"><animate attributeType="XML" attributeName="fill" values="#d283ff;#d283ff;#d283ff;#d283ff" dur="1.0s" repeatCount="indefinite"/></polygon></g><g transform="translate(40,80)"><use href="#b0" /><circle r="18" fill="#8b2fc9"><animate attributeType="XML" attributeName="fill" values="#8b2fc9;#310055;#8b2fc9;#8b2fc9" dur="1.0s" repeatCount="indefinite"/></circle></g><g transform="translate(22,102)"><use href="#p0" /><polygon points="0,0 0,36 36,36 36,0" fill="#d283ff"><animate attributeType="XML" attributeName="fill" values="#d283ff;#d283ff;#d283ff;#d283ff" dur="1.0s" repeatCount="indefinite"/></polygon></g><use href="#d0" x="22" y="142" /><use href="#l0" x="40" y="200" /><use href="#l0" x="40" y="240" /><use href="#d0" x="22" y="262" /><use href="#d0" x="22" y="302" /><use href="#d0" x="62" y="22" /><use href="#d0" x="62" y="62" /><use href="#l0" x="80" y="120" /><use href="#d0" x="62" y="142" /><use href="#l0" x="80" y="200" /><use href="#d0" x="62" y="222" /><use href="#d0" x="62" y="262" /><use href="#d0" x="62" y="302" /><g transform="translate(120,40)"><use href="#b0" /><circle r="18" fill="#8b2fc9"><animate attributeType="XML" attributeName="fill" values="#8b2fc9;#310055;#8b2fc9;#8b2fc9" dur="1.0s" repeatCount="indefinite"/></circle></g><g transform="translate(102,62)"><use href="#p0" /><polygon points="0,0 0,36 36,36 36,0" fill="#d283ff"><animate attributeType="XML" attributeName="fill" values="#d283ff;#d283ff;#d283ff;#d283ff" dur="1.2s" repeatCount="indefinite"/></polygon></g><g transform="translate(102,102)"><use href="#p0" /><polygon points="0,0 0,36 36,36 36,0" fill="#d283ff"><animate attributeType="XML" attributeName="fill" values="#d283ff;#d283ff;#d283ff;#d283ff" dur="1.4s" repeatCount="indefinite"/></polygon></g><use href="#d0" x="102" y="142" /><use href="#l0" x="120" y="200" /><use href="#d0" x="102" y="222" /><g transform="translate(120,280)"><use href="#b0" /><circle r="18" fill="#8b2fc9"><animate attributeType="XML" attributeName="fill" values="#8b2fc9;#310055;#8b2fc9;#8b2fc9" dur="1.2s" repeatCount="indefinite"/></circle></g><use href="#d0" x="102" y="302" /><use href="#l0" x="160" y="40" /><use href="#d0" x="142" y="62" /><use href="#d0" x="142" y="102" /><g transform="translate(160,160)"><use href="#b0" /><circle r="18" fill="#8b2fc9"><animate attributeType="XML" attributeName="fill" values="#8b2fc9;#310055;#8b2fc9;#8b2fc9" dur="1.9s" repeatCount="indefinite"/></circle></g><g transform="translate(142,182)"><use href="#p0" /><polygon points="0,0 0,36 36,36 36,0" fill="#d283ff"><animate attributeType="XML" attributeName="fill" values="#d283ff;#d283ff;#d283ff;#d283ff" dur="1.2s" repeatCount="indefinite"/></polygon></g><use href="#l0" x="160" y="240" /><use href="#l0" x="160" y="280" /><g transform="translate(142,302)"><use href="#p0" /><polygon points="0,0 0,36 36,36 36,0" fill="#d283ff"><animate attributeType="XML" attributeName="fill" values="#d283ff;#d283ff;#d283ff;#d283ff" dur="1.1s" repeatCount="indefinite"/></polygon></g><use href="#d0" x="182" y="22" /><use href="#d0" x="182" y="62" /><use href="#d0" x="182" y="102" /><g transform="translate(182,142)"><use href="#p0" /><polygon points="0,0 0,36 36,36 36,0" fill="#d283ff"><animate attributeType="XML" attributeName="fill" values="#d283ff;#d283ff;#d283ff;#d283ff" dur="1.2s" repeatCount="indefinite"/></polygon></g><g transform="translate(200,200)"><use href="#b0" /><circle r="18" fill="#8b2fc9"><animate attributeType="XML" attributeName="fill" values="#8b2fc9;#310055;#8b2fc9;#8b2fc9" dur="1.6s" repeatCount="indefinite"/></circle></g><use href="#d0" x="182" y="222" /><use href="#d0" x="182" y="262" /><g transform="translate(200,320)"><use href="#b0" /><circle r="18" fill="#8b2fc9"><animate attributeType="XML" attributeName="fill" values="#8b2fc9;#310055;#8b2fc9;#8b2fc9" dur="1.8s" repeatCount="indefinite"/></circle></g><use href="#d0" x="222" y="22" /><use href="#d0" x="222" y="62" /><use href="#d0" x="222" y="102" /><use href="#d0" x="222" y="142" /><g transform="translate(240,200)"><use href="#b0" /><circle r="18" fill="#8b2fc9"><animate attributeType="XML" attributeName="fill" values="#8b2fc9;#310055;#8b2fc9;#8b2fc9" dur="1.0s" repeatCount="indefinite"/></circle></g><g transform="translate(222,222)"><use href="#p0" /><polygon points="0,0 0,36 36,36 36,0" fill="#d283ff"><animate attributeType="XML" attributeName="fill" values="#d283ff;#d283ff;#d283ff;#d283ff" dur="1.5s" repeatCount="indefinite"/></polygon></g><use href="#l0" x="240" y="280" /><g transform="translate(240,320)"><use href="#b0" /><circle r="18" fill="#8b2fc9"><animate attributeType="XML" attributeName="fill" values="#8b2fc9;#310055;#8b2fc9;#8b2fc9" dur="1.5s" repeatCount="indefinite"/></circle></g><use href="#d0" x="262" y="22" /><use href="#d0" x="262" y="62" /><use href="#d0" x="262" y="102" /><g transform="translate(280,160)"><use href="#b0" /><circle r="18" fill="#8b2fc9"><animate attributeType="XML" attributeName="fill" values="#8b2fc9;#310055;#8b2fc9;#8b2fc9" dur="1.8s" repeatCount="indefinite"/></circle></g><use href="#l0" x="280" y="200" /><use href="#d0" x="262" y="222" /><use href="#l0" x="280" y="280" /><g transform="translate(280,320)"><use href="#b0" /><circle r="18" fill="#8b2fc9"><animate attributeType="XML" attributeName="fill" values="#8b2fc9;#310055;#8b2fc9;#8b2fc9" dur="1.2s" repeatCount="indefinite"/></circle></g><g transform="translate(320,40)"><use href="#b0" /><circle r="18" fill="#8b2fc9"><animate attributeType="XML" attributeName="fill" values="#8b2fc9;#310055;#8b2fc9;#8b2fc9" dur="1.0s" repeatCount="indefinite"/></circle></g><use href="#l0" x="320" y="80" /><use href="#d0" x="302" y="102" /><use href="#l0" x="320" y="160" /><use href="#d0" x="302" y="182" /><use href="#d0" x="302" y="222" /><g transform="translate(320,280)"><use href="#b0" /><circle r="18" fill="#8b2fc9"><animate attributeType="XML" attributeName="fill" values="#8b2fc9;#310055;#8b2fc9;#8b2fc9" dur="1.2s" repeatCount="indefinite"/></circle></g><use href="#d0" x="302" y="302" /></svg>