<svg width="360" height="360" xmlns="http://www.w3.org/2000/svg"><defs><animate id="aa" begin="0s"/><rect id="d0" width="36" height="36" fill="#BFCBC2"></rect><circle id="l0" r="18" fill="#C2E812"></circle></defs><rect width="100%" height="100%" fill="#FFFFFF" /><g transform="translate(22,22)"><use href="#p0" /><polygon points="0,0 0,36 36,36 36,0" fill="#FF934F"><animate attributeType="XML" attributeName="fill" values="#FF934F;#BFCBC2;#FF934F;#FF934F" dur="2.0s" repeatCount="indefinite"/></polygon></g><use href="#d0" x="22" y="62" /><use href="#l0" x="40" y="120" /><use href="#d0" x="22" y="142" /><use href="#d0" x="22" y="182" /><use href="#l0" x="40" y="240" /><use href="#l0" x="40" y="280" /><use href="#d0" x="22" y="302" /><g transform="translate(62,22)"><use href="#p0" /><polygon points="0,0 0,36 36,36 36,0" fill="#FF934F"><animate attributeType="XML" attributeName="fill" values="#FF934F;#BFCBC2;#FF934F;#FF934F" dur="2.0s" repeatCount="indefinite"/></polygon></g><use href="#d0" x="62" y="62" /><use href="#l0" x="80" y="120" /><g transform="translate(62,142)"><use href="#p0" /><polygon points="0,0 0,36 36,36 36,0" fill="#FF934F"><animate attributeType="XML" attributeName="fill" values="#FF934F;#BFCBC2;#FF934F;#FF934F" dur="2.3s" repeatCount="indefinite"/></polygon></g><use href="#d0" x="62" y="182" /><use href="#d0" x="62" y="222" /><use href="#l0" x="80" y="280" /><use href="#d0" x="62" y="302" /><g transform="translate(102,22)"><use href="#p0" /><polygon points="0,0 0,36 36,36 36,0" fill="#FF934F"><animate attributeType="XML" attributeName="fill" values="#FF934F;#BFCBC2;#FF934F;#FF934F" dur="2.0s" repeatCount="indefinite"/></polygon></g><use href="#d0" x="102" y="62" /><g transform="translate(102,102)"><use href="#p0" /><polygon points="0,0 0,36 36,36 36,0" fill="#FF934F"><animate attributeType="XML" attributeName="fill" values="#FF934F;#BFCBC2;#FF934F;#FF934F" dur="2.4s" repeatCount="indefinite"/></polygon></g><g transform="translate(120,160)"><use href="#b0" /><circle r="18" fill="#91F5AD"><animate attributeType="XML" attributeName="fill" values="#91F5AD;#C2E812;#91F5AD;#91F5AD" dur="2.6s" repeatCount="indefinite"/></circle></g><use href="#l0" x="120" y="200" /><use href="#d0" x="102" y="222" /><use href="#l0" x="120" y="280" /><g transform="translate(120,320)"><use href="#b0" /><circle r="18" fill="#91F5AD"><animate attributeType="XML" attributeName="fill" values="#91F5AD;#C2E812;#91F5AD;#91F5AD" dur="2.4s" repeatCount="indefinite"/></circle></g><use href="#d0" x="142" y="22" /><use href="#d0" x="142" y="62" /><use href="#d0" x="142" y="102" /><use href="#d0" x="142" y="142" /><g transform="translate(142,182)"><use href="#p0" /><polygon points="0,0 0,36 36,36 36,0" fill="#FF934F"><animate attributeType="XML" attributeName="fill" values="#FF934F;#BFCBC2;#FF934F;#FF934F" dur="2.2s" repeatCount="indefinite"/></polygon></g><use href="#d0" x="142" y="222" /><g transform="translate(142,262)"><use href="#p0" /><polygon points="0,0 0,36 36,36 36,0" fill="#FF934F"><animate attributeType="XML" attributeName="fill" values="#FF934F;#BFCBC2;#FF934F;#FF934F" dur="2.8s" repeatCount="indefinite"/></polygon></g><use href="#d0" x="142" y="302" /><use href="#d0" x="182" y="22" /><use href="#d0" x="182" y="62" /><use href="#d0" x="182" y="102" /><use href="#l0" x="200" y="160" /><use href="#l0" x="200" y="200" /><g transform="translate(200,240)"><use href="#b0" /><circle r="18" fill="#91F5AD"><animate attributeType="XML" attributeName="fill" values="#91F5AD;#C2E812;#91F5AD;#91F5AD" dur="2.0s" repeatCount="indefinite"/></circle></g><use href="#l0" x="200" y="280" /><use href="#l0" x="200" y="320" /><use href="#d0" x="222" y="22" /><use href="#d0" x="222" y="62" /><use href="#l0" x="240" y="120" /><use href="#d0" x="222" y="142" /><g transform="translate(222,182)"><use href="#p0" /><polygon points="0,0 0,36 36,36 36,0" fill="#FF934F"><animate attributeType="XML" attributeName="fill" values="#FF934F;#BFCBC2;#FF934F;#FF934F" dur="2.0s" repeatCount="indefinite"/></polygon></g><use href="#d0" x="222" y="222" /><use href="#d0" x="222" y="262" /><use href="#l0" x="240" y="320" /><use href="#d0" x="262" y="22" /><g transform="translate(280,80)"><use href="#b0" /><circle r="18" fill="#91F5AD"><animate attributeType="XML" attributeName="fill" values="#91F5AD;#C2E812;#91F5AD;#91F5AD" dur="2.6s" repeatCount="indefinite"/></circle></g><use href="#l0" x="280" y="120" /><use href="#d0" x="262" y="142" /><g transform="translate(262,182)"><use href="#p0" /><polygon points="0,0 0,36 36,36 36,0" fill="#FF934F"><animate attributeType="XML" attributeName="fill" values="#FF934F;#BFCBC2;#FF934F;#FF934F" dur="2.4s" repeatCount="indefinite"/></polygon></g><use href="#d0" x="262" y="222" /><use href="#l0" x="280" y="280" /><g transform="translate(280,320)"><use href="#b0" /><circle r="18" fill="#91F5AD"><animate attributeType="XML" attributeName="fill" values="#91F5AD;#C2E812;#91F5AD;#91F5AD" dur="2.2s" repeatCount="indefinite"/></circle></g><use href="#d0" x="302" y="22" /><use href="#d0" x="302" y="62" /><use href="#l0" x="320" y="120" /><g transform="translate(320,160)"><use href="#b0" /><circle r="18" fill="#91F5AD"><animate attributeType="XML" attributeName="fill" values="#91F5AD;#C2E812;#91F5AD;#91F5AD" dur="2.1s" repeatCount="indefinite"/></circle></g><use href="#d0" x="302" y="182" /><use href="#d0" x="302" y="222" /><g transform="translate(302,262)"><use href="#p0" /><polygon points="0,0 0,36 36,36 36,0" fill="#FF934F"><animate attributeType="XML" attributeName="fill" values="#FF934F;#BFCBC2;#FF934F;#FF934F" dur="2.2s" repeatCount="indefinite"/></polygon></g><g transform="translate(320,320)"><use href="#b0" /><circle r="18" fill="#91F5AD"><animate attributeType="XML" attributeName="fill" values="#91F5AD;#C2E812;#91F5AD;#91F5AD" dur="2.9s" repeatCount="indefinite"/></circle></g></svg>