<svg width="360" height="360" xmlns="http://www.w3.org/2000/svg"><defs><animate id="aa" begin="0s"/><rect id="d0" width="36" height="36" fill="#D8F3DC"></rect><circle id="l0" r="18" fill="#081C15"></circle></defs><rect width="100%" height="100%" fill="#52B788" /><g transform="translate(22,22)"><use href="#p0" /><polygon points="0,0 0,36 36,36 36,0" fill="#2D6A4F"><animate attributeType="XML" attributeName="fill" values="#2D6A4F;#D8F3DC;#2D6A4F;#2D6A4F" dur="1s" begin="aa.begin +1s" repeatCount="indefinite"/></polygon></g><g transform="translate(40,80)"><use href="#b0" /><circle r="18" fill="#40916C"><animate attributeType="XML" attributeName="fill" values="#40916C;#081C15;#40916C;#40916C" dur="1s" begin="aa.begin +1.5s" repeatCount="indefinite"/></circle></g><g transform="translate(40,120)"><use href="#b0" /><circle r="18" fill="#40916C"><animate attributeType="XML" attributeName="fill" values="#40916C;#081C15;#40916C;#40916C" dur="1s" begin="aa.begin +2s" repeatCount="indefinite"/></circle></g><use href="#d0" x="22" y="142" /><use href="#d0" x="22" y="182" /><g transform="translate(22,222)"><use href="#p0" /><polygon points="0,0 0,36 36,36 36,0" fill="#2D6A4F"><animate attributeType="XML" attributeName="fill" values="#2D6A4F;#D8F3DC;#2D6A4F;#2D6A4F" dur="1s" begin="aa.begin +s" repeatCount="indefinite"/></polygon></g><use href="#d0" x="22" y="262" /><use href="#l0" x="40" y="320" /><use href="#d0" x="62" y="22" /><g transform="translate(80,80)"><use href="#b0" /><circle r="18" fill="#40916C"><animate attributeType="XML" attributeName="fill" values="#40916C;#081C15;#40916C;#40916C" dur="1s" begin="aa.begin +2.5s" repeatCount="indefinite"/></circle></g><use href="#d0" x="62" y="102" /><use href="#d0" x="62" y="142" /><g transform="translate(62,182)"><use href="#p0" /><polygon points="0,0 0,36 36,36 36,0" fill="#2D6A4F"><animate attributeType="XML" attributeName="fill" values="#2D6A4F;#D8F3DC;#2D6A4F;#2D6A4F" dur="1s" begin="aa.begin +3s" repeatCount="indefinite"/></polygon></g><g transform="translate(62,222)"><use href="#p0" /><polygon points="0,0 0,36 36,36 36,0" fill="#2D6A4F"><animate attributeType="XML" attributeName="fill" values="#2D6A4F;#D8F3DC;#2D6A4F;#2D6A4F" dur="1s" begin="aa.begin +3.5s" repeatCount="indefinite"/></polygon></g><g transform="translate(80,280)"><use href="#b0" /><circle r="18" fill="#40916C"><animate attributeType="XML" attributeName="fill" values="#40916C;#081C15;#40916C;#40916C" dur="1s" begin="aa.begin +4s" repeatCount="indefinite"/></circle></g><use href="#l0" x="80" y="320" /><use href="#d0" x="102" y="22" /><use href="#l0" x="120" y="80" /><use href="#d0" x="102" y="102" /><use href="#d0" x="102" y="142" /><use href="#d0" x="102" y="182" /><use href="#d0" x="102" y="222" /><use href="#d0" x="102" y="262" /><use href="#l0" x="120" y="320" /><g transform="translate(160,40)"><use href="#b0" /><circle r="18" fill="#40916C"><animate attributeType="XML" attributeName="fill" values="#40916C;#081C15;#40916C;#40916C" dur="1s" begin="aa.begin +4.5s" repeatCount="indefinite"/></circle></g><use href="#d0" x="142" y="62" /><use href="#l0" x="160" y="120" /><use href="#l0" x="160" y="160" /><use href="#d0" x="142" y="182" /><g transform="translate(160,240)"><use href="#b0" /><circle r="18" fill="#40916C"><animate attributeType="XML" attributeName="fill" values="#40916C;#081C15;#40916C;#40916C" dur="1s" begin="aa.begin +5s" repeatCount="indefinite"/></circle></g><use href="#l0" x="160" y="280" /><use href="#d0" x="142" y="302" /><use href="#l0" x="200" y="40" /><use href="#d0" x="182" y="62" /><use href="#d0" x="182" y="102" /><use href="#d0" x="182" y="142" /><g transform="translate(182,182)"><use href="#p0" /><polygon points="0,0 0,36 36,36 36,0" fill="#2D6A4F"><animate attributeType="XML" attributeName="fill" values="#2D6A4F;#D8F3DC;#2D6A4F;#2D6A4F" dur="1s" begin="aa.begin +5.5s" repeatCount="indefinite"/></polygon></g><use href="#d0" x="182" y="222" /><use href="#l0" x="200" y="280" /><use href="#d0" x="182" y="302" /><use href="#l0" x="240" y="40" /><use href="#l0" x="240" y="80" /><use href="#d0" x="222" y="102" /><use href="#l0" x="240" y="160" /><use href="#l0" x="240" y="200" /><use href="#d0" x="222" y="222" /><use href="#l0" x="240" y="280" /><use href="#d0" x="222" y="302" /><use href="#d0" x="262" y="22" /><g transform="translate(262,62)"><use href="#p0" /><polygon points="0,0 0,36 36,36 36,0" fill="#2D6A4F"><animate attributeType="XML" attributeName="fill" values="#2D6A4F;#D8F3DC;#2D6A4F;#2D6A4F" dur="1s" begin="aa.begin +6s" repeatCount="indefinite"/></polygon></g><use href="#d0" x="262" y="102" /><g transform="translate(262,142)"><use href="#p0" /><polygon points="0,0 0,36 36,36 36,0" fill="#2D6A4F"><animate attributeType="XML" attributeName="fill" values="#2D6A4F;#D8F3DC;#2D6A4F;#2D6A4F" dur="1s" begin="aa.begin +6.5s" repeatCount="indefinite"/></polygon></g><use href="#d0" x="262" y="182" /><use href="#d0" x="262" y="222" /><use href="#l0" x="280" y="280" /><use href="#d0" x="262" y="302" /><use href="#l0" x="320" y="40" /><g transform="translate(302,62)"><use href="#p0" /><polygon points="0,0 0,36 36,36 36,0" fill="#2D6A4F"><animate attributeType="XML" attributeName="fill" values="#2D6A4F;#D8F3DC;#2D6A4F;#2D6A4F" dur="1s" begin="aa.begin +7s" repeatCount="indefinite"/></polygon></g><use href="#l0" x="320" y="120" /><g transform="translate(320,160)"><use href="#b0" /><circle r="18" fill="#40916C"><animate attributeType="XML" attributeName="fill" values="#40916C;#081C15;#40916C;#40916C" dur="1s" begin="aa.begin +7.5s" repeatCount="indefinite"/></circle></g><use href="#l0" x="320" y="200" /><use href="#l0" x="320" y="240" /><g transform="translate(320,280)"><use href="#b0" /><circle r="18" fill="#40916C"><animate attributeType="XML" attributeName="fill" values="#40916C;#081C15;#40916C;#40916C" dur="1s" begin="aa.begin +8s" repeatCount="indefinite"/></circle></g><use href="#d0" x="302" y="302" /></svg>