<svg width="360" height="360" xmlns="http://www.w3.org/2000/svg"><defs><animate id="aa" begin="0s"/><rect id="d0" width="36" height="36" fill="#001219"></rect><circle id="l0" r="18" fill="#EE9B00"></circle></defs><rect width="100%" height="100%" fill="#005F73" /><use href="#d0" x="22" y="22" /><g transform="translate(22,62)"><use href="#p0" /><polygon points="0,0 0,36 36,36 36,0" fill="#9B2226"><animate attributeType="XML" attributeName="fill" values="#9B2226;#001219;#9B2226;#9B2226" dur="1s" begin="aa.begin +1s" repeatCount="indefinite"/></polygon></g><use href="#l0" x="40" y="120" /><g transform="translate(40,160)"><use href="#b0" /><circle r="18" fill="#94D2BD"><animate attributeType="XML" attributeName="fill" values="#94D2BD;#EE9B00;#94D2BD;#94D2BD" dur="1s" begin="aa.begin +1.5s" repeatCount="indefinite"/></circle></g><use href="#d0" x="22" y="182" /><use href="#d0" x="22" y="222" /><g transform="translate(40,280)"><use href="#b0" /><circle r="18" fill="#94D2BD"><animate attributeType="XML" attributeName="fill" values="#94D2BD;#EE9B00;#94D2BD;#94D2BD" dur="1s" begin="aa.begin +2s" repeatCount="indefinite"/></circle></g><g transform="translate(22,302)"><use href="#p0" /><polygon points="0,0 0,36 36,36 36,0" fill="#9B2226"><animate attributeType="XML" attributeName="fill" values="#9B2226;#001219;#9B2226;#9B2226" dur="1s" begin="aa.begin +s" repeatCount="indefinite"/></polygon></g><g transform="translate(62,22)"><use href="#p0" /><polygon points="0,0 0,36 36,36 36,0" fill="#9B2226"><animate attributeType="XML" attributeName="fill" values="#9B2226;#001219;#9B2226;#9B2226" dur="1s" begin="aa.begin +2.5s" repeatCount="indefinite"/></polygon></g><use href="#l0" x="80" y="80" /><use href="#l0" x="80" y="120" /><g transform="translate(80,160)"><use href="#b0" /><circle r="18" fill="#94D2BD"><animate attributeType="XML" attributeName="fill" values="#94D2BD;#EE9B00;#94D2BD;#94D2BD" dur="1s" begin="aa.begin +3s" repeatCount="indefinite"/></circle></g><use href="#d0" x="62" y="182" /><use href="#d0" x="62" y="222" /><g transform="translate(80,280)"><use href="#b0" /><circle r="18" fill="#94D2BD"><animate attributeType="XML" attributeName="fill" values="#94D2BD;#EE9B00;#94D2BD;#94D2BD" dur="1s" begin="aa.begin +3.5s" repeatCount="indefinite"/></circle></g><g transform="translate(62,302)"><use href="#p0" /><polygon points="0,0 0,36 36,36 36,0" fill="#9B2226"><animate attributeType="XML" attributeName="fill" values="#9B2226;#001219;#9B2226;#9B2226" dur="1s" begin="aa.begin +4s" repeatCount="indefinite"/></polygon></g><use href="#l0" x="120" y="40" /><g transform="translate(120,80)"><use href="#b0" /><circle r="18" fill="#94D2BD"><animate attributeType="XML" attributeName="fill" values="#94D2BD;#EE9B00;#94D2BD;#94D2BD" dur="1s" begin="aa.begin +4.5s" repeatCount="indefinite"/></circle></g><use href="#d0" x="102" y="102" /><use href="#d0" x="102" y="142" /><use href="#d0" x="102" y="182" /><use href="#d0" x="102" y="222" /><use href="#d0" x="102" y="262" /><use href="#l0" x="120" y="320" /><use href="#d0" x="142" y="22" /><use href="#d0" x="142" y="62" /><use href="#d0" x="142" y="102" /><use href="#d0" x="142" y="142" /><use href="#d0" x="142" y="182" /><use href="#d0" x="142" y="222" /><use href="#d0" x="142" y="262" /><g transform="translate(160,320)"><use href="#b0" /><circle r="18" fill="#94D2BD"><animate attributeType="XML" attributeName="fill" values="#94D2BD;#EE9B00;#94D2BD;#94D2BD" dur="1s" begin="aa.begin +5s" repeatCount="indefinite"/></circle></g><use href="#d0" x="182" y="22" /><use href="#d0" x="182" y="62" /><use href="#d0" x="182" y="102" /><use href="#d0" x="182" y="142" /><use href="#d0" x="182" y="182" /><use href="#d0" x="182" y="222" /><use href="#d0" x="182" y="262" /><g transform="translate(182,302)"><use href="#p0" /><polygon points="0,0 0,36 36,36 36,0" fill="#9B2226"><animate attributeType="XML" attributeName="fill" values="#9B2226;#001219;#9B2226;#9B2226" dur="1s" begin="aa.begin +5.5s" repeatCount="indefinite"/></polygon></g><use href="#d0" x="222" y="22" /><use href="#d0" x="222" y="62" /><use href="#d0" x="222" y="102" /><use href="#d0" x="222" y="142" /><use href="#d0" x="222" y="182" /><use href="#d0" x="222" y="222" /><use href="#d0" x="222" y="262" /><use href="#d0" x="222" y="302" /><use href="#d0" x="262" y="22" /><use href="#d0" x="262" y="62" /><use href="#d0" x="262" y="102" /><use href="#d0" x="262" y="142" /><use href="#d0" x="262" y="182" /><use href="#d0" x="262" y="222" /><use href="#d0" x="262" y="262" /><use href="#d0" x="262" y="302" /><g transform="translate(302,22)"><use href="#p0" /><polygon points="0,0 0,36 36,36 36,0" fill="#9B2226"><animate attributeType="XML" attributeName="fill" values="#9B2226;#001219;#9B2226;#9B2226" dur="1s" begin="aa.begin +6s" repeatCount="indefinite"/></polygon></g><use href="#d0" x="302" y="62" /><use href="#l0" x="320" y="120" /><g transform="translate(320,160)"><use href="#b0" /><circle r="18" fill="#94D2BD"><animate attributeType="XML" attributeName="fill" values="#94D2BD;#EE9B00;#94D2BD;#94D2BD" dur="1s" begin="aa.begin +6.5s" repeatCount="indefinite"/></circle></g><use href="#d0" x="302" y="182" /><use href="#d0" x="302" y="222" /><use href="#d0" x="302" y="262" /><g transform="translate(302,302)"><use href="#p0" /><polygon points="0,0 0,36 36,36 36,0" fill="#9B2226"><animate attributeType="XML" attributeName="fill" values="#9B2226;#001219;#9B2226;#9B2226" dur="1s" begin="aa.begin +7s" repeatCount="indefinite"/></polygon></g></svg>