<svg width="360" height="360" xmlns="http://www.w3.org/2000/svg"><defs><animate id="aa" begin="0s"/><rect id="l0" width="36" height="36" fill="#1E62AB"></rect><rect id="d0" width="36" height="36" fill="#423E37"></rect></defs><rect width="100%" height="100%" fill="#34287E" /><use href="#l0" x="22" y="22" /><use href="#d0" x="22" y="62" /><use href="#d0" x="22" y="102" /><use href="#l0" x="22" y="142" /><use href="#d0" x="22" y="182" /><use href="#l0" x="22" y="222" /><use href="#d0" x="22" y="262" /><use href="#d0" x="22" y="302" /><use href="#l0" x="62" y="22" /><use href="#d0" x="62" y="62" /><use href="#l0" x="62" y="102" /><use href="#d0" x="62" y="142" /><use href="#l0" x="62" y="182" /><use href="#d0" x="62" y="222" /><use href="#l0" x="62" y="262" /><use href="#d0" x="62" y="302" /><use href="#l0" x="102" y="22" /><use href="#d0" x="102" y="62" /><g transform="translate(102,102)"><use href="#p0" /><polygon points="0,0 0,36 36,36 36,0" fill="#FAED24"><animate attributeType="XML" attributeName="fill" values="#FAED24;#423E37;#FAED24;#FAED24" dur="0.4s" repeatCount="indefinite"/></polygon></g><use href="#d0" x="102" y="142" /><use href="#l0" x="102" y="182" /><use href="#d0" x="102" y="222" /><use href="#l0" x="102" y="262" /><use href="#d0" x="102" y="302" /><use href="#l0" x="142" y="22" /><use href="#d0" x="142" y="62" /><use href="#d0" x="142" y="102" /><use href="#d0" x="142" y="142" /><use href="#l0" x="142" y="182" /><use href="#d0" x="142" y="222" /><use href="#l0" x="142" y="262" /><use href="#d0" x="142" y="302" /><use href="#l0" x="182" y="22" /><g transform="translate(182,62)"><use href="#b0" /><polygon points="0,0 0,36 36,36 36,0" fill="#92B83C"><animate attributeType="XML" attributeName="fill" values="#92B83C;#1E62AB;#92B83C;#92B83C" dur="0.4s" repeatCount="indefinite"/></polygon></g><use href="#l0" x="182" y="102" /><use href="#l0" x="182" y="142" /><use href="#d0" x="182" y="182" /><use href="#l0" x="182" y="222" /><use href="#d0" x="182" y="262" /><use href="#d0" x="182" y="302" /><use href="#d0" x="222" y="22" /><use href="#d0" x="222" y="62" /><use href="#d0" x="222" y="102" /><use href="#d0" x="222" y="142" /><use href="#d0" x="222" y="182" /><use href="#l0" x="222" y="222" /><use href="#d0" x="222" y="262" /><use href="#l0" x="222" y="302" /><use href="#d0" x="262" y="22" /><use href="#l0" x="262" y="62" /><g transform="translate(262,102)"><use href="#p0" /><polygon points="0,0 0,36 36,36 36,0" fill="#FAED24"><animate attributeType="XML" attributeName="fill" values="#FAED24;#423E37;#FAED24;#FAED24" dur="0.2s" repeatCount="indefinite"/></polygon></g><g transform="translate(262,142)"><use href="#p0" /><polygon points="0,0 0,36 36,36 36,0" fill="#FAED24"><animate attributeType="XML" attributeName="fill" values="#FAED24;#423E37;#FAED24;#FAED24" dur="0.8s" repeatCount="indefinite"/></polygon></g><use href="#d0" x="262" y="182" /><use href="#l0" x="262" y="222" /><use href="#d0" x="262" y="262" /><use href="#l0" x="262" y="302" /><use href="#d0" x="302" y="22" /><use href="#l0" x="302" y="62" /><use href="#d0" x="302" y="102" /><g transform="translate(302,142)"><use href="#p0" /><polygon points="0,0 0,36 36,36 36,0" fill="#FAED24"><animate attributeType="XML" attributeName="fill" values="#FAED24;#423E37;#FAED24;#FAED24" dur="0.1s" repeatCount="indefinite"/></polygon></g><use href="#d0" x="302" y="182" /><use href="#l0" x="302" y="222" /><use href="#d0" x="302" y="262" /><use href="#l0" x="302" y="302" /></svg>