<svg width="360" height="360" xmlns="http://www.w3.org/2000/svg"><defs><animate id="aa" begin="0s"/><rect id="l0" width="36" height="36" fill="#A80874"></rect><rect id="d0" width="36" height="36" fill="#E3D8F1"></rect></defs><rect width="100%" height="100%" fill="#1C7C54" /><use href="#d0" x="22" y="22" /><g transform="translate(22,62)"><use href="#b0" /><polygon points="0,0 0,36 36,36 36,0" fill="#33658A"><animate attributeType="XML" attributeName="fill" values="#33658A;#A80874;#33658A;#33658A" dur="0.0s" repeatCount="indefinite"/></polygon></g><use href="#d0" x="22" y="102" /><g transform="translate(22,142)"><use href="#b0" /><polygon points="0,0 0,36 36,36 36,0" fill="#33658A"><animate attributeType="XML" attributeName="fill" values="#33658A;#A80874;#33658A;#33658A" dur="0.0s" repeatCount="indefinite"/></polygon></g><use href="#d0" x="22" y="182" /><use href="#d0" x="22" y="222" /><use href="#d0" x="22" y="262" /><use href="#d0" x="22" y="302" /><use href="#d0" x="62" y="22" /><g transform="translate(62,62)"><use href="#b0" /><polygon points="0,0 0,36 36,36 36,0" fill="#33658A"><animate attributeType="XML" attributeName="fill" values="#33658A;#A80874;#33658A;#33658A" dur="0.1s" repeatCount="indefinite"/></polygon></g><g transform="translate(62,102)"><use href="#p0" /><polygon points="0,0 0,36 36,36 36,0" fill="#F0F66E"><animate attributeType="XML" attributeName="fill" values="#F0F66E;#E3D8F1;#F0F66E;#F0F66E" dur="0.2s" repeatCount="indefinite"/></polygon></g><g transform="translate(62,142)"><use href="#b0" /><polygon points="0,0 0,36 36,36 36,0" fill="#33658A"><animate attributeType="XML" attributeName="fill" values="#33658A;#A80874;#33658A;#33658A" dur="0.3s" repeatCount="indefinite"/></polygon></g><g transform="translate(62,182)"><use href="#p0" /><polygon points="0,0 0,36 36,36 36,0" fill="#F0F66E"><animate attributeType="XML" attributeName="fill" values="#F0F66E;#E3D8F1;#F0F66E;#F0F66E" dur="0.4s" repeatCount="indefinite"/></polygon></g><use href="#l0" x="62" y="222" /><g transform="translate(62,262)"><use href="#b0" /><polygon points="0,0 0,36 36,36 36,0" fill="#33658A"><animate attributeType="XML" attributeName="fill" values="#33658A;#A80874;#33658A;#33658A" dur="0.6s" repeatCount="indefinite"/></polygon></g><use href="#d0" x="62" y="302" /><use href="#d0" x="102" y="22" /><use href="#d0" x="102" y="62" /><use href="#l0" x="102" y="102" /><g transform="translate(102,142)"><use href="#b0" /><polygon points="0,0 0,36 36,36 36,0" fill="#33658A"><animate attributeType="XML" attributeName="fill" values="#33658A;#A80874;#33658A;#33658A" dur="0.6s" repeatCount="indefinite"/></polygon></g><use href="#d0" x="102" y="182" /><use href="#l0" x="102" y="222" /><use href="#l0" x="102" y="262" /><g transform="translate(102,302)"><use href="#b0" /><polygon points="0,0 0,36 36,36 36,0" fill="#33658A"><animate attributeType="XML" attributeName="fill" values="#33658A;#A80874;#33658A;#33658A" dur="0.4s" repeatCount="indefinite"/></polygon></g><use href="#l0" x="142" y="22" /><use href="#d0" x="142" y="62" /><use href="#l0" x="142" y="102" /><use href="#d0" x="142" y="142" /><use href="#d0" x="142" y="182" /><use href="#d0" x="142" y="222" /><use href="#d0" x="142" y="262" /><use href="#d0" x="142" y="302" /><use href="#l0" x="182" y="22" /><use href="#d0" x="182" y="62" /><g transform="translate(182,102)"><use href="#p0" /><polygon points="0,0 0,36 36,36 36,0" fill="#F0F66E"><animate attributeType="XML" attributeName="fill" values="#F0F66E;#E3D8F1;#F0F66E;#F0F66E" dur="0.8s" repeatCount="indefinite"/></polygon></g><use href="#d0" x="182" y="142" /><g transform="translate(182,182)"><use href="#p0" /><polygon points="0,0 0,36 36,36 36,0" fill="#F0F66E"><animate attributeType="XML" attributeName="fill" values="#F0F66E;#E3D8F1;#F0F66E;#F0F66E" dur="0.6s" repeatCount="indefinite"/></polygon></g><g transform="translate(182,222)"><use href="#p0" /><polygon points="0,0 0,36 36,36 36,0" fill="#F0F66E"><animate attributeType="XML" attributeName="fill" values="#F0F66E;#E3D8F1;#F0F66E;#F0F66E" dur="0.0s" repeatCount="indefinite"/></polygon></g><use href="#d0" x="182" y="262" /><g transform="translate(182,302)"><use href="#b0" /><polygon points="0,0 0,36 36,36 36,0" fill="#33658A"><animate attributeType="XML" attributeName="fill" values="#33658A;#A80874;#33658A;#33658A" dur="0.8s" repeatCount="indefinite"/></polygon></g><use href="#l0" x="222" y="22" /><use href="#d0" x="222" y="62" /><use href="#d0" x="222" y="102" /><use href="#d0" x="222" y="142" /><use href="#d0" x="222" y="182" /><use href="#d0" x="222" y="222" /><use href="#d0" x="222" y="262" /><use href="#d0" x="222" y="302" /><use href="#d0" x="262" y="22" /><g transform="translate(262,62)"><use href="#p0" /><polygon points="0,0 0,36 36,36 36,0" fill="#F0F66E"><animate attributeType="XML" attributeName="fill" values="#F0F66E;#E3D8F1;#F0F66E;#F0F66E" dur="0.6s" repeatCount="indefinite"/></polygon></g><use href="#l0" x="262" y="102" /><g transform="translate(262,142)"><use href="#b0" /><polygon points="0,0 0,36 36,36 36,0" fill="#33658A"><animate attributeType="XML" attributeName="fill" values="#33658A;#A80874;#33658A;#33658A" dur="0.8s" repeatCount="indefinite"/></polygon></g><use href="#l0" x="262" y="182" /><use href="#d0" x="262" y="222" /><use href="#l0" x="262" y="262" /><use href="#d0" x="262" y="302" /><g transform="translate(302,22)"><use href="#b0" /><polygon points="0,0 0,36 36,36 36,0" fill="#33658A"><animate attributeType="XML" attributeName="fill" values="#33658A;#A80874;#33658A;#33658A" dur="0.0s" repeatCount="indefinite"/></polygon></g><g transform="translate(302,62)"><use href="#p0" /><polygon points="0,0 0,36 36,36 36,0" fill="#F0F66E"><animate attributeType="XML" attributeName="fill" values="#F0F66E;#E3D8F1;#F0F66E;#F0F66E" dur="0.7s" repeatCount="indefinite"/></polygon></g><g transform="translate(302,102)"><use href="#p0" /><polygon points="0,0 0,36 36,36 36,0" fill="#F0F66E"><animate attributeType="XML" attributeName="fill" values="#F0F66E;#E3D8F1;#F0F66E;#F0F66E" dur="0.4s" repeatCount="indefinite"/></polygon></g><use href="#d0" x="302" y="142" /><use href="#d0" x="302" y="182" /><use href="#l0" x="302" y="222" /><use href="#l0" x="302" y="262" /><use href="#l0" x="302" y="302" /></svg>