<svg width="360" height="360" xmlns="http://www.w3.org/2000/svg"><defs><animate id="aa" begin="0s"/><rect id="l0" width="36" height="36" fill="#1E62AB"></rect><rect id="d0" width="36" height="36" fill="#423E37"></rect></defs><rect width="100%" height="100%" fill="#34287E" /><use href="#d0" x="22" y="22" /><use href="#l0" x="22" y="62" /><g transform="translate(22,102)"><use href="#p0" /><polygon points="0,0 0,36 36,36 36,0" fill="#C7381D"><animate attributeType="XML" attributeName="fill" values="#C7381D;#423E37;#C7381D;#C7381D" dur="2.0s" repeatCount="indefinite"/></polygon></g><use href="#d0" x="22" y="142" /><use href="#d0" x="22" y="182" /><g transform="translate(22,222)"><use href="#p0" /><polygon points="0,0 0,36 36,36 36,0" fill="#C7381D"><animate attributeType="XML" attributeName="fill" values="#C7381D;#423E37;#C7381D;#C7381D" dur="2.0s" repeatCount="indefinite"/></polygon></g><use href="#d0" x="22" y="262" /><use href="#l0" x="22" y="302" /><g transform="translate(62,22)"><use href="#p0" /><polygon points="0,0 0,36 36,36 36,0" fill="#C7381D"><animate attributeType="XML" attributeName="fill" values="#C7381D;#423E37;#C7381D;#C7381D" dur="2.0s" repeatCount="indefinite"/></polygon></g><use href="#d0" x="62" y="62" /><use href="#d0" x="62" y="102" /><g transform="translate(62,142)"><use href="#p0" /><polygon points="0,0 0,36 36,36 36,0" fill="#C7381D"><animate attributeType="XML" attributeName="fill" values="#C7381D;#423E37;#C7381D;#C7381D" dur="2.3s" repeatCount="indefinite"/></polygon></g><use href="#d0" x="62" y="182" /><g transform="translate(62,222)"><use href="#p0" /><polygon points="0,0 0,36 36,36 36,0" fill="#C7381D"><animate attributeType="XML" attributeName="fill" values="#C7381D;#423E37;#C7381D;#C7381D" dur="2.5s" repeatCount="indefinite"/></polygon></g><use href="#d0" x="62" y="262" /><g transform="translate(62,302)"><use href="#p0" /><polygon points="0,0 0,36 36,36 36,0" fill="#C7381D"><animate attributeType="XML" attributeName="fill" values="#C7381D;#423E37;#C7381D;#C7381D" dur="2.7s" repeatCount="indefinite"/></polygon></g><g transform="translate(102,22)"><use href="#b0" /><polygon points="0,0 0,36 36,36 36,0" fill="#469D45"><animate attributeType="XML" attributeName="fill" values="#469D45;#1E62AB;#469D45;#469D45" dur="2.0s" repeatCount="indefinite"/></polygon></g><use href="#l0" x="102" y="62" /><use href="#d0" x="102" y="102" /><use href="#l0" x="102" y="142" /><use href="#d0" x="102" y="182" /><g transform="translate(102,222)"><use href="#b0" /><polygon points="0,0 0,36 36,36 36,0" fill="#469D45"><animate attributeType="XML" attributeName="fill" values="#469D45;#1E62AB;#469D45;#469D45" dur="2.0s" repeatCount="indefinite"/></polygon></g><use href="#d0" x="102" y="262" /><use href="#d0" x="102" y="302" /><use href="#l0" x="142" y="22" /><use href="#d0" x="142" y="62" /><use href="#l0" x="142" y="102" /><use href="#l0" x="142" y="142" /><g transform="translate(142,182)"><use href="#p0" /><polygon points="0,0 0,36 36,36 36,0" fill="#C7381D"><animate attributeType="XML" attributeName="fill" values="#C7381D;#423E37;#C7381D;#C7381D" dur="2.2s" repeatCount="indefinite"/></polygon></g><use href="#l0" x="142" y="222" /><g transform="translate(142,262)"><use href="#p0" /><polygon points="0,0 0,36 36,36 36,0" fill="#C7381D"><animate attributeType="XML" attributeName="fill" values="#C7381D;#423E37;#C7381D;#C7381D" dur="2.8s" repeatCount="indefinite"/></polygon></g><use href="#l0" x="142" y="302" /><use href="#d0" x="182" y="22" /><use href="#d0" x="182" y="62" /><use href="#d0" x="182" y="102" /><g transform="translate(182,142)"><use href="#b0" /><polygon points="0,0 0,36 36,36 36,0" fill="#469D45"><animate attributeType="XML" attributeName="fill" values="#469D45;#1E62AB;#469D45;#469D45" dur="2.2s" repeatCount="indefinite"/></polygon></g><use href="#d0" x="182" y="182" /><g transform="translate(182,222)"><use href="#b0" /><polygon points="0,0 0,36 36,36 36,0" fill="#469D45"><animate attributeType="XML" attributeName="fill" values="#469D45;#1E62AB;#469D45;#469D45" dur="2.0s" repeatCount="indefinite"/></polygon></g><g transform="translate(182,262)"><use href="#p0" /><polygon points="0,0 0,36 36,36 36,0" fill="#C7381D"><animate attributeType="XML" attributeName="fill" values="#C7381D;#423E37;#C7381D;#C7381D" dur="2.4s" repeatCount="indefinite"/></polygon></g><use href="#d0" x="182" y="302" /><use href="#l0" x="222" y="22" /><use href="#l0" x="222" y="62" /><use href="#d0" x="222" y="102" /><use href="#l0" x="222" y="142" /><use href="#d0" x="222" y="182" /><use href="#d0" x="222" y="222" /><use href="#l0" x="222" y="262" /><g transform="translate(222,302)"><use href="#b0" /><polygon points="0,0 0,36 36,36 36,0" fill="#469D45"><animate attributeType="XML" attributeName="fill" values="#469D45;#1E62AB;#469D45;#469D45" dur="2.5s" repeatCount="indefinite"/></polygon></g><use href="#d0" x="262" y="22" /><use href="#l0" x="262" y="62" /><use href="#d0" x="262" y="102" /><use href="#l0" x="262" y="142" /><g transform="translate(262,182)"><use href="#p0" /><polygon points="0,0 0,36 36,36 36,0" fill="#C7381D"><animate attributeType="XML" attributeName="fill" values="#C7381D;#423E37;#C7381D;#C7381D" dur="2.4s" repeatCount="indefinite"/></polygon></g><use href="#l0" x="262" y="222" /><g transform="translate(262,262)"><use href="#p0" /><polygon points="0,0 0,36 36,36 36,0" fill="#C7381D"><animate attributeType="XML" attributeName="fill" values="#C7381D;#423E37;#C7381D;#C7381D" dur="2.6s" repeatCount="indefinite"/></polygon></g><use href="#d0" x="262" y="302" /><use href="#d0" x="302" y="22" /><use href="#l0" x="302" y="62" /><use href="#d0" x="302" y="102" /><g transform="translate(302,142)"><use href="#p0" /><polygon points="0,0 0,36 36,36 36,0" fill="#C7381D"><animate attributeType="XML" attributeName="fill" values="#C7381D;#423E37;#C7381D;#C7381D" dur="2.1s" repeatCount="indefinite"/></polygon></g><use href="#d0" x="302" y="182" /><use href="#d0" x="302" y="222" /><g transform="translate(302,262)"><use href="#b0" /><polygon points="0,0 0,36 36,36 36,0" fill="#469D45"><animate attributeType="XML" attributeName="fill" values="#469D45;#1E62AB;#469D45;#469D45" dur="2.2s" repeatCount="indefinite"/></polygon></g><use href="#l0" x="302" y="302" /></svg>