<svg width="360" height="360" xmlns="http://www.w3.org/2000/svg"><defs><animate id="aa" begin="0s"/><rect id="l0" width="36" height="36" fill="#03071E"></rect><circle id="d0" r="18" fill="#D00000"></circle></defs><rect width="100%" height="100%" fill="#6A040F" /><use href="#d0" x="40" y="40" /><g transform="translate(40,80)"><use href="#p0" /><circle r="18" fill="#9D0208"><animate attributeType="XML" attributeName="fill" values="#9D0208;#D00000;#9D0208;#9D0208" dur="1s" begin="aa.begin +1s" repeatCount="indefinite"/></circle></g><use href="#d0" x="40" y="120" /><use href="#d0" x="40" y="160" /><use href="#d0" x="40" y="200" /><use href="#l0" x="22" y="222" /><use href="#d0" x="40" y="280" /><g transform="translate(40,320)"><use href="#p0" /><circle r="18" fill="#9D0208"><animate attributeType="XML" attributeName="fill" values="#9D0208;#D00000;#9D0208;#9D0208" dur="1s" begin="aa.begin +1.5s" repeatCount="indefinite"/></circle></g><use href="#d0" x="80" y="40" /><g transform="translate(80,80)"><use href="#p0" /><circle r="18" fill="#9D0208"><animate attributeType="XML" attributeName="fill" values="#9D0208;#D00000;#9D0208;#9D0208" dur="1s" begin="aa.begin +2s" repeatCount="indefinite"/></circle></g><use href="#d0" x="80" y="120" /><use href="#d0" x="80" y="160" /><use href="#l0" x="62" y="182" /><use href="#l0" x="62" y="222" /><use href="#d0" x="80" y="280" /><g transform="translate(80,320)"><use href="#p0" /><circle r="18" fill="#9D0208"><animate attributeType="XML" attributeName="fill" values="#9D0208;#D00000;#9D0208;#9D0208" dur="1s" begin="aa.begin +s" repeatCount="indefinite"/></circle></g><use href="#d0" x="120" y="40" /><g transform="translate(120,80)"><use href="#p0" /><circle r="18" fill="#9D0208"><animate attributeType="XML" attributeName="fill" values="#9D0208;#D00000;#9D0208;#9D0208" dur="1s" begin="aa.begin +2.5s" repeatCount="indefinite"/></circle></g><use href="#d0" x="120" y="120" /><use href="#d0" x="120" y="160" /><use href="#d0" x="120" y="200" /><use href="#l0" x="102" y="222" /><use href="#d0" x="120" y="280" /><g transform="translate(120,320)"><use href="#p0" /><circle r="18" fill="#9D0208"><animate attributeType="XML" attributeName="fill" values="#9D0208;#D00000;#9D0208;#9D0208" dur="1s" begin="aa.begin +3s" repeatCount="indefinite"/></circle></g><g transform="translate(142,22)"><use href="#b0" /><polygon points="0,0 0,36 36,36 36,0" fill="#F48C06"><animate attributeType="XML" attributeName="fill" values="#F48C06;#03071E;#F48C06;#F48C06" dur="1s" begin="aa.begin +3.5s" repeatCount="indefinite"/></polygon></g><use href="#l0" x="142" y="62" /><use href="#d0" x="160" y="120" /><use href="#d0" x="160" y="160" /><g transform="translate(142,182)"><use href="#b0" /><polygon points="0,0 0,36 36,36 36,0" fill="#F48C06"><animate attributeType="XML" attributeName="fill" values="#F48C06;#03071E;#F48C06;#F48C06" dur="1s" begin="aa.begin +4s" repeatCount="indefinite"/></polygon></g><use href="#l0" x="142" y="222" /><use href="#d0" x="160" y="280" /><g transform="translate(160,320)"><use href="#p0" /><circle r="18" fill="#9D0208"><animate attributeType="XML" attributeName="fill" values="#9D0208;#D00000;#9D0208;#9D0208" dur="1s" begin="aa.begin +4.5s" repeatCount="indefinite"/></circle></g><use href="#d0" x="200" y="40" /><use href="#l0" x="182" y="62" /><g transform="translate(182,102)"><use href="#b0" /><polygon points="0,0 0,36 36,36 36,0" fill="#F48C06"><animate attributeType="XML" attributeName="fill" values="#F48C06;#03071E;#F48C06;#F48C06" dur="1s" begin="aa.begin +5s" repeatCount="indefinite"/></polygon></g><g transform="translate(182,142)"><use href="#b0" /><polygon points="0,0 0,36 36,36 36,0" fill="#F48C06"><animate attributeType="XML" attributeName="fill" values="#F48C06;#03071E;#F48C06;#F48C06" dur="1s" begin="aa.begin +5.5s" repeatCount="indefinite"/></polygon></g><use href="#d0" x="200" y="200" /><g transform="translate(200,240)"><use href="#p0" /><circle r="18" fill="#9D0208"><animate attributeType="XML" attributeName="fill" values="#9D0208;#D00000;#9D0208;#9D0208" dur="1s" begin="aa.begin +6s" repeatCount="indefinite"/></circle></g><g transform="translate(182,262)"><use href="#b0" /><polygon points="0,0 0,36 36,36 36,0" fill="#F48C06"><animate attributeType="XML" attributeName="fill" values="#F48C06;#03071E;#F48C06;#F48C06" dur="1s" begin="aa.begin +6.5s" repeatCount="indefinite"/></polygon></g><g transform="translate(182,302)"><use href="#b0" /><polygon points="0,0 0,36 36,36 36,0" fill="#F48C06"><animate attributeType="XML" attributeName="fill" values="#F48C06;#03071E;#F48C06;#F48C06" dur="1s" begin="aa.begin +7s" repeatCount="indefinite"/></polygon></g><use href="#d0" x="240" y="40" /><use href="#l0" x="222" y="62" /><use href="#d0" x="240" y="120" /><use href="#d0" x="240" y="160" /><use href="#l0" x="222" y="182" /><use href="#l0" x="222" y="222" /><use href="#d0" x="240" y="280" /><use href="#l0" x="222" y="302" /><use href="#d0" x="280" y="40" /><use href="#d0" x="280" y="80" /><use href="#l0" x="262" y="102" /><use href="#l0" x="262" y="142" /><use href="#d0" x="280" y="200" /><use href="#d0" x="280" y="240" /><use href="#d0" x="280" y="280" /><use href="#d0" x="280" y="320" /><use href="#d0" x="320" y="40" /><use href="#d0" x="320" y="80" /><g transform="translate(302,102)"><use href="#b0" /><polygon points="0,0 0,36 36,36 36,0" fill="#F48C06"><animate attributeType="XML" attributeName="fill" values="#F48C06;#03071E;#F48C06;#F48C06" dur="1s" begin="aa.begin +7.5s" repeatCount="indefinite"/></polygon></g><use href="#l0" x="302" y="142" /><g transform="translate(302,182)"><use href="#b0" /><polygon points="0,0 0,36 36,36 36,0" fill="#F48C06"><animate attributeType="XML" attributeName="fill" values="#F48C06;#03071E;#F48C06;#F48C06" dur="1s" begin="aa.begin +8s" repeatCount="indefinite"/></polygon></g><use href="#d0" x="320" y="240" /><use href="#d0" x="320" y="280" /><use href="#d0" x="320" y="320" /></svg>