<svg width="360" height="360" xmlns="http://www.w3.org/2000/svg"><defs><animate id="aa" begin="0s"/><rect id="l0" width="36" height="36" fill="#FF1053"></rect><circle id="d0" r="18" fill="#251101"></circle></defs><rect width="100%" height="100%" fill="#071E22" /><g transform="translate(22,22)"><use href="#b0" /><polygon points="0,0 0,36 36,36 36,0" fill="#D2F898"><animate attributeType="XML" attributeName="fill" values="#D2F898;#FF1053;#D2F898;#D2F898" dur="0.0s" repeatCount="indefinite"/></polygon></g><use href="#l0" x="22" y="62" /><use href="#d0" x="40" y="120" /><g transform="translate(22,142)"><use href="#b0" /><polygon points="0,0 0,36 36,36 36,0" fill="#D2F898"><animate attributeType="XML" attributeName="fill" values="#D2F898;#FF1053;#D2F898;#D2F898" dur="0.0s" repeatCount="indefinite"/></polygon></g><g transform="translate(40,200)"><use href="#p0" /><circle r="18" fill="#3D3522"><animate attributeType="XML" attributeName="fill" values="#3D3522;#251101;#3D3522;#3D3522" dur="0.0s" repeatCount="indefinite"/></circle></g><use href="#l0" x="22" y="222" /><use href="#d0" x="40" y="280" /><use href="#l0" x="22" y="302" /><use href="#d0" x="80" y="40" /><g transform="translate(80,80)"><use href="#p0" /><circle r="18" fill="#3D3522"><animate attributeType="XML" attributeName="fill" values="#3D3522;#251101;#3D3522;#3D3522" dur="0.1s" repeatCount="indefinite"/></circle></g><use href="#d0" x="80" y="120" /><use href="#l0" x="62" y="142" /><use href="#d0" x="80" y="200" /><g transform="translate(80,240)"><use href="#p0" /><circle r="18" fill="#3D3522"><animate attributeType="XML" attributeName="fill" values="#3D3522;#251101;#3D3522;#3D3522" dur="0.5s" repeatCount="indefinite"/></circle></g><use href="#d0" x="80" y="280" /><g transform="translate(62,302)"><use href="#b0" /><polygon points="0,0 0,36 36,36 36,0" fill="#D2F898"><animate attributeType="XML" attributeName="fill" values="#D2F898;#FF1053;#D2F898;#D2F898" dur="0.7s" repeatCount="indefinite"/></polygon></g><use href="#l0" x="102" y="22" /><g transform="translate(120,80)"><use href="#p0" /><circle r="18" fill="#3D3522"><animate attributeType="XML" attributeName="fill" values="#3D3522;#251101;#3D3522;#3D3522" dur="0.2s" repeatCount="indefinite"/></circle></g><g transform="translate(102,102)"><use href="#b0" /><polygon points="0,0 0,36 36,36 36,0" fill="#D2F898"><animate attributeType="XML" attributeName="fill" values="#D2F898;#FF1053;#D2F898;#D2F898" dur="0.4s" repeatCount="indefinite"/></polygon></g><use href="#l0" x="102" y="142" /><g transform="translate(102,182)"><use href="#b0" /><polygon points="0,0 0,36 36,36 36,0" fill="#D2F898"><animate attributeType="XML" attributeName="fill" values="#D2F898;#FF1053;#D2F898;#D2F898" dur="0.8s" repeatCount="indefinite"/></polygon></g><use href="#d0" x="120" y="240" /><use href="#d0" x="120" y="280" /><use href="#d0" x="120" y="320" /><use href="#d0" x="160" y="40" /><g transform="translate(142,62)"><use href="#b0" /><polygon points="0,0 0,36 36,36 36,0" fill="#D2F898"><animate attributeType="XML" attributeName="fill" values="#D2F898;#FF1053;#D2F898;#D2F898" dur="0.3s" repeatCount="indefinite"/></polygon></g><use href="#d0" x="160" y="120" /><g transform="translate(160,160)"><use href="#p0" /><circle r="18" fill="#3D3522"><animate attributeType="XML" attributeName="fill" values="#3D3522;#251101;#3D3522;#3D3522" dur="0.9s" repeatCount="indefinite"/></circle></g><g transform="translate(142,182)"><use href="#b0" /><polygon points="0,0 0,36 36,36 36,0" fill="#D2F898"><animate attributeType="XML" attributeName="fill" values="#D2F898;#FF1053;#D2F898;#D2F898" dur="0.2s" repeatCount="indefinite"/></polygon></g><g transform="translate(142,222)"><use href="#b0" /><polygon points="0,0 0,36 36,36 36,0" fill="#D2F898"><animate attributeType="XML" attributeName="fill" values="#D2F898;#FF1053;#D2F898;#D2F898" dur="0.5s" repeatCount="indefinite"/></polygon></g><use href="#d0" x="160" y="280" /><use href="#d0" x="160" y="320" /><use href="#d0" x="200" y="40" /><use href="#d0" x="200" y="80" /><g transform="translate(200,120)"><use href="#p0" /><circle r="18" fill="#3D3522"><animate attributeType="XML" attributeName="fill" values="#3D3522;#251101;#3D3522;#3D3522" dur="0.8s" repeatCount="indefinite"/></circle></g><g transform="translate(182,142)"><use href="#b0" /><polygon points="0,0 0,36 36,36 36,0" fill="#D2F898"><animate attributeType="XML" attributeName="fill" values="#D2F898;#FF1053;#D2F898;#D2F898" dur="0.2s" repeatCount="indefinite"/></polygon></g><g transform="translate(200,200)"><use href="#p0" /><circle r="18" fill="#3D3522"><animate attributeType="XML" attributeName="fill" values="#3D3522;#251101;#3D3522;#3D3522" dur="0.6s" repeatCount="indefinite"/></circle></g><use href="#d0" x="200" y="240" /><use href="#d0" x="200" y="280" /><use href="#d0" x="200" y="320" /><use href="#d0" x="240" y="40" /><use href="#d0" x="240" y="80" /><use href="#d0" x="240" y="120" /><use href="#d0" x="240" y="160" /><g transform="translate(240,200)"><use href="#p0" /><circle r="18" fill="#3D3522"><animate attributeType="XML" attributeName="fill" values="#3D3522;#251101;#3D3522;#3D3522" dur="0.0s" repeatCount="indefinite"/></circle></g><use href="#l0" x="222" y="222" /><use href="#d0" x="240" y="280" /><use href="#d0" x="240" y="320" /><use href="#d0" x="280" y="40" /><use href="#d0" x="280" y="80" /><use href="#d0" x="280" y="120" /><use href="#l0" x="262" y="142" /><g transform="translate(280,200)"><use href="#p0" /><circle r="18" fill="#3D3522"><animate attributeType="XML" attributeName="fill" values="#3D3522;#251101;#3D3522;#3D3522" dur="0.4s" repeatCount="indefinite"/></circle></g><use href="#l0" x="262" y="222" /><g transform="translate(262,262)"><use href="#b0" /><polygon points="0,0 0,36 36,36 36,0" fill="#D2F898"><animate attributeType="XML" attributeName="fill" values="#D2F898;#FF1053;#D2F898;#D2F898" dur="0.6s" repeatCount="indefinite"/></polygon></g><use href="#d0" x="280" y="320" /><g transform="translate(302,22)"><use href="#b0" /><polygon points="0,0 0,36 36,36 36,0" fill="#D2F898"><animate attributeType="XML" attributeName="fill" values="#D2F898;#FF1053;#D2F898;#D2F898" dur="0.0s" repeatCount="indefinite"/></polygon></g><g transform="translate(302,62)"><use href="#b0" /><polygon points="0,0 0,36 36,36 36,0" fill="#D2F898"><animate attributeType="XML" attributeName="fill" values="#D2F898;#FF1053;#D2F898;#D2F898" dur="0.7s" repeatCount="indefinite"/></polygon></g><use href="#d0" x="320" y="120" /><use href="#l0" x="302" y="142" /><use href="#d0" x="320" y="200" /><use href="#d0" x="320" y="240" /><g transform="translate(320,280)"><use href="#p0" /><circle r="18" fill="#3D3522"><animate attributeType="XML" attributeName="fill" values="#3D3522;#251101;#3D3522;#3D3522" dur="0.2s" repeatCount="indefinite"/></circle></g><use href="#d0" x="320" y="320" /></svg>