<svg width="360" height="360" xmlns="http://www.w3.org/2000/svg"><defs><animate id="aa" begin="0s"/><rect id="d0" width="36" height="36" fill="#2B9348"></rect><circle id="l0" r="18" fill="#FFFF3F"></circle></defs><rect width="100%" height="100%" fill="#80B918" /><use href="#d0" x="22" y="22" /><use href="#d0" x="22" y="62" /><use href="#d0" x="22" y="102" /><use href="#d0" x="22" y="142" /><g transform="translate(40,200)"><use href="#b0" /><circle r="18" fill="#EEEF20"><animate attributeType="XML" attributeName="fill" values="#EEEF20;#FFFF3F;#EEEF20;#EEEF20" dur="3s" begin="aa.begin +1s" repeatCount="indefinite"/></circle></g><use href="#d0" x="22" y="222" /><use href="#l0" x="40" y="280" /><g transform="translate(40,320)"><use href="#b0" /><circle r="18" fill="#EEEF20"><animate attributeType="XML" attributeName="fill" values="#EEEF20;#FFFF3F;#EEEF20;#EEEF20" dur="3s" begin="aa.begin +1.5s" repeatCount="indefinite"/></circle></g><g transform="translate(62,22)"><use href="#p0" /><polygon points="0,0 0,36 36,36 36,0" fill="#55A630"><animate attributeType="XML" attributeName="fill" values="#55A630;#2B9348;#55A630;#55A630" dur="3s" begin="aa.begin +2s" repeatCount="indefinite"/></polygon></g><g transform="translate(62,62)"><use href="#p0" /><polygon points="0,0 0,36 36,36 36,0" fill="#55A630"><animate attributeType="XML" attributeName="fill" values="#55A630;#2B9348;#55A630;#55A630" dur="3s" begin="aa.begin +s" repeatCount="indefinite"/></polygon></g><use href="#d0" x="62" y="102" /><use href="#d0" x="62" y="142" /><g transform="translate(80,200)"><use href="#b0" /><circle r="18" fill="#EEEF20"><animate attributeType="XML" attributeName="fill" values="#EEEF20;#FFFF3F;#EEEF20;#EEEF20" dur="3s" begin="aa.begin +2.5s" repeatCount="indefinite"/></circle></g><g transform="translate(62,222)"><use href="#p0" /><polygon points="0,0 0,36 36,36 36,0" fill="#55A630"><animate attributeType="XML" attributeName="fill" values="#55A630;#2B9348;#55A630;#55A630" dur="3s" begin="aa.begin +3s" repeatCount="indefinite"/></polygon></g><use href="#l0" x="80" y="280" /><use href="#d0" x="62" y="302" /><use href="#d0" x="102" y="22" /><g transform="translate(102,62)"><use href="#p0" /><polygon points="0,0 0,36 36,36 36,0" fill="#55A630"><animate attributeType="XML" attributeName="fill" values="#55A630;#2B9348;#55A630;#55A630" dur="3s" begin="aa.begin +3.5s" repeatCount="indefinite"/></polygon></g><g transform="translate(120,120)"><use href="#b0" /><circle r="18" fill="#EEEF20"><animate attributeType="XML" attributeName="fill" values="#EEEF20;#FFFF3F;#EEEF20;#EEEF20" dur="3s" begin="aa.begin +4s" repeatCount="indefinite"/></circle></g><g transform="translate(102,142)"><use href="#p0" /><polygon points="0,0 0,36 36,36 36,0" fill="#55A630"><animate attributeType="XML" attributeName="fill" values="#55A630;#2B9348;#55A630;#55A630" dur="3s" begin="aa.begin +4.5s" repeatCount="indefinite"/></polygon></g><use href="#d0" x="102" y="182" /><use href="#d0" x="102" y="222" /><use href="#d0" x="102" y="262" /><use href="#l0" x="120" y="320" /><use href="#d0" x="142" y="22" /><use href="#l0" x="160" y="80" /><use href="#d0" x="142" y="102" /><use href="#l0" x="160" y="160" /><use href="#l0" x="160" y="200" /><use href="#l0" x="160" y="240" /><g transform="translate(142,262)"><use href="#p0" /><polygon points="0,0 0,36 36,36 36,0" fill="#55A630"><animate attributeType="XML" attributeName="fill" values="#55A630;#2B9348;#55A630;#55A630" dur="3s" begin="aa.begin +5s" repeatCount="indefinite"/></polygon></g><use href="#l0" x="160" y="320" /><g transform="translate(200,40)"><use href="#b0" /><circle r="18" fill="#EEEF20"><animate attributeType="XML" attributeName="fill" values="#EEEF20;#FFFF3F;#EEEF20;#EEEF20" dur="3s" begin="aa.begin +5.5s" repeatCount="indefinite"/></circle></g><g transform="translate(200,80)"><use href="#b0" /><circle r="18" fill="#EEEF20"><animate attributeType="XML" attributeName="fill" values="#EEEF20;#FFFF3F;#EEEF20;#EEEF20" dur="3s" begin="aa.begin +6s" repeatCount="indefinite"/></circle></g><g transform="translate(182,102)"><use href="#p0" /><polygon points="0,0 0,36 36,36 36,0" fill="#55A630"><animate attributeType="XML" attributeName="fill" values="#55A630;#2B9348;#55A630;#55A630" dur="3s" begin="aa.begin +6.5s" repeatCount="indefinite"/></polygon></g><use href="#d0" x="182" y="142" /><use href="#d0" x="182" y="182" /><use href="#d0" x="182" y="222" /><g transform="translate(182,262)"><use href="#p0" /><polygon points="0,0 0,36 36,36 36,0" fill="#55A630"><animate attributeType="XML" attributeName="fill" values="#55A630;#2B9348;#55A630;#55A630" dur="3s" begin="aa.begin +7s" repeatCount="indefinite"/></polygon></g><use href="#l0" x="200" y="320" /><g transform="translate(240,40)"><use href="#b0" /><circle r="18" fill="#EEEF20"><animate attributeType="XML" attributeName="fill" values="#EEEF20;#FFFF3F;#EEEF20;#EEEF20" dur="3s" begin="aa.begin +7.5s" repeatCount="indefinite"/></circle></g><g transform="translate(240,80)"><use href="#b0" /><circle r="18" fill="#EEEF20"><animate attributeType="XML" attributeName="fill" values="#EEEF20;#FFFF3F;#EEEF20;#EEEF20" dur="3s" begin="aa.begin +8s" repeatCount="indefinite"/></circle></g><use href="#d0" x="222" y="102" /><use href="#l0" x="240" y="160" /><use href="#l0" x="240" y="200" /><g transform="translate(222,222)"><use href="#p0" /><polygon points="0,0 0,36 36,36 36,0" fill="#55A630"><animate attributeType="XML" attributeName="fill" values="#55A630;#2B9348;#55A630;#55A630" dur="3s" begin="aa.begin +8.5s" repeatCount="indefinite"/></polygon></g><use href="#d0" x="222" y="262" /><g transform="translate(240,320)"><use href="#b0" /><circle r="18" fill="#EEEF20"><animate attributeType="XML" attributeName="fill" values="#EEEF20;#FFFF3F;#EEEF20;#EEEF20" dur="3s" begin="aa.begin +9s" repeatCount="indefinite"/></circle></g><g transform="translate(280,40)"><use href="#b0" /><circle r="18" fill="#EEEF20"><animate attributeType="XML" attributeName="fill" values="#EEEF20;#FFFF3F;#EEEF20;#EEEF20" dur="3s" begin="aa.begin +9.5s" repeatCount="indefinite"/></circle></g><g transform="translate(280,80)"><use href="#b0" /><circle r="18" fill="#EEEF20"><animate attributeType="XML" attributeName="fill" values="#EEEF20;#FFFF3F;#EEEF20;#EEEF20" dur="3s" begin="aa.begin +10s" repeatCount="indefinite"/></circle></g><use href="#d0" x="262" y="102" /><use href="#l0" x="280" y="160" /><use href="#d0" x="262" y="182" /><g transform="translate(280,240)"><use href="#b0" /><circle r="18" fill="#EEEF20"><animate attributeType="XML" attributeName="fill" values="#EEEF20;#FFFF3F;#EEEF20;#EEEF20" dur="3s" begin="aa.begin +10.5s" repeatCount="indefinite"/></circle></g><g transform="translate(280,280)"><use href="#b0" /><circle r="18" fill="#EEEF20"><animate attributeType="XML" attributeName="fill" values="#EEEF20;#FFFF3F;#EEEF20;#EEEF20" dur="3s" begin="aa.begin +11s" repeatCount="indefinite"/></circle></g><use href="#d0" x="262" y="302" /><g transform="translate(320,40)"><use href="#b0" /><circle r="18" fill="#EEEF20"><animate attributeType="XML" attributeName="fill" values="#EEEF20;#FFFF3F;#EEEF20;#EEEF20" dur="3s" begin="aa.begin +s" repeatCount="indefinite"/></circle></g><g transform="translate(320,80)"><use href="#b0" /><circle r="18" fill="#EEEF20"><animate attributeType="XML" attributeName="fill" values="#EEEF20;#FFFF3F;#EEEF20;#EEEF20" dur="3s" begin="aa.begin +s" repeatCount="indefinite"/></circle></g><g transform="translate(320,120)"><use href="#b0" /><circle r="18" fill="#EEEF20"><animate attributeType="XML" attributeName="fill" values="#EEEF20;#FFFF3F;#EEEF20;#EEEF20" dur="3s" begin="aa.begin +s" repeatCount="indefinite"/></circle></g><use href="#d0" x="302" y="142" /><g transform="translate(302,182)"><use href="#p0" /><polygon points="0,0 0,36 36,36 36,0" fill="#55A630"><animate attributeType="XML" attributeName="fill" values="#55A630;#2B9348;#55A630;#55A630" dur="3s" begin="aa.begin +s" repeatCount="indefinite"/></polygon></g><g transform="translate(302,222)"><use href="#p0" /><polygon points="0,0 0,36 36,36 36,0" fill="#55A630"><animate attributeType="XML" attributeName="fill" values="#55A630;#2B9348;#55A630;#55A630" dur="3s" begin="aa.begin +s" repeatCount="indefinite"/></polygon></g><use href="#d0" x="302" y="262" /><use href="#d0" x="302" y="302" /></svg>