<svg width="360" height="360" xmlns="http://www.w3.org/2000/svg"><defs><animate id="aa" begin="0s"/><rect id="l0" width="36" height="36" fill="#3d0066"></rect><circle id="d0" r="18" fill="#fdc500"></circle></defs><rect width="100%" height="100%" fill="#ffee32" /><g transform="translate(40,40)"><use href="#p0" /><circle r="18" fill="#ffd500"><animate attributeType="XML" attributeName="fill" values="#ffd500;#fdc500;#ffd500;#ffd500" dur="4s" begin="aa.begin +1s" repeatCount="indefinite"/></circle></g><use href="#d0" x="40" y="80" /><use href="#d0" x="40" y="120" /><g transform="translate(22,142)"><use href="#b0" /><polygon points="0,0 0,36 36,36 36,0" fill="#c86bfa"><animate attributeType="XML" attributeName="fill" values="#c86bfa;#3d0066;#c86bfa;#c86bfa" dur="4s" begin="aa.begin +1.5s" repeatCount="indefinite"/></polygon></g><use href="#d0" x="40" y="200" /><use href="#l0" x="22" y="222" /><use href="#d0" x="40" y="280" /><use href="#l0" x="22" y="302" /><g transform="translate(62,22)"><use href="#b0" /><polygon points="0,0 0,36 36,36 36,0" fill="#c86bfa"><animate attributeType="XML" attributeName="fill" values="#c86bfa;#3d0066;#c86bfa;#c86bfa" dur="4s" begin="aa.begin +2s" repeatCount="indefinite"/></polygon></g><use href="#l0" x="62" y="62" /><use href="#l0" x="62" y="102" /><use href="#d0" x="80" y="160" /><use href="#d0" x="80" y="200" /><use href="#d0" x="80" y="240" /><g transform="translate(80,280)"><use href="#p0" /><circle r="18" fill="#ffd500"><animate attributeType="XML" attributeName="fill" values="#ffd500;#fdc500;#ffd500;#ffd500" dur="4s" begin="aa.begin +s" repeatCount="indefinite"/></circle></g><use href="#l0" x="62" y="302" /><use href="#d0" x="120" y="40" /><use href="#d0" x="120" y="80" /><use href="#d0" x="120" y="120" /><g transform="translate(120,160)"><use href="#p0" /><circle r="18" fill="#ffd500"><animate attributeType="XML" attributeName="fill" values="#ffd500;#fdc500;#ffd500;#ffd500" dur="4s" begin="aa.begin +2.5s" repeatCount="indefinite"/></circle></g><use href="#l0" x="102" y="182" /><use href="#l0" x="102" y="222" /><use href="#d0" x="120" y="280" /><use href="#d0" x="120" y="320" /><use href="#l0" x="142" y="22" /><use href="#l0" x="142" y="62" /><use href="#l0" x="142" y="102" /><use href="#l0" x="142" y="142" /><use href="#d0" x="160" y="200" /><use href="#l0" x="142" y="222" /><use href="#d0" x="160" y="280" /><use href="#l0" x="142" y="302" /><use href="#d0" x="200" y="40" /><use href="#d0" x="200" y="80" /><use href="#d0" x="200" y="120" /><use href="#d0" x="200" y="160" /><use href="#d0" x="200" y="200" /><use href="#l0" x="182" y="222" /><use href="#d0" x="200" y="280" /><use href="#l0" x="182" y="302" /><use href="#d0" x="240" y="40" /><g transform="translate(240,80)"><use href="#p0" /><circle r="18" fill="#ffd500"><animate attributeType="XML" attributeName="fill" values="#ffd500;#fdc500;#ffd500;#ffd500" dur="4s" begin="aa.begin +3s" repeatCount="indefinite"/></circle></g><use href="#d0" x="240" y="120" /><use href="#d0" x="240" y="160" /><g transform="translate(222,182)"><use href="#b0" /><polygon points="0,0 0,36 36,36 36,0" fill="#c86bfa"><animate attributeType="XML" attributeName="fill" values="#c86bfa;#3d0066;#c86bfa;#c86bfa" dur="4s" begin="aa.begin +3.5s" repeatCount="indefinite"/></polygon></g><use href="#l0" x="222" y="222" /><use href="#d0" x="240" y="280" /><use href="#l0" x="222" y="302" /><use href="#d0" x="280" y="40" /><use href="#l0" x="262" y="62" /><g transform="translate(262,102)"><use href="#b0" /><polygon points="0,0 0,36 36,36 36,0" fill="#c86bfa"><animate attributeType="XML" attributeName="fill" values="#c86bfa;#3d0066;#c86bfa;#c86bfa" dur="4s" begin="aa.begin +4s" repeatCount="indefinite"/></polygon></g><use href="#d0" x="280" y="160" /><use href="#d0" x="280" y="200" /><g transform="translate(280,240)"><use href="#p0" /><circle r="18" fill="#ffd500"><animate attributeType="XML" attributeName="fill" values="#ffd500;#fdc500;#ffd500;#ffd500" dur="4s" begin="aa.begin +4.5s" repeatCount="indefinite"/></circle></g><use href="#d0" x="280" y="280" /><use href="#l0" x="262" y="302" /><use href="#d0" x="320" y="40" /><use href="#l0" x="302" y="62" /><g transform="translate(320,120)"><use href="#p0" /><circle r="18" fill="#ffd500"><animate attributeType="XML" attributeName="fill" values="#ffd500;#fdc500;#ffd500;#ffd500" dur="4s" begin="aa.begin +5s" repeatCount="indefinite"/></circle></g><g transform="translate(302,142)"><use href="#b0" /><polygon points="0,0 0,36 36,36 36,0" fill="#c86bfa"><animate attributeType="XML" attributeName="fill" values="#c86bfa;#3d0066;#c86bfa;#c86bfa" dur="4s" begin="aa.begin +5.5s" repeatCount="indefinite"/></polygon></g><g transform="translate(320,200)"><use href="#p0" /><circle r="18" fill="#ffd500"><animate attributeType="XML" attributeName="fill" values="#ffd500;#fdc500;#ffd500;#ffd500" dur="4s" begin="aa.begin +6s" repeatCount="indefinite"/></circle></g><g transform="translate(320,240)"><use href="#p0" /><circle r="18" fill="#ffd500"><animate attributeType="XML" attributeName="fill" values="#ffd500;#fdc500;#ffd500;#ffd500" dur="4s" begin="aa.begin +6.5s" repeatCount="indefinite"/></circle></g><use href="#d0" x="320" y="280" /><use href="#l0" x="302" y="302" /></svg>