<svg width="360" height="360" xmlns="http://www.w3.org/2000/svg"><defs><animate id="aa" begin="0s"/><rect id="d0" width="36" height="36" fill="#c43240"></rect><circle id="l0" r="18" fill="#01263d"></circle></defs><rect width="100%" height="100%" fill="#ef4043" /><use href="#d0" x="22" y="22" /><use href="#d0" x="22" y="62" /><use href="#l0" x="40" y="120" /><use href="#d0" x="22" y="142" /><use href="#d0" x="22" y="182" /><use href="#l0" x="40" y="240" /><g transform="translate(40,280)"><use href="#b0" /><circle r="18" fill="#0e4c6d"><animate attributeType="XML" attributeName="fill" values="#0e4c6d;#01263d;#0e4c6d;#0e4c6d" dur="1.0s" repeatCount="indefinite"/></circle></g><use href="#l0" x="40" y="320" /><use href="#d0" x="62" y="22" /><use href="#d0" x="62" y="62" /><use href="#l0" x="80" y="120" /><use href="#l0" x="80" y="160" /><use href="#d0" x="62" y="182" /><use href="#l0" x="80" y="240" /><use href="#d0" x="62" y="262" /><use href="#d0" x="62" y="302" /><g transform="translate(120,40)"><use href="#b0" /><circle r="18" fill="#0e4c6d"><animate attributeType="XML" attributeName="fill" values="#0e4c6d;#01263d;#0e4c6d;#0e4c6d" dur="1.0s" repeatCount="indefinite"/></circle></g><use href="#d0" x="102" y="62" /><use href="#d0" x="102" y="102" /><use href="#l0" x="120" y="160" /><use href="#d0" x="102" y="182" /><use href="#l0" x="120" y="240" /><use href="#d0" x="102" y="262" /><use href="#d0" x="102" y="302" /><use href="#l0" x="160" y="40" /><use href="#l0" x="160" y="80" /><use href="#d0" x="142" y="102" /><use href="#l0" x="160" y="160" /><use href="#d0" x="142" y="182" /><g transform="translate(142,222)"><use href="#p0" /><polygon points="0,0 0,36 36,36 36,0" fill="#ef4043"><animate attributeType="XML" attributeName="fill" values="#ef4043;#c43240;#ef4043;#ef4043" dur="1.5s" repeatCount="indefinite"/></polygon></g><use href="#l0" x="160" y="280" /><g transform="translate(142,302)"><use href="#p0" /><polygon points="0,0 0,36 36,36 36,0" fill="#ef4043"><animate attributeType="XML" attributeName="fill" values="#ef4043;#c43240;#ef4043;#ef4043" dur="1.1s" repeatCount="indefinite"/></polygon></g><g transform="translate(200,40)"><use href="#b0" /><circle r="18" fill="#0e4c6d"><animate attributeType="XML" attributeName="fill" values="#0e4c6d;#01263d;#0e4c6d;#0e4c6d" dur="1.0s" repeatCount="indefinite"/></circle></g><use href="#d0" x="182" y="62" /><g transform="translate(182,102)"><use href="#p0" /><polygon points="0,0 0,36 36,36 36,0" fill="#ef4043"><animate attributeType="XML" attributeName="fill" values="#ef4043;#c43240;#ef4043;#ef4043" dur="1.8s" repeatCount="indefinite"/></polygon></g><use href="#d0" x="182" y="142" /><use href="#l0" x="200" y="200" /><use href="#d0" x="182" y="222" /><g transform="translate(182,262)"><use href="#p0" /><polygon points="0,0 0,36 36,36 36,0" fill="#ef4043"><animate attributeType="XML" attributeName="fill" values="#ef4043;#c43240;#ef4043;#ef4043" dur="1.4s" repeatCount="indefinite"/></polygon></g><g transform="translate(200,320)"><use href="#b0" /><circle r="18" fill="#0e4c6d"><animate attributeType="XML" attributeName="fill" values="#0e4c6d;#01263d;#0e4c6d;#0e4c6d" dur="1.8s" repeatCount="indefinite"/></circle></g><use href="#d0" x="222" y="22" /><g transform="translate(222,62)"><use href="#p0" /><polygon points="0,0 0,36 36,36 36,0" fill="#ef4043"><animate attributeType="XML" attributeName="fill" values="#ef4043;#c43240;#ef4043;#ef4043" dur="1.5s" repeatCount="indefinite"/></polygon></g><g transform="translate(222,102)"><use href="#p0" /><polygon points="0,0 0,36 36,36 36,0" fill="#ef4043"><animate attributeType="XML" attributeName="fill" values="#ef4043;#c43240;#ef4043;#ef4043" dur="1.0s" repeatCount="indefinite"/></polygon></g><g transform="translate(240,160)"><use href="#b0" /><circle r="18" fill="#0e4c6d"><animate attributeType="XML" attributeName="fill" values="#0e4c6d;#01263d;#0e4c6d;#0e4c6d" dur="1.5s" repeatCount="indefinite"/></circle></g><use href="#l0" x="240" y="200" /><use href="#d0" x="222" y="222" /><g transform="translate(240,280)"><use href="#b0" /><circle r="18" fill="#0e4c6d"><animate attributeType="XML" attributeName="fill" values="#0e4c6d;#01263d;#0e4c6d;#0e4c6d" dur="1.0s" repeatCount="indefinite"/></circle></g><use href="#d0" x="222" y="302" /><g transform="translate(262,22)"><use href="#p0" /><polygon points="0,0 0,36 36,36 36,0" fill="#ef4043"><animate attributeType="XML" attributeName="fill" values="#ef4043;#c43240;#ef4043;#ef4043" dur="1.0s" repeatCount="indefinite"/></polygon></g><g transform="translate(280,80)"><use href="#b0" /><circle r="18" fill="#0e4c6d"><animate attributeType="XML" attributeName="fill" values="#0e4c6d;#01263d;#0e4c6d;#0e4c6d" dur="1.6s" repeatCount="indefinite"/></circle></g><use href="#l0" x="280" y="120" /><use href="#d0" x="262" y="142" /><use href="#d0" x="262" y="182" /><g transform="translate(262,222)"><use href="#p0" /><polygon points="0,0 0,36 36,36 36,0" fill="#ef4043"><animate attributeType="XML" attributeName="fill" values="#ef4043;#c43240;#ef4043;#ef4043" dur="1.0s" repeatCount="indefinite"/></polygon></g><g transform="translate(262,262)"><use href="#p0" /><polygon points="0,0 0,36 36,36 36,0" fill="#ef4043"><animate attributeType="XML" attributeName="fill" values="#ef4043;#c43240;#ef4043;#ef4043" dur="1.6s" repeatCount="indefinite"/></polygon></g><use href="#d0" x="262" y="302" /><use href="#l0" x="320" y="40" /><use href="#d0" x="302" y="62" /><use href="#l0" x="320" y="120" /><use href="#d0" x="302" y="142" /><g transform="translate(302,182)"><use href="#p0" /><polygon points="0,0 0,36 36,36 36,0" fill="#ef4043"><animate attributeType="XML" attributeName="fill" values="#ef4043;#c43240;#ef4043;#ef4043" dur="1.8s" repeatCount="indefinite"/></polygon></g><use href="#d0" x="302" y="222" /><g transform="translate(320,280)"><use href="#b0" /><circle r="18" fill="#0e4c6d"><animate attributeType="XML" attributeName="fill" values="#0e4c6d;#01263d;#0e4c6d;#0e4c6d" dur="1.2s" repeatCount="indefinite"/></circle></g><use href="#d0" x="302" y="302" /></svg>