<svg width="360" height="360" xmlns="http://www.w3.org/2000/svg"><defs><animate id="aa" begin="0s"/><rect id="l0" width="36" height="36" fill="#01263d"></rect><circle id="d0" r="18" fill="#c43240"></circle></defs><rect width="100%" height="100%" fill="#ef4043" /><use href="#d0" x="40" y="40" /><g transform="translate(40,80)"><use href="#p0" /><circle r="18" fill="#ef4043"><animate attributeType="XML" attributeName="fill" values="#ef4043;#c43240;#ef4043;#ef4043" dur="4s" begin="aa.begin +1s" repeatCount="indefinite"/></circle></g><g transform="translate(40,120)"><use href="#p0" /><circle r="18" fill="#ef4043"><animate attributeType="XML" attributeName="fill" values="#ef4043;#c43240;#ef4043;#ef4043" dur="4s" begin="aa.begin +1.5s" repeatCount="indefinite"/></circle></g><use href="#d0" x="40" y="160" /><use href="#d0" x="40" y="200" /><use href="#d0" x="40" y="240" /><use href="#d0" x="40" y="280" /><use href="#d0" x="40" y="320" /><use href="#d0" x="80" y="40" /><use href="#d0" x="80" y="80" /><use href="#d0" x="80" y="120" /><use href="#d0" x="80" y="160" /><use href="#d0" x="80" y="200" /><use href="#d0" x="80" y="240" /><use href="#d0" x="80" y="280" /><use href="#d0" x="80" y="320" /><use href="#d0" x="120" y="40" /><use href="#d0" x="120" y="80" /><use href="#d0" x="120" y="120" /><use href="#d0" x="120" y="160" /><use href="#d0" x="120" y="200" /><use href="#d0" x="120" y="240" /><use href="#d0" x="120" y="280" /><use href="#d0" x="120" y="320" /><use href="#d0" x="160" y="40" /><use href="#d0" x="160" y="80" /><use href="#d0" x="160" y="120" /><use href="#d0" x="160" y="160" /><use href="#d0" x="160" y="200" /><use href="#d0" x="160" y="240" /><use href="#d0" x="160" y="280" /><use href="#d0" x="160" y="320" /><g transform="translate(182,22)"><use href="#b0" /><polygon points="0,0 0,36 36,36 36,0" fill="#72bad5"><animate attributeType="XML" attributeName="fill" values="#72bad5;#01263d;#72bad5;#72bad5" dur="4s" begin="aa.begin +2s" repeatCount="indefinite"/></polygon></g><g transform="translate(182,62)"><use href="#b0" /><polygon points="0,0 0,36 36,36 36,0" fill="#72bad5"><animate attributeType="XML" attributeName="fill" values="#72bad5;#01263d;#72bad5;#72bad5" dur="4s" begin="aa.begin +s" repeatCount="indefinite"/></polygon></g><use href="#d0" x="200" y="120" /><use href="#d0" x="200" y="160" /><use href="#d0" x="200" y="200" /><use href="#d0" x="200" y="240" /><use href="#d0" x="200" y="280" /><g transform="translate(182,302)"><use href="#b0" /><polygon points="0,0 0,36 36,36 36,0" fill="#72bad5"><animate attributeType="XML" attributeName="fill" values="#72bad5;#01263d;#72bad5;#72bad5" dur="4s" begin="aa.begin +2.5s" repeatCount="indefinite"/></polygon></g><g transform="translate(240,40)"><use href="#p0" /><circle r="18" fill="#ef4043"><animate attributeType="XML" attributeName="fill" values="#ef4043;#c43240;#ef4043;#ef4043" dur="4s" begin="aa.begin +3s" repeatCount="indefinite"/></circle></g><g transform="translate(240,80)"><use href="#p0" /><circle r="18" fill="#ef4043"><animate attributeType="XML" attributeName="fill" values="#ef4043;#c43240;#ef4043;#ef4043" dur="4s" begin="aa.begin +3.5s" repeatCount="indefinite"/></circle></g><g transform="translate(222,102)"><use href="#b0" /><polygon points="0,0 0,36 36,36 36,0" fill="#72bad5"><animate attributeType="XML" attributeName="fill" values="#72bad5;#01263d;#72bad5;#72bad5" dur="4s" begin="aa.begin +4s" repeatCount="indefinite"/></polygon></g><use href="#d0" x="240" y="160" /><use href="#d0" x="240" y="200" /><use href="#d0" x="240" y="240" /><g transform="translate(222,262)"><use href="#b0" /><polygon points="0,0 0,36 36,36 36,0" fill="#72bad5"><animate attributeType="XML" attributeName="fill" values="#72bad5;#01263d;#72bad5;#72bad5" dur="4s" begin="aa.begin +4.5s" repeatCount="indefinite"/></polygon></g><g transform="translate(240,320)"><use href="#p0" /><circle r="18" fill="#ef4043"><animate attributeType="XML" attributeName="fill" values="#ef4043;#c43240;#ef4043;#ef4043" dur="4s" begin="aa.begin +5s" repeatCount="indefinite"/></circle></g><use href="#d0" x="280" y="40" /><use href="#l0" x="262" y="62" /><use href="#l0" x="262" y="102" /><use href="#d0" x="280" y="160" /><use href="#d0" x="280" y="200" /><use href="#d0" x="280" y="240" /><g transform="translate(280,280)"><use href="#p0" /><circle r="18" fill="#ef4043"><animate attributeType="XML" attributeName="fill" values="#ef4043;#c43240;#ef4043;#ef4043" dur="4s" begin="aa.begin +5.5s" repeatCount="indefinite"/></circle></g><use href="#d0" x="280" y="320" /><use href="#d0" x="320" y="40" /><use href="#d0" x="320" y="80" /><use href="#d0" x="320" y="120" /><use href="#d0" x="320" y="160" /><use href="#d0" x="320" y="200" /><use href="#d0" x="320" y="240" /><use href="#d0" x="320" y="280" /><use href="#d0" x="320" y="320" /></svg>