<svg width="360" height="360" xmlns="http://www.w3.org/2000/svg"><defs><animate id="aa" begin="0s"/><rect id="l0" width="36" height="36" fill="#01263d"></rect><circle id="d0" r="18" fill="#c43240"></circle></defs><rect width="100%" height="100%" fill="#ef4043" /><use href="#d0" x="40" y="40" /><use href="#d0" x="40" y="80" /><g transform="translate(40,120)"><use href="#p0" /><circle r="18" fill="#ef4043"><animate attributeType="XML" attributeName="fill" values="#ef4043;#c43240;#ef4043;#ef4043" dur="0.0s" repeatCount="indefinite"/></circle></g><g transform="translate(40,160)"><use href="#p0" /><circle r="18" fill="#ef4043"><animate attributeType="XML" attributeName="fill" values="#ef4043;#c43240;#ef4043;#ef4043" dur="0.0s" repeatCount="indefinite"/></circle></g><use href="#l0" x="22" y="182" /><g transform="translate(40,240)"><use href="#p0" /><circle r="18" fill="#ef4043"><animate attributeType="XML" attributeName="fill" values="#ef4043;#c43240;#ef4043;#ef4043" dur="0.0s" repeatCount="indefinite"/></circle></g><g transform="translate(40,280)"><use href="#p0" /><circle r="18" fill="#ef4043"><animate attributeType="XML" attributeName="fill" values="#ef4043;#c43240;#ef4043;#ef4043" dur="0.0s" repeatCount="indefinite"/></circle></g><g transform="translate(22,302)"><use href="#b0" /><polygon points="0,0 0,36 36,36 36,0" fill="#0e4c6d"><animate attributeType="XML" attributeName="fill" values="#0e4c6d;#01263d;#0e4c6d;#0e4c6d" dur="0.0s" repeatCount="indefinite"/></polygon></g><g transform="translate(80,40)"><use href="#p0" /><circle r="18" fill="#ef4043"><animate attributeType="XML" attributeName="fill" values="#ef4043;#c43240;#ef4043;#ef4043" dur="0.0s" repeatCount="indefinite"/></circle></g><use href="#d0" x="80" y="80" /><g transform="translate(80,120)"><use href="#p0" /><circle r="18" fill="#ef4043"><animate attributeType="XML" attributeName="fill" values="#ef4043;#c43240;#ef4043;#ef4043" dur="0.2s" repeatCount="indefinite"/></circle></g><g transform="translate(62,142)"><use href="#b0" /><polygon points="0,0 0,36 36,36 36,0" fill="#0e4c6d"><animate attributeType="XML" attributeName="fill" values="#0e4c6d;#01263d;#0e4c6d;#0e4c6d" dur="0.3s" repeatCount="indefinite"/></polygon></g><use href="#l0" x="62" y="182" /><g transform="translate(62,222)"><use href="#b0" /><polygon points="0,0 0,36 36,36 36,0" fill="#0e4c6d"><animate attributeType="XML" attributeName="fill" values="#0e4c6d;#01263d;#0e4c6d;#0e4c6d" dur="0.5s" repeatCount="indefinite"/></polygon></g><g transform="translate(62,262)"><use href="#b0" /><polygon points="0,0 0,36 36,36 36,0" fill="#0e4c6d"><animate attributeType="XML" attributeName="fill" values="#0e4c6d;#01263d;#0e4c6d;#0e4c6d" dur="0.6s" repeatCount="indefinite"/></polygon></g><use href="#d0" x="80" y="320" /><use href="#d0" x="120" y="40" /><g transform="translate(102,62)"><use href="#b0" /><polygon points="0,0 0,36 36,36 36,0" fill="#0e4c6d"><animate attributeType="XML" attributeName="fill" values="#0e4c6d;#01263d;#0e4c6d;#0e4c6d" dur="0.2s" repeatCount="indefinite"/></polygon></g><g transform="translate(120,120)"><use href="#p0" /><circle r="18" fill="#ef4043"><animate attributeType="XML" attributeName="fill" values="#ef4043;#c43240;#ef4043;#ef4043" dur="0.4s" repeatCount="indefinite"/></circle></g><use href="#d0" x="120" y="160" /><use href="#d0" x="120" y="200" /><g transform="translate(120,240)"><use href="#p0" /><circle r="18" fill="#ef4043"><animate attributeType="XML" attributeName="fill" values="#ef4043;#c43240;#ef4043;#ef4043" dur="0.0s" repeatCount="indefinite"/></circle></g><use href="#d0" x="120" y="280" /><use href="#d0" x="120" y="320" /><use href="#d0" x="160" y="40" /><g transform="translate(160,80)"><use href="#p0" /><circle r="18" fill="#ef4043"><animate attributeType="XML" attributeName="fill" values="#ef4043;#c43240;#ef4043;#ef4043" dur="0.3s" repeatCount="indefinite"/></circle></g><use href="#l0" x="142" y="102" /><use href="#d0" x="160" y="160" /><use href="#l0" x="142" y="182" /><use href="#d0" x="160" y="240" /><g transform="translate(142,262)"><use href="#b0" /><polygon points="0,0 0,36 36,36 36,0" fill="#0e4c6d"><animate attributeType="XML" attributeName="fill" values="#0e4c6d;#01263d;#0e4c6d;#0e4c6d" dur="0.8s" repeatCount="indefinite"/></polygon></g><use href="#d0" x="160" y="320" /><use href="#l0" x="182" y="22" /><use href="#d0" x="200" y="80" /><g transform="translate(200,120)"><use href="#p0" /><circle r="18" fill="#ef4043"><animate attributeType="XML" attributeName="fill" values="#ef4043;#c43240;#ef4043;#ef4043" dur="0.8s" repeatCount="indefinite"/></circle></g><use href="#d0" x="200" y="160" /><g transform="translate(200,200)"><use href="#p0" /><circle r="18" fill="#ef4043"><animate attributeType="XML" attributeName="fill" values="#ef4043;#c43240;#ef4043;#ef4043" dur="0.6s" repeatCount="indefinite"/></circle></g><g transform="translate(200,240)"><use href="#p0" /><circle r="18" fill="#ef4043"><animate attributeType="XML" attributeName="fill" values="#ef4043;#c43240;#ef4043;#ef4043" dur="0.0s" repeatCount="indefinite"/></circle></g><use href="#l0" x="182" y="262" /><use href="#l0" x="182" y="302" /><use href="#d0" x="240" y="40" /><use href="#l0" x="222" y="62" /><use href="#l0" x="222" y="102" /><use href="#l0" x="222" y="142" /><g transform="translate(240,200)"><use href="#p0" /><circle r="18" fill="#ef4043"><animate attributeType="XML" attributeName="fill" values="#ef4043;#c43240;#ef4043;#ef4043" dur="0.0s" repeatCount="indefinite"/></circle></g><use href="#d0" x="240" y="240" /><g transform="translate(222,262)"><use href="#b0" /><polygon points="0,0 0,36 36,36 36,0" fill="#0e4c6d"><animate attributeType="XML" attributeName="fill" values="#0e4c6d;#01263d;#0e4c6d;#0e4c6d" dur="0.0s" repeatCount="indefinite"/></polygon></g><use href="#d0" x="240" y="320" /><use href="#d0" x="280" y="40" /><use href="#d0" x="280" y="80" /><use href="#d0" x="280" y="120" /><use href="#d0" x="280" y="160" /><use href="#d0" x="280" y="200" /><use href="#d0" x="280" y="240" /><g transform="translate(262,262)"><use href="#b0" /><polygon points="0,0 0,36 36,36 36,0" fill="#0e4c6d"><animate attributeType="XML" attributeName="fill" values="#0e4c6d;#01263d;#0e4c6d;#0e4c6d" dur="0.6s" repeatCount="indefinite"/></polygon></g><g transform="translate(280,320)"><use href="#p0" /><circle r="18" fill="#ef4043"><animate attributeType="XML" attributeName="fill" values="#ef4043;#c43240;#ef4043;#ef4043" dur="0.2s" repeatCount="indefinite"/></circle></g><use href="#l0" x="302" y="22" /><use href="#l0" x="302" y="62" /><g transform="translate(320,120)"><use href="#p0" /><circle r="18" fill="#ef4043"><animate attributeType="XML" attributeName="fill" values="#ef4043;#c43240;#ef4043;#ef4043" dur="0.4s" repeatCount="indefinite"/></circle></g><use href="#d0" x="320" y="160" /><g transform="translate(320,200)"><use href="#p0" /><circle r="18" fill="#ef4043"><animate attributeType="XML" attributeName="fill" values="#ef4043;#c43240;#ef4043;#ef4043" dur="0.8s" repeatCount="indefinite"/></circle></g><use href="#d0" x="320" y="240" /><g transform="translate(302,262)"><use href="#b0" /><polygon points="0,0 0,36 36,36 36,0" fill="#0e4c6d"><animate attributeType="XML" attributeName="fill" values="#0e4c6d;#01263d;#0e4c6d;#0e4c6d" dur="0.2s" repeatCount="indefinite"/></polygon></g><g transform="translate(320,320)"><use href="#p0" /><circle r="18" fill="#ef4043"><animate attributeType="XML" attributeName="fill" values="#ef4043;#c43240;#ef4043;#ef4043" dur="0.9s" repeatCount="indefinite"/></circle></g></svg>