<svg width="360" height="360" xmlns="http://www.w3.org/2000/svg"><defs><animate id="aa" begin="0s"/><rect id="d0" width="36" height="36" fill="#c43240"></rect><circle id="l0" r="18" fill="#01263d"></circle></defs><rect width="100%" height="100%" fill="#ef4043" /><use href="#d0" x="22" y="22" /><use href="#l0" x="40" y="80" /><use href="#l0" x="40" y="120" /><use href="#d0" x="22" y="142" /><g transform="translate(40,200)"><use href="#b0" /><circle r="18" fill="#0e4c6d"><animate attributeType="XML" attributeName="fill" values="#0e4c6d;#01263d;#0e4c6d;#0e4c6d" dur="2.0s" repeatCount="indefinite"/></circle></g><use href="#d0" x="22" y="222" /><use href="#d0" x="22" y="262" /><g transform="translate(22,302)"><use href="#p0" /><polygon points="0,0 0,36 36,36 36,0" fill="#ef4043"><animate attributeType="XML" attributeName="fill" values="#ef4043;#c43240;#ef4043;#ef4043" dur="2.0s" repeatCount="indefinite"/></polygon></g><use href="#l0" x="80" y="40" /><use href="#d0" x="62" y="62" /><use href="#l0" x="80" y="120" /><use href="#d0" x="62" y="142" /><use href="#l0" x="80" y="200" /><use href="#d0" x="62" y="222" /><g transform="translate(62,262)"><use href="#p0" /><polygon points="0,0 0,36 36,36 36,0" fill="#ef4043"><animate attributeType="XML" attributeName="fill" values="#ef4043;#c43240;#ef4043;#ef4043" dur="2.6s" repeatCount="indefinite"/></polygon></g><use href="#d0" x="62" y="302" /><use href="#l0" x="120" y="40" /><use href="#d0" x="102" y="62" /><use href="#l0" x="120" y="120" /><use href="#d0" x="102" y="142" /><use href="#l0" x="120" y="200" /><g transform="translate(120,240)"><use href="#b0" /><circle r="18" fill="#0e4c6d"><animate attributeType="XML" attributeName="fill" values="#0e4c6d;#01263d;#0e4c6d;#0e4c6d" dur="2.0s" repeatCount="indefinite"/></circle></g><use href="#d0" x="102" y="262" /><g transform="translate(120,320)"><use href="#b0" /><circle r="18" fill="#0e4c6d"><animate attributeType="XML" attributeName="fill" values="#0e4c6d;#01263d;#0e4c6d;#0e4c6d" dur="2.4s" repeatCount="indefinite"/></circle></g><g transform="translate(142,22)"><use href="#p0" /><polygon points="0,0 0,36 36,36 36,0" fill="#ef4043"><animate attributeType="XML" attributeName="fill" values="#ef4043;#c43240;#ef4043;#ef4043" dur="2.0s" repeatCount="indefinite"/></polygon></g><use href="#d0" x="142" y="62" /><use href="#l0" x="160" y="120" /><use href="#d0" x="142" y="142" /><g transform="translate(142,182)"><use href="#p0" /><polygon points="0,0 0,36 36,36 36,0" fill="#ef4043"><animate attributeType="XML" attributeName="fill" values="#ef4043;#c43240;#ef4043;#ef4043" dur="2.2s" repeatCount="indefinite"/></polygon></g><use href="#d0" x="142" y="222" /><use href="#d0" x="142" y="262" /><use href="#d0" x="142" y="302" /><g transform="translate(182,22)"><use href="#p0" /><polygon points="0,0 0,36 36,36 36,0" fill="#ef4043"><animate attributeType="XML" attributeName="fill" values="#ef4043;#c43240;#ef4043;#ef4043" dur="2.0s" repeatCount="indefinite"/></polygon></g><g transform="translate(200,80)"><use href="#b0" /><circle r="18" fill="#0e4c6d"><animate attributeType="XML" attributeName="fill" values="#0e4c6d;#01263d;#0e4c6d;#0e4c6d" dur="2.4s" repeatCount="indefinite"/></circle></g><use href="#l0" x="200" y="120" /><use href="#d0" x="182" y="142" /><use href="#l0" x="200" y="200" /><use href="#l0" x="200" y="240" /><g transform="translate(200,280)"><use href="#b0" /><circle r="18" fill="#0e4c6d"><animate attributeType="XML" attributeName="fill" values="#0e4c6d;#01263d;#0e4c6d;#0e4c6d" dur="2.4s" repeatCount="indefinite"/></circle></g><use href="#l0" x="200" y="320" /><use href="#d0" x="222" y="22" /><use href="#d0" x="222" y="62" /><g transform="translate(222,102)"><use href="#p0" /><polygon points="0,0 0,36 36,36 36,0" fill="#ef4043"><animate attributeType="XML" attributeName="fill" values="#ef4043;#c43240;#ef4043;#ef4043" dur="2.0s" repeatCount="indefinite"/></polygon></g><use href="#d0" x="222" y="142" /><use href="#l0" x="240" y="200" /><use href="#d0" x="222" y="222" /><g transform="translate(222,262)"><use href="#p0" /><polygon points="0,0 0,36 36,36 36,0" fill="#ef4043"><animate attributeType="XML" attributeName="fill" values="#ef4043;#c43240;#ef4043;#ef4043" dur="2.0s" repeatCount="indefinite"/></polygon></g><g transform="translate(240,320)"><use href="#b0" /><circle r="18" fill="#0e4c6d"><animate attributeType="XML" attributeName="fill" values="#0e4c6d;#01263d;#0e4c6d;#0e4c6d" dur="2.5s" repeatCount="indefinite"/></circle></g><use href="#d0" x="262" y="22" /><g transform="translate(262,62)"><use href="#p0" /><polygon points="0,0 0,36 36,36 36,0" fill="#ef4043"><animate attributeType="XML" attributeName="fill" values="#ef4043;#c43240;#ef4043;#ef4043" dur="2.6s" repeatCount="indefinite"/></polygon></g><g transform="translate(262,102)"><use href="#p0" /><polygon points="0,0 0,36 36,36 36,0" fill="#ef4043"><animate attributeType="XML" attributeName="fill" values="#ef4043;#c43240;#ef4043;#ef4043" dur="2.2s" repeatCount="indefinite"/></polygon></g><g transform="translate(280,160)"><use href="#b0" /><circle r="18" fill="#0e4c6d"><animate attributeType="XML" attributeName="fill" values="#0e4c6d;#01263d;#0e4c6d;#0e4c6d" dur="2.8s" repeatCount="indefinite"/></circle></g><g transform="translate(262,182)"><use href="#p0" /><polygon points="0,0 0,36 36,36 36,0" fill="#ef4043"><animate attributeType="XML" attributeName="fill" values="#ef4043;#c43240;#ef4043;#ef4043" dur="2.4s" repeatCount="indefinite"/></polygon></g><use href="#d0" x="262" y="222" /><use href="#d0" x="262" y="262" /><use href="#l0" x="280" y="320" /><g transform="translate(320,40)"><use href="#b0" /><circle r="18" fill="#0e4c6d"><animate attributeType="XML" attributeName="fill" values="#0e4c6d;#01263d;#0e4c6d;#0e4c6d" dur="2.0s" repeatCount="indefinite"/></circle></g><g transform="translate(320,80)"><use href="#b0" /><circle r="18" fill="#0e4c6d"><animate attributeType="XML" attributeName="fill" values="#0e4c6d;#01263d;#0e4c6d;#0e4c6d" dur="2.7s" repeatCount="indefinite"/></circle></g><use href="#d0" x="302" y="102" /><use href="#d0" x="302" y="142" /><use href="#l0" x="320" y="200" /><use href="#l0" x="320" y="240" /><use href="#l0" x="320" y="280" /><use href="#l0" x="320" y="320" /></svg>