<svg width="360" height="360" xmlns="http://www.w3.org/2000/svg"><defs><animate id="aa" begin="0s"/><rect id="l0" width="36" height="36" fill="#ED254E"></rect><rect id="d0" width="36" height="36" fill="#ef4043"></rect></defs><rect width="100%" height="100%" fill="#FF3C38" /><use href="#d0" x="22" y="22" /><use href="#d0" x="22" y="62" /><use href="#d0" x="22" y="102" /><use href="#l0" x="22" y="142" /><use href="#d0" x="22" y="182" /><use href="#l0" x="22" y="222" /><use href="#d0" x="22" y="262" /><use href="#l0" x="22" y="302" /><use href="#l0" x="62" y="22" /><use href="#l0" x="62" y="62" /><use href="#l0" x="62" y="102" /><use href="#l0" x="62" y="142" /><use href="#d0" x="62" y="182" /><use href="#l0" x="62" y="222" /><use href="#d0" x="62" y="262" /><use href="#l0" x="62" y="302" /><use href="#d0" x="102" y="22" /><use href="#d0" x="102" y="62" /><use href="#d0" x="102" y="102" /><use href="#d0" x="102" y="142" /><use href="#d0" x="102" y="182" /><use href="#l0" x="102" y="222" /><use href="#d0" x="102" y="262" /><use href="#d0" x="102" y="302" /><use href="#l0" x="142" y="22" /><use href="#l0" x="142" y="62" /><g transform="translate(142,102)"><use href="#p0" /><polygon points="36,0 36,36 0,0" fill="#C7381D"><animate attributeType="XML" attributeName="fill" values="#C7381D;#ef4043;#C7381D;#C7381D" dur="1.6s" repeatCount="indefinite"/></polygon></g><use href="#l0" x="142" y="142" /><use href="#d0" x="142" y="182" /><use href="#l0" x="142" y="222" /><use href="#d0" x="142" y="262" /><use href="#l0" x="142" y="302" /><use href="#d0" x="182" y="22" /><use href="#d0" x="182" y="62" /><g transform="translate(182,102)"><use href="#p0" /><polygon points="36,0 36,36 0,0" fill="#C7381D"><animate attributeType="XML" attributeName="fill" values="#C7381D;#ef4043;#C7381D;#C7381D" dur="1.8s" repeatCount="indefinite"/></polygon></g><use href="#l0" x="182" y="142" /><use href="#d0" x="182" y="182" /><use href="#l0" x="182" y="222" /><use href="#d0" x="182" y="262" /><use href="#l0" x="182" y="302" /><use href="#l0" x="222" y="22" /><g transform="translate(222,62)"><use href="#b0" /><polygon points="36,0 36,36 0,0" fill="#be1e2d"><animate attributeType="XML" attributeName="fill" values="#be1e2d;#ED254E;#be1e2d;#be1e2d" dur="1.5s" repeatCount="indefinite"/></polygon></g><use href="#d0" x="222" y="102" /><use href="#l0" x="222" y="142" /><use href="#d0" x="222" y="182" /><use href="#l0" x="222" y="222" /><use href="#d0" x="222" y="262" /><g transform="translate(222,302)"><use href="#b0" /><polygon points="36,0 36,36 0,0" fill="#be1e2d"><animate attributeType="XML" attributeName="fill" values="#be1e2d;#ED254E;#be1e2d;#be1e2d" dur="1.5s" repeatCount="indefinite"/></polygon></g><use href="#d0" x="262" y="22" /><g transform="translate(262,62)"><use href="#p0" /><polygon points="36,0 36,36 0,0" fill="#C7381D"><animate attributeType="XML" attributeName="fill" values="#C7381D;#ef4043;#C7381D;#C7381D" dur="1.6s" repeatCount="indefinite"/></polygon></g><g transform="translate(262,102)"><use href="#p0" /><polygon points="36,0 36,36 0,0" fill="#C7381D"><animate attributeType="XML" attributeName="fill" values="#C7381D;#ef4043;#C7381D;#C7381D" dur="1.2s" repeatCount="indefinite"/></polygon></g><use href="#l0" x="262" y="142" /><use href="#d0" x="262" y="182" /><use href="#l0" x="262" y="222" /><use href="#d0" x="262" y="262" /><use href="#l0" x="262" y="302" /><g transform="translate(302,22)"><use href="#b0" /><polygon points="36,0 36,36 0,0" fill="#be1e2d"><animate attributeType="XML" attributeName="fill" values="#be1e2d;#ED254E;#be1e2d;#be1e2d" dur="1.0s" repeatCount="indefinite"/></polygon></g><g transform="translate(302,62)"><use href="#p0" /><polygon points="36,0 36,36 0,0" fill="#C7381D"><animate attributeType="XML" attributeName="fill" values="#C7381D;#ef4043;#C7381D;#C7381D" dur="1.7s" repeatCount="indefinite"/></polygon></g><g transform="translate(302,102)"><use href="#b0" /><polygon points="36,0 36,36 0,0" fill="#be1e2d"><animate attributeType="XML" attributeName="fill" values="#be1e2d;#ED254E;#be1e2d;#be1e2d" dur="1.4s" repeatCount="indefinite"/></polygon></g><use href="#l0" x="302" y="142" /><use href="#d0" x="302" y="182" /><use href="#l0" x="302" y="222" /><use href="#d0" x="302" y="262" /><g transform="translate(302,302)"><use href="#b0" /><polygon points="36,0 36,36 0,0" fill="#be1e2d"><animate attributeType="XML" attributeName="fill" values="#be1e2d;#ED254E;#be1e2d;#be1e2d" dur="1.9s" repeatCount="indefinite"/></polygon></g></svg>