<svg width="360" height="360" xmlns="http://www.w3.org/2000/svg"><defs><animate id="aa" begin="0s"/><rect id="d0" width="36" height="36" fill="#cce4fd"></rect><circle id="l0" r="18" fill="#0f3375"></circle></defs><rect width="100%" height="100%" fill="#e8f3fe" /><use href="#l0" x="40" y="40" /><g transform="translate(40,80)"><use href="#b0" /><circle r="18" fill="#196bde"><animate attributeType="XML" attributeName="fill" values="#196bde;#0f3375;#196bde;#196bde" dur="2.0s" repeatCount="indefinite"/></circle></g><use href="#d0" x="22" y="102" /><use href="#d0" x="22" y="142" /><use href="#l0" x="40" y="200" /><use href="#d0" x="22" y="222" /><use href="#d0" x="22" y="262" /><use href="#l0" x="40" y="320" /><use href="#d0" x="62" y="22" /><g transform="translate(62,62)"><use href="#p0" /><polygon points="0,0 0,36 36,36 36,0" fill="#a4cefc"><animate attributeType="XML" attributeName="fill" values="#a4cefc;#cce4fd;#a4cefc;#a4cefc" dur="2.1s" repeatCount="indefinite"/></polygon></g><use href="#l0" x="80" y="120" /><use href="#d0" x="62" y="142" /><use href="#l0" x="80" y="200" /><use href="#d0" x="62" y="222" /><g transform="translate(62,262)"><use href="#p0" /><polygon points="0,0 0,36 36,36 36,0" fill="#a4cefc"><animate attributeType="XML" attributeName="fill" values="#a4cefc;#cce4fd;#a4cefc;#a4cefc" dur="2.6s" repeatCount="indefinite"/></polygon></g><g transform="translate(80,320)"><use href="#b0" /><circle r="18" fill="#196bde"><animate attributeType="XML" attributeName="fill" values="#196bde;#0f3375;#196bde;#196bde" dur="2.7s" repeatCount="indefinite"/></circle></g><use href="#l0" x="120" y="40" /><use href="#d0" x="102" y="62" /><g transform="translate(102,102)"><use href="#p0" /><polygon points="0,0 0,36 36,36 36,0" fill="#a4cefc"><animate attributeType="XML" attributeName="fill" values="#a4cefc;#cce4fd;#a4cefc;#a4cefc" dur="2.4s" repeatCount="indefinite"/></polygon></g><use href="#d0" x="102" y="142" /><use href="#l0" x="120" y="200" /><use href="#d0" x="102" y="222" /><g transform="translate(120,280)"><use href="#b0" /><circle r="18" fill="#196bde"><animate attributeType="XML" attributeName="fill" values="#196bde;#0f3375;#196bde;#196bde" dur="2.2s" repeatCount="indefinite"/></circle></g><use href="#d0" x="102" y="302" /><use href="#l0" x="160" y="40" /><g transform="translate(160,80)"><use href="#b0" /><circle r="18" fill="#196bde"><animate attributeType="XML" attributeName="fill" values="#196bde;#0f3375;#196bde;#196bde" dur="2.3s" repeatCount="indefinite"/></circle></g><use href="#d0" x="142" y="102" /><g transform="translate(160,160)"><use href="#b0" /><circle r="18" fill="#196bde"><animate attributeType="XML" attributeName="fill" values="#196bde;#0f3375;#196bde;#196bde" dur="2.9s" repeatCount="indefinite"/></circle></g><g transform="translate(142,182)"><use href="#p0" /><polygon points="0,0 0,36 36,36 36,0" fill="#a4cefc"><animate attributeType="XML" attributeName="fill" values="#a4cefc;#cce4fd;#a4cefc;#a4cefc" dur="2.2s" repeatCount="indefinite"/></polygon></g><use href="#l0" x="160" y="240" /><use href="#l0" x="160" y="280" /><use href="#d0" x="142" y="302" /><use href="#l0" x="200" y="40" /><g transform="translate(200,80)"><use href="#b0" /><circle r="18" fill="#196bde"><animate attributeType="XML" attributeName="fill" values="#196bde;#0f3375;#196bde;#196bde" dur="2.4s" repeatCount="indefinite"/></circle></g><use href="#d0" x="182" y="102" /><use href="#l0" x="200" y="160" /><use href="#d0" x="182" y="182" /><g transform="translate(200,240)"><use href="#b0" /><circle r="18" fill="#196bde"><animate attributeType="XML" attributeName="fill" values="#196bde;#0f3375;#196bde;#196bde" dur="2.0s" repeatCount="indefinite"/></circle></g><use href="#d0" x="182" y="262" /><g transform="translate(200,320)"><use href="#b0" /><circle r="18" fill="#196bde"><animate attributeType="XML" attributeName="fill" values="#196bde;#0f3375;#196bde;#196bde" dur="2.8s" repeatCount="indefinite"/></circle></g><g transform="translate(240,40)"><use href="#b0" /><circle r="18" fill="#196bde"><animate attributeType="XML" attributeName="fill" values="#196bde;#0f3375;#196bde;#196bde" dur="2.0s" repeatCount="indefinite"/></circle></g><g transform="translate(240,80)"><use href="#b0" /><circle r="18" fill="#196bde"><animate attributeType="XML" attributeName="fill" values="#196bde;#0f3375;#196bde;#196bde" dur="2.5s" repeatCount="indefinite"/></circle></g><use href="#d0" x="222" y="102" /><g transform="translate(222,142)"><use href="#p0" /><polygon points="0,0 0,36 36,36 36,0" fill="#a4cefc"><animate attributeType="XML" attributeName="fill" values="#a4cefc;#cce4fd;#a4cefc;#a4cefc" dur="2.5s" repeatCount="indefinite"/></polygon></g><g transform="translate(240,200)"><use href="#b0" /><circle r="18" fill="#196bde"><animate attributeType="XML" attributeName="fill" values="#196bde;#0f3375;#196bde;#196bde" dur="2.0s" repeatCount="indefinite"/></circle></g><use href="#l0" x="240" y="240" /><g transform="translate(240,280)"><use href="#b0" /><circle r="18" fill="#196bde"><animate attributeType="XML" attributeName="fill" values="#196bde;#0f3375;#196bde;#196bde" dur="2.0s" repeatCount="indefinite"/></circle></g><use href="#d0" x="222" y="302" /><use href="#d0" x="262" y="22" /><use href="#d0" x="262" y="62" /><use href="#d0" x="262" y="102" /><g transform="translate(280,160)"><use href="#b0" /><circle r="18" fill="#196bde"><animate attributeType="XML" attributeName="fill" values="#196bde;#0f3375;#196bde;#196bde" dur="2.8s" repeatCount="indefinite"/></circle></g><use href="#d0" x="262" y="182" /><use href="#d0" x="262" y="222" /><use href="#d0" x="262" y="262" /><use href="#d0" x="262" y="302" /><g transform="translate(320,40)"><use href="#b0" /><circle r="18" fill="#196bde"><animate attributeType="XML" attributeName="fill" values="#196bde;#0f3375;#196bde;#196bde" dur="2.0s" repeatCount="indefinite"/></circle></g><g transform="translate(320,80)"><use href="#b0" /><circle r="18" fill="#196bde"><animate attributeType="XML" attributeName="fill" values="#196bde;#0f3375;#196bde;#196bde" dur="2.7s" repeatCount="indefinite"/></circle></g><use href="#d0" x="302" y="102" /><use href="#l0" x="320" y="160" /><use href="#l0" x="320" y="200" /><use href="#d0" x="302" y="222" /><use href="#d0" x="302" y="262" /><g transform="translate(320,320)"><use href="#b0" /><circle r="18" fill="#196bde"><animate attributeType="XML" attributeName="fill" values="#196bde;#0f3375;#196bde;#196bde" dur="2.9s" repeatCount="indefinite"/></circle></g></svg>