<svg width="360" height="360" xmlns="http://www.w3.org/2000/svg"><defs><animate id="aa" begin="0s"/><rect id="l0" width="36" height="36" fill="#01263d"></rect><circle id="d0" r="18" fill="#c43240"></circle></defs><rect width="100%" height="100%" fill="#ef4043" /><use href="#d0" x="40" y="40" /><use href="#l0" x="22" y="62" /><use href="#d0" x="40" y="120" /><use href="#d0" x="40" y="160" /><use href="#d0" x="40" y="200" /><use href="#d0" x="40" y="240" /><use href="#d0" x="40" y="280" /><use href="#d0" x="40" y="320" /><use href="#l0" x="62" y="22" /><use href="#d0" x="80" y="80" /><use href="#l0" x="62" y="102" /><use href="#l0" x="62" y="142" /><use href="#d0" x="80" y="200" /><use href="#d0" x="80" y="240" /><use href="#d0" x="80" y="280" /><use href="#d0" x="80" y="320" /><use href="#d0" x="120" y="40" /><use href="#l0" x="102" y="62" /><use href="#d0" x="120" y="120" /><use href="#l0" x="102" y="142" /><use href="#l0" x="102" y="182" /><use href="#d0" x="120" y="240" /><use href="#d0" x="120" y="280" /><use href="#d0" x="120" y="320" /><use href="#d0" x="160" y="40" /><use href="#l0" x="142" y="62" /><use href="#d0" x="160" y="120" /><use href="#d0" x="160" y="160" /><use href="#d0" x="160" y="200" /><use href="#d0" x="160" y="240" /><use href="#d0" x="160" y="280" /><use href="#d0" x="160" y="320" /><use href="#d0" x="200" y="40" /><use href="#d0" x="200" y="80" /><use href="#l0" x="182" y="102" /><use href="#l0" x="182" y="142" /><use href="#d0" x="200" y="200" /><use href="#d0" x="200" y="240" /><use href="#l0" x="182" y="262" /><use href="#l0" x="182" y="302" /><use href="#d0" x="240" y="40" /><use href="#l0" x="222" y="62" /><use href="#d0" x="240" y="120" /><use href="#l0" x="222" y="142" /><use href="#d0" x="240" y="200" /><use href="#l0" x="222" y="222" /><use href="#d0" x="240" y="280" /><use href="#l0" x="222" y="302" /><use href="#d0" x="280" y="40" /><use href="#d0" x="280" y="80" /><use href="#d0" x="280" y="120" /><use href="#l0" x="262" y="142" /><use href="#d0" x="280" y="200" /><use href="#l0" x="262" y="222" /><use href="#d0" x="280" y="280" /><use href="#l0" x="262" y="302" /><use href="#l0" x="302" y="22" /><use href="#d0" x="320" y="80" /><use href="#l0" x="302" y="102" /><use href="#l0" x="302" y="142" /><use href="#d0" x="320" y="200" /><use href="#l0" x="302" y="222" /><use href="#d0" x="320" y="280" /><use href="#l0" x="302" y="302" /></svg>