<svg width="360" height="360" xmlns="http://www.w3.org/2000/svg"><defs><animate id="aa" begin="0s"/><circle id="l0" r="18" fill="#FFFF3F"></circle><circle id="d0" r="18" fill="#2B9348"></circle></defs><rect width="100%" height="100%" fill="#80B918" /><use href="#d0" x="40" y="40" /><use href="#l0" x="40" y="80" /><use href="#l0" x="40" y="120" /><use href="#d0" x="40" y="160" /><use href="#d0" x="40" y="200" /><use href="#d0" x="40" y="240" /><g transform="translate(40,280)"><use href="#p0" /><circle r="18" fill="#007F5F"><animate attributeType="XML" attributeName="fill" values="#007F5F;#2B9348;#007F5F;#007F5F" dur="0.0s" repeatCount="indefinite"/></circle></g><use href="#d0" x="40" y="320" /><use href="#d0" x="80" y="40" /><use href="#d0" x="80" y="80" /><use href="#d0" x="80" y="120" /><use href="#d0" x="80" y="160" /><use href="#d0" x="80" y="200" /><use href="#d0" x="80" y="240" /><use href="#d0" x="80" y="280" /><use href="#d0" x="80" y="320" /><use href="#d0" x="120" y="40" /><use href="#d0" x="120" y="80" /><use href="#d0" x="120" y="120" /><use href="#d0" x="120" y="160" /><use href="#d0" x="120" y="200" /><use href="#d0" x="120" y="240" /><use href="#d0" x="120" y="280" /><use href="#d0" x="120" y="320" /><use href="#d0" x="160" y="40" /><use href="#d0" x="160" y="80" /><use href="#d0" x="160" y="120" /><use href="#d0" x="160" y="160" /><use href="#d0" x="160" y="200" /><use href="#d0" x="160" y="240" /><use href="#d0" x="160" y="280" /><use href="#d0" x="160" y="320" /><use href="#d0" x="200" y="40" /><use href="#d0" x="200" y="80" /><use href="#d0" x="200" y="120" /><use href="#d0" x="200" y="160" /><use href="#d0" x="200" y="200" /><use href="#d0" x="200" y="240" /><use href="#d0" x="200" y="280" /><use href="#d0" x="200" y="320" /><g transform="translate(240,40)"><use href="#b0" /><circle r="18" fill="#DDDF00"><animate attributeType="XML" attributeName="fill" values="#DDDF00;#FFFF3F;#DDDF00;#DDDF00" dur="0.0s" repeatCount="indefinite"/></circle></g><g transform="translate(240,80)"><use href="#b0" /><circle r="18" fill="#DDDF00"><animate attributeType="XML" attributeName="fill" values="#DDDF00;#FFFF3F;#DDDF00;#DDDF00" dur="0.5s" repeatCount="indefinite"/></circle></g><use href="#d0" x="240" y="120" /><use href="#d0" x="240" y="160" /><use href="#d0" x="240" y="200" /><use href="#d0" x="240" y="240" /><use href="#d0" x="240" y="280" /><g transform="translate(240,320)"><use href="#b0" /><circle r="18" fill="#DDDF00"><animate attributeType="XML" attributeName="fill" values="#DDDF00;#FFFF3F;#DDDF00;#DDDF00" dur="0.5s" repeatCount="indefinite"/></circle></g><g transform="translate(280,40)"><use href="#p0" /><circle r="18" fill="#007F5F"><animate attributeType="XML" attributeName="fill" values="#007F5F;#2B9348;#007F5F;#007F5F" dur="0.0s" repeatCount="indefinite"/></circle></g><use href="#l0" x="280" y="80" /><g transform="translate(280,120)"><use href="#b0" /><circle r="18" fill="#DDDF00"><animate attributeType="XML" attributeName="fill" values="#DDDF00;#FFFF3F;#DDDF00;#DDDF00" dur="0.2s" repeatCount="indefinite"/></circle></g><use href="#d0" x="280" y="160" /><use href="#d0" x="280" y="200" /><use href="#d0" x="280" y="240" /><g transform="translate(280,280)"><use href="#b0" /><circle r="18" fill="#DDDF00"><animate attributeType="XML" attributeName="fill" values="#DDDF00;#FFFF3F;#DDDF00;#DDDF00" dur="0.6s" repeatCount="indefinite"/></circle></g><g transform="translate(280,320)"><use href="#p0" /><circle r="18" fill="#007F5F"><animate attributeType="XML" attributeName="fill" values="#007F5F;#2B9348;#007F5F;#007F5F" dur="0.2s" repeatCount="indefinite"/></circle></g><use href="#d0" x="320" y="40" /><use href="#d0" x="320" y="80" /><g transform="translate(320,120)"><use href="#p0" /><circle r="18" fill="#007F5F"><animate attributeType="XML" attributeName="fill" values="#007F5F;#2B9348;#007F5F;#007F5F" dur="0.4s" repeatCount="indefinite"/></circle></g><use href="#d0" x="320" y="160" /><use href="#d0" x="320" y="200" /><use href="#d0" x="320" y="240" /><g transform="translate(320,280)"><use href="#p0" /><circle r="18" fill="#007F5F"><animate attributeType="XML" attributeName="fill" values="#007F5F;#2B9348;#007F5F;#007F5F" dur="0.2s" repeatCount="indefinite"/></circle></g><use href="#d0" x="320" y="320" /></svg>