<svg width="360" height="360" xmlns="http://www.w3.org/2000/svg"><defs><animate id="aa" begin="0s"/><rect id="d0" width="36" height="36" fill="#C04CFD"></rect><circle id="l0" r="18" fill="#87FF65"></circle></defs><rect width="100%" height="100%" fill="#E6FDFF" /><use href="#d0" x="22" y="22" /><g transform="translate(40,80)"><use href="#b0" /><circle r="18" fill="#D2F898"><animate attributeType="XML" attributeName="fill" values="#D2F898;#87FF65;#D2F898;#D2F898" dur="1.0s" repeatCount="indefinite"/></circle></g><g transform="translate(22,102)"><use href="#p0" /><polygon points="0,0 0,36 36,36 36,0" fill="#EADEDA"><animate attributeType="XML" attributeName="fill" values="#EADEDA;#C04CFD;#EADEDA;#EADEDA" dur="1.0s" repeatCount="indefinite"/></polygon></g><g transform="translate(22,142)"><use href="#p0" /><polygon points="0,0 0,36 36,36 36,0" fill="#EADEDA"><animate attributeType="XML" attributeName="fill" values="#EADEDA;#C04CFD;#EADEDA;#EADEDA" dur="1.0s" repeatCount="indefinite"/></polygon></g><g transform="translate(40,200)"><use href="#b0" /><circle r="18" fill="#D2F898"><animate attributeType="XML" attributeName="fill" values="#D2F898;#87FF65;#D2F898;#D2F898" dur="1.0s" repeatCount="indefinite"/></circle></g><use href="#l0" x="40" y="240" /><use href="#d0" x="22" y="262" /><use href="#l0" x="40" y="320" /><use href="#d0" x="62" y="22" /><use href="#d0" x="62" y="62" /><g transform="translate(80,120)"><use href="#b0" /><circle r="18" fill="#D2F898"><animate attributeType="XML" attributeName="fill" values="#D2F898;#87FF65;#D2F898;#D2F898" dur="1.2s" repeatCount="indefinite"/></circle></g><use href="#d0" x="62" y="142" /><use href="#d0" x="62" y="182" /><g transform="translate(80,240)"><use href="#b0" /><circle r="18" fill="#D2F898"><animate attributeType="XML" attributeName="fill" values="#D2F898;#87FF65;#D2F898;#D2F898" dur="1.5s" repeatCount="indefinite"/></circle></g><use href="#d0" x="62" y="262" /><use href="#d0" x="62" y="302" /><use href="#d0" x="102" y="22" /><g transform="translate(120,80)"><use href="#b0" /><circle r="18" fill="#D2F898"><animate attributeType="XML" attributeName="fill" values="#D2F898;#87FF65;#D2F898;#D2F898" dur="1.2s" repeatCount="indefinite"/></circle></g><g transform="translate(102,102)"><use href="#p0" /><polygon points="0,0 0,36 36,36 36,0" fill="#EADEDA"><animate attributeType="XML" attributeName="fill" values="#EADEDA;#C04CFD;#EADEDA;#EADEDA" dur="1.4s" repeatCount="indefinite"/></polygon></g><use href="#l0" x="120" y="160" /><use href="#d0" x="102" y="182" /><use href="#l0" x="120" y="240" /><use href="#d0" x="102" y="262" /><use href="#d0" x="102" y="302" /><use href="#d0" x="142" y="22" /><use href="#l0" x="160" y="80" /><use href="#d0" x="142" y="102" /><use href="#l0" x="160" y="160" /><use href="#d0" x="142" y="182" /><use href="#l0" x="160" y="240" /><use href="#d0" x="142" y="262" /><g transform="translate(142,302)"><use href="#p0" /><polygon points="0,0 0,36 36,36 36,0" fill="#EADEDA"><animate attributeType="XML" attributeName="fill" values="#EADEDA;#C04CFD;#EADEDA;#EADEDA" dur="1.1s" repeatCount="indefinite"/></polygon></g><use href="#d0" x="182" y="22" /><g transform="translate(200,80)"><use href="#b0" /><circle r="18" fill="#D2F898"><animate attributeType="XML" attributeName="fill" values="#D2F898;#87FF65;#D2F898;#D2F898" dur="1.4s" repeatCount="indefinite"/></circle></g><g transform="translate(182,102)"><use href="#p0" /><polygon points="0,0 0,36 36,36 36,0" fill="#EADEDA"><animate attributeType="XML" attributeName="fill" values="#EADEDA;#C04CFD;#EADEDA;#EADEDA" dur="1.8s" repeatCount="indefinite"/></polygon></g><use href="#l0" x="200" y="160" /><use href="#d0" x="182" y="182" /><use href="#l0" x="200" y="240" /><use href="#d0" x="182" y="262" /><g transform="translate(182,302)"><use href="#p0" /><polygon points="0,0 0,36 36,36 36,0" fill="#EADEDA"><animate attributeType="XML" attributeName="fill" values="#EADEDA;#C04CFD;#EADEDA;#EADEDA" dur="1.8s" repeatCount="indefinite"/></polygon></g><use href="#d0" x="222" y="22" /><use href="#l0" x="240" y="80" /><use href="#d0" x="222" y="102" /><use href="#l0" x="240" y="160" /><use href="#d0" x="222" y="182" /><use href="#l0" x="240" y="240" /><use href="#d0" x="222" y="262" /><g transform="translate(222,302)"><use href="#p0" /><polygon points="0,0 0,36 36,36 36,0" fill="#EADEDA"><animate attributeType="XML" attributeName="fill" values="#EADEDA;#C04CFD;#EADEDA;#EADEDA" dur="1.5s" repeatCount="indefinite"/></polygon></g><use href="#d0" x="262" y="22" /><use href="#l0" x="280" y="80" /><use href="#d0" x="262" y="102" /><use href="#l0" x="280" y="160" /><use href="#d0" x="262" y="182" /><use href="#l0" x="280" y="240" /><use href="#d0" x="262" y="262" /><use href="#d0" x="262" y="302" /><g transform="translate(302,22)"><use href="#p0" /><polygon points="0,0 0,36 36,36 36,0" fill="#EADEDA"><animate attributeType="XML" attributeName="fill" values="#EADEDA;#C04CFD;#EADEDA;#EADEDA" dur="1.0s" repeatCount="indefinite"/></polygon></g><use href="#l0" x="320" y="80" /><use href="#d0" x="302" y="102" /><use href="#l0" x="320" y="160" /><use href="#d0" x="302" y="182" /><use href="#l0" x="320" y="240" /><use href="#d0" x="302" y="262" /><g transform="translate(302,302)"><use href="#p0" /><polygon points="0,0 0,36 36,36 36,0" fill="#EADEDA"><animate attributeType="XML" attributeName="fill" values="#EADEDA;#C04CFD;#EADEDA;#EADEDA" dur="1.9s" repeatCount="indefinite"/></polygon></g></svg>