<svg width="360" height="360" xmlns="http://www.w3.org/2000/svg"><defs><animate id="aa" begin="0s"/><circle id="l0" r="18" fill="#EE9B00"></circle><circle id="d0" r="18" fill="#001219"></circle></defs><rect width="100%" height="100%" fill="#005F73" /><use href="#l0" x="40" y="40" /><use href="#l0" x="40" y="80" /><use href="#l0" x="40" y="120" /><use href="#l0" x="40" y="160" /><use href="#d0" x="40" y="200" /><use href="#d0" x="40" y="240" /><use href="#d0" x="40" y="280" /><use href="#d0" x="40" y="320" /><use href="#d0" x="80" y="40" /><use href="#d0" x="80" y="80" /><use href="#d0" x="80" y="120" /><use href="#d0" x="80" y="160" /><use href="#l0" x="80" y="200" /><use href="#l0" x="80" y="240" /><use href="#l0" x="80" y="280" /><use href="#l0" x="80" y="320" /><use href="#l0" x="120" y="40" /><use href="#l0" x="120" y="80" /><use href="#l0" x="120" y="120" /><use href="#l0" x="120" y="160" /><use href="#d0" x="120" y="200" /><use href="#d0" x="120" y="240" /><use href="#d0" x="120" y="280" /><use href="#d0" x="120" y="320" /><use href="#d0" x="160" y="40" /><use href="#d0" x="160" y="80" /><use href="#d0" x="160" y="120" /><use href="#d0" x="160" y="160" /><use href="#l0" x="160" y="200" /><use href="#l0" x="160" y="240" /><use href="#l0" x="160" y="280" /><use href="#d0" x="160" y="320" /><use href="#l0" x="200" y="40" /><use href="#l0" x="200" y="80" /><use href="#l0" x="200" y="120" /><use href="#d0" x="200" y="160" /><use href="#d0" x="200" y="200" /><use href="#d0" x="200" y="240" /><g transform="translate(200,280)"><use href="#p0" /><circle r="18" fill="#AE2012"><animate attributeType="XML" attributeName="fill" values="#AE2012;#001219;#AE2012;#AE2012" dur="3s" begin="aa.begin +1s" repeatCount="indefinite"/></circle></g><use href="#l0" x="200" y="320" /><use href="#d0" x="240" y="40" /><use href="#d0" x="240" y="80" /><use href="#d0" x="240" y="120" /><use href="#l0" x="240" y="160" /><use href="#l0" x="240" y="200" /><g transform="translate(240,240)"><use href="#b0" /><circle r="18" fill="#0A9396"><animate attributeType="XML" attributeName="fill" values="#0A9396;#EE9B00;#0A9396;#0A9396" dur="3s" begin="aa.begin +1.5s" repeatCount="indefinite"/></circle></g><g transform="translate(240,280)"><use href="#p0" /><circle r="18" fill="#AE2012"><animate attributeType="XML" attributeName="fill" values="#AE2012;#001219;#AE2012;#AE2012" dur="3s" begin="aa.begin +2s" repeatCount="indefinite"/></circle></g><use href="#d0" x="240" y="320" /><g transform="translate(280,40)"><use href="#p0" /><circle r="18" fill="#AE2012"><animate attributeType="XML" attributeName="fill" values="#AE2012;#001219;#AE2012;#AE2012" dur="3s" begin="aa.begin +s" repeatCount="indefinite"/></circle></g><use href="#d0" x="280" y="80" /><use href="#d0" x="280" y="120" /><use href="#l0" x="280" y="160" /><use href="#d0" x="280" y="200" /><g transform="translate(280,240)"><use href="#p0" /><circle r="18" fill="#AE2012"><animate attributeType="XML" attributeName="fill" values="#AE2012;#001219;#AE2012;#AE2012" dur="3s" begin="aa.begin +2.5s" repeatCount="indefinite"/></circle></g><g transform="translate(280,280)"><use href="#b0" /><circle r="18" fill="#0A9396"><animate attributeType="XML" attributeName="fill" values="#0A9396;#EE9B00;#0A9396;#0A9396" dur="3s" begin="aa.begin +3s" repeatCount="indefinite"/></circle></g><use href="#l0" x="280" y="320" /><g transform="translate(320,40)"><use href="#b0" /><circle r="18" fill="#0A9396"><animate attributeType="XML" attributeName="fill" values="#0A9396;#EE9B00;#0A9396;#0A9396" dur="3s" begin="aa.begin +3.5s" repeatCount="indefinite"/></circle></g><use href="#d0" x="320" y="80" /><use href="#d0" x="320" y="120" /><use href="#d0" x="320" y="160" /><use href="#l0" x="320" y="200" /><g transform="translate(320,240)"><use href="#b0" /><circle r="18" fill="#0A9396"><animate attributeType="XML" attributeName="fill" values="#0A9396;#EE9B00;#0A9396;#0A9396" dur="3s" begin="aa.begin +4s" repeatCount="indefinite"/></circle></g><use href="#l0" x="320" y="280" /><use href="#d0" x="320" y="320" /></svg>