<svg width="360" height="360" xmlns="http://www.w3.org/2000/svg"><defs><animate id="aa" begin="0s"/><rect id="d0" width="36" height="36" fill="#d283ff"></rect><circle id="l0" r="18" fill="#310055"></circle></defs><rect width="100%" height="100%" fill="#dc97ff" /><g transform="translate(40,40)"><use href="#b0" /><circle r="18" fill="#8b2fc9"><animate attributeType="XML" attributeName="fill" values="#8b2fc9;#310055;#8b2fc9;#8b2fc9" dur="0.0s" repeatCount="indefinite"/></circle></g><g transform="translate(22,62)"><use href="#p0" /><polygon points="0,0 0,36 36,36 36,0" fill="#bd68ee"><animate attributeType="XML" attributeName="fill" values="#bd68ee;#d283ff;#bd68ee;#bd68ee" dur="0.0s" repeatCount="indefinite"/></polygon></g><g transform="translate(40,120)"><use href="#b0" /><circle r="18" fill="#8b2fc9"><animate attributeType="XML" attributeName="fill" values="#8b2fc9;#310055;#8b2fc9;#8b2fc9" dur="0.0s" repeatCount="indefinite"/></circle></g><g transform="translate(22,142)"><use href="#p0" /><polygon points="0,0 0,36 36,36 36,0" fill="#bd68ee"><animate attributeType="XML" attributeName="fill" values="#bd68ee;#d283ff;#bd68ee;#bd68ee" dur="0.0s" repeatCount="indefinite"/></polygon></g><use href="#l0" x="40" y="200" /><g transform="translate(40,240)"><use href="#b0" /><circle r="18" fill="#8b2fc9"><animate attributeType="XML" attributeName="fill" values="#8b2fc9;#310055;#8b2fc9;#8b2fc9" dur="0.0s" repeatCount="indefinite"/></circle></g><use href="#d0" x="22" y="262" /><g transform="translate(40,320)"><use href="#b0" /><circle r="18" fill="#8b2fc9"><animate attributeType="XML" attributeName="fill" values="#8b2fc9;#310055;#8b2fc9;#8b2fc9" dur="0.0s" repeatCount="indefinite"/></circle></g><use href="#l0" x="80" y="40" /><use href="#d0" x="62" y="62" /><use href="#d0" x="62" y="102" /><use href="#l0" x="80" y="160" /><use href="#d0" x="62" y="182" /><use href="#d0" x="62" y="222" /><use href="#d0" x="62" y="262" /><g transform="translate(80,320)"><use href="#b0" /><circle r="18" fill="#8b2fc9"><animate attributeType="XML" attributeName="fill" values="#8b2fc9;#310055;#8b2fc9;#8b2fc9" dur="0.7s" repeatCount="indefinite"/></circle></g><use href="#d0" x="102" y="22" /><use href="#l0" x="120" y="80" /><use href="#d0" x="102" y="102" /><use href="#l0" x="120" y="160" /><use href="#d0" x="102" y="182" /><use href="#d0" x="102" y="222" /><use href="#d0" x="102" y="262" /><use href="#d0" x="102" y="302" /><use href="#d0" x="142" y="22" /><use href="#l0" x="160" y="80" /><use href="#d0" x="142" y="102" /><use href="#l0" x="160" y="160" /><use href="#l0" x="160" y="200" /><use href="#d0" x="142" y="222" /><use href="#d0" x="142" y="262" /><use href="#d0" x="142" y="302" /><use href="#l0" x="200" y="40" /><use href="#l0" x="200" y="80" /><use href="#d0" x="182" y="102" /><use href="#d0" x="182" y="142" /><use href="#l0" x="200" y="200" /><use href="#d0" x="182" y="222" /><use href="#d0" x="182" y="262" /><use href="#d0" x="182" y="302" /><g transform="translate(240,40)"><use href="#b0" /><circle r="18" fill="#8b2fc9"><animate attributeType="XML" attributeName="fill" values="#8b2fc9;#310055;#8b2fc9;#8b2fc9" dur="0.0s" repeatCount="indefinite"/></circle></g><use href="#d0" x="222" y="62" /><use href="#d0" x="222" y="102" /><use href="#l0" x="240" y="160" /><g transform="translate(240,200)"><use href="#b0" /><circle r="18" fill="#8b2fc9"><animate attributeType="XML" attributeName="fill" values="#8b2fc9;#310055;#8b2fc9;#8b2fc9" dur="0.0s" repeatCount="indefinite"/></circle></g><g transform="translate(240,240)"><use href="#b0" /><circle r="18" fill="#8b2fc9"><animate attributeType="XML" attributeName="fill" values="#8b2fc9;#310055;#8b2fc9;#8b2fc9" dur="0.5s" repeatCount="indefinite"/></circle></g><use href="#d0" x="222" y="262" /><g transform="translate(240,320)"><use href="#b0" /><circle r="18" fill="#8b2fc9"><animate attributeType="XML" attributeName="fill" values="#8b2fc9;#310055;#8b2fc9;#8b2fc9" dur="0.5s" repeatCount="indefinite"/></circle></g><use href="#l0" x="280" y="40" /><use href="#d0" x="262" y="62" /><use href="#d0" x="262" y="102" /><use href="#d0" x="262" y="142" /><g transform="translate(262,182)"><use href="#p0" /><polygon points="0,0 0,36 36,36 36,0" fill="#bd68ee"><animate attributeType="XML" attributeName="fill" values="#bd68ee;#d283ff;#bd68ee;#bd68ee" dur="0.4s" repeatCount="indefinite"/></polygon></g><use href="#d0" x="262" y="222" /><g transform="translate(280,280)"><use href="#b0" /><circle r="18" fill="#8b2fc9"><animate attributeType="XML" attributeName="fill" values="#8b2fc9;#310055;#8b2fc9;#8b2fc9" dur="0.6s" repeatCount="indefinite"/></circle></g><use href="#d0" x="262" y="302" /><use href="#l0" x="320" y="40" /><use href="#d0" x="302" y="62" /><g transform="translate(302,102)"><use href="#p0" /><polygon points="0,0 0,36 36,36 36,0" fill="#bd68ee"><animate attributeType="XML" attributeName="fill" values="#bd68ee;#d283ff;#bd68ee;#bd68ee" dur="0.4s" repeatCount="indefinite"/></polygon></g><g transform="translate(320,160)"><use href="#b0" /><circle r="18" fill="#8b2fc9"><animate attributeType="XML" attributeName="fill" values="#8b2fc9;#310055;#8b2fc9;#8b2fc9" dur="0.1s" repeatCount="indefinite"/></circle></g><g transform="translate(302,182)"><use href="#p0" /><polygon points="0,0 0,36 36,36 36,0" fill="#bd68ee"><animate attributeType="XML" attributeName="fill" values="#bd68ee;#d283ff;#bd68ee;#bd68ee" dur="0.8s" repeatCount="indefinite"/></polygon></g><use href="#l0" x="320" y="240" /><use href="#d0" x="302" y="262" /><use href="#d0" x="302" y="302" /></svg>