<svg width="360" height="360" xmlns="http://www.w3.org/2000/svg"><defs><animate id="aa" begin="0s"/><rect id="l0" width="36" height="36" fill="#FF1053"></rect><rect id="d0" width="36" height="36" fill="#251101"></rect></defs><rect width="100%" height="100%" fill="#071E22" /><g transform="translate(22,22)"><use href="#b0" /><polygon points="0,0 0,36 36,36 36,0" fill="#D2F898"><animate attributeType="XML" attributeName="fill" values="#D2F898;#FF1053;#D2F898;#D2F898" dur="0.0s" repeatCount="indefinite"/></polygon></g><use href="#d0" x="22" y="62" /><use href="#l0" x="22" y="102" /><g transform="translate(22,142)"><use href="#b0" /><polygon points="0,0 0,36 36,36 36,0" fill="#D2F898"><animate attributeType="XML" attributeName="fill" values="#D2F898;#FF1053;#D2F898;#D2F898" dur="0.0s" repeatCount="indefinite"/></polygon></g><g transform="translate(22,182)"><use href="#b0" /><polygon points="0,0 0,36 36,36 36,0" fill="#D2F898"><animate attributeType="XML" attributeName="fill" values="#D2F898;#FF1053;#D2F898;#D2F898" dur="0.0s" repeatCount="indefinite"/></polygon></g><use href="#d0" x="22" y="222" /><use href="#d0" x="22" y="262" /><g transform="translate(22,302)"><use href="#p0" /><polygon points="0,0 0,36 36,36 36,0" fill="#3D3522"><animate attributeType="XML" attributeName="fill" values="#3D3522;#251101;#3D3522;#3D3522" dur="0.0s" repeatCount="indefinite"/></polygon></g><g transform="translate(62,22)"><use href="#b0" /><polygon points="0,0 0,36 36,36 36,0" fill="#D2F898"><animate attributeType="XML" attributeName="fill" values="#D2F898;#FF1053;#D2F898;#D2F898" dur="0.0s" repeatCount="indefinite"/></polygon></g><g transform="translate(62,62)"><use href="#p0" /><polygon points="0,0 0,36 36,36 36,0" fill="#3D3522"><animate attributeType="XML" attributeName="fill" values="#3D3522;#251101;#3D3522;#3D3522" dur="0.1s" repeatCount="indefinite"/></polygon></g><use href="#d0" x="62" y="102" /><g transform="translate(62,142)"><use href="#p0" /><polygon points="0,0 0,36 36,36 36,0" fill="#3D3522"><animate attributeType="XML" attributeName="fill" values="#3D3522;#251101;#3D3522;#3D3522" dur="0.3s" repeatCount="indefinite"/></polygon></g><use href="#d0" x="62" y="182" /><g transform="translate(62,222)"><use href="#p0" /><polygon points="0,0 0,36 36,36 36,0" fill="#3D3522"><animate attributeType="XML" attributeName="fill" values="#3D3522;#251101;#3D3522;#3D3522" dur="0.5s" repeatCount="indefinite"/></polygon></g><g transform="translate(62,262)"><use href="#p0" /><polygon points="0,0 0,36 36,36 36,0" fill="#3D3522"><animate attributeType="XML" attributeName="fill" values="#3D3522;#251101;#3D3522;#3D3522" dur="0.6s" repeatCount="indefinite"/></polygon></g><use href="#d0" x="62" y="302" /><use href="#l0" x="102" y="22" /><use href="#d0" x="102" y="62" /><g transform="translate(102,102)"><use href="#p0" /><polygon points="0,0 0,36 36,36 36,0" fill="#3D3522"><animate attributeType="XML" attributeName="fill" values="#3D3522;#251101;#3D3522;#3D3522" dur="0.4s" repeatCount="indefinite"/></polygon></g><g transform="translate(102,142)"><use href="#b0" /><polygon points="0,0 0,36 36,36 36,0" fill="#D2F898"><animate attributeType="XML" attributeName="fill" values="#D2F898;#FF1053;#D2F898;#D2F898" dur="0.6s" repeatCount="indefinite"/></polygon></g><use href="#l0" x="102" y="182" /><use href="#d0" x="102" y="222" /><g transform="translate(102,262)"><use href="#p0" /><polygon points="0,0 0,36 36,36 36,0" fill="#3D3522"><animate attributeType="XML" attributeName="fill" values="#3D3522;#251101;#3D3522;#3D3522" dur="0.2s" repeatCount="indefinite"/></polygon></g><use href="#d0" x="102" y="302" /><g transform="translate(142,22)"><use href="#p0" /><polygon points="0,0 0,36 36,36 36,0" fill="#3D3522"><animate attributeType="XML" attributeName="fill" values="#3D3522;#251101;#3D3522;#3D3522" dur="0.0s" repeatCount="indefinite"/></polygon></g><g transform="translate(142,62)"><use href="#b0" /><polygon points="0,0 0,36 36,36 36,0" fill="#D2F898"><animate attributeType="XML" attributeName="fill" values="#D2F898;#FF1053;#D2F898;#D2F898" dur="0.3s" repeatCount="indefinite"/></polygon></g><use href="#l0" x="142" y="102" /><use href="#d0" x="142" y="142" /><use href="#l0" x="142" y="182" /><use href="#d0" x="142" y="222" /><g transform="translate(142,262)"><use href="#p0" /><polygon points="0,0 0,36 36,36 36,0" fill="#3D3522"><animate attributeType="XML" attributeName="fill" values="#3D3522;#251101;#3D3522;#3D3522" dur="0.8s" repeatCount="indefinite"/></polygon></g><use href="#d0" x="142" y="302" /><use href="#d0" x="182" y="22" /><use href="#d0" x="182" y="62" /><use href="#l0" x="182" y="102" /><use href="#d0" x="182" y="142" /><use href="#l0" x="182" y="182" /><use href="#d0" x="182" y="222" /><g transform="translate(182,262)"><use href="#p0" /><polygon points="0,0 0,36 36,36 36,0" fill="#3D3522"><animate attributeType="XML" attributeName="fill" values="#3D3522;#251101;#3D3522;#3D3522" dur="0.4s" repeatCount="indefinite"/></polygon></g><use href="#d0" x="182" y="302" /><g transform="translate(222,22)"><use href="#p0" /><polygon points="0,0 0,36 36,36 36,0" fill="#3D3522"><animate attributeType="XML" attributeName="fill" values="#3D3522;#251101;#3D3522;#3D3522" dur="0.0s" repeatCount="indefinite"/></polygon></g><use href="#d0" x="222" y="62" /><use href="#l0" x="222" y="102" /><use href="#d0" x="222" y="142" /><g transform="translate(222,182)"><use href="#p0" /><polygon points="0,0 0,36 36,36 36,0" fill="#3D3522"><animate attributeType="XML" attributeName="fill" values="#3D3522;#251101;#3D3522;#3D3522" dur="0.0s" repeatCount="indefinite"/></polygon></g><use href="#d0" x="222" y="222" /><use href="#d0" x="222" y="262" /><use href="#d0" x="222" y="302" /><g transform="translate(262,22)"><use href="#p0" /><polygon points="0,0 0,36 36,36 36,0" fill="#3D3522"><animate attributeType="XML" attributeName="fill" values="#3D3522;#251101;#3D3522;#3D3522" dur="0.0s" repeatCount="indefinite"/></polygon></g><use href="#d0" x="262" y="62" /><use href="#l0" x="262" y="102" /><g transform="translate(262,142)"><use href="#b0" /><polygon points="0,0 0,36 36,36 36,0" fill="#D2F898"><animate attributeType="XML" attributeName="fill" values="#D2F898;#FF1053;#D2F898;#D2F898" dur="0.8s" repeatCount="indefinite"/></polygon></g><use href="#d0" x="262" y="182" /><use href="#d0" x="262" y="222" /><use href="#d0" x="262" y="262" /><use href="#d0" x="262" y="302" /><g transform="translate(302,22)"><use href="#p0" /><polygon points="0,0 0,36 36,36 36,0" fill="#3D3522"><animate attributeType="XML" attributeName="fill" values="#3D3522;#251101;#3D3522;#3D3522" dur="0.0s" repeatCount="indefinite"/></polygon></g><use href="#d0" x="302" y="62" /><g transform="translate(302,102)"><use href="#p0" /><polygon points="0,0 0,36 36,36 36,0" fill="#3D3522"><animate attributeType="XML" attributeName="fill" values="#3D3522;#251101;#3D3522;#3D3522" dur="0.4s" repeatCount="indefinite"/></polygon></g><use href="#d0" x="302" y="142" /><g transform="translate(302,182)"><use href="#b0" /><polygon points="0,0 0,36 36,36 36,0" fill="#D2F898"><animate attributeType="XML" attributeName="fill" values="#D2F898;#FF1053;#D2F898;#D2F898" dur="0.8s" repeatCount="indefinite"/></polygon></g><g transform="translate(302,222)"><use href="#b0" /><polygon points="0,0 0,36 36,36 36,0" fill="#D2F898"><animate attributeType="XML" attributeName="fill" values="#D2F898;#FF1053;#D2F898;#D2F898" dur="0.5s" repeatCount="indefinite"/></polygon></g><g transform="translate(302,262)"><use href="#p0" /><polygon points="0,0 0,36 36,36 36,0" fill="#3D3522"><animate attributeType="XML" attributeName="fill" values="#3D3522;#251101;#3D3522;#3D3522" dur="0.2s" repeatCount="indefinite"/></polygon></g><use href="#d0" x="302" y="302" /></svg>