<svg width="360" height="360" xmlns="http://www.w3.org/2000/svg"><defs><animate id="aa" begin="0s"/><rect id="d0" width="36" height="36" fill="#423E37"></rect><circle id="l0" r="18" fill="#1E62AB"></circle></defs><rect width="100%" height="100%" fill="#34287E" /><g transform="translate(22,22)"><use href="#p0" /><polygon points="0,0 0,36 36,36 36,0" fill="#C7381D"><animate attributeType="XML" attributeName="fill" values="#C7381D;#423E37;#C7381D;#C7381D" dur="1s" begin="aa.begin +1s" repeatCount="indefinite"/></polygon></g><g transform="translate(40,80)"><use href="#b0" /><circle r="18" fill="#469D45"><animate attributeType="XML" attributeName="fill" values="#469D45;#1E62AB;#469D45;#469D45" dur="1s" begin="aa.begin +1.5s" repeatCount="indefinite"/></circle></g><use href="#d0" x="22" y="102" /><g transform="translate(40,160)"><use href="#b0" /><circle r="18" fill="#469D45"><animate attributeType="XML" attributeName="fill" values="#469D45;#1E62AB;#469D45;#469D45" dur="1s" begin="aa.begin +2s" repeatCount="indefinite"/></circle></g><g transform="translate(22,182)"><use href="#p0" /><polygon points="0,0 0,36 36,36 36,0" fill="#C7381D"><animate attributeType="XML" attributeName="fill" values="#C7381D;#423E37;#C7381D;#C7381D" dur="1s" begin="aa.begin +s" repeatCount="indefinite"/></polygon></g><use href="#d0" x="22" y="222" /><use href="#d0" x="22" y="262" /><use href="#d0" x="22" y="302" /><g transform="translate(80,40)"><use href="#b0" /><circle r="18" fill="#469D45"><animate attributeType="XML" attributeName="fill" values="#469D45;#1E62AB;#469D45;#469D45" dur="1s" begin="aa.begin +2.5s" repeatCount="indefinite"/></circle></g><use href="#l0" x="80" y="80" /><use href="#d0" x="62" y="102" /><use href="#l0" x="80" y="160" /><use href="#l0" x="80" y="200" /><g transform="translate(62,222)"><use href="#p0" /><polygon points="0,0 0,36 36,36 36,0" fill="#C7381D"><animate attributeType="XML" attributeName="fill" values="#C7381D;#423E37;#C7381D;#C7381D" dur="1s" begin="aa.begin +3s" repeatCount="indefinite"/></polygon></g><use href="#d0" x="62" y="262" /><use href="#d0" x="62" y="302" /><g transform="translate(102,22)"><use href="#p0" /><polygon points="0,0 0,36 36,36 36,0" fill="#C7381D"><animate attributeType="XML" attributeName="fill" values="#C7381D;#423E37;#C7381D;#C7381D" dur="1s" begin="aa.begin +3.5s" repeatCount="indefinite"/></polygon></g><use href="#d0" x="102" y="62" /><use href="#d0" x="102" y="102" /><use href="#d0" x="102" y="142" /><use href="#d0" x="102" y="182" /><use href="#d0" x="102" y="222" /><g transform="translate(120,280)"><use href="#b0" /><circle r="18" fill="#469D45"><animate attributeType="XML" attributeName="fill" values="#469D45;#1E62AB;#469D45;#469D45" dur="1s" begin="aa.begin +4s" repeatCount="indefinite"/></circle></g><use href="#d0" x="102" y="302" /><use href="#l0" x="160" y="40" /><use href="#l0" x="160" y="80" /><use href="#l0" x="160" y="120" /><use href="#l0" x="160" y="160" /><use href="#l0" x="160" y="200" /><g transform="translate(142,222)"><use href="#p0" /><polygon points="0,0 0,36 36,36 36,0" fill="#C7381D"><animate attributeType="XML" attributeName="fill" values="#C7381D;#423E37;#C7381D;#C7381D" dur="1s" begin="aa.begin +4.5s" repeatCount="indefinite"/></polygon></g><use href="#l0" x="160" y="280" /><g transform="translate(142,302)"><use href="#p0" /><polygon points="0,0 0,36 36,36 36,0" fill="#C7381D"><animate attributeType="XML" attributeName="fill" values="#C7381D;#423E37;#C7381D;#C7381D" dur="1s" begin="aa.begin +5s" repeatCount="indefinite"/></polygon></g><use href="#d0" x="182" y="22" /><use href="#d0" x="182" y="62" /><g transform="translate(200,120)"><use href="#b0" /><circle r="18" fill="#469D45"><animate attributeType="XML" attributeName="fill" values="#469D45;#1E62AB;#469D45;#469D45" dur="1s" begin="aa.begin +5.5s" repeatCount="indefinite"/></circle></g><use href="#d0" x="182" y="142" /><use href="#l0" x="200" y="200" /><use href="#d0" x="182" y="222" /><use href="#l0" x="200" y="280" /><use href="#d0" x="182" y="302" /><g transform="translate(222,22)"><use href="#p0" /><polygon points="0,0 0,36 36,36 36,0" fill="#C7381D"><animate attributeType="XML" attributeName="fill" values="#C7381D;#423E37;#C7381D;#C7381D" dur="1s" begin="aa.begin +6s" repeatCount="indefinite"/></polygon></g><use href="#d0" x="222" y="62" /><use href="#d0" x="222" y="102" /><use href="#d0" x="222" y="142" /><use href="#d0" x="222" y="182" /><use href="#d0" x="222" y="222" /><use href="#d0" x="222" y="262" /><g transform="translate(222,302)"><use href="#p0" /><polygon points="0,0 0,36 36,36 36,0" fill="#C7381D"><animate attributeType="XML" attributeName="fill" values="#C7381D;#423E37;#C7381D;#C7381D" dur="1s" begin="aa.begin +6.5s" repeatCount="indefinite"/></polygon></g><g transform="translate(280,40)"><use href="#b0" /><circle r="18" fill="#469D45"><animate attributeType="XML" attributeName="fill" values="#469D45;#1E62AB;#469D45;#469D45" dur="1s" begin="aa.begin +7s" repeatCount="indefinite"/></circle></g><g transform="translate(280,80)"><use href="#b0" /><circle r="18" fill="#469D45"><animate attributeType="XML" attributeName="fill" values="#469D45;#1E62AB;#469D45;#469D45" dur="1s" begin="aa.begin +7.5s" repeatCount="indefinite"/></circle></g><use href="#d0" x="262" y="102" /><use href="#d0" x="262" y="142" /><use href="#d0" x="262" y="182" /><use href="#d0" x="262" y="222" /><use href="#d0" x="262" y="262" /><g transform="translate(280,320)"><use href="#b0" /><circle r="18" fill="#469D45"><animate attributeType="XML" attributeName="fill" values="#469D45;#1E62AB;#469D45;#469D45" dur="1s" begin="aa.begin +8s" repeatCount="indefinite"/></circle></g><g transform="translate(302,22)"><use href="#p0" /><polygon points="0,0 0,36 36,36 36,0" fill="#C7381D"><animate attributeType="XML" attributeName="fill" values="#C7381D;#423E37;#C7381D;#C7381D" dur="1s" begin="aa.begin +8.5s" repeatCount="indefinite"/></polygon></g><use href="#l0" x="320" y="80" /><use href="#d0" x="302" y="102" /><use href="#d0" x="302" y="142" /><use href="#d0" x="302" y="182" /><use href="#d0" x="302" y="222" /><use href="#d0" x="302" y="262" /><use href="#l0" x="320" y="320" /></svg>