<svg width="360" height="360" xmlns="http://www.w3.org/2000/svg"><defs><animate id="aa" begin="0s"/><rect id="l0" width="36" height="36" fill="#FDFFB6"></rect><circle id="d0" r="18" fill="#FFC6FF"></circle></defs><rect width="100%" height="100%" fill="#CAFFBF" /><use href="#d0" x="40" y="40" /><use href="#l0" x="22" y="62" /><g transform="translate(22,102)"><use href="#b0" /><polygon points="0,0 0,36 36,36 36,0" fill="#CAFFBF"><animate attributeType="XML" attributeName="fill" values="#CAFFBF;#FDFFB6;#CAFFBF;#CAFFBF" dur="0.0s" repeatCount="indefinite"/></polygon></g><g transform="translate(22,142)"><use href="#b0" /><polygon points="0,0 0,36 36,36 36,0" fill="#CAFFBF"><animate attributeType="XML" attributeName="fill" values="#CAFFBF;#FDFFB6;#CAFFBF;#CAFFBF" dur="0.0s" repeatCount="indefinite"/></polygon></g><use href="#d0" x="40" y="200" /><g transform="translate(22,222)"><use href="#b0" /><polygon points="0,0 0,36 36,36 36,0" fill="#CAFFBF"><animate attributeType="XML" attributeName="fill" values="#CAFFBF;#FDFFB6;#CAFFBF;#CAFFBF" dur="0.0s" repeatCount="indefinite"/></polygon></g><g transform="translate(40,280)"><use href="#p0" /><circle r="18" fill="#BDB2FF"><animate attributeType="XML" attributeName="fill" values="#BDB2FF;#FFC6FF;#BDB2FF;#BDB2FF" dur="0.0s" repeatCount="indefinite"/></circle></g><use href="#l0" x="22" y="302" /><g transform="translate(80,40)"><use href="#p0" /><circle r="18" fill="#BDB2FF"><animate attributeType="XML" attributeName="fill" values="#BDB2FF;#FFC6FF;#BDB2FF;#BDB2FF" dur="0.0s" repeatCount="indefinite"/></circle></g><g transform="translate(80,80)"><use href="#p0" /><circle r="18" fill="#BDB2FF"><animate attributeType="XML" attributeName="fill" values="#BDB2FF;#FFC6FF;#BDB2FF;#BDB2FF" dur="0.1s" repeatCount="indefinite"/></circle></g><use href="#d0" x="80" y="120" /><use href="#d0" x="80" y="160" /><use href="#d0" x="80" y="200" /><use href="#d0" x="80" y="240" /><use href="#d0" x="80" y="280" /><use href="#l0" x="62" y="302" /><g transform="translate(120,40)"><use href="#p0" /><circle r="18" fill="#BDB2FF"><animate attributeType="XML" attributeName="fill" values="#BDB2FF;#FFC6FF;#BDB2FF;#BDB2FF" dur="0.0s" repeatCount="indefinite"/></circle></g><use href="#l0" x="102" y="62" /><g transform="translate(102,102)"><use href="#b0" /><polygon points="0,0 0,36 36,36 36,0" fill="#CAFFBF"><animate attributeType="XML" attributeName="fill" values="#CAFFBF;#FDFFB6;#CAFFBF;#CAFFBF" dur="0.4s" repeatCount="indefinite"/></polygon></g><use href="#d0" x="120" y="160" /><use href="#d0" x="120" y="200" /><use href="#d0" x="120" y="240" /><g transform="translate(102,262)"><use href="#b0" /><polygon points="0,0 0,36 36,36 36,0" fill="#CAFFBF"><animate attributeType="XML" attributeName="fill" values="#CAFFBF;#FDFFB6;#CAFFBF;#CAFFBF" dur="0.2s" repeatCount="indefinite"/></polygon></g><use href="#l0" x="102" y="302" /><g transform="translate(142,22)"><use href="#b0" /><polygon points="0,0 0,36 36,36 36,0" fill="#CAFFBF"><animate attributeType="XML" attributeName="fill" values="#CAFFBF;#FDFFB6;#CAFFBF;#CAFFBF" dur="0.0s" repeatCount="indefinite"/></polygon></g><g transform="translate(160,80)"><use href="#p0" /><circle r="18" fill="#BDB2FF"><animate attributeType="XML" attributeName="fill" values="#BDB2FF;#FFC6FF;#BDB2FF;#BDB2FF" dur="0.3s" repeatCount="indefinite"/></circle></g><use href="#l0" x="142" y="102" /><g transform="translate(142,142)"><use href="#b0" /><polygon points="0,0 0,36 36,36 36,0" fill="#CAFFBF"><animate attributeType="XML" attributeName="fill" values="#CAFFBF;#FDFFB6;#CAFFBF;#CAFFBF" dur="0.9s" repeatCount="indefinite"/></polygon></g><use href="#d0" x="160" y="200" /><g transform="translate(142,222)"><use href="#b0" /><polygon points="0,0 0,36 36,36 36,0" fill="#CAFFBF"><animate attributeType="XML" attributeName="fill" values="#CAFFBF;#FDFFB6;#CAFFBF;#CAFFBF" dur="0.5s" repeatCount="indefinite"/></polygon></g><g transform="translate(160,280)"><use href="#p0" /><circle r="18" fill="#BDB2FF"><animate attributeType="XML" attributeName="fill" values="#BDB2FF;#FFC6FF;#BDB2FF;#BDB2FF" dur="0.8s" repeatCount="indefinite"/></circle></g><use href="#d0" x="160" y="320" /><use href="#d0" x="200" y="40" /><g transform="translate(182,62)"><use href="#b0" /><polygon points="0,0 0,36 36,36 36,0" fill="#CAFFBF"><animate attributeType="XML" attributeName="fill" values="#CAFFBF;#FDFFB6;#CAFFBF;#CAFFBF" dur="0.4s" repeatCount="indefinite"/></polygon></g><use href="#l0" x="182" y="102" /><g transform="translate(182,142)"><use href="#b0" /><polygon points="0,0 0,36 36,36 36,0" fill="#CAFFBF"><animate attributeType="XML" attributeName="fill" values="#CAFFBF;#FDFFB6;#CAFFBF;#CAFFBF" dur="0.2s" repeatCount="indefinite"/></polygon></g><use href="#d0" x="200" y="200" /><use href="#d0" x="200" y="240" /><g transform="translate(200,280)"><use href="#p0" /><circle r="18" fill="#BDB2FF"><animate attributeType="XML" attributeName="fill" values="#BDB2FF;#FFC6FF;#BDB2FF;#BDB2FF" dur="0.4s" repeatCount="indefinite"/></circle></g><g transform="translate(182,302)"><use href="#b0" /><polygon points="0,0 0,36 36,36 36,0" fill="#CAFFBF"><animate attributeType="XML" attributeName="fill" values="#CAFFBF;#FDFFB6;#CAFFBF;#CAFFBF" dur="0.8s" repeatCount="indefinite"/></polygon></g><use href="#d0" x="240" y="40" /><use href="#d0" x="240" y="80" /><use href="#d0" x="240" y="120" /><g transform="translate(222,142)"><use href="#b0" /><polygon points="0,0 0,36 36,36 36,0" fill="#CAFFBF"><animate attributeType="XML" attributeName="fill" values="#CAFFBF;#FDFFB6;#CAFFBF;#CAFFBF" dur="0.5s" repeatCount="indefinite"/></polygon></g><use href="#d0" x="240" y="200" /><g transform="translate(240,240)"><use href="#p0" /><circle r="18" fill="#BDB2FF"><animate attributeType="XML" attributeName="fill" values="#BDB2FF;#FFC6FF;#BDB2FF;#BDB2FF" dur="0.5s" repeatCount="indefinite"/></circle></g><use href="#l0" x="222" y="262" /><use href="#l0" x="222" y="302" /><use href="#l0" x="262" y="22" /><g transform="translate(280,80)"><use href="#p0" /><circle r="18" fill="#BDB2FF"><animate attributeType="XML" attributeName="fill" values="#BDB2FF;#FFC6FF;#BDB2FF;#BDB2FF" dur="0.6s" repeatCount="indefinite"/></circle></g><g transform="translate(262,102)"><use href="#b0" /><polygon points="0,0 0,36 36,36 36,0" fill="#CAFFBF"><animate attributeType="XML" attributeName="fill" values="#CAFFBF;#FDFFB6;#CAFFBF;#CAFFBF" dur="0.2s" repeatCount="indefinite"/></polygon></g><g transform="translate(280,160)"><use href="#p0" /><circle r="18" fill="#BDB2FF"><animate attributeType="XML" attributeName="fill" values="#BDB2FF;#FFC6FF;#BDB2FF;#BDB2FF" dur="0.8s" repeatCount="indefinite"/></circle></g><use href="#d0" x="280" y="200" /><g transform="translate(262,222)"><use href="#b0" /><polygon points="0,0 0,36 36,36 36,0" fill="#CAFFBF"><animate attributeType="XML" attributeName="fill" values="#CAFFBF;#FDFFB6;#CAFFBF;#CAFFBF" dur="0.0s" repeatCount="indefinite"/></polygon></g><use href="#d0" x="280" y="280" /><use href="#d0" x="280" y="320" /><use href="#d0" x="320" y="40" /><use href="#d0" x="320" y="80" /><use href="#d0" x="320" y="120" /><g transform="translate(320,160)"><use href="#p0" /><circle r="18" fill="#BDB2FF"><animate attributeType="XML" attributeName="fill" values="#BDB2FF;#FFC6FF;#BDB2FF;#BDB2FF" dur="0.1s" repeatCount="indefinite"/></circle></g><g transform="translate(320,200)"><use href="#p0" /><circle r="18" fill="#BDB2FF"><animate attributeType="XML" attributeName="fill" values="#BDB2FF;#FFC6FF;#BDB2FF;#BDB2FF" dur="0.8s" repeatCount="indefinite"/></circle></g><use href="#l0" x="302" y="222" /><use href="#d0" x="320" y="280" /><use href="#l0" x="302" y="302" /></svg>