<svg width="360" height="360" xmlns="http://www.w3.org/2000/svg"><defs><animate id="aa" begin="0s"/><rect id="l0" width="36" height="36" fill="#9500ff"></rect><circle id="d0" r="18" fill="#ff0059"></circle></defs><rect width="100%" height="100%" fill="#0fffdb" /><use href="#l0" x="22" y="22" /><use href="#d0" x="40" y="80" /><use href="#d0" x="40" y="120" /><g transform="translate(22,142)"><use href="#b0" /><polygon points="0,0 0,36 36,36 36,0" fill="#2962ff"><animate attributeType="XML" attributeName="fill" values="#2962ff;#9500ff;#2962ff;#2962ff" dur="0.0s" repeatCount="indefinite"/></polygon></g><use href="#d0" x="40" y="200" /><use href="#d0" x="40" y="240" /><use href="#l0" x="22" y="262" /><use href="#d0" x="40" y="320" /><use href="#d0" x="80" y="40" /><use href="#l0" x="62" y="62" /><use href="#l0" x="62" y="102" /><use href="#l0" x="62" y="142" /><use href="#l0" x="62" y="182" /><use href="#l0" x="62" y="222" /><use href="#d0" x="80" y="280" /><use href="#d0" x="80" y="320" /><use href="#l0" x="102" y="22" /><use href="#d0" x="120" y="80" /><use href="#d0" x="120" y="120" /><use href="#d0" x="120" y="160" /><use href="#d0" x="120" y="200" /><use href="#d0" x="120" y="240" /><use href="#l0" x="102" y="262" /><use href="#l0" x="102" y="302" /><use href="#d0" x="160" y="40" /><use href="#l0" x="142" y="62" /><use href="#l0" x="142" y="102" /><use href="#l0" x="142" y="142" /><use href="#l0" x="142" y="182" /><use href="#l0" x="142" y="222" /><use href="#d0" x="160" y="280" /><use href="#d0" x="160" y="320" /><use href="#l0" x="182" y="22" /><use href="#d0" x="200" y="80" /><use href="#d0" x="200" y="120" /><use href="#d0" x="200" y="160" /><use href="#d0" x="200" y="200" /><use href="#d0" x="200" y="240" /><use href="#l0" x="182" y="262" /><use href="#d0" x="200" y="320" /><use href="#l0" x="222" y="22" /><use href="#d0" x="240" y="80" /><g transform="translate(240,120)"><use href="#p0" /><circle r="18" fill="#b4e600"><animate attributeType="XML" attributeName="fill" values="#b4e600;#ff0059;#b4e600;#b4e600" dur="0.0s" repeatCount="indefinite"/></circle></g><g transform="translate(240,160)"><use href="#p0" /><circle r="18" fill="#b4e600"><animate attributeType="XML" attributeName="fill" values="#b4e600;#ff0059;#b4e600;#b4e600" dur="0.5s" repeatCount="indefinite"/></circle></g><g transform="translate(240,200)"><use href="#p0" /><circle r="18" fill="#b4e600"><animate attributeType="XML" attributeName="fill" values="#b4e600;#ff0059;#b4e600;#b4e600" dur="0.0s" repeatCount="indefinite"/></circle></g><use href="#l0" x="222" y="222" /><use href="#l0" x="222" y="262" /><use href="#d0" x="240" y="320" /><use href="#l0" x="262" y="22" /><use href="#d0" x="280" y="80" /><use href="#d0" x="280" y="120" /><use href="#d0" x="280" y="160" /><use href="#d0" x="280" y="200" /><use href="#d0" x="280" y="240" /><use href="#d0" x="280" y="280" /><use href="#d0" x="280" y="320" /><use href="#l0" x="302" y="22" /><use href="#l0" x="302" y="62" /><use href="#d0" x="320" y="120" /><use href="#d0" x="320" y="160" /><use href="#d0" x="320" y="200" /><use href="#l0" x="302" y="222" /><use href="#l0" x="302" y="262" /><use href="#d0" x="320" y="320" /></svg>