<svg width="360" height="360" xmlns="http://www.w3.org/2000/svg"><defs><animate id="aa" begin="0s"/><rect id="l0" width="36" height="36" fill="#FFFF3F"></rect><rect id="d0" width="36" height="36" fill="#2B9348"></rect></defs><rect width="100%" height="100%" fill="#80B918" /><g transform="translate(22,22)"><use href="#p0" /><polygon points="0,0 0,36 36,36 36,0" fill="#55A630"><animate attributeType="XML" attributeName="fill" values="#55A630;#2B9348;#55A630;#55A630" dur="4s" begin="aa.begin +1s" repeatCount="indefinite"/></polygon></g><g transform="translate(22,62)"><use href="#p0" /><polygon points="0,0 0,36 36,36 36,0" fill="#55A630"><animate attributeType="XML" attributeName="fill" values="#55A630;#2B9348;#55A630;#55A630" dur="4s" begin="aa.begin +1.5s" repeatCount="indefinite"/></polygon></g><use href="#d0" x="22" y="102" /><use href="#d0" x="22" y="142" /><g transform="translate(22,182)"><use href="#p0" /><polygon points="0,0 0,36 36,36 36,0" fill="#55A630"><animate attributeType="XML" attributeName="fill" values="#55A630;#2B9348;#55A630;#55A630" dur="4s" begin="aa.begin +2s" repeatCount="indefinite"/></polygon></g><g transform="translate(22,222)"><use href="#p0" /><polygon points="0,0 0,36 36,36 36,0" fill="#55A630"><animate attributeType="XML" attributeName="fill" values="#55A630;#2B9348;#55A630;#55A630" dur="4s" begin="aa.begin +s" repeatCount="indefinite"/></polygon></g><g transform="translate(22,262)"><use href="#p0" /><polygon points="0,0 0,36 36,36 36,0" fill="#55A630"><animate attributeType="XML" attributeName="fill" values="#55A630;#2B9348;#55A630;#55A630" dur="4s" begin="aa.begin +2.5s" repeatCount="indefinite"/></polygon></g><use href="#l0" x="22" y="302" /><g transform="translate(62,22)"><use href="#b0" /><polygon points="0,0 0,36 36,36 36,0" fill="#EEEF20"><animate attributeType="XML" attributeName="fill" values="#EEEF20;#FFFF3F;#EEEF20;#EEEF20" dur="4s" begin="aa.begin +3s" repeatCount="indefinite"/></polygon></g><g transform="translate(62,62)"><use href="#p0" /><polygon points="0,0 0,36 36,36 36,0" fill="#55A630"><animate attributeType="XML" attributeName="fill" values="#55A630;#2B9348;#55A630;#55A630" dur="4s" begin="aa.begin +3.5s" repeatCount="indefinite"/></polygon></g><use href="#d0" x="62" y="102" /><use href="#l0" x="62" y="142" /><use href="#d0" x="62" y="182" /><g transform="translate(62,222)"><use href="#b0" /><polygon points="0,0 0,36 36,36 36,0" fill="#EEEF20"><animate attributeType="XML" attributeName="fill" values="#EEEF20;#FFFF3F;#EEEF20;#EEEF20" dur="4s" begin="aa.begin +4s" repeatCount="indefinite"/></polygon></g><use href="#d0" x="62" y="262" /><g transform="translate(62,302)"><use href="#b0" /><polygon points="0,0 0,36 36,36 36,0" fill="#EEEF20"><animate attributeType="XML" attributeName="fill" values="#EEEF20;#FFFF3F;#EEEF20;#EEEF20" dur="4s" begin="aa.begin +4.5s" repeatCount="indefinite"/></polygon></g><g transform="translate(102,22)"><use href="#p0" /><polygon points="0,0 0,36 36,36 36,0" fill="#55A630"><animate attributeType="XML" attributeName="fill" values="#55A630;#2B9348;#55A630;#55A630" dur="4s" begin="aa.begin +5s" repeatCount="indefinite"/></polygon></g><g transform="translate(102,62)"><use href="#b0" /><polygon points="0,0 0,36 36,36 36,0" fill="#EEEF20"><animate attributeType="XML" attributeName="fill" values="#EEEF20;#FFFF3F;#EEEF20;#EEEF20" dur="4s" begin="aa.begin +5.5s" repeatCount="indefinite"/></polygon></g><use href="#d0" x="102" y="102" /><use href="#l0" x="102" y="142" /><g transform="translate(102,182)"><use href="#b0" /><polygon points="0,0 0,36 36,36 36,0" fill="#EEEF20"><animate attributeType="XML" attributeName="fill" values="#EEEF20;#FFFF3F;#EEEF20;#EEEF20" dur="4s" begin="aa.begin +6s" repeatCount="indefinite"/></polygon></g><use href="#l0" x="102" y="222" /><use href="#l0" x="102" y="262" /><use href="#d0" x="102" y="302" /><use href="#l0" x="142" y="22" /><use href="#d0" x="142" y="62" /><g transform="translate(142,102)"><use href="#p0" /><polygon points="0,0 0,36 36,36 36,0" fill="#55A630"><animate attributeType="XML" attributeName="fill" values="#55A630;#2B9348;#55A630;#55A630" dur="4s" begin="aa.begin +6.5s" repeatCount="indefinite"/></polygon></g><g transform="translate(142,142)"><use href="#b0" /><polygon points="0,0 0,36 36,36 36,0" fill="#EEEF20"><animate attributeType="XML" attributeName="fill" values="#EEEF20;#FFFF3F;#EEEF20;#EEEF20" dur="4s" begin="aa.begin +7s" repeatCount="indefinite"/></polygon></g><use href="#l0" x="142" y="182" /><use href="#d0" x="142" y="222" /><use href="#l0" x="142" y="262" /><use href="#d0" x="142" y="302" /><g transform="translate(182,22)"><use href="#p0" /><polygon points="0,0 0,36 36,36 36,0" fill="#55A630"><animate attributeType="XML" attributeName="fill" values="#55A630;#2B9348;#55A630;#55A630" dur="4s" begin="aa.begin +7.5s" repeatCount="indefinite"/></polygon></g><use href="#d0" x="182" y="62" /><use href="#l0" x="182" y="102" /><g transform="translate(182,142)"><use href="#b0" /><polygon points="0,0 0,36 36,36 36,0" fill="#EEEF20"><animate attributeType="XML" attributeName="fill" values="#EEEF20;#FFFF3F;#EEEF20;#EEEF20" dur="4s" begin="aa.begin +8s" repeatCount="indefinite"/></polygon></g><use href="#d0" x="182" y="182" /><g transform="translate(182,222)"><use href="#b0" /><polygon points="0,0 0,36 36,36 36,0" fill="#EEEF20"><animate attributeType="XML" attributeName="fill" values="#EEEF20;#FFFF3F;#EEEF20;#EEEF20" dur="4s" begin="aa.begin +8.5s" repeatCount="indefinite"/></polygon></g><g transform="translate(182,262)"><use href="#b0" /><polygon points="0,0 0,36 36,36 36,0" fill="#EEEF20"><animate attributeType="XML" attributeName="fill" values="#EEEF20;#FFFF3F;#EEEF20;#EEEF20" dur="4s" begin="aa.begin +9s" repeatCount="indefinite"/></polygon></g><g transform="translate(182,302)"><use href="#b0" /><polygon points="0,0 0,36 36,36 36,0" fill="#EEEF20"><animate attributeType="XML" attributeName="fill" values="#EEEF20;#FFFF3F;#EEEF20;#EEEF20" dur="4s" begin="aa.begin +9.5s" repeatCount="indefinite"/></polygon></g><use href="#l0" x="222" y="22" /><use href="#d0" x="222" y="62" /><g transform="translate(222,102)"><use href="#p0" /><polygon points="0,0 0,36 36,36 36,0" fill="#55A630"><animate attributeType="XML" attributeName="fill" values="#55A630;#2B9348;#55A630;#55A630" dur="4s" begin="aa.begin +10s" repeatCount="indefinite"/></polygon></g><use href="#l0" x="222" y="142" /><use href="#d0" x="222" y="182" /><g transform="translate(222,222)"><use href="#b0" /><polygon points="0,0 0,36 36,36 36,0" fill="#EEEF20"><animate attributeType="XML" attributeName="fill" values="#EEEF20;#FFFF3F;#EEEF20;#EEEF20" dur="4s" begin="aa.begin +10.5s" repeatCount="indefinite"/></polygon></g><use href="#d0" x="222" y="262" /><g transform="translate(222,302)"><use href="#b0" /><polygon points="0,0 0,36 36,36 36,0" fill="#EEEF20"><animate attributeType="XML" attributeName="fill" values="#EEEF20;#FFFF3F;#EEEF20;#EEEF20" dur="4s" begin="aa.begin +11s" repeatCount="indefinite"/></polygon></g><g transform="translate(262,22)"><use href="#p0" /><polygon points="0,0 0,36 36,36 36,0" fill="#55A630"><animate attributeType="XML" attributeName="fill" values="#55A630;#2B9348;#55A630;#55A630" dur="4s" begin="aa.begin +s" repeatCount="indefinite"/></polygon></g><use href="#d0" x="262" y="62" /><g transform="translate(262,102)"><use href="#p0" /><polygon points="0,0 0,36 36,36 36,0" fill="#55A630"><animate attributeType="XML" attributeName="fill" values="#55A630;#2B9348;#55A630;#55A630" dur="4s" begin="aa.begin +s" repeatCount="indefinite"/></polygon></g><use href="#d0" x="262" y="142" /><g transform="translate(262,182)"><use href="#b0" /><polygon points="0,0 0,36 36,36 36,0" fill="#EEEF20"><animate attributeType="XML" attributeName="fill" values="#EEEF20;#FFFF3F;#EEEF20;#EEEF20" dur="4s" begin="aa.begin +s" repeatCount="indefinite"/></polygon></g><g transform="translate(262,222)"><use href="#b0" /><polygon points="0,0 0,36 36,36 36,0" fill="#EEEF20"><animate attributeType="XML" attributeName="fill" values="#EEEF20;#FFFF3F;#EEEF20;#EEEF20" dur="4s" begin="aa.begin +s" repeatCount="indefinite"/></polygon></g><g transform="translate(262,262)"><use href="#b0" /><polygon points="0,0 0,36 36,36 36,0" fill="#EEEF20"><animate attributeType="XML" attributeName="fill" values="#EEEF20;#FFFF3F;#EEEF20;#EEEF20" dur="4s" begin="aa.begin +s" repeatCount="indefinite"/></polygon></g><use href="#l0" x="262" y="302" /><use href="#d0" x="302" y="22" /><g transform="translate(302,62)"><use href="#b0" /><polygon points="0,0 0,36 36,36 36,0" fill="#EEEF20"><animate attributeType="XML" attributeName="fill" values="#EEEF20;#FFFF3F;#EEEF20;#EEEF20" dur="4s" begin="aa.begin +s" repeatCount="indefinite"/></polygon></g><g transform="translate(302,102)"><use href="#p0" /><polygon points="0,0 0,36 36,36 36,0" fill="#55A630"><animate attributeType="XML" attributeName="fill" values="#55A630;#2B9348;#55A630;#55A630" dur="4s" begin="aa.begin +s" repeatCount="indefinite"/></polygon></g><g transform="translate(302,142)"><use href="#b0" /><polygon points="0,0 0,36 36,36 36,0" fill="#EEEF20"><animate attributeType="XML" attributeName="fill" values="#EEEF20;#FFFF3F;#EEEF20;#EEEF20" dur="4s" begin="aa.begin +s" repeatCount="indefinite"/></polygon></g><g transform="translate(302,182)"><use href="#p0" /><polygon points="0,0 0,36 36,36 36,0" fill="#55A630"><animate attributeType="XML" attributeName="fill" values="#55A630;#2B9348;#55A630;#55A630" dur="4s" begin="aa.begin +s" repeatCount="indefinite"/></polygon></g><use href="#d0" x="302" y="222" /><use href="#d0" x="302" y="262" /><g transform="translate(302,302)"><use href="#b0" /><polygon points="0,0 0,36 36,36 36,0" fill="#EEEF20"><animate attributeType="XML" attributeName="fill" values="#EEEF20;#FFFF3F;#EEEF20;#EEEF20" dur="4s" begin="aa.begin +s" repeatCount="indefinite"/></polygon></g></svg>