<svg width="360" height="360" xmlns="http://www.w3.org/2000/svg"><defs><animate id="aa" begin="0s"/><rect id="l0" width="36" height="36" fill="#E3B23C"></rect><circle id="d0" r="18" fill="#423E37"></circle></defs><rect width="100%" height="100%" fill="#EDEBD7" /><use href="#d0" x="40" y="40" /><use href="#l0" x="22" y="62" /><use href="#d0" x="40" y="120" /><use href="#l0" x="22" y="142" /><use href="#l0" x="22" y="182" /><g transform="translate(22,222)"><use href="#b0" /><polygon points="0,0 0,36 36,36 36,0" fill="#74A57F"><animate attributeType="XML" attributeName="fill" values="#74A57F;#E3B23C;#74A57F;#74A57F" dur="0.0s" repeatCount="indefinite"/></polygon></g><g transform="translate(40,280)"><use href="#p0" /><circle r="18" fill="#7D5BA6"><animate attributeType="XML" attributeName="fill" values="#7D5BA6;#423E37;#7D5BA6;#7D5BA6" dur="0.0s" repeatCount="indefinite"/></circle></g><use href="#l0" x="22" y="302" /><use href="#d0" x="80" y="40" /><use href="#l0" x="62" y="62" /><use href="#d0" x="80" y="120" /><use href="#l0" x="62" y="142" /><use href="#d0" x="80" y="200" /><g transform="translate(80,240)"><use href="#p0" /><circle r="18" fill="#7D5BA6"><animate attributeType="XML" attributeName="fill" values="#7D5BA6;#423E37;#7D5BA6;#7D5BA6" dur="0.5s" repeatCount="indefinite"/></circle></g><use href="#d0" x="80" y="280" /><g transform="translate(80,320)"><use href="#p0" /><circle r="18" fill="#7D5BA6"><animate attributeType="XML" attributeName="fill" values="#7D5BA6;#423E37;#7D5BA6;#7D5BA6" dur="0.7s" repeatCount="indefinite"/></circle></g><g transform="translate(102,22)"><use href="#b0" /><polygon points="0,0 0,36 36,36 36,0" fill="#74A57F"><animate attributeType="XML" attributeName="fill" values="#74A57F;#E3B23C;#74A57F;#74A57F" dur="0.0s" repeatCount="indefinite"/></polygon></g><g transform="translate(120,80)"><use href="#p0" /><circle r="18" fill="#7D5BA6"><animate attributeType="XML" attributeName="fill" values="#7D5BA6;#423E37;#7D5BA6;#7D5BA6" dur="0.2s" repeatCount="indefinite"/></circle></g><use href="#d0" x="120" y="120" /><use href="#d0" x="120" y="160" /><g transform="translate(120,200)"><use href="#p0" /><circle r="18" fill="#7D5BA6"><animate attributeType="XML" attributeName="fill" values="#7D5BA6;#423E37;#7D5BA6;#7D5BA6" dur="0.8s" repeatCount="indefinite"/></circle></g><g transform="translate(120,240)"><use href="#p0" /><circle r="18" fill="#7D5BA6"><animate attributeType="XML" attributeName="fill" values="#7D5BA6;#423E37;#7D5BA6;#7D5BA6" dur="0.0s" repeatCount="indefinite"/></circle></g><use href="#d0" x="120" y="280" /><use href="#d0" x="120" y="320" /><use href="#l0" x="142" y="22" /><use href="#d0" x="160" y="80" /><g transform="translate(160,120)"><use href="#p0" /><circle r="18" fill="#7D5BA6"><animate attributeType="XML" attributeName="fill" values="#7D5BA6;#423E37;#7D5BA6;#7D5BA6" dur="0.6s" repeatCount="indefinite"/></circle></g><g transform="translate(160,160)"><use href="#p0" /><circle r="18" fill="#7D5BA6"><animate attributeType="XML" attributeName="fill" values="#7D5BA6;#423E37;#7D5BA6;#7D5BA6" dur="0.9s" repeatCount="indefinite"/></circle></g><g transform="translate(160,200)"><use href="#p0" /><circle r="18" fill="#7D5BA6"><animate attributeType="XML" attributeName="fill" values="#7D5BA6;#423E37;#7D5BA6;#7D5BA6" dur="0.2s" repeatCount="indefinite"/></circle></g><use href="#d0" x="160" y="240" /><use href="#d0" x="160" y="280" /><use href="#d0" x="160" y="320" /><use href="#l0" x="182" y="22" /><g transform="translate(182,62)"><use href="#b0" /><polygon points="0,0 0,36 36,36 36,0" fill="#74A57F"><animate attributeType="XML" attributeName="fill" values="#74A57F;#E3B23C;#74A57F;#74A57F" dur="0.4s" repeatCount="indefinite"/></polygon></g><g transform="translate(182,102)"><use href="#b0" /><polygon points="0,0 0,36 36,36 36,0" fill="#74A57F"><animate attributeType="XML" attributeName="fill" values="#74A57F;#E3B23C;#74A57F;#74A57F" dur="0.8s" repeatCount="indefinite"/></polygon></g><use href="#d0" x="200" y="160" /><g transform="translate(182,182)"><use href="#b0" /><polygon points="0,0 0,36 36,36 36,0" fill="#74A57F"><animate attributeType="XML" attributeName="fill" values="#74A57F;#E3B23C;#74A57F;#74A57F" dur="0.6s" repeatCount="indefinite"/></polygon></g><use href="#l0" x="182" y="222" /><use href="#l0" x="182" y="262" /><g transform="translate(182,302)"><use href="#b0" /><polygon points="0,0 0,36 36,36 36,0" fill="#74A57F"><animate attributeType="XML" attributeName="fill" values="#74A57F;#E3B23C;#74A57F;#74A57F" dur="0.8s" repeatCount="indefinite"/></polygon></g><use href="#d0" x="240" y="40" /><g transform="translate(240,80)"><use href="#p0" /><circle r="18" fill="#7D5BA6"><animate attributeType="XML" attributeName="fill" values="#7D5BA6;#423E37;#7D5BA6;#7D5BA6" dur="0.5s" repeatCount="indefinite"/></circle></g><use href="#d0" x="240" y="120" /><use href="#l0" x="222" y="142" /><use href="#d0" x="240" y="200" /><g transform="translate(240,240)"><use href="#p0" /><circle r="18" fill="#7D5BA6"><animate attributeType="XML" attributeName="fill" values="#7D5BA6;#423E37;#7D5BA6;#7D5BA6" dur="0.5s" repeatCount="indefinite"/></circle></g><use href="#d0" x="240" y="280" /><use href="#d0" x="240" y="320" /><g transform="translate(262,22)"><use href="#b0" /><polygon points="0,0 0,36 36,36 36,0" fill="#74A57F"><animate attributeType="XML" attributeName="fill" values="#74A57F;#E3B23C;#74A57F;#74A57F" dur="0.0s" repeatCount="indefinite"/></polygon></g><use href="#l0" x="262" y="62" /><use href="#d0" x="280" y="120" /><g transform="translate(280,160)"><use href="#p0" /><circle r="18" fill="#7D5BA6"><animate attributeType="XML" attributeName="fill" values="#7D5BA6;#423E37;#7D5BA6;#7D5BA6" dur="0.8s" repeatCount="indefinite"/></circle></g><use href="#d0" x="280" y="200" /><g transform="translate(280,240)"><use href="#p0" /><circle r="18" fill="#7D5BA6"><animate attributeType="XML" attributeName="fill" values="#7D5BA6;#423E37;#7D5BA6;#7D5BA6" dur="0.0s" repeatCount="indefinite"/></circle></g><g transform="translate(280,280)"><use href="#p0" /><circle r="18" fill="#7D5BA6"><animate attributeType="XML" attributeName="fill" values="#7D5BA6;#423E37;#7D5BA6;#7D5BA6" dur="0.6s" repeatCount="indefinite"/></circle></g><use href="#d0" x="280" y="320" /><use href="#d0" x="320" y="40" /><use href="#l0" x="302" y="62" /><use href="#d0" x="320" y="120" /><use href="#d0" x="320" y="160" /><g transform="translate(302,182)"><use href="#b0" /><polygon points="0,0 0,36 36,36 36,0" fill="#74A57F"><animate attributeType="XML" attributeName="fill" values="#74A57F;#E3B23C;#74A57F;#74A57F" dur="0.8s" repeatCount="indefinite"/></polygon></g><g transform="translate(302,222)"><use href="#b0" /><polygon points="0,0 0,36 36,36 36,0" fill="#74A57F"><animate attributeType="XML" attributeName="fill" values="#74A57F;#E3B23C;#74A57F;#74A57F" dur="0.5s" repeatCount="indefinite"/></polygon></g><use href="#d0" x="320" y="280" /><use href="#l0" x="302" y="302" /></svg>