<svg width="360" height="360" xmlns="http://www.w3.org/2000/svg"><defs><animate id="aa" begin="0s"/><rect id="l0" width="36" height="36" fill="#9500ff"></rect><rect id="d0" width="36" height="36" fill="#ff0059"></rect></defs><rect width="100%" height="100%" fill="#0fffdb" /><use href="#d0" x="22" y="22" /><g transform="translate(22,62)"><use href="#p0" /><polygon points="36,0 36,36 0,0" fill="#ff8c00"><animate attributeType="XML" attributeName="fill" values="#ff8c00;#ff0059;#ff8c00;#ff8c00" dur="1s" begin="aa.begin +1s" repeatCount="indefinite"/></polygon></g><g transform="translate(22,102)"><use href="#p0" /><polygon points="36,0 36,36 0,0" fill="#ff8c00"><animate attributeType="XML" attributeName="fill" values="#ff8c00;#ff0059;#ff8c00;#ff8c00" dur="1s" begin="aa.begin +1.5s" repeatCount="indefinite"/></polygon></g><use href="#d0" x="22" y="142" /><use href="#d0" x="22" y="182" /><use href="#d0" x="22" y="222" /><use href="#d0" x="22" y="262" /><use href="#d0" x="22" y="302" /><use href="#d0" x="62" y="22" /><use href="#d0" x="62" y="62" /><use href="#d0" x="62" y="102" /><use href="#d0" x="62" y="142" /><use href="#d0" x="62" y="182" /><use href="#d0" x="62" y="222" /><use href="#d0" x="62" y="262" /><use href="#d0" x="62" y="302" /><use href="#d0" x="102" y="22" /><use href="#d0" x="102" y="62" /><use href="#d0" x="102" y="102" /><use href="#d0" x="102" y="142" /><use href="#d0" x="102" y="182" /><use href="#d0" x="102" y="222" /><use href="#d0" x="102" y="262" /><use href="#d0" x="102" y="302" /><use href="#d0" x="142" y="22" /><use href="#d0" x="142" y="62" /><use href="#d0" x="142" y="102" /><use href="#d0" x="142" y="142" /><use href="#d0" x="142" y="182" /><use href="#d0" x="142" y="222" /><use href="#d0" x="142" y="262" /><use href="#d0" x="142" y="302" /><g transform="translate(182,22)"><use href="#b0" /><polygon points="36,0 36,36 0,0" fill="#2962ff"><animate attributeType="XML" attributeName="fill" values="#2962ff;#9500ff;#2962ff;#2962ff" dur="1s" begin="aa.begin +2s" repeatCount="indefinite"/></polygon></g><g transform="translate(182,62)"><use href="#b0" /><polygon points="36,0 36,36 0,0" fill="#2962ff"><animate attributeType="XML" attributeName="fill" values="#2962ff;#9500ff;#2962ff;#2962ff" dur="1s" begin="aa.begin +s" repeatCount="indefinite"/></polygon></g><use href="#d0" x="182" y="102" /><use href="#d0" x="182" y="142" /><use href="#d0" x="182" y="182" /><use href="#d0" x="182" y="222" /><use href="#d0" x="182" y="262" /><g transform="translate(182,302)"><use href="#b0" /><polygon points="36,0 36,36 0,0" fill="#2962ff"><animate attributeType="XML" attributeName="fill" values="#2962ff;#9500ff;#2962ff;#2962ff" dur="1s" begin="aa.begin +2.5s" repeatCount="indefinite"/></polygon></g><g transform="translate(222,22)"><use href="#p0" /><polygon points="36,0 36,36 0,0" fill="#ff8c00"><animate attributeType="XML" attributeName="fill" values="#ff8c00;#ff0059;#ff8c00;#ff8c00" dur="1s" begin="aa.begin +3s" repeatCount="indefinite"/></polygon></g><g transform="translate(222,62)"><use href="#p0" /><polygon points="36,0 36,36 0,0" fill="#ff8c00"><animate attributeType="XML" attributeName="fill" values="#ff8c00;#ff0059;#ff8c00;#ff8c00" dur="1s" begin="aa.begin +3.5s" repeatCount="indefinite"/></polygon></g><g transform="translate(222,102)"><use href="#b0" /><polygon points="36,0 36,36 0,0" fill="#2962ff"><animate attributeType="XML" attributeName="fill" values="#2962ff;#9500ff;#2962ff;#2962ff" dur="1s" begin="aa.begin +4s" repeatCount="indefinite"/></polygon></g><use href="#d0" x="222" y="142" /><use href="#d0" x="222" y="182" /><use href="#d0" x="222" y="222" /><g transform="translate(222,262)"><use href="#b0" /><polygon points="36,0 36,36 0,0" fill="#2962ff"><animate attributeType="XML" attributeName="fill" values="#2962ff;#9500ff;#2962ff;#2962ff" dur="1s" begin="aa.begin +4.5s" repeatCount="indefinite"/></polygon></g><g transform="translate(222,302)"><use href="#p0" /><polygon points="36,0 36,36 0,0" fill="#ff8c00"><animate attributeType="XML" attributeName="fill" values="#ff8c00;#ff0059;#ff8c00;#ff8c00" dur="1s" begin="aa.begin +5s" repeatCount="indefinite"/></polygon></g><use href="#d0" x="262" y="22" /><use href="#l0" x="262" y="62" /><use href="#l0" x="262" y="102" /><use href="#d0" x="262" y="142" /><use href="#d0" x="262" y="182" /><use href="#d0" x="262" y="222" /><g transform="translate(262,262)"><use href="#p0" /><polygon points="36,0 36,36 0,0" fill="#ff8c00"><animate attributeType="XML" attributeName="fill" values="#ff8c00;#ff0059;#ff8c00;#ff8c00" dur="1s" begin="aa.begin +5.5s" repeatCount="indefinite"/></polygon></g><use href="#d0" x="262" y="302" /><use href="#d0" x="302" y="22" /><use href="#d0" x="302" y="62" /><use href="#d0" x="302" y="102" /><use href="#d0" x="302" y="142" /><use href="#d0" x="302" y="182" /><use href="#d0" x="302" y="222" /><use href="#d0" x="302" y="262" /><use href="#d0" x="302" y="302" /></svg>