<svg width="360" height="360" xmlns="http://www.w3.org/2000/svg"><defs><animate id="aa" begin="0s"/><rect id="l0" width="36" height="36" fill="#1E62AB"></rect><circle id="d0" r="18" fill="#423E37"></circle></defs><rect width="100%" height="100%" fill="#34287E" /><use href="#l0" x="22" y="22" /><use href="#d0" x="40" y="80" /><g transform="translate(22,102)"><use href="#b0" /><polygon points="0,0 0,36 36,36 36,0" fill="#469D45"><animate attributeType="XML" attributeName="fill" values="#469D45;#1E62AB;#469D45;#469D45" dur="3s" begin="aa.begin +1s" repeatCount="indefinite"/></polygon></g><use href="#d0" x="40" y="160" /><use href="#l0" x="22" y="182" /><use href="#l0" x="22" y="222" /><use href="#d0" x="40" y="280" /><use href="#l0" x="22" y="302" /><use href="#d0" x="80" y="40" /><g transform="translate(80,80)"><use href="#p0" /><circle r="18" fill="#C7381D"><animate attributeType="XML" attributeName="fill" values="#C7381D;#423E37;#C7381D;#C7381D" dur="3s" begin="aa.begin +1.5s" repeatCount="indefinite"/></circle></g><use href="#l0" x="62" y="102" /><g transform="translate(80,160)"><use href="#p0" /><circle r="18" fill="#C7381D"><animate attributeType="XML" attributeName="fill" values="#C7381D;#423E37;#C7381D;#C7381D" dur="3s" begin="aa.begin +2s" repeatCount="indefinite"/></circle></g><use href="#d0" x="80" y="200" /><use href="#d0" x="80" y="240" /><use href="#d0" x="80" y="280" /><use href="#d0" x="80" y="320" /><use href="#l0" x="102" y="22" /><g transform="translate(102,62)"><use href="#b0" /><polygon points="0,0 0,36 36,36 36,0" fill="#469D45"><animate attributeType="XML" attributeName="fill" values="#469D45;#1E62AB;#469D45;#469D45" dur="3s" begin="aa.begin +s" repeatCount="indefinite"/></polygon></g><use href="#d0" x="120" y="120" /><use href="#d0" x="120" y="160" /><g transform="translate(120,200)"><use href="#p0" /><circle r="18" fill="#C7381D"><animate attributeType="XML" attributeName="fill" values="#C7381D;#423E37;#C7381D;#C7381D" dur="3s" begin="aa.begin +2.5s" repeatCount="indefinite"/></circle></g><g transform="translate(120,240)"><use href="#p0" /><circle r="18" fill="#C7381D"><animate attributeType="XML" attributeName="fill" values="#C7381D;#423E37;#C7381D;#C7381D" dur="3s" begin="aa.begin +3s" repeatCount="indefinite"/></circle></g><g transform="translate(120,280)"><use href="#p0" /><circle r="18" fill="#C7381D"><animate attributeType="XML" attributeName="fill" values="#C7381D;#423E37;#C7381D;#C7381D" dur="3s" begin="aa.begin +3.5s" repeatCount="indefinite"/></circle></g><use href="#l0" x="102" y="302" /><g transform="translate(160,40)"><use href="#p0" /><circle r="18" fill="#C7381D"><animate attributeType="XML" attributeName="fill" values="#C7381D;#423E37;#C7381D;#C7381D" dur="3s" begin="aa.begin +4s" repeatCount="indefinite"/></circle></g><g transform="translate(142,62)"><use href="#b0" /><polygon points="0,0 0,36 36,36 36,0" fill="#469D45"><animate attributeType="XML" attributeName="fill" values="#469D45;#1E62AB;#469D45;#469D45" dur="3s" begin="aa.begin +4.5s" repeatCount="indefinite"/></polygon></g><g transform="translate(142,102)"><use href="#b0" /><polygon points="0,0 0,36 36,36 36,0" fill="#469D45"><animate attributeType="XML" attributeName="fill" values="#469D45;#1E62AB;#469D45;#469D45" dur="3s" begin="aa.begin +5s" repeatCount="indefinite"/></polygon></g><g transform="translate(142,142)"><use href="#b0" /><polygon points="0,0 0,36 36,36 36,0" fill="#469D45"><animate attributeType="XML" attributeName="fill" values="#469D45;#1E62AB;#469D45;#469D45" dur="3s" begin="aa.begin +5.5s" repeatCount="indefinite"/></polygon></g><use href="#d0" x="160" y="200" /><g transform="translate(142,222)"><use href="#b0" /><polygon points="0,0 0,36 36,36 36,0" fill="#469D45"><animate attributeType="XML" attributeName="fill" values="#469D45;#1E62AB;#469D45;#469D45" dur="3s" begin="aa.begin +6s" repeatCount="indefinite"/></polygon></g><use href="#d0" x="160" y="280" /><use href="#d0" x="160" y="320" /><g transform="translate(200,40)"><use href="#p0" /><circle r="18" fill="#C7381D"><animate attributeType="XML" attributeName="fill" values="#C7381D;#423E37;#C7381D;#C7381D" dur="3s" begin="aa.begin +6.5s" repeatCount="indefinite"/></circle></g><g transform="translate(182,62)"><use href="#b0" /><polygon points="0,0 0,36 36,36 36,0" fill="#469D45"><animate attributeType="XML" attributeName="fill" values="#469D45;#1E62AB;#469D45;#469D45" dur="3s" begin="aa.begin +7s" repeatCount="indefinite"/></polygon></g><use href="#d0" x="200" y="120" /><g transform="translate(200,160)"><use href="#p0" /><circle r="18" fill="#C7381D"><animate attributeType="XML" attributeName="fill" values="#C7381D;#423E37;#C7381D;#C7381D" dur="3s" begin="aa.begin +7.5s" repeatCount="indefinite"/></circle></g><g transform="translate(200,200)"><use href="#p0" /><circle r="18" fill="#C7381D"><animate attributeType="XML" attributeName="fill" values="#C7381D;#423E37;#C7381D;#C7381D" dur="3s" begin="aa.begin +8s" repeatCount="indefinite"/></circle></g><g transform="translate(200,240)"><use href="#p0" /><circle r="18" fill="#C7381D"><animate attributeType="XML" attributeName="fill" values="#C7381D;#423E37;#C7381D;#C7381D" dur="3s" begin="aa.begin +8.5s" repeatCount="indefinite"/></circle></g><use href="#l0" x="182" y="262" /><use href="#d0" x="200" y="320" /><use href="#d0" x="240" y="40" /><use href="#d0" x="240" y="80" /><g transform="translate(240,120)"><use href="#p0" /><circle r="18" fill="#C7381D"><animate attributeType="XML" attributeName="fill" values="#C7381D;#423E37;#C7381D;#C7381D" dur="3s" begin="aa.begin +9s" repeatCount="indefinite"/></circle></g><use href="#d0" x="240" y="160" /><g transform="translate(240,200)"><use href="#p0" /><circle r="18" fill="#C7381D"><animate attributeType="XML" attributeName="fill" values="#C7381D;#423E37;#C7381D;#C7381D" dur="3s" begin="aa.begin +9.5s" repeatCount="indefinite"/></circle></g><use href="#d0" x="240" y="240" /><g transform="translate(240,280)"><use href="#p0" /><circle r="18" fill="#C7381D"><animate attributeType="XML" attributeName="fill" values="#C7381D;#423E37;#C7381D;#C7381D" dur="3s" begin="aa.begin +10s" repeatCount="indefinite"/></circle></g><g transform="translate(222,302)"><use href="#b0" /><polygon points="0,0 0,36 36,36 36,0" fill="#469D45"><animate attributeType="XML" attributeName="fill" values="#469D45;#1E62AB;#469D45;#469D45" dur="3s" begin="aa.begin +10.5s" repeatCount="indefinite"/></polygon></g><g transform="translate(262,22)"><use href="#b0" /><polygon points="0,0 0,36 36,36 36,0" fill="#469D45"><animate attributeType="XML" attributeName="fill" values="#469D45;#1E62AB;#469D45;#469D45" dur="3s" begin="aa.begin +11s" repeatCount="indefinite"/></polygon></g><use href="#d0" x="280" y="80" /><use href="#d0" x="280" y="120" /><use href="#d0" x="280" y="160" /><use href="#d0" x="280" y="200" /><use href="#l0" x="262" y="222" /><use href="#l0" x="262" y="262" /><g transform="translate(280,320)"><use href="#p0" /><circle r="18" fill="#C7381D"><animate attributeType="XML" attributeName="fill" values="#C7381D;#423E37;#C7381D;#C7381D" dur="3s" begin="aa.begin +s" repeatCount="indefinite"/></circle></g><use href="#l0" x="302" y="22" /><use href="#d0" x="320" y="80" /><use href="#d0" x="320" y="120" /><g transform="translate(302,142)"><use href="#b0" /><polygon points="0,0 0,36 36,36 36,0" fill="#469D45"><animate attributeType="XML" attributeName="fill" values="#469D45;#1E62AB;#469D45;#469D45" dur="3s" begin="aa.begin +s" repeatCount="indefinite"/></polygon></g><g transform="translate(320,200)"><use href="#p0" /><circle r="18" fill="#C7381D"><animate attributeType="XML" attributeName="fill" values="#C7381D;#423E37;#C7381D;#C7381D" dur="3s" begin="aa.begin +s" repeatCount="indefinite"/></circle></g><use href="#d0" x="320" y="240" /><use href="#d0" x="320" y="280" /><use href="#d0" x="320" y="320" /></svg>