<svg width="360" height="360" xmlns="http://www.w3.org/2000/svg"><defs><animate id="aa" begin="0s"/><rect id="d0" width="36" height="36" fill="#B9D6F2"></rect><circle id="l0" r="18" fill="#003559"></circle></defs><rect width="100%" height="100%" fill="#061A40" /><use href="#l0" x="40" y="40" /><g transform="translate(22,62)"><use href="#p0" /><polygon points="0,0 0,36 36,36 36,0" fill="#BFD7EA"><animate attributeType="XML" attributeName="fill" values="#BFD7EA;#B9D6F2;#BFD7EA;#BFD7EA" dur="2.0s" repeatCount="indefinite"/></polygon></g><g transform="translate(40,120)"><use href="#b0" /><circle r="18" fill="#006DAA"><animate attributeType="XML" attributeName="fill" values="#006DAA;#003559;#006DAA;#006DAA" dur="2.0s" repeatCount="indefinite"/></circle></g><use href="#d0" x="22" y="142" /><g transform="translate(40,200)"><use href="#b0" /><circle r="18" fill="#006DAA"><animate attributeType="XML" attributeName="fill" values="#006DAA;#003559;#006DAA;#006DAA" dur="2.0s" repeatCount="indefinite"/></circle></g><g transform="translate(22,222)"><use href="#p0" /><polygon points="0,0 0,36 36,36 36,0" fill="#BFD7EA"><animate attributeType="XML" attributeName="fill" values="#BFD7EA;#B9D6F2;#BFD7EA;#BFD7EA" dur="2.0s" repeatCount="indefinite"/></polygon></g><g transform="translate(22,262)"><use href="#p0" /><polygon points="0,0 0,36 36,36 36,0" fill="#BFD7EA"><animate attributeType="XML" attributeName="fill" values="#BFD7EA;#B9D6F2;#BFD7EA;#BFD7EA" dur="2.0s" repeatCount="indefinite"/></polygon></g><use href="#d0" x="22" y="302" /><g transform="translate(80,40)"><use href="#b0" /><circle r="18" fill="#006DAA"><animate attributeType="XML" attributeName="fill" values="#006DAA;#003559;#006DAA;#006DAA" dur="2.0s" repeatCount="indefinite"/></circle></g><g transform="translate(62,62)"><use href="#p0" /><polygon points="0,0 0,36 36,36 36,0" fill="#BFD7EA"><animate attributeType="XML" attributeName="fill" values="#BFD7EA;#B9D6F2;#BFD7EA;#BFD7EA" dur="2.1s" repeatCount="indefinite"/></polygon></g><g transform="translate(62,102)"><use href="#p0" /><polygon points="0,0 0,36 36,36 36,0" fill="#BFD7EA"><animate attributeType="XML" attributeName="fill" values="#BFD7EA;#B9D6F2;#BFD7EA;#BFD7EA" dur="2.2s" repeatCount="indefinite"/></polygon></g><use href="#d0" x="62" y="142" /><use href="#l0" x="80" y="200" /><use href="#d0" x="62" y="222" /><use href="#d0" x="62" y="262" /><use href="#d0" x="62" y="302" /><g transform="translate(120,40)"><use href="#b0" /><circle r="18" fill="#006DAA"><animate attributeType="XML" attributeName="fill" values="#006DAA;#003559;#006DAA;#006DAA" dur="2.0s" repeatCount="indefinite"/></circle></g><use href="#d0" x="102" y="62" /><use href="#d0" x="102" y="102" /><g transform="translate(120,160)"><use href="#b0" /><circle r="18" fill="#006DAA"><animate attributeType="XML" attributeName="fill" values="#006DAA;#003559;#006DAA;#006DAA" dur="2.6s" repeatCount="indefinite"/></circle></g><use href="#l0" x="120" y="200" /><use href="#d0" x="102" y="222" /><use href="#l0" x="120" y="280" /><g transform="translate(102,302)"><use href="#p0" /><polygon points="0,0 0,36 36,36 36,0" fill="#BFD7EA"><animate attributeType="XML" attributeName="fill" values="#BFD7EA;#B9D6F2;#BFD7EA;#BFD7EA" dur="2.4s" repeatCount="indefinite"/></polygon></g><use href="#d0" x="142" y="22" /><use href="#d0" x="142" y="62" /><use href="#d0" x="142" y="102" /><use href="#l0" x="160" y="160" /><use href="#d0" x="142" y="182" /><use href="#d0" x="142" y="222" /><use href="#l0" x="160" y="280" /><use href="#l0" x="160" y="320" /><use href="#d0" x="182" y="22" /><g transform="translate(200,80)"><use href="#b0" /><circle r="18" fill="#006DAA"><animate attributeType="XML" attributeName="fill" values="#006DAA;#003559;#006DAA;#006DAA" dur="2.4s" repeatCount="indefinite"/></circle></g><use href="#d0" x="182" y="102" /><use href="#d0" x="182" y="142" /><g transform="translate(200,200)"><use href="#b0" /><circle r="18" fill="#006DAA"><animate attributeType="XML" attributeName="fill" values="#006DAA;#003559;#006DAA;#006DAA" dur="2.6s" repeatCount="indefinite"/></circle></g><use href="#l0" x="200" y="240" /><use href="#d0" x="182" y="262" /><use href="#d0" x="182" y="302" /><g transform="translate(222,22)"><use href="#p0" /><polygon points="0,0 0,36 36,36 36,0" fill="#BFD7EA"><animate attributeType="XML" attributeName="fill" values="#BFD7EA;#B9D6F2;#BFD7EA;#BFD7EA" dur="2.0s" repeatCount="indefinite"/></polygon></g><g transform="translate(222,62)"><use href="#p0" /><polygon points="0,0 0,36 36,36 36,0" fill="#BFD7EA"><animate attributeType="XML" attributeName="fill" values="#BFD7EA;#B9D6F2;#BFD7EA;#BFD7EA" dur="2.5s" repeatCount="indefinite"/></polygon></g><use href="#l0" x="240" y="120" /><g transform="translate(240,160)"><use href="#b0" /><circle r="18" fill="#006DAA"><animate attributeType="XML" attributeName="fill" values="#006DAA;#003559;#006DAA;#006DAA" dur="2.5s" repeatCount="indefinite"/></circle></g><use href="#d0" x="222" y="182" /><use href="#l0" x="240" y="240" /><use href="#d0" x="222" y="262" /><use href="#l0" x="240" y="320" /><g transform="translate(280,40)"><use href="#b0" /><circle r="18" fill="#006DAA"><animate attributeType="XML" attributeName="fill" values="#006DAA;#003559;#006DAA;#006DAA" dur="2.0s" repeatCount="indefinite"/></circle></g><g transform="translate(262,62)"><use href="#p0" /><polygon points="0,0 0,36 36,36 36,0" fill="#BFD7EA"><animate attributeType="XML" attributeName="fill" values="#BFD7EA;#B9D6F2;#BFD7EA;#BFD7EA" dur="2.6s" repeatCount="indefinite"/></polygon></g><use href="#l0" x="280" y="120" /><use href="#d0" x="262" y="142" /><g transform="translate(280,200)"><use href="#b0" /><circle r="18" fill="#006DAA"><animate attributeType="XML" attributeName="fill" values="#006DAA;#003559;#006DAA;#006DAA" dur="2.4s" repeatCount="indefinite"/></circle></g><use href="#d0" x="262" y="222" /><g transform="translate(262,262)"><use href="#p0" /><polygon points="0,0 0,36 36,36 36,0" fill="#BFD7EA"><animate attributeType="XML" attributeName="fill" values="#BFD7EA;#B9D6F2;#BFD7EA;#BFD7EA" dur="2.6s" repeatCount="indefinite"/></polygon></g><use href="#l0" x="280" y="320" /><g transform="translate(320,40)"><use href="#b0" /><circle r="18" fill="#006DAA"><animate attributeType="XML" attributeName="fill" values="#006DAA;#003559;#006DAA;#006DAA" dur="2.0s" repeatCount="indefinite"/></circle></g><use href="#d0" x="302" y="62" /><use href="#l0" x="320" y="120" /><use href="#d0" x="302" y="142" /><g transform="translate(320,200)"><use href="#b0" /><circle r="18" fill="#006DAA"><animate attributeType="XML" attributeName="fill" values="#006DAA;#003559;#006DAA;#006DAA" dur="2.8s" repeatCount="indefinite"/></circle></g><use href="#l0" x="320" y="240" /><use href="#d0" x="302" y="262" /><use href="#d0" x="302" y="302" /></svg>