<svg width="360" height="360" xmlns="http://www.w3.org/2000/svg"><defs><animate id="aa" begin="0s"/><rect id="l0" width="36" height="36" fill="#EE9B00"></rect><rect id="d0" width="36" height="36" fill="#001219"></rect></defs><rect width="100%" height="100%" fill="#005F73" /><use href="#d0" x="22" y="22" /><use href="#l0" x="22" y="62" /><use href="#d0" x="22" y="102" /><use href="#l0" x="22" y="142" /><use href="#d0" x="22" y="182" /><g transform="translate(22,222)"><use href="#b0" /><polygon points="0,0 0,36 36,36 36,0" fill="#0A9396"><animate attributeType="XML" attributeName="fill" values="#0A9396;#EE9B00;#0A9396;#0A9396" dur="0.0s" repeatCount="indefinite"/></polygon></g><use href="#d0" x="22" y="262" /><g transform="translate(22,302)"><use href="#p0" /><polygon points="0,0 0,36 36,36 36,0" fill="#AE2012"><animate attributeType="XML" attributeName="fill" values="#AE2012;#001219;#AE2012;#AE2012" dur="0.0s" repeatCount="indefinite"/></polygon></g><use href="#l0" x="62" y="22" /><use href="#l0" x="62" y="62" /><use href="#d0" x="62" y="102" /><use href="#l0" x="62" y="142" /><g transform="translate(62,182)"><use href="#p0" /><polygon points="0,0 0,36 36,36 36,0" fill="#AE2012"><animate attributeType="XML" attributeName="fill" values="#AE2012;#001219;#AE2012;#AE2012" dur="0.4s" repeatCount="indefinite"/></polygon></g><use href="#l0" x="62" y="222" /><use href="#l0" x="62" y="262" /><use href="#d0" x="62" y="302" /><use href="#d0" x="102" y="22" /><use href="#d0" x="102" y="62" /><use href="#d0" x="102" y="102" /><use href="#l0" x="102" y="142" /><use href="#d0" x="102" y="182" /><use href="#d0" x="102" y="222" /><g transform="translate(102,262)"><use href="#b0" /><polygon points="0,0 0,36 36,36 36,0" fill="#0A9396"><animate attributeType="XML" attributeName="fill" values="#0A9396;#EE9B00;#0A9396;#0A9396" dur="0.2s" repeatCount="indefinite"/></polygon></g><use href="#d0" x="102" y="302" /><g transform="translate(142,22)"><use href="#p0" /><polygon points="0,0 0,36 36,36 36,0" fill="#AE2012"><animate attributeType="XML" attributeName="fill" values="#AE2012;#001219;#AE2012;#AE2012" dur="0.0s" repeatCount="indefinite"/></polygon></g><use href="#l0" x="142" y="62" /><use href="#l0" x="142" y="102" /><use href="#d0" x="142" y="142" /><use href="#l0" x="142" y="182" /><use href="#l0" x="142" y="222" /><use href="#d0" x="142" y="262" /><use href="#d0" x="142" y="302" /><g transform="translate(182,22)"><use href="#b0" /><polygon points="0,0 0,36 36,36 36,0" fill="#0A9396"><animate attributeType="XML" attributeName="fill" values="#0A9396;#EE9B00;#0A9396;#0A9396" dur="0.0s" repeatCount="indefinite"/></polygon></g><use href="#d0" x="182" y="62" /><use href="#l0" x="182" y="102" /><use href="#d0" x="182" y="142" /><use href="#l0" x="182" y="182" /><use href="#d0" x="182" y="222" /><use href="#d0" x="182" y="262" /><use href="#d0" x="182" y="302" /><use href="#l0" x="222" y="22" /><use href="#d0" x="222" y="62" /><use href="#l0" x="222" y="102" /><use href="#d0" x="222" y="142" /><use href="#d0" x="222" y="182" /><use href="#l0" x="222" y="222" /><use href="#l0" x="222" y="262" /><g transform="translate(222,302)"><use href="#p0" /><polygon points="0,0 0,36 36,36 36,0" fill="#AE2012"><animate attributeType="XML" attributeName="fill" values="#AE2012;#001219;#AE2012;#AE2012" dur="0.5s" repeatCount="indefinite"/></polygon></g><use href="#l0" x="262" y="22" /><use href="#d0" x="262" y="62" /><use href="#l0" x="262" y="102" /><use href="#l0" x="262" y="142" /><use href="#d0" x="262" y="182" /><use href="#l0" x="262" y="222" /><use href="#d0" x="262" y="262" /><use href="#d0" x="262" y="302" /><use href="#l0" x="302" y="22" /><use href="#d0" x="302" y="62" /><use href="#d0" x="302" y="102" /><use href="#l0" x="302" y="142" /><use href="#d0" x="302" y="182" /><use href="#d0" x="302" y="222" /><g transform="translate(302,262)"><use href="#b0" /><polygon points="0,0 0,36 36,36 36,0" fill="#0A9396"><animate attributeType="XML" attributeName="fill" values="#0A9396;#EE9B00;#0A9396;#0A9396" dur="0.2s" repeatCount="indefinite"/></polygon></g><use href="#l0" x="302" y="302" /></svg>