<svg width="360" height="360" xmlns="http://www.w3.org/2000/svg"><defs><animate id="aa" begin="0s"/><rect id="l0" width="36" height="36" fill="#ED254E"></rect><rect id="d0" width="36" height="36" fill="#ef4043"></rect></defs><rect width="100%" height="100%" fill="#FF3C38" /><g transform="translate(22,22)"><use href="#p0" /><polygon points="0,0 0,36 36,36 36,0" fill="#C7381D"><animate attributeType="XML" attributeName="fill" values="#C7381D;#ef4043;#C7381D;#C7381D" dur="3s" begin="aa.begin +1s" repeatCount="indefinite"/></polygon></g><use href="#d0" x="22" y="62" /><g transform="translate(22,102)"><use href="#p0" /><polygon points="0,0 0,36 36,36 36,0" fill="#C7381D"><animate attributeType="XML" attributeName="fill" values="#C7381D;#ef4043;#C7381D;#C7381D" dur="3s" begin="aa.begin +1.5s" repeatCount="indefinite"/></polygon></g><g transform="translate(22,142)"><use href="#b0" /><polygon points="0,0 0,36 36,36 36,0" fill="#ff0059"><animate attributeType="XML" attributeName="fill" values="#ff0059;#ED254E;#ff0059;#ff0059" dur="3s" begin="aa.begin +2s" repeatCount="indefinite"/></polygon></g><use href="#l0" x="22" y="182" /><use href="#d0" x="22" y="222" /><use href="#d0" x="22" y="262" /><use href="#d0" x="22" y="302" /><g transform="translate(62,22)"><use href="#b0" /><polygon points="0,0 0,36 36,36 36,0" fill="#ff0059"><animate attributeType="XML" attributeName="fill" values="#ff0059;#ED254E;#ff0059;#ff0059" dur="3s" begin="aa.begin +s" repeatCount="indefinite"/></polygon></g><use href="#d0" x="62" y="62" /><use href="#d0" x="62" y="102" /><use href="#d0" x="62" y="142" /><g transform="translate(62,182)"><use href="#p0" /><polygon points="0,0 0,36 36,36 36,0" fill="#C7381D"><animate attributeType="XML" attributeName="fill" values="#C7381D;#ef4043;#C7381D;#C7381D" dur="3s" begin="aa.begin +2.5s" repeatCount="indefinite"/></polygon></g><g transform="translate(62,222)"><use href="#b0" /><polygon points="0,0 0,36 36,36 36,0" fill="#ff0059"><animate attributeType="XML" attributeName="fill" values="#ff0059;#ED254E;#ff0059;#ff0059" dur="3s" begin="aa.begin +3s" repeatCount="indefinite"/></polygon></g><g transform="translate(62,262)"><use href="#b0" /><polygon points="0,0 0,36 36,36 36,0" fill="#ff0059"><animate attributeType="XML" attributeName="fill" values="#ff0059;#ED254E;#ff0059;#ff0059" dur="3s" begin="aa.begin +3.5s" repeatCount="indefinite"/></polygon></g><use href="#d0" x="62" y="302" /><use href="#l0" x="102" y="22" /><use href="#l0" x="102" y="62" /><use href="#l0" x="102" y="102" /><use href="#l0" x="102" y="142" /><use href="#l0" x="102" y="182" /><use href="#l0" x="102" y="222" /><use href="#d0" x="102" y="262" /><use href="#l0" x="102" y="302" /><use href="#d0" x="142" y="22" /><use href="#d0" x="142" y="62" /><use href="#d0" x="142" y="102" /><g transform="translate(142,142)"><use href="#b0" /><polygon points="0,0 0,36 36,36 36,0" fill="#ff0059"><animate attributeType="XML" attributeName="fill" values="#ff0059;#ED254E;#ff0059;#ff0059" dur="3s" begin="aa.begin +4s" repeatCount="indefinite"/></polygon></g><use href="#d0" x="142" y="182" /><g transform="translate(142,222)"><use href="#b0" /><polygon points="0,0 0,36 36,36 36,0" fill="#ff0059"><animate attributeType="XML" attributeName="fill" values="#ff0059;#ED254E;#ff0059;#ff0059" dur="3s" begin="aa.begin +4.5s" repeatCount="indefinite"/></polygon></g><use href="#d0" x="142" y="262" /><use href="#d0" x="142" y="302" /><use href="#l0" x="182" y="22" /><use href="#l0" x="182" y="62" /><g transform="translate(182,102)"><use href="#b0" /><polygon points="0,0 0,36 36,36 36,0" fill="#ff0059"><animate attributeType="XML" attributeName="fill" values="#ff0059;#ED254E;#ff0059;#ff0059" dur="3s" begin="aa.begin +5s" repeatCount="indefinite"/></polygon></g><use href="#d0" x="182" y="142" /><g transform="translate(182,182)"><use href="#b0" /><polygon points="0,0 0,36 36,36 36,0" fill="#ff0059"><animate attributeType="XML" attributeName="fill" values="#ff0059;#ED254E;#ff0059;#ff0059" dur="3s" begin="aa.begin +5.5s" repeatCount="indefinite"/></polygon></g><use href="#d0" x="182" y="222" /><use href="#l0" x="182" y="262" /><use href="#l0" x="182" y="302" /><use href="#d0" x="222" y="22" /><use href="#d0" x="222" y="62" /><g transform="translate(222,102)"><use href="#p0" /><polygon points="0,0 0,36 36,36 36,0" fill="#C7381D"><animate attributeType="XML" attributeName="fill" values="#C7381D;#ef4043;#C7381D;#C7381D" dur="3s" begin="aa.begin +6s" repeatCount="indefinite"/></polygon></g><use href="#d0" x="222" y="142" /><use href="#l0" x="222" y="182" /><use href="#d0" x="222" y="222" /><g transform="translate(222,262)"><use href="#b0" /><polygon points="0,0 0,36 36,36 36,0" fill="#ff0059"><animate attributeType="XML" attributeName="fill" values="#ff0059;#ED254E;#ff0059;#ff0059" dur="3s" begin="aa.begin +6.5s" repeatCount="indefinite"/></polygon></g><use href="#d0" x="222" y="302" /><use href="#l0" x="262" y="22" /><use href="#l0" x="262" y="62" /><use href="#l0" x="262" y="102" /><use href="#d0" x="262" y="142" /><use href="#l0" x="262" y="182" /><use href="#d0" x="262" y="222" /><use href="#d0" x="262" y="262" /><use href="#l0" x="262" y="302" /><g transform="translate(302,22)"><use href="#b0" /><polygon points="0,0 0,36 36,36 36,0" fill="#ff0059"><animate attributeType="XML" attributeName="fill" values="#ff0059;#ED254E;#ff0059;#ff0059" dur="3s" begin="aa.begin +7s" repeatCount="indefinite"/></polygon></g><use href="#d0" x="302" y="62" /><use href="#l0" x="302" y="102" /><use href="#d0" x="302" y="142" /><use href="#d0" x="302" y="182" /><use href="#l0" x="302" y="222" /><use href="#l0" x="302" y="262" /><use href="#d0" x="302" y="302" /></svg>