<svg width="360" height="360" xmlns="http://www.w3.org/2000/svg"><defs><animate id="aa" begin="0s"/><rect id="d0" width="36" height="36" fill="#fdc500"></rect><circle id="l0" r="18" fill="#3d0066"></circle></defs><rect width="100%" height="100%" fill="#ffee32" /><use href="#d0" x="22" y="22" /><use href="#d0" x="22" y="62" /><g transform="translate(22,102)"><use href="#p0" /><polygon points="0,0 0,36 36,36 36,0" fill="#ffd500"><animate attributeType="XML" attributeName="fill" values="#ffd500;#fdc500;#ffd500;#ffd500" dur="3s" begin="aa.begin +1s" repeatCount="indefinite"/></polygon></g><use href="#d0" x="22" y="142" /><use href="#l0" x="40" y="200" /><use href="#d0" x="22" y="222" /><g transform="translate(22,262)"><use href="#p0" /><polygon points="0,0 0,36 36,36 36,0" fill="#ffd500"><animate attributeType="XML" attributeName="fill" values="#ffd500;#fdc500;#ffd500;#ffd500" dur="3s" begin="aa.begin +1.5s" repeatCount="indefinite"/></polygon></g><use href="#d0" x="22" y="302" /><use href="#d0" x="62" y="22" /><use href="#l0" x="80" y="80" /><g transform="translate(62,102)"><use href="#p0" /><polygon points="0,0 0,36 36,36 36,0" fill="#ffd500"><animate attributeType="XML" attributeName="fill" values="#ffd500;#fdc500;#ffd500;#ffd500" dur="3s" begin="aa.begin +2s" repeatCount="indefinite"/></polygon></g><g transform="translate(80,160)"><use href="#b0" /><circle r="18" fill="#5c0099"><animate attributeType="XML" attributeName="fill" values="#5c0099;#3d0066;#5c0099;#5c0099" dur="3s" begin="aa.begin +s" repeatCount="indefinite"/></circle></g><use href="#l0" x="80" y="200" /><use href="#d0" x="62" y="222" /><g transform="translate(62,262)"><use href="#p0" /><polygon points="0,0 0,36 36,36 36,0" fill="#ffd500"><animate attributeType="XML" attributeName="fill" values="#ffd500;#fdc500;#ffd500;#ffd500" dur="3s" begin="aa.begin +2.5s" repeatCount="indefinite"/></polygon></g><use href="#d0" x="62" y="302" /><use href="#l0" x="120" y="40" /><use href="#d0" x="102" y="62" /><g transform="translate(120,120)"><use href="#b0" /><circle r="18" fill="#5c0099"><animate attributeType="XML" attributeName="fill" values="#5c0099;#3d0066;#5c0099;#5c0099" dur="3s" begin="aa.begin +3s" repeatCount="indefinite"/></circle></g><use href="#d0" x="102" y="142" /><use href="#l0" x="120" y="200" /><use href="#d0" x="102" y="222" /><g transform="translate(102,262)"><use href="#p0" /><polygon points="0,0 0,36 36,36 36,0" fill="#ffd500"><animate attributeType="XML" attributeName="fill" values="#ffd500;#fdc500;#ffd500;#ffd500" dur="3s" begin="aa.begin +3.5s" repeatCount="indefinite"/></polygon></g><g transform="translate(120,320)"><use href="#b0" /><circle r="18" fill="#5c0099"><animate attributeType="XML" attributeName="fill" values="#5c0099;#3d0066;#5c0099;#5c0099" dur="3s" begin="aa.begin +4s" repeatCount="indefinite"/></circle></g><g transform="translate(142,22)"><use href="#p0" /><polygon points="0,0 0,36 36,36 36,0" fill="#ffd500"><animate attributeType="XML" attributeName="fill" values="#ffd500;#fdc500;#ffd500;#ffd500" dur="3s" begin="aa.begin +4.5s" repeatCount="indefinite"/></polygon></g><g transform="translate(142,62)"><use href="#p0" /><polygon points="0,0 0,36 36,36 36,0" fill="#ffd500"><animate attributeType="XML" attributeName="fill" values="#ffd500;#fdc500;#ffd500;#ffd500" dur="3s" begin="aa.begin +5s" repeatCount="indefinite"/></polygon></g><use href="#d0" x="142" y="102" /><use href="#d0" x="142" y="142" /><use href="#l0" x="160" y="200" /><use href="#d0" x="142" y="222" /><use href="#l0" x="160" y="280" /><use href="#d0" x="142" y="302" /><g transform="translate(182,22)"><use href="#p0" /><polygon points="0,0 0,36 36,36 36,0" fill="#ffd500"><animate attributeType="XML" attributeName="fill" values="#ffd500;#fdc500;#ffd500;#ffd500" dur="3s" begin="aa.begin +5.5s" repeatCount="indefinite"/></polygon></g><use href="#d0" x="182" y="62" /><g transform="translate(182,102)"><use href="#p0" /><polygon points="0,0 0,36 36,36 36,0" fill="#ffd500"><animate attributeType="XML" attributeName="fill" values="#ffd500;#fdc500;#ffd500;#ffd500" dur="3s" begin="aa.begin +6s" repeatCount="indefinite"/></polygon></g><use href="#d0" x="182" y="142" /><use href="#l0" x="200" y="200" /><use href="#d0" x="182" y="222" /><use href="#l0" x="200" y="280" /><g transform="translate(200,320)"><use href="#b0" /><circle r="18" fill="#5c0099"><animate attributeType="XML" attributeName="fill" values="#5c0099;#3d0066;#5c0099;#5c0099" dur="3s" begin="aa.begin +6.5s" repeatCount="indefinite"/></circle></g><use href="#d0" x="222" y="22" /><use href="#d0" x="222" y="62" /><g transform="translate(222,102)"><use href="#p0" /><polygon points="0,0 0,36 36,36 36,0" fill="#ffd500"><animate attributeType="XML" attributeName="fill" values="#ffd500;#fdc500;#ffd500;#ffd500" dur="3s" begin="aa.begin +7s" repeatCount="indefinite"/></polygon></g><use href="#d0" x="222" y="142" /><use href="#l0" x="240" y="200" /><use href="#d0" x="222" y="222" /><use href="#l0" x="240" y="280" /><g transform="translate(240,320)"><use href="#b0" /><circle r="18" fill="#5c0099"><animate attributeType="XML" attributeName="fill" values="#5c0099;#3d0066;#5c0099;#5c0099" dur="3s" begin="aa.begin +7.5s" repeatCount="indefinite"/></circle></g><use href="#d0" x="262" y="22" /><g transform="translate(280,80)"><use href="#b0" /><circle r="18" fill="#5c0099"><animate attributeType="XML" attributeName="fill" values="#5c0099;#3d0066;#5c0099;#5c0099" dur="3s" begin="aa.begin +8s" repeatCount="indefinite"/></circle></g><use href="#l0" x="280" y="120" /><use href="#d0" x="262" y="142" /><use href="#l0" x="280" y="200" /><use href="#d0" x="262" y="222" /><use href="#d0" x="262" y="262" /><use href="#d0" x="262" y="302" /><use href="#d0" x="302" y="22" /><use href="#l0" x="320" y="80" /><use href="#l0" x="320" y="120" /><use href="#d0" x="302" y="142" /><use href="#l0" x="320" y="200" /><g transform="translate(320,240)"><use href="#b0" /><circle r="18" fill="#5c0099"><animate attributeType="XML" attributeName="fill" values="#5c0099;#3d0066;#5c0099;#5c0099" dur="3s" begin="aa.begin +8.5s" repeatCount="indefinite"/></circle></g><use href="#d0" x="302" y="262" /><use href="#d0" x="302" y="302" /></svg>