<svg width="360" height="360" xmlns="http://www.w3.org/2000/svg"><defs><animate id="aa" begin="0s"/><rect id="d0" width="36" height="36" fill="#FFC6FF"></rect><circle id="l0" r="18" fill="#FDFFB6"></circle></defs><rect width="100%" height="100%" fill="#CAFFBF" /><use href="#d0" x="22" y="22" /><use href="#d0" x="22" y="62" /><use href="#d0" x="22" y="102" /><use href="#d0" x="22" y="142" /><use href="#d0" x="22" y="182" /><use href="#d0" x="22" y="222" /><use href="#d0" x="22" y="262" /><use href="#d0" x="22" y="302" /><use href="#l0" x="80" y="40" /><use href="#l0" x="80" y="80" /><use href="#l0" x="80" y="120" /><use href="#l0" x="80" y="160" /><use href="#d0" x="62" y="182" /><use href="#d0" x="62" y="222" /><use href="#l0" x="80" y="280" /><use href="#l0" x="80" y="320" /><use href="#d0" x="102" y="22" /><use href="#d0" x="102" y="62" /><use href="#d0" x="102" y="102" /><g transform="translate(102,142)"><use href="#p0" /><polygon points="0,0 0,36 36,36 36,0" fill="#A0C4FF"><animate attributeType="XML" attributeName="fill" values="#A0C4FF;#FFC6FF;#A0C4FF;#A0C4FF" dur="0.6s" repeatCount="indefinite"/></polygon></g><g transform="translate(120,200)"><use href="#b0" /><circle r="18" fill="#CAFFBF"><animate attributeType="XML" attributeName="fill" values="#CAFFBF;#FDFFB6;#CAFFBF;#CAFFBF" dur="0.8s" repeatCount="indefinite"/></circle></g><use href="#d0" x="102" y="222" /><use href="#l0" x="120" y="280" /><use href="#d0" x="102" y="302" /><g transform="translate(142,22)"><use href="#p0" /><polygon points="0,0 0,36 36,36 36,0" fill="#A0C4FF"><animate attributeType="XML" attributeName="fill" values="#A0C4FF;#FFC6FF;#A0C4FF;#A0C4FF" dur="0.0s" repeatCount="indefinite"/></polygon></g><g transform="translate(142,62)"><use href="#p0" /><polygon points="0,0 0,36 36,36 36,0" fill="#A0C4FF"><animate attributeType="XML" attributeName="fill" values="#A0C4FF;#FFC6FF;#A0C4FF;#A0C4FF" dur="0.3s" repeatCount="indefinite"/></polygon></g><use href="#d0" x="142" y="102" /><use href="#l0" x="160" y="160" /><use href="#l0" x="160" y="200" /><g transform="translate(160,240)"><use href="#b0" /><circle r="18" fill="#CAFFBF"><animate attributeType="XML" attributeName="fill" values="#CAFFBF;#FDFFB6;#CAFFBF;#CAFFBF" dur="0.5s" repeatCount="indefinite"/></circle></g><use href="#d0" x="142" y="262" /><use href="#l0" x="160" y="320" /><use href="#d0" x="182" y="22" /><g transform="translate(182,62)"><use href="#p0" /><polygon points="0,0 0,36 36,36 36,0" fill="#A0C4FF"><animate attributeType="XML" attributeName="fill" values="#A0C4FF;#FFC6FF;#A0C4FF;#A0C4FF" dur="0.4s" repeatCount="indefinite"/></polygon></g><g transform="translate(200,120)"><use href="#b0" /><circle r="18" fill="#CAFFBF"><animate attributeType="XML" attributeName="fill" values="#CAFFBF;#FDFFB6;#CAFFBF;#CAFFBF" dur="0.8s" repeatCount="indefinite"/></circle></g><use href="#d0" x="182" y="142" /><use href="#d0" x="182" y="182" /><g transform="translate(200,240)"><use href="#b0" /><circle r="18" fill="#CAFFBF"><animate attributeType="XML" attributeName="fill" values="#CAFFBF;#FDFFB6;#CAFFBF;#CAFFBF" dur="0.0s" repeatCount="indefinite"/></circle></g><use href="#d0" x="182" y="262" /><use href="#l0" x="200" y="320" /><g transform="translate(240,40)"><use href="#b0" /><circle r="18" fill="#CAFFBF"><animate attributeType="XML" attributeName="fill" values="#CAFFBF;#FDFFB6;#CAFFBF;#CAFFBF" dur="0.0s" repeatCount="indefinite"/></circle></g><use href="#d0" x="222" y="62" /><use href="#l0" x="240" y="120" /><use href="#l0" x="240" y="160" /><use href="#d0" x="222" y="182" /><use href="#d0" x="222" y="222" /><use href="#l0" x="240" y="280" /><use href="#l0" x="240" y="320" /><use href="#d0" x="262" y="22" /><g transform="translate(262,62)"><use href="#p0" /><polygon points="0,0 0,36 36,36 36,0" fill="#A0C4FF"><animate attributeType="XML" attributeName="fill" values="#A0C4FF;#FFC6FF;#A0C4FF;#A0C4FF" dur="0.6s" repeatCount="indefinite"/></polygon></g><use href="#d0" x="262" y="102" /><use href="#d0" x="262" y="142" /><use href="#d0" x="262" y="182" /><use href="#d0" x="262" y="222" /><use href="#d0" x="262" y="262" /><use href="#d0" x="262" y="302" /><use href="#l0" x="320" y="40" /><use href="#l0" x="320" y="80" /><use href="#l0" x="320" y="120" /><use href="#l0" x="320" y="160" /><use href="#l0" x="320" y="200" /><use href="#l0" x="320" y="240" /><use href="#l0" x="320" y="280" /><use href="#l0" x="320" y="320" /></svg>