<svg width="360" height="360" xmlns="http://www.w3.org/2000/svg"><defs><animate id="aa" begin="0s"/><rect id="l0" width="36" height="36" fill="#F72585"></rect><circle id="d0" r="18" fill="#159F91"></circle></defs><rect width="100%" height="100%" fill="#92F2E8" /><use href="#d0" x="40" y="40" /><use href="#l0" x="22" y="62" /><use href="#l0" x="22" y="102" /><use href="#d0" x="40" y="160" /><use href="#d0" x="40" y="200" /><use href="#d0" x="40" y="240" /><g transform="translate(40,280)"><use href="#p0" /><circle r="18" fill="#1BCCBA"><animate attributeType="XML" attributeName="fill" values="#1BCCBA;#159F91;#1BCCBA;#1BCCBA" dur="1.0s" repeatCount="indefinite"/></circle></g><use href="#d0" x="40" y="320" /><use href="#d0" x="80" y="40" /><use href="#d0" x="80" y="80" /><use href="#d0" x="80" y="120" /><use href="#d0" x="80" y="160" /><use href="#d0" x="80" y="200" /><use href="#d0" x="80" y="240" /><use href="#d0" x="80" y="280" /><use href="#d0" x="80" y="320" /><use href="#d0" x="120" y="40" /><use href="#d0" x="120" y="80" /><use href="#d0" x="120" y="120" /><use href="#d0" x="120" y="160" /><use href="#d0" x="120" y="200" /><use href="#d0" x="120" y="240" /><use href="#d0" x="120" y="280" /><use href="#d0" x="120" y="320" /><use href="#d0" x="160" y="40" /><use href="#d0" x="160" y="80" /><use href="#d0" x="160" y="120" /><use href="#d0" x="160" y="160" /><use href="#d0" x="160" y="200" /><use href="#d0" x="160" y="240" /><use href="#d0" x="160" y="280" /><use href="#d0" x="160" y="320" /><use href="#d0" x="200" y="40" /><use href="#d0" x="200" y="80" /><use href="#d0" x="200" y="120" /><use href="#d0" x="200" y="160" /><use href="#d0" x="200" y="200" /><use href="#d0" x="200" y="240" /><use href="#d0" x="200" y="280" /><use href="#d0" x="200" y="320" /><g transform="translate(222,22)"><use href="#b0" /><polygon points="0,0 0,36 36,36 36,0" fill="#B5179E"><animate attributeType="XML" attributeName="fill" values="#B5179E;#F72585;#B5179E;#B5179E" dur="1.0s" repeatCount="indefinite"/></polygon></g><g transform="translate(222,62)"><use href="#b0" /><polygon points="0,0 0,36 36,36 36,0" fill="#B5179E"><animate attributeType="XML" attributeName="fill" values="#B5179E;#F72585;#B5179E;#B5179E" dur="1.5s" repeatCount="indefinite"/></polygon></g><use href="#d0" x="240" y="120" /><use href="#d0" x="240" y="160" /><use href="#d0" x="240" y="200" /><use href="#d0" x="240" y="240" /><use href="#d0" x="240" y="280" /><g transform="translate(222,302)"><use href="#b0" /><polygon points="0,0 0,36 36,36 36,0" fill="#B5179E"><animate attributeType="XML" attributeName="fill" values="#B5179E;#F72585;#B5179E;#B5179E" dur="1.5s" repeatCount="indefinite"/></polygon></g><g transform="translate(280,40)"><use href="#p0" /><circle r="18" fill="#1BCCBA"><animate attributeType="XML" attributeName="fill" values="#1BCCBA;#159F91;#1BCCBA;#1BCCBA" dur="1.0s" repeatCount="indefinite"/></circle></g><use href="#l0" x="262" y="62" /><g transform="translate(262,102)"><use href="#b0" /><polygon points="0,0 0,36 36,36 36,0" fill="#B5179E"><animate attributeType="XML" attributeName="fill" values="#B5179E;#F72585;#B5179E;#B5179E" dur="1.2s" repeatCount="indefinite"/></polygon></g><use href="#d0" x="280" y="160" /><use href="#d0" x="280" y="200" /><use href="#d0" x="280" y="240" /><g transform="translate(262,262)"><use href="#b0" /><polygon points="0,0 0,36 36,36 36,0" fill="#B5179E"><animate attributeType="XML" attributeName="fill" values="#B5179E;#F72585;#B5179E;#B5179E" dur="1.6s" repeatCount="indefinite"/></polygon></g><g transform="translate(280,320)"><use href="#p0" /><circle r="18" fill="#1BCCBA"><animate attributeType="XML" attributeName="fill" values="#1BCCBA;#159F91;#1BCCBA;#1BCCBA" dur="1.2s" repeatCount="indefinite"/></circle></g><use href="#d0" x="320" y="40" /><use href="#d0" x="320" y="80" /><g transform="translate(320,120)"><use href="#p0" /><circle r="18" fill="#1BCCBA"><animate attributeType="XML" attributeName="fill" values="#1BCCBA;#159F91;#1BCCBA;#1BCCBA" dur="1.4s" repeatCount="indefinite"/></circle></g><use href="#d0" x="320" y="160" /><use href="#d0" x="320" y="200" /><use href="#d0" x="320" y="240" /><g transform="translate(320,280)"><use href="#p0" /><circle r="18" fill="#1BCCBA"><animate attributeType="XML" attributeName="fill" values="#1BCCBA;#159F91;#1BCCBA;#1BCCBA" dur="1.2s" repeatCount="indefinite"/></circle></g><use href="#d0" x="320" y="320" /></svg>