<svg width="360" height="360" xmlns="http://www.w3.org/2000/svg"><defs><animate id="aa" begin="0s"/><circle id="l0" r="18" fill="#f78154"></circle><circle id="d0" r="18" fill="#201335"></circle></defs><rect width="100%" height="100%" fill="#201335" /><use href="#d0" x="40" y="40" /><use href="#d0" x="40" y="80" /><use href="#d0" x="40" y="120" /><use href="#l0" x="40" y="160" /><use href="#l0" x="40" y="200" /><use href="#d0" x="40" y="240" /><g transform="translate(40,280)"><use href="#p0" /><circle r="18" fill="#b4436c"><animate attributeType="XML" attributeName="fill" values="#b4436c;#201335;#b4436c;#b4436c" dur="1.0s" repeatCount="indefinite"/></circle></g><use href="#d0" x="40" y="320" /><use href="#d0" x="80" y="40" /><use href="#d0" x="80" y="80" /><use href="#d0" x="80" y="120" /><use href="#d0" x="80" y="160" /><use href="#d0" x="80" y="200" /><use href="#d0" x="80" y="240" /><use href="#d0" x="80" y="280" /><use href="#d0" x="80" y="320" /><use href="#l0" x="120" y="40" /><g transform="translate(120,80)"><use href="#b0" /><circle r="18" fill="#4d9078"><animate attributeType="XML" attributeName="fill" values="#4d9078;#f78154;#4d9078;#4d9078" dur="1.2s" repeatCount="indefinite"/></circle></g><g transform="translate(120,120)"><use href="#b0" /><circle r="18" fill="#4d9078"><animate attributeType="XML" attributeName="fill" values="#4d9078;#f78154;#4d9078;#4d9078" dur="1.4s" repeatCount="indefinite"/></circle></g><use href="#d0" x="120" y="160" /><use href="#d0" x="120" y="200" /><use href="#d0" x="120" y="240" /><use href="#d0" x="120" y="280" /><use href="#l0" x="120" y="320" /><use href="#d0" x="160" y="40" /><g transform="translate(160,80)"><use href="#p0" /><circle r="18" fill="#b4436c"><animate attributeType="XML" attributeName="fill" values="#b4436c;#201335;#b4436c;#b4436c" dur="1.3s" repeatCount="indefinite"/></circle></g><use href="#l0" x="160" y="120" /><g transform="translate(160,160)"><use href="#b0" /><circle r="18" fill="#4d9078"><animate attributeType="XML" attributeName="fill" values="#4d9078;#f78154;#4d9078;#4d9078" dur="1.9s" repeatCount="indefinite"/></circle></g><use href="#d0" x="160" y="200" /><use href="#d0" x="160" y="240" /><g transform="translate(160,280)"><use href="#b0" /><circle r="18" fill="#4d9078"><animate attributeType="XML" attributeName="fill" values="#4d9078;#f78154;#4d9078;#4d9078" dur="1.8s" repeatCount="indefinite"/></circle></g><g transform="translate(160,320)"><use href="#p0" /><circle r="18" fill="#b4436c"><animate attributeType="XML" attributeName="fill" values="#b4436c;#201335;#b4436c;#b4436c" dur="1.1s" repeatCount="indefinite"/></circle></g><g transform="translate(200,40)"><use href="#b0" /><circle r="18" fill="#4d9078"><animate attributeType="XML" attributeName="fill" values="#4d9078;#f78154;#4d9078;#4d9078" dur="1.0s" repeatCount="indefinite"/></circle></g><use href="#d0" x="200" y="80" /><use href="#d0" x="200" y="120" /><g transform="translate(200,160)"><use href="#p0" /><circle r="18" fill="#b4436c"><animate attributeType="XML" attributeName="fill" values="#b4436c;#201335;#b4436c;#b4436c" dur="1.2s" repeatCount="indefinite"/></circle></g><g transform="translate(200,200)"><use href="#b0" /><circle r="18" fill="#4d9078"><animate attributeType="XML" attributeName="fill" values="#4d9078;#f78154;#4d9078;#4d9078" dur="1.6s" repeatCount="indefinite"/></circle></g><g transform="translate(200,240)"><use href="#b0" /><circle r="18" fill="#4d9078"><animate attributeType="XML" attributeName="fill" values="#4d9078;#f78154;#4d9078;#4d9078" dur="1.0s" repeatCount="indefinite"/></circle></g><use href="#d0" x="200" y="280" /><use href="#l0" x="200" y="320" /><use href="#d0" x="240" y="40" /><g transform="translate(240,80)"><use href="#p0" /><circle r="18" fill="#b4436c"><animate attributeType="XML" attributeName="fill" values="#b4436c;#201335;#b4436c;#b4436c" dur="1.5s" repeatCount="indefinite"/></circle></g><use href="#l0" x="240" y="120" /><use href="#l0" x="240" y="160" /><use href="#d0" x="240" y="200" /><use href="#l0" x="240" y="240" /><use href="#d0" x="240" y="280" /><g transform="translate(240,320)"><use href="#p0" /><circle r="18" fill="#b4436c"><animate attributeType="XML" attributeName="fill" values="#b4436c;#201335;#b4436c;#b4436c" dur="1.5s" repeatCount="indefinite"/></circle></g><g transform="translate(280,40)"><use href="#p0" /><circle r="18" fill="#b4436c"><animate attributeType="XML" attributeName="fill" values="#b4436c;#201335;#b4436c;#b4436c" dur="1.0s" repeatCount="indefinite"/></circle></g><g transform="translate(280,80)"><use href="#p0" /><circle r="18" fill="#b4436c"><animate attributeType="XML" attributeName="fill" values="#b4436c;#201335;#b4436c;#b4436c" dur="1.6s" repeatCount="indefinite"/></circle></g><g transform="translate(280,120)"><use href="#b0" /><circle r="18" fill="#4d9078"><animate attributeType="XML" attributeName="fill" values="#4d9078;#f78154;#4d9078;#4d9078" dur="1.2s" repeatCount="indefinite"/></circle></g><use href="#d0" x="280" y="160" /><use href="#d0" x="280" y="200" /><use href="#d0" x="280" y="240" /><use href="#l0" x="280" y="280" /><use href="#d0" x="280" y="320" /><use href="#d0" x="320" y="40" /><use href="#d0" x="320" y="80" /><g transform="translate(320,120)"><use href="#b0" /><circle r="18" fill="#4d9078"><animate attributeType="XML" attributeName="fill" values="#4d9078;#f78154;#4d9078;#4d9078" dur="1.4s" repeatCount="indefinite"/></circle></g><g transform="translate(320,160)"><use href="#p0" /><circle r="18" fill="#b4436c"><animate attributeType="XML" attributeName="fill" values="#b4436c;#201335;#b4436c;#b4436c" dur="1.1s" repeatCount="indefinite"/></circle></g><use href="#l0" x="320" y="200" /><use href="#d0" x="320" y="240" /><g transform="translate(320,280)"><use href="#p0" /><circle r="18" fill="#b4436c"><animate attributeType="XML" attributeName="fill" values="#b4436c;#201335;#b4436c;#b4436c" dur="1.2s" repeatCount="indefinite"/></circle></g><use href="#d0" x="320" y="320" /></svg>