<svg width="360" height="360" xmlns="http://www.w3.org/2000/svg"><defs><animate id="aa" begin="0s"/><circle id="l0" r="18" fill="#fad643"></circle><circle id="d0" r="18" fill="#ffe169"></circle></defs><rect width="100%" height="100%" fill="#76520e" /><use href="#d0" x="40" y="40" /><use href="#d0" x="40" y="80" /><use href="#d0" x="40" y="120" /><use href="#d0" x="40" y="160" /><use href="#d0" x="40" y="200" /><use href="#d0" x="40" y="240" /><use href="#d0" x="40" y="280" /><use href="#d0" x="40" y="320" /><use href="#l0" x="80" y="40" /><use href="#l0" x="80" y="80" /><use href="#l0" x="80" y="120" /><use href="#l0" x="80" y="160" /><use href="#l0" x="80" y="200" /><use href="#l0" x="80" y="240" /><use href="#l0" x="80" y="280" /><use href="#d0" x="80" y="320" /><use href="#l0" x="120" y="40" /><use href="#d0" x="120" y="80" /><use href="#d0" x="120" y="120" /><use href="#d0" x="120" y="160" /><use href="#d0" x="120" y="200" /><use href="#d0" x="120" y="240" /><use href="#l0" x="120" y="280" /><use href="#d0" x="120" y="320" /><use href="#d0" x="160" y="40" /><use href="#d0" x="160" y="80" /><use href="#l0" x="160" y="120" /><use href="#l0" x="160" y="160" /><use href="#l0" x="160" y="200" /><use href="#d0" x="160" y="240" /><use href="#d0" x="160" y="280" /><use href="#d0" x="160" y="320" /><g transform="translate(200,40)"><use href="#p0" /><circle r="18" fill="#dbb42c"><animate attributeType="XML" attributeName="fill" values="#dbb42c;#ffe169;#dbb42c;#dbb42c" dur="0.0s" repeatCount="indefinite"/></circle></g><use href="#l0" x="200" y="80" /><use href="#d0" x="200" y="120" /><use href="#d0" x="200" y="160" /><g transform="translate(200,200)"><use href="#b0" /><circle r="18" fill="#805b10"><animate attributeType="XML" attributeName="fill" values="#805b10;#fad643;#805b10;#805b10" dur="0.6s" repeatCount="indefinite"/></circle></g><use href="#l0" x="200" y="240" /><use href="#l0" x="200" y="280" /><use href="#l0" x="200" y="320" /><use href="#d0" x="240" y="40" /><use href="#l0" x="240" y="80" /><use href="#l0" x="240" y="120" /><g transform="translate(240,160)"><use href="#b0" /><circle r="18" fill="#805b10"><animate attributeType="XML" attributeName="fill" values="#805b10;#fad643;#805b10;#805b10" dur="0.5s" repeatCount="indefinite"/></circle></g><use href="#d0" x="240" y="200" /><use href="#d0" x="240" y="240" /><use href="#d0" x="240" y="280" /><use href="#l0" x="240" y="320" /><use href="#d0" x="280" y="40" /><use href="#d0" x="280" y="80" /><use href="#d0" x="280" y="120" /><use href="#d0" x="280" y="160" /><g transform="translate(280,200)"><use href="#p0" /><circle r="18" fill="#dbb42c"><animate attributeType="XML" attributeName="fill" values="#dbb42c;#ffe169;#dbb42c;#dbb42c" dur="0.4s" repeatCount="indefinite"/></circle></g><g transform="translate(280,240)"><use href="#b0" /><circle r="18" fill="#805b10"><animate attributeType="XML" attributeName="fill" values="#805b10;#fad643;#805b10;#805b10" dur="0.0s" repeatCount="indefinite"/></circle></g><use href="#d0" x="280" y="280" /><use href="#d0" x="280" y="320" /><use href="#l0" x="320" y="40" /><use href="#l0" x="320" y="80" /><use href="#l0" x="320" y="120" /><use href="#l0" x="320" y="160" /><use href="#l0" x="320" y="200" /><use href="#l0" x="320" y="240" /><use href="#l0" x="320" y="280" /><use href="#l0" x="320" y="320" /></svg>