<svg width="360" height="360" xmlns="http://www.w3.org/2000/svg"><defs><animate id="aa" begin="0s"/><rect id="l0" width="36" height="36" fill="#fbff12"></rect><circle id="d0" r="18" fill="#41ead4"></circle></defs><rect width="100%" height="100%" fill="#ff206e" /><use href="#d0" x="40" y="40" /><use href="#l0" x="22" y="62" /><g transform="translate(40,120)"><use href="#p0" /><circle r="18" fill="#FD9040"><animate attributeType="XML" attributeName="fill" values="#FD9040;#41ead4;#FD9040;#FD9040" dur="2.0s" repeatCount="indefinite"/></circle></g><use href="#d0" x="40" y="160" /><g transform="translate(22,182)"><use href="#b0" /><polygon points="0,0 0,36 36,36 36,0" fill="#9EF573"><animate attributeType="XML" attributeName="fill" values="#9EF573;#fbff12;#9EF573;#9EF573" dur="2.0s" repeatCount="indefinite"/></polygon></g><use href="#l0" x="22" y="222" /><use href="#d0" x="40" y="280" /><use href="#l0" x="22" y="302" /><use href="#d0" x="80" y="40" /><use href="#l0" x="62" y="62" /><g transform="translate(62,102)"><use href="#b0" /><polygon points="0,0 0,36 36,36 36,0" fill="#9EF573"><animate attributeType="XML" attributeName="fill" values="#9EF573;#fbff12;#9EF573;#9EF573" dur="2.2s" repeatCount="indefinite"/></polygon></g><g transform="translate(62,142)"><use href="#b0" /><polygon points="0,0 0,36 36,36 36,0" fill="#9EF573"><animate attributeType="XML" attributeName="fill" values="#9EF573;#fbff12;#9EF573;#9EF573" dur="2.3s" repeatCount="indefinite"/></polygon></g><use href="#d0" x="80" y="200" /><use href="#d0" x="80" y="240" /><use href="#d0" x="80" y="280" /><use href="#l0" x="62" y="302" /><use href="#d0" x="120" y="40" /><use href="#l0" x="102" y="62" /><use href="#d0" x="120" y="120" /><use href="#d0" x="120" y="160" /><g transform="translate(120,200)"><use href="#p0" /><circle r="18" fill="#FD9040"><animate attributeType="XML" attributeName="fill" values="#FD9040;#41ead4;#FD9040;#FD9040" dur="2.8s" repeatCount="indefinite"/></circle></g><g transform="translate(120,240)"><use href="#p0" /><circle r="18" fill="#FD9040"><animate attributeType="XML" attributeName="fill" values="#FD9040;#41ead4;#FD9040;#FD9040" dur="2.0s" repeatCount="indefinite"/></circle></g><use href="#d0" x="120" y="280" /><use href="#l0" x="102" y="302" /><use href="#d0" x="160" y="40" /><g transform="translate(142,62)"><use href="#b0" /><polygon points="0,0 0,36 36,36 36,0" fill="#9EF573"><animate attributeType="XML" attributeName="fill" values="#9EF573;#fbff12;#9EF573;#9EF573" dur="2.3s" repeatCount="indefinite"/></polygon></g><g transform="translate(160,120)"><use href="#p0" /><circle r="18" fill="#FD9040"><animate attributeType="XML" attributeName="fill" values="#FD9040;#41ead4;#FD9040;#FD9040" dur="2.6s" repeatCount="indefinite"/></circle></g><g transform="translate(160,160)"><use href="#p0" /><circle r="18" fill="#FD9040"><animate attributeType="XML" attributeName="fill" values="#FD9040;#41ead4;#FD9040;#FD9040" dur="2.9s" repeatCount="indefinite"/></circle></g><use href="#d0" x="160" y="200" /><g transform="translate(160,240)"><use href="#p0" /><circle r="18" fill="#FD9040"><animate attributeType="XML" attributeName="fill" values="#FD9040;#41ead4;#FD9040;#FD9040" dur="2.5s" repeatCount="indefinite"/></circle></g><g transform="translate(142,262)"><use href="#b0" /><polygon points="0,0 0,36 36,36 36,0" fill="#9EF573"><animate attributeType="XML" attributeName="fill" values="#9EF573;#fbff12;#9EF573;#9EF573" dur="2.8s" repeatCount="indefinite"/></polygon></g><g transform="translate(160,320)"><use href="#p0" /><circle r="18" fill="#FD9040"><animate attributeType="XML" attributeName="fill" values="#FD9040;#41ead4;#FD9040;#FD9040" dur="2.1s" repeatCount="indefinite"/></circle></g><use href="#l0" x="182" y="22" /><g transform="translate(182,62)"><use href="#b0" /><polygon points="0,0 0,36 36,36 36,0" fill="#9EF573"><animate attributeType="XML" attributeName="fill" values="#9EF573;#fbff12;#9EF573;#9EF573" dur="2.4s" repeatCount="indefinite"/></polygon></g><use href="#d0" x="200" y="120" /><g transform="translate(200,160)"><use href="#p0" /><circle r="18" fill="#FD9040"><animate attributeType="XML" attributeName="fill" values="#FD9040;#41ead4;#FD9040;#FD9040" dur="2.2s" repeatCount="indefinite"/></circle></g><use href="#d0" x="200" y="200" /><g transform="translate(182,222)"><use href="#b0" /><polygon points="0,0 0,36 36,36 36,0" fill="#9EF573"><animate attributeType="XML" attributeName="fill" values="#9EF573;#fbff12;#9EF573;#9EF573" dur="2.0s" repeatCount="indefinite"/></polygon></g><use href="#l0" x="182" y="262" /><use href="#d0" x="200" y="320" /><use href="#d0" x="240" y="40" /><use href="#l0" x="222" y="62" /><use href="#d0" x="240" y="120" /><g transform="translate(240,160)"><use href="#p0" /><circle r="18" fill="#FD9040"><animate attributeType="XML" attributeName="fill" values="#FD9040;#41ead4;#FD9040;#FD9040" dur="2.5s" repeatCount="indefinite"/></circle></g><g transform="translate(222,182)"><use href="#b0" /><polygon points="0,0 0,36 36,36 36,0" fill="#9EF573"><animate attributeType="XML" attributeName="fill" values="#9EF573;#fbff12;#9EF573;#9EF573" dur="2.0s" repeatCount="indefinite"/></polygon></g><use href="#d0" x="240" y="240" /><g transform="translate(240,280)"><use href="#p0" /><circle r="18" fill="#FD9040"><animate attributeType="XML" attributeName="fill" values="#FD9040;#41ead4;#FD9040;#FD9040" dur="2.0s" repeatCount="indefinite"/></circle></g><g transform="translate(222,302)"><use href="#b0" /><polygon points="0,0 0,36 36,36 36,0" fill="#9EF573"><animate attributeType="XML" attributeName="fill" values="#9EF573;#fbff12;#9EF573;#9EF573" dur="2.5s" repeatCount="indefinite"/></polygon></g><use href="#d0" x="280" y="40" /><use href="#l0" x="262" y="62" /><use href="#d0" x="280" y="120" /><use href="#l0" x="262" y="142" /><use href="#d0" x="280" y="200" /><use href="#l0" x="262" y="222" /><use href="#d0" x="280" y="280" /><use href="#l0" x="262" y="302" /><use href="#d0" x="320" y="40" /><use href="#l0" x="302" y="62" /><use href="#d0" x="320" y="120" /><use href="#l0" x="302" y="142" /><use href="#d0" x="320" y="200" /><use href="#l0" x="302" y="222" /><use href="#d0" x="320" y="280" /><use href="#l0" x="302" y="302" /></svg>