<svg width="360" height="360" xmlns="http://www.w3.org/2000/svg"><defs><animate id="aa" begin="0s"/><rect id="d0" width="36" height="36" fill="#cce4fd"></rect><circle id="l0" r="18" fill="#0f3375"></circle></defs><rect width="100%" height="100%" fill="#e8f3fe" /><use href="#l0" x="40" y="40" /><use href="#d0" x="22" y="62" /><use href="#d0" x="22" y="102" /><use href="#d0" x="22" y="142" /><use href="#d0" x="22" y="182" /><use href="#d0" x="22" y="222" /><use href="#d0" x="22" y="262" /><use href="#d0" x="22" y="302" /><use href="#d0" x="62" y="22" /><use href="#d0" x="62" y="62" /><use href="#d0" x="62" y="102" /><use href="#l0" x="80" y="160" /><use href="#l0" x="80" y="200" /><use href="#d0" x="62" y="222" /><use href="#d0" x="62" y="262" /><use href="#d0" x="62" y="302" /><use href="#d0" x="102" y="22" /><use href="#d0" x="102" y="62" /><g transform="translate(120,120)"><use href="#b0" /><circle r="18" fill="#196bde"><animate attributeType="XML" attributeName="fill" values="#196bde;#0f3375;#196bde;#196bde" dur="4s" begin="aa.begin +1s" repeatCount="indefinite"/></circle></g><g transform="translate(102,142)"><use href="#p0" /><polygon points="0,0 0,36 36,36 36,0" fill="#77b6fb"><animate attributeType="XML" attributeName="fill" values="#77b6fb;#cce4fd;#77b6fb;#77b6fb" dur="4s" begin="aa.begin +1.5s" repeatCount="indefinite"/></polygon></g><g transform="translate(102,182)"><use href="#p0" /><polygon points="0,0 0,36 36,36 36,0" fill="#77b6fb"><animate attributeType="XML" attributeName="fill" values="#77b6fb;#cce4fd;#77b6fb;#77b6fb" dur="4s" begin="aa.begin +2s" repeatCount="indefinite"/></polygon></g><use href="#d0" x="102" y="222" /><use href="#d0" x="102" y="262" /><use href="#d0" x="102" y="302" /><use href="#d0" x="142" y="22" /><use href="#d0" x="142" y="62" /><use href="#d0" x="142" y="102" /><g transform="translate(142,142)"><use href="#p0" /><polygon points="0,0 0,36 36,36 36,0" fill="#77b6fb"><animate attributeType="XML" attributeName="fill" values="#77b6fb;#cce4fd;#77b6fb;#77b6fb" dur="4s" begin="aa.begin +s" repeatCount="indefinite"/></polygon></g><use href="#l0" x="160" y="200" /><use href="#d0" x="142" y="222" /><use href="#d0" x="142" y="262" /><use href="#d0" x="142" y="302" /><use href="#d0" x="182" y="22" /><use href="#l0" x="200" y="80" /><use href="#d0" x="182" y="102" /><g transform="translate(182,142)"><use href="#p0" /><polygon points="0,0 0,36 36,36 36,0" fill="#77b6fb"><animate attributeType="XML" attributeName="fill" values="#77b6fb;#cce4fd;#77b6fb;#77b6fb" dur="4s" begin="aa.begin +2.5s" repeatCount="indefinite"/></polygon></g><use href="#l0" x="200" y="200" /><g transform="translate(200,240)"><use href="#b0" /><circle r="18" fill="#196bde"><animate attributeType="XML" attributeName="fill" values="#196bde;#0f3375;#196bde;#196bde" dur="4s" begin="aa.begin +3s" repeatCount="indefinite"/></circle></g><use href="#d0" x="182" y="262" /><use href="#d0" x="182" y="302" /><use href="#l0" x="240" y="40" /><use href="#d0" x="222" y="62" /><use href="#l0" x="240" y="120" /><g transform="translate(222,142)"><use href="#p0" /><polygon points="0,0 0,36 36,36 36,0" fill="#77b6fb"><animate attributeType="XML" attributeName="fill" values="#77b6fb;#cce4fd;#77b6fb;#77b6fb" dur="4s" begin="aa.begin +3.5s" repeatCount="indefinite"/></polygon></g><use href="#l0" x="240" y="200" /><g transform="translate(240,240)"><use href="#b0" /><circle r="18" fill="#196bde"><animate attributeType="XML" attributeName="fill" values="#196bde;#0f3375;#196bde;#196bde" dur="4s" begin="aa.begin +4s" repeatCount="indefinite"/></circle></g><g transform="translate(240,280)"><use href="#b0" /><circle r="18" fill="#196bde"><animate attributeType="XML" attributeName="fill" values="#196bde;#0f3375;#196bde;#196bde" dur="4s" begin="aa.begin +4.5s" repeatCount="indefinite"/></circle></g><use href="#d0" x="222" y="302" /><g transform="translate(262,22)"><use href="#p0" /><polygon points="0,0 0,36 36,36 36,0" fill="#77b6fb"><animate attributeType="XML" attributeName="fill" values="#77b6fb;#cce4fd;#77b6fb;#77b6fb" dur="4s" begin="aa.begin +5s" repeatCount="indefinite"/></polygon></g><use href="#d0" x="262" y="62" /><use href="#l0" x="280" y="120" /><g transform="translate(280,160)"><use href="#b0" /><circle r="18" fill="#196bde"><animate attributeType="XML" attributeName="fill" values="#196bde;#0f3375;#196bde;#196bde" dur="4s" begin="aa.begin +5.5s" repeatCount="indefinite"/></circle></g><g transform="translate(280,200)"><use href="#b0" /><circle r="18" fill="#196bde"><animate attributeType="XML" attributeName="fill" values="#196bde;#0f3375;#196bde;#196bde" dur="4s" begin="aa.begin +6s" repeatCount="indefinite"/></circle></g><use href="#d0" x="262" y="222" /><use href="#d0" x="262" y="262" /><use href="#l0" x="280" y="320" /><use href="#d0" x="302" y="22" /><use href="#l0" x="320" y="80" /><g transform="translate(320,120)"><use href="#b0" /><circle r="18" fill="#196bde"><animate attributeType="XML" attributeName="fill" values="#196bde;#0f3375;#196bde;#196bde" dur="4s" begin="aa.begin +6.5s" repeatCount="indefinite"/></circle></g><use href="#d0" x="302" y="142" /><use href="#d0" x="302" y="182" /><use href="#d0" x="302" y="222" /><use href="#d0" x="302" y="262" /><use href="#l0" x="320" y="320" /></svg>