<svg width="360" height="360" xmlns="http://www.w3.org/2000/svg"><defs><animate id="aa" begin="0s"/><circle id="l0" r="18" fill="#EE9B00"></circle><circle id="d0" r="18" fill="#001219"></circle></defs><rect width="100%" height="100%" fill="#005F73" /><use href="#d0" x="40" y="40" /><use href="#d0" x="40" y="80" /><use href="#l0" x="40" y="120" /><use href="#d0" x="40" y="160" /><use href="#l0" x="40" y="200" /><g transform="translate(40,240)"><use href="#p0" /><circle r="18" fill="#9B2226"><animate attributeType="XML" attributeName="fill" values="#9B2226;#001219;#9B2226;#9B2226" dur="2.0s" repeatCount="indefinite"/></circle></g><use href="#l0" x="40" y="280" /><use href="#l0" x="40" y="320" /><use href="#l0" x="80" y="40" /><use href="#d0" x="80" y="80" /><use href="#l0" x="80" y="120" /><use href="#d0" x="80" y="160" /><use href="#l0" x="80" y="200" /><use href="#d0" x="80" y="240" /><g transform="translate(80,280)"><use href="#b0" /><circle r="18" fill="#94D2BD"><animate attributeType="XML" attributeName="fill" values="#94D2BD;#EE9B00;#94D2BD;#94D2BD" dur="2.6s" repeatCount="indefinite"/></circle></g><use href="#d0" x="80" y="320" /><use href="#l0" x="120" y="40" /><use href="#d0" x="120" y="80" /><g transform="translate(120,120)"><use href="#p0" /><circle r="18" fill="#9B2226"><animate attributeType="XML" attributeName="fill" values="#9B2226;#001219;#9B2226;#9B2226" dur="2.4s" repeatCount="indefinite"/></circle></g><use href="#d0" x="120" y="160" /><use href="#l0" x="120" y="200" /><use href="#d0" x="120" y="240" /><use href="#l0" x="120" y="280" /><use href="#d0" x="120" y="320" /><use href="#l0" x="160" y="40" /><use href="#d0" x="160" y="80" /><use href="#d0" x="160" y="120" /><use href="#d0" x="160" y="160" /><use href="#l0" x="160" y="200" /><use href="#d0" x="160" y="240" /><use href="#l0" x="160" y="280" /><use href="#d0" x="160" y="320" /><g transform="translate(200,40)"><use href="#b0" /><circle r="18" fill="#94D2BD"><animate attributeType="XML" attributeName="fill" values="#94D2BD;#EE9B00;#94D2BD;#94D2BD" dur="2.0s" repeatCount="indefinite"/></circle></g><g transform="translate(200,80)"><use href="#p0" /><circle r="18" fill="#9B2226"><animate attributeType="XML" attributeName="fill" values="#9B2226;#001219;#9B2226;#9B2226" dur="2.4s" repeatCount="indefinite"/></circle></g><g transform="translate(200,120)"><use href="#p0" /><circle r="18" fill="#9B2226"><animate attributeType="XML" attributeName="fill" values="#9B2226;#001219;#9B2226;#9B2226" dur="2.8s" repeatCount="indefinite"/></circle></g><g transform="translate(200,160)"><use href="#b0" /><circle r="18" fill="#94D2BD"><animate attributeType="XML" attributeName="fill" values="#94D2BD;#EE9B00;#94D2BD;#94D2BD" dur="2.2s" repeatCount="indefinite"/></circle></g><use href="#l0" x="200" y="200" /><use href="#d0" x="200" y="240" /><use href="#l0" x="200" y="280" /><use href="#d0" x="200" y="320" /><use href="#l0" x="240" y="40" /><use href="#d0" x="240" y="80" /><g transform="translate(240,120)"><use href="#b0" /><circle r="18" fill="#94D2BD"><animate attributeType="XML" attributeName="fill" values="#94D2BD;#EE9B00;#94D2BD;#94D2BD" dur="2.0s" repeatCount="indefinite"/></circle></g><use href="#d0" x="240" y="160" /><use href="#l0" x="240" y="200" /><use href="#d0" x="240" y="240" /><use href="#l0" x="240" y="280" /><use href="#d0" x="240" y="320" /><use href="#d0" x="280" y="40" /><g transform="translate(280,80)"><use href="#p0" /><circle r="18" fill="#9B2226"><animate attributeType="XML" attributeName="fill" values="#9B2226;#001219;#9B2226;#9B2226" dur="2.6s" repeatCount="indefinite"/></circle></g><use href="#l0" x="280" y="120" /><use href="#d0" x="280" y="160" /><use href="#l0" x="280" y="200" /><use href="#d0" x="280" y="240" /><g transform="translate(280,280)"><use href="#b0" /><circle r="18" fill="#94D2BD"><animate attributeType="XML" attributeName="fill" values="#94D2BD;#EE9B00;#94D2BD;#94D2BD" dur="2.6s" repeatCount="indefinite"/></circle></g><g transform="translate(280,320)"><use href="#p0" /><circle r="18" fill="#9B2226"><animate attributeType="XML" attributeName="fill" values="#9B2226;#001219;#9B2226;#9B2226" dur="2.2s" repeatCount="indefinite"/></circle></g><g transform="translate(320,40)"><use href="#b0" /><circle r="18" fill="#94D2BD"><animate attributeType="XML" attributeName="fill" values="#94D2BD;#EE9B00;#94D2BD;#94D2BD" dur="2.0s" repeatCount="indefinite"/></circle></g><use href="#l0" x="320" y="80" /><g transform="translate(320,120)"><use href="#b0" /><circle r="18" fill="#94D2BD"><animate attributeType="XML" attributeName="fill" values="#94D2BD;#EE9B00;#94D2BD;#94D2BD" dur="2.4s" repeatCount="indefinite"/></circle></g><use href="#d0" x="320" y="160" /><use href="#l0" x="320" y="200" /><use href="#d0" x="320" y="240" /><use href="#d0" x="320" y="280" /><g transform="translate(320,320)"><use href="#p0" /><circle r="18" fill="#9B2226"><animate attributeType="XML" attributeName="fill" values="#9B2226;#001219;#9B2226;#9B2226" dur="2.9s" repeatCount="indefinite"/></circle></g></svg>